mtllib 3550-0.mtl
g mesh00
usemtl texture00
v 3.843800 -1.307355 -6.551086
vt 0.075226 0.321655
vn -0.078740 -0.944882 0.330709
v 2.528315 0.000000 -5.166789
vt 0.052124 0.316406
vn -0.732283 0.000000 0.685039
v -2.620830 0.000000 -7.197720
vt 0.013214 0.363983
vn -0.653543 0.000000 0.763780
v 5.685224 -1.779284 22.246070
vt 0.238098 0.906494
vn -0.039370 -0.992126 -0.149606
v 12.677062 0.000000 17.368069
vt 0.302185 0.938171
vn 0.236220 -0.976378 -0.031496
v 14.342328 0.000000 18.758645
vt 0.325806 0.932770
vn 0.173228 -0.984252 -0.078740
v 3.888156 1.265781 90.293242
vt 0.223480 0.154816
vn 0.141732 0.984252 0.118110
v 0.466376 0.000000 99.182881
vt 0.184814 0.057098
vn 0.188976 0.952756 0.244094
v 6.989303 0.000000 92.603543
vt 0.264557 0.125366
vn 0.244094 0.952756 0.188976
v 17.959276 0.000000 46.143252
vt 0.399475 0.660065
vn 0.314961 -0.952756 -0.039370
v 13.884823 -1.386010 46.890334
vt 0.334778 0.640930
vn 0.110236 -0.992126 -0.070866
v 14.574249 0.000000 31.779203
vt 0.350311 0.806305
vn 0.118110 -0.992126 -0.078740
v 17.959276 0.000000 46.143252
vt 0.399475 0.660065
vn 0.314961 0.952756 -0.039370
v 14.574249 0.000000 31.779203
vt 0.350311 0.806305
vn 0.118110 0.992126 -0.078740
v 13.884823 1.386010 46.890334
vt 0.334778 0.640930
vn 0.110236 0.992126 -0.070866
v 0.006337 -2.590552 32.789960
vt 0.438995 0.824890
vn 0.000000 -0.519685 0.858268
v -2.595484 -2.590552 30.985037
vt 0.487732 0.867004
vn -0.590551 -0.748031 0.307087
v 2.609424 -2.590552 30.985037
vt 0.487732 0.779510
vn 0.590551 -0.748031 0.307087
v -2.501701 0.000000 79.479398
vt 0.140259 0.279999
vn -1.000000 0.000000 -0.023622
v -1.255920 1.265781 80.091502
vt 0.164917 0.263336
vn -0.283465 0.960630 0.007874
v -6.150333 0.000000 65.262882
vt 0.099457 0.441254
vn -0.519685 0.858268 0.070866
v -1.992236 0.000000 16.887803
vt 0.791748 0.779510
vn -0.842520 0.000000 -0.543307
v -2.595484 2.590552 18.400799
vt 0.819763 0.779510
vn -0.637795 0.637795 -0.425197
v 0.006337 2.001203 16.887803
vt 0.791748 0.822754
vn 0.000000 0.842520 -0.543307
v 12.817735 0.000000 13.645219
vt 0.302124 0.956818
vn 0.291339 -0.960630 0.000000
v 6.600234 -1.779284 17.641162
vt 0.270752 0.956390
vn -0.165354 -0.992126 -0.031496
v 2.609424 2.590552 18.400799
vt 0.819763 0.867004
vn 0.637795 0.637795 -0.425197
v 2.006177 0.000000 16.887803
vt 0.791748 0.867004
vn 0.842520 0.000000 -0.543307
v -2.595484 -2.590552 18.400799
vt 0.819763 0.779510
vn -0.637795 -0.637795 -0.425197
v 0.006337 -2.001203 16.887803
vt 0.774231 0.822754
vn 0.000000 -0.842520 -0.543307
v 2.609424 -2.590552 18.400799
vt 0.819763 0.867004
vn 0.637795 -0.637795 -0.425197
v 2.006177 0.000000 16.887803
vt 0.801392 0.822754
vn 0.842520 0.000000 -0.543307
v 2.609424 -2.590552 18.400799
vt 0.819763 0.779510
vn 0.637795 -0.637795 -0.425197
v 7.166728 -1.536016 2.624201
vt 0.062958 0.217987
vn -0.228346 -0.976378 0.007874
v 11.002924 0.000000 1.396854
vt 0.101532 0.210144
vn 0.314961 -0.944882 -0.078740
v 12.817735 0.000000 13.645219
vt 0.057953 0.101105
vn 0.291339 -0.960630 0.000000
v -7.769976 0.000000 34.717304
vt 0.099854 0.757019
vn -0.834646 0.000000 0.551181
v -8.673579 0.000000 33.345563
vt 0.084717 0.784149
vn -0.968504 0.000000 0.267717
v -5.301225 -1.386010 38.788583
vt 0.119659 0.720886
vn -0.519685 -0.842520 0.125984
v 0.006337 -2.001203 16.887803
vt 0.791748 0.822754
vn 0.000000 -0.842520 -0.543307
v -1.992236 0.000000 16.887803
vt 0.801392 0.822754
vn -0.842520 0.000000 -0.543307
v -2.595484 -2.590552 18.400799
vt 0.819763 0.867004
vn -0.637795 -0.637795 -0.425197
v 4.154295 0.000000 20.921413
vt 0.216583 0.931763
vn -0.708661 0.000000 -0.708661
v -2.921186 -1.386010 23.702565
vt 0.144653 0.890503
vn -0.212598 -0.913386 -0.346457
v 6.174412 1.386010 36.993077
vt 0.239075 0.740631
vn 0.330709 0.944882 -0.078740
v 6.273264 2.795616 48.302882
vt 0.249664 0.625122
vn 0.346457 0.937008 -0.070866
v 8.591203 1.386010 39.256294
vt 0.270508 0.715759
vn 0.299213 0.937008 -0.204724
v 7.510174 1.687146 48.183600
vt 0.264832 0.612457
vn 0.322835 0.944882 -0.031496
v -5.301225 1.386010 38.788583
vt 0.119659 0.720886
vn -0.519685 0.842520 0.125984
v -6.298610 1.386010 33.044219
vt 0.110260 0.784027
vn -0.291339 0.960630 -0.039370
v -4.905819 1.386010 26.458604
vt 0.119385 0.861145
vn -0.212598 0.976378 -0.086614
v -2.807127 1.386010 64.992928
vt 0.144012 0.438690
vn -0.330709 0.944882 0.094488
v -7.769976 0.000000 34.717304
vt 0.099854 0.757019
vn -0.527559 0.850394 0.023622
v 6.258056 0.000000 -9.621025
vt 0.112640 0.340393
vn 0.307087 -0.937008 -0.196850
v -0.059564 -2.450659 -7.753322
vt 0.071686 0.358429
vn -0.094488 -0.992126 0.086614
v -0.323168 0.000000 -15.569424
vt 0.068420 0.423767
vn -0.661417 0.000000 -0.748031
v 6.600234 1.779284 17.641162
vt 0.025452 0.100616
vn -0.165354 0.992126 -0.031496
v 7.166728 1.536016 2.624201
vt 0.062958 0.217987
vn -0.228346 0.976378 0.007874
v 6.156670 0.000000 14.213377
vt 0.009979 0.108887
vn -1.000000 0.000000 -0.118110
v -5.009740 0.000000 94.100845
vt 0.114868 0.116486
vn -1.000000 0.000000 0.000000
v -2.473820 -1.291624 96.329533
vt 0.147034 0.088470
vn -0.188976 -0.984252 0.000000
v -7.521580 0.000000 98.699475
vt 0.106598 0.068634
vn -0.322835 -0.866142 -0.377953
v -8.543044 -1.001725 101.129059
vt 0.083008 0.035736
vn -0.086614 -0.992126 0.086614
v -12.934329 0.000000 101.304842
vt 0.033386 0.033783
vn -0.220472 -0.976378 -0.039370
v -9.983994 0.000000 102.855507
vt 0.066711 0.016724
vn -0.078740 -0.897638 0.448819
v 2.609424 -2.590552 30.985037
vt 0.487732 0.867004
vn 0.590551 -0.748031 0.307087
v 2.609424 2.590552 30.985037
vt 0.487732 0.867004
vn 0.590551 0.748031 0.307087
v 0.006337 -2.590552 32.789960
vt 0.438995 0.824890
vn 0.000000 -0.519685 0.858268
v -7.769976 0.000000 34.717304
vt 0.099854 0.757019
vn -0.527559 -0.850394 0.023622
v -6.150333 0.000000 65.262882
vt 0.099457 0.441254
vn -0.519685 -0.858268 0.070866
v 6.258056 0.000000 -9.621025
vt 0.112640 0.340393
vn 0.307087 0.937008 -0.196850
v 11.002924 0.000000 1.396854
vt 0.101532 0.210144
vn 0.314961 0.944882 -0.078740
v 12.817735 0.000000 13.645219
vt 0.057953 0.101105
vn 0.291339 0.960630 0.000000
v 12.677062 0.000000 17.368069
vt 0.302185 0.938171
vn 0.236220 0.976378 -0.031496
v 5.685224 1.779284 22.246070
vt 0.238098 0.906494
vn -0.039370 0.992126 -0.149606
v 14.342328 0.000000 18.758645
vt 0.325806 0.932770
vn 0.173228 0.984252 -0.078740
v 6.820748 1.621974 30.689971
vt 0.256622 0.809906
vn 0.173228 0.984252 0.039370
v 13.616150 0.000000 28.822268
vt 0.321411 0.831543
vn 0.259843 0.952756 0.173228
v -9.983994 0.000000 102.855507
vt 0.066711 0.016724
vn -0.078740 0.897638 0.448819
v -5.302492 0.000000 102.616943
vt 0.119629 0.019348
vn 0.094488 0.913386 0.401575
v -8.543044 1.001725 101.129059
vt 0.083008 0.035736
vn -0.086614 0.992126 0.086614
v -2.473820 1.291624 96.329533
vt 0.147034 0.088470
vn -0.188976 0.984252 0.000000
v -1.255920 -1.265781 80.091502
vt 0.164917 0.263336
vn -0.283465 -0.960630 0.007874
v -2.807127 -1.386010 64.992928
vt 0.144012 0.438690
vn -0.330709 -0.944882 0.094488
v 5.178294 -2.233796 70.401419
vt 0.238068 0.373444
vn 0.015748 -1.000000 0.110236
v 2.885701 -4.103533 63.646298
vt 0.201691 0.443054
vn -0.055118 -1.000000 0.078740
v 10.617657 -1.689955 61.166491
vt 0.293976 0.470673
vn 0.307087 -0.952756 -0.007874
v 6.273264 -2.795616 48.302882
vt 0.249664 0.625122
vn 0.346457 -0.937008 -0.070866
v 0.466376 0.000000 99.182881
vt 0.184814 0.057098
vn 0.188976 -0.952756 0.244094
v 3.888156 -1.265781 90.293242
vt 0.223480 0.154816
vn 0.141732 -0.984252 0.118110
v 6.989303 0.000000 92.603543
vt 0.264557 0.125366
vn 0.244094 -0.952756 0.188976
v 10.133538 -1.265781 79.777603
vt 0.295868 0.274719
vn 0.133858 -0.992126 0.070866
v 13.759358 0.000000 81.447549
vt 0.358459 0.255951
vn 0.275591 -0.952756 0.118110
v 14.607199 -1.265781 64.653916
vt 0.344055 0.430695
vn 0.165354 -0.992126 0.007874
v 18.435791 0.000000 65.353913
vt 0.398956 0.425964
vn 0.307087 -0.952756 0.039370
v -0.895999 -2.906857 38.113699
vt 0.169403 0.728302
vn -0.031496 -1.000000 -0.047244
v -6.298610 -1.386010 33.044219
vt 0.110260 0.784027
vn -0.291339 -0.960630 -0.039370
v -7.032392 0.000000 25.771163
vt 0.094727 0.877686
vn -0.921260 0.000000 -0.393701
v -2.921186 1.386010 23.702565
vt 0.144653 0.890503
vn -0.212598 0.913386 -0.346457
v 14.342328 0.000000 18.758645
vt 0.325806 0.932770
vn 0.173228 -0.984252 -0.078740
v 6.820748 -1.621974 30.689971
vt 0.256622 0.809906
vn 0.173228 -0.984252 0.039370
v -4.905819 -1.386010 26.458604
vt 0.119385 0.861145
vn -0.212598 -0.976378 -0.086614
v -4.520552 0.000000 21.979255
vt 0.124664 0.917847
vn -0.496063 0.000000 -0.874016
v -6.216234 0.000000 90.086068
vt 0.107758 0.158630
vn -1.000000 0.000000 -0.047244
v -7.521580 0.000000 98.699475
vt 0.106598 0.068634
vn -0.322835 0.866142 -0.377953
v -12.934329 0.000000 101.304842
vt 0.033386 0.033783
vn -0.220472 0.976378 -0.039370
v 8.930846 0.000000 33.031663
vt 0.263519 0.781525
vn 0.456693 0.874016 0.157480
v 8.612747 0.000000 36.393528
vt 0.262207 0.747223
vn 0.362205 0.897638 -0.267717
v 10.768469 0.000000 37.278726
vt 0.300446 0.751251
vn 0.102362 0.960630 -0.251969
v 11.789934 0.000000 34.007891
vt 0.311981 0.788696
vn -0.149606 0.992126 -0.078740
v 10.617657 1.689955 61.166491
vt 0.293976 0.470673
vn 0.307087 0.952756 -0.007874
v 14.607199 1.265781 64.653916
vt 0.344055 0.430695
vn 0.165354 0.992126 0.007874
v 18.435791 0.000000 65.353913
vt 0.398956 0.425964
vn 0.307087 0.952756 0.039370
v 6.156670 0.000000 14.213377
vt 0.248871 0.989990
vn -1.000000 0.000000 -0.118110
v 6.600234 1.779284 17.641162
vt 0.270752 0.956390
vn -0.165354 0.992126 -0.031496
v 12.817735 0.000000 13.645219
vt 0.302124 0.956818
vn 0.291339 0.960630 0.000000
v -1.992236 0.000000 16.887803
vt 0.058411 0.444031
vn -0.842520 0.000000 -0.543307
v 0.006337 -2.001203 -7.681125
vt 0.035919 0.985229
vn 0.000000 -1.007874 0.000000
v 0.006337 -2.001203 16.887803
vt 0.035919 0.444031
vn 0.000000 -0.842520 -0.543307
v 2.006177 0.000000 -7.681125
vt 0.012054 0.985229
vn 1.000000 0.000000 0.000000
v 2.006177 0.000000 16.887803
vt 0.012054 0.444031
vn 0.842520 0.000000 -0.543307
v 0.006337 2.001203 -7.681125
vt 0.035919 0.985229
vn 0.000000 1.000000 0.000000
v 0.006337 2.001203 16.887803
vt 0.035919 0.444031
vn 0.000000 0.842520 -0.543307
v -1.992236 0.000000 -7.681125
vt 0.058594 0.985229
vn -1.007874 0.000000 0.000000
v 13.616150 0.000000 28.822268
vt 0.321411 0.831543
vn 0.259843 -0.952756 0.173228
v 8.930846 0.000000 33.031663
vt 0.263519 0.781525
vn 0.456693 -0.874016 0.157480
v 6.174412 -1.386010 36.993077
vt 0.239075 0.740631
vn 0.330709 -0.944882 -0.078740
v 8.612747 0.000000 36.393528
vt 0.262207 0.747223
vn 0.362205 -0.897638 -0.267717
v 8.591203 -1.386010 39.256294
vt 0.270508 0.715759
vn 0.299213 -0.937008 -0.204724
v 10.768469 0.000000 37.278726
vt 0.300446 0.751251
vn 0.102362 -0.960630 -0.251969
v 11.789934 0.000000 34.007891
vt 0.311981 0.788696
vn -0.149606 -0.992126 -0.078740
v -0.059564 2.450659 -7.753322
vt 0.071686 0.358429
vn -0.094488 0.992126 0.086614
v 3.843800 1.307355 -6.551086
vt 0.075226 0.321655
vn -0.078740 0.944882 0.330709
v 5.292353 0.000000 3.208055
vt 0.041077 0.222504
vn -0.992126 0.000000 0.133858
v 6.600234 -1.779284 17.641162
vt 0.025452 0.100616
vn -0.165354 -0.992126 -0.031496
v 13.759358 0.000000 81.447549
vt 0.358459 0.255951
vn 0.275591 0.952756 0.118110
v 10.133538 1.265781 79.777603
vt 0.295868 0.274719
vn 0.133858 0.992126 0.070866
v 5.178294 2.233796 70.401419
vt 0.238068 0.373444
vn 0.015748 1.000000 0.110236
v 2.885701 4.103533 63.646298
vt 0.201691 0.443054
vn -0.055118 1.000000 0.078740
v -0.895999 2.906857 38.113699
vt 0.169403 0.728302
vn -0.031496 1.000000 -0.047244
v 7.510174 -1.687146 48.183600
vt 0.264832 0.612457
vn 0.322835 -0.944882 -0.031496
v -5.302492 0.000000 102.616943
vt 0.119629 0.019348
vn 0.094488 -0.913386 0.401575
v 0.006337 2.001203 16.887803
vt 0.774231 0.822754
vn 0.000000 0.842520 -0.543307
v -2.595484 2.590552 30.985037
vt 0.487732 0.779510
vn -0.590551 0.748031 0.307087
v 0.006337 2.590552 32.789960
vt 0.438995 0.824890
vn 0.000000 0.519685 0.858268
v -2.595484 -2.590552 30.985037
vt 0.487732 0.779510
vn -0.590551 -0.748031 0.307087
f 1/1/1 2/2/2 3/3/3
f 4/4/4 5/5/5 6/6/6
f 7/7/7 8/8/8 9/9/9
f 10/10/10 11/11/11 12/12/12
f 13/13/13 14/14/14 15/15/15
f 16/16/16 17/17/17 18/18/18
f 19/19/19 20/20/20 21/21/21
f 22/22/22 23/23/23 24/24/24
f 25/25/25 5/5/5 26/26/26
f 24/24/24 27/27/27 28/28/28
f 29/29/29 30/30/30 31/31/31
f 32/32/32 27/27/27 33/33/33
f 2/2/2 1/1/1 34/34/34
f 34/34/34 1/1/1 35/35/35
f 34/34/34 35/35/35 36/36/36
f 37/37/37 38/38/38 39/39/39
f 28/28/28 31/31/31 40/40/40
f 23/23/23 41/41/41 42/42/42
f 43/43/43 4/4/4 44/44/44
f 45/45/45 46/46/46 47/47/47
f 47/47/47 46/46/46 48/48/48
f 47/47/47 48/48/48 15/15/15
f 37/37/37 49/49/49 38/38/38
f 38/38/38 49/49/49 50/50/50
f 38/38/38 50/50/50 51/51/51
f 20/20/20 52/52/52 21/21/21
f 21/21/21 52/52/52 49/49/49
f 21/21/21 49/49/49 53/53/53
f 54/54/54 55/55/55 56/56/56
f 57/57/57 58/58/58 59/59/59
f 40/40/40 29/29/29 22/22/22
f 60/60/60 61/61/61 62/62/62
f 62/62/62 61/61/61 63/63/63
f 62/62/62 63/63/63 64/64/64
f 64/64/64 63/63/63 65/65/65
f 66/66/66 67/67/67 68/68/68
f 69/69/69 39/39/39 70/70/70
f 71/71/71 58/58/58 72/72/72
f 72/72/72 58/58/58 57/57/57
f 72/72/72 57/57/57 73/73/73
f 74/74/74 75/75/75 76/76/76
f 76/76/76 75/75/75 77/77/77
f 76/76/76 77/77/77 78/78/78
f 79/79/79 80/80/80 81/81/81
f 81/81/81 80/80/80 8/8/8
f 81/81/81 8/8/8 82/82/82
f 83/83/83 84/84/84 85/85/85
f 85/85/85 84/84/84 86/86/86
f 85/85/85 86/86/86 87/87/87
f 87/87/87 86/86/86 88/88/88
f 89/89/89 90/90/90 91/91/91
f 91/91/91 90/90/90 92/92/92
f 91/91/91 92/92/92 93/93/93
f 93/93/93 92/92/92 94/94/94
f 93/93/93 94/94/94 95/95/95
f 96/96/96 39/39/39 97/97/97
f 97/97/97 39/39/39 38/38/38
f 97/97/97 38/38/38 98/98/98
f 98/98/98 38/38/38 51/51/51
f 98/98/98 51/51/51 99/99/99
f 100/100/100 101/101/101 4/4/4
f 4/4/4 101/101/101 102/102/102
f 4/4/4 102/102/102 44/44/44
f 44/44/44 102/102/102 103/103/103
f 44/44/44 103/103/103 43/43/43
f 43/43/43 103/103/103 75/75/75
f 83/83/83 61/61/61 104/104/104
f 104/104/104 61/61/61 60/60/60
f 104/104/104 60/60/60 82/82/82
f 82/82/82 60/60/60 105/105/105
f 82/82/82 105/105/105 81/81/81
f 81/81/81 105/105/105 106/106/106
f 81/81/81 106/106/106 79/79/79
f 107/107/107 45/45/45 108/108/108
f 108/108/108 45/45/45 47/47/47
f 108/108/108 47/47/47 109/109/109
f 109/109/109 47/47/47 15/15/15
f 109/109/109 15/15/15 110/110/110
f 110/110/110 15/15/15 14/14/14
f 46/46/46 111/111/111 48/48/48
f 48/48/48 111/111/111 112/112/112
f 48/48/48 112/112/112 15/15/15
f 15/15/15 112/112/112 113/113/113
f 15/15/15 113/113/113 13/13/13
f 5/5/5 4/4/4 26/26/26
f 26/26/26 4/4/4 43/43/43
f 26/26/26 43/43/43 114/114/114
f 114/114/114 43/43/43 75/75/75
f 114/114/114 75/75/75 115/115/115
f 115/115/115 75/75/75 74/74/74
f 115/115/115 74/74/74 116/116/116
f 117/117/117 118/118/118 119/119/119
f 119/119/119 118/118/118 120/120/120
f 119/119/119 120/120/120 121/121/121
f 121/121/121 120/120/120 122/122/122
f 121/121/121 122/122/122 123/123/123
f 123/123/123 122/122/122 124/124/124
f 123/123/123 124/124/124 117/117/117
f 117/117/117 124/124/124 118/118/118
f 100/100/100 125/125/125 101/101/101
f 101/101/101 125/125/125 126/126/126
f 101/101/101 126/126/126 127/127/127
f 127/127/127 126/126/126 128/128/128
f 127/127/127 128/128/128 129/129/129
f 129/129/129 128/128/128 130/130/130
f 129/129/129 130/130/130 11/11/11
f 11/11/11 130/130/130 131/131/131
f 11/11/11 131/131/131 12/12/12
f 132/132/132 3/3/3 133/133/133
f 133/133/133 3/3/3 2/2/2
f 133/133/133 2/2/2 134/134/134
f 134/134/134 2/2/2 34/34/34
f 134/134/134 34/34/34 135/135/135
f 135/135/135 34/34/34 36/36/36
f 8/8/8 7/7/7 82/82/82
f 82/82/82 7/7/7 20/20/20
f 82/82/82 20/20/20 104/104/104
f 104/104/104 20/20/20 19/19/19
f 104/104/104 19/19/19 83/83/83
f 83/83/83 19/19/19 70/70/70
f 83/83/83 70/70/70 84/84/84
f 84/84/84 70/70/70 39/39/39
f 84/84/84 39/39/39 86/86/86
f 86/86/86 39/39/39 96/96/96
f 86/86/86 96/96/96 88/88/88
f 136/136/136 113/113/113 137/137/137
f 137/137/137 113/113/113 112/112/112
f 137/137/137 112/112/112 138/138/138
f 138/138/138 112/112/112 111/111/111
f 138/138/138 111/111/111 139/139/139
f 139/139/139 111/111/111 46/46/46
f 139/139/139 46/46/46 140/140/140
f 140/140/140 46/46/46 45/45/45
f 140/140/140 45/45/45 77/77/77
f 77/77/77 45/45/45 107/107/107
f 77/77/77 107/107/107 78/78/78
f 88/88/88 141/141/141 87/87/87
f 87/87/87 141/141/141 94/94/94
f 87/87/87 94/94/94 85/85/85
f 85/85/85 94/94/94 92/92/92
f 85/85/85 92/92/92 83/83/83
f 83/83/83 92/92/92 90/90/90
f 83/83/83 90/90/90 61/61/61
f 61/61/61 90/90/90 89/89/89
f 61/61/61 89/89/89 63/63/63
f 63/63/63 89/89/89 142/142/142
f 63/63/63 142/142/142 65/65/65
f 143/143/143 23/23/23 27/27/27
f 27/27/27 23/23/23 67/67/67
f 27/27/27 67/67/67 33/33/33
f 33/33/33 67/67/67 18/18/18
f 33/33/33 18/18/18 42/42/42
f 42/42/42 18/18/18 17/17/17
f 42/42/42 17/17/17 23/23/23
f 23/23/23 17/17/17 144/144/144
f 23/23/23 144/144/144 67/67/67
f 67/67/67 144/144/144 145/145/145
f 67/67/67 145/145/145 68/68/68
f 68/68/68 145/145/145 144/144/144
f 68/68/68 144/144/144 146/146/146
f 135/135/135 59/59/59 134/134/134
f 134/134/134 59/59/59 58/58/58
f 134/134/134 58/58/58 133/133/133
f 133/133/133 58/58/58 71/71/71
f 133/133/133 71/71/71 132/132/132
f 132/132/132 71/71/71 56/56/56
f 132/132/132 56/56/56 3/3/3
f 3/3/3 56/56/56 55/55/55
f 3/3/3 55/55/55 1/1/1
f 1/1/1 55/55/55 54/54/54
f 1/1/1 54/54/54 35/35/35
f 9/9/9 136/136/136 7/7/7
f 7/7/7 136/136/136 137/137/137
f 7/7/7 137/137/137 20/20/20
f 20/20/20 137/137/137 138/138/138
f 20/20/20 138/138/138 52/52/52
f 52/52/52 138/138/138 139/139/139
f 52/52/52 139/139/139 49/49/49
f 49/49/49 139/139/139 140/140/140
f 49/49/49 140/140/140 50/50/50
f 50/50/50 140/140/140 77/77/77
f 50/50/50 77/77/77 51/51/51
f 51/51/51 77/77/77 75/75/75
f 51/51/51 75/75/75 99/99/99
f 99/99/99 75/75/75 103/103/103
f 99/99/99 103/103/103 98/98/98
f 98/98/98 103/103/103 102/102/102
f 98/98/98 102/102/102 97/97/97
f 97/97/97 102/102/102 101/101/101
f 97/97/97 101/101/101 96/96/96
f 96/96/96 101/101/101 127/127/127
f 96/96/96 127/127/127 88/88/88
f 88/88/88 127/127/127 129/129/129
f 88/88/88 129/129/129 141/141/141
f 141/141/141 129/129/129 11/11/11
f 141/141/141 11/11/11 94/94/94
f 94/94/94 11/11/11 10/10/10
f 94/94/94 10/10/10 95/95/95
g mesh01
