mtllib 3494-0.mtl
g mesh00
usemtl texture00
v 7.636924 0.000796 29.755711
vt 0.510132 0.837494
vn 1.000000 0.118110 0.000000
v 6.189953 2.682162 29.394159
vt 0.478119 0.810913
vn 0.763780 0.653543 0.000000
v 6.146069 0.000796 35.986453
vt 0.513672 0.753906
vn 0.984252 0.015748 0.181102
v -11.629141 -2.643152 97.841935
vt 0.247070 0.009766
vn -0.629921 -0.236220 0.740157
v -11.607793 -6.842738 98.393301
vt 0.208313 0.085052
vn -0.748031 -0.307087 0.598425
v -3.701637 0.000796 98.393301
vt 0.150391 0.009766
vn 0.031496 0.000000 1.000000
v 0.174348 2.992653 15.269536
vt 0.430664 0.987305
vn -0.070866 0.984252 -0.157480
v -0.288208 5.481356 28.074495
vt 0.397125 0.833313
vn -0.110236 0.992126 -0.086614
v 3.338708 3.686082 22.590960
vt 0.454376 0.899109
vn 0.669291 0.732283 -0.141732
v -0.528975 -9.294819 97.287556
vt 0.144531 0.076172
vn 0.472441 -0.590551 0.661417
v 4.629122 -9.294819 96.962159
vt 0.118469 0.061188
vn 0.669291 -0.464567 0.582677
v 0.995089 -8.696925 68.860548
vt 0.126282 0.386719
vn 0.669291 -0.740157 -0.094488
v -1.301088 -10.604452 83.494355
vt 0.146851 0.218750
vn 0.338583 -0.944882 -0.023622
v -4.846167 -8.487543 67.483638
vt 0.176331 0.387268
vn -0.401575 -0.905512 -0.149606
v -7.789924 -5.104786 55.519287
vt 0.256897 0.528839
vn -0.669291 -0.732283 -0.149606
v -6.919369 -1.575541 43.286786
vt 0.303802 0.660583
vn -0.984252 -0.086614 -0.181102
v -2.735013 -5.140612 41.750191
vt 0.228119 0.665619
vn -0.181102 -0.984252 -0.047244
v 7.181484 0.000796 55.233059
vt 0.520294 0.524994
vn 1.000000 0.000000 -0.118110
v 2.957989 -2.708434 56.155016
vt 0.478119 0.520294
vn 0.740157 -0.669291 -0.062992
v 2.582013 -2.347788 46.420234
vt 0.479156 0.638000
vn 0.748031 -0.669291 0.039370
v 3.778730 0.000796 15.269536
vt 0.506226 0.985931
vn 0.992126 -0.070866 -0.141732
v -0.051000 -2.542839 -18.800692
vt 0.051971 0.480255
vn -0.173228 -0.984252 0.039370
v -2.437316 0.000796 -16.628369
vt 0.112488 0.562500
vn -1.000000 0.000000 0.062992
v -3.890218 0.000796 -24.778348
vt 0.098724 0.469727
vn -1.000000 0.000000 0.031496
v 6.155558 0.239635 98.724724
vt 0.064728 0.007812
vn 0.779528 0.000000 0.629921
v -15.798079 0.000796 97.290568
vt 0.291992 0.036133
vn -0.803150 -0.299213 0.519685
v -11.629141 -2.643152 97.841935
vt 0.304688 0.009369
vn -0.629921 -0.236220 0.740157
v -3.701637 0.000796 98.393301
vt 0.404663 0.009369
vn 0.031496 0.000000 1.000000
v 4.950539 -8.768577 86.820632
vt 0.112976 0.150665
vn 0.866142 -0.503937 -0.062992
v 6.488836 0.000796 87.459373
vt 0.068359 0.125000
vn 0.968504 0.000000 0.251969
v 4.789237 0.530223 92.813352
vt 0.069611 0.070007
vn 1.000000 0.000000 0.031496
v -9.895148 -0.884501 54.937791
vt 0.302948 0.526031
vn -0.968504 0.173228 -0.196850
v -5.464095 3.558701 53.904356
vt 0.349457 0.523682
vn -0.866142 0.480315 -0.173228
v 5.562537 -0.011146 22.512624
vt 0.510925 0.907806
vn 0.960630 -0.157480 -0.244094
v 0.000000 -8.768577 85.157494
vt 0.143555 0.173828
vn 0.456693 -0.897638 -0.015748
v 2.028132 -7.330766 71.526992
vt 0.117188 0.330719
vn 0.740157 -0.669291 -0.078740
v -5.140306 2.167862 43.157230
vt 0.345032 0.665344
vn -0.984252 0.204724 -0.023622
v -6.838718 -1.171107 31.210957
vt 0.317688 0.794250
vn -0.984252 -0.173228 -0.031496
v -5.798559 -3.142325 34.690892
vt 0.295563 0.746094
vn -0.858268 -0.519685 -0.070866
v -1.246530 -4.066632 23.323102
vt 0.269531 0.867188
vn -0.307087 -0.937008 -0.173228
v -1.710273 -5.908877 29.243512
vt 0.263000 0.794250
vn -0.196850 -0.976378 -0.078740
v 2.778896 -3.526856 23.726835
vt 0.209625 0.854156
vn 0.480315 -0.866142 -0.181102
v -3.671986 10.577384 74.109074
vt 0.396851 0.284363
vn -0.314961 0.944882 -0.094488
v -6.800765 6.621414 64.705715
vt 0.373413 0.392181
vn -0.748031 0.653543 -0.125984
v -6.816183 8.142818 83.626924
vt 0.381836 0.176758
vn -0.535433 0.842520 -0.062992
v -11.973094 -2.264990 92.659693
vt 0.249115 0.085052
vn -0.881890 -0.472441 -0.062992
v -13.670320 0.000796 87.947468
vt 0.268951 0.153992
vn -0.913386 -0.409449 -0.094488
v -5.046609 5.361140 43.024661
vt 0.369781 0.666656
vn -0.708661 0.708661 -0.070866
v -4.763145 2.674201 30.810237
vt 0.353119 0.817169
vn -0.842520 0.543307 -0.078740
v -5.784327 -0.011146 20.283054
vt 0.309875 0.937500
vn -0.976378 0.110236 -0.188976
v -3.428847 0.000796 15.269536
vt 0.309875 0.984375
vn -0.984252 0.000000 -0.181102
v 0.174348 -2.991061 15.269536
vt 0.223938 0.984375
vn -0.031496 -1.000000 -0.094488
v 10.011380 0.000796 68.917793
vt 0.562500 0.359375
vn 0.984252 0.000000 -0.204724
v 3.458498 -3.238657 69.520380
vt 0.473419 0.345306
vn 0.826772 -0.559055 -0.110236
v 2.582013 -2.347788 46.420234
vt 0.129669 0.646851
vn 0.748031 -0.669291 0.039370
v 2.957989 -2.708434 56.155016
vt 0.121094 0.531250
vn 0.740157 -0.669291 -0.062992
v 1.229926 -6.232106 54.226740
vt 0.140625 0.535156
vn 0.472441 -0.874016 -0.118110
v 0.317859 3.120830 -24.992266
vt 0.047516 0.411438
vn 0.118110 0.992126 0.015748
v 4.243658 0.000796 -21.346619
vt 0.009521 0.396912
vn 0.992126 0.000000 0.125984
v 0.552696 0.000796 -46.721528
vt 0.017578 0.013672
vn -0.125984 0.000000 -0.992126
v 1.464762 -3.965524 39.589919
vt 0.195312 0.697632
vn 0.409449 -0.913386 0.023622
v 6.750951 -3.311105 29.397172
vt 0.171875 0.819336
vn 0.724409 -0.692913 -0.015748
v 5.271957 -2.951254 36.007543
vt 0.176941 0.747070
vn 0.724409 -0.661417 0.212598
v -9.347197 5.153350 69.529418
vt 0.335938 0.362488
vn -0.763780 0.614173 -0.188976
v -12.771300 9.144350 92.885663
vt 0.343750 0.117950
vn -0.472441 0.881890 0.078740
v -4.566262 8.681002 98.260732
vt 0.373871 0.058014
vn -0.244094 0.692913 0.685039
v 3.458498 3.240249 69.520380
vt 0.473419 0.345306
vn 0.803150 0.598425 -0.102362
v 5.128445 3.275279 84.416313
vt 0.511719 0.175781
vn 0.740157 0.677165 0.000000
v 4.950539 8.770169 86.820632
vt 0.471863 0.160919
vn 0.826772 0.559055 -0.055118
v 16.554774 0.000796 79.902941
vt 0.623413 0.218750
vn 0.834646 0.000000 0.559055
v 6.488836 0.000796 87.459373
vt 0.536804 0.122742
vn 0.968504 0.000000 0.251969
v 5.128445 -3.273687 84.416313
vt 0.511719 0.175781
vn 0.740157 -0.677165 0.000000
v 4.629122 9.296411 96.962159
vt 0.482422 0.057617
vn 0.732283 0.409449 0.551181
v -3.054058 11.110791 98.131176
vt 0.396179 0.058014
vn -0.149606 0.606299 0.779528
v -4.950539 10.584549 83.494355
vt 0.403107 0.174988
vn -0.362205 0.937008 -0.007874
v 2.582013 2.349380 46.420234
vt 0.479156 0.638000
vn 0.795276 0.614173 0.039370
v 6.189953 2.682162 29.394159
vt 0.478119 0.810913
vn 0.763780 0.653543 0.000000
v 1.464762 5.889770 39.589919
vt 0.440094 0.697906
vn 0.370079 0.929134 0.000000
v 5.562537 -0.011146 22.512624
vt 0.146484 0.912109
vn 0.960630 -0.157480 -0.244094
v 3.256871 -3.959951 28.074495
vt 0.213531 0.815094
vn 0.393701 -0.921260 -0.070866
v -2.340061 0.000796 -28.125715
vt 0.088379 0.400146
vn -0.992126 0.000000 -0.133858
v 0.317859 -3.118441 -24.992266
vt 0.047516 0.411438
vn 0.118110 -0.992126 0.015748
v 2.891570 0.000796 -18.794666
vt 0.010071 0.454041
vn 0.984252 0.000000 0.181102
v 6.189953 2.682162 29.394159
vt 0.478119 0.810913
vn 0.763780 0.653543 0.000000
v -1.974760 -11.130694 98.131176
vt 0.174103 0.074768
vn 0.173228 -0.779528 0.606299
v -10.153705 -7.863377 87.173145
vt 0.201996 0.206451
vn -0.708661 -0.700787 -0.094488
v -8.700804 -6.032278 75.956001
vt 0.200867 0.287933
vn -0.740157 -0.669291 -0.070866
v -10.880749 -5.151758 69.529418
vt 0.233246 0.368286
vn -0.732283 -0.677165 -0.078740
v -5.528142 8.211286 64.166400
vt 0.387482 0.403107
vn -0.456693 0.874016 -0.188976
v 0.995089 8.244723 68.860548
vt 0.445312 0.339844
vn 0.622047 0.771654 -0.149606
v 3.458498 -3.238657 69.520380
vt 0.101562 0.372375
vn 0.826772 -0.559055 -0.110236
v 5.128445 -3.273687 84.416313
vt 0.079224 0.175201
vn 0.740157 -0.677165 0.000000
v -11.426328 0.000796 70.427272
vt 0.284363 0.348419
vn -0.992126 0.000000 -0.141732
v -14.884827 4.402599 94.551814
vt 0.310547 0.062500
vn -0.960630 0.275591 0.007874
v -11.607793 6.844330 98.393301
vt 0.336700 0.041382
vn -0.464567 0.417323 0.787402
v 7.636924 0.000796 29.755711
vt 0.142578 0.835938
vn 1.000000 0.118110 0.000000
v 6.146069 0.000796 35.986453
vt 0.139038 0.756226
vn 0.984252 0.015748 0.181102
v -4.920888 -5.800604 54.226740
vt 0.207794 0.531250
vn -0.283465 -0.952756 -0.110236
v 6.155558 0.239635 98.724724
vt 0.538208 0.014648
vn 0.779528 0.000000 0.629921
v 4.789237 0.530223 92.813352
vt 0.537292 0.074768
vn 1.000000 0.000000 0.031496
v -6.800765 -5.907285 64.705715
vt 0.210297 0.406494
vn -0.448819 -0.889764 -0.086614
v 3.778730 0.000796 15.269536
vt 0.149719 0.988281
vn 0.992126 -0.070866 -0.141732
v -4.920888 6.233698 54.226740
vt 0.370605 0.520905
vn -0.669291 0.740157 -0.094488
v 1.229926 6.233698 54.226740
vt 0.439056 0.518738
vn 0.566929 0.818898 -0.086614
v 2.957989 2.710027 56.155016
vt 0.478119 0.520294
vn 0.740157 0.677165 -0.055118
v 3.778730 0.000796 15.269536
vt 0.149719 0.988281
vn 0.976378 -0.031496 -0.228346
v -3.428847 0.000796 15.269536
vt 0.140625 0.992188
vn -0.984252 0.000000 -0.181102
v 0.174348 2.992653 15.269536
vt 0.064789 0.991821
vn -0.070866 0.984252 -0.157480
v 0.368859 2.753814 0.367578
vt 0.064056 0.767181
vn 0.000000 1.000000 -0.047244
v 3.778730 0.000796 15.269536
vt 0.005157 0.991821
vn 0.992126 -0.070866 -0.141732
v 2.997128 0.000796 0.367578
vt 0.012360 0.768097
vn 1.000000 0.000000 -0.055118
v 0.174348 -2.991061 15.269536
vt 0.064789 0.991821
vn -0.031496 -1.000000 -0.094488
v 0.368859 -2.752222 0.367578
vt 0.064056 0.767181
vn 0.000000 -1.000000 -0.047244
v -2.360224 0.000796 0.367578
vt 0.123413 0.768738
vn -1.000000 0.000000 -0.047244
v -0.051000 2.544432 -18.800692
vt 0.051971 0.480255
vn -0.173228 0.984252 0.039370
v -0.051000 2.544432 -18.800692
vt 0.051971 0.480255
vn -0.173228 0.984252 0.039370
f 1/1/1 2/2/2 3/3/3
f 4/4/4 5/5/5 6/6/6
f 7/7/7 8/8/8 9/9/9
f 6/6/6 10/10/10 11/11/11
f 12/12/12 13/13/13 14/14/14
f 15/15/15 16/16/16 17/17/17
f 18/18/18 19/19/19 20/20/20
f 21/21/21 7/7/7 9/9/9
f 22/22/22 23/23/23 24/24/24
f 11/11/11 25/25/25 6/6/6
f 26/26/26 27/27/27 28/28/28
f 29/29/29 30/30/30 31/31/31
f 16/16/16 32/32/32 33/33/33
f 2/2/2 1/1/1 34/34/34
f 29/29/29 35/35/35 36/36/36
f 36/36/36 35/35/35 13/13/13
f 37/37/37 38/38/38 39/39/39
f 39/39/39 38/38/38 40/40/40
f 39/39/39 40/40/40 41/41/41
f 41/41/41 40/40/40 42/42/42
f 43/43/43 44/44/44 45/45/45
f 5/5/5 4/4/4 46/46/46
f 46/46/46 4/4/4 26/26/26
f 46/46/46 26/26/26 47/47/47
f 48/48/48 8/8/8 49/49/49
f 49/49/49 8/8/8 50/50/50
f 8/8/8 7/7/7 50/50/50
f 50/50/50 7/7/7 51/51/51
f 50/50/50 51/51/51 52/52/52
f 53/53/53 54/54/54 19/19/19
f 55/55/55 56/56/56 57/57/57
f 58/58/58 59/59/59 60/60/60
f 61/61/61 62/62/62 63/63/63
f 44/44/44 64/64/64 45/45/45
f 45/45/45 64/64/64 65/65/65
f 45/45/45 65/65/65 66/66/66
f 53/53/53 67/67/67 68/68/68
f 68/68/68 67/67/67 69/69/69
f 70/70/70 71/71/71 72/72/72
f 28/28/28 73/73/73 74/74/74
f 74/74/74 73/73/73 69/69/69
f 74/74/74 69/69/69 75/75/75
f 76/76/76 77/77/77 78/78/78
f 79/79/79 62/62/62 80/80/80
f 80/80/80 62/62/62 61/61/61
f 80/80/80 61/61/61 17/17/17
f 24/24/24 81/81/81 22/22/22
f 22/22/22 81/81/81 82/82/82
f 22/22/22 82/82/82 83/83/83
f 84/84/84 76/76/76 3/3/3
f 3/3/3 76/76/76 18/18/18
f 3/3/3 18/18/18 20/20/20
f 10/10/10 6/6/6 85/85/85
f 85/85/85 6/6/6 5/5/5
f 85/85/85 5/5/5 86/86/86
f 86/86/86 5/5/5 46/46/46
f 86/86/86 46/46/46 87/87/87
f 87/87/87 46/46/46 47/47/47
f 87/87/87 47/47/47 88/88/88
f 32/32/32 64/64/64 33/33/33
f 33/33/33 64/64/64 44/44/44
f 33/33/33 44/44/44 89/89/89
f 89/89/89 44/44/44 43/43/43
f 89/89/89 43/43/43 90/90/90
f 13/13/13 12/12/12 36/36/36
f 36/36/36 12/12/12 91/91/91
f 36/36/36 91/91/91 29/29/29
f 29/29/29 91/91/91 92/92/92
f 29/29/29 92/92/92 30/30/30
f 16/16/16 15/15/15 32/32/32
f 32/32/32 15/15/15 93/93/93
f 32/32/32 93/93/93 64/64/64
f 64/64/64 93/93/93 94/94/94
f 64/64/64 94/94/94 65/65/65
f 65/65/65 94/94/94 95/95/95
f 65/65/65 95/95/95 66/66/66
f 48/48/48 78/78/78 8/8/8
f 8/8/8 78/78/78 2/2/2
f 8/8/8 2/2/2 9/9/9
f 9/9/9 2/2/2 34/34/34
f 9/9/9 34/34/34 21/21/21
f 79/79/79 96/96/96 62/62/62
f 62/62/62 96/96/96 97/97/97
f 62/62/62 97/97/97 63/63/63
f 63/63/63 97/97/97 55/55/55
f 63/63/63 55/55/55 61/61/61
f 61/61/61 55/55/55 57/57/57
f 61/61/61 57/57/57 17/17/17
f 17/17/17 57/57/57 98/98/98
f 17/17/17 98/98/98 15/15/15
f 28/28/28 99/99/99 73/73/73
f 73/73/73 99/99/99 100/100/100
f 73/73/73 100/100/100 69/69/69
f 69/69/69 100/100/100 71/71/71
f 69/69/69 71/71/71 68/68/68
f 68/68/68 71/71/71 70/70/70
f 68/68/68 70/70/70 53/53/53
f 53/53/53 70/70/70 72/72/72
f 53/53/53 72/72/72 54/54/54
f 88/88/88 101/101/101 87/87/87
f 87/87/87 101/101/101 14/14/14
f 87/87/87 14/14/14 86/86/86
f 86/86/86 14/14/14 13/13/13
f 86/86/86 13/13/13 85/85/85
f 85/85/85 13/13/13 35/35/35
f 85/85/85 35/35/35 10/10/10
f 10/10/10 35/35/35 29/29/29
f 10/10/10 29/29/29 11/11/11
f 11/11/11 29/29/29 31/31/31
f 11/11/11 31/31/31 25/25/25
f 102/102/102 42/42/42 52/52/52
f 52/52/52 42/42/42 40/40/40
f 52/52/52 40/40/40 50/50/50
f 50/50/50 40/40/40 38/38/38
f 50/50/50 38/38/38 49/49/49
f 49/49/49 38/38/38 37/37/37
f 49/49/49 37/37/37 48/48/48
f 48/48/48 37/37/37 103/103/103
f 48/48/48 103/103/103 78/78/78
f 78/78/78 103/103/103 104/104/104
f 78/78/78 104/104/104 76/76/76
f 76/76/76 104/104/104 105/105/105
f 76/76/76 105/105/105 18/18/18
f 106/106/106 79/79/79 42/42/42
f 42/42/42 79/79/79 80/80/80
f 42/42/42 80/80/80 41/41/41
f 41/41/41 80/80/80 17/17/17
f 41/41/41 17/17/17 39/39/39
f 39/39/39 17/17/17 16/16/16
f 39/39/39 16/16/16 37/37/37
f 37/37/37 16/16/16 33/33/33
f 37/37/37 33/33/33 103/103/103
f 103/103/103 33/33/33 89/89/89
f 103/103/103 89/89/89 104/104/104
f 104/104/104 89/89/89 90/90/90
f 104/104/104 90/90/90 105/105/105
f 107/107/107 108/108/108 109/109/109
f 109/109/109 108/108/108 110/110/110
f 109/109/109 110/110/110 111/111/111
f 111/111/111 110/110/110 112/112/112
f 111/111/111 112/112/112 113/113/113
f 113/113/113 112/112/112 107/107/107
f 113/113/113 107/107/107 114/114/114
f 114/114/114 107/107/107 109/109/109
f 114/114/114 109/109/109 115/115/115
f 115/115/115 109/109/109 111/111/111
f 115/115/115 111/111/111 83/83/83
f 83/83/83 111/111/111 113/113/113
f 83/83/83 113/113/113 22/22/22
f 22/22/22 113/113/113 114/114/114
f 22/22/22 114/114/114 23/23/23
f 23/23/23 114/114/114 115/115/115
f 23/23/23 115/115/115 24/24/24
f 24/24/24 115/115/115 58/58/58
f 24/24/24 58/58/58 81/81/81
f 81/81/81 58/58/58 60/60/60
f 81/81/81 60/60/60 82/82/82
f 82/82/82 60/60/60 59/59/59
f 82/82/82 59/59/59 83/83/83
f 83/83/83 59/59/59 58/58/58
f 83/83/83 58/58/58 116/116/116
f 19/19/19 18/18/18 53/53/53
f 53/53/53 18/18/18 105/105/105
f 53/53/53 105/105/105 67/67/67
f 67/67/67 105/105/105 90/90/90
f 67/67/67 90/90/90 69/69/69
f 69/69/69 90/90/90 43/43/43
f 69/69/69 43/43/43 75/75/75
f 75/75/75 43/43/43 45/45/45
f 75/75/75 45/45/45 74/74/74
f 74/74/74 45/45/45 66/66/66
f 74/74/74 66/66/66 28/28/28
f 28/28/28 66/66/66 95/95/95
f 28/28/28 95/95/95 26/26/26
f 26/26/26 95/95/95 94/94/94
f 26/26/26 94/94/94 47/47/47
f 47/47/47 94/94/94 93/93/93
f 47/47/47 93/93/93 88/88/88
f 88/88/88 93/93/93 15/15/15
f 88/88/88 15/15/15 101/101/101
f 101/101/101 15/15/15 98/98/98
f 101/101/101 98/98/98 14/14/14
f 14/14/14 98/98/98 57/57/57
f 14/14/14 57/57/57 12/12/12
f 12/12/12 57/57/57 56/56/56
f 12/12/12 56/56/56 91/91/91
g mesh01
