mtllib 3126-0.mtl
g mesh00
usemtl texture00
v 13.414308 -8.279127 -11.997458
vt 0.566406 0.009979
vn 0.417323 0.433071 -0.803150
v 16.450104 -23.511962 -16.018906
vt 0.355469 0.009979
vn 0.527559 0.330709 -0.787402
v 0.000000 -23.143579 -19.622541
vt 0.355469 0.162415
vn 0.000000 0.307087 -0.952756
v 22.016228 -8.664600 -2.940266
vt 0.566406 0.162415
vn 0.850394 0.464567 -0.259843
v 27.413530 -24.303796 -6.576886
vt 0.355469 0.162415
vn 0.929134 0.354331 -0.125984
v 16.450104 -23.511962 -16.018906
vt 0.355469 0.009979
vn 0.527559 0.330709 -0.787402
v -13.414308 -8.279127 -11.997458
vt 0.566406 0.009979
vn -0.417323 0.433071 -0.803150
v -11.042871 -1.840017 -8.893182
vt 0.761719 0.009979
vn -0.527559 0.330709 -0.787402
v 0.000000 -2.003321 -11.851773
vt 0.761719 0.162415
vn 0.000000 0.393701 -0.921260
v 11.042871 -1.840017 -8.893182
vt 0.761719 0.009979
vn 0.527559 0.307087 -0.795276
v 1.327726 -29.273171 19.327507
vt 0.355469 0.158752
vn -0.141732 0.125984 0.984252
v 0.558102 -16.493693 17.264098
vt 0.566406 0.158752
vn -0.118110 0.165354 0.984252
v -12.642697 -12.927592 15.057753
vt 0.566406 0.009979
vn -0.354331 0.228346 0.905512
v 0.000000 -7.756935 -14.420039
vt 0.566406 0.162415
vn 0.000000 0.362205 -0.937008
v 13.414308 -8.279127 -11.997458
vt 0.566406 0.009979
vn 0.417323 0.433071 -0.803150
v 17.163124 -1.475432 -0.635882
vt 0.761719 0.162415
vn 0.842520 0.440945 -0.314961
v 0.000000 -2.715402 14.628029
vt 0.761719 0.158752
vn 0.000000 0.244094 0.976378
v -12.642697 -12.927592 15.057753
vt 0.566406 0.009979
vn -0.354331 0.228346 0.905512
v -8.349682 -2.504626 12.615931
vt 0.761719 0.009979
vn -0.314961 0.267717 0.913386
v -16.264401 -2.314738 8.260965
vt 0.761719 0.097656
vn -0.787402 0.338583 0.519685
v 13.414308 -8.279127 -11.997458
vt 0.566406 0.009979
vn 0.417323 0.433071 -0.803150
v 22.016228 -8.664600 -2.940266
vt 0.566406 0.162415
vn 0.850394 0.464567 -0.259843
v 16.264401 -1.914073 8.260965
vt 0.761719 0.097656
vn 0.787402 0.346457 0.519685
v -13.414308 -8.279127 -11.997458
vt 0.566406 0.009979
vn -0.417323 0.433071 -0.803150
v -17.163124 -1.475432 -0.635882
vt 0.761719 0.162415
vn -0.842520 0.448819 -0.307087
v -22.016228 -8.664600 -2.940266
vt 0.566406 0.162415
vn -0.850394 0.464567 -0.251969
v -20.948684 -11.051496 6.820611
vt 0.566406 0.097656
vn -0.834646 0.299213 0.456693
v -16.519619 -27.970538 16.037231
vt 0.355469 0.009979
vn -0.527559 0.181102 0.834646
v -16.450104 -23.511962 -16.018906
vt 0.355469 0.009979
vn -0.527559 0.330709 -0.787402
v -22.016228 -8.664600 -2.940266
vt 0.566406 0.162415
vn -0.850394 0.464567 -0.251969
v -27.413530 -24.303796 -6.576886
vt 0.355469 0.162415
vn -0.921260 0.370079 -0.149606
v -20.948684 -11.051496 6.820611
vt 0.566406 0.097656
vn -0.834646 0.299213 0.456693
v -26.798824 -26.244454 5.404079
vt 0.355469 0.097656
vn -0.858268 0.291339 0.425197
v -16.519619 -27.970538 16.037231
vt 0.355469 0.009979
vn -0.527559 0.181102 0.834646
f 1/1/1 2/2/2 3/3/3
f 4/4/4 5/5/5 6/6/6
f 7/7/7 8/8/8 9/9/9
f 1/1/1 9/9/9 10/10/10
f 11/11/11 12/12/12 13/13/13
f 9/9/9 14/14/14 7/7/7
f 15/15/15 10/10/10 16/16/16
f 12/12/12 17/17/17 18/18/18
f 18/18/18 17/17/17 19/19/19
f 18/18/18 19/19/19 20/20/20
f 2/2/2 21/21/21 22/22/22
f 22/22/22 21/21/21 16/16/16
f 22/22/22 16/16/16 23/23/23
f 8/8/8 24/24/24 25/25/25
f 25/25/25 24/24/24 26/26/26
f 25/25/25 26/26/26 20/20/20
f 20/20/20 26/26/26 27/27/27
f 20/20/20 27/27/27 13/13/13
f 13/13/13 27/27/27 28/28/28
f 13/13/13 28/28/28 11/11/11
f 9/9/9 1/1/1 14/14/14
f 14/14/14 1/1/1 3/3/3
f 14/14/14 3/3/3 7/7/7
f 7/7/7 3/3/3 29/29/29
f 7/7/7 29/29/29 30/30/30
f 30/30/30 29/29/29 31/31/31
f 30/30/30 31/31/31 32/32/32
f 32/32/32 31/31/31 33/33/33
f 32/32/32 33/33/33 34/34/34
usemtl texture00
v 32.539726 -47.426487 -7.405182
vt 0.121094 0.989990
vn 0.968504 -0.047244 -0.259843
v 28.193085 -47.830949 -23.299477
vt 0.121094 0.855469
vn 0.811024 0.015748 -0.590551
v 31.111700 -31.679055 -6.678591
vt 0.371094 0.989990
vn 0.960630 0.173228 -0.220472
v -0.197620 -25.910251 27.325506
vt 0.339844 0.582031
vn -0.118110 0.196850 0.976378
v 9.612859 -25.260833 28.418600
vt 0.339844 0.441406
vn 0.141732 0.299213 0.944882
v 0.620665 -13.090895 22.000226
vt 0.558594 0.582031
vn -0.141732 0.464567 0.881890
v 14.515616 -0.791834 10.948344
vt 0.097656 0.101227
vn 0.448819 0.669291 0.598425
v 16.560334 -4.244002 13.168433
vt 0.009979 0.101227
vn 0.488189 0.661417 0.574803
v 16.782781 -0.510799 8.712680
vt 0.097656 0.009979
vn 0.464567 0.661417 0.590551
v 19.086689 -3.999046 10.747684
vt 0.009979 0.009979
vn 0.488189 0.661417 0.574803
v 18.992348 0.573462 -2.304384
vt 0.179413 0.101227
vn 0.590551 0.740157 -0.322835
v 17.386564 0.729171 -4.994512
vt 0.105469 0.101227
vn 0.559055 0.779528 -0.283465
v 16.084657 2.033703 -1.530148
vt 0.179413 0.009979
vn 0.401575 0.897638 -0.181102
v 14.710256 2.157130 -4.001291
vt 0.105469 0.009979
vn 0.401575 0.897638 -0.181102
v 24.700479 -62.220680 -24.962482
vt 0.009979 0.792969
vn 0.543307 -0.196850 -0.818898
v 23.952702 -14.779002 -17.286088
vt 0.699219 0.855469
vn 0.724409 0.496063 -0.488189
v 16.454076 0.643721 -6.471517
vt 0.989990 0.855469
vn 0.551181 0.645669 -0.535433
v 20.226726 0.225967 0.393990
vt 0.989990 0.989990
vn 0.811024 0.519685 -0.267717
v 27.316210 -26.542578 12.463832
vt 0.339844 0.199219
vn 0.818898 0.181102 0.543307
v 23.957668 -11.643947 9.978945
vt 0.558594 0.199219
vn 0.771654 0.377953 0.519685
v 17.800671 -10.907181 18.567014
vt 0.558594 0.339844
vn 0.574803 0.448819 0.685039
v 14.469935 -51.765434 25.547970
vt 0.009979 0.394531
vn 0.401575 -0.330709 0.858268
v 20.278366 -39.823362 25.178718
vt 0.121094 0.339844
vn 0.692913 -0.047244 0.724409
v 10.476825 -39.572710 30.022964
vt 0.121094 0.441406
vn 0.173228 -0.015748 0.992126
v 19.662666 -25.380462 23.525792
vt 0.339844 0.339844
vn 0.606299 0.196850 0.771654
v 5.561158 -0.611440 -11.702423
vt 0.105469 0.101227
vn 0.039370 0.559055 -0.834646
v 5.032848 2.451457 -9.738886
vt 0.105469 0.009979
vn 0.125984 0.433071 -0.897638
v 8.796560 -0.176596 -10.971251
vt 0.179413 0.101227
vn 0.062992 0.527559 -0.850394
v 8.261299 2.350816 -8.975645
vt 0.179413 0.009979
vn 0.125984 0.433071 -0.897638
v 6.150045 -3.146448 -13.993064
vt 0.009979 0.009979
vn 0.000000 0.614173 -0.795276
v 5.561158 -0.611440 -11.702423
vt 0.097656 0.009979
vn 0.039370 0.559055 -0.834646
v 9.550296 -2.641345 -13.218827
vt 0.009979 0.101227
vn 0.000000 0.614173 -0.795276
v 8.796560 -0.176596 -10.971251
vt 0.097656 0.101227
vn 0.062992 0.527559 -0.850394
v 7.326826 -2.060287 14.158906
vt 0.105469 0.101227
vn 0.047244 0.551181 0.834646
v 6.533368 1.190599 12.357546
vt 0.105469 0.009979
vn 0.125984 0.417323 0.905512
v 3.808400 -2.523615 14.475931
vt 0.179413 0.101227
vn 0.023622 0.590551 0.811024
v 3.187735 1.078565 13.287546
vt 0.179413 0.009979
vn 0.125984 0.417323 0.905512
v 4.241376 -6.205548 17.791861
vt 0.009979 0.101227
vn -0.023622 0.669291 0.748031
v 7.731003 -5.717535 17.485832
vt 0.009979 0.009979
vn -0.023622 0.669291 0.748031
v 3.808400 -2.523615 14.475931
vt 0.097656 0.101227
vn 0.023622 0.590551 0.811024
v 7.326826 -2.060287 14.158906
vt 0.097656 0.009979
vn 0.047244 0.551181 0.834646
v 27.761103 -31.094200 -21.719851
vt 0.371094 0.855469
vn 0.740157 0.236220 -0.629921
v 26.965658 -15.762623 -4.620680
vt 0.699219 0.989990
vn 0.921260 0.346457 -0.188976
v 15.330921 1.511510 7.866059
vt 0.105469 0.009979
vn 0.409449 0.677165 0.614173
v 12.799601 1.327319 9.368719
vt 0.179413 0.009979
vn 0.409449 0.677165 0.614173
v 16.782781 -0.510799 8.712680
vt 0.105469 0.101227
vn 0.464567 0.661417 0.590551
v 14.515616 -0.791834 10.948344
vt 0.179413 0.101227
vn 0.448819 0.669291 0.598425
v 17.386564 0.729171 -4.994512
vt 0.097656 0.009979
vn 0.559055 0.779528 -0.283465
v 18.992348 0.573462 -2.304384
vt 0.097656 0.101227
vn 0.590551 0.740157 -0.322835
v 19.062855 -1.779253 -6.040877
vt 0.009979 0.009979
vn 0.669291 0.637795 -0.385827
v 20.834482 -1.868500 -3.298522
vt 0.009979 0.101227
vn 0.645669 0.653543 -0.393701
v -0.262169 -40.372139 28.759447
vt 0.121094 0.582031
vn -0.102362 -0.133858 0.992126
v 0.000000 -2.715402 14.628029
vt 0.761719 0.158752
vn 0.000000 0.244094 0.976378
v -0.558102 -16.493693 17.264098
vt 0.566406 0.158752
vn 0.118110 0.165354 0.984252
v 12.642697 -12.927592 15.057753
vt 0.566406 0.009979
vn 0.354331 0.228346 0.913386
v 20.257511 -48.237310 -28.425930
vt 0.121094 0.730469
vn 0.133858 -0.015748 -0.992126
v 18.040000 -31.270796 -27.676433
vt 0.371094 0.730469
vn 0.157480 0.196850 -0.968504
v 14.927737 -15.656286 -22.507832
vt 0.699219 0.730469
vn 0.149606 0.472441 -0.874016
v 10.787654 0.096843 -9.977113
vt 0.989990 0.730469
vn 0.228346 0.645669 -0.732283
v 7.721072 -48.892425 -26.747349
vt 0.121094 0.589844
vn -0.125984 -0.094488 -0.992126
v 5.645569 -32.419620 -25.178718
vt 0.371094 0.589844
vn -0.181102 0.118110 -0.976378
v 3.938492 -18.278642 -20.594689
vt 0.699219 0.589844
vn -0.228346 0.322835 -0.921260
v 2.231415 -1.120341 -11.811458
vt 0.989990 0.589844
vn -0.125984 0.543307 -0.826772
v 18.913896 -0.649418 6.814197
vt 0.777344 0.199219
vn 0.614173 0.566929 0.551181
v 13.453037 -1.012104 11.483438
vt 0.777344 0.339844
vn 0.307087 0.661417 0.692913
v 8.793581 -11.773071 22.685585
vt 0.558594 0.441406
vn 0.070866 0.574803 0.818898
v 7.571120 -2.012815 13.833635
vt 0.777344 0.441406
vn 0.062992 0.677165 0.740157
v 1.645507 -2.800852 14.175399
vt 0.777344 0.582031
vn -0.102362 0.637795 0.763780
v 28.078883 -40.922815 13.424985
vt 0.121094 0.199219
vn 0.818898 -0.133858 0.559055
v -1.327726 -29.273171 19.327507
vt 0.355469 0.158752
vn 0.141732 0.125984 0.984252
v 16.519619 -27.970538 16.037231
vt 0.355469 0.009979
vn 0.543307 0.173228 0.826772
v 20.948684 -11.051496 6.820611
vt 0.566406 0.097656
vn 0.842520 0.283465 0.464567
v 25.916983 -26.244454 5.404079
vt 0.355469 0.097656
vn 0.874016 0.244094 0.433071
v 27.413530 -24.303796 -6.576886
vt 0.355469 0.162415
vn 0.929134 0.354331 -0.125984
v 22.016228 -8.664600 -2.940266
vt 0.566406 0.162415
vn 0.850394 0.464567 -0.259843
v 16.264401 -1.914073 8.260965
vt 0.761719 0.097656
vn 0.787402 0.346457 0.519685
v 8.349682 -2.504626 12.615931
vt 0.761719 0.009979
vn 0.307087 0.267717 0.913386
f 35/35/35 36/36/36 37/37/37
f 38/38/38 39/39/39 40/40/40
f 41/41/41 42/42/42 43/43/43
f 43/43/43 42/42/42 44/44/44
f 45/45/45 46/46/46 47/47/47
f 47/47/47 46/46/46 48/48/48
f 36/36/36 35/35/35 49/49/49
f 50/50/50 51/51/51 52/52/52
f 53/53/53 54/54/54 55/55/55
f 56/56/56 57/57/57 58/58/58
f 58/58/58 57/57/57 59/59/59
f 58/58/58 59/59/59 39/39/39
f 60/60/60 61/61/61 62/62/62
f 62/62/62 61/61/61 63/63/63
f 64/64/64 65/65/65 66/66/66
f 66/66/66 65/65/65 67/67/67
f 68/68/68 69/69/69 70/70/70
f 70/70/70 69/69/69 71/71/71
f 72/72/72 73/73/73 74/74/74
f 74/74/74 73/73/73 75/75/75
f 36/36/36 76/76/76 37/37/37
f 37/37/37 76/76/76 50/50/50
f 37/37/37 50/50/50 77/77/77
f 77/77/77 50/50/50 52/52/52
f 78/78/78 79/79/79 80/80/80
f 80/80/80 79/79/79 81/81/81
f 82/82/82 83/83/83 84/84/84
f 84/84/84 83/83/83 85/85/85
f 39/39/39 38/38/38 58/58/58
f 58/58/58 38/38/38 86/86/86
f 58/58/58 86/86/86 56/56/56
f 87/87/87 88/88/88 89/89/89
f 49/49/49 90/90/90 36/36/36
f 36/36/36 90/90/90 91/91/91
f 36/36/36 91/91/91 76/76/76
f 76/76/76 91/91/91 92/92/92
f 76/76/76 92/92/92 50/50/50
f 50/50/50 92/92/92 93/93/93
f 50/50/50 93/93/93 51/51/51
f 49/49/49 94/94/94 90/90/90
f 90/90/90 94/94/94 95/95/95
f 90/90/90 95/95/95 91/91/91
f 91/91/91 95/95/95 96/96/96
f 91/91/91 96/96/96 92/92/92
f 92/92/92 96/96/96 97/97/97
f 92/92/92 97/97/97 93/93/93
f 54/54/54 98/98/98 55/55/55
f 55/55/55 98/98/98 99/99/99
f 55/55/55 99/99/99 100/100/100
f 100/100/100 99/99/99 101/101/101
f 100/100/100 101/101/101 102/102/102
f 102/102/102 40/40/40 100/100/100
f 100/100/100 40/40/40 39/39/39
f 100/100/100 39/39/39 55/55/55
f 55/55/55 39/39/39 59/59/59
f 55/55/55 59/59/59 53/53/53
f 53/53/53 59/59/59 57/57/57
f 53/53/53 57/57/57 103/103/103
f 103/103/103 57/57/57 56/56/56
f 88/88/88 104/104/104 89/89/89
f 89/89/89 104/104/104 105/105/105
f 89/89/89 105/105/105 106/106/106
f 106/106/106 105/105/105 107/107/107
f 106/106/106 107/107/107 108/108/108
f 108/108/108 109/109/109 106/106/106
f 106/106/106 109/109/109 110/110/110
f 106/106/106 110/110/110 89/89/89
f 89/89/89 110/110/110 111/111/111
f 89/89/89 111/111/111 87/87/87
usemtl texture00
v -8.793581 -11.773071 22.685585
vt 0.558594 0.441406
vn -0.070866 0.574803 0.818898
v -1.645507 -2.800852 14.175399
vt 0.777344 0.582031
vn 0.102362 0.637795 0.763780
v -7.571120 -2.012815 13.833635
vt 0.777344 0.441406
vn -0.062992 0.677165 0.740157
v -16.782781 -0.510799 8.712680
vt 0.105469 0.101227
vn -0.464567 0.661417 0.590551
v -14.515616 -0.791834 10.948344
vt 0.179413 0.101227
vn -0.448819 0.669291 0.598425
v -15.330921 1.511510 7.866059
vt 0.105469 0.009979
vn -0.409449 0.677165 0.614173
v -12.799601 1.327319 9.368719
vt 0.179413 0.009979
vn -0.409449 0.677165 0.614173
v -17.386564 0.729171 -4.994512
vt 0.097656 0.009979
vn -0.551181 0.787402 -0.291339
v -19.062855 -1.779253 -6.040877
vt 0.009979 0.009979
vn -0.669291 0.637795 -0.385827
v -18.992348 0.573462 -2.304384
vt 0.097656 0.101227
vn -0.582677 0.740157 -0.330709
v -20.834482 -1.868500 -3.298522
vt 0.009979 0.101227
vn -0.645669 0.653543 -0.393701
v -31.111700 -31.679055 -6.678591
vt 0.371094 0.989990
vn -0.960630 0.173228 -0.220472
v -26.965658 -15.762623 -4.620680
vt 0.699219 0.989990
vn -0.921260 0.346457 -0.188976
v -23.952702 -14.779002 -17.286088
vt 0.699219 0.855469
vn -0.724409 0.496063 -0.488189
v -17.800671 -10.907181 18.567014
vt 0.558594 0.339844
vn -0.574803 0.448819 0.685039
v -13.453037 -1.012104 11.483438
vt 0.777344 0.339844
vn -0.307087 0.661417 0.692913
v -18.913896 -0.649418 6.814197
vt 0.777344 0.199219
vn -0.614173 0.566929 0.551181
v -27.316210 -26.542578 12.463832
vt 0.339844 0.199219
vn -0.818898 0.181102 0.543307
v -28.078883 -40.922815 13.424985
vt 0.121094 0.199219
vn -0.818898 -0.133858 0.559055
v -20.278366 -39.823362 25.178718
vt 0.121094 0.339844
vn -0.692913 -0.047244 0.724409
v -14.469935 -51.765434 25.547970
vt 0.009979 0.394531
vn -0.401575 -0.330709 0.858268
v -20.226726 0.225967 0.393990
vt 0.989990 0.989990
vn -0.811024 0.519685 -0.267717
v -16.454076 0.643721 -6.471517
vt 0.989990 0.855469
vn -0.551181 0.645669 -0.535433
v -10.787654 0.096843 -9.977113
vt 0.989990 0.730469
vn -0.259843 0.645669 -0.724409
v -24.700479 -62.220680 -24.962482
vt 0.009979 0.792969
vn -0.543307 -0.196850 -0.818898
v -32.540719 -47.426487 -7.405182
vt 0.121094 0.989990
vn -0.968504 -0.047244 -0.259843
v -28.193085 -47.830949 -23.299477
vt 0.121094 0.855469
vn -0.811024 0.015748 -0.590551
v -27.761103 -31.094200 -21.719851
vt 0.371094 0.855469
vn -0.740157 0.236220 -0.629921
v -8.796560 -0.176596 -10.971251
vt 0.179413 0.101227
vn -0.062992 0.527559 -0.850394
v -8.261299 2.350816 -8.975645
vt 0.179413 0.009979
vn -0.125984 0.433071 -0.897638
v -5.561158 -0.611440 -11.702423
vt 0.105469 0.101227
vn -0.039370 0.559055 -0.834646
v -5.032848 2.451457 -9.738886
vt 0.105469 0.009979
vn -0.125984 0.433071 -0.897638
v -6.150045 -3.146448 -13.993064
vt 0.009979 0.009979
vn 0.000000 0.614173 -0.795276
v -9.550296 -2.641345 -13.218827
vt 0.009979 0.101227
vn 0.000000 0.614173 -0.795276
v -5.561158 -0.611440 -11.702423
vt 0.097656 0.009979
vn -0.039370 0.559055 -0.834646
v -8.796560 -0.176596 -10.971251
vt 0.097656 0.101227
vn -0.062992 0.527559 -0.850394
v -3.808400 -2.523615 14.475931
vt 0.179413 0.101227
vn -0.023622 0.590551 0.811024
v -3.187735 1.078565 13.287546
vt 0.179413 0.009979
vn -0.125984 0.417323 0.905512
v -7.326826 -2.060287 14.158906
vt 0.105469 0.101227
vn -0.047244 0.551181 0.834646
v -6.533368 1.190599 12.357546
vt 0.105469 0.009979
vn -0.125984 0.417323 0.905512
v -7.326826 -2.060287 14.158906
vt 0.097656 0.009979
vn -0.047244 0.551181 0.834646
v -7.731003 -5.717535 17.485832
vt 0.009979 0.009979
vn 0.023622 0.669291 0.748031
v -3.808400 -2.523615 14.475931
vt 0.097656 0.101227
vn -0.023622 0.590551 0.811024
v -4.241376 -6.205548 17.791861
vt 0.009979 0.101227
vn 0.023622 0.669291 0.748031
v -16.084657 2.033703 -1.530148
vt 0.179413 0.009979
vn -0.377953 0.905512 -0.196850
v -14.298135 2.157130 -4.001291
vt 0.105469 0.009979
vn -0.377953 0.905512 -0.196850
v -18.992348 0.573462 -2.304384
vt 0.179413 0.101227
vn -0.582677 0.740157 -0.330709
v -17.386564 0.729171 -4.994512
vt 0.105469 0.101227
vn -0.551181 0.787402 -0.291339
v -14.515616 -0.791834 10.948344
vt 0.097656 0.101227
vn -0.448819 0.669291 0.598425
v -16.782781 -0.510799 8.712680
vt 0.097656 0.009979
vn -0.464567 0.661417 0.590551
v -16.560334 -4.244002 13.168433
vt 0.009979 0.101227
vn -0.488189 0.661417 0.574803
v -19.086689 -3.999046 10.747684
vt 0.009979 0.009979
vn -0.488189 0.661417 0.574803
v -10.787654 0.096843 -9.977113
vt 0.989990 0.730469
vn -0.228346 0.645669 -0.732283
v -2.231415 -1.120341 -11.811458
vt 0.989990 0.589844
vn 0.125984 0.543307 -0.826772
v -14.927737 -15.656286 -22.507832
vt 0.699219 0.730469
vn -0.149606 0.472441 -0.874016
v -3.938492 -18.278642 -20.594689
vt 0.699219 0.589844
vn 0.228346 0.322835 -0.921260
v -18.040000 -31.270796 -27.676433
vt 0.371094 0.730469
vn -0.157480 0.204724 -0.968504
v -5.645569 -32.180360 -25.178718
vt 0.371094 0.589844
vn 0.181102 0.125984 -0.976378
v -20.257511 -48.237310 -28.425930
vt 0.121094 0.730469
vn -0.133858 -0.015748 -0.992126
v -7.721072 -48.892425 -26.747349
vt 0.121094 0.589844
vn 0.125984 -0.094488 -0.992126
v -9.612859 -25.260833 28.418600
vt 0.339844 0.441406
vn -0.141732 0.299213 0.944882
v -19.662666 -25.380462 23.525792
vt 0.339844 0.339844
vn -0.606299 0.196850 0.771654
v -10.476825 -39.572710 30.022964
vt 0.121094 0.441406
vn -0.173228 -0.015748 0.992126
v -0.620665 -13.090895 22.000226
vt 0.558594 0.582031
vn 0.141732 0.464567 0.881890
v 0.197620 -25.910251 27.325506
vt 0.339844 0.582031
vn 0.118110 0.196850 0.976378
v 0.262169 -40.372139 28.759447
vt 0.121094 0.582031
vn 0.102362 -0.133858 0.992126
v -23.957668 -11.643947 9.978945
vt 0.558594 0.199219
vn -0.771654 0.377953 0.519685
f 112/112/112 113/113/113 114/114/114
f 115/115/115 116/116/116 117/117/117
f 117/117/117 116/116/116 118/118/118
f 119/119/119 120/120/120 121/121/121
f 121/121/121 120/120/120 122/122/122
f 123/123/123 124/124/124 125/125/125
f 126/126/126 127/127/127 128/128/128
f 129/129/129 130/130/130 131/131/131
f 131/131/131 130/130/130 132/132/132
f 124/124/124 133/133/133 125/125/125
f 125/125/125 133/133/133 134/134/134
f 125/125/125 134/134/134 135/135/135
f 136/136/136 137/137/137 138/138/138
f 138/138/138 137/137/137 123/123/123
f 138/138/138 123/123/123 139/139/139
f 139/139/139 123/123/123 125/125/125
f 140/140/140 141/141/141 142/142/142
f 142/142/142 141/141/141 143/143/143
f 144/144/144 145/145/145 146/146/146
f 146/146/146 145/145/145 147/147/147
f 148/148/148 149/149/149 150/150/150
f 150/150/150 149/149/149 151/151/151
f 152/152/152 153/153/153 154/154/154
f 154/154/154 153/153/153 155/155/155
f 156/156/156 157/157/157 158/158/158
f 158/158/158 157/157/157 159/159/159
f 160/160/160 161/161/161 162/162/162
f 162/162/162 161/161/161 163/163/163
f 164/164/164 165/165/165 166/166/166
f 166/166/166 165/165/165 167/167/167
f 166/166/166 167/167/167 168/168/168
f 168/168/168 167/167/167 169/169/169
f 168/168/168 169/169/169 170/170/170
f 170/170/170 169/169/169 171/171/171
f 171/171/171 136/136/136 170/170/170
f 170/170/170 136/136/136 138/138/138
f 170/170/170 138/138/138 168/168/168
f 168/168/168 138/138/138 139/139/139
f 168/168/168 139/139/139 166/166/166
f 166/166/166 139/139/139 125/125/125
f 166/166/166 125/125/125 164/164/164
f 114/114/114 127/127/127 112/112/112
f 112/112/112 127/127/127 126/126/126
f 112/112/112 126/126/126 172/172/172
f 172/172/172 126/126/126 173/173/173
f 172/172/172 173/173/173 174/174/174
f 113/113/113 112/112/112 175/175/175
f 175/175/175 112/112/112 172/172/172
f 175/175/175 172/172/172 176/176/176
f 176/176/176 172/172/172 174/174/174
f 176/176/176 174/174/174 177/177/177
f 128/128/128 178/178/178 126/126/126
f 126/126/126 178/178/178 129/129/129
f 126/126/126 129/129/129 173/173/173
f 173/173/173 129/129/129 131/131/131
f 173/173/173 131/131/131 174/174/174
f 174/174/174 131/131/131 132/132/132
f 174/174/174 132/132/132 177/177/177
usemtl texture00
v -8.349682 -2.504626 12.615931
vt 0.989990 0.305267
vn -0.314961 0.267717 0.913386
v -8.237465 1.253262 11.781221
vt 0.989990 0.214844
vn -0.393701 0.228346 0.889764
v -16.264401 -2.314738 8.260965
vt 0.781708 0.305267
vn -0.787402 0.338583 0.519685
v -15.573229 1.562780 7.385024
vt 0.781708 0.214844
vn -0.818898 0.259843 0.519685
v 0.000000 0.991217 13.753004
vt 0.886719 0.009979
vn 0.000000 0.220472 0.976378
v -8.237465 1.253262 11.781221
vt 0.785156 0.009979
vn -0.393701 0.228346 0.889764
v -8.349682 -2.504626 12.615931
vt 0.785156 0.105469
vn -0.314961 0.267717 0.913386
v 11.042871 -1.840017 -8.893182
vt 0.781708 0.305267
vn 0.527559 0.307087 -0.795276
v 0.000000 2.428671 -10.580009
vt 0.941406 0.214844
vn 0.000000 0.244094 -0.976378
v 10.885967 2.343221 -8.189497
vt 0.781708 0.214844
vn 0.543307 0.157480 -0.826772
v 10.885967 2.343221 -8.189497
vt 0.989990 0.214844
vn 0.543307 0.157480 -0.826772
v 16.309089 2.117254 -0.687192
vt 0.785156 0.214844
vn 0.944882 0.196850 -0.251969
v 11.042871 -1.840017 -8.893182
vt 0.989990 0.305267
vn 0.527559 0.307087 -0.795276
v 15.573229 1.562780 7.385024
vt 0.989990 0.214844
vn 0.811024 0.291339 0.511811
v 16.264401 -1.914073 8.260965
vt 0.989990 0.305267
vn 0.787402 0.346457 0.519685
v 17.163124 -1.475432 -0.635882
vt 0.785156 0.305267
vn 0.842520 0.440945 -0.314961
v 15.573229 1.562780 7.385024
vt 0.781708 0.113281
vn 0.811024 0.291339 0.511811
v 8.237465 1.253262 11.781221
vt 0.989990 0.113281
vn 0.393701 0.244094 0.889764
v 16.264401 -1.914073 8.260965
vt 0.781708 0.214844
vn 0.787402 0.346457 0.519685
v 8.349682 -2.504626 12.615931
vt 0.989990 0.214844
vn 0.307087 0.267717 0.913386
v 0.000000 -2.003321 -11.851773
vt 0.941406 0.305267
vn 0.000000 0.393701 -0.921260
v -11.042871 -1.840017 -8.893182
vt 0.781708 0.305267
vn -0.527559 0.330709 -0.787402
v -10.885967 2.343221 -7.853231
vt 0.781708 0.214844
vn -0.543307 0.220472 -0.811024
v -11.042871 -1.840017 -8.893182
vt 0.989990 0.305267
vn -0.527559 0.330709 -0.787402
v -16.244540 2.117254 -0.687192
vt 0.785156 0.214844
vn -0.944882 0.212598 -0.251969
v -10.885967 2.343221 -7.853231
vt 0.989990 0.214844
vn -0.543307 0.220472 -0.811024
v 0.000000 -2.715402 14.628029
vt 0.886719 0.105469
vn 0.000000 0.244094 0.976378
v 8.349682 -2.504626 12.615931
vt 0.989990 0.105469
vn 0.307087 0.267717 0.913386
v 8.237465 1.253262 11.781221
vt 0.989990 0.009979
vn 0.393701 0.244094 0.889764
v -17.163124 -1.475432 -0.635882
vt 0.785156 0.305267
vn -0.842520 0.448819 -0.307087
v -16.264401 -2.314738 8.260965
vt 0.989990 0.305267
vn -0.787402 0.338583 0.519685
v -15.573229 1.562780 7.385024
vt 0.989990 0.214844
vn -0.818898 0.259843 0.519685
f 179/179/179 180/180/180 181/181/181
f 181/181/181 180/180/180 182/182/182
f 183/183/183 184/184/184 185/185/185
f 186/186/186 187/187/187 188/188/188
f 189/189/189 190/190/190 191/191/191
f 192/192/192 193/193/193 190/190/190
f 190/190/190 193/193/193 194/194/194
f 190/190/190 194/194/194 191/191/191
f 195/195/195 196/196/196 197/197/197
f 197/197/197 196/196/196 198/198/198
f 186/186/186 199/199/199 187/187/187
f 187/187/187 199/199/199 200/200/200
f 187/187/187 200/200/200 201/201/201
f 202/202/202 203/203/203 204/204/204
f 185/185/185 205/205/205 183/183/183
f 183/183/183 205/205/205 206/206/206
f 183/183/183 206/206/206 207/207/207
f 202/202/202 208/208/208 203/203/203
f 203/203/203 208/208/208 209/209/209
f 203/203/203 209/209/209 210/210/210
