mtllib 2396-0.mtl
g mesh00
usemtl texture00
v -5.556440 34.163097 -2.610077
vt 0.399200 0.966400
vn -0.968504 -0.212598 -0.157480
v -5.704389 36.121051 -4.339578
vt 0.337494 0.865601
vn -0.937008 -0.125984 -0.322835
v -5.209093 32.014161 -7.182659
vt 0.215607 0.987976
vn -0.897638 0.023622 -0.448819
v -7.654705 44.846788 -5.791233
vt 0.390625 0.265625
vn -0.897638 0.181102 -0.417323
v -8.525715 44.540256 -0.632187
vt 0.625000 0.281250
vn -0.976378 0.220472 0.023622
v -6.857670 47.737178 -4.852185
vt 0.390625 0.117188
vn -0.818898 0.527559 -0.244094
v 4.264109 45.491950 10.301827
vt 0.851562 0.398438
vn 0.677165 0.346457 0.645669
v 5.241631 46.663513 8.200840
vt 0.773438 0.398438
vn 0.787402 0.346457 0.511811
v 3.062994 48.347033 8.909522
vt 0.792389 0.284576
vn 0.472441 0.669291 0.574803
v 8.043211 46.332907 2.408727
vt 0.603119 0.398438
vn 0.944882 0.314961 0.118110
v 8.132481 43.654361 3.523627
vt 0.679688 0.476562
vn 0.968504 0.015748 0.267717
v 8.525993 43.948055 1.555847
vt 0.601562 0.476562
vn 1.000000 0.094488 0.070866
v 4.488257 51.027184 -3.669144
vt 0.289062 0.062500
vn 0.480315 0.858268 -0.181102
v -0.339838 51.378652 -6.421221
vt 0.098633 0.011047
vn -0.031496 0.889764 -0.464567
v 0.000000 52.587128 -2.966177
vt 0.289062 0.010834
vn 0.031496 1.000000 -0.070866
v 5.644598 45.273686 6.517940
vt 0.265625 0.708008
vn 0.881890 0.236220 0.409449
v 6.604599 46.475742 2.205179
vt 0.289062 0.570312
vn 0.889764 0.346457 0.291339
v 5.396811 47.396943 6.624330
vt 0.343750 0.570312
vn 0.826772 0.078740 0.559055
v 6.467774 37.074350 -9.775591
vt 0.236969 0.525513
vn 0.834646 0.125984 -0.543307
v 5.620125 41.044825 -10.148396
vt 0.213531 0.453644
vn 0.811024 0.125984 -0.582677
v 7.213082 42.566252 -7.359829
vt 0.271484 0.449219
vn 0.874016 0.102362 -0.472441
v -0.339838 51.378652 -6.421221
vt 0.570312 0.718750
vn -0.031496 0.889764 -0.464567
v -0.299792 49.070834 -9.622600
vt 0.437500 0.835938
vn -0.031496 0.685039 -0.732283
v -3.984896 48.432091 -8.215787
vt 0.534576 0.988831
vn -0.574803 0.598425 -0.559055
v -7.551808 41.629002 -6.781278
vt 0.386719 0.398438
vn -0.889764 0.039370 -0.456693
v -5.430461 40.484722 -8.808407
vt 0.320312 0.445831
vn -0.748031 0.118110 -0.653543
v -5.741655 38.220235 -9.007999
vt 0.361450 0.522888
vn -0.637795 0.149606 -0.755906
v 4.161768 37.889630 -12.441062
vt 0.178711 0.551758
vn 0.779528 0.086614 -0.622047
v 4.430413 41.362592 -11.603129
vt 0.173950 0.432281
vn 0.559055 0.157480 -0.818898
v 5.178502 45.522443 -9.659968
vt 0.177734 0.289062
vn 0.661417 0.330709 -0.677165
v -7.319595 44.737656 0.233883
vt 0.414062 0.781250
vn -0.992126 0.000000 0.165354
v -7.296790 46.660303 0.541623
vt 0.367188 0.765625
vn -0.992126 -0.007874 0.165354
v -7.812110 44.877281 -2.599526
vt 0.429688 0.718750
vn -1.000000 -0.055118 0.015748
v 6.927473 44.277055 -6.301642
vt 0.296875 0.718750
vn 0.905512 -0.204724 -0.377953
v 7.928912 44.923822 -4.003701
vt 0.429688 0.718750
vn 0.968504 -0.228346 -0.125984
v 6.845990 38.538002 -3.147744
vt 0.414062 0.796875
vn 0.937008 -0.220472 -0.267717
v 8.028472 41.450860 2.848796
vt 0.679688 0.585938
vn 0.960630 -0.149606 0.228346
v 7.911392 39.351676 0.910032
vt 0.601562 0.718750
vn 0.944882 -0.228346 -0.251969
v 8.593293 41.786280 1.262615
vt 0.601562 0.585938
vn 0.984252 -0.133858 -0.125984
v 7.168864 41.593695 -0.147276
vt 0.520813 0.587219
vn 0.905512 -0.251969 -0.362205
v 8.386943 44.387792 0.131009
vt 0.515625 0.476562
vn 0.968504 0.070866 -0.236220
v 2.704802 40.327444 -12.353575
vt 0.145294 0.485138
vn 0.440945 0.078740 -0.897638
v 0.199954 38.051723 -14.405764
vt 0.040039 0.534180
vn -0.078740 0.173228 -0.984252
v 2.791847 42.071949 -12.250702
vt 0.116394 0.421082
vn 0.417323 0.236220 -0.881890
v 0.000000 42.569462 -13.074567
vt 0.027344 0.424805
vn -0.181102 0.283465 -0.944882
v 0.000000 45.585033 -11.785575
vt 0.031250 0.350586
vn 0.031496 0.480315 -0.881890
v 4.276901 35.130840 -7.931787
vt 0.180450 0.882812
vn 0.740157 -0.110236 -0.661417
v 0.000000 34.586785 -10.650013
vt 0.011414 0.882812
vn 0.000000 -0.094488 -1.000000
v 0.000000 37.316687 -11.263295
vt 0.011414 0.820312
vn -0.007874 -0.212598 -0.976378
v 6.381007 43.018829 7.053848
vt 0.781250 0.476562
vn 0.842520 0.007874 0.543307
v 7.465319 43.259561 5.383257
vt 0.718750 0.476562
vn 0.897638 0.031496 0.440945
v 7.133824 39.598828 5.482613
vt 0.765625 0.585938
vn 0.905512 -0.078740 0.425197
v 7.653315 40.337073 4.368594
vt 0.717773 0.586914
vn 0.960630 -0.078740 0.283465
v 7.334056 34.333214 3.233032
vt 0.717773 0.711914
vn 0.960630 -0.102362 0.267717
v -4.313611 43.651152 -9.387838
vt 0.171875 0.718750
vn -0.653543 -0.133858 -0.748031
v -4.204039 35.130840 -7.931787
vt 0.180450 0.882812
vn -0.732283 -0.055118 -0.685039
v -7.127706 45.076286 -5.501518
vt 0.296875 0.718750
vn -0.905512 -0.149606 -0.409449
v 0.000000 52.587128 -2.966177
vt 0.703125 0.726562
vn 0.031496 1.000000 -0.070866
v -4.341421 51.344950 -3.117849
vt 0.703125 0.796875
vn -0.519685 0.818898 -0.244094
v -5.431295 49.820313 -3.549125
vt 0.703125 0.882812
vn -0.850394 0.464567 -0.244094
v -6.012802 48.632702 -4.154055
vt 0.703125 0.988678
vn -0.732283 0.661417 -0.181102
v -6.988377 38.578124 -3.127960
vt 0.257812 0.742188
vn -0.944882 -0.188976 -0.267717
v -7.486177 41.693197 -0.287078
vt 0.109375 0.742188
vn -1.000000 -0.047244 0.062992
v -7.812110 44.877281 -2.599526
vt 0.281250 0.859375
vn -1.000000 -0.055118 0.015748
v -7.319595 44.737656 0.233883
vt 0.148438 0.859375
vn -0.992126 0.000000 0.165354
v -6.988377 38.578124 -3.127960
vt 0.414062 0.796875
vn -0.944882 -0.188976 -0.267717
v -4.415117 45.222330 -9.959795
vt 0.203125 0.296875
vn -0.590551 0.267717 -0.763780
v -3.984896 48.432091 -8.215787
vt 0.179688 0.164062
vn -0.574803 0.598425 -0.559055
v -6.857670 47.737178 -4.852185
vt 0.390625 0.140625
vn -0.818898 0.527559 -0.244094
v -6.012802 48.632702 -4.154055
vt 0.398438 0.031250
vn -0.732283 0.661417 -0.181102
v -6.553151 46.432410 5.290056
vt 0.828125 0.070312
vn -0.897638 0.251969 0.362205
v -5.579522 48.321355 5.599555
vt 0.828125 0.026886
vn -0.960630 0.086614 0.259843
v -7.136883 47.112879 3.410202
vt 0.718750 0.078125
vn -0.889764 0.385827 0.251969
v -6.289234 48.858990 1.236676
vt 0.617188 0.026886
vn -0.913386 0.409449 0.039370
v -7.611878 47.462743 0.364892
vt 0.617188 0.078125
vn -0.842520 0.535433 0.023622
v -2.687837 50.028948 8.336245
vt 0.828125 0.109375
vn -0.173228 0.850394 0.496063
v -5.935212 49.926235 5.793431
vt 0.757812 0.039062
vn -0.834646 0.456693 0.314961
v -5.115095 49.066019 8.424611
vt 0.898438 0.039062
vn -0.708661 0.322835 0.629921
v -8.747082 39.988814 0.250589
vt 0.670563 0.680969
vn -0.976378 0.086614 0.204724
v -7.678066 45.037769 3.114332
vt 0.734375 0.281250
vn -0.952756 0.173228 0.275591
v -8.776839 40.736688 -2.594690
vt 0.578125 0.500000
vn -0.952756 0.055118 -0.314961
v -7.484508 40.239175 -5.695394
vt 0.430969 0.494781
vn -0.976378 -0.039370 -0.228346
v -8.267082 38.228260 -4.288581
vt 0.506500 0.542969
vn -0.921260 0.078740 -0.393701
v -7.296790 46.660303 0.541623
vt 0.367188 0.765625
vn 0.968504 -0.251969 -0.007874
v -7.807938 44.817900 -1.315810
vt 0.352417 0.718750
vn 0.968504 -0.251969 -0.007874
v -7.812110 44.877281 -2.599526
vt 0.429688 0.718750
vn 0.968504 -0.251969 -0.007874
v 6.845990 38.538002 -3.147744
vt 0.257812 0.742188
vn 0.937008 -0.220472 -0.267717
v 7.928912 44.923822 -4.003701
vt 0.281250 0.859375
vn 0.968504 -0.228346 -0.125984
v 7.168864 41.593695 -0.147276
vt 0.109375 0.742188
vn 0.905512 -0.251969 -0.362205
v 8.154729 44.724817 -1.020819
vt 0.148438 0.859375
vn 1.000000 0.086614 -0.062992
v 8.386943 44.387792 0.131009
vt 0.101562 0.851562
vn 0.968504 0.070866 -0.236220
v 6.521447 48.937629 0.636143
vt 0.109375 0.937500
vn 0.826772 0.566929 0.000000
v 6.610439 42.543784 7.687793
vt 0.781250 0.460938
vn 0.889764 0.181102 0.425197
v 5.920751 41.829612 9.630074
vt 0.851562 0.460938
vn 0.913386 0.165354 0.385827
v 7.017300 33.922365 7.193210
vt 0.828125 0.570312
vn 0.944882 0.023622 0.338583
v 0.000000 52.587128 -2.966177
vt 0.304688 0.195312
vn 0.031496 1.000000 -0.070866
v -4.341421 51.344950 -3.117849
vt 0.304688 0.109375
vn -0.519685 0.818898 -0.244094
v -4.271618 51.587287 1.901835
vt 0.539062 0.101562
vn -0.299213 0.952756 0.110236
v -3.015717 46.003907 8.742463
vt 0.363037 0.714142
vn -0.677165 -0.385827 0.629921
v -4.575025 48.045315 7.744944
vt 0.359375 0.617188
vn -0.818898 -0.188976 0.535433
v -4.610900 45.856258 7.467538
vt 0.298431 0.704681
vn -0.771654 0.039370 0.637795
v -5.479406 48.460979 5.599555
vt 0.343750 0.570312
vn -0.881890 0.110236 0.456693
v -5.521677 44.872466 6.877996
vt 0.265625 0.708008
vn -0.897638 0.181102 0.401575
v -1.639122 45.522443 9.424767
vt 0.484375 0.710938
vn -0.259843 -0.346457 0.905512
v -3.306888 47.774090 10.141362
vt 0.453125 0.609375
vn -0.480315 -0.480315 0.740157
v -3.015717 46.003907 8.742463
vt 0.369019 0.712769
vn -0.677165 -0.385827 0.629921
v -4.575025 48.045315 7.744944
vt 0.335938 0.609375
vn -0.818898 -0.188976 0.535433
v -3.306888 47.774090 10.141362
vt 0.490875 0.600250
vn -0.480315 -0.480315 0.740157
v -0.348181 48.298886 10.147957
vt 0.367188 0.578125
vn 0.102362 -0.102362 0.992126
v 0.194114 44.742471 9.863517
vt 0.398438 0.710938
vn 0.007874 -0.078740 1.000000
v 2.893353 38.266777 -12.728579
vt 0.156769 0.548950
vn 0.291339 0.196850 -0.937008
v 4.140354 49.271444 -7.455668
vt 0.164062 0.132812
vn 0.417323 0.685039 -0.598425
v -0.299792 49.070834 -9.622600
vt 0.045990 0.132812
vn -0.031496 0.685039 -0.732283
v 5.617066 36.121051 -4.339578
vt 0.337494 0.865601
vn 0.944882 -0.141732 -0.307087
v 5.213543 42.606374 -8.907763
vt 0.171875 0.718750
vn 0.645669 -0.149606 -0.748031
v 0.000000 40.438180 -12.045835
vt 0.011414 0.765625
vn -0.023622 -0.165354 -0.992126
v 0.199954 38.051723 -14.405764
vt 0.048828 0.525391
vn -0.078740 0.173228 -0.984252
v -2.923666 42.171452 -11.210540
vt 0.171875 0.445312
vn -0.409449 0.204724 -0.889764
v 0.000000 42.569462 -13.074567
vt 0.046875 0.421875
vn -0.181102 0.283465 -0.944882
v 0.000000 45.585033 -11.785575
vt 0.035217 0.351562
vn 0.031496 0.480315 -0.881890
v -0.299792 49.070834 -9.622600
vt 0.018951 0.181915
vn -0.031496 0.685039 -0.732283
v -0.339838 30.410885 -10.755084
vt 0.018738 0.987640
vn 0.000000 -0.007874 -1.000000
v 7.414705 45.986253 4.465312
vt 0.679688 0.398438
vn 0.881890 0.291339 0.370079
v 6.553151 48.603814 3.279632
vt 0.609375 0.335938
vn 0.755906 0.614173 0.236220
v 6.064807 47.969886 5.303245
vt 0.687500 0.328125
vn 0.708661 0.582677 0.393701
v 3.993796 50.337085 4.213404
vt 0.617188 0.265625
vn 0.425197 0.858268 0.291339
v 3.767978 49.614889 6.375940
vt 0.710938 0.273438
vn 0.480315 0.779528 0.409449
v 6.768956 49.109351 -4.292098
vt 0.296875 0.140625
vn 0.811024 0.543307 -0.228346
v 8.086317 45.126037 -5.151133
vt 0.320312 0.281250
vn 0.944882 0.173228 -0.275591
v 8.084648 42.083183 -5.267195
vt 0.341797 0.440430
vn 0.960630 0.055118 -0.291339
v 7.529004 37.411375 -7.610858
vt 0.296875 0.566406
vn 0.929134 0.070866 -0.370079
v -2.444778 40.608298 -11.793488
vt 0.164062 0.507812
vn -0.401575 0.204724 -0.897638
v -3.845290 37.786917 -12.608560
vt 0.242188 0.539062
vn -0.417323 0.275591 -0.866142
v -6.928864 38.411216 -7.191012
vt 0.382812 0.531250
vn -0.976378 -0.165354 -0.149606
v -7.863280 42.447491 4.143943
vt 0.763000 0.565094
vn -0.921260 0.196850 0.346457
v -3.671199 51.035208 5.475140
vt 0.703125 0.101562
vn -0.157480 0.944882 0.291339
v -6.350416 50.101167 1.666194
vt 0.578125 0.039062
vn -0.937008 0.362205 -0.007874
v -5.431295 49.820313 -3.549125
vt 0.304688 0.039062
vn -0.850394 0.464567 -0.244094
v 0.044496 50.449427 7.278498
vt 0.750000 0.195312
vn 0.165354 0.897638 0.417323
v -0.568159 48.279628 10.567802
vt 0.898438 0.179688
vn 0.039370 0.685039 0.732283
v 2.045148 46.053658 11.618955
vt 0.906250 0.273438
vn 0.464567 0.496063 0.732283
v 3.146703 44.180762 11.423320
vt 0.914062 0.398438
vn 0.535433 0.133858 0.834646
v 5.264157 42.657730 10.237641
vt 0.851562 0.468750
vn 0.527559 0.031496 0.850394
v 4.318338 41.332099 10.726948
vt 0.911133 0.462891
vn 0.496063 -0.031496 0.866142
v 5.617344 37.664946 9.710965
vt 0.889648 0.535156
vn 0.519685 -0.047244 0.858268
v 0.000000 52.033444 1.717631
vt 0.523438 0.187500
vn 0.110236 0.976378 0.188976
v 4.323066 50.964593 1.167655
vt 0.515625 0.273438
vn 0.480315 0.874016 0.118110
v 6.521447 48.937629 0.636143
vt 0.515625 0.359375
vn 0.826772 0.566929 0.000000
v -6.604321 47.690637 2.205179
vt 0.289062 0.570312
vn -0.952756 0.125984 0.291339
v -7.296790 46.660303 0.541623
vt 0.234375 0.601562
vn -0.960630 0.102362 0.267717
v -5.970809 42.737974 6.930751
vt 0.163177 0.706573
vn -0.968504 0.078740 0.244094
v -7.319595 44.737656 0.233883
vt 0.171875 0.578125
vn -0.984252 0.015748 0.196850
v -6.651042 41.303211 4.241541
vt 0.098083 0.710052
vn -0.984252 0.015748 0.188976
v -7.486177 41.693197 -0.287078
vt 0.094849 0.588715
vn -0.992126 -0.015748 0.173228
v -6.829304 38.587753 2.754276
vt 0.011078 0.703125
vn -0.992126 -0.039370 0.165354
v -7.097393 38.661577 1.064342
vt 0.011627 0.578674
vn -0.992126 -0.055118 0.149606
v 7.297068 45.992673 1.461766
vt 0.234375 0.601562
vn 0.897638 0.307087 0.330709
v 5.925479 43.198575 6.930751
vt 0.163177 0.706573
vn 0.944882 0.102362 0.314961
v 7.990372 43.522761 0.577233
vt 0.171875 0.578125
vn 0.968504 -0.118110 0.244094
v 6.738643 41.762207 4.241541
vt 0.098083 0.710052
vn 0.976378 -0.173228 0.157480
v 7.063464 41.619373 -0.327084
vt 0.094849 0.588715
vn 0.992126 -0.125984 0.102362
v 6.829582 38.587753 2.754276
vt 0.011078 0.703125
vn 1.000000 0.039370 0.110236
v 7.097671 38.661577 1.064342
vt 0.011627 0.578674
vn 0.984252 0.086614 0.157480
v 5.644598 45.273686 6.517940
vt 0.117188 0.710938
vn 0.881890 0.236220 0.409449
v 5.396811 47.396943 6.624330
vt 0.218750 0.601562
vn 0.826772 0.078740 0.559055
v 3.481535 45.681326 8.787744
vt 0.257812 0.710938
vn 0.606299 0.047244 0.795276
v 3.062994 48.245925 8.909522
vt 0.351562 0.601562
vn 0.480315 0.031496 0.881890
v 2.027350 45.583428 9.322333
vt 0.343750 0.710938
vn 0.322835 0.000000 0.944882
v -0.348181 48.298886 10.147957
vt 0.460938 0.593750
vn 0.102362 -0.102362 0.992126
v 0.194114 44.742471 9.863517
vt 0.406250 0.710938
vn 0.007874 -0.078740 1.000000
v 5.656278 34.163097 -2.610077
vt 0.399200 0.966400
vn 0.960630 -0.181102 -0.228346
v 4.946845 32.014161 -7.182659
vt 0.215607 0.987976
vn 0.889764 -0.015748 -0.464567
v -0.139884 43.397580 -12.317086
vt 0.011414 0.718750
vn -0.023622 -0.086614 -1.000000
v 4.126727 36.414744 10.559010
vt 0.929688 0.562500
vn 0.661417 -0.023622 0.748031
v 3.287977 41.723690 11.491023
vt 0.898438 0.488281
vn 0.614173 0.070866 0.787402
v 2.233422 40.945323 12.394461
vt 0.945312 0.488281
vn 0.559055 0.110236 0.826772
v 1.789018 45.591452 11.663358
vt 0.881500 0.381500
vn 0.409449 0.299213 0.866142
v 0.079815 44.495319 12.750121
vt 0.959625 0.388000
vn 0.188976 0.409449 0.897638
v -0.568159 48.279628 10.567802
vt 0.869781 0.173157
vn 0.039370 0.685039 0.732283
v -2.915880 47.135348 10.981054
vt 0.953125 0.171875
vn -0.488189 0.275591 0.826772
v -4.575025 48.026057 7.744944
vt 0.988007 0.011261
vn -0.858268 -0.448819 0.244094
v -5.579522 48.321355 5.599555
vt 0.836365 0.011261
vn -0.960630 0.086614 0.259843
v -6.289234 48.858990 1.236676
vt 0.617615 0.011261
vn -0.913386 0.409449 0.039370
v -6.012802 48.632702 -4.154055
vt 0.305115 0.011261
vn -0.732283 0.661417 -0.181102
v 0.000000 51.184462 5.017046
vt 0.656250 0.195312
vn 0.078740 0.968504 0.251969
v 4.488257 51.027184 -3.669144
vt 0.304688 0.289062
vn 0.480315 0.858268 -0.181102
v 6.768956 49.109351 -4.292098
vt 0.304688 0.375000
vn 0.811024 0.543307 -0.228346
v 8.154729 44.724817 -1.020819
vt 0.515625 0.492188
vn 1.000000 0.086614 -0.062992
v 8.086317 45.126037 -5.151133
vt 0.304688 0.476562
vn 0.944882 0.173228 -0.275591
v 8.690072 41.601719 -2.647446
vt 0.477844 0.522125
vn 0.992126 0.102362 -0.141732
v 8.084648 42.083183 -5.267195
vt 0.333313 0.524719
vn 0.960630 0.055118 -0.291339
v 8.811324 37.790127 -4.563349
vt 0.415344 0.571594
vn 0.976378 0.125984 -0.196850
f 1/1/1 2/2/2 3/3/3
f 4/4/4 5/5/5 6/6/6
f 7/7/7 8/8/8 9/9/9
f 10/10/10 11/11/11 12/12/12
f 13/13/13 14/14/14 15/15/15
f 16/16/16 17/17/17 18/18/18
f 19/19/19 20/20/20 21/21/21
f 22/22/22 23/23/23 24/24/24
f 25/25/25 26/26/26 27/27/27
f 28/28/28 29/29/29 20/20/20
f 20/20/20 29/29/29 30/30/30
f 20/20/20 30/30/30 21/21/21
f 31/31/31 32/32/32 33/33/33
f 34/34/34 35/35/35 36/36/36
f 37/37/37 38/38/38 39/39/39
f 39/39/39 38/38/38 40/40/40
f 39/39/39 40/40/40 41/41/41
f 42/42/42 43/43/43 44/44/44
f 44/44/44 43/43/43 45/45/45
f 44/44/44 45/45/45 46/46/46
f 47/47/47 48/48/48 49/49/49
f 8/8/8 50/50/50 51/51/51
f 51/51/51 50/50/50 52/52/52
f 51/51/51 52/52/52 53/53/53
f 53/53/53 52/52/52 54/54/54
f 55/55/55 56/56/56 57/57/57
f 58/58/58 22/22/22 59/59/59
f 59/59/59 22/22/22 24/24/24
f 59/59/59 24/24/24 60/60/60
f 60/60/60 24/24/24 61/61/61
f 62/62/62 63/63/63 64/64/64
f 64/64/64 63/63/63 65/65/65
f 2/2/2 1/1/1 66/66/66
f 67/67/67 4/4/4 68/68/68
f 68/68/68 4/4/4 69/69/69
f 68/68/68 69/69/69 70/70/70
f 71/71/71 72/72/72 73/73/73
f 73/73/73 72/72/72 74/74/74
f 73/73/73 74/74/74 75/75/75
f 75/75/75 74/74/74 70/70/70
f 76/76/76 77/77/77 78/78/78
f 5/5/5 79/79/79 80/80/80
f 5/5/5 4/4/4 81/81/81
f 81/81/81 4/4/4 82/82/82
f 81/81/81 82/82/82 83/83/83
f 84/84/84 85/85/85 86/86/86
f 87/87/87 88/88/88 89/89/89
f 89/89/89 88/88/88 90/90/90
f 89/89/89 90/90/90 91/91/91
f 91/91/91 90/90/90 92/92/92
f 8/8/8 7/7/7 93/93/93
f 93/93/93 7/7/7 94/94/94
f 93/93/93 94/94/94 95/95/95
f 96/96/96 97/97/97 98/98/98
f 99/99/99 100/100/100 101/101/101
f 101/101/101 100/100/100 102/102/102
f 101/101/101 102/102/102 103/103/103
f 104/104/104 105/105/105 106/106/106
f 106/106/106 105/105/105 107/107/107
f 108/108/108 104/104/104 109/109/109
f 109/109/109 104/104/104 110/110/110
f 111/111/111 42/42/42 29/29/29
f 29/29/29 42/42/42 44/44/44
f 29/29/29 44/44/44 30/30/30
f 30/30/30 44/44/44 46/46/46
f 30/30/30 46/46/46 112/112/112
f 112/112/112 46/46/46 113/113/113
f 112/112/112 113/113/113 14/14/14
f 36/36/36 114/114/114 34/34/34
f 34/34/34 114/114/114 47/47/47
f 34/34/34 47/47/47 115/115/115
f 115/115/115 47/47/47 49/49/49
f 115/115/115 49/49/49 116/116/116
f 117/117/117 118/118/118 119/119/119
f 119/119/119 118/118/118 67/67/67
f 119/119/119 67/67/67 120/120/120
f 120/120/120 67/67/67 68/68/68
f 120/120/120 68/68/68 121/121/121
f 122/122/122 3/3/3 56/56/56
f 56/56/56 3/3/3 2/2/2
f 56/56/56 2/2/2 57/57/57
f 57/57/57 2/2/2 66/66/66
f 57/57/57 66/66/66 33/33/33
f 11/11/11 10/10/10 123/123/123
f 123/123/123 10/10/10 124/124/124
f 123/123/123 124/124/124 125/125/125
f 125/125/125 124/124/124 126/126/126
f 125/125/125 126/126/126 127/127/127
f 14/14/14 13/13/13 112/112/112
f 112/112/112 13/13/13 128/128/128
f 112/112/112 128/128/128 30/30/30
f 30/30/30 128/128/128 129/129/129
f 30/30/30 129/129/129 21/21/21
f 21/21/21 129/129/129 130/130/130
f 21/21/21 130/130/130 131/131/131
f 117/117/117 132/132/132 118/118/118
f 118/118/118 132/132/132 133/133/133
f 118/118/118 133/133/133 67/67/67
f 67/67/67 133/133/133 26/26/26
f 67/67/67 26/26/26 4/4/4
f 4/4/4 26/26/26 25/25/25
f 4/4/4 25/25/25 82/82/82
f 82/82/82 25/25/25 134/134/134
f 135/135/135 71/71/71 80/80/80
f 80/80/80 71/71/71 73/73/73
f 80/80/80 73/73/73 5/5/5
f 5/5/5 73/73/73 75/75/75
f 5/5/5 75/75/75 6/6/6
f 6/6/6 75/75/75 70/70/70
f 76/76/76 136/136/136 77/77/77
f 77/77/77 136/136/136 98/98/98
f 77/77/77 98/98/98 137/137/137
f 137/137/137 98/98/98 97/97/97
f 137/137/137 97/97/97 138/138/138
f 139/139/139 140/140/140 9/9/9
f 9/9/9 140/140/140 141/141/141
f 9/9/9 141/141/141 7/7/7
f 7/7/7 141/141/141 142/142/142
f 7/7/7 142/142/142 143/143/143
f 143/143/143 142/142/142 144/144/144
f 143/143/143 144/144/144 145/145/145
f 146/146/146 126/126/126 147/147/147
f 147/147/147 126/126/126 124/124/124
f 147/147/147 124/124/124 148/148/148
f 148/148/148 124/124/124 10/10/10
f 148/148/148 10/10/10 41/41/41
f 41/41/41 10/10/10 12/12/12
f 41/41/41 12/12/12 39/39/39
f 39/39/39 12/12/12 11/11/11
f 39/39/39 11/11/11 37/37/37
f 102/102/102 149/149/149 103/103/103
f 103/103/103 149/149/149 150/150/150
f 103/103/103 150/150/150 151/151/151
f 151/151/151 150/150/150 152/152/152
f 151/151/151 152/152/152 153/153/153
f 153/153/153 152/152/152 154/154/154
f 153/153/153 154/154/154 155/155/155
f 155/155/155 154/154/154 156/156/156
f 17/17/17 16/16/16 157/157/157
f 157/157/157 16/16/16 158/158/158
f 157/157/157 158/158/158 159/159/159
f 159/159/159 158/158/158 160/160/160
f 159/159/159 160/160/160 161/161/161
f 161/161/161 160/160/160 162/162/162
f 161/161/161 162/162/162 163/163/163
f 164/164/164 165/165/165 166/166/166
f 166/166/166 165/165/165 167/167/167
f 166/166/166 167/167/167 168/168/168
f 168/168/168 167/167/167 169/169/169
f 168/168/168 169/169/169 170/170/170
f 36/36/36 171/171/171 114/114/114
f 114/114/114 171/171/171 172/172/172
f 114/114/114 172/172/172 47/47/47
f 47/47/47 172/172/172 122/122/122
f 47/47/47 122/122/122 48/48/48
f 48/48/48 122/122/122 56/56/56
f 48/48/48 56/56/56 49/49/49
f 49/49/49 56/56/56 55/55/55
f 49/49/49 55/55/55 116/116/116
f 116/116/116 55/55/55 173/173/173
f 116/116/116 173/173/173 115/115/115
f 174/174/174 175/175/175 176/176/176
f 176/176/176 175/175/175 177/177/177
f 176/176/176 177/177/177 178/178/178
f 178/178/178 177/177/177 179/179/179
f 178/178/178 179/179/179 180/180/180
f 180/180/180 179/179/179 78/78/78
f 180/180/180 78/78/78 181/181/181
f 181/181/181 78/78/78 77/77/77
f 181/181/181 77/77/77 182/182/182
f 182/182/182 77/77/77 137/137/137
f 182/182/182 137/137/137 183/183/183
f 183/183/183 137/137/137 138/138/138
f 183/183/183 138/138/138 184/184/184
f 54/54/54 37/37/37 53/53/53
f 53/53/53 37/37/37 11/11/11
f 53/53/53 11/11/11 51/51/51
f 51/51/51 11/11/11 123/123/123
f 51/51/51 123/123/123 8/8/8
f 8/8/8 123/123/123 125/125/125
f 8/8/8 125/125/125 9/9/9
f 9/9/9 125/125/125 127/127/127
f 9/9/9 127/127/127 139/139/139
f 139/139/139 127/127/127 126/126/126
f 139/139/139 126/126/126 185/185/185
f 185/185/185 126/126/126 146/146/146
f 78/78/78 140/140/140 76/76/76
f 76/76/76 140/140/140 139/139/139
f 76/76/76 139/139/139 136/136/136
f 136/136/136 139/139/139 185/185/185
f 136/136/136 185/185/185 98/98/98
f 98/98/98 185/185/185 146/146/146
f 98/98/98 146/146/146 96/96/96
f 96/96/96 146/146/146 147/147/147
f 96/96/96 147/147/147 186/186/186
f 186/186/186 147/147/147 148/148/148
f 186/186/186 148/148/148 187/187/187
f 187/187/187 148/148/148 188/188/188
f 187/187/187 188/188/188 189/189/189
f 189/189/189 188/188/188 190/190/190
f 189/189/189 190/190/190 191/191/191
f 191/191/191 190/190/190 192/192/192
usemtl texture00
v 8.836074 33.879033 -0.521840
vt 0.785828 0.703125
vn 0.866142 0.039370 0.503937
v 8.414197 35.910812 0.036489
vt 0.820312 0.609375
vn 0.866142 0.039370 0.503937
v 7.017022 33.879033 2.630300
vt 0.988129 0.742188
vn 0.866142 0.039370 0.503937
v 7.326269 36.090558 1.877656
vt 0.921875 0.609375
vn 0.866142 0.039370 0.503937
v 8.507638 35.885134 0.999716
vt 0.757812 0.988770
vn 0.842520 -0.543307 0.000000
v 7.899989 35.885134 0.392589
vt 0.734375 0.988770
vn 0.047244 -0.574803 -0.818898
v 8.367476 39.714379 0.999716
vt 0.757812 0.765625
vn 0.826772 0.566929 0.000000
v 7.899989 35.885134 1.607284
vt 0.789062 0.988770
vn 0.047244 -0.574803 0.818898
v 7.899989 39.714379 1.607284
vt 0.789062 0.765625
vn 0.047244 0.582677 0.818898
v 7.152735 39.714379 0.999716
vt 0.757812 0.765625
vn -0.811024 0.590551 0.000000
v 6.663556 25.400448 3.073007
vt 0.987762 0.987762
vn 0.732283 0.188976 0.653543
v 7.948935 27.982701 0.858156
vt 0.835938 0.906250
vn 0.692913 0.078740 0.724409
v 6.450810 29.001800 2.235514
vt 0.984375 0.851562
vn 0.692913 0.078740 0.724409
v 9.112506 32.898451 0.221573
vt 0.785828 0.703125
vn 0.622047 0.023622 0.787402
v 6.535352 32.898451 2.198585
vt 0.988129 0.742188
vn 0.622047 0.023622 0.787402
v 8.359411 34.890108 0.552614
vt 0.816498 0.639771
vn 0.614173 0.086614 0.787402
v 7.226431 34.890108 1.476714
vt 0.921875 0.640625
vn 0.614173 0.086614 0.787402
v 7.899989 39.714379 0.392589
vt 0.734375 0.765625
vn 0.047244 0.582677 -0.818898
v 7.292619 35.885134 0.999716
vt 0.757812 0.988770
vn -0.795276 -0.606299 0.000000
v 8.507638 35.885134 0.999716
vt 0.757812 0.988770
vn 0.842520 -0.543307 0.000000
f 193/193/193 194/194/194 195/195/195
f 195/195/195 194/194/194 196/196/196
f 197/197/197 198/198/198 199/199/199
f 200/200/200 201/201/201 202/202/202
f 203/203/203 204/204/204 205/205/205
f 205/205/205 204/204/204 206/206/206
f 205/205/205 206/206/206 207/207/207
f 207/207/207 206/206/206 208/208/208
f 207/207/207 208/208/208 209/209/209
f 201/201/201 210/210/210 202/202/202
f 202/202/202 210/210/210 211/211/211
f 202/202/202 211/211/211 200/200/200
f 200/200/200 211/211/211 212/212/212
f 200/200/200 212/212/212 201/201/201
f 201/201/201 212/212/212 199/199/199
f 201/201/201 199/199/199 210/210/210
f 210/210/210 199/199/199 198/198/198
f 210/210/210 198/198/198 211/211/211
f 211/211/211 198/198/198 212/212/212
