mtllib 2066-0.mtl
g mesh00
usemtl texture00
v -5.457738 -1.567390 5.093302
vt 0.097595 0.894043
vn -0.905512 -0.322835 0.275591
v -6.025378 0.993271 5.393004
vt 0.071228 0.685852
vn -0.937008 -0.267717 0.244094
v -6.622122 0.848608 2.347735
vt 0.011749 0.683441
vn -0.968504 -0.267717 0.039370
v 1.990543 -2.521094 10.348107
vt 0.389099 0.883789
vn 0.440945 -0.188976 0.881890
v 2.164637 -4.003170 10.182515
vt 0.404053 0.949097
vn 0.574803 -0.401575 0.716535
v 2.661748 -2.854932 9.829659
vt 0.332275 0.904755
vn 0.700787 -0.330709 0.629921
v 4.983699 -2.835149 4.542553
vt 0.119629 0.970734
vn 0.716535 -0.692913 0.094488
v 3.643911 -2.816191 7.857676
vt 0.257233 0.925720
vn 0.834646 -0.448819 0.330709
v 3.670916 -3.680460 6.868618
vt 0.299042 0.970734
vn 0.685039 -0.716535 0.110236
v 0.000000 1.409950 11.707602
vt 0.492584 0.684143
vn 0.000000 -0.338583 0.944882
v 1.200828 2.371073 12.612842
vt 0.440399 0.613586
vn 0.669291 -0.307087 0.677165
v 0.000000 1.826217 12.828726
vt 0.492584 0.663269
vn 0.000000 -0.787402 0.622047
v 5.457738 -1.567390 5.093302
vt 0.097595 0.894043
vn 0.905512 -0.322835 0.275591
v 5.071271 1.203465 8.659472
vt 0.194702 0.684692
vn 0.818898 -0.244094 0.519685
v 4.260843 -0.752166 9.280546
vt 0.282349 0.786530
vn 0.763780 -0.236220 0.606299
v 3.699233 1.527824 9.848059
vt 0.299591 0.685577
vn 0.464567 -0.141732 0.881890
v 2.898768 -0.689932 10.034912
vt 0.351227 0.767822
vn 0.535433 -0.062992 0.850394
v 6.622122 0.848608 2.347735
vt 0.011749 0.683441
vn 0.968504 -0.267717 0.039370
v 4.199752 -2.994650 2.299489
vt 0.012207 0.987488
vn 0.622047 -0.661417 -0.417323
v 7.164592 4.379871 -0.318101
vt 0.011749 0.504211
vn -0.511811 0.007874 -0.858268
v 0.000000 -3.281915 11.145814
vt 0.502045 0.912506
vn 0.000000 -0.047244 1.000000
v -2.164637 -4.003170 10.182515
vt 0.404053 0.949097
vn -0.574803 -0.401575 0.716535
v 0.000000 -4.262822 10.884546
vt 0.502045 0.954346
vn 0.000000 -0.535433 0.850394
v -6.064707 -1.514223 2.882947
vt 0.037811 0.970337
vn -0.866142 -0.480315 -0.141732
v -4.199752 -2.994650 2.299489
vt 0.012207 0.987488
vn -0.622047 -0.661417 -0.417323
v -4.983699 -2.835149 4.542553
vt 0.119629 0.970734
vn -0.716535 -0.692913 0.094488
v 0.000000 -5.096592 5.788382
vt 0.502533 0.987488
vn 0.000000 -1.000000 -0.110236
v -3.670916 -3.680460 6.868618
vt 0.299042 0.970734
vn -0.685039 -0.716535 0.110236
v -4.260843 -0.752166 9.280546
vt 0.282349 0.786530
vn -0.763780 -0.236220 0.606299
v -3.643911 -2.816191 7.857676
vt 0.257233 0.925720
vn -0.834646 -0.448819 0.330709
v 0.002360 -0.192884 11.170755
vt 0.502045 0.764130
vn 0.000000 0.622047 0.787402
v -1.004973 -0.139717 11.196923
vt 0.435791 0.762268
vn -0.322835 -0.188976 0.929134
v 0.002360 -0.858911 11.693292
vt 0.502045 0.795837
vn 0.000000 0.259843 0.968504
v -1.374398 -0.893532 11.313860
vt 0.419647 0.795380
vn -0.440945 -0.015748 0.897638
v 0.002360 -1.510514 11.580444
vt 0.502045 0.829926
vn 0.000000 -0.393701 0.921260
v -1.262705 0.698587 11.758302
vt 0.421356 0.718140
vn -0.393701 -0.102362 0.913386
v 0.000000 0.561342 12.027339
vt 0.494904 0.726746
vn 0.000000 -0.007874 1.000000
v -5.071271 1.203465 8.659472
vt 0.194702 0.684692
vn -0.818898 -0.244094 0.519685
v -3.699233 1.527824 9.848059
vt 0.299591 0.685577
vn -0.464567 -0.141732 0.881890
v -2.898768 -0.689932 10.034912
vt 0.351227 0.767822
vn -0.527559 -0.062992 0.850394
v -3.539297 -2.085457 9.605189
vt 0.327118 0.851044
vn -0.645669 -0.330709 0.685039
v -1.990543 -2.521094 10.348107
vt 0.389099 0.883789
vn -0.440945 -0.188976 0.881890
v -2.661748 -2.854932 9.829659
vt 0.332275 0.904755
vn -0.700787 -0.330709 0.629921
v 3.539297 -2.085457 9.605189
vt 0.327118 0.851044
vn 0.645669 -0.330709 0.685039
v 6.064707 -1.514223 2.882947
vt 0.037811 0.970337
vn 0.866142 -0.480315 -0.141732
v 2.024628 -4.974597 8.953858
vt 0.387238 0.972656
vn 0.551181 -0.803150 0.228346
v 6.025378 0.993271 5.393004
vt 0.071228 0.685852
vn 0.937008 -0.267717 0.244094
v 0.002360 -0.192884 11.170755
vt 0.502045 0.764130
vn 0.000000 -0.968504 0.275591
v 0.001049 -0.014013 11.793465
vt 0.498474 0.750977
vn 0.000000 -0.708661 0.708661
v 1.009954 -0.139717 11.196923
vt 0.435791 0.762268
vn 0.322835 -0.188976 0.929134
v 1.262705 0.698587 11.758302
vt 0.421356 0.718140
vn 0.393701 -0.102362 0.913386
v 1.950953 2.267625 10.559085
vt 0.398895 0.635498
vn 0.606299 -0.110236 0.787402
v 0.000000 -5.133273 9.870138
vt 0.502045 0.972656
vn 0.000000 -0.905512 0.425197
v -2.024628 -4.974597 8.953858
vt 0.387238 0.972656
vn -0.551181 -0.803150 0.228346
v -1.950953 2.267625 10.559085
vt 0.398895 0.635498
vn -0.606299 -0.110236 0.787402
v -1.200828 2.371073 12.612842
vt 0.440399 0.613586
vn -0.669291 -0.307087 0.677165
v 0.000000 2.667818 13.397465
vt 0.492584 0.624268
vn 0.000000 -0.149606 0.992126
v -7.164592 4.379871 -0.318101
vt 0.011749 0.504211
vn 0.511811 0.007874 -0.858268
v 1.379379 -0.893532 11.313860
vt 0.419647 0.795380
vn 0.440945 -0.015748 0.897638
v 0.000000 -2.322852 10.986763
vt 0.502045 0.857880
vn 0.000000 -0.236220 0.976378
f 1/1/1 2/2/2 3/3/3
f 4/4/4 5/5/5 6/6/6
f 7/7/7 8/8/8 9/9/9
f 10/10/10 11/11/11 12/12/12
f 13/13/13 14/14/14 15/15/15
f 15/15/15 14/14/14 16/16/16
f 15/15/15 16/16/16 17/17/17
f 18/18/18 19/19/19 20/20/20
f 21/21/21 22/22/22 23/23/23
f 24/24/24 25/25/25 26/26/26
f 26/26/26 25/25/25 27/27/27
f 26/26/26 27/27/27 28/28/28
f 29/29/29 1/1/1 30/30/30
f 31/31/31 32/32/32 33/33/33
f 33/33/33 32/32/32 34/34/34
f 33/33/33 34/34/34 35/35/35
f 10/10/10 36/36/36 37/37/37
f 2/2/2 1/1/1 38/38/38
f 38/38/38 1/1/1 29/29/29
f 38/38/38 29/29/29 39/39/39
f 40/40/40 41/41/41 42/42/42
f 42/42/42 41/41/41 43/43/43
f 17/17/17 44/44/44 15/15/15
f 15/15/15 44/44/44 8/8/8
f 15/15/15 8/8/8 13/13/13
f 13/13/13 8/8/8 7/7/7
f 13/13/13 7/7/7 45/45/45
f 8/8/8 46/46/46 9/9/9
f 9/9/9 46/46/46 27/27/27
f 9/9/9 27/27/27 7/7/7
f 7/7/7 27/27/27 19/19/19
f 7/7/7 19/19/19 45/45/45
f 45/45/45 19/19/19 18/18/18
f 45/45/45 18/18/18 13/13/13
f 13/13/13 18/18/18 47/47/47
f 13/13/13 47/47/47 14/14/14
f 32/32/32 48/48/48 49/49/49
f 49/49/49 48/48/48 50/50/50
f 49/49/49 50/50/50 51/51/51
f 51/51/51 50/50/50 17/17/17
f 51/51/51 17/17/17 52/52/52
f 52/52/52 17/17/17 16/16/16
f 4/4/4 21/21/21 5/5/5
f 5/5/5 21/21/21 23/23/23
f 5/5/5 23/23/23 53/53/53
f 53/53/53 23/23/23 22/22/22
f 53/53/53 22/22/22 54/54/54
f 54/54/54 22/22/22 30/30/30
f 40/40/40 36/36/36 55/55/55
f 55/55/55 36/36/36 10/10/10
f 55/55/55 10/10/10 56/56/56
f 56/56/56 10/10/10 12/12/12
f 56/56/56 12/12/12 57/57/57
f 57/57/57 12/12/12 11/11/11
f 58/58/58 25/25/25 3/3/3
f 3/3/3 25/25/25 24/24/24
f 3/3/3 24/24/24 1/1/1
f 1/1/1 24/24/24 26/26/26
f 1/1/1 26/26/26 30/30/30
f 30/30/30 26/26/26 28/28/28
f 30/30/30 28/28/28 54/54/54
f 54/54/54 28/28/28 27/27/27
f 54/54/54 27/27/27 53/53/53
f 53/53/53 27/27/27 46/46/46
f 53/53/53 46/46/46 5/5/5
f 5/5/5 46/46/46 8/8/8
f 5/5/5 8/8/8 6/6/6
f 6/6/6 8/8/8 44/44/44
f 6/6/6 44/44/44 4/4/4
f 4/4/4 44/44/44 17/17/17
f 4/4/4 17/17/17 59/59/59
f 59/59/59 17/17/17 50/50/50
f 60/60/60 35/35/35 42/42/42
f 42/42/42 35/35/35 34/34/34
f 42/42/42 34/34/34 40/40/40
f 40/40/40 34/34/34 32/32/32
f 40/40/40 32/32/32 36/36/36
f 36/36/36 32/32/32 49/49/49
f 36/36/36 49/49/49 37/37/37
f 37/37/37 49/49/49 51/51/51
f 37/37/37 51/51/51 10/10/10
f 10/10/10 51/51/51 52/52/52
f 10/10/10 52/52/52 11/11/11
f 55/55/55 39/39/39 40/40/40
f 40/40/40 39/39/39 29/29/29
f 40/40/40 29/29/29 41/41/41
f 41/41/41 29/29/29 30/30/30
f 41/41/41 30/30/30 43/43/43
f 43/43/43 30/30/30 22/22/22
f 43/43/43 22/22/22 42/42/42
f 42/42/42 22/22/22 21/21/21
f 42/42/42 21/21/21 60/60/60
f 60/60/60 21/21/21 4/4/4
f 60/60/60 4/4/4 35/35/35
f 35/35/35 4/4/4 59/59/59
f 35/35/35 59/59/59 33/33/33
f 33/33/33 59/59/59 50/50/50
f 33/33/33 50/50/50 31/31/31
usemtl texture00
v 5.280498 6.881183 9.758107
vt 0.188354 0.362640
vn 0.811024 -0.173228 0.559055
v 6.466906 8.774579 5.897141
vt 0.067139 0.257263
vn 0.960630 0.055118 0.291339
v 4.395084 8.589114 10.250387
vt 0.255737 0.231445
vn 0.645669 0.236220 0.724409
v -4.873317 10.113228 9.471080
vt 0.228516 0.138641
vn -0.779528 0.244094 0.574803
v -6.193704 11.646410 5.615838
vt 0.082916 0.085846
vn -0.921260 0.228346 0.330709
v -6.466906 8.774579 5.897141
vt 0.067139 0.257263
vn -0.960630 0.055118 0.291339
v -7.825834 6.798341 0.829190
vt 0.902924 0.367096
vn 0.826772 0.409449 -0.385827
v -7.164592 4.379871 -0.318101
vt 0.899506 0.403442
vn 0.511811 0.007874 -0.858268
v -8.591428 6.158691 -0.844318
vt 0.908875 0.383026
vn 0.629921 0.291339 -0.724409
v -0.892493 4.553384 12.233410
vt 0.445679 0.508148
vn -0.732283 0.188976 0.653543
v -1.200828 2.371073 12.612842
vt 0.440399 0.613586
vn -0.669291 -0.307087 0.677165
v 0.000000 4.767288 12.620202
vt 0.496948 0.501160
vn 0.000000 0.338583 0.944882
v -2.448064 6.946302 11.820042
vt 0.323395 0.334442
vn -0.346457 -0.322835 0.881890
v -1.186146 6.215567 11.621331
vt 0.434357 0.389984
vn -0.488189 -0.433071 0.763780
v 0.000000 6.826779 12.165537
vt 0.496948 0.334229
vn 0.000000 -0.039370 1.000000
v 5.855480 3.209790 8.450539
vt 0.155609 0.556244
vn 0.897638 -0.102362 0.425197
v 5.071271 1.203465 8.659472
vt 0.194702 0.684692
vn 0.818898 -0.244094 0.519685
v 6.025378 0.993271 5.393004
vt 0.071228 0.685852
vn 0.937008 -0.267717 0.244094
v 7.183470 0.859324 0.751504
vt 0.905945 0.636536
vn -0.527559 -0.480315 -0.700787
v 8.436998 3.764950 -1.065926
vt 0.981689 0.544708
vn 0.913386 -0.118110 0.393701
v 6.622122 0.848608 2.347735
vt 0.873169 0.620270
vn 0.968504 -0.267717 0.039370
v 6.959822 5.774572 2.347735
vt 0.873169 0.420105
vn 0.984252 0.047244 0.181102
v 7.825834 6.798341 0.829190
vt 0.969940 0.315857
vn 0.897638 -0.078740 0.440945
v 8.591166 6.158691 -0.844318
vt 0.987488 0.385071
vn 0.889764 -0.094488 0.440945
v 6.959822 5.774572 2.347735
vt 0.883942 0.380188
vn 0.984252 0.047244 0.181102
v 7.825834 6.798341 0.829190
vt 0.902924 0.367096
vn -0.826772 0.409449 -0.385827
v 7.164592 4.379871 -0.318101
vt 0.899506 0.403442
vn -0.511811 0.007874 -0.858268
v 8.591166 6.158691 -0.844318
vt 0.908875 0.383026
vn -0.629921 0.291339 -0.724409
v 7.391910 9.099350 0.065419
vt 0.012787 0.235779
vn 0.992126 0.007874 0.141732
v 6.959822 5.774572 2.347735
vt 0.012695 0.410278
vn 0.984252 0.047244 0.181102
v 7.164592 4.379871 -0.318101
vt 0.012787 0.506439
vn -0.511811 0.007874 -0.858268
v 3.317747 5.920471 10.489577
vt 0.312500 0.404388
vn 0.196850 -0.070866 0.984252
v 2.383303 6.422465 10.448690
vt 0.362518 0.380707
vn 0.251969 -0.433071 0.866142
v 2.368621 5.344292 10.372640
vt 0.363281 0.443573
vn 0.149606 0.023622 0.992126
v 1.651532 5.478239 10.354240
vt 0.400726 0.437103
vn 0.629921 0.000000 0.779528
v 1.778432 3.771544 11.187110
vt 0.394043 0.531586
vn 0.543307 0.094488 0.834646
v 0.892493 4.553384 12.233410
vt 0.445679 0.508148
vn 0.732283 0.188976 0.653543
v 8.436998 3.764950 -1.065926
vt 0.907623 0.416870
vn -0.527559 -0.062992 -0.850394
v 7.183470 0.859324 0.751504
vt 0.889343 0.436218
vn -0.527559 -0.480315 -0.700787
v 6.622122 0.848608 2.347735
vt 0.883942 0.432770
vn 0.968504 -0.267717 0.039370
v -2.368621 5.344292 10.372640
vt 0.363281 0.443573
vn -0.149606 0.023622 0.992126
v -2.383303 6.422465 10.448690
vt 0.362518 0.380707
vn -0.251969 -0.433071 0.866142
v -3.317747 5.920471 10.489577
vt 0.312500 0.404388
vn -0.196850 -0.070866 0.984252
v 4.378041 5.444031 9.927788
vt 0.259491 0.438751
vn 0.543307 -0.047244 0.842520
v 3.154665 3.583606 10.441739
vt 0.340515 0.538727
vn 0.370079 -0.047244 0.929134
v 4.887476 3.446773 9.729895
vt 0.243622 0.557098
vn 0.637795 -0.070866 0.763780
v 3.699233 1.527824 9.848059
vt 0.299591 0.685577
vn 0.464567 -0.141732 0.881890
v 1.950953 2.267625 10.559085
vt 0.398895 0.635498
vn 0.606299 -0.110236 0.787402
v 5.979757 5.733769 7.561654
vt 0.151550 0.415466
vn 0.937008 -0.031496 0.346457
v 5.257163 5.792294 8.850414
vt 0.208130 0.420685
vn 0.779528 -0.181102 0.606299
v 5.481859 4.581822 8.659472
vt 0.218994 0.479095
vn 0.858268 0.094488 0.511811
v 6.516459 3.484691 6.377564
vt 0.077942 0.550415
vn 0.968504 -0.047244 0.244094
v 6.622122 0.848608 2.347735
vt 0.012787 0.685669
vn 0.968504 -0.267717 0.039370
v -3.718110 13.219982 8.401065
vt 0.253540 0.055237
vn -0.527559 0.527559 0.669291
v -6.622122 0.848608 2.347735
vt 0.873169 0.620270
vn -0.968504 -0.267717 0.039370
v -8.436998 3.764950 -1.065926
vt 0.981689 0.544708
vn -0.913386 -0.118110 0.393701
v -7.183470 0.859324 0.751504
vt 0.905945 0.636536
vn 0.527559 -0.480315 -0.700787
v -4.371749 7.358035 10.912758
vt 0.243073 0.332062
vn -0.606299 -0.141732 0.787402
v -4.344481 6.420816 10.046770
vt 0.257263 0.380676
vn -0.480315 -0.401575 0.779528
v -8.591428 6.158691 -0.844318
vt 0.987488 0.385071
vn -0.889764 -0.094488 0.440945
v -7.825834 6.798341 0.829190
vt 0.969940 0.315857
vn -0.897638 -0.078740 0.440945
v -6.959822 5.774572 2.347735
vt 0.873169 0.420105
vn -0.984252 0.047244 0.181102
v 4.371749 7.358035 10.912758
vt 0.243073 0.332062
vn 0.606299 -0.141732 0.787402
v 2.448064 6.946302 11.820042
vt 0.323395 0.334442
vn 0.346457 -0.322835 0.881890
v 4.344481 6.420816 10.046770
vt 0.257263 0.380676
vn 0.480315 -0.401575 0.779528
v -1.651532 5.478239 10.354240
vt 0.400726 0.437103
vn -0.629921 0.000000 0.779528
v -1.778432 3.771544 11.187110
vt 0.394043 0.531586
vn -0.543307 0.094488 0.834646
v -6.959822 5.774572 2.347735
vt 0.883942 0.380188
vn -0.984252 0.047244 0.181102
v -1.950953 2.267625 10.559085
vt 0.398895 0.635498
vn -0.606299 -0.110236 0.787402
v 0.000000 6.014028 11.975004
vt 0.496948 0.402191
vn 0.000000 0.102362 1.000000
v 0.852116 5.639800 11.779155
vt 0.456512 0.420044
vn 0.645669 0.102362 0.755906
v 1.186146 6.215567 11.621331
vt 0.434357 0.389984
vn 0.488189 -0.433071 0.763780
v -7.164592 4.379871 -0.318101
vt 0.012787 0.506439
vn 0.511811 0.007874 -0.858268
v -6.959822 5.774572 2.347735
vt 0.012695 0.410278
vn -0.984252 0.047244 0.181102
v -7.391910 9.099350 0.065419
vt 0.012787 0.235779
vn -0.992126 0.007874 0.141732
v -6.622122 0.848608 2.347735
vt 0.883942 0.432770
vn -0.968504 -0.267717 0.039370
v -7.183470 0.859324 0.751504
vt 0.889343 0.436218
vn 0.527559 -0.480315 -0.700787
v -8.436998 3.764950 -1.065926
vt 0.907623 0.416870
vn 0.527559 -0.062992 -0.850394
v -4.887476 3.446773 9.729895
vt 0.243622 0.557098
vn -0.637795 -0.070866 0.763780
v -3.154665 3.583606 10.441739
vt 0.340515 0.538727
vn -0.370079 -0.047244 0.929134
v -4.378041 5.444031 9.927788
vt 0.259491 0.438751
vn -0.543307 -0.047244 0.842520
v -4.395084 8.589114 10.250387
vt 0.255737 0.231445
vn -0.645669 0.236220 0.724409
v -2.153363 8.610958 11.309771
vt 0.372559 0.246429
vn -0.259843 0.220472 0.944882
v -2.718381 10.421101 10.927477
vt 0.360291 0.158966
vn -0.346457 0.362205 0.866142
v 0.000000 10.362988 11.333895
vt 0.496948 0.134552
vn 0.000000 0.330709 0.944882
v 0.000000 13.504774 9.103914
vt 0.496948 0.055298
vn 0.000000 0.606299 0.795276
v 2.718381 10.421101 10.927477
vt 0.360291 0.158966
vn 0.346457 0.362205 0.866142
v 3.718110 13.219982 8.401065
vt 0.253540 0.055237
vn 0.527559 0.527559 0.669291
v 4.873317 10.113228 9.471080
vt 0.228516 0.138641
vn 0.779528 0.244094 0.574803
v 6.193704 11.646410 5.615838
vt 0.082916 0.085846
vn 0.921260 0.228346 0.330709
v -0.852116 5.639800 11.779155
vt 0.456512 0.420044
vn -0.645669 0.102362 0.755906
v -5.979757 5.733769 7.561654
vt 0.151550 0.415466
vn -0.937008 -0.031496 0.346457
v -6.516459 3.484691 6.377564
vt 0.077942 0.550415
vn -0.968504 -0.047244 0.244094
v -5.481859 4.581822 8.659472
vt 0.218994 0.479095
vn -0.858268 0.094488 0.511811
v -5.855480 3.209790 8.450539
vt 0.155609 0.556244
vn -0.897638 -0.102362 0.425197
v -5.257163 5.792294 8.850414
vt 0.208130 0.420685
vn -0.779528 -0.181102 0.606299
v -5.280498 6.881183 9.758107
vt 0.188354 0.362640
vn -0.811024 -0.173228 0.559055
v 2.153363 8.610958 11.309771
vt 0.372559 0.246429
vn 0.259843 0.220472 0.944882
v -6.622122 0.848608 2.347735
vt 0.012787 0.685669
vn -0.968504 -0.267717 0.039370
v -6.025378 0.993271 5.393004
vt 0.071228 0.685852
vn -0.937008 -0.267717 0.244094
v -5.071271 1.203465 8.659472
vt 0.194702 0.684692
vn -0.818898 -0.244094 0.519685
v -3.699233 1.527824 9.848059
vt 0.299591 0.685577
vn -0.464567 -0.141732 0.881890
v 1.200828 2.371073 12.612842
vt 0.440399 0.613586
vn 0.669291 -0.307087 0.677165
v 0.000000 2.667818 13.397465
vt 0.496948 0.623138
vn 0.000000 -0.149606 0.992126
f 61/61/61 62/62/62 63/63/63
f 64/64/64 65/65/65 66/66/66
f 67/67/67 68/68/68 69/69/69
f 70/70/70 71/71/71 72/72/72
f 73/73/73 74/74/74 75/75/75
f 76/76/76 77/77/77 78/78/78
f 79/79/79 80/80/80 81/81/81
f 82/82/82 81/81/81 83/83/83
f 83/83/83 81/81/81 80/80/80
f 83/83/83 80/80/80 84/84/84
f 85/85/85 86/86/86 87/87/87
f 87/87/87 86/86/86 88/88/88
f 89/89/89 90/90/90 91/91/91
f 92/92/92 93/93/93 94/94/94
f 94/94/94 93/93/93 95/95/95
f 94/94/94 95/95/95 96/96/96
f 96/96/96 95/95/95 97/97/97
f 88/88/88 98/98/98 87/87/87
f 87/87/87 98/98/98 99/99/99
f 87/87/87 99/99/99 100/100/100
f 101/101/101 102/102/102 103/103/103
f 104/104/104 105/105/105 106/106/106
f 77/77/77 106/106/106 107/107/107
f 107/107/107 106/106/106 105/105/105
f 107/107/107 105/105/105 108/108/108
f 62/62/62 61/61/61 109/109/109
f 109/109/109 61/61/61 110/110/110
f 109/109/109 110/110/110 111/111/111
f 76/76/76 78/78/78 112/112/112
f 112/112/112 78/78/78 113/113/113
f 112/112/112 113/113/113 90/90/90
f 65/65/65 64/64/64 114/114/114
f 115/115/115 116/116/116 117/117/117
f 118/118/118 119/119/119 73/73/73
f 120/120/120 116/116/116 121/121/121
f 121/121/121 116/116/116 115/115/115
f 121/121/121 115/115/115 122/122/122
f 123/123/123 124/124/124 125/125/125
f 74/74/74 102/102/102 126/126/126
f 126/126/126 102/102/102 101/101/101
f 126/126/126 101/101/101 127/127/127
f 68/68/68 67/67/67 128/128/128
f 71/71/71 70/70/70 129/129/129
f 130/130/130 131/131/131 132/132/132
f 133/133/133 134/134/134 135/135/135
f 136/136/136 137/137/137 68/68/68
f 68/68/68 137/137/137 138/138/138
f 68/68/68 138/138/138 69/69/69
f 139/139/139 140/140/140 141/141/141
f 142/142/142 143/143/143 144/144/144
f 144/144/144 143/143/143 145/145/145
f 144/144/144 145/145/145 146/146/146
f 146/146/146 145/145/145 147/147/147
f 146/146/146 147/147/147 148/148/148
f 148/148/148 147/147/147 149/149/149
f 148/148/148 149/149/149 150/150/150
f 89/89/89 62/62/62 90/90/90
f 90/90/90 62/62/62 109/109/109
f 90/90/90 109/109/109 112/112/112
f 112/112/112 109/109/109 111/111/111
f 112/112/112 111/111/111 76/76/76
f 93/93/93 132/132/132 95/95/95
f 95/95/95 132/132/132 131/131/131
f 95/95/95 131/131/131 97/97/97
f 97/97/97 131/131/131 130/130/130
f 97/97/97 130/130/130 72/72/72
f 72/72/72 130/130/130 151/151/151
f 72/72/72 151/151/151 70/70/70
f 65/65/65 135/135/135 66/66/66
f 66/66/66 135/135/135 134/134/134
f 66/66/66 134/134/134 152/152/152
f 152/152/152 134/134/134 153/153/153
f 152/152/152 153/153/153 154/154/154
f 154/154/154 153/153/153 155/155/155
f 74/74/74 73/73/73 102/102/102
f 102/102/102 73/73/73 119/119/119
f 102/102/102 119/119/119 103/103/103
f 103/103/103 119/119/119 141/141/141
f 103/103/103 141/141/141 101/101/101
f 101/101/101 141/141/141 140/140/140
f 101/101/101 140/140/140 127/127/127
f 154/154/154 156/156/156 152/152/152
f 152/152/152 156/156/156 157/157/157
f 152/152/152 157/157/157 66/66/66
f 66/66/66 157/157/157 142/142/142
f 66/66/66 142/142/142 64/64/64
f 64/64/64 142/142/142 144/144/144
f 64/64/64 144/144/144 114/114/114
f 114/114/114 144/144/144 146/146/146
f 77/77/77 76/76/76 106/106/106
f 106/106/106 76/76/76 111/111/111
f 106/106/106 111/111/111 104/104/104
f 104/104/104 111/111/111 110/110/110
f 104/104/104 110/110/110 125/125/125
f 125/125/125 110/110/110 61/61/61
f 125/125/125 61/61/61 123/123/123
f 123/123/123 61/61/61 63/63/63
f 123/123/123 63/63/63 124/124/124
f 124/124/124 63/63/63 158/158/158
f 124/124/124 158/158/158 75/75/75
f 155/155/155 139/139/139 154/154/154
f 154/154/154 139/139/139 141/141/141
f 154/154/154 141/141/141 156/156/156
f 156/156/156 141/141/141 119/119/119
f 156/156/156 119/119/119 157/157/157
f 157/157/157 119/119/119 118/118/118
f 157/157/157 118/118/118 142/142/142
f 142/142/142 118/118/118 73/73/73
f 142/142/142 73/73/73 143/143/143
f 143/143/143 73/73/73 75/75/75
f 143/143/143 75/75/75 145/145/145
f 145/145/145 75/75/75 158/158/158
f 145/145/145 158/158/158 147/147/147
f 147/147/147 158/158/158 63/63/63
f 147/147/147 63/63/63 149/149/149
f 149/149/149 63/63/63 62/62/62
f 149/149/149 62/62/62 150/150/150
f 150/150/150 62/62/62 89/89/89
f 134/134/134 159/159/159 153/153/153
f 153/153/153 159/159/159 160/160/160
f 153/153/153 160/160/160 155/155/155
f 155/155/155 160/160/160 161/161/161
f 155/155/155 161/161/161 139/139/139
f 139/139/139 161/161/161 162/162/162
f 139/139/139 162/162/162 140/140/140
f 140/140/140 162/162/162 129/129/129
f 140/140/140 129/129/129 127/127/127
f 127/127/127 129/129/129 70/70/70
f 127/127/127 70/70/70 126/126/126
f 126/126/126 70/70/70 151/151/151
f 126/126/126 151/151/151 74/74/74
f 74/74/74 151/151/151 130/130/130
f 74/74/74 130/130/130 75/75/75
f 75/75/75 130/130/130 132/132/132
f 75/75/75 132/132/132 124/124/124
f 124/124/124 132/132/132 93/93/93
f 124/124/124 93/93/93 125/125/125
f 125/125/125 93/93/93 92/92/92
f 125/125/125 92/92/92 104/104/104
f 104/104/104 92/92/92 94/94/94
f 104/104/104 94/94/94 105/105/105
f 105/105/105 94/94/94 96/96/96
f 105/105/105 96/96/96 108/108/108
f 108/108/108 96/96/96 97/97/97
f 108/108/108 97/97/97 163/163/163
f 163/163/163 97/97/97 72/72/72
f 163/163/163 72/72/72 164/164/164
f 164/164/164 72/72/72 71/71/71
