mtllib 0709-0.mtl
g mesh00
usemtl texture00
v -7.656885 43.119167 -6.321768
vt 0.989990 0.488251
vn -0.984252 0.055118 -0.181102
v -6.128884 44.225625 -3.430155
vt 0.989990 0.386719
vn -0.866142 -0.094488 0.496063
v -6.338108 49.286385 -2.790195
vt 0.902344 0.386719
vn -0.952756 -0.015748 0.322835
v -6.989312 51.555323 -5.659795
vt 0.902344 0.488251
vn -1.000000 -0.062992 -0.007874
v -6.161112 51.417599 -1.722546
vt 0.855469 0.386719
vn -0.952756 -0.212598 0.212598
v -7.810350 53.824261 -5.064648
vt 0.855469 0.488251
vn -0.960630 -0.259843 -0.141732
v -7.474261 55.185158 -2.469428
vt 0.777344 0.386719
vn -0.944882 -0.244094 0.244094
v -8.250795 55.992825 -5.129115
vt 0.776764 0.488342
vn -0.968504 -0.220472 -0.133858
v 6.338108 49.286385 -2.790195
vt 0.902344 0.386719
vn 0.952756 -0.015748 0.322835
v 6.128884 44.225625 -3.430155
vt 0.989990 0.386719
vn 0.866142 -0.094488 0.496063
v 7.656885 43.119167 -6.321768
vt 0.989990 0.488251
vn 0.984252 0.055118 -0.181102
v 6.989312 51.555323 -5.633850
vt 0.902344 0.488251
vn 1.000000 -0.062992 -0.007874
v 7.810350 53.824261 -5.064648
vt 0.855469 0.488251
vn 0.960630 -0.259843 -0.141732
v 6.161112 51.417599 -1.722546
vt 0.855469 0.386719
vn 0.952756 -0.212598 0.212598
v 8.250795 55.992825 -5.129115
vt 0.776764 0.488342
vn 0.968504 -0.220472 -0.133858
v 7.474261 55.185158 -2.469428
vt 0.777344 0.386719
vn 0.944882 -0.244094 0.244094
v 3.882155 50.862036 -8.934284
vt 0.885925 0.587494
vn 0.614173 0.125984 -0.787402
v 4.630553 41.592536 -9.914665
vt 0.989990 0.589844
vn 0.503937 0.141732 -0.858268
v 0.000000 50.486214 -10.427262
vt 0.886719 0.692505
vn 0.000000 0.149606 -0.992126
v 0.000000 40.096250 -12.268523
vt 0.989990 0.692505
vn 0.000000 0.173228 -0.992126
v -4.630553 41.592536 -9.914665
vt 0.989990 0.589844
vn -0.503937 0.141732 -0.858268
v -3.882155 50.862036 -8.934284
vt 0.885925 0.587494
vn -0.606299 0.125984 -0.787402
f 1/1/1 2/2/2 3/3/3
f 4/4/4 5/5/5 6/6/6
f 6/6/6 5/5/5 7/7/7
f 6/6/6 7/7/7 8/8/8
f 9/9/9 10/10/10 11/11/11
f 12/12/12 13/13/13 14/14/14
f 14/14/14 13/13/13 15/15/15
f 14/14/14 15/15/15 16/16/16
f 14/14/14 9/9/9 12/12/12
f 12/12/12 9/9/9 11/11/11
f 12/12/12 11/11/11 17/17/17
f 17/17/17 11/11/11 18/18/18
f 17/17/17 18/18/18 19/19/19
f 18/18/18 20/20/20 19/19/19
f 19/19/19 20/20/20 21/21/21
f 19/19/19 21/21/21 22/22/22
f 22/22/22 21/21/21 1/1/1
f 22/22/22 1/1/1 4/4/4
f 4/4/4 1/1/1 3/3/3
f 4/4/4 3/3/3 5/5/5
usemtl texture00
v -1.576598 66.144691 3.549656
vt 0.817993 0.847229
vn -0.511811 0.795276 -0.314961
v 0.000000 67.013050 4.474218
vt 0.817993 0.776917
vn 0.000000 0.881890 -0.480315
v 1.576598 66.144691 3.549656
vt 0.794556 0.847229
vn 0.511811 0.795276 -0.314961
v -1.837489 66.165699 6.147234
vt 0.714844 0.628876
vn -0.858268 0.464567 0.228346
v 0.000000 65.358032 7.768361
vt 0.717133 0.568298
vn 0.000000 0.141732 0.992126
v 0.000000 76.487968 12.735521
vt 0.418243 0.631744
vn 0.000000 0.842520 0.543307
v 0.000000 76.487968 12.735521
vt 0.418243 0.631744
vn 0.000000 0.842520 0.543307
v 0.000000 67.013050 4.474218
vt 0.714844 0.685211
vn 0.000000 0.881890 -0.480315
v -1.837489 66.165699 6.147234
vt 0.902344 0.776917
vn -0.858268 0.464567 0.228346
v -1.443083 64.132525 7.876069
vt 0.972626 0.847229
vn -0.503937 0.299213 0.811024
v 0.000000 65.358032 7.768361
vt 0.989990 0.776917
vn 0.000000 0.141732 0.992126
v -2.254914 65.241317 5.504129
vt 0.902344 0.847229
vn -0.937008 0.314961 0.149606
v 0.000000 67.013050 4.474218
vt 0.594360 0.809784
vn 0.000000 0.881890 -0.480315
v 0.000000 76.487968 12.735521
vt 0.837341 0.762726
vn 0.000000 0.842520 0.543307
v 1.837489 66.165699 6.147234
vt 0.574219 0.769501
vn 0.858268 0.464567 0.228346
v 0.000000 65.358032 7.768361
vt 0.567657 0.717743
vn 0.000000 0.141732 0.992126
v 1.837489 66.165699 6.147234
vt 0.902344 0.776917
vn 0.858268 0.464567 0.228346
v 1.576598 66.144691 3.549656
vt 0.817993 0.847229
vn 0.511811 0.795276 -0.314961
v -8.254376 49.463791 -1.463103
vt 0.911163 0.833496
vn -0.944882 -0.007874 0.330709
v -7.991439 48.695807 -0.736662
vt 0.883698 0.798737
vn -0.905512 -0.007874 0.425197
v -7.998600 50.406848 -0.701283
vt 0.959015 0.799011
vn -0.905512 -0.007874 0.425197
v -7.550482 49.442783 0.023586
vt 0.911163 0.833496
vn -0.858268 -0.007874 0.511811
v 8.254376 49.463791 -1.463103
vt 0.911163 0.833496
vn 0.944882 -0.007874 0.330709
v 7.998600 50.406848 -0.701283
vt 0.959015 0.799011
vn 0.905512 -0.007874 0.425197
v 7.991439 48.695807 -0.736662
vt 0.883698 0.798737
vn 0.905512 -0.007874 0.425197
v 7.550482 49.442783 0.023586
vt 0.911163 0.833496
vn 0.858268 -0.007874 0.511811
v 0.000000 64.125522 7.876069
vt 0.989990 0.847229
vn 0.000000 0.086614 1.000000
v 1.443083 64.132525 7.876069
vt 0.972626 0.847229
vn 0.503937 0.299213 0.811024
v 2.254914 65.241317 5.504129
vt 0.902344 0.847229
vn 0.937008 0.314961 0.149606
v -4.437699 63.140448 7.739272
vt 0.847626 0.866791
vn -0.527559 0.748031 0.409449
v -7.110549 64.337943 0.749241
vt 0.753876 0.989990
vn -0.771654 0.535433 0.346457
v -6.544775 61.301021 5.888577
vt 0.753876 0.866791
vn -0.889764 0.330709 0.330709
v -9.214044 60.017156 -1.266555
vt 0.613251 0.989990
vn -0.960630 0.118110 0.267717
v -8.178155 57.860264 2.900262
vt 0.613251 0.866791
vn -0.968504 -0.102362 0.251969
v -8.978731 56.384987 -2.295680
vt 0.527344 0.989990
vn -0.952756 -0.236220 0.212598
v -7.745895 55.145475 0.509452
vt 0.509491 0.866791
vn -0.905512 -0.354331 0.236220
v 7.745895 55.145475 0.509452
vt 0.509491 0.866791
vn 0.905512 -0.354331 0.236220
v 8.978731 56.384987 -2.295680
vt 0.527344 0.989990
vn 0.952756 -0.236220 0.212598
v 8.178155 57.860264 2.900262
vt 0.613251 0.866791
vn 0.968504 -0.102362 0.251969
v 9.214044 60.017156 -1.266555
vt 0.613251 0.989990
vn 0.960630 0.118110 0.267717
v 6.544775 61.301021 5.888577
vt 0.753876 0.866791
vn 0.889764 0.330709 0.330709
v 7.110549 64.337943 0.749241
vt 0.753876 0.989990
vn 0.771654 0.535433 0.346457
v 4.437699 63.140448 7.739272
vt 0.847626 0.866791
vn 0.527559 0.748031 0.409449
v 3.294895 66.445815 2.281529
vt 0.878876 0.989990
vn 0.370079 0.834646 0.401575
v 0.000000 63.838403 8.777831
vt 0.989990 0.866791
vn 0.000000 0.897638 0.448819
v 0.000000 66.604547 2.641604
vt 0.989990 0.989990
vn 0.000000 0.897638 0.448819
v -3.294895 66.445815 2.281529
vt 0.878876 0.989990
vn -0.370079 0.834646 0.401575
f 23/23/23 24/24/24 25/25/25
f 26/26/26 27/27/27 28/28/28
f 26/26/26 29/29/29 30/30/30
f 31/31/31 32/32/32 33/33/33
f 24/24/24 23/23/23 31/31/31
f 31/31/31 23/23/23 34/34/34
f 31/31/31 34/34/34 32/32/32
f 35/35/35 36/36/36 37/37/37
f 37/37/37 36/36/36 38/38/38
f 39/39/39 40/40/40 24/24/24
f 41/41/41 42/42/42 43/43/43
f 43/43/43 42/42/42 44/44/44
f 45/45/45 46/46/46 47/47/47
f 47/47/47 46/46/46 48/48/48
f 32/32/32 49/49/49 33/33/33
f 33/33/33 49/49/49 50/50/50
f 33/33/33 50/50/50 39/39/39
f 39/39/39 50/50/50 51/51/51
f 39/39/39 51/51/51 40/40/40
f 52/52/52 53/53/53 54/54/54
f 54/54/54 53/53/53 55/55/55
f 54/54/54 55/55/55 56/56/56
f 56/56/56 55/55/55 57/57/57
f 56/56/56 57/57/57 58/58/58
f 59/59/59 60/60/60 61/61/61
f 61/61/61 60/60/60 62/62/62
f 61/61/61 62/62/62 63/63/63
f 63/63/63 62/62/62 64/64/64
f 63/63/63 64/64/64 65/65/65
f 65/65/65 64/64/64 66/66/66
f 65/65/65 66/66/66 67/67/67
f 67/67/67 66/66/66 68/68/68
f 67/67/67 68/68/68 52/52/52
f 52/52/52 68/68/68 69/69/69
f 52/52/52 69/69/69 53/53/53
usemtl texture00
v 7.313635 43.182193 0.305829
vt 0.462097 0.509308
vn 0.811024 -0.039370 0.590551
v 8.013435 44.178939 -0.588858
vt 0.497986 0.569733
vn 0.834646 -0.031496 0.551181
v 7.537182 47.232202 0.172176
vt 0.360535 0.514435
vn 0.795276 0.055118 0.606299
v 8.109095 47.306899 -0.577065
vt 0.394531 0.569733
vn 0.842520 0.055118 0.543307
v 7.935168 48.880217 -0.701283
vt 0.298492 0.569733
vn 0.834646 0.133858 0.535433
v 7.313635 43.182193 0.305829
vt 0.462097 0.509308
vn 0.811024 -0.039370 0.590551
v 7.853320 40.728845 -0.702855
vt 0.571838 0.569733
vn 0.826772 -0.055118 0.559055
v 8.013435 44.178939 -0.588858
vt 0.497986 0.569733
vn 0.834646 -0.031496 0.551181
v 8.528055 43.382943 -1.453669
vt 0.462097 0.509308
vn 0.858268 -0.031496 0.519685
v 8.471784 47.383931 -1.297216
vt 0.360535 0.514435
vn 0.881890 0.055118 0.472441
f 70/70/70 71/71/71 72/72/72
f 72/72/72 71/71/71 73/73/73
f 72/72/72 73/73/73 74/74/74
f 75/75/75 76/76/76 77/77/77
f 77/77/77 76/76/76 78/78/78
f 77/77/77 78/78/78 73/73/73
f 73/73/73 78/78/78 79/79/79
f 73/73/73 79/79/79 74/74/74
usemtl texture00
v -7.537182 47.232202 0.172176
vt 0.360535 0.514435
vn -0.795276 0.055118 0.606299
v -8.109095 47.306899 -0.577065
vt 0.394531 0.569733
vn -0.842520 0.055118 0.543307
v -7.313635 43.182193 0.305829
vt 0.462097 0.509308
vn -0.811024 -0.039370 0.590551
v -8.013435 44.178939 -0.588858
vt 0.497986 0.569733
vn -0.834646 -0.031496 0.551181
v -7.853320 40.728845 -0.702855
vt 0.571838 0.569733
vn -0.826772 -0.055118 0.559055
v -7.537182 47.232202 0.172176
vt 0.360535 0.514435
vn -0.795276 0.055118 0.606299
v -7.935168 48.880217 -0.701283
vt 0.298492 0.569733
vn -0.834646 0.133858 0.535433
v -8.109095 47.306899 -0.577065
vt 0.394531 0.569733
vn -0.842520 0.055118 0.543307
v -8.471784 47.383931 -1.297216
vt 0.360535 0.514435
vn -0.881890 0.055118 0.472441
v -8.528055 43.382943 -1.453669
vt 0.462097 0.509308
vn -0.858268 -0.031496 0.519685
f 80/80/80 81/81/81 82/82/82
f 82/82/82 81/81/81 83/83/83
f 82/82/82 83/83/83 84/84/84
f 85/85/85 86/86/86 87/87/87
f 87/87/87 86/86/86 88/88/88
f 87/87/87 88/88/88 83/83/83
f 83/83/83 88/88/88 89/89/89
f 83/83/83 89/89/89 84/84/84
g mesh01
