mtllib 6092-0.mtl
g mesh00
usemtl texture02
v 84.001540 37.437101 0.000000
vt 0.119507 0.681915
vn 0.000000 0.000000 1.000000
v 168.003081 0.000000 0.000000
vt 0.063568 0.745941
vn 0.000000 0.000000 1.000000
v 168.003081 37.437101 0.000000
vt 0.119507 0.745941
vn 0.000000 0.000000 1.000000
v 84.001540 0.000000 0.000000
vt 0.063568 0.681915
vn 0.000000 0.000000 1.000000
v 168.003081 -37.437101 0.000000
vt 0.005798 0.745941
vn 0.000000 0.000000 1.000000
v 0.000000 37.437101 0.000000
vt 0.119507 0.625610
vn 0.000000 0.000000 1.000000
v 0.000000 0.000000 0.000000
vt 0.063568 0.625610
vn 0.000000 0.000000 1.000000
v -84.001540 37.437101 0.000000
vt 0.119507 0.561554
vn 0.000000 0.000000 1.000000
v -84.001540 0.000000 0.000000
vt 0.063568 0.561554
vn 0.000000 0.000000 1.000000
v -168.003081 37.437101 0.000000
vt 0.119507 0.505249
vn 0.000000 0.000000 1.000000
v -168.003081 0.000000 0.000000
vt 0.063568 0.505249
vn 0.000000 0.000000 1.000000
v 84.001540 -37.437101 0.000000
vt 0.005798 0.681915
vn 0.000000 0.000000 1.000000
v 0.000000 -37.437101 0.000000
vt 0.005798 0.625610
vn 0.000000 0.000000 1.000000
v -84.001540 -37.437101 0.000000
vt 0.005798 0.561554
vn 0.000000 0.000000 1.000000
v -168.003081 -37.437101 0.000000
vt 0.005798 0.505249
vn 0.000000 0.000000 1.000000
f 1/1/1 2/2/2 3/3/3
f 4/4/4 5/5/5 2/2/2
f 2/2/2 1/1/1 4/4/4
f 4/4/4 1/1/1 6/6/6
f 4/4/4 6/6/6 7/7/7
f 7/7/7 6/6/6 8/8/8
f 7/7/7 8/8/8 9/9/9
f 9/9/9 8/8/8 10/10/10
f 9/9/9 10/10/10 11/11/11
f 5/5/5 4/4/4 12/12/12
f 12/12/12 4/4/4 7/7/7
f 12/12/12 7/7/7 13/13/13
f 13/13/13 7/7/7 9/9/9
f 13/13/13 9/9/9 14/14/14
f 14/14/14 9/9/9 11/11/11
f 14/14/14 11/11/11 15/15/15
g mesh01
g mesh02
