mtllib 3785-0.mtl
g mesh00
usemtl texture00
v -45.954133 5.000057 174.634265
vt 0.106659 0.208252
vn 0.000000 1.000000 0.000000
v -46.367009 5.000057 135.877648
vt 0.072144 0.396149
vn 0.000000 1.000000 0.000000
v -57.337433 5.000057 166.163426
vt 0.039459 0.244171
vn 0.000000 1.000000 0.000000
v -55.593283 -5.000057 171.225680
vt 0.055084 0.211395
vn -0.354331 -0.842520 0.409449
v -63.403693 0.000000 175.342980
vt 0.023773 0.175781
vn -0.338583 -0.858268 0.393701
v -65.496271 0.000000 167.999337
vt 0.009155 0.224121
vn -0.511811 -0.858268 0.023622
v -5.478163 -2.499945 -76.419787
vt 0.746216 0.552399
vn 0.212598 -0.929134 -0.314961
v 5.367391 0.000000 -63.581911
vt 0.920349 0.570343
vn 0.984252 0.000000 -0.188976
v 3.250645 -2.499945 -63.176930
vt 0.881317 0.608185
vn 0.370079 -0.929134 -0.070866
v -4.269745 0.000000 -78.201700
vt 0.746216 0.498688
vn 0.559055 0.000000 -0.826772
v 3.250645 2.499945 -63.176930
vt 0.881317 0.608185
vn 0.370079 0.929134 -0.070866
v -5.421770 0.000000 220.700777
vt 0.367188 0.007812
vn 0.346457 0.000000 0.944882
v -8.575742 5.000057 205.824499
vt 0.328125 0.078125
vn 0.078740 0.976378 0.212598
v -18.231004 0.000000 202.780397
vt 0.274292 0.072357
vn -0.464567 0.795276 0.401575
v -5.091469 2.499945 13.053866
vt 0.884125 0.086121
vn -0.007874 0.992126 -0.141732
v -22.057662 2.499945 20.215268
vt 0.776093 0.031952
vn -0.086614 0.944882 -0.322835
v 3.321136 2.499945 22.098426
vt 0.943878 0.007812
vn 0.251969 0.905512 -0.338583
v 2.521566 -5.000057 97.573259
vt 0.333923 0.604431
vn 0.362205 -0.937008 0.015748
v -46.367009 -5.000057 135.877648
vt 0.072144 0.396149
vn 0.000000 -1.007874 0.000000
v -40.465900 -5.000057 95.440363
vt 0.083618 0.595093
vn 0.000000 -1.007874 0.000000
v -1.137927 -5.000057 142.472078
vt 0.337128 0.384918
vn 0.330709 -0.944882 0.031496
v -29.866058 -5.000057 183.442587
vt 0.200012 0.172913
vn 0.000000 -1.007874 0.000000
v -45.954133 -5.000057 174.634265
vt 0.106659 0.208252
vn 0.000000 -1.007874 0.000000
v -5.979656 5.000057 184.698026
vt 0.332428 0.177795
vn 0.283465 0.960630 0.031496
v -0.795542 0.000000 187.283150
vt 0.367188 0.167603
vn 1.000000 0.000000 0.110236
v -1.137927 5.000057 142.472078
vt 0.337128 0.384918
vn 0.330709 0.944882 0.031496
v -46.367009 -5.000057 135.877648
vt 0.072144 0.396149
vn -0.598425 -0.787402 -0.149606
v -49.085951 0.000000 115.162904
vt 0.021027 0.495209
vn -0.622047 -0.779528 -0.094488
v -40.465900 -5.000057 95.440363
vt 0.083618 0.595093
vn -0.637795 -0.771654 -0.062992
v -46.598623 0.000000 93.658449
vt 0.021027 0.600342
vn -0.622047 -0.779528 -0.039370
v -38.850648 -5.000057 53.484401
vt 0.087524 0.799805
vn -0.629921 -0.779528 0.000000
v -10.531365 -2.499945 -33.714612
vt 0.871948 0.415131
vn 0.023622 -1.000000 0.110236
v 1.156053 -2.499945 -25.068282
vt 0.943878 0.345795
vn 0.173228 -0.984252 0.086614
v -9.101404 0.000000 -27.288924
vt 0.878357 0.366028
vn 0.259843 0.000000 0.968504
v -28.714032 -2.499945 -42.097705
vt 0.776093 0.476501
vn -0.204724 -0.976378 0.078740
v -13.177801 -2.499945 -38.911859
vt 0.866730 0.448883
vn 0.000000 -1.000000 -0.023622
v 0.060421 -2.499945 -47.639185
vt 0.943878 0.507385
vn 0.275591 -0.960630 0.007874
v 1.846866 0.000000 -46.430994
vt 0.992188 0.499329
vn 1.000000 0.000000 0.031496
v -15.957163 -5.000057 194.680791
vt 0.282593 0.124756
vn 0.000000 -1.007874 0.000000
v -5.979656 -5.000057 184.698026
vt 0.332428 0.177795
vn 0.283465 -0.960630 0.031496
v -8.575742 -5.000057 205.824499
vt 0.328125 0.078125
vn 0.078740 -0.976378 0.212598
v -55.593283 5.000057 171.225680
vt 0.055084 0.211395
vn 0.000000 1.000000 0.000000
v -38.850648 -5.000057 53.484401
vt 0.087524 0.799805
vn 0.000000 -1.007874 0.000000
v -39.577713 -5.000057 20.066775
vt 0.066101 0.962006
vn 0.000000 -1.007874 0.000000
v 2.400724 -5.000057 23.893839
vt 0.311676 0.962006
vn 0.401575 -0.874016 -0.283465
v -40.465900 5.000057 95.440363
vt 0.083618 0.595093
vn 0.000000 1.000000 0.000000
v 2.521566 5.000057 97.573259
vt 0.333923 0.604431
vn 0.362205 0.937008 0.015748
v -38.850648 5.000057 53.484401
vt 0.087524 0.799805
vn 0.000000 1.000000 0.000000
v -29.866058 5.000057 183.442587
vt 0.200012 0.172913
vn 0.000000 1.000000 0.000000
v 0.060421 2.499945 -47.639185
vt 0.943878 0.507385
vn 0.275591 0.960630 0.007874
v 1.156053 2.499945 -25.068282
vt 0.943878 0.345795
vn 0.173228 0.984252 0.086614
v 6.495248 0.000000 98.241477
vt 0.367188 0.603027
vn 1.000000 0.000000 0.023622
v -47.136369 0.000000 15.537745
vt 0.009155 0.991180
vn -0.543307 0.000000 -0.842520
v -45.372078 0.000000 34.794559
vt 0.012512 0.894806
vn -0.614173 0.795276 0.023622
v -39.577713 5.000057 20.066775
vt 0.066101 0.962006
vn -0.228346 0.795276 -0.559055
v -38.850648 5.000057 53.484401
vt 0.087524 0.799805
vn -0.629921 0.779528 0.000000
v -5.689636 0.000000 7.087156
vt 0.884094 0.131866
vn -0.094488 0.000000 -1.000000
v 2.453089 2.499945 1.889908
vt 0.943878 0.161621
vn 0.070866 1.000000 -0.078740
v 6.811451 0.000000 22.145674
vt 0.992188 0.007812
vn 0.968504 0.000000 -0.267717
v 3.321136 -2.499945 22.098426
vt 0.943878 0.007812
vn 0.251969 -0.905512 -0.338583
v 2.453089 -2.499945 1.889908
vt 0.943878 0.161621
vn 0.070866 -1.000000 -0.078740
v -57.337433 -5.000057 166.163426
vt 0.039459 0.244171
vn -0.551181 -0.834646 -0.086614
v -58.497515 0.000000 151.266900
vt 0.009155 0.309021
vn -0.566929 -0.795276 -0.204724
v -52.975043 0.000000 134.244227
vt 0.015930 0.398590
vn -0.574803 -0.811024 -0.149606
v -49.871422 0.000000 178.974304
vt 0.088440 0.166626
vn -0.236220 -0.755906 0.614173
v -45.954133 -5.000057 174.634265
vt 0.106659 0.208252
vn -0.283465 -0.748031 0.598425
v -32.750149 0.000000 188.410345
vt 0.186676 0.135437
vn -0.370079 -0.755906 0.543307
v -29.866058 -5.000057 183.442587
vt 0.200012 0.172913
vn -0.377953 -0.787402 0.496063
v -18.231004 0.000000 202.780397
vt 0.274292 0.072357
vn -0.464567 -0.795276 0.401575
v 3.407740 0.000000 143.140295
vt 0.367188 0.383728
vn 1.000000 0.000000 0.078740
v -45.078030 0.000000 54.422606
vt 0.015991 0.790985
vn -0.629921 0.779528 0.000000
v -46.598623 0.000000 93.658449
vt 0.021027 0.600342
vn -0.622047 0.779528 -0.039370
v -40.465900 5.000057 95.440363
vt 0.083618 0.595093
vn -0.637795 0.771654 -0.062992
v -49.085951 0.000000 115.162904
vt 0.021027 0.495209
vn -0.622047 0.779528 -0.094488
v -46.367009 5.000057 135.877648
vt 0.072144 0.396149
vn -0.598425 0.787402 -0.149606
v -52.975043 0.000000 134.244227
vt 0.015930 0.398590
vn -0.574803 0.811024 -0.149606
v -58.497515 0.000000 151.266900
vt 0.009155 0.309021
vn -0.566929 0.795276 -0.204724
v -57.337433 5.000057 166.163426
vt 0.039459 0.244171
vn -0.551181 0.834646 -0.086614
v -65.496271 0.000000 167.999337
vt 0.009155 0.224121
vn -0.511811 0.858268 0.023622
v -55.593283 5.000057 171.225680
vt 0.055084 0.211395
vn -0.354331 0.842520 0.409449
v -15.957163 5.000057 194.680791
vt 0.282593 0.124756
vn -0.433071 0.818898 0.385827
v -29.866058 5.000057 183.442587
vt 0.200012 0.172913
vn -0.377953 0.787402 0.496063
v -32.750149 0.000000 188.410345
vt 0.186676 0.135437
vn -0.370079 0.755906 0.543307
v -45.954133 5.000057 174.634265
vt 0.106659 0.208252
vn -0.283465 0.748031 0.598425
v -49.871422 0.000000 178.974304
vt 0.088440 0.166626
vn -0.236220 0.755906 0.614173
v -63.403693 0.000000 175.342980
vt 0.023773 0.175781
vn -0.338583 0.858268 0.393701
v -25.245872 0.000000 17.879881
vt 0.137909 0.991180
vn -0.275591 0.000000 -0.968504
v -22.057662 -2.499945 20.215268
vt 0.163544 0.991180
vn -0.086614 -0.944882 -0.322835
v -39.577713 -5.000057 20.066775
vt 0.066101 0.962006
vn -0.228346 -0.795276 -0.559055
v 3.321136 -2.499945 22.098426
vt 0.311584 0.991180
vn 0.251969 -0.905512 -0.338583
v 6.811451 0.000000 22.145674
vt 0.367188 0.983276
vn 0.968504 0.000000 -0.267717
v 2.400724 5.000057 23.893839
vt 0.311676 0.962006
vn 0.401575 0.874016 -0.283465
v -5.091469 -2.499945 13.053866
vt 0.884125 0.086121
vn -0.007874 -0.992126 -0.141732
v -1.677687 0.000000 1.127195
vt 0.910126 0.170197
vn -0.960630 0.000000 -0.275591
v -3.260715 0.000000 -23.495608
vt 0.911957 0.337494
vn -0.874016 0.000000 0.488189
v -10.531365 2.499945 -33.714612
vt 0.871948 0.415131
vn 0.031496 1.000000 0.110236
v -13.177801 2.499945 -38.911859
vt 0.866730 0.448883
vn 0.000000 1.000000 -0.031496
v -15.957163 -5.000057 194.680791
vt 0.282593 0.124756
vn -0.433071 -0.818898 0.385827
v -15.957163 5.000057 194.680791
vt 0.282593 0.124756
vn 0.000000 1.000000 0.000000
v -21.014394 -2.499945 -79.605632
vt 0.881317 0.608185
vn -0.070866 -0.929134 -0.370079
v -21.423242 0.000000 -81.725029
vt 0.920349 0.570343
vn -0.188976 0.000000 -0.984252
v -34.254630 -2.499945 -70.878306
vt 0.937469 0.742188
vn -0.314961 -0.929134 -0.212598
v -36.041075 0.000000 -72.086497
vt 0.992188 0.742188
vn -0.826772 0.000000 -0.559055
v -37.444854 -2.499945 -55.340561
vt 0.880951 0.877594
vn -0.370079 -0.929134 0.070866
v -39.561600 0.000000 -54.928831
vt 0.929810 0.925751
vn -0.984252 0.000000 0.188976
v -28.714032 -2.499945 -42.097705
vt 0.746216 0.933319
vn -0.204724 -0.976378 0.078740
v -29.922451 0.000000 -40.315791
vt 0.746216 0.993530
vn -0.921260 -0.007874 0.401575
v -10.493099 1.999922 -69.008647
vt 0.746216 0.648132
vn -0.393701 0.716535 0.582677
v -19.322608 1.999922 -70.824309
vt 0.811127 0.677704
vn 0.125984 0.716535 0.692913
v -19.322608 -1.999922 -70.824309
vt 0.792786 0.696045
vn 0.125984 -0.716535 0.692913
v -26.849040 1.999922 -65.863300
vt 0.838043 0.742188
vn 0.582677 0.716535 0.393701
v -26.849040 -1.999922 -65.863300
vt 0.814270 0.742188
vn 0.582677 -0.716535 0.393701
v -28.661668 1.999922 -57.027979
vt 0.810120 0.806122
vn 0.692913 0.716535 -0.133858
v -28.661668 -1.999922 -57.027979
vt 0.793793 0.792267
vn 0.692913 -0.716535 -0.125984
v -23.699096 1.999922 -49.502095
vt 0.746216 0.835510
vn 0.393701 0.708661 -0.582677
v -23.699096 -1.999922 -49.502095
vt 0.746216 0.813293
vn 0.393701 -0.716535 -0.582677
v -14.869587 1.999922 -47.693183
vt 0.810120 0.806122
vn -0.125984 0.716535 -0.692913
v -14.869587 -1.999922 -47.693183
vt 0.793793 0.792267
vn -0.125984 -0.716535 -0.692913
v -7.343155 1.999922 -52.654192
vt 0.838043 0.742188
vn -0.582677 0.716535 -0.393701
v -7.343155 -1.999922 -52.654192
vt 0.814270 0.742188
vn -0.582677 -0.716535 -0.393701
v -5.530528 -1.999922 -61.482763
vt 0.792786 0.696045
vn -0.692913 -0.716535 0.125984
v -5.478163 2.499945 -76.419787
vt 0.746216 0.552399
vn 0.212598 0.929134 -0.314961
v -21.014394 2.499945 -79.605632
vt 0.881317 0.608185
vn -0.070866 0.929134 -0.370079
v -34.254630 2.499945 -70.878306
vt 0.937469 0.742188
vn -0.314961 0.929134 -0.212598
v -37.444854 2.499945 -55.340561
vt 0.880951 0.877594
vn -0.377953 0.929134 0.062992
v -28.714032 2.700021 -42.097705
vt 0.746216 0.933319
vn -0.204724 0.976378 0.078740
v -39.577713 5.000057 20.066775
vt 0.066101 0.962006
vn 0.000000 1.000000 0.000000
v -57.337433 -5.000057 166.163426
vt 0.039459 0.244171
vn 0.000000 -1.007874 0.000000
v -55.593283 -5.000057 171.225680
vt 0.055084 0.211395
vn 0.000000 -1.007874 0.000000
v -45.078030 0.000000 54.422606
vt 0.015991 0.790985
vn -0.629921 -0.779528 0.000000
v -45.372078 0.000000 34.794559
vt 0.012512 0.894806
vn -0.614173 -0.795276 0.023622
v -22.057662 2.499945 20.215268
vt 0.163544 0.991180
vn -0.086614 0.944882 -0.322835
v 3.321136 2.499945 22.098426
vt 0.311584 0.991180
vn 0.251969 0.905512 -0.338583
v -10.493099 -1.999922 -69.008647
vt 0.746216 0.677063
vn -0.393701 -0.716535 0.582677
v -5.530528 1.999922 -61.482763
vt 0.811127 0.677704
vn -0.692913 0.716535 0.125984
v 0.060421 2.499945 -47.639185
vt 0.937469 0.742188
vn 0.275591 0.960630 0.007874
v -13.177801 2.499945 -38.911859
vt 0.880951 0.877594
vn 0.000000 1.000000 -0.031496
v -23.699096 1.999922 -49.502095
vt 0.746216 0.835632
vn 0.393701 0.708661 -0.582677
v 1.846866 0.000000 -46.430994
vt 0.992188 0.742188
vn 1.000000 0.000000 0.031496
v 0.060421 -2.499945 -47.639185
vt 0.937469 0.742188
vn 0.275591 -0.960630 0.007874
v -7.343155 -1.999922 -52.654192
vt 0.838043 0.742188
vn -0.582677 -0.716535 -0.393701
v -13.177801 -2.499945 -38.911859
vt 0.880951 0.877594
vn 0.000000 -1.000000 -0.023622
v -14.869587 -1.999922 -47.693183
vt 0.810120 0.806122
vn -0.125984 -0.716535 -0.692913
v -23.699096 -1.999922 -49.502095
vt 0.746216 0.835632
vn 0.393701 -0.716535 -0.582677
v -28.661668 -1.999922 -57.027979
vt 0.810120 0.806122
vn 0.692913 -0.716535 -0.125984
v -26.849040 -1.999922 -65.863300
vt 0.838043 0.742188
vn 0.582677 -0.716535 0.393701
v -19.322608 -1.999922 -70.824309
vt 0.811127 0.677704
vn 0.125984 -0.716535 0.692913
v -10.493099 -1.999922 -69.008647
vt 0.746216 0.648132
vn -0.393701 -0.716535 0.582677
v -5.530528 -1.999922 -61.482763
vt 0.811127 0.677704
vn -0.692913 -0.716535 0.125984
v -28.714032 2.700021 -42.097705
vt 0.776093 0.476501
vn -0.204724 0.976378 0.078740
v -15.135439 2.499945 -24.035582
vt 0.827820 0.345398
vn 0.212598 0.976378 0.055118
v -11.826387 0.000000 -20.991480
vt 0.847168 0.324524
vn 0.976378 0.000000 0.244094
v -15.135439 -2.499945 -24.035582
vt 0.827820 0.345398
vn 0.212598 -0.976378 0.047244
v -22.869316 -2.499945 -20.788990
vt 0.776093 0.325195
vn -0.314961 -0.952756 0.047244
v -29.922451 0.000000 -40.315791
vt 0.742218 0.466614
vn -0.921260 -0.007874 0.401575
v -25.423107 0.000000 -20.127522
vt 0.742218 0.321686
vn -0.992126 0.000000 0.165354
v -22.869316 2.499945 -20.788990
vt 0.776093 0.325195
vn -0.314961 0.952756 0.055118
v -16.513036 2.499945 -8.713827
vt 0.811340 0.241852
vn 0.220472 0.976378 -0.015748
v -12.432610 0.000000 -9.024312
vt 0.836395 0.244049
vn 1.000000 0.000000 -0.086614
v -16.513036 -2.499945 -8.713827
vt 0.811340 0.241852
vn 0.220472 -0.976378 -0.015748
v -21.084885 -2.499945 2.180144
vt 0.776093 0.167389
vn -0.283465 -0.960630 0.000000
v -23.598395 0.000000 1.930406
vt 0.742218 0.170105
vn -1.000000 0.000000 0.000000
v -21.084885 2.499945 2.180144
vt 0.776093 0.167389
vn -0.283465 0.960630 0.000000
v -12.829374 2.499945 5.359240
vt 0.831848 0.146240
vn 0.188976 0.984252 -0.102362
v -9.484069 0.000000 2.672870
vt 0.854736 0.162964
vn 0.874016 0.000000 -0.488189
v -12.829374 -2.499945 5.359240
vt 0.831848 0.146240
vn 0.188976 -0.984252 -0.102362
v -22.057662 -2.499945 20.215268
vt 0.776093 0.031952
vn -0.086614 -0.944882 -0.322835
v -25.245872 0.000000 17.879881
vt 0.742218 0.051239
vn -0.275591 0.000000 -0.968504
v -5.091469 -2.499945 13.053866
vt 0.884125 0.086121
vn -0.007874 -0.992126 -0.141732
f 1/1/1 2/2/2 3/3/3
f 4/4/4 5/5/5 6/6/6
f 7/7/7 8/8/8 9/9/9
f 10/10/10 11/11/11 8/8/8
f 12/12/12 13/13/13 14/14/14
f 15/15/15 16/16/16 17/17/17
f 18/18/18 19/19/19 20/20/20
f 21/21/21 22/22/22 23/23/23
f 24/24/24 25/25/25 26/26/26
f 27/27/27 28/28/28 29/29/29
f 29/29/29 28/28/28 30/30/30
f 29/29/29 30/30/30 31/31/31
f 32/32/32 33/33/33 34/34/34
f 35/35/35 36/36/36 32/32/32
f 32/32/32 36/36/36 37/37/37
f 32/32/32 37/37/37 33/33/33
f 33/33/33 37/37/37 38/38/38
f 39/39/39 40/40/40 41/41/41
f 41/41/41 40/40/40 25/25/25
f 42/42/42 1/1/1 3/3/3
f 43/43/43 44/44/44 45/45/45
f 46/46/46 47/47/47 48/48/48
f 2/2/2 1/1/1 26/26/26
f 26/26/26 1/1/1 49/49/49
f 26/26/26 49/49/49 24/24/24
f 50/50/50 51/51/51 38/38/38
f 20/20/20 43/43/43 18/18/18
f 18/18/18 43/43/43 45/45/45
f 18/18/18 45/45/45 52/52/52
f 53/53/53 54/54/54 55/55/55
f 55/55/55 54/54/54 56/56/56
f 57/57/57 15/15/15 58/58/58
f 58/58/58 15/15/15 17/17/17
f 58/58/58 17/17/17 59/59/59
f 59/59/59 60/60/60 61/61/61
f 4/4/4 6/6/6 62/62/62
f 62/62/62 6/6/6 63/63/63
f 62/62/62 63/63/63 27/27/27
f 27/27/27 63/63/63 64/64/64
f 27/27/27 64/64/64 28/28/28
f 5/5/5 4/4/4 65/65/65
f 65/65/65 4/4/4 66/66/66
f 65/65/65 66/66/66 67/67/67
f 67/67/67 66/66/66 68/68/68
f 67/67/67 68/68/68 69/69/69
f 39/39/39 22/22/22 40/40/40
f 40/40/40 22/22/22 21/21/21
f 40/40/40 21/21/21 25/25/25
f 25/25/25 21/21/21 70/70/70
f 25/25/25 70/70/70 26/26/26
f 26/26/26 70/70/70 47/47/47
f 26/26/26 47/47/47 2/2/2
f 2/2/2 47/47/47 46/46/46
f 54/54/54 71/71/71 56/56/56
f 56/56/56 71/71/71 72/72/72
f 56/56/56 72/72/72 73/73/73
f 73/73/73 72/72/72 74/74/74
f 73/73/73 74/74/74 75/75/75
f 74/74/74 76/76/76 75/75/75
f 75/75/75 76/76/76 77/77/77
f 75/75/75 77/77/77 78/78/78
f 78/78/78 77/77/77 79/79/79
f 78/78/78 79/79/79 80/80/80
f 13/13/13 81/81/81 14/14/14
f 14/14/14 81/81/81 82/82/82
f 14/14/14 82/82/82 83/83/83
f 83/83/83 82/82/82 84/84/84
f 83/83/83 84/84/84 85/85/85
f 85/85/85 84/84/84 80/80/80
f 85/85/85 80/80/80 86/86/86
f 86/86/86 80/80/80 79/79/79
f 87/87/87 88/88/88 89/89/89
f 89/89/89 88/88/88 90/90/90
f 89/89/89 90/90/90 45/45/45
f 45/45/45 90/90/90 91/91/91
f 45/45/45 91/91/91 52/52/52
f 52/52/52 91/91/91 92/92/92
f 60/60/60 93/93/93 61/61/61
f 61/61/61 93/93/93 94/94/94
f 61/61/61 94/94/94 95/95/95
f 95/95/95 94/94/94 51/51/51
f 95/95/95 51/51/51 96/96/96
f 96/96/96 51/51/51 50/50/50
f 96/96/96 50/50/50 97/97/97
f 68/68/68 98/98/98 69/69/69
f 69/69/69 98/98/98 41/41/41
f 69/69/69 41/41/41 12/12/12
f 12/12/12 41/41/41 25/25/25
f 12/12/12 25/25/25 13/13/13
f 13/13/13 25/25/25 24/24/24
f 13/13/13 24/24/24 99/99/99
f 99/99/99 24/24/24 49/49/49
f 8/8/8 7/7/7 10/10/10
f 10/10/10 7/7/7 100/100/100
f 10/10/10 100/100/100 101/101/101
f 101/101/101 100/100/100 102/102/102
f 101/101/101 102/102/102 103/103/103
f 103/103/103 102/102/102 104/104/104
f 103/103/103 104/104/104 105/105/105
f 105/105/105 104/104/104 106/106/106
f 105/105/105 106/106/106 107/107/107
f 108/108/108 109/109/109 110/110/110
f 110/110/110 109/109/109 111/111/111
f 110/110/110 111/111/111 112/112/112
f 112/112/112 111/111/111 113/113/113
f 112/112/112 113/113/113 114/114/114
f 114/114/114 113/113/113 115/115/115
f 114/114/114 115/115/115 116/116/116
f 116/116/116 115/115/115 117/117/117
f 116/116/116 117/117/117 118/118/118
f 118/118/118 117/117/117 119/119/119
f 118/118/118 119/119/119 120/120/120
f 120/120/120 119/119/119 121/121/121
f 11/11/11 10/10/10 122/122/122
f 122/122/122 10/10/10 101/101/101
f 122/122/122 101/101/101 123/123/123
f 123/123/123 101/101/101 103/103/103
f 123/123/123 103/103/103 124/124/124
f 124/124/124 103/103/103 105/105/105
f 124/124/124 105/105/105 125/125/125
f 125/125/125 105/105/105 107/107/107
f 125/125/125 107/107/107 126/126/126
f 127/127/127 48/48/48 92/92/92
f 92/92/92 48/48/48 47/47/47
f 92/92/92 47/47/47 52/52/52
f 52/52/52 47/47/47 70/70/70
f 52/52/52 70/70/70 18/18/18
f 18/18/18 70/70/70 21/21/21
f 18/18/18 21/21/21 19/19/19
f 19/19/19 21/21/21 23/23/23
f 19/19/19 23/23/23 128/128/128
f 128/128/128 23/23/23 129/129/129
f 30/30/30 130/130/130 31/31/31
f 31/31/31 130/130/130 131/131/131
f 31/31/31 131/131/131 89/89/89
f 89/89/89 131/131/131 53/53/53
f 89/89/89 53/53/53 87/87/87
f 87/87/87 53/53/53 55/55/55
f 87/87/87 55/55/55 132/132/132
f 132/132/132 55/55/55 92/92/92
f 132/132/132 92/92/92 133/133/133
f 133/133/133 92/92/92 91/91/91
f 93/93/93 57/57/57 94/94/94
f 94/94/94 57/57/57 58/58/58
f 94/94/94 58/58/58 51/51/51
f 51/51/51 58/58/58 59/59/59
f 51/51/51 59/59/59 38/38/38
f 38/38/38 59/59/59 61/61/61
f 38/38/38 61/61/61 33/33/33
f 33/33/33 61/61/61 95/95/95
f 33/33/33 95/95/95 34/34/34
f 34/34/34 95/95/95 96/96/96
f 110/110/110 134/134/134 108/108/108
f 108/108/108 134/134/134 121/121/121
f 108/108/108 121/121/121 135/135/135
f 135/135/135 121/121/121 119/119/119
f 135/135/135 119/119/119 136/136/136
f 136/136/136 119/119/119 117/117/117
f 136/136/136 117/117/117 137/137/137
f 137/137/137 117/117/117 138/138/138
f 137/137/137 138/138/138 126/126/126
f 126/126/126 138/138/138 113/113/113
f 126/126/126 113/113/113 125/125/125
f 125/125/125 113/113/113 111/111/111
f 125/125/125 111/111/111 124/124/124
f 124/124/124 111/111/111 109/109/109
f 124/124/124 109/109/109 123/123/123
f 123/123/123 109/109/109 108/108/108
f 123/123/123 108/108/108 122/122/122
f 122/122/122 108/108/108 135/135/135
f 122/122/122 135/135/135 11/11/11
f 11/11/11 135/135/135 136/136/136
f 11/11/11 136/136/136 8/8/8
f 8/8/8 136/136/136 139/139/139
f 8/8/8 139/139/139 9/9/9
f 9/9/9 139/139/139 140/140/140
f 9/9/9 140/140/140 141/141/141
f 141/141/141 140/140/140 142/142/142
f 141/141/141 142/142/142 143/143/143
f 143/143/143 142/142/142 106/106/106
f 143/143/143 106/106/106 144/144/144
f 144/144/144 106/106/106 104/104/104
f 144/144/144 104/104/104 145/145/145
f 145/145/145 104/104/104 102/102/102
f 145/145/145 102/102/102 146/146/146
f 146/146/146 102/102/102 100/100/100
f 146/146/146 100/100/100 147/147/147
f 147/147/147 100/100/100 7/7/7
f 147/147/147 7/7/7 148/148/148
f 148/148/148 7/7/7 9/9/9
f 148/148/148 9/9/9 149/149/149
f 149/149/149 9/9/9 141/141/141
f 97/97/97 150/150/150 96/96/96
f 96/96/96 150/150/150 151/151/151
f 96/96/96 151/151/151 34/34/34
f 34/34/34 151/151/151 152/152/152
f 34/34/34 152/152/152 32/32/32
f 32/32/32 152/152/152 153/153/153
f 32/32/32 153/153/153 35/35/35
f 35/35/35 153/153/153 154/154/154
f 35/35/35 154/154/154 155/155/155
f 155/155/155 154/154/154 156/156/156
f 155/155/155 156/156/156 150/150/150
f 150/150/150 156/156/156 157/157/157
f 150/150/150 157/157/157 151/151/151
f 151/151/151 157/157/157 158/158/158
f 151/151/151 158/158/158 152/152/152
f 152/152/152 158/158/158 159/159/159
f 152/152/152 159/159/159 153/153/153
f 153/153/153 159/159/159 160/160/160
f 153/153/153 160/160/160 154/154/154
f 154/154/154 160/160/160 161/161/161
f 154/154/154 161/161/161 156/156/156
f 156/156/156 161/161/161 162/162/162
f 156/156/156 162/162/162 157/157/157
f 157/157/157 162/162/162 163/163/163
f 157/157/157 163/163/163 158/158/158
f 158/158/158 163/163/163 164/164/164
f 158/158/158 164/164/164 159/159/159
f 159/159/159 164/164/164 165/165/165
f 159/159/159 165/165/165 160/160/160
f 160/160/160 165/165/165 166/166/166
f 160/160/160 166/166/166 161/161/161
f 161/161/161 166/166/166 167/167/167
f 161/161/161 167/167/167 162/162/162
f 162/162/162 167/167/167 168/168/168
f 162/162/162 168/168/168 163/163/163
f 163/163/163 168/168/168 16/16/16
f 163/163/163 16/16/16 164/164/164
f 164/164/164 16/16/16 15/15/15
f 164/164/164 15/15/15 165/165/165
f 165/165/165 15/15/15 57/57/57
f 165/165/165 57/57/57 166/166/166
f 166/166/166 57/57/57 169/169/169
f 166/166/166 169/169/169 167/167/167
f 167/167/167 169/169/169 60/60/60
g mesh01
