mtllib 1632-0.mtl
g mesh00
usemtl texture00
v 2.497375 -27.399313 20.426393
vt 0.538971 0.859039
vn 0.220472 -0.031496 0.976378
v 0.002530 -27.106874 20.748475
vt 0.356873 0.767792
vn 0.000000 0.149606 0.992126
v 0.003163 -29.485080 21.001488
vt 0.356873 0.859039
vn 0.000000 0.070866 1.000000
v 19.243325 -0.640667 -2.434154
vt 0.968811 0.505768
vn 0.795276 0.590551 -0.157480
v 16.472048 0.287940 6.681565
vt 0.822906 0.317078
vn 0.614173 0.566929 0.551181
v 18.847970 -2.447492 6.623401
vt 0.968811 0.317932
vn 0.724409 0.488189 0.488189
v 4.406463 -19.210113 19.074085
vt 0.532806 0.599579
vn 0.023622 0.259843 0.968504
v 10.417116 -20.479749 18.863969
vt 0.699768 0.752533
vn 0.314961 -0.031496 0.952756
v 13.276952 -14.255741 17.832289
vt 0.699768 0.599579
vn 0.299213 0.251969 0.921260
v 0.003163 -29.485080 21.001488
vt 0.356537 0.859039
vn 0.000000 0.070866 1.000000
v 0.002530 -27.106874 20.748475
vt 0.356537 0.767792
vn 0.000000 0.149606 0.992126
v -3.411435 -25.016608 20.267897
vt 0.174438 0.767792
vn -0.133858 0.070866 0.992126
v 0.001898 -11.390736 17.167767
vt 0.356873 0.348969
vn 0.000000 0.307087 0.952756
v 6.912061 -5.552748 14.415166
vt 0.491516 0.100189
vn 0.125984 0.330709 0.937008
v 0.003163 -5.798397 14.635462
vt 0.356873 0.100189
vn 0.000000 0.354331 0.937008
v 13.276952 -14.255741 17.832289
vt 0.584656 0.767792
vn 0.299213 0.251969 0.921260
v 18.282455 -8.049729 10.685414
vt 0.303894 0.859039
vn 0.622047 0.393701 0.677165
v 16.281013 -6.879972 11.475714
vt 0.303894 0.767792
vn 0.590551 0.409449 0.700787
v 19.884748 -4.293009 5.792386
vt 0.169708 0.859039
vn 0.803150 0.448819 0.393701
v 18.847970 -2.447492 6.623401
vt 0.169708 0.767792
vn 0.724409 0.488189 0.488189
v -4.656327 -19.199315 19.081356
vt 0.180603 0.599579
vn -0.023622 0.259843 0.968504
v -4.561442 -11.498713 16.480708
vt 0.268555 0.374603
vn -0.110236 0.283465 0.952756
v -9.124781 -11.608491 15.790013
vt 0.180603 0.400208
vn -0.055118 0.362205 0.929134
v -7.612945 -5.632831 14.385358
vt 0.220154 0.100189
vn -0.133858 0.338583 0.937008
v -10.351961 -20.756892 18.917770
vt 0.010040 0.767792
vn -0.330709 -0.039370 0.944882
v -9.938262 -23.824355 18.200175
vt 0.010040 0.859039
vn -0.448819 -0.212598 0.874016
v -3.411435 -25.016608 20.267897
vt 0.174438 0.767792
vn -0.133858 0.070866 0.992126
v -2.635907 -27.381317 20.443843
vt 0.174438 0.859039
vn -0.220472 -0.047244 0.976378
v 0.003163 -29.485080 21.001488
vt 0.356537 0.859039
vn 0.000000 0.070866 1.000000
v 4.317271 -11.496914 16.483616
vt 0.444855 0.374603
vn 0.118110 0.275591 0.952756
v 8.632011 -11.605791 15.795829
vt 0.532806 0.400208
vn 0.055118 0.362205 0.937008
v 13.238998 -4.923778 12.721873
vt 0.606476 0.120117
vn 0.354331 0.440945 0.826772
v 0.001898 -21.316576 19.657904
vt 0.356873 0.601166
vn 0.000000 0.244094 0.968504
v 0.002530 -27.106874 20.748475
vt 0.356873 0.752533
vn 0.000000 0.149606 0.992126
v 4.406463 -19.210113 19.074085
vt 0.532806 0.599579
vn 0.023622 0.259843 0.968504
v 3.248232 -24.800653 20.224274
vt 0.532806 0.752533
vn 0.133858 0.078740 0.992126
v 18.847970 -2.447492 6.623401
vt 0.010040 0.767792
vn 0.724409 0.488189 0.488189
v 19.884748 -4.293009 5.792386
vt 0.010040 0.859039
vn 0.803150 0.448819 0.393701
v 19.243325 -0.640667 -2.434154
vt 0.156128 0.767792
vn 0.795276 0.590551 -0.157480
v 20.727327 -2.957686 -2.483594
vt 0.156128 0.859039
vn 0.850394 0.503937 -0.181102
v 13.855118 0.065686 -9.967091
vt 0.411285 0.767792
vn 0.433071 0.637795 -0.637795
v 14.099921 -2.192845 -11.589134
vt 0.411285 0.859039
vn 0.480315 0.559055 -0.677165
v 0.000633 -0.255547 -13.222082
vt 0.654816 0.767792
vn 0.000000 0.645669 -0.771654
v 0.002530 -2.588763 -15.090593
vt 0.658813 0.859039
vn 0.000000 0.614173 -0.795276
v -13.838671 0.059388 -9.958367
vt 0.411285 0.767792
vn -0.433071 0.637795 -0.637795
v -14.094861 -2.213541 -11.591315
vt 0.411285 0.859039
vn -0.480315 0.566929 -0.669291
v -20.720369 -2.981081 -2.485775
vt 0.156128 0.859039
vn -0.842520 0.511811 -0.173228
v 3.248232 -24.800653 20.224274
vt 0.538971 0.767792
vn 0.133858 0.078740 0.992126
v 9.943955 -23.839652 18.195085
vt 0.707703 0.859039
vn 0.433071 -0.188976 0.881890
v 10.417116 -20.479749 18.863969
vt 0.707703 0.767792
vn 0.314961 -0.031496 0.952756
v 13.617273 -19.782394 16.870405
vt 0.658813 0.859039
vn 0.535433 -0.149606 0.834646
v 13.276952 -14.255741 17.832289
vt 0.584656 0.767792
vn 0.299213 0.251969 0.921260
v 16.052024 -14.795629 16.138269
vt 0.556549 0.859039
vn 0.535433 0.149606 0.834646
v 18.282455 -8.049729 10.685414
vt 0.303894 0.859039
vn 0.622047 0.393701 0.677165
v 0.000633 -2.128058 13.366764
vt 0.352783 0.011414
vn 0.000000 0.322835 0.944882
v -4.791063 -2.002084 13.182821
vt 0.279572 0.011414
vn -0.062992 0.354331 0.937008
v 0.003163 -5.798397 14.635462
vt 0.356537 0.100189
vn 0.000000 0.354331 0.937008
v -7.612945 -5.632831 14.385358
vt 0.220154 0.100189
vn -0.133858 0.338583 0.937008
v 0.001898 -11.390736 17.167767
vt 0.356537 0.348969
vn 0.000000 0.307087 0.952756
v -4.561442 -11.498713 16.480708
vt 0.268555 0.374603
vn -0.110236 0.283465 0.952756
v 0.001898 -21.316576 19.657904
vt 0.356537 0.601166
vn 0.000000 0.244094 0.968504
v -4.656327 -19.199315 19.081356
vt 0.180603 0.599579
vn -0.023622 0.259843 0.968504
v 0.002530 -27.106874 20.748475
vt 0.356537 0.752533
vn 0.000000 0.149606 0.992126
v -3.411435 -25.016608 20.267897
vt 0.180603 0.752533
vn -0.133858 0.070866 0.992126
v 0.000633 -2.128058 13.366764
vt 0.352997 0.011414
vn 0.000000 0.322835 0.944882
v 4.357755 -1.996686 13.182821
vt 0.426239 0.011414
vn 0.062992 0.362205 0.937008
v 9.475856 -1.388412 12.111881
vt 0.494904 0.011414
vn 0.251969 0.456693 0.850394
v 13.238998 -4.923778 12.721873
vt 0.606476 0.120117
vn 0.354331 0.440945 0.826772
v 16.472048 0.287940 6.681565
vt 0.552551 0.011414
vn 0.614173 0.566929 0.551181
v 18.847970 -2.447492 6.623401
vt 0.699768 0.011414
vn 0.724409 0.488189 0.488189
v 0.001898 -21.316576 19.657904
vt 0.356873 0.601166
vn 0.000000 0.244094 0.968504
v 16.281013 -6.879972 11.475714
vt 0.699768 0.174622
vn 0.590551 0.409449 0.700787
v 16.472048 0.287940 6.681565
vt 0.822906 0.317078
vn 0.614173 0.566929 0.551181
v 19.243325 -0.640667 -2.434154
vt 0.968811 0.505768
vn 0.795276 0.590551 -0.157480
v 17.451262 2.047975 -1.835067
vt 0.822906 0.505768
vn 0.724409 0.677165 -0.125984
v 13.855118 0.065686 -9.967091
vt 0.968811 0.679077
vn 0.433071 0.637795 -0.637795
v 11.448200 2.339514 -8.153835
vt 0.822906 0.679077
vn 0.385827 0.700787 -0.598425
v 0.000633 -0.255547 -13.222082
vt 0.968811 0.853363
vn 0.000000 0.645669 -0.771654
v -0.001265 2.490683 -11.080928
vt 0.822906 0.853363
vn 0.000000 0.669291 -0.748031
v -13.838671 0.059388 -9.958367
vt 0.968811 0.679077
vn -0.433071 0.637795 -0.637795
v -11.450730 2.324218 -8.154562
vt 0.822906 0.679077
vn -0.385827 0.700787 -0.598425
v -19.162356 -0.579480 -2.417432
vt 0.968811 0.505768
vn -0.787402 0.598425 -0.149606
v -17.453792 2.024580 -1.835794
vt 0.822906 0.505768
vn -0.732283 0.677165 -0.125984
v -18.758146 -2.400702 6.620493
vt 0.968811 0.317902
vn -0.724409 0.488189 0.488189
v -16.472681 0.265445 6.680837
vt 0.822906 0.317078
vn -0.614173 0.559055 0.551181
f 1/1/1 2/2/2 3/3/3
f 4/4/4 5/5/5 6/6/6
f 7/7/7 8/8/8 9/9/9
f 10/10/10 11/11/11 12/12/12
f 13/13/13 14/14/14 15/15/15
f 16/16/16 17/17/17 18/18/18
f 18/18/18 17/17/17 19/19/19
f 18/18/18 19/19/19 20/20/20
f 21/21/21 22/22/22 23/23/23
f 23/23/23 22/22/22 24/24/24
f 25/25/25 26/26/26 27/27/27
f 27/27/27 26/26/26 28/28/28
f 27/27/27 28/28/28 29/29/29
f 13/13/13 30/30/30 14/14/14
f 14/14/14 30/30/30 31/31/31
f 14/14/14 31/31/31 32/32/32
f 33/33/33 34/34/34 35/35/35
f 35/35/35 34/34/34 36/36/36
f 35/35/35 36/36/36 8/8/8
f 37/37/37 38/38/38 39/39/39
f 39/39/39 38/38/38 40/40/40
f 39/39/39 40/40/40 41/41/41
f 41/41/41 40/40/40 42/42/42
f 41/41/41 42/42/42 43/43/43
f 43/43/43 42/42/42 44/44/44
f 43/43/43 44/44/44 45/45/45
f 45/45/45 44/44/44 46/46/46
f 45/45/45 46/46/46 47/47/47
f 2/2/2 1/1/1 48/48/48
f 48/48/48 1/1/1 49/49/49
f 48/48/48 49/49/49 50/50/50
f 50/50/50 49/49/49 51/51/51
f 50/50/50 51/51/51 52/52/52
f 52/52/52 51/51/51 53/53/53
f 52/52/52 53/53/53 54/54/54
f 55/55/55 56/56/56 57/57/57
f 57/57/57 56/56/56 58/58/58
f 57/57/57 58/58/58 59/59/59
f 59/59/59 58/58/58 60/60/60
f 59/59/59 60/60/60 61/61/61
f 61/61/61 60/60/60 62/62/62
f 61/61/61 62/62/62 63/63/63
f 63/63/63 62/62/62 64/64/64
f 65/65/65 15/15/15 66/66/66
f 66/66/66 15/15/15 14/14/14
f 66/66/66 14/14/14 67/67/67
f 67/67/67 14/14/14 68/68/68
f 67/67/67 68/68/68 69/69/69
f 69/69/69 68/68/68 70/70/70
f 13/13/13 71/71/71 30/30/30
f 30/30/30 71/71/71 7/7/7
f 30/30/30 7/7/7 31/31/31
f 31/31/31 7/7/7 9/9/9
f 31/31/31 9/9/9 32/32/32
f 32/32/32 9/9/9 72/72/72
f 32/32/32 72/72/72 70/70/70
f 73/73/73 74/74/74 75/75/75
f 75/75/75 74/74/74 76/76/76
f 75/75/75 76/76/76 77/77/77
f 77/77/77 76/76/76 78/78/78
f 77/77/77 78/78/78 79/79/79
f 79/79/79 78/78/78 80/80/80
f 79/79/79 80/80/80 81/81/81
f 81/81/81 80/80/80 82/82/82
f 81/81/81 82/82/82 83/83/83
f 83/83/83 82/82/82 84/84/84
f 83/83/83 84/84/84 85/85/85
usemtl texture00
v -20.720369 -2.981081 -2.485775
vt 0.156128 0.859039
vn -0.842520 0.511811 -0.173228
v -19.162356 -0.579480 -2.417432
vt 0.156128 0.767792
vn -0.787402 0.598425 -0.149606
v -13.838671 0.059388 -9.958367
vt 0.411285 0.767792
vn -0.433071 0.637795 -0.637795
v -13.223183 -4.932776 12.721873
vt 0.130676 0.118652
vn -0.362205 0.448819 0.818898
v -9.474591 -1.401009 12.111154
vt 0.200226 0.011414
vn -0.267717 0.464567 0.850394
v -16.472681 0.265445 6.680837
vt 0.160126 0.011414
vn -0.614173 0.559055 0.551181
v -18.758146 -2.400702 6.620493
vt 0.013641 0.011414
vn -0.724409 0.488189 0.488189
v -16.130462 -6.809787 11.546965
vt 0.013641 0.172058
vn -0.590551 0.409449 0.692913
v -13.347799 -14.228747 17.811931
vt 0.013641 0.599579
vn -0.307087 0.259843 0.921260
v -9.938262 -23.824355 18.200175
vt 0.707703 0.859039
vn -0.448819 -0.212598 0.874016
v -10.351961 -20.756892 18.917770
vt 0.707703 0.767792
vn -0.330709 -0.039370 0.944882
v -13.494555 -20.073934 16.923480
vt 0.674805 0.859039
vn -0.543307 -0.157480 0.826772
v -13.347799 -14.228747 17.811931
vt 0.553864 0.767792
vn -0.307087 0.259843 0.921260
v -16.047596 -14.790230 16.123728
vt 0.553864 0.859039
vn -0.543307 0.149606 0.826772
v -16.130462 -6.809787 11.546965
vt 0.388763 0.767792
vn -0.590551 0.409449 0.692913
v -18.260948 -8.067726 10.681779
vt 0.388763 0.859039
vn -0.622047 0.401575 0.677165
v -18.758146 -2.400702 6.620493
vt 0.209473 0.767792
vn -0.724409 0.488189 0.488189
v -19.878422 -4.317304 5.788023
vt 0.209473 0.859039
vn -0.803150 0.456693 0.393701
v -19.162356 -0.579480 -2.417432
vt 0.006256 0.767792
vn -0.787402 0.598425 -0.149606
v -20.720369 -2.981081 -2.485775
vt 0.006256 0.859039
vn -0.842520 0.511811 -0.173228
v -4.791063 -2.002084 13.182821
vt 0.279572 0.011414
vn -0.062992 0.354331 0.937008
v -7.612945 -5.632831 14.385358
vt 0.220154 0.100189
vn -0.133858 0.338583 0.937008
v -9.124781 -11.608491 15.790013
vt 0.180603 0.400208
vn -0.055118 0.362205 0.929134
v -4.656327 -19.199315 19.081356
vt 0.180603 0.599579
vn -0.023622 0.259843 0.968504
v -10.351961 -20.756892 18.917770
vt 0.013641 0.752533
vn -0.330709 -0.039370 0.944882
v -3.411435 -25.016608 20.267897
vt 0.180603 0.752533
vn -0.133858 0.070866 0.992126
f 86/86/86 87/87/87 88/88/88
f 89/89/89 90/90/90 91/91/91
f 91/91/91 92/92/92 89/89/89
f 89/89/89 92/92/92 93/93/93
f 89/89/89 93/93/93 94/94/94
f 95/95/95 96/96/96 97/97/97
f 97/97/97 96/96/96 98/98/98
f 97/97/97 98/98/98 99/99/99
f 99/99/99 98/98/98 100/100/100
f 99/99/99 100/100/100 101/101/101
f 101/101/101 100/100/100 102/102/102
f 101/101/101 102/102/102 103/103/103
f 103/103/103 102/102/102 104/104/104
f 103/103/103 104/104/104 105/105/105
f 106/106/106 90/90/90 107/107/107
f 107/107/107 90/90/90 89/89/89
f 107/107/107 89/89/89 108/108/108
f 108/108/108 89/89/89 94/94/94
f 108/108/108 94/94/94 109/109/109
f 109/109/109 94/94/94 110/110/110
f 109/109/109 110/110/110 111/111/111
usemtl texture00
v 7.976039 4.308306 -16.828963
vt 0.843292 0.201172
vn 0.133858 0.598425 -0.795276
v 11.198969 7.594424 -11.544784
vt 0.826294 0.126282
vn 0.511811 0.559055 -0.661417
v 10.772618 -0.667661 -14.841943
vt 0.899597 0.126282
vn 0.779528 0.196850 -0.598425
v -18.301432 -0.961900 6.879321
vt 0.558807 0.993622
vn -0.748031 0.433071 0.503937
v -15.362525 3.595654 7.105433
vt 0.558807 0.871704
vn -0.748031 0.456693 0.480315
v -16.086815 5.289102 -1.446824
vt 0.861847 0.871704
vn -0.818898 0.582677 -0.015748
v -8.428325 1.236343 13.724472
vt 0.238403 0.871704
vn -0.338583 0.181102 0.929134
v 0.001898 -3.830505 14.614377
vt 0.024200 0.993622
vn 0.000000 0.070866 1.000000
v -0.000633 0.640667 14.292295
vt 0.024200 0.871704
vn 0.000000 0.070866 1.000000
v 8.425794 1.248041 13.725199
vt 0.238403 0.871704
vn 0.338583 0.181102 0.929134
v 3.492403 -3.591155 -19.060272
vt 0.886322 0.113098
vn -0.464567 0.433071 -0.771654
v 11.858736 -2.155053 -23.269875
vt 0.982635 0.016998
vn -0.110236 0.858268 -0.503937
v 5.737384 -9.823261 -23.816615
vt 0.997589 0.113098
vn -0.464567 0.425197 -0.779528
v -0.012651 1.567475 -13.949129
vt 0.752197 0.296814
vn 0.000000 0.519685 -0.858268
v 1.904660 2.247733 -12.917449
vt 0.792206 0.260376
vn 0.031496 0.370079 -0.929134
v 1.461230 1.408208 -13.003968
vt 0.792206 0.294647
vn 0.480315 0.771654 -0.417323
v -0.033526 3.519170 -13.118841
vt 0.752197 0.259155
vn 0.000000 0.622047 -0.787402
v 1.368243 5.288202 -10.931156
vt 0.792206 0.219757
vn -0.078740 0.645669 -0.763780
v 1.904660 2.247733 -12.917449
vt 0.792206 0.260681
vn 0.031496 0.370079 -0.929134
v -0.012651 1.567475 -13.949129
vt 0.794617 0.113098
vn 0.000000 0.519685 -0.858268
v 1.461230 1.408208 -13.003968
vt 0.794708 0.063690
vn 0.480315 0.771654 -0.417323
v 7.965285 -1.036585 -15.363963
vt 0.809509 0.012024
vn 0.370079 0.929134 0.047244
v -1.484635 1.377614 -13.006149
vt 0.712158 0.294647
vn -0.496063 0.763780 -0.417323
v -1.945777 2.207242 -12.919630
vt 0.712158 0.260040
vn -0.023622 0.346457 -0.944882
v -7.948839 -1.203050 -15.374142
vt 0.809692 0.011627
vn -0.385827 0.921260 0.047244
v -1.484635 1.377614 -13.006149
vt 0.794891 0.063293
vn -0.496063 0.763780 -0.417323
v -11.808131 -2.402501 -23.284416
vt 0.982819 0.016602
vn 0.094488 0.858268 -0.503937
v 5.479297 7.767188 -12.670980
vt 0.783112 0.126282
vn -0.362205 0.582677 -0.732283
v 1.904660 2.247733 -12.917449
vt 0.716339 0.201172
vn 0.031496 0.370079 -0.929134
v 1.368243 5.288202 -10.931156
vt 0.715790 0.126282
vn -0.078740 0.645669 -0.763780
v -1.945777 2.207242 -12.919630
vt 0.712158 0.260345
vn -0.023622 0.346457 -0.944882
v -1.475147 5.258509 -10.933337
vt 0.712158 0.219421
vn 0.086614 0.645669 -0.763780
v -0.050605 5.013759 -11.076565
vt 0.752197 0.218781
vn -0.007874 0.811024 -0.590551
v -3.419025 -3.664040 -19.064634
vt 0.886505 0.113098
vn 0.456693 0.440945 -0.771654
v -5.526739 -9.941137 -23.823885
vt 0.997772 0.113098
vn 0.456693 0.433071 -0.779528
v -10.763762 -0.880917 -14.854303
vt 0.899597 0.126282
vn -0.779528 0.181102 -0.598425
v -11.339398 7.357773 -11.558598
vt 0.826294 0.126282
vn -0.511811 0.551181 -0.661417
v -8.053845 4.140941 -16.839142
vt 0.843292 0.201172
vn -0.141732 0.566929 -0.811024
v -4.949838 7.657411 -12.677523
vt 0.783112 0.126282
vn 0.385827 0.559055 -0.740157
v -1.945777 2.207242 -12.919630
vt 0.716278 0.201172
vn -0.023622 0.346457 -0.944882
v -1.475147 5.258509 -10.933337
vt 0.715790 0.126282
vn 0.086614 0.645669 -0.763780
v -8.053845 4.140941 -16.839142
vt 0.843292 0.201172
vn 0.881890 -0.472441 0.000000
v -8.310034 3.718928 -12.947258
vt 0.896088 0.181671
vn 0.740157 -0.062992 -0.669291
v -10.763762 -0.880917 -14.854303
vt 0.899597 0.126282
vn 0.740157 -0.062992 -0.669291
v -3.246967 3.772917 -11.886496
vt 0.988403 0.181671
vn 0.118110 0.385827 -0.921260
v -1.484635 1.377614 -13.006149
vt 0.996399 0.126282
vn 0.118110 0.385827 -0.921260
v 7.976039 4.308306 -16.828963
vt 0.843292 0.201172
vn -0.874016 -0.488189 0.000000
v 10.772618 -0.667661 -14.841943
vt 0.899597 0.126282
vn -0.740157 -0.078740 -0.669291
v 8.236657 3.891692 -12.937079
vt 0.896088 0.181671
vn -0.740157 -0.078740 -0.669291
v 1.461230 1.408208 -13.003968
vt 0.997345 0.126282
vn -0.125984 0.377953 -0.921260
v 2.918032 3.826906 -11.887950
vt 0.994659 0.181671
vn -0.125984 0.377953 -0.921260
v 0.000000 1.347020 -12.926901
vt 0.238403 0.993622
vn 0.000000 0.464567 -0.889764
v -12.733576 1.365017 -10.485476
vt 0.629303 0.993622
vn -0.464567 0.488189 -0.740157
v -11.228699 5.562645 -8.641684
vt 0.629303 0.871704
vn -0.456693 0.519685 -0.724409
v -16.086815 5.289102 -1.446824
vt 0.558807 0.871704
vn -0.818898 0.582677 -0.015748
v -11.228699 5.562645 -8.641684
vt 0.861847 0.871704
vn -0.456693 0.519685 -0.724409
v -19.460295 0.711752 -1.947760
vt 0.558807 0.993622
vn -0.779528 0.566929 -0.267717
v -12.733576 1.365017 -10.485476
vt 0.861847 0.993622
vn -0.464567 0.488189 -0.740157
v -0.188505 5.068648 -10.878081
vt 0.238403 0.871704
vn 0.000000 0.480315 -0.881890
v 11.221741 5.577942 -8.640957
vt 0.629303 0.871704
vn 0.456693 0.527559 -0.724409
v 12.732311 1.381213 -10.484749
vt 0.629303 0.993622
vn 0.464567 0.488189 -0.740157
v 18.302065 -0.937605 6.880048
vt 0.558807 0.993622
vn 0.748031 0.433071 0.503937
v 19.459030 0.737847 -1.947033
vt 0.861847 0.993622
vn 0.779528 0.566929 -0.267717
v 16.079857 5.310698 -1.446097
vt 0.861847 0.871704
vn 0.818898 0.582677 -0.015748
v -19.460295 0.711752 -1.947760
vt 0.861847 0.993622
vn -0.779528 0.566929 -0.267717
v -9.506219 -3.267222 14.024742
vt 0.238403 0.993622
vn -0.338583 0.141732 0.937008
v 15.356832 3.615450 7.106160
vt 0.558807 0.871704
vn 0.748031 0.456693 0.480315
v 9.509382 -3.254624 14.025469
vt 0.238403 0.993622
vn 0.338583 0.141732 0.937008
v 16.079857 5.310698 -1.446097
vt 0.558807 0.871704
vn 0.818898 0.582677 -0.015748
v 19.459030 0.737847 -1.947033
vt 0.558807 0.993622
vn 0.779528 0.566929 -0.267717
v 11.221741 5.577942 -8.640957
vt 0.861847 0.871704
vn 0.456693 0.527559 -0.724409
v 12.732311 1.381213 -10.484749
vt 0.861847 0.993622
vn 0.464567 0.488189 -0.740157
f 112/112/112 113/113/113 114/114/114
f 115/115/115 116/116/116 117/117/117
f 118/118/118 119/119/119 120/120/120
f 120/120/120 119/119/119 121/121/121
f 122/122/122 123/123/123 124/124/124
f 125/125/125 126/126/126 127/127/127
f 128/128/128 129/129/129 130/130/130
f 122/122/122 131/131/131 123/123/123
f 123/123/123 131/131/131 132/132/132
f 123/123/123 132/132/132 133/133/133
f 134/134/134 135/135/135 125/125/125
f 125/125/125 135/135/135 128/128/128
f 125/125/125 128/128/128 126/126/126
f 136/136/136 137/137/137 138/138/138
f 113/113/113 112/112/112 139/139/139
f 139/139/139 112/112/112 140/140/140
f 139/139/139 140/140/140 141/141/141
f 142/142/142 143/143/143 128/128/128
f 128/128/128 143/143/143 144/144/144
f 128/128/128 144/144/144 129/129/129
f 137/137/137 131/131/131 138/138/138
f 138/138/138 131/131/131 145/145/145
f 138/138/138 145/145/145 146/146/146
f 147/147/147 148/148/148 149/149/149
f 149/149/149 148/148/148 150/150/150
f 149/149/149 150/150/150 151/151/151
f 151/151/151 150/150/150 152/152/152
f 153/153/153 154/154/154 155/155/155
f 155/155/155 154/154/154 156/156/156
f 155/155/155 156/156/156 157/157/157
f 158/158/158 159/159/159 160/160/160
f 160/160/160 159/159/159 161/161/161
f 160/160/160 161/161/161 162/162/162
f 163/163/163 164/164/164 165/165/165
f 166/166/166 167/167/167 168/168/168
f 168/168/168 167/167/167 169/169/169
f 165/165/165 170/170/170 163/163/163
f 163/163/163 170/170/170 171/171/171
f 163/163/163 171/171/171 172/172/172
f 173/173/173 174/174/174 175/175/175
f 117/117/117 176/176/176 115/115/115
f 116/116/116 115/115/115 118/118/118
f 118/118/118 115/115/115 177/177/177
f 118/118/118 177/177/177 119/119/119
f 175/175/175 178/178/178 173/173/173
f 173/173/173 178/178/178 121/121/121
f 173/173/173 121/121/121 179/179/179
f 179/179/179 121/121/121 119/119/119
f 180/180/180 181/181/181 182/182/182
f 182/182/182 181/181/181 183/183/183
