mtllib 3469-0.mtl
g mesh00
usemtl texture00
v 3.167668 -0.674414 -31.969726
vt 0.644501 0.816376
vn 1.000000 0.007874 -0.007874
v 0.000000 -6.336807 8.194376
vt 0.989563 0.773773
vn 0.000000 -0.795276 -0.606299
v 0.000000 -4.617946 -30.162633
vt 0.644501 0.773773
vn 0.000000 -1.000000 -0.023622
v 6.797220 -0.074603 -94.801605
vt 0.433594 0.009979
vn 0.850394 0.007874 -0.527559
v 0.000000 0.000000 -105.677474
vt 0.644501 0.009979
vn -0.070866 0.023622 -1.000000
v 0.000000 6.115981 -94.809932
vt 0.566376 0.144501
vn -0.031496 0.874016 -0.488189
v 0.000000 -6.565093 -94.809932
vt 0.511719 0.089844
vn -0.031496 -0.858268 -0.519685
v -5.843375 -0.056699 -94.801605
vt 0.644501 0.222626
vn -0.881890 0.007874 -0.472441
v 0.000000 3.986802 -89.605171
vt 0.886719 0.480591
vn -0.031496 0.952756 0.307087
v 3.990467 -0.002984 -89.605171
vt 0.886719 0.574554
vn 0.952756 0.000000 0.307087
v 11.506293 -0.214858 -100.389437
vt 0.989990 0.574554
vn 0.842520 0.015748 0.543307
v 6.076465 -0.766922 -34.476339
vt 0.635010 0.009979
vn 0.818898 -0.062992 -0.574803
v 0.000000 -6.814269 -33.751836
vt 0.635010 0.121124
vn 0.000000 -0.661417 -0.755906
v 0.000000 5.278932 -35.192514
vt 0.519501 0.009979
vn 0.000000 0.488189 -0.874016
v -6.076465 -0.766922 -34.476339
vt 0.635010 0.009979
vn -0.818898 -0.062992 -0.574803
v -6.091504 -0.481938 -31.111981
vt 0.635010 0.009979
vn -0.818898 0.062992 0.574803
v 0.000000 -6.544204 -30.387479
vt 0.635010 0.121124
vn 0.000000 -0.488189 0.874016
v 0.000000 5.577345 -31.828156
vt 0.519501 0.009979
vn 0.000000 0.661417 0.748031
v 6.091504 -0.481938 -31.111981
vt 0.635010 0.009979
vn 0.818898 0.062992 0.574803
v 0.022557 -9.432846 -99.923090
vt 0.989990 0.128174
vn -0.330709 -0.842520 0.425197
v 11.506293 -0.214858 -100.389437
vt 0.989990 0.245636
vn 0.842520 0.015748 0.543307
v 0.000000 -3.994262 -89.605171
vt 0.886719 0.128174
vn 0.149606 -0.937008 0.322835
v 3.990467 -0.002984 -89.605171
vt 0.886719 0.245636
vn 0.952756 0.000000 0.307087
v 0.000000 3.084102 -34.559615
vt 0.644501 0.878876
vn 0.000000 1.000000 0.000000
v 3.990467 -0.002984 -89.605171
vt 0.989563 0.816376
vn 0.952756 0.000000 0.307087
v 0.000000 -3.994262 -89.605171
vt 0.989563 0.773773
vn 0.149606 -0.937008 0.322835
v 0.000000 5.577345 -31.828156
vt 0.574219 0.957001
vn 0.000000 0.661417 0.748031
v 0.000000 5.278932 -35.192514
vt 0.574219 0.989990
vn 0.000000 0.488189 -0.874016
v -6.091504 -0.481938 -31.111981
vt 0.496094 0.957001
vn -0.818898 0.062992 0.574803
v -6.076465 -0.766922 -34.476339
vt 0.496094 0.989990
vn -0.818898 -0.062992 -0.574803
v 0.000000 -6.544204 -30.387479
vt 0.410126 0.957001
vn 0.000000 -0.488189 0.874016
v 0.000000 -6.814269 -33.751836
vt 0.410126 0.989990
vn 0.000000 -0.661417 -0.755906
v 0.000000 -6.544204 -30.387479
vt 0.574219 0.957001
vn 0.000000 -0.488189 0.874016
v 0.000000 -6.814269 -33.751836
vt 0.574219 0.989990
vn 0.000000 -0.661417 -0.755906
v 6.091504 -0.481938 -31.111981
vt 0.496094 0.957001
vn 0.818898 0.062992 0.574803
v 6.076465 -0.766922 -34.476339
vt 0.496094 0.989990
vn 0.818898 -0.062992 -0.574803
v 0.000000 5.577345 -31.828156
vt 0.410126 0.957001
vn 0.000000 0.661417 0.748031
v 0.000000 5.278932 -35.192514
vt 0.410126 0.989990
vn 0.000000 0.488189 -0.874016
v -0.027928 9.449258 -102.987653
vt 0.989990 0.480591
vn -0.070866 0.929134 0.377953
v -9.960591 0.000000 -104.395021
vt 0.989990 0.363129
vn -0.881890 0.307087 0.354331
v -3.990467 -0.002984 -89.605171
vt 0.886719 0.363129
vn -0.960630 -0.157480 0.244094
v 0.022557 -9.432846 -99.923090
vt 0.989990 0.245636
vn -0.330709 -0.842520 0.425197
v 0.000000 -3.994262 -89.605171
vt 0.886719 0.245636
vn 0.149606 -0.937008 0.322835
v 0.000000 3.986802 -89.605171
vt 0.989563 0.878876
vn -0.031496 0.952756 0.307087
v -3.990467 -0.002984 -89.605171
vt 0.989563 0.941376
vn -0.960630 -0.157480 0.244094
v -3.167668 -0.674414 -31.969726
vt 0.644501 0.941376
vn -1.000000 0.007874 -0.007874
v 0.000000 -3.994262 -89.605171
vt 0.989563 0.989990
vn 0.149606 -0.937008 0.322835
v 0.000000 -4.617946 -30.162633
vt 0.644501 0.989990
vn 0.000000 -1.000000 -0.023622
v 4.901346 -0.735589 9.177035
vt 0.989563 0.816376
vn 0.858268 0.055118 -0.511811
v 0.000000 4.207628 9.976487
vt 0.989563 0.878876
vn 0.000000 0.811024 -0.590551
v -4.901346 -0.735589 9.177035
vt 0.989563 0.941376
vn -0.858268 0.055118 -0.511811
v 0.000000 -6.336807 8.194376
vt 0.989563 0.989990
vn 0.000000 -0.795276 -0.606299
f 1/1/1 2/2/2 3/3/3
f 4/4/4 5/5/5 6/6/6
f 4/4/4 7/7/7 5/5/5
f 5/5/5 7/7/7 8/8/8
f 5/5/5 8/8/8 6/6/6
f 9/9/9 10/10/10 11/11/11
f 12/12/12 13/13/13 14/14/14
f 14/14/14 13/13/13 15/15/15
f 16/16/16 17/17/17 18/18/18
f 18/18/18 17/17/17 19/19/19
f 20/20/20 21/21/21 22/22/22
f 22/22/22 21/21/21 23/23/23
f 24/24/24 1/1/1 25/25/25
f 25/25/25 1/1/1 3/3/3
f 25/25/25 3/3/3 26/26/26
f 27/27/27 28/28/28 29/29/29
f 29/29/29 28/28/28 30/30/30
f 29/29/29 30/30/30 31/31/31
f 31/31/31 30/30/30 32/32/32
f 33/33/33 34/34/34 35/35/35
f 35/35/35 34/34/34 36/36/36
f 35/35/35 36/36/36 37/37/37
f 37/37/37 36/36/36 38/38/38
f 11/11/11 39/39/39 9/9/9
f 9/9/9 39/39/39 40/40/40
f 9/9/9 40/40/40 41/41/41
f 41/41/41 40/40/40 42/42/42
f 41/41/41 42/42/42 43/43/43
f 25/25/25 44/44/44 24/24/24
f 24/24/24 44/44/44 45/45/45
f 24/24/24 45/45/45 46/46/46
f 46/46/46 45/45/45 47/47/47
f 46/46/46 47/47/47 48/48/48
f 2/2/2 1/1/1 49/49/49
f 49/49/49 1/1/1 24/24/24
f 49/49/49 24/24/24 50/50/50
f 50/50/50 24/24/24 46/46/46
f 50/50/50 46/46/46 51/51/51
f 51/51/51 46/46/46 48/48/48
f 51/51/51 48/48/48 52/52/52
usemtl texture00
v 10.353730 -3.409372 131.293227
vt 0.133728 0.503876
vn 0.944882 -0.330709 0.062992
v 4.532912 -7.764715 142.718719
vt 0.042969 0.425751
vn 0.874016 -0.425197 0.251969
v 6.099023 -13.176441 133.191924
vt 0.035126 0.480469
vn 0.574803 -0.811024 0.133858
v 0.000000 -13.724029 33.610267
vt 0.637299 0.187134
vn 0.000000 -0.653543 -0.755906
v 13.401093 9.693957 33.610267
vt 0.589844 0.009979
vn 0.755906 0.433071 -0.496063
v 13.401093 -5.917536 33.610267
vt 0.637299 0.056763
vn 0.755906 -0.433071 -0.496063
v 0.000000 -13.724029 44.269618
vt 0.637299 0.187134
vn 0.000000 -0.653543 0.755906
v -13.401093 9.693957 44.269618
vt 0.589844 0.009979
vn -0.755906 0.433071 0.496063
v -13.401093 -5.917536 44.269618
vt 0.637299 0.056763
vn -0.755906 -0.433071 0.496063
v 13.401093 9.693957 44.269618
vt 0.722626 0.644501
vn 0.755906 0.433071 0.496063
v 0.000000 17.498958 33.610267
vt 0.589844 0.757446
vn 0.000000 0.653543 -0.755906
v 0.000000 17.498958 44.269618
vt 0.589844 0.644501
vn 0.000000 0.653543 0.755906
v -13.401093 -5.917536 44.269618
vt 0.722626 0.644501
vn -0.755906 -0.433071 0.496063
v 0.000000 -13.724029 33.610267
vt 0.589844 0.757446
vn 0.000000 -0.653543 -0.755906
v 0.000000 -13.724029 44.269618
vt 0.589844 0.644501
vn 0.000000 -0.653543 0.755906
v 5.882044 -0.258128 144.734003
vt 0.183594 0.410126
vn 0.952756 -0.244094 0.204724
v -8.600718 -0.001492 37.032918
vt 0.832001 0.031921
vn -0.992126 -0.062992 0.141732
v -12.513845 -6.397982 19.220143
vt 0.741302 0.031921
vn -0.858268 -0.472441 -0.212598
v 0.000000 -11.647072 36.899676
vt 0.832001 0.072693
vn 0.000000 -0.984252 0.188976
v -8.600718 -0.001492 37.032918
vt 0.823212 0.456940
vn -0.992126 -0.062992 0.141732
v -12.513845 6.523315 20.302733
vt 0.741302 0.378876
vn -0.842520 0.488189 -0.251969
v -12.513845 -6.397982 19.220143
vt 0.741302 0.458160
vn -0.858268 -0.472441 -0.212598
v 0.000000 17.249783 22.143137
vt 0.741302 0.308594
vn 0.000000 0.929134 -0.377953
v 0.000000 4.207628 9.976487
vt 0.660126 0.378876
vn 0.000000 0.811024 -0.590551
v -4.901346 -0.735589 9.177035
vt 0.660126 0.441376
vn -0.858268 0.055118 -0.511811
v 0.000000 -16.075526 18.937004
vt 0.741302 0.072693
vn 0.000000 -0.968504 -0.259843
v -12.513845 -6.397982 19.220143
vt 0.741302 0.034454
vn -0.858268 -0.472441 -0.212598
v 0.000000 15.295175 37.032918
vt 0.832001 0.308594
vn 0.000000 0.992126 0.157480
v 8.600718 -0.001492 37.032918
vt 0.832001 0.199219
vn 0.992126 -0.062992 0.141732
v 12.513845 6.523315 20.302733
vt 0.741302 0.238251
vn 0.842520 0.488189 -0.251969
v 12.513845 -6.397982 19.220143
vt 0.741302 0.160126
vn 0.858268 -0.472441 -0.212598
v 4.901346 -0.735589 9.177035
vt 0.660126 0.158722
vn 0.858268 0.055118 -0.511811
v 0.000000 -6.336807 8.194376
vt 0.660126 0.082001
vn 0.000000 -0.795276 -0.606299
v 0.000000 10.883134 105.727440
vt 0.292969 0.683594
vn 0.000000 0.992126 0.125984
v 10.409586 7.366333 72.966590
vt 0.238251 0.847626
vn 0.763780 0.645669 0.039370
v 0.000000 11.453104 73.333005
vt 0.285126 0.855469
vn 0.000000 1.000000 0.055118
v -10.409586 7.364841 72.966590
vt 0.238251 0.847626
vn -0.763780 0.645669 0.039370
v -8.632942 4.388168 127.537472
vt 0.222626 0.527344
vn -0.732283 0.685039 -0.047244
v 0.000000 8.339161 113.871850
vt 0.285126 0.621094
vn 0.000000 1.000000 0.070866
v 0.000000 9.747672 131.684625
vt 0.269501 0.519501
vn 0.000000 0.992126 -0.165354
v 8.632942 4.388168 127.537472
vt 0.222626 0.527344
vn 0.732283 0.685039 -0.047244
v 10.277465 6.001092 141.852647
vt 0.230469 0.464844
vn 0.913386 0.401575 0.102362
v -9.306434 7.767699 43.894875
vt 0.832001 0.113251
vn -0.866142 0.346457 -0.362205
v -9.143163 -3.730167 43.486822
vt 0.832001 0.042969
vn -0.937008 0.000000 -0.362205
v -13.682520 3.472039 55.003918
vt 0.910126 0.042969
vn -0.858268 0.251969 -0.456693
v 0.000000 -12.512471 43.894875
vt 0.824219 0.496094
vn 0.055118 -0.944882 -0.330709
v -13.459097 -5.507218 54.820710
vt 0.902344 0.615082
vn -0.826772 -0.338583 -0.440945
v -9.771541 -5.751917 43.894875
vt 0.824219 0.558594
vn -0.889764 -0.236220 -0.401575
v -7.607129 3.586928 43.811599
vt 0.824219 0.615082
vn -0.929134 0.212598 -0.314961
v 0.000000 1.142923 244.573817
vt 0.571075 0.167969
vn 0.000000 0.992126 0.125984
v 0.000000 6.351728 173.039577
vt 0.571075 0.722626
vn 0.000000 1.000000 0.023622
v -5.747776 2.053084 176.703729
vt 0.527344 0.694244
vn -0.826772 0.566929 0.062992
v 6.210734 6.851570 150.596646
vt 0.527344 0.886719
vn 0.708661 0.637795 0.299213
v 0.000000 10.769737 147.890170
vt 0.558594 0.917969
vn 0.000000 0.984252 0.181102
v 0.000000 11.569485 151.754185
vt 0.571075 0.886719
vn 0.000000 0.968504 0.267717
v 0.000000 -14.537206 89.621826
vt 0.009979 0.750000
vn 0.000000 -1.000000 0.000000
v 0.000000 -13.536029 115.995393
vt 0.009979 0.589844
vn 0.000000 -0.968504 -0.244094
v 0.000000 -16.918544 127.129418
vt 0.009979 0.503876
vn 0.000000 -0.944882 0.330709
v -8.600718 -0.001492 37.032918
vt 0.144501 0.989990
vn -0.992126 -0.062992 0.141732
v 0.000000 -11.647072 36.899676
vt 0.009979 0.989990
vn 0.000000 -0.984252 0.188976
v -10.353730 -3.409372 131.293227
vt 0.133728 0.503876
vn -0.944882 -0.330709 0.062992
v -4.532912 -7.764715 142.718719
vt 0.394501 0.902039
vn -0.874016 -0.425197 0.251969
v -6.099023 -13.176441 133.191924
vt 0.371094 0.988251
vn -0.574803 -0.811024 0.133858
v 0.000000 -15.107175 136.822766
vt 0.324219 0.957001
vn 0.000000 -1.000000 0.070866
v 0.000000 -12.803424 130.968450
vt 0.324219 0.989990
vn 0.000000 -0.984252 0.204724
v 0.000000 -4.495597 272.871063
vt 0.392944 0.009979
vn 0.000000 -0.889764 0.456693
v -4.145144 -3.995755 228.334961
vt 0.468750 0.366333
vn -0.992126 -0.125984 0.047244
v -5.882044 -0.258128 144.734003
vt 0.472626 0.886719
vn -0.952756 -0.244094 0.204724
v 0.000000 15.520478 43.894875
vt 0.832001 0.175751
vn 0.078740 0.960630 -0.275591
v -11.427880 15.829335 60.891544
vt 0.989990 0.113251
vn -0.629921 0.669291 -0.409449
v -18.734247 9.116527 62.823551
vt 0.989990 0.042969
vn -0.582677 0.433071 -0.692913
v -17.865260 -8.739035 64.222591
vt 0.988251 0.615082
vn -0.692913 -0.519685 -0.503937
v -12.238863 -15.457811 63.389829
vt 0.988251 0.558594
vn -0.535433 -0.740157 -0.409449
v -0.029002 -18.234547 64.672282
vt 0.988251 0.496094
vn 0.173228 -0.952756 -0.259843
v 0.000000 -12.512471 43.894875
vt 0.832001 0.386719
vn 0.055118 -0.944882 -0.330709
v 14.973648 -7.636397 60.758302
vt 0.989990 0.324219
vn 0.732283 -0.614173 -0.299213
v -0.029002 -18.234547 64.672282
vt 0.989990 0.386719
vn 0.173228 -0.952756 -0.259843
v 0.000000 17.498958 33.610267
vt 0.458221 0.009979
vn 0.000000 0.653543 -0.755906
v -13.401093 -5.917536 33.610267
vt 0.637299 0.056763
vn -0.755906 -0.433071 -0.496063
v -13.401093 9.693957 33.610267
vt 0.589844 0.009979
vn -0.755906 0.433071 -0.496063
v 0.000000 17.498958 44.269618
vt 0.458221 0.009979
vn 0.000000 0.653543 0.755906
v 13.401093 -5.917536 44.269618
vt 0.637299 0.056763
vn 0.755906 -0.433071 0.496063
v 13.401093 9.693957 44.269618
vt 0.589844 0.009979
vn 0.755906 0.433071 0.496063
v 12.946728 1.806893 36.833055
vt 0.433594 0.009979
vn 0.102362 0.897638 -0.433071
v 12.946728 3.912199 41.163416
vt 0.496094 0.074219
vn 0.196850 0.834646 0.519685
v 25.299450 1.806893 39.722738
vt 0.644501 0.009979
vn 0.937008 0.000000 0.362205
v 12.946728 -0.296921 41.163416
vt 0.582001 0.160126
vn 0.196850 -0.834646 0.519685
v 12.946728 1.806893 36.833055
vt 0.644501 0.222626
vn 0.102362 -0.897638 -0.433071
v 6.472827 -9.502973 36.833055
vt 0.433594 0.009979
vn 0.826772 0.354331 -0.433071
v 8.280621 -8.451066 41.163416
vt 0.496094 0.074219
vn 0.818898 0.236220 0.519685
v 12.649188 -20.296583 39.722738
vt 0.644501 0.009979
vn 0.464567 -0.803150 0.377953
v 4.666107 -10.556372 41.163416
vt 0.582001 0.160126
vn -0.622047 -0.590551 0.519685
v 6.472827 -9.502973 36.833055
vt 0.644501 0.222626
vn -0.732283 -0.535433 -0.433071
v -6.472827 -9.502973 36.833055
vt 0.644501 0.222626
vn 0.732283 -0.535433 -0.433071
v -4.666107 -10.556372 41.163416
vt 0.582001 0.160126
vn 0.622047 -0.590551 0.519685
v -12.649188 -20.296583 39.722738
vt 0.644501 0.009979
vn -0.464567 -0.803150 0.377953
v -8.280621 -8.451066 41.163416
vt 0.496094 0.074219
vn -0.818898 0.236220 0.519685
v -6.472827 -9.502973 36.833055
vt 0.433594 0.009979
vn -0.826772 0.354331 -0.433071
v -12.946728 1.806893 36.833055
vt 0.644501 0.222626
vn -0.102362 -0.897638 -0.433071
v -12.946728 -0.296921 41.163416
vt 0.582001 0.160126
vn -0.196850 -0.834646 0.519685
v -25.299450 1.806893 39.722738
vt 0.644501 0.009979
vn -0.937008 0.000000 0.362205
v -12.946728 3.912199 41.163416
vt 0.496094 0.074219
vn -0.196850 0.834646 0.519685
v -12.946728 1.806893 36.833055
vt 0.433594 0.009979
vn -0.102362 0.897638 -0.433071
v -6.472827 13.119742 36.833055
vt 0.644501 0.222626
vn -0.826772 -0.354331 -0.433071
v -8.280621 12.066343 41.163416
vt 0.582001 0.160126
vn -0.818898 -0.236220 0.519685
v -12.649188 23.913353 39.722738
vt 0.644501 0.009979
vn -0.464567 0.803150 0.377953
v -4.666107 14.171649 41.163416
vt 0.496094 0.074219
vn 0.622047 0.590551 0.519685
v -6.472827 13.119742 36.833055
vt 0.433594 0.009979
vn 0.732283 0.535433 -0.433071
v 6.472827 13.119742 36.833055
vt 0.433594 0.009979
vn -0.732283 0.535433 -0.433071
v 4.666107 14.171649 41.163416
vt 0.496094 0.074219
vn -0.622047 0.590551 0.519685
v 12.649188 23.913353 39.722738
vt 0.644501 0.009979
vn 0.464567 0.803150 0.377953
v 8.280621 12.066343 41.163416
vt 0.582001 0.160126
vn 0.818898 -0.236220 0.519685
v 6.472827 13.119742 36.833055
vt 0.644501 0.222626
vn 0.826772 -0.354331 -0.433071
v 6.210734 6.851570 150.596646
vt 0.238251 0.402344
vn 0.708661 0.637795 0.299213
v 0.000000 13.060060 143.909569
vt 0.285126 0.417969
vn 0.000000 0.984252 0.173228
v -10.277465 6.001092 141.852647
vt 0.230469 0.464844
vn -0.913386 0.401575 0.102362
v 0.000000 15.295175 37.032918
vt 0.300751 0.989990
vn 0.000000 0.992126 0.157480
v 9.018562 -6.630744 43.894875
vt 0.832001 0.324219
vn 0.818898 -0.472441 -0.330709
v 9.018562 8.646526 43.894875
vt 0.832001 0.246094
vn 0.842520 0.401575 -0.362205
v 14.973648 9.652179 58.101792
vt 0.989990 0.246094
vn 0.740157 0.606299 -0.291339
v 0.000000 18.298706 64.205936
vt 0.989990 0.175751
vn 0.149606 0.984252 -0.133858
v -6.099023 -13.176441 133.191924
vt 0.035126 0.480469
vn -0.574803 -0.811024 0.133858
v -4.532912 -7.764715 142.718719
vt 0.042969 0.425751
vn -0.874016 -0.425197 0.251969
v -5.882044 -0.258128 144.734003
vt 0.183594 0.410126
vn -0.952756 -0.244094 0.204724
v -6.210734 6.851570 150.596646
vt 0.238251 0.402344
vn -0.708661 0.637795 0.299213
v 0.000000 10.769737 147.890170
vt 0.285126 0.386719
vn 0.000000 0.984252 0.181102
v 0.000000 4.207628 9.976487
vt 0.660126 0.285034
vn 0.000000 0.811024 -0.590551
v -8.600718 -0.001492 37.032918
vt 0.832001 0.433594
vn -0.992126 -0.062992 0.141732
v 0.000000 -11.647072 36.899676
vt 0.832001 0.082001
vn 0.000000 -0.984252 0.188976
v 0.000000 -16.075526 18.937004
vt 0.741302 0.082001
vn 0.000000 -0.968504 -0.259843
v -4.901346 -0.735589 9.177035
vt 0.660126 0.039337
vn -0.858268 0.055118 -0.511811
v 13.401093 9.693957 33.610267
vt 0.722626 0.757446
vn 0.755906 0.433071 -0.496063
v 13.401093 -5.917536 44.269618
vt 0.855469 0.644501
vn 0.755906 -0.433071 0.496063
v 13.401093 -5.917536 33.610267
vt 0.855469 0.757446
vn 0.755906 -0.433071 -0.496063
v 0.000000 -13.724029 44.269618
vt 0.989990 0.644501
vn 0.000000 -0.653543 0.755906
v 0.000000 -13.724029 33.610267
vt 0.989990 0.757446
vn 0.000000 -0.653543 -0.755906
v -13.401093 -5.917536 33.610267
vt 0.722626 0.757446
vn -0.755906 -0.433071 -0.496063
v -13.401093 9.693957 44.269618
vt 0.855469 0.644501
vn -0.755906 0.433071 0.496063
v -13.401093 9.693957 33.610267
vt 0.855469 0.757446
vn -0.755906 0.433071 -0.496063
v 0.000000 17.498958 44.269618
vt 0.989990 0.644501
vn 0.000000 0.653543 0.755906
v 0.000000 17.498958 33.610267
vt 0.989990 0.757446
vn 0.000000 0.653543 -0.755906
v 6.099023 -13.176441 133.191924
vt 0.371094 0.988251
vn 0.574803 -0.811024 0.133858
v 4.532912 -7.764715 142.718719
vt 0.394501 0.902039
vn 0.874016 -0.425197 0.251969
v 4.145144 -3.995755 228.334961
vt 0.468750 0.366333
vn 0.992126 -0.125984 0.047244
v 5.882044 -0.258128 144.734003
vt 0.472626 0.886719
vn 0.952756 -0.244094 0.204724
v 5.747776 2.053084 176.703729
vt 0.527344 0.694244
vn 0.826772 0.566929 0.062992
v 0.000000 6.072711 157.675122
vt 0.571075 0.800751
vn 0.000000 0.960630 0.291339
v -6.210734 6.851570 150.596646
vt 0.527344 0.886719
vn -0.708661 0.637795 0.299213
v 0.000000 -12.803424 130.968450
vt 0.009979 0.464844
vn 0.000000 -0.984252 0.204724
v 8.600718 -0.001492 37.032918
vt 0.144501 0.989990
vn 0.992126 -0.062992 0.141732
f 53/53/53 54/54/54 55/55/55
f 56/56/56 57/57/57 58/58/58
f 59/59/59 60/60/60 61/61/61
f 62/62/62 63/63/63 64/64/64
f 65/65/65 66/66/66 67/67/67
f 54/54/54 53/53/53 68/68/68
f 69/69/69 70/70/70 71/71/71
f 72/72/72 73/73/73 74/74/74
f 75/75/75 76/76/76 73/73/73
f 73/73/73 76/76/76 77/77/77
f 73/73/73 77/77/77 74/74/74
f 78/78/78 71/71/71 79/79/79
f 80/80/80 81/81/81 82/82/82
f 82/82/82 81/81/81 83/83/83
f 82/82/82 83/83/83 84/84/84
f 84/84/84 83/83/83 85/85/85
f 86/86/86 87/87/87 88/88/88
f 89/89/89 90/90/90 91/91/91
f 91/91/91 90/90/90 92/92/92
f 91/91/91 92/92/92 93/93/93
f 93/93/93 92/92/92 94/94/94
f 95/95/95 96/96/96 97/97/97
f 98/98/98 99/99/99 100/100/100
f 100/100/100 99/99/99 101/101/101
f 102/102/102 103/103/103 104/104/104
f 105/105/105 106/106/106 107/107/107
f 108/108/108 53/53/53 109/109/109
f 109/109/109 53/53/53 55/55/55
f 109/109/109 55/55/55 110/110/110
f 111/111/111 112/112/112 113/113/113
f 114/114/114 115/115/115 116/116/116
f 116/116/116 115/115/115 117/117/117
f 118/118/118 102/102/102 119/119/119
f 119/119/119 102/102/102 104/104/104
f 119/119/119 104/104/104 120/120/120
f 121/121/121 95/95/95 122/122/122
f 122/122/122 95/95/95 97/97/97
f 122/122/122 97/97/97 123/123/123
f 124/124/124 99/99/99 125/125/125
f 125/125/125 99/99/99 98/98/98
f 125/125/125 98/98/98 126/126/126
f 127/127/127 128/128/128 129/129/129
f 57/57/57 56/56/56 130/130/130
f 130/130/130 56/56/56 131/131/131
f 130/130/130 131/131/131 132/132/132
f 60/60/60 59/59/59 133/133/133
f 133/133/133 59/59/59 134/134/134
f 133/133/133 134/134/134 135/135/135
f 136/136/136 137/137/137 138/138/138
f 138/138/138 137/137/137 139/139/139
f 138/138/138 139/139/139 140/140/140
f 141/141/141 142/142/142 143/143/143
f 143/143/143 142/142/142 144/144/144
f 143/143/143 144/144/144 145/145/145
f 146/146/146 147/147/147 148/148/148
f 148/148/148 147/147/147 149/149/149
f 148/148/148 149/149/149 150/150/150
f 151/151/151 152/152/152 153/153/153
f 153/153/153 152/152/152 154/154/154
f 153/153/153 154/154/154 155/155/155
f 156/156/156 157/157/157 158/158/158
f 158/158/158 157/157/157 159/159/159
f 158/158/158 159/159/159 160/160/160
f 161/161/161 162/162/162 163/163/163
f 163/163/163 162/162/162 164/164/164
f 163/163/163 164/164/164 165/165/165
f 166/166/166 94/94/94 167/167/167
f 167/167/167 94/94/94 92/92/92
f 167/167/167 92/92/92 168/168/168
f 168/168/168 92/92/92 90/90/90
f 168/168/168 90/90/90 113/113/113
f 113/113/113 90/90/90 89/89/89
f 113/113/113 89/89/89 111/111/111
f 111/111/111 89/89/89 169/169/169
f 127/127/127 170/170/170 128/128/128
f 128/128/128 170/170/170 171/171/171
f 128/128/128 171/171/171 172/172/172
f 172/172/172 171/171/171 121/121/121
f 172/172/172 121/121/121 173/173/173
f 173/173/173 121/121/121 122/122/122
f 174/174/174 175/175/175 113/113/113
f 113/113/113 175/175/175 176/176/176
f 113/113/113 176/176/176 168/168/168
f 168/168/168 176/176/176 177/177/177
f 168/168/168 177/177/177 167/167/167
f 167/167/167 177/177/177 178/178/178
f 167/167/167 178/178/178 166/166/166
f 84/84/84 179/179/179 82/82/82
f 82/82/82 179/179/179 75/75/75
f 82/82/82 75/75/75 80/80/80
f 80/80/80 75/75/75 73/73/73
f 80/80/80 73/73/73 180/180/180
f 81/81/81 181/181/181 83/83/83
f 83/83/83 181/181/181 182/182/182
f 83/83/83 182/182/182 85/85/85
f 85/85/85 182/182/182 79/79/79
f 85/85/85 79/79/79 183/183/183
f 63/63/63 62/62/62 184/184/184
f 184/184/184 62/62/62 185/185/185
f 184/184/184 185/185/185 186/186/186
f 186/186/186 185/185/185 187/187/187
f 186/186/186 187/187/187 188/188/188
f 66/66/66 65/65/65 189/189/189
f 189/189/189 65/65/65 190/190/190
f 189/189/189 190/190/190 191/191/191
f 191/191/191 190/190/190 192/192/192
f 191/191/191 192/192/192 193/193/193
f 117/117/117 194/194/194 116/116/116
f 116/116/116 194/194/194 195/195/195
f 116/116/116 195/195/195 196/196/196
f 196/196/196 195/195/195 197/197/197
f 196/196/196 197/197/197 198/198/198
f 198/198/198 197/197/197 105/105/105
f 198/198/198 105/105/105 199/199/199
f 199/199/199 105/105/105 107/107/107
f 199/199/199 107/107/107 200/200/200
f 200/200/200 107/107/107 106/106/106
f 55/55/55 201/201/201 110/110/110
f 110/110/110 201/201/201 174/174/174
f 110/110/110 174/174/174 109/109/109
f 109/109/109 174/174/174 113/113/113
f 109/109/109 113/113/113 108/108/108
f 108/108/108 113/113/113 112/112/112
f 108/108/108 112/112/112 53/53/53
f 53/53/53 112/112/112 202/202/202
f 53/53/53 202/202/202 87/87/87
f 87/87/87 202/202/202 169/169/169
f 87/87/87 169/169/169 88/88/88
f 88/88/88 169/169/169 89/89/89
f 88/88/88 89/89/89 86/86/86
f 86/86/86 89/89/89 91/91/91
f 86/86/86 91/91/91 87/87/87
f 87/87/87 91/91/91 93/93/93
f 87/87/87 93/93/93 53/53/53
f 53/53/53 93/93/93 94/94/94
f 53/53/53 94/94/94 68/68/68
f 68/68/68 94/94/94 166/166/166
f 120/120/120 114/114/114 119/119/119
f 119/119/119 114/114/114 116/116/116
f 119/119/119 116/116/116 118/118/118
f 118/118/118 116/116/116 196/196/196
f 118/118/118 196/196/196 102/102/102
f 102/102/102 196/196/196 198/198/198
f 102/102/102 198/198/198 103/103/103
f 103/103/103 198/198/198 199/199/199
f 103/103/103 199/199/199 104/104/104
f 104/104/104 199/199/199 200/200/200
f 104/104/104 200/200/200 120/120/120
g mesh01
