mtllib 0404-0.mtl
g mesh00
usemtl texture00
v -5.296700 -3.488659 3.065954
vt 0.148315 0.948578
vn -0.448819 -0.826772 -0.346457
v 0.000000 -5.676158 5.166264
vt 0.499084 0.989166
vn 0.000000 -0.968504 -0.251969
v -3.805181 -4.290815 5.099668
vt 0.245728 0.946167
vn -0.496063 -0.874016 0.007874
v 2.314549 -2.721834 10.388165
vt 0.397736 0.881256
vn 0.472441 -0.370079 0.803150
v 1.437934 -4.950772 10.334214
vt 0.424438 0.952118
vn 0.425197 -0.614173 0.669291
v 3.507943 -3.209496 9.161615
vt 0.335571 0.892578
vn 0.669291 -0.456693 0.590551
v -6.033282 2.732739 9.028001
vt 0.169220 0.579895
vn -0.842520 -0.007874 0.543307
v -5.905683 0.611976 8.856874
vt 0.188263 0.698456
vn -0.881890 -0.204724 0.440945
v -4.772093 0.930396 10.625888
vt 0.265808 0.687866
vn -0.637795 -0.196850 0.748031
v -1.247867 -0.242086 12.238528
vt 0.447906 0.756439
vn -0.299213 -0.259843 0.921260
v 0.000000 -0.188871 12.406283
vt 0.499725 0.752289
vn 0.000000 -0.236220 0.976378
v 0.000000 0.739344 12.381836
vt 0.499725 0.718750
vn 0.000000 -0.448819 0.897638
v -7.116248 0.285269 2.205262
vt 0.911346 0.797760
vn -0.944882 -0.299213 0.165354
v -7.803685 0.339357 0.782295
vt 0.952789 0.797760
vn 0.196850 -0.661417 -0.724409
v -7.543157 3.840665 -0.529819
vt 0.970276 0.736145
vn 0.629921 0.133858 -0.771654
v -1.936192 -5.306268 8.279004
vt 0.415649 0.964996
vn -0.440945 -0.897638 0.110236
v -1.432013 -4.950772 10.334214
vt 0.424438 0.952118
vn -0.425197 -0.614173 0.669291
v -5.674761 -2.733175 5.255621
vt 0.168091 0.877686
vn -0.787402 -0.582677 0.204724
v -7.747434 5.729374 2.382290
vt 0.029297 0.386719
vn -0.984252 0.000000 0.173228
v -7.116248 0.285269 2.205262
vt 0.042603 0.698578
vn -0.944882 -0.299213 0.165354
v -7.256873 2.935132 6.642339
vt 0.093994 0.572174
vn -0.960630 -0.055118 0.291339
v -6.673351 -0.055396 5.983964
vt 0.116211 0.702911
vn -0.929134 -0.307087 0.212598
v -7.543157 3.840665 -0.529819
vt 0.010803 0.744690
vn -0.598425 -0.456693 -0.661417
v -6.259468 -2.301782 2.577020
vt 0.050873 0.951019
vn -0.724409 -0.535433 -0.433071
v -1.758560 -1.915753 11.510606
vt 0.421204 0.843781
vn -0.393701 -0.338583 0.850394
v -1.398263 -0.888958 11.556128
vt 0.431824 0.796295
vn -0.314961 -0.118110 0.944882
v -3.110638 -0.922981 10.558028
vt 0.360748 0.791260
vn -0.535433 -0.346457 0.771654
v 7.543157 3.840665 -0.529819
vt 0.970276 0.736145
vn -0.629921 0.133858 -0.771654
v 7.803685 0.339357 0.782295
vt 0.952789 0.797760
vn -0.196850 -0.661417 -0.724409
v 7.116248 0.285269 2.205262
vt 0.911346 0.797760
vn 0.944882 -0.299213 0.165354
v 1.758560 -1.915753 11.510606
vt 0.421204 0.843781
vn 0.393701 -0.338583 0.850394
v 0.000000 -1.496136 12.009235
vt 0.499725 0.824554
vn 0.000000 0.165354 0.992126
v 0.000000 -2.149551 11.890795
vt 0.499725 0.851654
vn 0.000000 -0.519685 0.858268
v 0.000000 -1.092223 11.727255
vt 0.499725 0.796875
vn 0.000000 -0.055118 1.000000
v 1.398263 -0.888958 11.556128
vt 0.431824 0.796295
vn 0.314961 -0.118110 0.944882
v 3.110638 -0.922981 10.558028
vt 0.360748 0.791260
vn 0.535433 -0.346457 0.771654
v 1.974976 1.329511 11.674989
vt 0.406250 0.663513
vn 0.511811 0.000000 0.866142
v 1.247867 -0.242086 12.238528
vt 0.447906 0.756439
vn 0.299213 -0.259843 0.921260
v 3.411725 1.096585 11.207973
vt 0.337830 0.674408
vn 0.409449 -0.070866 0.913386
v 0.000000 -2.789880 11.061293
vt 0.499725 0.886383
vn 0.000000 -0.637795 0.771654
v -2.314549 -2.721834 10.388165
vt 0.397736 0.881256
vn -0.472441 -0.370079 0.803150
v -3.504686 -3.209496 9.161615
vt 0.335571 0.892578
vn -0.669291 -0.456693 0.590551
v -5.262950 -1.236603 8.863618
vt 0.240723 0.794739
vn -0.755906 -0.417323 0.511811
v 3.805181 -4.290815 5.099668
vt 0.245728 0.946167
vn 0.496063 -0.874016 0.007874
v 5.296700 -3.488659 3.065954
vt 0.148315 0.948578
vn 0.448819 -0.826772 -0.346457
v 5.674761 -2.733175 5.255621
vt 0.168091 0.877686
vn 0.787402 -0.582677 0.204724
v 6.259468 -2.301782 2.577020
vt 0.050873 0.951019
vn 0.724409 -0.535433 -0.433071
v 7.116248 0.285269 2.205262
vt 0.042603 0.698578
vn 0.944882 -0.299213 0.165354
v 7.256873 2.935132 6.642339
vt 0.093994 0.572174
vn 0.960630 -0.055118 0.291339
v 5.905683 0.611976 8.856874
vt 0.188263 0.698456
vn 0.881890 -0.204724 0.440945
v 6.673351 -0.055396 5.983964
vt 0.116211 0.702911
vn 0.929134 -0.307087 0.212598
v 5.262950 -1.236603 8.863618
vt 0.240723 0.794739
vn 0.755906 -0.417323 0.511811
v -4.172880 -2.864469 2.483870
vt 0.010590 0.988525
vn -0.110236 -0.559055 -0.826772
v 6.033282 2.732739 9.028001
vt 0.169220 0.579895
vn 0.842520 -0.007874 0.543307
v 4.772093 0.930396 10.625888
vt 0.265808 0.687866
vn 0.637795 -0.196850 0.748031
v 1.974976 1.329511 11.674989
vt 0.593353 0.663513
vn 0.511811 0.000000 0.866142
v 0.852339 1.708998 13.395110
vt 0.536346 0.644958
vn 0.566929 -0.236220 0.787402
v 0.000000 1.288073 13.503856
vt 0.499725 0.679688
vn 0.000000 -0.716535 0.700787
v 0.000000 -5.617709 9.445702
vt 0.499725 0.975708
vn 0.000000 -0.976378 0.228346
v 1.437934 -4.950772 10.334214
vt 0.574677 0.952118
vn 0.425197 -0.614173 0.669291
v 0.008290 -2.922046 11.022937
vt 0.499725 0.889893
vn 0.000000 -0.228346 0.976378
v 0.000000 -0.432702 12.272248
vt 0.499725 0.760773
vn 0.000000 -0.582677 0.818898
v 1.936192 -5.306268 8.279004
vt 0.415649 0.964996
vn 0.440945 -0.897638 0.110236
v 4.172880 -2.864469 2.483870
vt 0.010590 0.988525
vn 0.110236 -0.559055 -0.826772
v 7.543157 3.840665 -0.529819
vt 0.010803 0.744690
vn 0.598425 -0.456693 -0.661417
v -3.411725 1.096585 11.207973
vt 0.337830 0.674408
vn -0.409449 -0.070866 0.913386
v -1.974976 1.329511 11.674989
vt 0.406250 0.663513
vn -0.511811 0.000000 0.866142
v -0.852339 1.708998 13.395110
vt 0.463257 0.644958
vn -0.566929 -0.236220 0.787402
v 0.000000 1.864718 13.811126
vt 0.499725 0.645996
vn 0.000000 0.000000 1.000000
v 7.747434 5.729374 2.382290
vt 0.029297 0.386719
vn 0.984252 0.000000 0.173228
f 1/1/1 2/2/2 3/3/3
f 4/4/4 5/5/5 6/6/6
f 7/7/7 8/8/8 9/9/9
f 10/10/10 11/11/11 12/12/12
f 13/13/13 14/14/14 15/15/15
f 16/16/16 17/17/17 18/18/18
f 19/19/19 20/20/20 21/21/21
f 21/21/21 20/20/20 22/22/22
f 23/23/23 24/24/24 20/20/20
f 20/20/20 24/24/24 18/18/18
f 20/20/20 18/18/18 22/22/22
f 25/25/25 26/26/26 27/27/27
f 27/27/27 26/26/26 10/10/10
f 28/28/28 29/29/29 30/30/30
f 31/31/31 32/32/32 33/33/33
f 34/34/34 32/32/32 35/35/35
f 35/35/35 32/32/32 31/31/31
f 35/35/35 31/31/31 36/36/36
f 37/37/37 38/38/38 39/39/39
f 40/40/40 25/25/25 41/41/41
f 41/41/41 25/25/25 27/27/27
f 41/41/41 27/27/27 42/42/42
f 42/42/42 27/27/27 43/43/43
f 44/44/44 45/45/45 46/46/46
f 46/46/46 45/45/45 47/47/47
f 46/46/46 47/47/47 48/48/48
f 49/49/49 50/50/50 51/51/51
f 51/51/51 50/50/50 52/52/52
f 2/2/2 1/1/1 53/53/53
f 49/49/49 54/54/54 50/50/50
f 50/50/50 54/54/54 55/55/55
f 50/50/50 55/55/55 52/52/52
f 52/52/52 55/55/55 36/36/36
f 56/56/56 57/57/57 12/12/12
f 12/12/12 57/57/57 58/58/58
f 16/16/16 59/59/59 17/17/17
f 17/17/17 59/59/59 60/60/60
f 17/17/17 60/60/60 61/61/61
f 5/5/5 4/4/4 61/61/61
f 55/55/55 39/39/39 36/36/36
f 36/36/36 39/39/39 38/38/38
f 36/36/36 38/38/38 35/35/35
f 35/35/35 38/38/38 62/62/62
f 35/35/35 62/62/62 34/34/34
f 46/46/46 63/63/63 44/44/44
f 44/44/44 63/63/63 2/2/2
f 44/44/44 2/2/2 45/45/45
f 45/45/45 2/2/2 64/64/64
f 45/45/45 64/64/64 47/47/47
f 47/47/47 64/64/64 65/65/65
f 47/47/47 65/65/65 48/48/48
f 8/8/8 43/43/43 9/9/9
f 9/9/9 43/43/43 27/27/27
f 9/9/9 27/27/27 66/66/66
f 66/66/66 27/27/27 10/10/10
f 66/66/66 10/10/10 67/67/67
f 67/67/67 10/10/10 12/12/12
f 67/67/67 12/12/12 68/68/68
f 68/68/68 12/12/12 58/58/58
f 68/68/68 58/58/58 69/69/69
f 69/69/69 58/58/58 57/57/57
f 4/4/4 40/40/40 61/61/61
f 61/61/61 40/40/40 41/41/41
f 61/61/61 41/41/41 17/17/17
f 17/17/17 41/41/41 42/42/42
f 17/17/17 42/42/42 18/18/18
f 18/18/18 42/42/42 43/43/43
f 18/18/18 43/43/43 22/22/22
f 22/22/22 43/43/43 8/8/8
f 22/22/22 8/8/8 21/21/21
f 21/21/21 8/8/8 7/7/7
f 23/23/23 53/53/53 24/24/24
f 24/24/24 53/53/53 1/1/1
f 24/24/24 1/1/1 18/18/18
f 18/18/18 1/1/1 3/3/3
f 18/18/18 3/3/3 16/16/16
f 16/16/16 3/3/3 2/2/2
f 16/16/16 2/2/2 59/59/59
f 59/59/59 2/2/2 63/63/63
f 59/59/59 63/63/63 5/5/5
f 5/5/5 63/63/63 46/46/46
f 5/5/5 46/46/46 6/6/6
f 37/37/37 12/12/12 38/38/38
f 38/38/38 12/12/12 11/11/11
f 38/38/38 11/11/11 62/62/62
f 62/62/62 11/11/11 10/10/10
f 62/62/62 10/10/10 34/34/34
f 34/34/34 10/10/10 26/26/26
f 34/34/34 26/26/26 32/32/32
f 32/32/32 26/26/26 25/25/25
f 32/32/32 25/25/25 33/33/33
f 33/33/33 25/25/25 40/40/40
f 33/33/33 40/40/40 31/31/31
f 31/31/31 40/40/40 4/4/4
f 31/31/31 4/4/4 36/36/36
f 36/36/36 4/4/4 6/6/6
f 36/36/36 6/6/6 52/52/52
f 52/52/52 6/6/6 46/46/46
f 52/52/52 46/46/46 51/51/51
f 51/51/51 46/46/46 48/48/48
f 51/51/51 48/48/48 49/49/49
f 49/49/49 48/48/48 70/70/70
usemtl texture00
v -6.922036 5.231679 6.867418
vt 0.071869 0.386475
vn -0.944882 0.015748 0.330709
v -5.952164 6.826395 9.760138
vt 0.207458 0.297729
vn -0.740157 -0.094488 0.669291
v -6.935655 8.920550 6.576165
vt 0.069427 0.190094
vn -0.968504 0.086614 0.259843
v -7.747434 5.729374 2.382290
vt 0.029297 0.386719
vn -0.984252 0.000000 0.173228
v -7.538716 10.124874 2.153418
vt 0.011383 0.011627
vn -1.000000 0.078740 0.070866
v 6.033282 2.732739 9.028001
vt 0.169220 0.579895
vn 0.842520 -0.007874 0.543307
v 4.894955 2.990964 10.461927
vt 0.242615 0.574249
vn 0.614173 0.110236 0.779528
v 4.772093 0.930396 10.625888
vt 0.265808 0.687866
vn 0.637795 -0.196850 0.748031
v 5.978512 3.985481 8.964355
vt 0.166199 0.504669
vn 0.826772 0.102362 0.559055
v 5.067555 4.444354 9.782477
vt 0.224976 0.452332
vn 0.566929 0.110236 0.818898
v 3.177843 10.667060 10.920935
vt 0.350250 0.141907
vn 0.417323 0.259843 0.874016
v 3.867944 13.987349 9.113986
vt 0.304504 0.011627
vn 0.582677 0.362205 0.732283
v 0.000000 14.292683 10.404182
vt 0.499542 0.011627
vn 0.000000 0.401575 0.921260
v -7.543157 3.840665 -0.529819
vt 0.011536 0.744415
vn -1.000000 0.039370 -0.094488
v -3.139652 8.291998 11.268247
vt 0.358704 0.236328
vn -0.417323 0.188976 0.889764
v 0.000000 6.620076 12.636419
vt 0.499725 0.359375
vn 0.000000 0.102362 1.000000
v 0.000000 8.286327 12.179519
vt 0.499725 0.261719
vn 0.000000 0.196850 0.984252
v -7.116248 0.285269 2.205262
vt 0.855469 0.652344
vn -0.944882 -0.299213 0.165354
v -7.747434 5.729374 2.382290
vt 0.894531 0.449219
vn -0.984252 0.000000 0.173228
v -8.988492 6.693793 0.850155
vt 0.972656 0.378906
vn -0.850394 -0.110236 0.511811
v -7.543157 3.840665 -0.529819
vt 0.970276 0.736145
vn 0.629921 0.133858 -0.771654
v -8.988492 6.693793 0.850155
vt 0.967834 0.665924
vn 0.685039 0.566929 -0.464567
v -7.747434 5.729374 2.382290
vt 0.930176 0.699829
vn 0.787402 0.543307 -0.291339
v -1.906883 3.302841 11.415770
vt 0.400665 0.542999
vn -0.598425 0.267717 0.755906
v -1.600763 5.162325 10.975729
vt 0.412109 0.423126
vn -0.637795 -0.007874 0.771654
v -2.576261 4.616213 10.554234
vt 0.351807 0.447388
vn -0.275591 0.110236 0.960630
v 0.000000 10.783523 11.864240
vt 0.499725 0.164062
vn 0.000000 0.259843 0.968504
v -3.177843 10.667060 10.920935
vt 0.350250 0.141907
vn -0.417323 0.259843 0.874016
v -5.699038 10.147556 9.155714
vt 0.205719 0.129333
vn -0.748031 0.212598 0.629921
v 2.981855 6.885281 11.709552
vt 0.632416 0.330719
vn 0.472441 -0.362205 0.803150
v 1.116419 5.329386 11.672882
vt 0.542572 0.424469
vn 0.787402 -0.196850 0.582677
v 2.527708 5.957938 10.664244
vt 0.642487 0.362457
vn 0.417323 -0.322835 0.850394
v -2.981855 6.885281 11.709552
vt 0.367188 0.330719
vn -0.472441 -0.362205 0.803150
v -5.114035 5.967970 9.701128
vt 0.218445 0.359100
vn -0.511811 -0.212598 0.834646
v -6.029730 5.008786 8.710615
vt 0.174072 0.406708
vn -0.763780 -0.086614 0.637795
v -5.067555 4.444354 9.782477
vt 0.224976 0.452332
vn -0.566929 0.110236 0.818898
v -7.803685 0.339357 0.782295
vt 0.941406 0.652344
vn 0.196850 -0.661417 -0.724409
v -9.491784 3.345152 -0.890619
vt 0.988464 0.558136
vn -0.874016 -0.165354 0.456693
v -9.701094 5.577579 -0.838775
vt 0.988464 0.386261
vn -0.897638 -0.094488 0.440945
v 9.491784 3.345152 -0.890619
vt 0.988464 0.558136
vn 0.874016 -0.165354 0.456693
v 9.700798 5.577579 -0.838775
vt 0.988464 0.386261
vn 0.897638 -0.094488 0.440945
v 8.988492 6.693793 0.850155
vt 0.972656 0.378906
vn 0.850394 -0.110236 0.511811
v 7.543157 3.840665 -0.529819
vt 0.011536 0.744415
vn 1.000000 0.039370 -0.094488
v 7.538716 10.124874 2.153418
vt 0.011383 0.011627
vn 1.000000 0.078740 0.070866
v 7.747434 5.729374 2.382290
vt 0.029297 0.386719
vn 0.984252 0.000000 0.173228
v 7.543157 3.840665 -0.529819
vt 0.970276 0.736145
vn -0.629921 0.133858 -0.771654
v 9.491784 3.345152 -0.890619
vt 0.979156 0.752563
vn -0.220472 -0.157480 -0.968504
v 7.803685 0.339357 0.782295
vt 0.952789 0.797760
vn -0.196850 -0.661417 -0.724409
v 1.015169 3.820600 12.626725
vt 0.553955 0.532745
vn 0.677165 0.228346 0.700787
v 0.496778 5.409209 12.395324
vt 0.514221 0.408081
vn 0.401575 0.031496 0.921260
v 7.747434 5.729374 2.382290
vt 0.930176 0.699829
vn -0.787402 0.543307 -0.291339
v 8.988492 6.693793 0.850155
vt 0.967834 0.665924
vn -0.685039 0.566929 -0.464567
v 9.700798 5.577579 -0.838775
vt 0.979156 0.669678
vn -0.385827 0.330709 -0.866142
v -7.803685 0.339357 0.782295
vt 0.952789 0.797760
vn 0.196850 -0.661417 -0.724409
v -9.491784 3.345152 -0.890619
vt 0.979156 0.752563
vn 0.220472 -0.157480 -0.968504
v -9.701094 5.577579 -0.838775
vt 0.979156 0.669678
vn 0.385827 0.330709 -0.866142
v 3.832122 5.287076 10.652864
vt 0.285156 0.407227
vn 0.299213 -0.007874 0.960630
v 5.114035 5.967970 9.701128
vt 0.218445 0.359100
vn 0.511811 -0.212598 0.834646
v 6.029730 5.008786 8.710615
vt 0.174072 0.406708
vn 0.763780 -0.086614 0.637795
v 5.952164 6.826395 9.760138
vt 0.207458 0.297729
vn 0.740157 -0.094488 0.669291
v 7.803685 0.339357 0.782295
vt 0.941406 0.652344
vn -0.196850 -0.661417 -0.724409
v 7.116248 0.285269 2.205262
vt 0.855469 0.652344
vn 0.944882 -0.299213 0.165354
v 7.747434 5.729374 2.382290
vt 0.894531 0.449219
vn 0.984252 0.000000 0.173228
v -5.978512 3.985481 8.964355
vt 0.166199 0.504669
vn -0.826772 0.102362 0.559055
v -4.894955 2.990964 10.461927
vt 0.242615 0.574249
vn -0.614173 0.110236 0.779528
v -3.530443 3.196410 11.139269
vt 0.319550 0.556000
vn -0.314961 0.251969 0.913386
v -3.411725 1.096585 11.207973
vt 0.337830 0.674408
vn -0.409449 -0.070866 0.913386
v -1.974976 1.329511 11.674989
vt 0.406250 0.663513
vn -0.511811 0.000000 0.866142
v -7.256873 2.935132 6.642339
vt 0.093994 0.572174
vn -0.960630 -0.055118 0.291339
v -6.033282 2.732739 9.028001
vt 0.169220 0.579895
vn -0.842520 -0.007874 0.543307
v -4.772093 0.930396 10.625888
vt 0.265808 0.687866
vn -0.637795 -0.196850 0.748031
v -3.832122 5.287076 10.652864
vt 0.285156 0.407227
vn -0.299213 -0.007874 0.960630
v -2.527708 5.957938 10.664244
vt 0.357117 0.362457
vn -0.417323 -0.322835 0.850394
v -1.116419 5.329386 11.672882
vt 0.457031 0.424469
vn -0.787402 -0.196850 0.582677
v -1.015169 3.820600 12.626725
vt 0.445648 0.532745
vn -0.677165 0.228346 0.700787
v 7.256873 2.935132 6.642339
vt 0.093994 0.572174
vn 0.960630 -0.055118 0.291339
v 6.922036 5.231679 6.867418
vt 0.071869 0.386475
vn 0.944882 0.015748 0.330709
v 6.935655 8.920550 6.576165
vt 0.069427 0.190094
vn 0.968504 0.086614 0.259843
v 6.399797 12.531778 6.316524
vt 0.163879 0.011627
vn 0.905512 0.236220 0.354331
v -6.399797 12.531778 6.316524
vt 0.163879 0.011627
vn -0.905512 0.236220 0.354331
v -3.867944 13.987349 9.113986
vt 0.304504 0.011627
vn -0.582677 0.362205 0.732283
v 3.139652 8.291998 11.268247
vt 0.358704 0.236328
vn 0.417323 0.188976 0.889764
v 2.981855 6.885281 11.709552
vt 0.367188 0.330719
vn 0.472441 -0.362205 0.803150
v 0.852339 1.708998 13.395110
vt 0.536346 0.644958
vn 0.566929 -0.236220 0.787402
v 1.974976 1.329511 11.674989
vt 0.593353 0.663513
vn 0.511811 0.000000 0.866142
v 1.906883 3.302841 11.415770
vt 0.598938 0.542999
vn 0.598425 0.267717 0.755906
v 1.600763 5.162325 10.975729
vt 0.587494 0.423126
vn 0.637795 -0.007874 0.771654
v 5.699038 10.147556 9.155714
vt 0.205719 0.129333
vn 0.748031 0.212598 0.629921
v 2.527708 5.957938 10.664244
vt 0.357117 0.362457
vn 0.417323 -0.322835 0.850394
v 1.600763 5.162325 10.975729
vt 0.412109 0.423126
vn 0.637795 -0.007874 0.771654
v 2.576261 4.616213 10.554234
vt 0.351807 0.447388
vn 0.275591 0.110236 0.960630
v 1.906883 3.302841 11.415770
vt 0.400665 0.542999
vn 0.598425 0.267717 0.755906
v 3.530443 3.196410 11.139269
vt 0.319550 0.556000
vn 0.314961 0.251969 0.913386
v 1.974976 1.329511 11.674989
vt 0.406250 0.663513
vn 0.511811 0.000000 0.866142
v 3.411725 1.096585 11.207973
vt 0.337830 0.674408
vn 0.409449 -0.070866 0.913386
v 0.000000 1.864718 13.811126
vt 0.499725 0.645996
vn 0.000000 0.000000 1.000000
v 0.000000 2.516388 13.431780
vt 0.499725 0.609558
vn 0.000000 0.330709 0.944882
v -0.852339 1.708998 13.395110
vt 0.463257 0.644958
vn -0.566929 -0.236220 0.787402
v -0.496778 5.409209 12.395324
vt 0.485046 0.408081
vn -0.401575 0.031496 0.921260
v 0.000000 4.029100 13.183520
vt 0.499725 0.520477
vn 0.000000 0.299213 0.952756
f 71/71/71 72/72/72 73/73/73
f 74/74/74 73/73/73 75/75/75
f 76/76/76 77/77/77 78/78/78
f 79/79/79 80/80/80 77/77/77
f 81/81/81 82/82/82 83/83/83
f 74/74/74 75/75/75 84/84/84
f 85/85/85 86/86/86 87/87/87
f 88/88/88 89/89/89 90/90/90
f 91/91/91 92/92/92 93/93/93
f 94/94/94 95/95/95 96/96/96
f 87/87/87 97/97/97 85/85/85
f 85/85/85 97/97/97 98/98/98
f 85/85/85 98/98/98 99/99/99
f 100/100/100 101/101/101 102/102/102
f 103/103/103 72/72/72 104/104/104
f 104/104/104 72/72/72 105/105/105
f 104/104/104 105/105/105 106/106/106
f 107/107/107 88/88/88 108/108/108
f 108/108/108 88/88/88 90/90/90
f 108/108/108 90/90/90 109/109/109
f 110/110/110 111/111/111 112/112/112
f 113/113/113 114/114/114 115/115/115
f 116/116/116 117/117/117 118/118/118
f 119/119/119 101/101/101 120/120/120
f 120/120/120 101/101/101 100/100/100
f 120/120/120 100/100/100 86/86/86
f 121/121/121 122/122/122 116/116/116
f 116/116/116 122/122/122 123/123/123
f 116/116/116 123/123/123 117/117/117
f 124/124/124 125/125/125 91/91/91
f 91/91/91 125/125/125 126/126/126
f 91/91/91 126/126/126 92/92/92
f 127/127/127 80/80/80 128/128/128
f 128/128/128 80/80/80 129/129/129
f 128/128/128 129/129/129 130/130/130
f 131/131/131 110/110/110 132/132/132
f 132/132/132 110/110/110 112/112/112
f 132/132/132 112/112/112 133/133/133
f 72/72/72 71/71/71 105/105/105
f 105/105/105 71/71/71 134/134/134
f 105/105/105 134/134/134 106/106/106
f 106/106/106 134/134/134 135/135/135
f 106/106/106 135/135/135 136/136/136
f 136/136/136 135/135/135 137/137/137
f 136/136/136 137/137/137 138/138/138
f 73/73/73 74/74/74 71/71/71
f 71/71/71 74/74/74 139/139/139
f 71/71/71 139/139/139 134/134/134
f 134/134/134 139/139/139 140/140/140
f 134/134/134 140/140/140 135/135/135
f 135/135/135 140/140/140 141/141/141
f 135/135/135 141/141/141 137/137/137
f 142/142/142 96/96/96 143/143/143
f 143/143/143 96/96/96 95/95/95
f 143/143/143 95/95/95 144/144/144
f 144/144/144 95/95/95 94/94/94
f 144/144/144 94/94/94 145/145/145
f 77/77/77 76/76/76 79/79/79
f 79/79/79 76/76/76 146/146/146
f 79/79/79 146/146/146 147/147/147
f 147/147/147 146/146/146 115/115/115
f 147/147/147 115/115/115 148/148/148
f 148/148/148 115/115/115 114/114/114
f 148/148/148 114/114/114 149/149/149
f 150/150/150 99/99/99 151/151/151
f 151/151/151 99/99/99 98/98/98
f 151/151/151 98/98/98 83/83/83
f 83/83/83 98/98/98 97/97/97
f 83/83/83 97/97/97 81/81/81
f 81/81/81 97/97/97 87/87/87
f 81/81/81 87/87/87 152/152/152
f 152/152/152 87/87/87 86/86/86
f 152/152/152 86/86/86 153/153/153
f 154/154/154 155/155/155 119/119/119
f 119/119/119 155/155/155 156/156/156
f 119/119/119 156/156/156 101/101/101
f 101/101/101 156/156/156 157/157/157
f 101/101/101 157/157/157 102/102/102
f 80/80/80 79/79/79 129/129/129
f 129/129/129 79/79/79 147/147/147
f 129/129/129 147/147/147 130/130/130
f 130/130/130 147/147/147 148/148/148
f 130/130/130 148/148/148 158/158/158
f 158/158/158 148/148/148 149/149/149
f 158/158/158 149/149/149 82/82/82
f 159/159/159 160/160/160 161/161/161
f 161/161/161 160/160/160 162/162/162
f 161/161/161 162/162/162 163/163/163
f 163/163/163 162/162/162 164/164/164
f 163/163/163 164/164/164 165/165/165
f 166/166/166 167/167/167 168/168/168
f 168/168/168 167/167/167 145/145/145
f 168/168/168 145/145/145 138/138/138
f 138/138/138 145/145/145 94/94/94
f 138/138/138 94/94/94 136/136/136
f 136/136/136 94/94/94 96/96/96
f 136/136/136 96/96/96 106/106/106
f 106/106/106 96/96/96 142/142/142
f 106/106/106 142/142/142 104/104/104
f 104/104/104 142/142/142 143/143/143
f 104/104/104 143/143/143 103/103/103
f 103/103/103 143/143/143 144/144/144
f 103/103/103 144/144/144 169/169/169
f 169/169/169 144/144/144 145/145/145
f 169/169/169 145/145/145 170/170/170
f 170/170/170 145/145/145 167/167/167
f 166/166/166 154/154/154 167/167/167
f 167/167/167 154/154/154 119/119/119
f 167/167/167 119/119/119 170/170/170
f 170/170/170 119/119/119 120/120/120
f 170/170/170 120/120/120 169/169/169
f 169/169/169 120/120/120 86/86/86
f 169/169/169 86/86/86 103/103/103
f 103/103/103 86/86/86 85/85/85
f 103/103/103 85/85/85 72/72/72
f 72/72/72 85/85/85 99/99/99
f 72/72/72 99/99/99 73/73/73
f 73/73/73 99/99/99 150/150/150
f 73/73/73 150/150/150 75/75/75
f 82/82/82 81/81/81 158/158/158
f 158/158/158 81/81/81 152/152/152
f 158/158/158 152/152/152 130/130/130
f 130/130/130 152/152/152 153/153/153
f 130/130/130 153/153/153 128/128/128
f 128/128/128 153/153/153 159/159/159
f 128/128/128 159/159/159 127/127/127
f 127/127/127 159/159/159 161/161/161
f 127/127/127 161/161/161 80/80/80
f 80/80/80 161/161/161 163/163/163
f 80/80/80 163/163/163 77/77/77
f 77/77/77 163/163/163 165/165/165
f 77/77/77 165/165/165 78/78/78
