mtllib 3493-0.mtl
g mesh00
usemtl texture00
v -0.757881 -10.216737 83.340395
vt 0.672424 0.005371
vn 0.448819 -0.125984 0.881890
v -3.303127 -20.935832 83.060081
vt 0.706238 0.157104
vn -0.055118 -0.960630 0.291339
v 1.084042 -11.538313 79.334026
vt 0.740845 0.005646
vn 0.897638 -0.448819 -0.070866
v 3.243825 -7.918310 70.477705
vt 0.672424 0.005371
vn -0.086614 -0.992126 -0.141732
v 14.211155 -8.968405 70.787107
vt 0.706238 0.157104
vn 0.897638 -0.440945 -0.023622
v 4.274495 -6.044219 74.552829
vt 0.740845 0.005646
vn 0.149606 -0.535433 0.834646
v 3.564056 -7.307678 31.678077
vt 0.468750 0.609375
vn 0.496063 -0.866142 0.110236
v -4.184356 -7.247968 22.877289
vt 0.380859 0.714844
vn -0.425197 -0.850394 -0.307087
v 3.000686 -7.899999 22.657798
vt 0.458527 0.715546
vn 0.354331 -0.826772 -0.440945
v 2.468153 0.000000 -2.861314
vt 0.569458 0.539154
vn 0.921260 0.000000 0.393701
v 3.279406 0.000000 14.417637
vt 0.566406 0.325775
vn 0.968504 0.000000 -0.251969
v 0.000000 -2.840592 14.417637
vt 0.606232 0.326538
vn 0.007874 -0.992126 -0.157480
v 3.868869 0.000000 -8.851033
vt 0.564056 0.618744
vn 0.874016 0.000000 -0.496063
v -0.819555 2.414662 -11.770525
vt 0.615601 0.648438
vn -0.118110 0.921260 -0.377953
v -0.189767 3.948805 -5.122334
vt 0.607117 0.568024
vn 0.078740 0.992126 0.133858
v 2.788385 10.927681 86.524334
vt 0.132812 0.076813
vn 0.559055 0.582677 0.598425
v 9.098128 0.000000 84.622961
vt 0.042969 0.062500
vn 0.519685 -0.165354 0.842520
v 9.531033 0.000000 73.148617
vt 0.042175 0.145294
vn 1.000000 -0.102362 -0.062992
v -4.568634 -5.299042 60.722264
vt 0.774780 0.005676
vn -0.771654 0.212598 -0.598425
v -6.484091 -16.062720 59.333918
vt 0.706238 0.157104
vn -0.433071 -0.842520 -0.330709
v -5.078632 -6.751979 65.059191
vt 0.706635 0.005524
vn -0.897638 -0.125984 0.433071
v -1.325995 -9.158680 66.204245
vt 0.638489 0.005341
vn 0.000000 -0.708661 0.708661
v 3.433591 4.726624 75.663505
vt 0.740845 0.005646
vn 0.685039 -0.307087 0.661417
v 8.603548 14.425081 74.843720
vt 0.706238 0.157104
vn 0.685039 0.716535 0.165354
v 0.073535 7.696189 76.692203
vt 0.774780 0.005676
vn -0.118110 0.401575 0.913386
v -1.195530 9.811507 72.807480
vt 0.706635 0.005524
vn -0.425197 0.905512 -0.015748
v 4.241286 5.006066 71.141466
vt 0.672424 0.005371
vn 0.881890 -0.236220 -0.417323
v 1.380553 8.148391 69.377606
vt 0.638489 0.005341
vn 0.188976 0.511811 -0.842520
v -7.187414 -0.062894 57.321478
vt 0.672424 0.005371
vn -0.385827 -0.409449 -0.834646
v -9.485964 0.223713 61.298758
vt 0.638489 0.005341
vn -0.937008 -0.338583 0.118110
v -13.369065 8.925414 55.761243
vt 0.706238 0.157104
vn -0.661417 0.622047 -0.425197
v -7.743668 3.744200 63.697290
vt 0.706635 0.005524
vn -0.519685 0.503937 0.692913
v -4.369379 5.632620 61.203557
vt 0.774780 0.005676
vn 0.283465 0.952756 0.094488
v -4.024240 3.279260 57.263300
vt 0.740845 0.005646
vn 0.370079 0.385827 -0.842520
v -11.158283 3.102519 79.397494
vt 0.638489 0.005341
vn -0.433071 0.078740 0.905512
v -9.909381 6.724115 76.848227
vt 0.706635 0.005524
vn -0.125984 0.952756 0.291339
v -20.664409 5.918431 74.584563
vt 0.706238 0.157104
vn -0.960630 0.267717 -0.086614
v -9.866683 5.412092 72.437255
vt 0.774780 0.005676
vn -0.118110 0.637795 -0.763780
v -11.090678 0.979240 72.260076
vt 0.740845 0.005646
vn -0.417323 -0.425197 -0.811024
v -11.888885 -0.447425 76.559980
vt 0.672424 0.005371
vn -0.606299 -0.763780 0.220472
v 6.998834 5.394577 77.152341
vt 0.672424 0.005371
vn 0.456693 0.496063 -0.740157
v 4.795168 7.490788 80.606015
vt 0.638489 0.005341
vn -0.062992 1.000000 0.078740
v 15.283337 7.939805 83.961845
vt 0.706238 0.157104
vn 0.866142 0.393701 0.314961
v 4.771447 4.637458 84.218358
vt 0.706635 0.005524
vn -0.070866 0.314961 0.952756
v 6.962066 0.779411 82.996614
vt 0.774780 0.005676
vn 0.448819 -0.606299 0.653543
v 8.337875 1.246740 78.630598
vt 0.740845 0.005646
vn 0.779528 -0.496063 -0.385827
v -5.330073 -10.105279 82.832657
vt 0.638489 0.005341
vn -0.637795 -0.102362 0.763780
v 4.582866 -4.993328 67.187987
vt 0.638489 0.005341
vn 0.228346 -0.283465 -0.937008
v -7.501715 5.740894 63.033528
vt 0.278107 0.293732
vn -0.440945 0.897638 -0.094488
v -11.603049 1.023027 60.402283
vt 0.333313 0.329407
vn -0.913386 0.015748 -0.417323
v -15.063919 4.093701 83.263705
vt 0.331238 0.098419
vn -0.787402 0.472441 0.409449
v 6.440208 -1.310430 69.229516
vt 0.706635 0.005524
vn 0.677165 0.590551 -0.440945
v 6.250441 -1.960072 73.780644
vt 0.774780 0.005676
vn 0.629921 0.433071 0.645669
v -6.313301 -11.358388 78.514241
vt 0.706635 0.005524
vn -0.874016 -0.401575 -0.267717
v -2.347177 -12.243684 76.353711
vt 0.774780 0.005676
vn 0.070866 -0.614173 -0.787402
v -1.111321 4.586505 86.286331
vt 0.168732 0.045288
vn -0.149606 -0.251969 0.960630
v -1.879877 -0.231674 84.001512
vt 0.159363 0.009369
vn 0.015748 -0.023622 1.000000
v -10.988679 8.188198 83.663020
vt 0.285156 0.078125
vn -0.574803 0.393701 0.716535
v -0.501696 -6.808504 59.185828
vt 0.740845 0.005646
vn 0.196850 -0.141732 -0.968504
v 1.500343 -9.193710 62.573391
vt 0.672424 0.005371
vn 0.685039 -0.716535 -0.157480
v -2.436130 -12.462620 73.286129
vt 0.467438 0.169250
vn 0.015748 -0.976378 -0.244094
v 4.459518 -12.128245 84.443138
vt 0.514038 0.087494
vn 0.448819 -0.826772 0.330709
v -10.489355 -10.927681 83.062726
vt 0.438782 0.118469
vn -0.385827 -0.755906 0.527559
v 0.017791 -9.040853 86.616890
vt 0.482788 0.062500
vn 0.118110 -0.007874 1.000000
v -7.523064 -2.473576 84.940298
vt 0.430450 0.064819
vn -0.110236 0.039370 1.000000
v -8.049667 -6.054569 67.116586
vt 0.672424 0.005371
vn 0.283465 -0.913386 -0.291339
v -9.890404 -5.180418 71.244600
vt 0.638489 0.005341
vn -0.149606 -0.708661 0.692913
v -18.592394 -8.875258 65.580151
vt 0.706238 0.157104
vn -0.795276 -0.566929 -0.228346
v -12.474789 -1.390839 70.874375
vt 0.706635 0.005524
vn -0.771654 0.196850 0.606299
v -12.232837 0.075632 66.518937
vt 0.774780 0.005676
vn -0.716535 0.551181 -0.433071
v -9.497824 -2.805562 64.197094
vt 0.740845 0.005646
vn -0.055118 -0.133858 -0.992126
v 1.119624 0.000000 -12.021749
vt 0.592163 0.652344
vn 0.897638 0.000000 -0.448819
v 0.000000 0.000000 -17.741733
vt 0.585144 0.724213
vn -0.188976 0.000000 -0.984252
v -0.189767 -3.948805 -5.122334
vt 0.607117 0.568024
vn 0.078740 -0.992126 0.133858
v -0.819555 -2.414662 -11.770525
vt 0.615601 0.648438
vn -0.118110 -0.921260 -0.377953
v -3.839218 0.000000 -4.942510
vt 0.645111 0.565918
vn -1.000000 0.000000 0.086614
v -2.638943 0.000000 -10.141533
vt 0.642181 0.642944
vn -0.960630 0.000000 -0.275591
v 9.029337 0.000000 23.636251
vt 0.536133 0.725586
vn 0.968504 -0.031496 -0.244094
v 7.973760 0.000000 24.897662
vt 0.513672 0.676758
vn 0.968504 -0.055118 0.259843
v 5.241119 -2.571500 31.101583
vt 0.504456 0.626099
vn 0.779528 -0.629921 0.070866
v -2.233317 7.516264 83.811110
vt 0.638489 0.005341
vn 0.433071 0.070866 0.897638
v -1.630808 10.610025 80.457925
vt 0.706635 0.005524
vn 0.582677 0.811024 0.094488
v -9.381592 15.409097 86.651268
vt 0.706238 0.157104
vn -0.448819 0.692913 0.559055
v -5.307538 10.446023 77.694456
vt 0.774780 0.005676
vn -0.299213 0.771654 -0.566929
v -8.181317 7.251153 79.339315
vt 0.740845 0.005646
vn -0.992126 0.000000 -0.165354
v -6.282464 5.439957 83.120904
vt 0.672424 0.005371
vn -0.535433 -0.425197 0.732283
v 7.909714 0.000000 33.682583
vt 0.092773 0.564453
vn 1.000000 0.000000 -0.094488
v 5.241119 2.571500 31.101583
vt 0.137268 0.628326
vn 0.811024 0.590551 0.078740
v 13.423623 0.000000 62.475546
vt 0.003540 0.329529
vn 0.472441 0.881890 0.000000
v -8.730455 -6.228922 63.840091
vt 0.398438 0.289062
vn -0.606299 -0.732283 -0.322835
v -10.543913 -8.022603 66.243912
vt 0.390625 0.264038
vn -0.543307 -0.724409 -0.425197
v -16.138473 -4.379511 83.324528
vt 0.382812 0.109375
vn -0.874016 -0.267717 0.417323
v 3.000686 7.899999 22.657798
vt 0.159363 0.720306
vn 0.291339 0.874016 -0.385827
v -0.625044 4.126342 18.892076
vt 0.182129 0.771973
vn -0.220472 0.834646 -0.503937
v -4.184356 7.247968 27.037036
vt 0.229675 0.692169
vn -0.685039 0.685039 -0.244094
v -4.476122 3.623984 25.217642
vt 0.268738 0.692871
vn -0.811024 0.519685 -0.267717
v 4.040845 9.148331 62.475546
vt 0.134094 0.234375
vn 0.653543 0.724409 -0.236220
v 2.048294 7.486807 57.181322
vt 0.176331 0.353790
vn 0.275591 0.929134 -0.251969
v -0.880043 9.828226 64.154783
vt 0.184723 0.239014
vn -0.440945 0.826772 -0.362205
v -3.279406 0.000000 14.417637
vt 0.303802 0.825500
vn -0.952756 0.000000 -0.314961
v -0.625044 -4.126342 18.892076
vt 0.422852 0.776764
vn -0.055118 -0.795276 -0.606299
v -8.589316 0.000000 25.177975
vt 0.304688 0.698425
vn -0.952756 0.047244 -0.299213
v 0.000000 -2.840592 14.417637
vt 0.424805 0.826172
vn 0.007874 -0.992126 -0.157480
v 3.279406 0.000000 14.417637
vt 0.480469 0.823242
vn 0.968504 0.000000 -0.251969
v 7.973760 0.000000 24.897662
vt 0.106232 0.678101
vn 0.968504 -0.055118 0.259843
v 9.029337 0.000000 23.636251
vt 0.067963 0.739044
vn 0.968504 -0.031496 -0.244094
v 3.564056 7.247968 33.656138
vt 0.174469 0.602844
vn 0.645669 0.748031 0.149606
v 5.761792 -3.212385 62.475546
vt 0.103668 0.279114
vn 0.803150 -0.566929 -0.181102
v 13.423623 0.000000 62.475546
vt 0.003540 0.329529
vn 0.472441 -0.881890 0.000000
v 8.607107 0.000000 67.812081
vt 0.060913 0.220306
vn 1.000000 -0.094488 0.000000
v 3.437150 3.162229 57.181322
vt 0.129944 0.352966
vn 0.708661 0.692913 -0.141732
v 5.761792 3.212385 62.475546
vt 0.103668 0.279114
vn 0.779528 0.598425 -0.196850
v -9.914125 11.608373 85.503569
vt 0.239563 0.085938
vn -0.551181 0.511811 0.661417
v 2.048294 -10.166581 56.181713
vt 0.454407 0.338531
vn 0.582677 -0.787402 -0.212598
v 5.789071 -5.990083 65.384460
vt 0.534576 0.214264
vn 0.874016 -0.472441 -0.118110
v 0.893090 -10.647444 72.122563
vt 0.501282 0.175781
vn 0.543307 -0.818898 -0.204724
v 9.531033 0.000000 73.148617
vt 0.603119 0.139038
vn 1.000000 -0.102362 -0.062992
v 5.943256 -7.783764 83.163215
vt 0.559357 0.074982
vn 0.811024 -0.259843 0.527559
v 9.098128 0.000000 84.622961
vt 0.612488 0.051544
vn 0.519685 -0.165354 0.842520
v -1.879877 -0.231674 84.001512
vt 0.462494 0.010925
vn 0.015748 -0.023622 1.000000
v -3.900892 -6.720930 41.124115
vt 0.381683 0.482117
vn -0.448819 -0.889764 -0.078740
v 1.891737 -7.236026 48.494246
vt 0.453125 0.401764
vn 0.519685 -0.842520 -0.125984
v -5.167585 -7.596673 45.260062
vt 0.377228 0.435242
vn -0.425197 -0.881890 -0.228346
v 0.000000 2.840592 14.417637
vt 0.185547 0.826172
vn 0.007874 0.992126 -0.157480
v -8.088806 0.000000 35.861624
vt 0.321594 0.566406
vn -0.968504 -0.133858 -0.212598
v -9.489522 0.000000 40.325486
vt 0.315613 0.512482
vn -0.992126 0.000000 -0.125984
v -5.518653 6.272709 51.680829
vt 0.265625 0.455719
vn -0.677165 0.724409 -0.133858
v -9.542894 0.000000 57.874172
vt 0.330719 0.375000
vn -0.960630 -0.047244 -0.291339
v 3.279406 0.000000 14.417637
vt 0.122070 0.824219
vn 0.968504 0.000000 -0.251969
v 0.000000 2.840592 14.417637
vt 0.606232 0.326538
vn 0.007874 0.992126 -0.157480
v 0.000000 2.136813 -2.861314
vt 0.605011 0.539154
vn -0.023622 0.952756 0.322835
v -2.468153 0.000000 -2.861314
vt 0.640564 0.539154
vn -0.944882 0.000000 0.330709
v 0.000000 -2.136813 -2.861314
vt 0.605011 0.539154
vn -0.023622 -0.952756 0.322835
v 5.219771 0.000000 -5.302157
vt 0.550781 0.570129
vn 0.960630 0.000000 0.283465
v 5.241119 -2.571500 31.101583
vt 0.137268 0.628326
vn 0.779528 -0.629921 0.070866
v 3.437150 -3.162229 57.181322
vt 0.129944 0.352966
vn 0.803150 -0.590551 -0.133858
v -3.279406 0.000000 14.417637
vt 0.642181 0.325775
vn -0.952756 0.000000 -0.314961
v -2.600990 6.408051 64.154783
vt 0.221863 0.274994
vn -0.535433 0.803150 -0.267717
v 3.437150 -3.162229 57.181322
vt 0.508911 0.341492
vn 0.803150 -0.590551 -0.133858
v 5.761792 -3.212385 62.475546
vt 0.553101 0.265625
vn 0.803150 -0.566929 -0.181102
v 8.607107 0.000000 67.812081
vt 0.603119 0.199982
vn 1.000000 -0.094488 0.000000
f 1/1/1 2/2/2 3/3/3
f 4/4/4 5/5/5 6/6/6
f 7/7/7 8/8/8 9/9/9
f 10/10/10 11/11/11 12/12/12
f 13/13/13 14/14/14 15/15/15
f 16/16/16 17/17/17 18/18/18
f 19/19/19 20/20/20 21/21/21
f 21/21/21 20/20/20 22/22/22
f 23/23/23 24/24/24 25/25/25
f 25/25/25 24/24/24 26/26/26
f 23/23/23 27/27/27 24/24/24
f 24/24/24 27/27/27 28/28/28
f 24/24/24 28/28/28 26/26/26
f 29/29/29 30/30/30 31/31/31
f 31/31/31 30/30/30 32/32/32
f 32/32/32 33/33/33 31/31/31
f 31/31/31 33/33/33 34/34/34
f 31/31/31 34/34/34 29/29/29
f 35/35/35 36/36/36 37/37/37
f 37/37/37 36/36/36 38/38/38
f 38/38/38 39/39/39 37/37/37
f 37/37/37 39/39/39 40/40/40
f 37/37/37 40/40/40 35/35/35
f 41/41/41 42/42/42 43/43/43
f 43/43/43 42/42/42 44/44/44
f 44/44/44 45/45/45 43/43/43
f 43/43/43 45/45/45 46/46/46
f 43/43/43 46/46/46 41/41/41
f 2/2/2 1/1/1 47/47/47
f 5/5/5 4/4/4 48/48/48
f 49/49/49 50/50/50 51/51/51
f 48/48/48 52/52/52 5/5/5
f 5/5/5 52/52/52 53/53/53
f 5/5/5 53/53/53 6/6/6
f 47/47/47 54/54/54 2/2/2
f 2/2/2 54/54/54 55/55/55
f 2/2/2 55/55/55 3/3/3
f 17/17/17 56/56/56 57/57/57
f 57/57/57 56/56/56 58/58/58
f 19/19/19 59/59/59 20/20/20
f 20/20/20 59/59/59 60/60/60
f 20/20/20 60/60/60 22/22/22
f 61/61/61 62/62/62 63/63/63
f 63/63/63 62/62/62 64/64/64
f 63/63/63 64/64/64 65/65/65
f 66/66/66 67/67/67 68/68/68
f 68/68/68 67/67/67 69/69/69
f 69/69/69 70/70/70 68/68/68
f 68/68/68 70/70/70 71/71/71
f 68/68/68 71/71/71 66/66/66
f 72/72/72 73/73/73 14/14/14
f 13/13/13 74/74/74 75/75/75
f 75/75/75 74/74/74 76/76/76
f 75/75/75 76/76/76 77/77/77
f 78/78/78 79/79/79 80/80/80
f 81/81/81 82/82/82 83/83/83
f 83/83/83 82/82/82 84/84/84
f 84/84/84 85/85/85 83/83/83
f 83/83/83 85/85/85 86/86/86
f 83/83/83 86/86/86 81/81/81
f 87/87/87 88/88/88 89/89/89
f 90/90/90 91/91/91 50/50/50
f 50/50/50 91/91/91 92/92/92
f 50/50/50 92/92/92 51/51/51
f 93/93/93 94/94/94 95/95/95
f 95/95/95 94/94/94 96/96/96
f 97/97/97 98/98/98 99/99/99
f 100/100/100 101/101/101 102/102/102
f 100/100/100 103/103/103 101/101/101
f 101/101/101 103/103/103 104/104/104
f 101/101/101 104/104/104 78/78/78
f 105/105/105 106/106/106 107/107/107
f 108/108/108 109/109/109 110/110/110
f 88/88/88 111/111/111 89/89/89
f 89/89/89 111/111/111 112/112/112
f 89/89/89 112/112/112 110/110/110
f 99/99/99 113/113/113 97/97/97
f 97/97/97 113/113/113 16/16/16
f 97/97/97 16/16/16 18/18/18
f 114/114/114 115/115/115 116/116/116
f 116/116/116 115/115/115 117/117/117
f 116/116/116 117/117/117 118/118/118
f 118/118/118 117/117/117 119/119/119
f 118/118/118 119/119/119 120/120/120
f 8/8/8 7/7/7 121/121/121
f 121/121/121 7/7/7 122/122/122
f 121/121/121 122/122/122 123/123/123
f 123/123/123 122/122/122 114/114/114
f 123/123/123 114/114/114 90/90/90
f 90/90/90 114/114/114 116/116/116
f 90/90/90 116/116/116 91/91/91
f 124/124/124 100/100/100 94/94/94
f 94/94/94 100/100/100 102/102/102
f 94/94/94 102/102/102 96/96/96
f 96/96/96 102/102/102 125/125/125
f 96/96/96 125/125/125 95/95/95
f 95/95/95 125/125/125 126/126/126
f 95/95/95 126/126/126 127/127/127
f 127/127/127 126/126/126 128/128/128
f 127/127/127 98/98/98 95/95/95
f 95/95/95 98/98/98 107/107/107
f 95/95/95 107/107/107 93/93/93
f 93/93/93 107/107/107 106/106/106
f 93/93/93 106/106/106 94/94/94
f 94/94/94 106/106/106 129/129/129
f 94/94/94 129/129/129 124/124/124
f 11/11/11 10/10/10 130/130/130
f 130/130/130 10/10/10 131/131/131
f 130/130/130 131/131/131 132/132/132
f 132/132/132 131/131/131 76/76/76
f 132/132/132 76/76/76 133/133/133
f 133/133/133 76/76/76 74/74/74
f 133/133/133 74/74/74 134/134/134
f 134/134/134 74/74/74 13/13/13
f 134/134/134 13/13/13 15/15/15
f 18/18/18 110/110/110 97/97/97
f 97/97/97 110/110/110 112/112/112
f 97/97/97 112/112/112 98/98/98
f 98/98/98 112/112/112 111/111/111
f 98/98/98 111/111/111 107/107/107
f 107/107/107 111/111/111 88/88/88
f 107/107/107 88/88/88 105/105/105
f 105/105/105 88/88/88 87/87/87
f 105/105/105 87/87/87 135/135/135
f 135/135/135 87/87/87 109/109/109
f 135/135/135 109/109/109 136/136/136
f 136/136/136 109/109/109 108/108/108
f 14/14/14 13/13/13 72/72/72
f 72/72/72 13/13/13 75/75/75
f 72/72/72 75/75/75 73/73/73
f 73/73/73 75/75/75 77/77/77
f 73/73/73 77/77/77 14/14/14
f 14/14/14 77/77/77 76/76/76
f 14/14/14 76/76/76 15/15/15
f 15/15/15 76/76/76 131/131/131
f 15/15/15 131/131/131 134/134/134
f 134/134/134 131/131/131 10/10/10
f 134/134/134 10/10/10 133/133/133
f 133/133/133 10/10/10 12/12/12
f 133/133/133 12/12/12 132/132/132
f 132/132/132 12/12/12 137/137/137
f 132/132/132 137/137/137 130/130/130
f 138/138/138 49/49/49 58/58/58
f 58/58/58 49/49/49 51/51/51
f 58/58/58 51/51/51 65/65/65
f 65/65/65 51/51/51 92/92/92
f 65/65/65 92/92/92 63/63/63
f 63/63/63 92/92/92 91/91/91
f 63/63/63 91/91/91 61/61/61
f 61/61/61 91/91/91 116/116/116
f 61/61/61 116/116/116 62/62/62
f 62/62/62 116/116/116 118/118/118
f 62/62/62 118/118/118 64/64/64
f 64/64/64 118/118/118 120/120/120
f 64/64/64 120/120/120 65/65/65
f 65/65/65 120/120/120 58/58/58
f 17/17/17 16/16/16 56/56/56
f 56/56/56 16/16/16 113/113/113
f 56/56/56 113/113/113 58/58/58
f 58/58/58 113/113/113 99/99/99
f 58/58/58 99/99/99 138/138/138
f 138/138/138 99/99/99 98/98/98
f 138/138/138 98/98/98 49/49/49
f 49/49/49 98/98/98 127/127/127
f 49/49/49 127/127/127 50/50/50
f 50/50/50 127/127/127 128/128/128
f 50/50/50 128/128/128 90/90/90
f 90/90/90 128/128/128 126/126/126
f 90/90/90 126/126/126 123/123/123
f 123/123/123 126/126/126 125/125/125
f 123/123/123 125/125/125 121/121/121
f 121/121/121 125/125/125 102/102/102
f 121/121/121 102/102/102 8/8/8
f 8/8/8 102/102/102 101/101/101
f 8/8/8 101/101/101 9/9/9
f 9/9/9 101/101/101 78/78/78
f 9/9/9 78/78/78 7/7/7
f 7/7/7 78/78/78 80/80/80
f 7/7/7 80/80/80 122/122/122
f 122/122/122 80/80/80 139/139/139
f 122/122/122 139/139/139 114/114/114
f 114/114/114 139/139/139 140/140/140
f 114/114/114 140/140/140 115/115/115
f 115/115/115 140/140/140 141/141/141
f 115/115/115 141/141/141 117/117/117
g mesh01
