mtllib 0422-0.mtl
g mesh00
usemtl texture00
v -6.989564 0.084672 6.923394
vt 0.171875 0.726562
vn -0.913386 -0.322835 0.259843
v -5.876942 -2.311158 6.523239
vt 0.176819 0.876404
vn -0.787402 -0.590551 0.196850
v -4.993180 -2.054948 8.824445
vt 0.285156 0.824982
vn -0.629921 -0.425197 0.653543
v 1.634589 -4.559141 9.722794
vt 0.426544 0.939056
vn 0.385827 -0.503937 0.771654
v 0.000000 -3.438659 10.582433
vt 0.494202 0.905518
vn 0.000000 -0.425197 0.905512
v 0.000000 -4.763144 10.251706
vt 0.494202 0.952393
vn 0.000000 -0.519685 0.858268
v 6.989564 0.084672 6.923394
vt 0.171875 0.726562
vn 0.913386 -0.330709 0.259843
v 5.878126 0.235152 9.235540
vt 0.232025 0.700775
vn 0.692913 -0.228346 0.692913
v 4.993180 -2.054948 8.824445
vt 0.285156 0.824982
vn 0.629921 -0.425197 0.653543
v 2.771193 -1.372305 10.283264
vt 0.367188 0.795563
vn 0.425197 -0.299213 0.858268
v 3.817496 0.622977 10.707402
vt 0.313599 0.678558
vn 0.385827 -0.118110 0.921260
v 2.057374 1.508746 11.309107
vt 0.390625 0.664062
vn 0.574803 0.000000 0.818898
v 0.000000 -2.594130 11.500138
vt 0.494202 0.858643
vn 0.000000 -0.472441 0.881890
v 2.351665 -3.207017 9.830091
vt 0.404663 0.906250
vn 0.440945 -0.393701 0.803150
v -7.543507 3.837014 -0.550371
vt 0.007812 0.523438
vn -0.472441 -0.464567 -0.748031
v -4.170112 -2.844198 2.512434
vt 0.007812 0.992188
vn -0.149606 -0.669291 -0.732283
v -6.128303 -2.178227 2.314671
vt 0.090881 0.929688
vn -0.653543 -0.685039 -0.330709
v -3.528534 -3.935286 8.774373
vt 0.301331 0.907349
vn -0.606299 -0.614173 0.511811
v -3.562285 -4.567915 6.308224
vt 0.278381 0.943176
vn -0.543307 -0.842520 0.007874
v -1.534518 -5.349269 8.858527
vt 0.384369 0.952332
vn -0.370079 -0.889764 0.275591
v 0.000000 -5.634874 5.211690
vt 0.494202 0.991455
vn 0.000000 -0.976378 -0.244094
v 0.000000 -5.770876 8.346026
vt 0.494202 0.983643
vn 0.000000 -1.000000 0.118110
v 4.088101 -2.844198 2.512434
vt 0.007812 0.992188
vn 0.141732 -0.661417 -0.740157
v 6.128303 -2.178227 2.314671
vt 0.090881 0.929688
vn 0.645669 -0.685039 -0.338583
v 7.543507 3.837014 -0.550371
vt 0.007812 0.523438
vn 0.472441 -0.464567 -0.748031
v 7.386591 0.359309 2.271752
vt 0.093750 0.648438
vn 0.960630 -0.251969 0.149606
v 0.000000 1.310885 13.431064
vt 0.494202 0.678955
vn 0.000000 -0.708661 0.708661
v -0.983241 1.769343 13.208054
vt 0.448639 0.647308
vn -0.669291 -0.165354 0.724409
v 0.000000 0.537428 11.761438
vt 0.494202 0.702393
vn 0.000000 -0.314961 0.952756
v -2.057374 1.508746 11.309107
vt 0.390625 0.664062
vn -0.574803 0.000000 0.818898
v -7.386591 0.359309 2.271752
vt 0.093750 0.648438
vn -0.960630 -0.251969 0.149606
v -2.771193 -1.372305 10.283264
vt 0.367188 0.795563
vn -0.425197 -0.299213 0.858268
v -1.211213 -1.009048 10.884127
vt 0.437500 0.789062
vn -0.314961 -0.464567 0.826772
v -1.206179 -0.334741 11.885566
vt 0.445312 0.757812
vn -0.322835 -0.314961 0.897638
v 0.000000 -0.963860 11.707579
vt 0.494202 0.788330
vn 0.000000 -0.803150 0.598425
v 0.000000 -0.259281 12.244906
vt 0.494202 0.757080
vn 0.000000 -0.055118 1.000000
v 0.000000 -1.915875 11.601124
vt 0.494202 0.827393
vn 0.000000 0.125984 0.992126
v 1.334377 -1.866738 11.149214
vt 0.443359 0.825195
vn 0.425197 -0.039370 0.905512
v 1.211213 -1.009048 10.884127
vt 0.437500 0.789062
vn 0.314961 -0.464567 0.826772
v 1.206179 -0.334741 11.885566
vt 0.445312 0.757812
vn 0.322835 -0.314961 0.897638
v 0.983241 1.769343 13.208054
vt 0.448639 0.647308
vn 0.669291 -0.165354 0.724409
v 3.528534 -3.935286 8.774373
vt 0.301331 0.907349
vn 0.606299 -0.614173 0.511811
v 5.876942 -2.311158 6.523239
vt 0.176819 0.876404
vn 0.787402 -0.590551 0.196850
v 0.000000 -1.915875 11.601124
vt 0.494202 0.827393
vn 0.000000 0.125984 0.992126
v 3.562285 -4.567915 6.308224
vt 0.278381 0.943176
vn 0.543307 -0.842520 0.007874
v 1.534518 -5.349269 8.858527
vt 0.384369 0.952332
vn 0.370079 -0.889764 0.275591
v 0.000000 -5.442277 9.478746
vt 0.494202 0.975830
vn 0.000000 -0.842520 0.543307
v -1.634589 -4.559141 9.722794
vt 0.426544 0.939056
vn -0.385827 -0.503937 0.771654
v -2.351369 -3.207017 9.830091
vt 0.404663 0.906250
vn -0.440945 -0.393701 0.803150
v -1.334081 -1.866738 11.149214
vt 0.443359 0.825195
vn -0.425197 -0.039370 0.905512
v 0.000000 -1.163037 11.227898
vt 0.494202 0.796143
vn 0.000000 -0.385827 0.929134
v -3.893585 0.622977 10.707402
vt 0.313599 0.678558
vn -0.385827 -0.118110 0.913386
v -5.878126 0.235152 9.235540
vt 0.232025 0.700775
vn -0.700787 -0.212598 0.685039
f 1/1/1 2/2/2 3/3/3
f 4/4/4 5/5/5 6/6/6
f 7/7/7 8/8/8 9/9/9
f 10/10/10 11/11/11 12/12/12
f 13/13/13 5/5/5 14/14/14
f 15/15/15 16/16/16 17/17/17
f 18/18/18 19/19/19 20/20/20
f 20/20/20 19/19/19 21/21/21
f 20/20/20 21/21/21 22/22/22
f 21/21/21 23/23/23 24/24/24
f 24/24/24 23/23/23 25/25/25
f 24/24/24 25/25/25 26/26/26
f 27/27/27 28/28/28 29/29/29
f 29/29/29 28/28/28 30/30/30
f 2/2/2 1/1/1 17/17/17
f 17/17/17 1/1/1 31/31/31
f 17/17/17 31/31/31 15/15/15
f 32/32/32 33/33/33 34/34/34
f 34/34/34 33/33/33 35/35/35
f 34/34/34 35/35/35 36/36/36
f 37/37/37 38/38/38 39/39/39
f 39/39/39 38/38/38 10/10/10
f 39/39/39 10/10/10 40/40/40
f 40/40/40 10/10/10 12/12/12
f 40/40/40 12/12/12 29/29/29
f 29/29/29 12/12/12 41/41/41
f 29/29/29 41/41/41 27/27/27
f 5/5/5 4/4/4 14/14/14
f 14/14/14 4/4/4 42/42/42
f 14/14/14 42/42/42 9/9/9
f 9/9/9 42/42/42 43/43/43
f 9/9/9 43/43/43 7/7/7
f 44/44/44 13/13/13 38/38/38
f 38/38/38 13/13/13 14/14/14
f 38/38/38 14/14/14 10/10/10
f 10/10/10 14/14/14 9/9/9
f 10/10/10 9/9/9 11/11/11
f 11/11/11 9/9/9 8/8/8
f 24/24/24 45/45/45 21/21/21
f 21/21/21 45/45/45 46/46/46
f 21/21/21 46/46/46 22/22/22
f 22/22/22 46/46/46 47/47/47
f 22/22/22 47/47/47 20/20/20
f 20/20/20 47/47/47 48/48/48
f 20/20/20 48/48/48 18/18/18
f 18/18/18 48/48/48 49/49/49
f 16/16/16 21/21/21 17/17/17
f 17/17/17 21/21/21 19/19/19
f 17/17/17 19/19/19 2/2/2
f 2/2/2 19/19/19 18/18/18
f 2/2/2 18/18/18 3/3/3
f 3/3/3 18/18/18 49/49/49
f 3/3/3 49/49/49 32/32/32
f 32/32/32 49/49/49 50/50/50
f 32/32/32 50/50/50 33/33/33
f 33/33/33 50/50/50 51/51/51
f 33/33/33 51/51/51 35/35/35
f 26/26/26 7/7/7 24/24/24
f 24/24/24 7/7/7 43/43/43
f 24/24/24 43/43/43 45/45/45
f 45/45/45 43/43/43 42/42/42
f 45/45/45 42/42/42 46/46/46
f 46/46/46 42/42/42 4/4/4
f 46/46/46 4/4/4 47/47/47
f 47/47/47 4/4/4 6/6/6
f 47/47/47 6/6/6 48/48/48
f 48/48/48 6/6/6 5/5/5
f 48/48/48 5/5/5 49/49/49
f 49/49/49 5/5/5 13/13/13
f 49/49/49 13/13/13 50/50/50
f 50/50/50 13/13/13 37/37/37
f 50/50/50 37/37/37 51/51/51
f 51/51/51 37/37/37 39/39/39
f 51/51/51 39/39/39 35/35/35
f 35/35/35 39/39/39 40/40/40
f 35/35/35 40/40/40 36/36/36
f 36/36/36 40/40/40 29/29/29
f 36/36/36 29/29/29 34/34/34
f 34/34/34 29/29/29 30/30/30
f 34/34/34 30/30/30 32/32/32
f 32/32/32 30/30/30 52/52/52
f 32/32/32 52/52/52 3/3/3
f 3/3/3 52/52/52 53/53/53
f 3/3/3 53/53/53 1/1/1
usemtl texture00
v -1.775517 4.355577 10.728441
vt 0.398438 0.462036
vn -0.590551 -0.039370 0.811024
v -1.720745 3.321522 11.140377
vt 0.379456 0.542389
vn -0.700787 0.204724 0.685039
v -0.956594 4.754370 11.760596
vt 0.437500 0.465393
vn -0.645669 0.125984 0.755906
v -5.249279 3.786123 9.777495
vt 0.228027 0.497559
vn -0.527559 0.015748 0.858268
v -4.754550 2.824456 10.254230
vt 0.274994 0.568726
vn -0.456693 0.094488 0.881890
v -2.775042 3.676444 10.355636
vt 0.350098 0.490723
vn -0.275591 0.055118 0.960630
v -7.539065 2.789798 6.661252
vt 0.130463 0.553101
vn -0.968504 0.000000 0.259843
v -6.975649 5.172028 7.186797
vt 0.132812 0.421875
vn -0.944882 0.039370 0.330709
v -7.743648 5.748940 2.346649
vt 0.054688 0.445312
vn -0.992126 0.015748 0.157480
v -2.931069 7.367365 11.811089
vt 0.310547 0.299805
vn -0.417323 -0.196850 0.889764
v -3.342011 10.741971 10.998998
vt 0.320312 0.132812
vn -0.401575 0.307087 0.866142
v -5.831940 10.219021 9.214501
vt 0.203125 0.187500
vn -0.748031 0.251969 0.614173
v -7.534624 10.143123 2.082825
vt 0.007812 0.210938
vn -1.000000 0.102362 0.039370
v -7.543507 3.837014 -0.550371
vt 0.007812 0.523438
vn -1.000000 0.039370 -0.094488
v -2.057374 1.508746 11.309107
vt 0.390625 0.664062
vn -0.574803 0.000000 0.818898
v -0.983241 1.769343 13.208054
vt 0.448639 0.647308
vn -0.669291 -0.165354 0.724409
v -0.752604 3.364516 12.448560
vt 0.464264 0.532349
vn -0.661417 0.330709 0.677165
v 9.492520 3.339071 -0.904661
vt 0.992188 0.578125
vn 0.897638 -0.354331 -0.283465
v 9.701247 5.572137 -0.870158
vt 0.992188 0.398438
vn 0.897638 -0.086614 0.440945
v 8.986540 6.722013 0.808725
vt 0.979156 0.365448
vn 0.858268 -0.086614 0.511811
v 7.743648 5.748940 2.346649
vt 0.876709 0.473083
vn -0.795276 0.535433 -0.299213
v 8.986540 6.722013 0.808725
vt 0.979156 0.365448
vn -0.685039 0.559055 -0.464567
v 7.543507 3.837014 -0.550371
vt 0.968750 0.539062
vn -0.653543 0.141732 -0.740157
v 9.701247 5.572137 -0.870158
vt 0.992188 0.398438
vn -0.385827 0.322835 -0.866142
v 6.975649 5.172028 7.186797
vt 0.132812 0.421875
vn 0.944882 0.039370 0.330709
v 6.243770 6.986120 9.681559
vt 0.176331 0.334808
vn 0.763780 -0.102362 0.637795
v 6.134521 4.885985 8.822341
vt 0.187500 0.437500
vn 0.748031 -0.047244 0.661417
v 5.165788 6.283296 9.986198
vt 0.226562 0.367188
vn 0.503937 -0.204724 0.842520
v 1.720745 3.321522 11.140377
vt 0.379456 0.542389
vn 0.700787 0.204724 0.685039
v 0.956890 4.754370 11.760596
vt 0.437500 0.465393
vn 0.645669 0.125984 0.755906
v 0.752604 3.364516 12.448560
vt 0.464264 0.532349
vn 0.661417 0.330709 0.677165
v 0.000000 4.920643 12.104368
vt 0.494202 0.442657
vn 0.000000 0.196850 0.984252
v 0.000000 3.587823 12.837354
vt 0.494202 0.530518
vn 0.000000 0.503937 0.866142
v -9.492520 3.339071 -0.904661
vt 0.992188 0.578125
vn -0.889764 -0.354331 -0.283465
v -9.701247 5.572137 -0.870158
vt 0.992188 0.398438
vn 0.385827 0.322835 -0.866142
v -7.543507 3.837014 -0.550371
vt 0.968750 0.539062
vn 0.653543 0.141732 -0.740157
v -8.986540 6.701393 0.808725
vt 0.979156 0.365448
vn 0.685039 0.566929 -0.464567
v -7.743648 5.748940 2.346649
vt 0.876709 0.473083
vn 0.787402 0.543307 -0.299213
v -6.335847 3.704083 8.942682
vt 0.181244 0.521088
vn -0.763780 0.133858 0.637795
v -6.134521 4.885985 8.822341
vt 0.187500 0.437500
vn -0.748031 -0.047244 0.661417
v -6.354795 2.579214 9.130767
vt 0.196869 0.603119
vn -0.795276 -0.023622 0.606299
v -8.986540 6.701393 0.808725
vt 0.979156 0.365448
vn -0.858268 -0.086614 0.511811
v -9.701247 5.572137 -0.870158
vt 0.992188 0.398438
vn -0.897638 -0.086614 0.440945
v 1.775517 4.362596 10.728441
vt 0.398438 0.462036
vn 0.590551 -0.039370 0.811024
v 1.529485 5.881871 11.461848
vt 0.421875 0.406250
vn 0.496063 -0.291339 0.818898
v 0.000000 6.644799 12.420368
vt 0.494202 0.350830
vn 0.000000 -0.173228 0.984252
v -1.529485 5.881871 11.461848
vt 0.421875 0.406250
vn -0.496063 -0.291339 0.818898
v -2.797839 6.299090 10.832372
vt 0.342773 0.371094
vn -0.307087 -0.299213 0.905512
v 7.539362 2.789798 6.661252
vt 0.130463 0.553101
vn 0.968504 0.007874 0.251969
v 6.336143 3.700134 8.942682
vt 0.181244 0.521088
vn 0.763780 0.157480 0.629921
v 5.249279 3.790071 9.777495
vt 0.228027 0.497559
vn 0.527559 0.015748 0.850394
v 3.952799 5.209757 10.785245
vt 0.295990 0.420990
vn 0.267717 -0.086614 0.960630
v 7.386591 0.359309 2.271752
vt 0.851562 0.656250
vn -0.952756 -0.173228 -0.259843
v 7.802566 0.346586 0.790211
vt 0.945312 0.648438
vn -0.236220 -0.685039 -0.692913
v 7.386591 0.359309 2.271752
vt 0.851562 0.656250
vn 0.960630 -0.251969 0.149606
v 7.743648 5.748940 2.346649
vt 0.876709 0.473083
vn 0.992126 0.015748 0.157480
v 6.989564 0.084672 6.923394
vt 0.171875 0.726562
vn 0.913386 -0.330709 0.259843
v 6.467301 2.579214 9.130767
vt 0.196869 0.603119
vn 0.795276 -0.007874 0.606299
v 5.878126 0.235152 9.235540
vt 0.232025 0.700775
vn 0.692913 -0.228346 0.692913
v 4.754550 2.824456 10.254230
vt 0.274994 0.568726
vn 0.448819 0.102362 0.889764
v 3.817496 0.622977 10.707402
vt 0.313599 0.678558
vn 0.385827 -0.118110 0.921260
v 2.775042 3.676444 10.355636
vt 0.350098 0.490723
vn 0.283465 0.055118 0.960630
v 2.057374 1.508746 11.309107
vt 0.390625 0.664062
vn 0.574803 0.000000 0.818898
v 0.000000 14.375421 10.289575
vt 0.494202 0.007080
vn 0.000000 0.433071 0.905512
v 3.335202 10.739778 10.974593
vt 0.320312 0.132812
vn 0.401575 0.307087 0.866142
v 3.853912 14.060422 9.007060
vt 0.242188 0.007812
vn 0.574803 0.417323 0.708661
v 5.831940 10.219021 9.214501
vt 0.203125 0.187500
vn 0.748031 0.251969 0.622047
v 6.389435 12.582825 6.224911
vt 0.007812 0.007812
vn 0.897638 0.299213 0.330709
v 7.181120 8.992370 6.620858
vt 0.078125 0.296875
vn 0.968504 0.110236 0.236220
v 7.534624 10.143123 2.082825
vt 0.007812 0.210938
vn 1.000000 0.102362 0.039370
v 7.743648 5.748940 2.346649
vt 0.054688 0.445312
vn 0.992126 0.015748 0.157480
v 7.543507 3.837014 -0.550371
vt 0.007812 0.523438
vn 1.000000 0.039370 -0.094488
v -3.952799 5.209757 10.785245
vt 0.295990 0.420990
vn -0.267717 -0.086614 0.960630
v -5.165788 6.283296 9.986198
vt 0.226562 0.367188
vn -0.503937 -0.204724 0.842520
v -6.243770 6.986120 9.681559
vt 0.176331 0.334808
vn -0.763780 -0.102362 0.637795
v -7.181120 8.992370 6.620858
vt 0.078125 0.296875
vn -0.968504 0.110236 0.236220
v -7.743648 5.748940 2.346649
vt 0.876709 0.473083
vn -0.992126 0.015748 0.157480
v -7.386591 0.359309 2.271752
vt 0.851562 0.656250
vn -0.960630 -0.251969 0.149606
v -7.802566 0.346586 0.790211
vt 0.945312 0.648438
vn 0.236220 -0.685039 -0.692913
v -7.386591 0.359309 2.271752
vt 0.851562 0.656250
vn 0.952756 -0.173228 -0.259843
v 2.931069 7.367365 11.811089
vt 0.310547 0.299805
vn 0.417323 -0.196850 0.889764
v 2.797839 6.299090 10.832372
vt 0.342773 0.371094
vn 0.307087 -0.299213 0.905512
v 0.000000 10.856476 11.800570
vt 0.494202 0.151886
vn 0.000000 0.251969 0.968504
v 0.983241 1.769343 13.208054
vt 0.448639 0.647308
vn 0.669291 -0.165354 0.724409
v 0.000000 2.061090 13.787458
vt 0.494202 0.632080
vn 0.000000 0.023622 1.000000
v -6.389435 12.582825 6.224911
vt 0.007812 0.007812
vn -0.897638 0.299213 0.330709
v -3.853616 14.060422 9.007060
vt 0.242188 0.007812
vn -0.574803 0.417323 0.700787
v 7.386591 0.359309 2.271752
vt 0.093750 0.648438
vn 0.960630 -0.251969 0.149606
v -7.386591 0.359309 2.271752
vt 0.093750 0.648438
vn -0.960630 -0.251969 0.149606
v -6.989564 0.084672 6.923394
vt 0.171875 0.726562
vn -0.913386 -0.322835 0.259843
v -5.878126 0.235152 9.235540
vt 0.232025 0.700775
vn -0.700787 -0.212598 0.685039
v -3.893585 0.622977 10.707402
vt 0.313599 0.678558
vn -0.385827 -0.118110 0.913386
v 0.000000 1.310885 13.431064
vt 0.494202 0.678955
vn 0.000000 -0.708661 0.708661
f 54/54/54 55/55/55 56/56/56
f 57/57/57 58/58/58 59/59/59
f 60/60/60 61/61/61 62/62/62
f 63/63/63 64/64/64 65/65/65
f 62/62/62 66/66/66 67/67/67
f 68/68/68 69/69/69 70/70/70
f 71/71/71 72/72/72 73/73/73
f 74/74/74 75/75/75 76/76/76
f 76/76/76 75/75/75 77/77/77
f 76/76/76 77/77/77 71/71/71
f 78/78/78 79/79/79 80/80/80
f 80/80/80 79/79/79 81/81/81
f 82/82/82 83/83/83 84/84/84
f 84/84/84 83/83/83 85/85/85
f 84/84/84 85/85/85 86/86/86
f 55/55/55 54/54/54 59/59/59
f 87/87/87 88/88/88 89/89/89
f 89/89/89 88/88/88 90/90/90
f 89/89/89 90/90/90 91/91/91
f 58/58/58 57/57/57 92/92/92
f 92/92/92 57/57/57 93/93/93
f 92/92/92 93/93/93 61/61/61
f 61/61/61 60/60/60 92/92/92
f 92/92/92 60/60/60 94/94/94
f 92/92/92 94/94/94 58/58/58
f 95/95/95 96/96/96 87/87/87
f 82/82/82 97/97/97 83/83/83
f 83/83/83 97/97/97 98/98/98
f 83/83/83 98/98/98 85/85/85
f 85/85/85 98/98/98 99/99/99
f 85/85/85 99/99/99 100/100/100
f 100/100/100 99/99/99 63/63/63
f 100/100/100 63/63/63 101/101/101
f 102/102/102 78/78/78 103/103/103
f 103/103/103 78/78/78 80/80/80
f 103/103/103 80/80/80 104/104/104
f 104/104/104 80/80/80 81/81/81
f 104/104/104 81/81/81 105/105/105
f 106/106/106 76/76/76 107/107/107
f 107/107/107 76/76/76 71/71/71
f 107/107/107 71/71/71 108/108/108
f 108/108/108 71/71/71 73/73/73
f 108/108/108 73/73/73 109/109/109
f 110/110/110 111/111/111 112/112/112
f 112/112/112 111/111/111 113/113/113
f 112/112/112 113/113/113 114/114/114
f 114/114/114 113/113/113 115/115/115
f 114/114/114 115/115/115 116/116/116
f 117/117/117 118/118/118 119/119/119
f 119/119/119 118/118/118 120/120/120
f 119/119/119 120/120/120 121/121/121
f 121/121/121 120/120/120 122/122/122
f 121/121/121 122/122/122 123/123/123
f 123/123/123 122/122/122 124/124/124
f 123/123/123 124/124/124 125/125/125
f 126/126/126 101/101/101 127/127/127
f 127/127/127 101/101/101 63/63/63
f 127/127/127 63/63/63 128/128/128
f 128/128/128 63/63/63 65/65/65
f 128/128/128 65/65/65 129/129/129
f 130/130/130 95/95/95 131/131/131
f 131/131/131 95/95/95 87/87/87
f 131/131/131 87/87/87 132/132/132
f 132/132/132 87/87/87 89/89/89
f 132/132/132 89/89/89 133/133/133
f 79/79/79 134/134/134 81/81/81
f 81/81/81 134/134/134 135/135/135
f 81/81/81 135/135/135 105/105/105
f 105/105/105 135/135/135 115/115/115
f 105/105/105 115/115/115 104/104/104
f 104/104/104 115/115/115 113/113/113
f 104/104/104 113/113/113 103/103/103
f 103/103/103 113/113/113 111/111/111
f 103/103/103 111/111/111 102/102/102
f 102/102/102 111/111/111 110/110/110
f 64/64/64 63/63/63 136/136/136
f 136/136/136 63/63/63 99/99/99
f 136/136/136 99/99/99 134/134/134
f 134/134/134 99/99/99 98/98/98
f 134/134/134 98/98/98 135/135/135
f 135/135/135 98/98/98 97/97/97
f 135/135/135 97/97/97 115/115/115
f 115/115/115 97/97/97 82/82/82
f 115/115/115 82/82/82 116/116/116
f 116/116/116 82/82/82 84/84/84
f 116/116/116 84/84/84 137/137/137
f 137/137/137 84/84/84 86/86/86
f 137/137/137 86/86/86 138/138/138
f 66/66/66 129/129/129 139/139/139
f 139/139/139 129/129/129 65/65/65
f 139/139/139 65/65/65 140/140/140
f 140/140/140 65/65/65 64/64/64
f 140/140/140 64/64/64 117/117/117
f 117/117/117 64/64/64 136/136/136
f 117/117/117 136/136/136 118/118/118
f 118/118/118 136/136/136 134/134/134
f 118/118/118 134/134/134 120/120/120
f 120/120/120 134/134/134 79/79/79
f 120/120/120 79/79/79 122/122/122
f 122/122/122 79/79/79 78/78/78
f 122/122/122 78/78/78 124/124/124
f 124/124/124 78/78/78 102/102/102
f 124/124/124 102/102/102 141/141/141
f 141/141/141 102/102/102 110/110/110
f 62/62/62 142/142/142 60/60/60
f 60/60/60 142/142/142 143/143/143
f 60/60/60 143/143/143 94/94/94
f 94/94/94 143/143/143 144/144/144
f 94/94/94 144/144/144 58/58/58
f 58/58/58 144/144/144 145/145/145
f 58/58/58 145/145/145 59/59/59
f 59/59/59 145/145/145 68/68/68
f 59/59/59 68/68/68 55/55/55
f 55/55/55 68/68/68 70/70/70
f 55/55/55 70/70/70 56/56/56
f 66/66/66 62/62/62 129/129/129
f 129/129/129 62/62/62 61/61/61
f 129/129/129 61/61/61 128/128/128
f 128/128/128 61/61/61 93/93/93
f 128/128/128 93/93/93 127/127/127
f 127/127/127 93/93/93 57/57/57
f 127/127/127 57/57/57 126/126/126
f 126/126/126 57/57/57 59/59/59
f 126/126/126 59/59/59 101/101/101
f 101/101/101 59/59/59 54/54/54
f 101/101/101 54/54/54 100/100/100
f 100/100/100 54/54/54 56/56/56
f 100/100/100 56/56/56 85/85/85
f 85/85/85 56/56/56 70/70/70
f 85/85/85 70/70/70 86/86/86
f 86/86/86 70/70/70 69/69/69
f 86/86/86 69/69/69 138/138/138
f 138/138/138 69/69/69 146/146/146
f 138/138/138 146/146/146 137/137/137
