mtllib 3593-0.mtl
g mesh00
usemtl texture00
v -2.628422 -0.463558 -46.904319
vt 0.921143 0.283417
vn -0.992126 -0.173228 0.000000
v -0.575014 2.458667 15.828106
vt 0.878754 0.042969
vn -0.173228 0.992126 0.000000
v -0.463577 2.629050 -46.904319
vt 0.878754 0.283417
vn -0.173228 0.992126 0.000000
v 2.515499 0.293174 15.828106
vt 0.921143 0.042969
vn 0.992126 0.173228 0.000000
v 2.628422 0.463558 -46.904319
vt 0.921143 0.283417
vn 0.992126 0.173228 0.000000
v 0.350654 -2.799434 15.828106
vt 0.963501 0.042969
vn 0.173228 -0.992126 0.000000
v 0.463577 -2.629050 -46.904319
vt 0.963501 0.283417
vn 0.173228 -0.992126 0.000000
v -2.741344 -0.633942 15.828106
vt 0.921143 0.042969
vn -0.992126 -0.173228 0.000000
f 1/1/1 2/2/2 3/3/3
f 3/3/3 2/2/2 4/4/4
f 3/3/3 4/4/4 5/5/5
f 5/5/5 4/4/4 6/6/6
f 5/5/5 6/6/6 7/7/7
f 7/7/7 6/6/6 8/8/8
f 7/7/7 8/8/8 1/1/1
f 1/1/1 8/8/8 2/2/2
usemtl texture00
v -2.531843 14.366495 51.628375
vt 0.101562 0.781250
vn -0.133858 0.763780 -0.629921
v 3.580835 19.873032 58.899385
vt 0.105469 0.714844
vn 0.692913 0.708661 -0.149606
v 9.323542 12.931083 51.149244
vt 0.152344 0.785156
vn 0.724409 0.685039 -0.007874
v 4.204880 -0.375035 146.252375
vt 0.121094 0.003906
vn 0.937008 -0.354331 0.078740
v 1.788931 2.692825 212.775813
vt 0.058594 0.433594
vn 0.866142 -0.503937 0.031496
v 3.652154 -5.672162 149.034692
vt 0.058594 0.003906
vn 0.748031 -0.645669 0.165354
v -2.531843 14.366495 51.628375
vt 0.101562 0.781250
vn -0.133858 0.763780 -0.629921
v -2.827522 16.043681 30.664329
vt 0.089844 0.910156
vn -0.173228 0.984252 0.118110
v -13.183712 8.962759 51.149244
vt 0.152344 0.785156
vn -0.921260 0.393701 -0.007874
v 7.638619 -15.015667 66.725177
vt 0.386719 0.738281
vn 0.834646 -0.527559 0.157480
v 3.652154 -5.672162 149.034692
vt 0.628906 0.003906
vn 0.748031 -0.645669 0.165354
v 1.722069 -9.773747 149.648315
vt 0.685730 0.003906
vn 0.165354 -0.937008 0.314961
v -10.161547 17.449585 58.899385
vt 0.105469 0.714844
vn -0.897638 0.425197 -0.149606
v 4.384665 6.524081 210.212046
vt 0.105469 0.417969
vn 0.960630 0.299213 0.039370
v 3.022165 3.710369 244.650576
vt 0.058594 0.566406
vn 0.952756 -0.314961 0.055118
v -2.041521 -16.723312 66.725177
vt 0.386719 0.738281
vn -0.606299 -0.787402 0.157480
v 4.118703 -23.360665 67.809524
vt 0.425781 0.761719
vn 0.133858 -0.779528 0.622047
v 2.203476 -12.504647 71.953580
vt 0.457031 0.660156
vn 0.141732 -0.826772 0.543307
v 0.338768 26.384739 39.532440
vt 0.058594 0.792969
vn 0.897638 0.425197 -0.157480
v 3.206407 -0.446425 -71.634159
vt 0.644531 0.417969
vn 0.842520 -0.377953 0.385827
v 1.717612 6.112875 -76.391838
vt 0.597656 0.425781
vn 0.346457 0.937008 0.125984
v -1.100995 6.085271 -62.387788
vt 0.636719 0.464844
vn 0.740157 0.661417 0.149606
v -6.482648 10.108804 -57.066922
vt 0.574219 0.503906
vn 0.377953 0.913386 -0.149606
v -4.218253 5.572216 -53.654170
vt 0.628906 0.519531
vn 0.677165 0.149606 0.724409
v -1.554171 -9.295911 -81.082270
vt 0.621094 0.355469
vn -0.433071 -0.897638 -0.055118
v 11.486901 -7.152312 -99.196751
vt 0.652344 0.238281
vn 0.204724 -0.212598 -0.960630
v 9.534529 -3.221110 -85.175890
vt 0.675781 0.316406
vn 0.937008 -0.346457 -0.070866
v -9.879240 3.503814 -52.922866
vt 0.574219 0.503906
vn -0.370079 -0.889764 0.275591
v -4.124646 -0.165624 -61.219383
vt 0.636719 0.464844
vn -0.149606 -0.952756 0.275591
v -3.814109 -3.546648 -71.650971
vt 0.597656 0.425781
vn -0.259843 -0.897638 0.354331
v 1.754758 -4.411893 -55.343735
vt 0.785156 0.058594
vn 0.236220 -0.976378 0.023622
v 0.139667 -0.799566 -39.624904
vt 0.699219 0.199219
vn -0.125984 -0.440945 0.889764
v -4.776922 -0.648220 -53.343156
vt 0.722656 0.105469
vn -0.779528 -0.629921 0.023622
v -2.683397 15.223173 200.209154
vt 0.167969 0.394531
vn -0.173228 0.984252 0.039370
v -6.351895 4.629870 210.212046
vt 0.105469 0.417969
vn -1.000000 -0.039370 0.039370
v -1.316440 7.474042 262.538102
vt 0.066406 0.628906
vn -0.165354 0.968504 0.196850
v 13.222343 -8.858053 38.422875
vt 0.308594 0.996094
vn 0.755906 -0.637795 -0.181102
v 18.694631 0.608242 35.304326
vt 0.238281 0.996094
vn 0.960630 -0.086614 -0.283465
v 15.792818 -3.136394 66.758800
vt 0.308594 0.675781
vn 1.000000 -0.070866 0.094488
v 13.944453 9.254981 31.673024
vt 0.160156 0.996094
vn 0.889764 0.401575 -0.220472
v -3.821538 -1.790458 146.252375
vt 0.565948 0.003906
vn -0.755906 -0.653543 0.078740
v -8.744071 1.497283 143.982811
vt 0.506073 0.003906
vn -1.000000 -0.078740 0.055118
v 2.545216 9.613834 139.452089
vt 0.261719 0.003906
vn 0.803150 0.598425 0.023622
v -0.481407 2.734707 275.432587
vt 0.003906 0.722656
vn 0.165354 -0.960630 0.220472
v -4.108302 2.452955 244.650576
vt 0.058594 0.566406
vn -0.779528 -0.622047 0.055118
v -0.236246 1.339274 230.385947
vt 0.003906 0.582031
vn 0.173228 -0.984252 0.047244
v -2.601677 1.918959 212.775813
vt 0.058594 0.433594
vn -0.645669 -0.771654 0.031496
v 0.262991 -1.498235 215.642188
vt 0.003906 0.457031
vn 0.173228 -0.984252 0.110236
v -17.776392 -5.822557 35.304326
vt 0.636719 0.996094
vn -0.874016 -0.409449 -0.283465
v 0.313509 -1.781891 12.146369
vt 0.707031 0.832031
vn 0.086614 -0.527559 -0.850394
v -9.394862 -12.846367 38.422875
vt 0.707031 0.996094
vn -0.488189 -0.858268 -0.181102
v 3.196006 -18.130168 40.902584
vt 0.785156 0.996094
vn 0.157480 -0.921260 -0.370079
v 7.705481 4.398567 143.982811
vt 0.183594 0.003906
vn 0.968504 0.259843 0.055118
v -4.916590 1.969408 -74.870389
vt 0.558594 0.378906
vn -0.929134 0.307087 -0.220472
v 5.707048 8.437329 -83.646036
vt 0.621094 0.355469
vn 0.346457 0.937008 -0.047244
v -3.253953 0.600627 -82.687776
vt 0.574219 0.332031
vn -0.842520 0.228346 -0.496063
v 3.206407 -0.446425 -71.634159
vt 0.761719 0.003906
vn 0.842520 -0.377953 0.385827
v -1.100995 6.085271 -62.387788
vt 0.699219 0.019531
vn 0.740157 0.661417 0.149606
v 4.762064 0.714850 -53.343156
vt 0.722656 0.105469
vn 0.921260 0.362205 0.141732
v -4.218253 5.572216 -53.654170
vt 0.667969 0.113281
vn 0.677165 0.149606 0.724409
v 13.944453 9.254981 31.673024
vt 0.558594 0.996094
vn 0.889764 0.401575 -0.220472
v 18.694631 0.608242 35.304326
vt 0.636719 0.996094
vn 0.960630 -0.086614 -0.283465
v 13.222343 -8.858053 38.422875
vt 0.707031 0.996094
vn 0.755906 -0.637795 -0.181102
v -9.394862 -12.846367 38.422875
vt 0.308594 0.996094
vn -0.488189 -0.858268 -0.181102
v 3.196006 -18.130168 40.902584
vt 0.386719 0.996094
vn 0.157480 -0.921260 -0.370079
v 3.658097 -20.750652 52.510983
vt 0.394531 0.910156
vn 0.173228 -0.984252 -0.118110
v -2.613563 14.829101 134.929773
vt 0.339844 0.003906
vn -0.173228 0.984252 0.110236
v -5.678817 8.163192 139.452089
vt 0.261719 0.003906
vn -0.960630 0.291339 0.023622
v -8.744071 1.497283 143.982811
vt 0.183594 0.003906
vn -1.000000 -0.078740 0.055118
v -3.821538 -1.790458 146.252375
vt 0.121094 0.003906
vn -0.755906 -0.653543 0.078740
v -3.952290 22.414511 62.522281
vt 0.066406 0.660156
vn -0.165354 0.968504 0.196850
v -2.613563 14.829101 134.929773
vt 0.347656 0.003906
vn -0.173228 0.984252 0.110236
v -5.678817 8.163192 139.452089
vt 0.426849 0.003906
vn -0.960630 0.291339 0.023622
v -8.650464 2.068402 70.331262
vt 0.246094 0.636719
vn -0.992126 0.133858 0.086614
v -13.766155 -8.348806 66.758800
vt 0.308594 0.675781
vn -0.913386 -0.409449 0.094488
v -11.145162 7.576843 -55.898517
vt 0.527344 0.488281
vn -0.960630 0.181102 -0.220472
v 12.198611 -3.610423 -78.619373
vt 0.660156 0.371094
vn 0.787402 -0.472441 0.393701
v 4.559992 17.201148 25.158535
vt 0.074219 0.996094
vn 0.677165 0.700787 0.244094
v 7.421688 4.902104 70.331262
vt 0.246094 0.636719
vn 0.881890 0.464567 0.086614
v -5.499033 31.189753 38.254759
vt 0.003906 0.792969
vn -0.165354 0.976378 -0.157480
v -9.342858 24.678046 39.532440
vt 0.058594 0.792969
vn -0.984252 0.086614 -0.157480
v -3.619466 20.530771 41.255627
vt 0.082031 0.800781
vn 0.165354 -0.960630 0.244094
v -3.316358 18.810751 23.485783
vt 0.003906 0.996094
vn -0.181102 0.960630 -0.236220
v -4.124646 -0.165624 -61.219383
vt 0.699219 0.019531
vn -0.149606 -0.952756 0.275591
v -4.237569 19.702649 -15.954193
vt 0.585938 0.710938
vn 0.976378 0.125984 -0.196850
v -4.441126 15.746699 5.522605
vt 0.660156 0.753906
vn 0.244094 -0.929134 -0.283465
v -12.406626 15.061356 -13.373615
vt 0.527344 0.714844
vn -0.393701 -0.913386 0.125984
v -12.425942 17.962640 12.163181
vt 0.503906 0.871094
vn -0.984252 -0.181102 0.000000
v -13.439273 22.917096 -19.619119
vt 0.449219 0.714844
vn -0.677165 0.708661 -0.181102
v -8.227005 27.769702 8.515067
vt 0.415375 0.865906
vn -0.078740 0.992126 0.125984
v 4.094930 20.875346 12.163181
vt 0.503906 0.871094
vn 0.929134 0.259843 -0.259843
v -1.713154 9.722347 12.986949
vt 0.683594 0.792969
vn 0.086614 -0.527559 -0.850394
v -16.268281 3.927394 31.673024
vt 0.558594 0.996094
vn -0.976378 0.070866 -0.204724
v -10.167490 14.603509 25.158535
vt 0.074219 0.996094
vn -0.874016 0.409449 0.283465
v -16.268281 3.927394 31.673024
vt 0.160156 0.996094
vn -0.976378 0.070866 -0.204724
v -17.776392 -5.822557 35.304326
vt 0.238281 0.996094
vn -0.874016 -0.409449 -0.283465
v -1.491767 -6.579289 149.034692
vt 0.628906 0.003906
vn -0.480315 -0.866142 0.165354
v 0.864749 -4.909718 155.507152
vt 0.003906 0.019531
vn 0.165354 -0.937008 0.307087
v -1.491767 -6.579289 149.034692
vt 0.058594 0.003906
vn -0.480315 -0.866142 0.165354
v 1.722069 -9.773747 149.648315
vt 0.003906 0.003906
vn 0.165354 -0.937008 0.314961
v 4.559992 17.201148 25.158535
vt 0.472656 0.996094
vn 0.677165 0.700787 0.244094
v -3.316358 18.810751 23.485783
vt 0.402344 0.996094
vn -0.181102 0.960630 -0.236220
v -10.167490 14.603509 25.158535
vt 0.472656 0.996094
vn -0.874016 0.409449 0.283465
v 4.204880 -0.375035 146.252375
vt 0.565948 0.003906
vn 0.937008 -0.354331 0.078740
v 7.705481 4.398567 143.982811
vt 0.506073 0.003906
vn 0.968504 0.259843 0.055118
v 2.545216 9.613834 139.452089
vt 0.426849 0.003906
vn 0.803150 0.598425 0.023622
v -2.827522 16.043681 30.664329
vt 0.089844 0.910156
vn 0.157480 -0.905512 0.393701
f 9/9/9 10/10/10 11/11/11
f 12/12/12 13/13/13 14/14/14
f 15/15/15 16/16/16 17/17/17
f 18/18/18 19/19/19 20/20/20
f 21/21/21 15/15/15 17/17/17
f 13/13/13 22/22/22 23/23/23
f 24/24/24 25/25/25 26/26/26
f 10/10/10 9/9/9 27/27/27
f 28/28/28 29/29/29 30/30/30
f 30/30/30 29/29/29 31/31/31
f 30/30/30 31/31/31 32/32/32
f 33/33/33 34/34/34 35/35/35
f 32/32/32 36/36/36 37/37/37
f 37/37/37 36/36/36 38/38/38
f 37/37/37 38/38/38 28/28/28
f 39/39/39 40/40/40 41/41/41
f 42/42/42 43/43/43 44/44/44
f 45/45/45 46/46/46 47/47/47
f 47/47/47 46/46/46 48/48/48
f 24/24/24 49/49/49 50/50/50
f 51/51/51 42/42/42 22/22/22
f 22/22/22 42/42/42 44/44/44
f 22/22/22 44/44/44 23/23/23
f 52/52/52 53/53/53 54/54/54
f 54/54/54 53/53/53 55/55/55
f 54/54/54 55/55/55 56/56/56
f 57/57/57 58/58/58 59/59/59
f 59/59/59 58/58/58 60/60/60
f 13/13/13 12/12/12 22/22/22
f 22/22/22 12/12/12 61/61/61
f 22/22/22 61/61/61 51/51/51
f 62/62/62 63/63/63 64/64/64
f 65/65/65 66/66/66 67/67/67
f 67/67/67 66/66/66 68/68/68
f 69/69/69 70/70/70 58/58/58
f 58/58/58 70/70/70 71/71/71
f 58/58/58 71/71/71 60/60/60
f 72/72/72 73/73/73 74/74/74
f 74/74/74 73/73/73 45/45/45
f 74/74/74 45/45/45 18/18/18
f 18/18/18 45/45/45 47/47/47
f 51/51/51 75/75/75 42/42/42
f 42/42/42 75/75/75 76/76/76
f 42/42/42 76/76/76 43/43/43
f 43/43/43 76/76/76 77/77/77
f 43/43/43 77/77/77 78/78/78
f 79/79/79 21/21/21 80/80/80
f 80/80/80 21/21/21 17/17/17
f 80/80/80 17/17/17 81/81/81
f 81/81/81 17/17/17 82/82/82
f 81/81/81 82/82/82 50/50/50
f 50/50/50 82/82/82 83/83/83
f 50/50/50 83/83/83 24/24/24
f 84/84/84 31/31/31 62/62/62
f 62/62/62 31/31/31 29/29/29
f 62/62/62 29/29/29 63/63/63
f 63/63/63 29/29/29 28/28/28
f 63/63/63 28/28/28 85/85/85
f 85/85/85 28/28/28 38/38/38
f 16/16/16 15/15/15 86/86/86
f 86/86/86 15/15/15 11/11/11
f 86/86/86 11/11/11 48/48/48
f 48/48/48 11/11/11 87/87/87
f 48/48/48 87/87/87 47/47/47
f 79/79/79 88/88/88 21/21/21
f 21/21/21 88/88/88 89/89/89
f 21/21/21 89/89/89 9/9/9
f 9/9/9 89/89/89 90/90/90
f 9/9/9 90/90/90 27/27/27
f 27/27/27 90/90/90 86/86/86
f 27/27/27 86/86/86 91/91/91
f 68/68/68 92/92/92 41/41/41
f 41/41/41 92/92/92 65/65/65
f 41/41/41 65/65/65 39/39/39
f 39/39/39 65/65/65 67/67/67
f 39/39/39 67/67/67 40/40/40
f 40/40/40 67/67/67 68/68/68
f 40/40/40 68/68/68 41/41/41
f 93/93/93 94/94/94 95/95/95
f 95/95/95 94/94/94 96/96/96
f 95/95/95 96/96/96 97/97/97
f 97/97/97 96/96/96 98/98/98
f 97/97/97 98/98/98 93/93/93
f 93/93/93 98/98/98 99/99/99
f 93/93/93 99/99/99 94/94/94
f 94/94/94 99/99/99 100/100/100
f 94/94/94 100/100/100 96/96/96
f 96/96/96 100/100/100 101/101/101
f 16/16/16 102/102/102 17/17/17
f 17/17/17 102/102/102 103/103/103
f 17/17/17 103/103/103 82/82/82
f 82/82/82 103/103/103 104/104/104
f 82/82/82 104/104/104 83/83/83
f 83/83/83 104/104/104 72/72/72
f 83/83/83 72/72/72 24/24/24
f 24/24/24 72/72/72 74/74/74
f 24/24/24 74/74/74 25/25/25
f 25/25/25 74/74/74 18/18/18
f 25/25/25 18/18/18 26/26/26
f 26/26/26 18/18/18 20/20/20
f 26/26/26 20/20/20 24/24/24
f 24/24/24 20/20/20 105/105/105
f 24/24/24 105/105/105 49/49/49
f 106/106/106 14/14/14 56/56/56
f 56/56/56 14/14/14 13/13/13
f 56/56/56 13/13/13 54/54/54
f 54/54/54 13/13/13 23/23/23
f 54/54/54 23/23/23 52/52/52
f 52/52/52 23/23/23 44/44/44
f 52/52/52 44/44/44 53/53/53
f 53/53/53 44/44/44 43/43/43
f 53/53/53 43/43/43 55/55/55
f 55/55/55 43/43/43 78/78/78
f 55/55/55 78/78/78 56/56/56
f 56/56/56 78/78/78 107/107/107
f 56/56/56 107/107/107 106/106/106
f 106/106/106 107/107/107 108/108/108
f 106/106/106 108/108/108 14/14/14
f 38/38/38 33/33/33 85/85/85
f 85/85/85 33/33/33 35/35/35
f 85/85/85 35/35/35 63/63/63
f 63/63/63 35/35/35 34/34/34
f 63/63/63 34/34/34 64/64/64
f 64/64/64 34/34/34 33/33/33
f 64/64/64 33/33/33 62/62/62
f 62/62/62 33/33/33 38/38/38
f 62/62/62 38/38/38 84/84/84
f 84/84/84 38/38/38 36/36/36
f 84/84/84 36/36/36 95/95/95
f 95/95/95 36/36/36 32/32/32
f 95/95/95 32/32/32 93/93/93
f 93/93/93 32/32/32 31/31/31
f 93/93/93 31/31/31 97/97/97
f 97/97/97 31/31/31 84/84/84
f 97/97/97 84/84/84 95/95/95
f 57/57/57 101/101/101 58/58/58
f 58/58/58 101/101/101 100/100/100
f 58/58/58 100/100/100 69/69/69
f 69/69/69 100/100/100 99/99/99
f 69/69/69 99/99/99 109/109/109
f 109/109/109 99/99/99 98/98/98
f 109/109/109 98/98/98 110/110/110
f 110/110/110 98/98/98 96/96/96
f 110/110/110 96/96/96 111/111/111
f 111/111/111 96/96/96 101/101/101
f 19/19/19 18/18/18 112/112/112
f 112/112/112 18/18/18 47/47/47
f 112/112/112 47/47/47 113/113/113
f 113/113/113 47/47/47 87/87/87
f 113/113/113 87/87/87 114/114/114
f 114/114/114 87/87/87 11/11/11
f 114/114/114 11/11/11 80/80/80
f 80/80/80 11/11/11 10/10/10
f 80/80/80 10/10/10 79/79/79
f 79/79/79 10/10/10 27/27/27
f 79/79/79 27/27/27 88/88/88
f 88/88/88 27/27/27 91/91/91
f 88/88/88 91/91/91 89/89/89
f 89/89/89 91/91/91 102/102/102
f 89/89/89 102/102/102 90/90/90
f 90/90/90 102/102/102 115/115/115
f 90/90/90 115/115/115 86/86/86
g mesh01
