mtllib 3141-0.mtl
g mesh00
usemtl texture00
v -2.433426 -5.118919 13.568021
vt 0.010468 0.862091
vn -0.488189 0.393701 0.779528
v -1.477889 -5.643503 14.372327
vt 0.030701 0.877838
vn -0.283465 0.417323 0.866142
v 0.000000 -4.899702 13.524196
vt 0.072510 0.844574
vn 0.000000 0.787402 0.622047
v 19.594531 6.949962 0.966714
vt 0.332031 0.246094
vn 0.488189 -0.866142 -0.086614
v 18.049164 6.010788 0.994040
vt 0.332031 0.285156
vn 0.763780 -0.645669 -0.039370
v 18.147369 7.271096 -4.363875
vt 0.238281 0.257812
vn 0.716535 -0.669291 -0.204724
v -12.900351 -1.534137 10.700877
vt 0.507812 0.410156
vn -0.496063 0.551181 0.669291
v -8.925173 -4.735481 15.723663
vt 0.589844 0.496094
vn -0.314961 0.763780 0.559055
v -6.086276 -2.563306 14.749216
vt 0.589844 0.410156
vn -0.417323 0.559055 0.716535
v 14.764431 -3.490172 11.372163
vt 0.507812 0.496094
vn 0.377953 0.771654 0.519685
v 6.086276 -2.563306 14.749216
vt 0.589844 0.410156
vn 0.417323 0.559055 0.716535
v 8.925173 -4.735481 15.723663
vt 0.589844 0.496094
vn 0.314961 0.763780 0.559055
v -13.177493 4.261279 11.739772
vt 0.507812 0.285156
vn -0.409449 -0.826772 0.393701
v -5.048802 2.325628 14.632179
vt 0.589844 0.324219
vn -0.472441 -0.417323 0.771654
v -6.421859 4.099366 15.597346
vt 0.589844 0.285156
vn -0.307087 -0.850394 0.433071
v 2.079769 -5.466975 13.543273
vt 0.417969 0.777344
vn 0.330709 0.692913 -0.637795
v 5.475359 -5.979636 14.761590
vt 0.222656 0.777344
vn 0.330709 0.692913 -0.637795
v 7.152067 -7.662611 13.810859
vt 0.136719 0.847656
vn 0.330709 0.692913 -0.637795
v 1.551392 -8.089123 13.543273
vt 0.449219 0.863281
vn -0.669291 -0.456693 0.582677
v 4.153513 -10.997023 14.273335
vt 0.292969 0.941406
vn -0.503937 -0.425197 0.755906
v 2.079769 -5.466975 13.543273
vt 0.417969 0.777344
vn -0.275591 0.015748 0.960630
v 5.475359 -5.979636 14.761590
vt 0.222656 0.777344
vn -0.007874 -0.086614 1.000000
v 3.972768 -10.599740 13.369007
vt 0.300781 0.957031
vn -0.740157 -0.661417 -0.141732
v 5.647066 -12.602310 13.566990
vt 0.204285 0.989990
vn -0.354331 -0.661417 0.661417
v 7.152067 -7.662611 13.810859
vt 0.136719 0.847656
vn 0.322835 -0.157480 0.937008
v -16.238103 1.361071 -0.590855
vt 0.355469 0.011719
vn -0.944882 0.259843 -0.220472
v -10.712135 1.859887 -8.254962
vt 0.167969 0.011719
vn -0.551181 0.275591 -0.787402
v -11.050128 -0.638807 -8.898922
vt 0.167969 0.152344
vn -0.551181 0.236220 -0.803150
v -0.022292 1.969496 -10.981868
vt 0.011719 0.011719
vn 0.000000 0.228346 -0.976378
v -0.003012 -0.556889 -11.441766
vt 0.011719 0.152344
vn 0.000000 0.173228 -0.984252
v 11.039283 -0.638807 -8.898922
vt 0.167969 0.152344
vn 0.551181 0.236220 -0.803150
v -12.908785 -4.801246 11.460327
vt 0.628906 0.152344
vn -0.385827 0.196850 0.905512
v -7.801543 -6.823816 12.932310
vt 0.730469 0.152344
vn -0.125984 0.070866 0.992126
v -7.743102 -3.783231 12.728140
vt 0.730469 0.011719
vn -0.196850 0.125984 0.976378
v -0.021689 -4.898548 13.296825
vt 0.988281 0.011719
vn 0.000000 0.070866 1.000000
v 0.000000 -6.731898 14.972462
vt 0.072510 0.910522
vn 0.000000 -0.007874 1.000000
v 1.025425 -8.176810 14.372327
vt 0.114319 0.953888
vn 0.338583 -0.393701 0.858268
v 1.477889 -5.643503 14.372327
vt 0.114319 0.877838
vn 0.283465 0.417323 0.866142
v 1.549584 -8.592939 13.568021
vt 0.136139 0.966400
vn 0.598425 -0.440945 0.669291
v 2.433426 -5.118919 13.568021
vt 0.136139 0.862091
vn 0.488189 0.393701 0.779528
v -1.025425 -8.176810 14.372327
vt 0.030701 0.953888
vn -0.330709 -0.393701 0.858268
v -1.550187 -8.592939 13.568021
vt 0.010468 0.966400
vn -0.590551 -0.448819 0.669291
v 0.033137 -9.515575 13.547913
vt 0.072510 0.992767
vn 0.000000 -0.677165 0.740157
v -3.987228 -10.599740 13.369007
vt 0.300781 0.957031
vn 0.740157 -0.661417 -0.149606
v -1.551392 -8.089123 13.543273
vt 0.449219 0.863281
vn 0.677165 -0.456693 0.582677
v -4.153513 -10.997023 14.273335
vt 0.292969 0.941406
vn 0.503937 -0.425197 0.755906
v -2.079769 -5.466975 13.543273
vt 0.417969 0.777344
vn 0.275591 0.015748 0.960630
v -5.475359 -5.979636 14.761590
vt 0.222656 0.777344
vn 0.007874 -0.086614 1.000000
v -7.152067 -7.662611 13.810859
vt 0.136719 0.847656
vn -0.330709 0.692913 -0.637795
v -5.475359 -5.979636 14.761590
vt 0.222656 0.777344
vn -0.330709 0.692913 -0.637795
v -2.079769 -5.466975 13.543273
vt 0.417969 0.777344
vn -0.330709 0.692913 -0.637795
v -7.152067 -7.662611 13.810859
vt 0.136719 0.847656
vn -0.322835 -0.157480 0.937008
v -5.647066 -12.602310 13.566990
vt 0.204285 0.989990
vn 0.362205 -0.661417 0.653543
v 4.421015 -0.206526 14.508440
vt 0.589844 0.367188
vn 0.503937 0.125984 0.858268
v 12.900351 -1.534137 10.700877
vt 0.507812 0.410156
vn 0.496063 0.551181 0.669291
v 15.867576 4.575106 8.502441
vt 0.425781 0.285156
vn 0.606299 -0.779528 0.157480
v 16.206171 5.483128 9.214458
vt 0.425781 0.246094
vn 0.401575 -0.913386 0.055118
v 14.054707 5.101228 13.058627
vt 0.507812 0.246094
vn 0.283465 -0.937008 0.204724
v -14.764431 -3.490172 11.372163
vt 0.507812 0.496094
vn -0.377953 0.771654 0.519685
v -16.327270 -1.013015 7.348056
vt 0.425781 0.410156
vn -0.732283 0.559055 0.393701
v -17.794917 -2.777139 7.812594
vt 0.425781 0.496094
vn -0.622047 0.724409 0.307087
v 4.943970 2.325628 14.632179
vt 0.589844 0.324219
vn 0.472441 -0.417323 0.779528
v 12.182192 0.444973 10.483817
vt 0.507812 0.367188
vn 0.598425 0.125984 0.795276
v 16.327270 -1.013015 7.348056
vt 0.425781 0.410156
vn 0.732283 0.559055 0.393701
v -10.902519 3.346335 -11.392270
vt 0.097656 0.324219
vn -0.496063 -0.456693 -0.740157
v -15.527776 7.435702 -9.352633
vt 0.167969 0.257812
vn -0.598425 -0.645669 -0.480315
v -11.645380 6.628443 -13.435516
vt 0.093750 0.269531
vn -0.543307 -0.582677 -0.606299
v -14.539103 8.628706 -14.694564
vt 0.113281 0.167969
vn -0.503937 -0.826772 -0.259843
v -19.742140 8.696394 -4.531438
vt 0.246094 0.167969
vn -0.559055 -0.811024 -0.188976
v -17.675625 9.342893 -10.321925
vt 0.175781 0.167969
vn -0.503937 -0.779528 -0.377953
v -15.527776 7.435702 -9.352633
vt 0.167969 0.257812
vn -0.598425 -0.645669 -0.480315
v -14.539103 8.628706 -14.694564
vt 0.113281 0.167969
vn -0.480315 -0.669291 -0.566929
v -16.206171 5.483128 9.214458
vt 0.425781 0.246094
vn -0.409449 -0.913386 0.055118
v -19.594531 6.949962 0.966714
vt 0.332031 0.246094
vn -0.496063 -0.866142 -0.102362
v -18.049164 6.010788 0.994040
vt 0.332031 0.285156
vn -0.763780 -0.653543 -0.039370
v -18.147369 7.271096 -4.363875
vt 0.238281 0.257812
vn -0.716535 -0.669291 -0.204724
v -16.460419 4.228204 -4.196311
vt 0.230469 0.324219
vn -0.952756 -0.141732 -0.275591
v -14.380047 3.983604 -8.027075
vt 0.160156 0.324219
vn -0.771654 -0.220472 -0.606299
v -12.315943 -1.695282 10.826163
vt 0.628906 0.011719
vn -0.448819 0.267717 0.858268
v -15.406075 -0.466895 7.824452
vt 0.519531 0.011719
vn -0.818898 0.307087 0.480315
v -16.078445 -2.828290 8.241041
vt 0.519531 0.152344
vn -0.889764 0.275591 0.362205
v -16.827933 -1.246463 -0.720266
vt 0.355469 0.152344
vn -0.952756 0.220472 -0.228346
v -10.328956 6.534603 -15.830389
vt 0.089844 0.214844
vn -0.543307 -0.590551 -0.598425
v -6.819497 4.262048 -16.104678
vt 0.009888 0.238281
vn -0.527559 -0.629921 -0.574803
v -5.427763 2.567921 -14.256321
vt 0.009888 0.324219
vn -0.417323 -0.511811 -0.748031
v -5.108447 0.897253 -13.648967
vt 0.009888 0.367188
vn -0.370079 0.015748 -0.929134
v -17.589470 -0.049612 -4.205076
vt 0.230469 0.410156
vn -0.795276 0.456693 -0.401575
v -18.173878 -0.256907 1.118810
vt 0.332031 0.410156
vn -0.850394 0.527559 -0.047244
v -17.128571 1.561059 1.069830
vt 0.332031 0.367188
vn -0.976378 0.244094 0.007874
v -15.334982 0.828796 7.387755
vt 0.425781 0.367188
vn -0.858268 0.204724 0.472441
v -15.089169 3.122502 7.650701
vt 0.425781 0.324219
vn -0.881890 -0.228346 0.417323
v -12.182192 0.444973 10.483817
vt 0.507812 0.367188
vn -0.598425 0.118110 0.795276
v -12.086397 2.690221 10.761715
vt 0.507812 0.324219
vn -0.590551 -0.370079 0.716535
v -4.421015 -0.206526 14.508440
vt 0.589844 0.367188
vn -0.503937 0.110236 0.858268
v 6.824317 4.262048 -16.104678
vt 0.009888 0.238281
vn 0.527559 -0.629921 -0.574803
v 10.328956 6.534603 -15.830389
vt 0.089844 0.214844
vn 0.543307 -0.590551 -0.598425
v 11.645380 6.628443 -13.435516
vt 0.093750 0.269531
vn 0.543307 -0.582677 -0.606299
v 14.539103 8.628706 -14.694564
vt 0.113281 0.167969
vn 0.480315 -0.669291 -0.566929
v 15.527776 7.435702 -9.352633
vt 0.167969 0.257812
vn 0.598425 -0.645669 -0.480315
v 17.675625 9.342893 -10.321925
vt 0.175781 0.167969
vn 0.503937 -0.779528 -0.377953
v 19.741537 8.696394 -4.531438
vt 0.246094 0.167969
vn 0.559055 -0.811024 -0.188976
v -10.965178 1.098010 -10.854520
vt 0.097656 0.367188
vn -0.425197 0.031496 -0.905512
v -5.651886 -0.376516 -13.816531
vt 0.009888 0.410156
vn -0.314961 0.346457 -0.889764
v -19.636103 -2.047952 1.153870
vt 0.332031 0.496094
vn -0.795276 0.606299 -0.031496
v -19.126403 -1.891423 -4.300458
vt 0.230469 0.496094
vn -0.779528 0.566929 -0.267717
v -16.988796 -1.839119 -8.590605
vt 0.160156 0.496094
vn -0.590551 0.566929 -0.582677
v -15.318112 0.019999 -8.068837
vt 0.160156 0.410156
vn -0.543307 0.440945 -0.716535
v -13.190145 -2.171791 -11.999624
vt 0.097656 0.496094
vn -0.346457 0.480315 -0.811024
v 0.000000 -8.784466 13.603080
vt 0.988281 0.152344
vn 0.000000 0.078740 1.000000
v 7.801543 -6.807663 12.932310
vt 0.730469 0.152344
vn 0.125984 0.070866 0.992126
v 7.743102 -3.783231 12.728140
vt 0.730469 0.011719
vn 0.196850 0.125984 0.976378
v 12.900953 -4.801246 11.460327
vt 0.628906 0.152344
vn 0.385827 0.196850 0.905512
v 12.315943 -1.695282 10.826163
vt 0.628906 0.011719
vn 0.448819 0.267717 0.858268
v 16.078445 -2.828290 8.241041
vt 0.519531 0.152344
vn 0.826772 0.307087 0.472441
v 15.396435 -0.466895 7.824452
vt 0.519531 0.011719
vn 0.889764 0.275591 0.362205
v 16.818293 -1.246463 -0.720266
vt 0.355469 0.152344
vn 0.968504 0.251969 -0.094488
v 16.229065 1.361071 -0.590855
vt 0.355469 0.011719
vn 0.913386 0.236220 -0.338583
v 10.701893 1.859887 -8.254962
vt 0.167969 0.011719
vn 0.551181 0.275591 -0.795276
v 6.421859 4.107442 15.597346
vt 0.589844 0.285156
vn 0.307087 -0.850394 0.433071
v 12.000845 2.690221 10.761715
vt 0.507812 0.324219
vn 0.590551 -0.370079 0.724409
v 15.334982 0.828796 7.387755
vt 0.425781 0.367188
vn 0.858268 0.204724 0.472441
v 17.128571 1.561059 1.069830
vt 0.332031 0.367188
vn 0.976378 0.244094 0.007874
v 18.173878 -0.256907 1.118810
vt 0.332031 0.410156
vn 0.850394 0.527559 -0.047244
v 16.622486 1.364917 -4.200951
vt 0.230469 0.367188
vn 0.921260 0.149606 -0.370079
v 17.589470 -0.049612 -4.205076
vt 0.230469 0.410156
vn 0.795276 0.456693 -0.401575
v 14.498134 1.259923 -7.589863
vt 0.160156 0.367188
vn 0.708661 0.125984 -0.692913
v 15.318112 0.019999 -8.068837
vt 0.160156 0.410156
vn 0.543307 0.440945 -0.716535
v 10.965178 1.098010 -10.854520
vt 0.097656 0.367188
vn 0.425197 0.023622 -0.905512
v 11.556815 -0.221525 -11.236565
vt 0.097656 0.410156
vn 0.354331 0.354331 -0.866142
v 5.108447 0.897253 -13.648967
vt 0.009888 0.367188
vn 0.370079 0.007874 -0.929134
v 5.456682 -0.376516 -13.816531
vt 0.009888 0.410156
vn 0.307087 0.346457 -0.889764
v 5.427763 2.567921 -14.256321
vt 0.009888 0.324219
vn 0.417323 -0.511811 -0.748031
v 10.902519 3.346335 -11.392270
vt 0.097656 0.324219
vn 0.496063 -0.456693 -0.740157
v 14.380047 3.983604 -8.027075
vt 0.160156 0.324219
vn 0.771654 -0.220472 -0.606299
v 16.460419 4.228204 -4.196311
vt 0.230469 0.324219
vn 0.952756 -0.141732 -0.275591
v 16.914690 4.115519 1.021365
vt 0.332031 0.324219
vn 1.000000 -0.118110 0.007874
v 15.089169 3.122502 7.650701
vt 0.425781 0.324219
vn 0.881890 -0.228346 0.425197
v 13.177493 4.265125 11.739772
vt 0.507812 0.285156
vn 0.401575 -0.826772 0.393701
v 7.989518 5.179300 16.894032
vt 0.589844 0.246094
vn 0.212598 -0.944882 0.259843
v -11.556815 -0.221525 -11.236565
vt 0.097656 0.410156
vn -0.362205 0.354331 -0.866142
v -14.498134 1.259923 -7.589863
vt 0.160156 0.367188
vn -0.708661 0.125984 -0.692913
v -16.622486 1.364917 -4.200951
vt 0.230469 0.367188
vn -0.921260 0.149606 -0.370079
v -16.914690 4.115519 1.021365
vt 0.332031 0.324219
vn -1.000000 -0.118110 0.007874
v -15.867576 4.575106 8.502441
vt 0.425781 0.285156
vn -0.637795 -0.740157 0.204724
v -14.054707 5.101228 13.058627
vt 0.507812 0.246094
vn -0.283465 -0.937008 0.204724
v -7.989518 5.179300 16.894032
vt 0.589844 0.246094
vn -0.220472 -0.944882 0.259843
v 12.900351 -1.534137 10.700877
vt 0.507812 0.410156
vn 0.496063 0.551181 0.669291
v 17.794917 -2.777139 7.812594
vt 0.425781 0.496094
vn 0.622047 0.724409 0.307087
v 19.636103 -2.047952 1.153870
vt 0.332031 0.496094
vn 0.795276 0.606299 -0.031496
v 19.126403 -1.891423 -4.300458
vt 0.230469 0.496094
vn 0.779528 0.566929 -0.267717
v 16.988796 -1.839119 -8.590605
vt 0.160156 0.496094
vn 0.590551 0.566929 -0.582677
v 13.190145 -2.171791 -11.999624
vt 0.097656 0.496094
vn 0.346457 0.480315 -0.811024
v 7.232197 -2.573690 -14.695080
vt 0.009888 0.496094
vn 0.283465 0.448819 -0.850394
v -5.651886 -0.376516 -13.816531
vt 0.009888 0.410156
vn -0.314961 0.346457 -0.889764
v -7.232197 -2.573690 -14.695080
vt 0.009888 0.496094
vn -0.291339 0.448819 -0.850394
f 1/1/1 2/2/2 3/3/3
f 4/4/4 5/5/5 6/6/6
f 7/7/7 8/8/8 9/9/9
f 10/10/10 11/11/11 12/12/12
f 13/13/13 14/14/14 15/15/15
f 16/16/16 17/17/17 18/18/18
f 19/19/19 20/20/20 21/21/21
f 21/21/21 20/20/20 22/22/22
f 19/19/19 23/23/23 20/20/20
f 20/20/20 23/23/23 24/24/24
f 20/20/20 24/24/24 22/22/22
f 22/22/22 24/24/24 25/25/25
f 26/26/26 27/27/27 28/28/28
f 28/28/28 27/27/27 29/29/29
f 28/28/28 29/29/29 30/30/30
f 30/30/30 29/29/29 31/31/31
f 32/32/32 33/33/33 34/34/34
f 34/34/34 33/33/33 35/35/35
f 36/36/36 37/37/37 38/38/38
f 38/38/38 37/37/37 39/39/39
f 38/38/38 39/39/39 40/40/40
f 2/2/2 1/1/1 41/41/41
f 41/41/41 1/1/1 42/42/42
f 41/41/41 42/42/42 43/43/43
f 44/44/44 45/45/45 46/46/46
f 46/46/46 45/45/45 47/47/47
f 46/46/46 47/47/47 48/48/48
f 49/49/49 50/50/50 51/51/51
f 48/48/48 52/52/52 46/46/46
f 46/46/46 52/52/52 53/53/53
f 46/46/46 53/53/53 44/44/44
f 54/54/54 11/11/11 55/55/55
f 5/5/5 4/4/4 56/56/56
f 56/56/56 4/4/4 57/57/57
f 56/56/56 57/57/57 58/58/58
f 8/8/8 7/7/7 59/59/59
f 59/59/59 7/7/7 60/60/60
f 59/59/59 60/60/60 61/61/61
f 62/62/62 54/54/54 63/63/63
f 63/63/63 54/54/54 55/55/55
f 63/63/63 55/55/55 64/64/64
f 65/65/65 66/66/66 67/67/67
f 67/67/67 66/66/66 68/68/68
f 69/69/69 70/70/70 71/71/71
f 71/71/71 70/70/70 72/72/72
f 73/73/73 74/74/74 75/75/75
f 75/75/75 74/74/74 76/76/76
f 75/75/75 76/76/76 77/77/77
f 77/77/77 76/76/76 78/78/78
f 40/40/40 3/3/3 38/38/38
f 38/38/38 3/3/3 2/2/2
f 38/38/38 2/2/2 36/36/36
f 36/36/36 2/2/2 41/41/41
f 36/36/36 41/41/41 37/37/37
f 37/37/37 41/41/41 43/43/43
f 37/37/37 43/43/43 39/39/39
f 34/34/34 79/79/79 32/32/32
f 32/32/32 79/79/79 80/80/80
f 32/32/32 80/80/80 81/81/81
f 81/81/81 80/80/80 26/26/26
f 81/81/81 26/26/26 82/82/82
f 82/82/82 26/26/26 28/28/28
f 72/72/72 83/83/83 67/67/67
f 67/67/67 83/83/83 84/84/84
f 67/67/67 84/84/84 65/65/65
f 65/65/65 84/84/84 85/85/85
f 65/65/65 85/85/85 86/86/86
f 87/87/87 88/88/88 89/89/89
f 89/89/89 88/88/88 90/90/90
f 89/89/89 90/90/90 91/91/91
f 91/91/91 90/90/90 92/92/92
f 91/91/91 92/92/92 93/93/93
f 93/93/93 92/92/92 94/94/94
f 93/93/93 94/94/94 14/14/14
f 95/95/95 96/96/96 97/97/97
f 97/97/97 96/96/96 98/98/98
f 97/97/97 98/98/98 99/99/99
f 99/99/99 98/98/98 100/100/100
f 99/99/99 100/100/100 6/6/6
f 6/6/6 100/100/100 101/101/101
f 6/6/6 101/101/101 4/4/4
f 74/74/74 69/69/69 76/76/76
f 76/76/76 69/69/69 66/66/66
f 76/76/76 66/66/66 78/78/78
f 78/78/78 66/66/66 65/65/65
f 78/78/78 65/65/65 102/102/102
f 102/102/102 65/65/65 86/86/86
f 102/102/102 86/86/86 103/103/103
f 104/104/104 88/88/88 105/105/105
f 105/105/105 88/88/88 87/87/87
f 105/105/105 87/87/87 106/106/106
f 106/106/106 87/87/87 107/107/107
f 106/106/106 107/107/107 108/108/108
f 104/104/104 61/61/61 88/88/88
f 88/88/88 61/61/61 60/60/60
f 88/88/88 60/60/60 90/90/90
f 90/90/90 60/60/60 7/7/7
f 90/90/90 7/7/7 92/92/92
f 92/92/92 7/7/7 9/9/9
f 92/92/92 9/9/9 94/94/94
f 33/33/33 109/109/109 35/35/35
f 35/35/35 109/109/109 110/110/110
f 35/35/35 110/110/110 111/111/111
f 111/111/111 110/110/110 112/112/112
f 111/111/111 112/112/112 113/113/113
f 113/113/113 112/112/112 114/114/114
f 113/113/113 114/114/114 115/115/115
f 115/115/115 114/114/114 116/116/116
f 115/115/115 116/116/116 117/117/117
f 117/117/117 116/116/116 31/31/31
f 117/117/117 31/31/31 118/118/118
f 118/118/118 31/31/31 29/29/29
f 119/119/119 62/62/62 120/120/120
f 120/120/120 62/62/62 63/63/63
f 120/120/120 63/63/63 121/121/121
f 121/121/121 63/63/63 64/64/64
f 121/121/121 64/64/64 122/122/122
f 122/122/122 64/64/64 123/123/123
f 122/122/122 123/123/123 124/124/124
f 124/124/124 123/123/123 125/125/125
f 124/124/124 125/125/125 126/126/126
f 126/126/126 125/125/125 127/127/127
f 126/126/126 127/127/127 128/128/128
f 128/128/128 127/127/127 129/129/129
f 128/128/128 129/129/129 130/130/130
f 130/130/130 129/129/129 131/131/131
f 132/132/132 95/95/95 133/133/133
f 133/133/133 95/95/95 97/97/97
f 133/133/133 97/97/97 134/134/134
f 134/134/134 97/97/97 99/99/99
f 134/134/134 99/99/99 135/135/135
f 135/135/135 99/99/99 6/6/6
f 135/135/135 6/6/6 136/136/136
f 136/136/136 6/6/6 5/5/5
f 136/136/136 5/5/5 137/137/137
f 137/137/137 5/5/5 56/56/56
f 137/137/137 56/56/56 138/138/138
f 138/138/138 56/56/56 58/58/58
f 138/138/138 58/58/58 139/139/139
f 103/103/103 140/140/140 102/102/102
f 102/102/102 140/140/140 141/141/141
f 102/102/102 141/141/141 78/78/78
f 78/78/78 141/141/141 142/142/142
f 78/78/78 142/142/142 77/77/77
f 77/77/77 142/142/142 143/143/143
f 77/77/77 143/143/143 75/75/75
f 75/75/75 143/143/143 144/144/144
f 75/75/75 144/144/144 73/73/73
f 73/73/73 144/144/144 13/13/13
f 73/73/73 13/13/13 145/145/145
f 145/145/145 13/13/13 15/15/15
f 145/145/145 15/15/15 146/146/146
f 139/139/139 119/119/119 138/138/138
f 138/138/138 119/119/119 120/120/120
f 138/138/138 120/120/120 137/137/137
f 137/137/137 120/120/120 121/121/121
f 137/137/137 121/121/121 136/136/136
f 136/136/136 121/121/121 122/122/122
f 136/136/136 122/122/122 135/135/135
f 135/135/135 122/122/122 124/124/124
f 135/135/135 124/124/124 134/134/134
f 134/134/134 124/124/124 126/126/126
f 134/134/134 126/126/126 133/133/133
f 133/133/133 126/126/126 128/128/128
f 133/133/133 128/128/128 132/132/132
f 132/132/132 128/128/128 130/130/130
f 11/11/11 10/10/10 147/147/147
f 147/147/147 10/10/10 148/148/148
f 147/147/147 148/148/148 64/64/64
f 64/64/64 148/148/148 149/149/149
f 64/64/64 149/149/149 123/123/123
f 123/123/123 149/149/149 150/150/150
f 123/123/123 150/150/150 125/125/125
f 125/125/125 150/150/150 151/151/151
f 125/125/125 151/151/151 127/127/127
f 127/127/127 151/151/151 152/152/152
f 127/127/127 152/152/152 129/129/129
f 129/129/129 152/152/152 153/153/153
f 129/129/129 153/153/153 131/131/131
f 14/14/14 13/13/13 93/93/93
f 93/93/93 13/13/13 144/144/144
f 93/93/93 144/144/144 91/91/91
f 91/91/91 144/144/144 143/143/143
f 91/91/91 143/143/143 89/89/89
f 89/89/89 143/143/143 142/142/142
f 89/89/89 142/142/142 87/87/87
f 87/87/87 142/142/142 141/141/141
f 87/87/87 141/141/141 107/107/107
f 107/107/107 141/141/141 140/140/140
f 107/107/107 140/140/140 108/108/108
f 108/108/108 140/140/140 154/154/154
f 108/108/108 154/154/154 155/155/155
