mtllib 3437-0.mtl
g mesh00
usemtl texture00
v 1.828140 -4.148441 -78.803556
vt 0.894531 0.949219
vn 0.440945 -0.685039 -0.582677
v -1.843620 -3.500070 -80.247837
vt 0.792969 0.957031
vn -0.023622 -0.566929 -0.826772
v 2.986945 0.023321 -79.543750
vt 0.917969 0.989990
vn 0.574803 -0.055118 -0.818898
v 0.482098 -2.398931 18.113685
vt 0.417969 0.988464
vn 0.070866 -1.000000 -0.039370
v -0.344988 -2.855900 47.552936
vt 0.402344 0.839844
vn -0.425197 -0.905512 -0.039370
v -1.714618 -0.487434 18.552987
vt 0.339844 0.988464
vn -1.000000 0.015748 -0.047244
v 4.955881 0.000000 36.732868
vt 0.527344 0.910156
vn 0.267717 0.039370 -0.968504
v 7.215255 0.000000 37.473062
vt 0.566406 0.886719
vn 1.000000 0.000000 -0.047244
v 6.125743 -1.654544 38.351666
vt 0.542969 0.886719
vn 0.283465 -0.944882 -0.157480
v -8.597417 -2.215513 105.649120
vt 0.238281 0.519531
vn -0.338583 -0.944882 0.000000
v -20.220848 -0.007143 97.007509
vt 0.011719 0.574219
vn -0.196850 -0.984252 0.000000
v -18.599848 0.000000 80.055266
vt 0.027344 0.660156
vn -0.196850 -0.984252 -0.047244
v 7.255798 -2.171812 172.717897
vt 0.574219 0.144531
vn -0.401575 -0.913386 0.118110
v 0.193871 0.065762 175.907350
vt 0.433594 0.105469
vn -0.244094 -0.960630 0.125984
v -4.762009 0.031515 171.953632
vt 0.324219 0.113281
vn -0.188976 -0.968504 0.196850
v 5.839727 0.011556 -75.150730
vt 0.989990 0.917969
vn 0.944882 0.118110 -0.299213
v 2.318347 3.183658 -78.911877
vt 0.894531 0.949219
vn 0.574803 0.543307 -0.614173
v 6.796552 4.831268 71.534011
vt 0.550781 0.667969
vn 0.677165 0.732283 0.086614
v 3.951141 6.300083 82.618864
vt 0.449219 0.621094
vn 0.511811 0.850394 0.141732
v 8.290024 0.000000 81.824510
vt 0.566406 0.582031
vn 0.992126 -0.007874 0.141732
v 4.271802 -1.787538 42.546097
vt 0.506378 0.863953
vn 0.401575 -0.913386 -0.110236
v 3.003899 -0.578408 17.794740
vt 0.496094 0.988464
vn 1.000000 -0.007874 -0.102362
v 6.125743 1.654544 38.351666
vt 0.542969 0.886719
vn 0.283465 0.944882 -0.157480
v 5.031807 1.675974 46.987260
vt 0.527344 0.839844
vn 0.740157 0.677165 0.039370
v -3.540547 -4.617176 78.093452
vt 0.332031 0.683594
vn -0.566929 -0.748031 -0.346457
v -9.404600 -2.206059 82.275847
vt 0.199219 0.660156
vn -0.456693 -0.889764 -0.102362
v -5.417338 -1.405364 62.392919
vt 0.300781 0.753906
vn -0.299213 -0.952756 -0.086614
v 3.723361 2.867246 -70.811871
vt 0.917969 0.847656
vn 0.582677 0.811024 0.102362
v 5.351732 0.003782 -65.636532
vt 0.980469 0.769531
vn 0.944882 0.055118 0.330709
v 6.315928 0.007774 -71.287280
vt 0.989990 0.851562
vn 0.992126 0.149606 0.023622
v 3.632691 -3.488724 -76.570939
vt 0.910156 0.910156
vn 0.637795 -0.724409 -0.275591
v 3.190399 3.756393 -76.751474
vt 0.910156 0.910156
vn 0.590551 0.803150 -0.102362
v -0.100990 3.037428 -60.250569
vt 0.839844 0.746094
vn -0.015748 1.000000 0.031496
v 0.253581 2.844135 -64.222341
vt 0.832031 0.785156
vn 0.031496 1.000000 0.110236
v -3.864157 0.007774 -64.487125
vt 0.722656 0.769531
vn -1.000000 0.055118 0.062992
v -5.791812 3.230510 -77.383347
vt 0.683594 0.925781
vn -0.677165 0.700787 -0.244094
v -7.350154 0.023321 -78.129559
vt 0.652344 0.980469
vn -0.826772 0.039370 -0.559055
v -7.830778 0.038869 -74.952141
vt 0.597656 0.917969
vn -0.826772 0.007874 0.566929
v 6.091834 -3.945904 70.306372
vt 0.542969 0.714844
vn 0.204724 -0.716535 -0.669291
v 6.071930 0.000000 58.144327
vt 0.550781 0.777344
vn 0.992126 0.000000 -0.157480
v 9.111213 0.007774 67.321526
vt 0.605469 0.738281
vn 0.732283 -0.015748 -0.685039
v 7.984106 4.393418 68.940324
vt 0.574219 0.699219
vn 0.488189 0.732283 -0.480315
v 10.412288 0.000000 67.863131
vt 0.644531 0.730469
vn -0.110236 -0.070866 -0.992126
v 6.051290 4.144659 70.125837
vt 0.542969 0.714844
vn 0.173228 0.661417 -0.732283
v 6.849627 -0.331119 197.186417
vt 0.566406 0.009979
vn 0.015748 0.000000 1.000000
v 12.152707 -0.668751 195.976832
vt 0.699219 0.011719
vn 0.677165 -0.031496 0.740157
v 7.530019 4.769709 193.070217
vt 0.582031 0.050781
vn 0.196850 0.874016 0.448819
v 6.492108 -4.640707 72.189955
vt 0.550781 0.667969
vn 0.685039 -0.716535 0.165354
v 7.908179 -4.639236 69.602286
vt 0.574219 0.699219
vn 0.519685 -0.803150 -0.299213
v 8.305504 0.000000 72.930149
vt 0.613281 0.644531
vn 0.968504 0.000000 0.267717
v 10.412288 0.000000 67.863131
vt 0.644531 0.730469
vn 0.929134 0.023622 0.385827
v -8.049712 0.000000 47.715418
vt 0.261719 0.847656
vn -0.173228 0.984252 -0.055118
v -3.059186 0.893769 47.577008
vt 0.339844 0.839844
vn -0.385827 0.921260 -0.070866
v -5.334777 1.446544 62.344776
vt 0.300781 0.753906
vn -0.299213 0.952756 -0.086614
v 17.986537 -6.674483 170.756083
vt 0.800781 0.167969
vn 0.480315 -0.881890 0.055118
v 24.154297 -0.313891 169.793229
vt 0.942139 0.164001
vn 1.000000 -0.015748 0.118110
v 18.773079 -0.347297 175.949475
vt 0.863281 0.136719
vn 0.818898 -0.007874 0.574803
v 10.310561 -5.669151 172.037882
vt 0.636719 0.152344
vn -0.496063 -0.874016 0.055118
v 5.303817 -4.887365 159.869819
vt 0.527344 0.214844
vn -0.267717 -0.968504 0.047244
v -1.107204 -5.240545 -77.479632
vt 0.800781 0.902344
vn -0.086614 -0.992126 -0.110236
v 0.093618 -5.523341 -70.745674
vt 0.816406 0.847656
vn -0.354331 -0.929134 0.118110
v 2.857206 -3.244167 46.746546
vt 0.469788 0.841187
vn 0.346457 -0.944882 -0.015748
v 4.271802 -1.787538 42.546097
vt 0.506378 0.863953
vn 0.464567 -0.881890 -0.086614
v 5.031807 -1.675974 46.987260
vt 0.527344 0.839844
vn 0.740157 -0.677165 0.039370
v -1.398380 -3.194373 61.141209
vt 0.378906 0.761719
vn -0.362205 -0.929134 -0.102362
v 2.947875 -3.741265 58.553540
vt 0.471802 0.776184
vn 0.409449 -0.913386 -0.102362
v 1.590776 -5.710961 72.111723
vt 0.441406 0.707031
vn -0.283465 -0.826772 -0.480315
v -4.360998 -5.787857 79.736321
vt 0.339844 0.667969
vn -0.645669 -0.653543 -0.409449
v -4.534966 -5.845425 83.371093
vt 0.324219 0.636719
vn -0.330709 -0.944882 0.047244
v -0.872789 -4.409386 103.043398
vt 0.386719 0.527344
vn 0.141732 -0.992126 0.031496
v 1.531067 5.750039 71.943224
vt 0.441406 0.707031
vn -0.330709 0.787402 -0.527559
v -3.903963 5.873579 79.164626
vt 0.339844 0.667969
vn -0.653543 0.645669 -0.401575
v 1.296652 6.834580 72.797756
vt 0.433594 0.675781
vn -0.078740 0.960630 -0.259843
v -4.530543 5.729660 83.491450
vt 0.324219 0.636719
vn -0.307087 0.952756 0.062992
v -1.031277 5.758023 -77.088473
vt 0.800781 0.902344
vn -0.047244 1.000000 -0.086614
v -3.560450 3.089743 -74.735499
vt 0.722656 0.878906
vn -0.566929 0.645669 0.511811
v -4.498846 -0.031095 -73.483790
vt 0.636719 0.863281
vn -0.685039 -0.023622 0.732283
v 0.884584 1.343385 18.077578
vt 0.417969 0.988464
vn 0.110236 0.992126 -0.055118
v -0.188711 2.793501 47.444615
vt 0.402344 0.839844
vn -0.409449 0.913386 -0.055118
v -1.233257 3.287868 61.038906
vt 0.378906 0.761719
vn -0.354331 0.929134 -0.102362
v -3.286966 4.672012 77.648132
vt 0.332031 0.683594
vn -0.566929 0.755906 -0.338583
v -9.404600 2.206059 82.275847
vt 0.199219 0.660156
vn -0.417323 0.905512 -0.086614
v -0.417966 -2.074746 -60.364908
vt 0.839844 0.746094
vn -0.078740 -0.984252 0.173228
v 0.058235 -3.175254 -64.697750
vt 0.832031 0.785156
vn 0.031496 -0.937008 0.354331
v 4.330038 -4.243827 -71.203030
vt 0.917969 0.847656
vn 0.692913 -0.716535 0.086614
v 2.028645 -1.651813 113.008933
vt 0.457031 0.472656
vn 1.000000 -0.062992 -0.031496
v 0.202717 3.548603 119.652624
vt 0.394531 0.425781
vn 0.661417 0.748031 -0.078740
v 3.573718 -1.126771 126.597206
vt 0.472656 0.402344
vn 0.992126 0.000000 -0.149606
v 3.564873 4.859212 141.455242
vt 0.488281 0.316406
vn 0.598425 0.787402 -0.165354
v 6.236316 0.250650 141.003904
vt 0.544739 0.322479
vn 0.960630 0.047244 -0.291339
v 9.851315 4.952917 158.852804
vt 0.621094 0.222656
vn 0.425197 0.834646 -0.354331
v 11.605739 0.751741 156.144778
vt 0.663818 0.239136
vn 0.692913 0.110236 -0.716535
v 6.392592 5.003551 70.745674
vt 0.542969 0.683594
vn -0.007874 0.779528 -0.629921
v 6.305608 -5.200416 71.419672
vt 0.542969 0.683594
vn 0.094488 -0.881890 -0.464567
v -5.519066 -5.173523 120.789995
vt 0.300781 0.433594
vn -0.393701 -0.921260 0.015748
v -7.123111 -2.206269 128.420610
vt 0.269531 0.394531
vn -0.425197 -0.905512 0.055118
v -0.872789 -4.172812 143.760073
vt 0.394531 0.308594
vn -0.307087 -0.952756 0.070866
v -4.161967 -2.187360 148.213271
vt 0.355469 0.292969
vn -0.314961 -0.944882 0.086614
v 1.491998 -2.204588 161.705258
vt 0.449219 0.207031
vn -0.377953 -0.913386 0.157480
v 0.490207 -5.415769 119.026769
vt 0.394531 0.425781
vn 0.598425 -0.803150 -0.070866
v 3.978415 -4.183528 141.545509
vt 0.488281 0.316406
vn 0.606299 -0.787402 -0.125984
v 10.057717 -4.813620 158.238985
vt 0.621094 0.222656
vn 0.488189 -0.771654 -0.417323
v 16.404606 0.659296 157.552952
vt 0.770233 0.231384
vn 0.637795 0.055118 -0.771654
v 18.089738 6.574265 170.575548
vt 0.800781 0.167969
vn 0.480315 0.874016 0.078740
v -3.137324 -0.913939 47.637186
vt 0.339844 0.839844
vn -0.393701 -0.921260 -0.055118
v 4.271802 1.787538 42.546097
vt 0.506378 0.863953
vn 0.464567 0.881890 -0.102362
v 2.857206 3.244167 46.746546
vt 0.469788 0.841187
vn 0.330709 0.944882 -0.031496
v 2.947875 3.741265 58.553540
vt 0.471802 0.776184
vn 0.401575 0.913386 -0.110236
v 2.538755 0.204638 -57.849453
vt 0.917969 0.707031
vn 0.976378 -0.070866 0.220472
v 1.023906 0.000000 -38.796986
vt 0.917969 0.574219
vn 1.000000 -0.055118 0.047244
v -2.017588 -1.676605 -39.224252
vt 0.839844 0.574219
vn -0.031496 -1.000000 0.000000
v 0.879424 -0.007774 -22.681222
vt 0.917969 0.480469
vn 1.000000 -0.031496 -0.015748
v -1.798654 -1.792580 -23.174685
vt 0.839844 0.480469
vn 0.000000 -1.000000 -0.007874
v 1.694715 -0.390788 -6.920511
vt 0.917969 0.386719
vn 1.000000 -0.039370 -0.055118
v -1.031277 -1.910027 -6.559441
vt 0.839844 0.386719
vn 0.000000 -1.000000 -0.007874
v 3.003899 -0.578408 17.794740
vt 0.917969 0.241394
vn 1.000000 -0.007874 -0.102362
v 0.482098 -2.398931 18.113685
vt 0.839844 0.241394
vn 0.070866 -1.000000 -0.039370
v -3.143958 0.570844 -60.816246
vt 0.753906 0.746094
vn -1.000000 0.031496 0.062992
v -4.518749 -0.007774 -39.115931
vt 0.761719 0.574219
vn -1.000000 -0.023622 -0.023622
v -1.979993 2.281275 -39.085842
vt 0.839844 0.574219
vn -0.007874 1.000000 0.015748
v -4.658071 -0.019329 -23.066364
vt 0.761719 0.480469
vn -1.000000 -0.039370 0.023622
v -1.870895 1.920532 -23.066364
vt 0.839844 0.480469
vn 0.000000 1.000000 0.015748
v -3.898066 -0.395200 -6.770065
vt 0.761719 0.386719
vn -1.000000 -0.015748 0.062992
v -0.986311 1.538568 -6.986707
vt 0.839844 0.386719
vn 0.023622 1.000000 0.015748
v -1.714618 -0.487434 18.552987
vt 0.761719 0.241394
vn -1.000000 0.015748 -0.047244
v 0.884584 1.343385 18.077578
vt 0.839844 0.241394
vn 0.110236 0.992126 -0.055118
v -19.516866 -0.004832 113.917626
vt 0.011719 0.472656
vn -0.188976 -0.984252 0.007874
v -18.203997 -0.004832 131.321207
vt 0.035156 0.363281
vn -0.188976 -0.984252 0.023622
v -14.591209 -0.002311 152.239203
vt 0.097656 0.238281
vn -0.181102 -0.984252 0.055118
v -10.185245 -0.002311 164.894711
vt 0.175781 0.152344
vn -0.173228 -0.984252 0.094488
v 0.193871 0.065762 175.907350
vt 0.433594 0.105469
vn -0.236220 0.968504 0.118110
v 1.158068 0.007984 196.091171
vt 0.433594 0.019531
vn -0.952756 -0.007874 0.307087
v 7.380377 2.240515 172.772058
vt 0.574219 0.144531
vn -0.393701 0.913386 0.118110
v 10.371745 5.678605 171.363884
vt 0.636719 0.152344
vn -0.480315 0.874016 0.062992
v 1.301075 2.263206 162.150578
vt 0.449219 0.207031
vn -0.370079 0.921260 0.157480
v 5.505797 5.020569 160.628066
vt 0.527344 0.214844
vn -0.275591 0.960630 0.062992
v -3.811082 2.237364 148.544252
vt 0.355469 0.292969
vn -0.354331 0.929134 0.094488
v -0.865418 4.816561 143.790162
vt 0.394531 0.308594
vn -0.314961 0.952756 0.047244
v -7.171763 2.128111 128.546985
vt 0.269531 0.394531
vn -0.370079 0.929134 0.031496
v -4.692717 4.062510 121.090886
vt 0.302338 0.432037
vn -0.244094 0.976378 0.000000
v -8.650492 2.034406 105.655138
vt 0.238281 0.519531
vn -0.267717 0.968504 0.000000
v -0.648695 4.081208 103.019326
vt 0.386719 0.527344
vn 0.236220 0.968504 0.094488
v -13.116903 0.000000 62.386901
vt 0.136719 0.753906
vn -0.181102 0.984252 -0.055118
v -18.599848 0.000000 80.055266
vt 0.027344 0.660156
vn -0.204724 0.984252 -0.047244
v -20.220848 -0.007143 97.007509
vt 0.011719 0.574219
vn -0.196850 0.984252 0.000000
v -19.516866 -0.004832 113.917626
vt 0.011719 0.472656
vn -0.181102 0.984252 0.007874
v -18.203997 -0.004832 131.321207
vt 0.035156 0.363281
vn -0.181102 0.984252 0.023622
v -14.591209 -0.002311 152.239203
vt 0.097656 0.238281
vn -0.181102 0.984252 0.047244
v -10.185245 -0.002311 164.894711
vt 0.175781 0.152344
vn -0.173228 0.984252 0.094488
v -4.762009 0.031515 171.953632
vt 0.324219 0.113281
vn -0.188976 0.968504 0.181102
v 7.681136 -4.735462 193.647929
vt 0.582031 0.050781
vn 0.141732 -0.889764 0.433071
v 15.227372 -0.507814 182.171917
vt 0.769531 0.089844
vn 0.921260 -0.023622 0.401575
v -13.116903 0.000000 62.386901
vt 0.136719 0.753906
vn -0.173228 -0.984252 -0.055118
v -8.049712 0.000000 47.715418
vt 0.261719 0.847656
vn -0.181102 -0.984252 -0.047244
v -1.806762 3.687480 -80.283944
vt 0.792969 0.957031
vn -0.007874 0.543307 -0.842520
v -2.073612 0.000000 -81.325029
vt 0.777344 0.989990
vn -0.275591 0.000000 -0.960630
v -5.860367 -3.586001 -77.533793
vt 0.683594 0.925781
vn -0.645669 -0.724409 -0.251969
v -3.421865 -3.023351 -74.765589
vt 0.722656 0.878906
vn -0.598425 -0.645669 0.480315
v -2.673654 -0.011556 -69.993445
vt 0.691406 0.824219
vn -0.960630 0.031496 0.275591
v 0.003686 3.900102 -71.070638
vt 0.816406 0.847656
vn -0.275591 0.937008 0.212598
v 3.882586 -0.692072 96.670510
vt 0.527344 0.550781
vn 0.976378 -0.055118 0.228346
v 3.831722 -6.609562 82.540632
vt 0.449219 0.621094
vn 0.496063 -0.866142 0.118110
v 1.178708 -6.884374 73.513879
vt 0.433594 0.675781
vn -0.039370 -0.984252 -0.196850
v 6.046867 0.000000 47.233991
vt 0.558594 0.832031
vn 1.000000 0.000000 0.055118
f 1/1/1 2/2/2 3/3/3
f 4/4/4 5/5/5 6/6/6
f 7/7/7 8/8/8 9/9/9
f 10/10/10 11/11/11 12/12/12
f 13/13/13 14/14/14 15/15/15
f 16/16/16 3/3/3 17/17/17
f 18/18/18 19/19/19 20/20/20
f 21/21/21 4/4/4 22/22/22
f 8/8/8 23/23/23 24/24/24
f 25/25/25 26/26/26 27/27/27
f 28/28/28 29/29/29 30/30/30
f 31/31/31 1/1/1 3/3/3
f 17/17/17 32/32/32 16/16/16
f 33/33/33 34/34/34 35/35/35
f 36/36/36 37/37/37 38/38/38
f 39/39/39 40/40/40 41/41/41
f 42/42/42 43/43/43 44/44/44
f 45/45/45 46/46/46 47/47/47
f 48/48/48 49/49/49 50/50/50
f 50/50/50 49/49/49 51/51/51
f 50/50/50 51/51/51 42/42/42
f 6/6/6 52/52/52 53/53/53
f 53/53/53 52/52/52 54/54/54
f 55/55/55 56/56/56 57/57/57
f 55/55/55 58/58/58 59/59/59
f 2/2/2 1/1/1 60/60/60
f 60/60/60 1/1/1 31/31/31
f 60/60/60 31/31/31 61/61/61
f 5/5/5 4/4/4 62/62/62
f 62/62/62 4/4/4 63/63/63
f 62/62/62 63/63/63 64/64/64
f 65/65/65 66/66/66 67/67/67
f 25/25/25 68/68/68 26/26/26
f 26/26/26 68/68/68 69/69/69
f 26/26/26 69/69/69 70/70/70
f 71/71/71 72/72/72 73/73/73
f 73/73/73 72/72/72 74/74/74
f 73/73/73 74/74/74 19/19/19
f 75/75/75 36/36/36 76/76/76
f 76/76/76 36/36/36 38/38/38
f 76/76/76 38/38/38 77/77/77
f 78/78/78 6/6/6 79/79/79
f 79/79/79 6/6/6 53/53/53
f 79/79/79 53/53/53 80/80/80
f 80/80/80 53/53/53 54/54/54
f 80/80/80 54/54/54 81/81/81
f 81/81/81 54/54/54 82/82/82
f 83/83/83 84/84/84 29/29/29
f 29/29/29 84/84/84 85/85/85
f 29/29/29 85/85/85 30/30/30
f 30/30/30 85/85/85 16/16/16
f 30/30/30 16/16/16 28/28/28
f 28/28/28 16/16/16 32/32/32
f 86/86/86 87/87/87 88/88/88
f 88/88/88 87/87/87 89/89/89
f 88/88/88 89/89/89 90/90/90
f 90/90/90 89/89/89 91/91/91
f 90/90/90 91/91/91 92/92/92
f 44/44/44 93/93/93 42/42/42
f 42/42/42 93/93/93 18/18/18
f 42/42/42 18/18/18 50/50/50
f 50/50/50 18/18/18 20/20/20
f 50/50/50 20/20/20 48/48/48
f 48/48/48 94/94/94 49/49/49
f 49/49/49 94/94/94 39/39/39
f 49/49/49 39/39/39 43/43/43
f 43/43/43 39/39/39 41/41/41
f 43/43/43 41/41/41 44/44/44
f 44/44/44 41/41/41 40/40/40
f 10/10/10 95/95/95 96/96/96
f 96/96/96 95/95/95 97/97/97
f 96/96/96 97/97/97 98/98/98
f 98/98/98 97/97/97 59/59/59
f 98/98/98 59/59/59 99/99/99
f 99/99/99 59/59/59 58/58/58
f 99/99/99 58/58/58 13/13/13
f 70/70/70 86/86/86 100/100/100
f 100/100/100 86/86/86 88/88/88
f 100/100/100 88/88/88 101/101/101
f 101/101/101 88/88/88 90/90/90
f 101/101/101 90/90/90 102/102/102
f 102/102/102 90/90/90 92/92/92
f 102/102/102 92/92/92 103/103/103
f 103/103/103 92/92/92 91/91/91
f 103/103/103 91/91/91 104/104/104
f 64/64/64 66/66/66 62/62/62
f 62/62/62 66/66/66 65/65/65
f 62/62/62 65/65/65 5/5/5
f 5/5/5 65/65/65 105/105/105
f 5/5/5 105/105/105 6/6/6
f 8/8/8 7/7/7 23/23/23
f 23/23/23 7/7/7 106/106/106
f 23/23/23 106/106/106 24/24/24
f 24/24/24 106/106/106 107/107/107
f 24/24/24 107/107/107 108/108/108
f 29/29/29 109/109/109 83/83/83
f 83/83/83 109/109/109 110/110/110
f 83/83/83 110/110/110 111/111/111
f 111/111/111 110/110/110 112/112/112
f 111/111/111 112/112/112 113/113/113
f 113/113/113 112/112/112 114/114/114
f 113/113/113 114/114/114 115/115/115
f 115/115/115 114/114/114 116/116/116
f 115/115/115 116/116/116 117/117/117
f 35/35/35 118/118/118 33/33/33
f 33/33/33 118/118/118 119/119/119
f 33/33/33 119/119/119 120/120/120
f 120/120/120 119/119/119 121/121/121
f 120/120/120 121/121/121 122/122/122
f 122/122/122 121/121/121 123/123/123
f 122/122/122 123/123/123 124/124/124
f 124/124/124 123/123/123 125/125/125
f 124/124/124 125/125/125 126/126/126
f 11/11/11 10/10/10 127/127/127
f 127/127/127 10/10/10 96/96/96
f 127/127/127 96/96/96 128/128/128
f 128/128/128 96/96/96 98/98/98
f 128/128/128 98/98/98 129/129/129
f 129/129/129 98/98/98 99/99/99
f 129/129/129 99/99/99 130/130/130
f 130/130/130 99/99/99 13/13/13
f 130/130/130 13/13/13 15/15/15
f 131/131/131 132/132/132 133/133/133
f 133/133/133 132/132/132 134/134/134
f 133/133/133 134/134/134 135/135/135
f 135/135/135 134/134/134 136/136/136
f 135/135/135 136/136/136 137/137/137
f 137/137/137 136/136/136 138/138/138
f 137/137/137 138/138/138 139/139/139
f 139/139/139 138/138/138 140/140/140
f 139/139/139 140/140/140 141/141/141
f 141/141/141 140/140/140 142/142/142
f 141/141/141 142/142/142 82/82/82
f 52/52/52 143/143/143 54/54/54
f 54/54/54 143/143/143 144/144/144
f 54/54/54 144/144/144 82/82/82
f 82/82/82 144/144/144 145/145/145
f 82/82/82 145/145/145 141/141/141
f 141/141/141 145/145/145 146/146/146
f 141/141/141 146/146/146 139/139/139
f 139/139/139 146/146/146 147/147/147
f 139/139/139 147/147/147 137/137/137
f 137/137/137 147/147/147 148/148/148
f 137/137/137 148/148/148 135/135/135
f 135/135/135 148/148/148 149/149/149
f 135/135/135 149/149/149 133/133/133
f 133/133/133 149/149/149 150/150/150
f 133/133/133 150/150/150 131/131/131
f 14/14/14 13/13/13 132/132/132
f 132/132/132 13/13/13 58/58/58
f 132/132/132 58/58/58 151/151/151
f 151/151/151 58/58/58 55/55/55
f 151/151/151 55/55/55 152/152/152
f 152/152/152 55/55/55 57/57/57
f 152/152/152 57/57/57 104/104/104
f 104/104/104 57/57/57 56/56/56
f 104/104/104 56/56/56 103/103/103
f 103/103/103 56/56/56 55/55/55
f 103/103/103 55/55/55 102/102/102
f 102/102/102 55/55/55 59/59/59
f 102/102/102 59/59/59 101/101/101
f 101/101/101 59/59/59 97/97/97
f 101/101/101 97/97/97 100/100/100
f 100/100/100 97/97/97 95/95/95
f 100/100/100 95/95/95 70/70/70
f 70/70/70 95/95/95 10/10/10
f 70/70/70 10/10/10 26/26/26
f 26/26/26 10/10/10 12/12/12
f 26/26/26 12/12/12 27/27/27
f 27/27/27 12/12/12 153/153/153
f 27/27/27 153/153/153 154/154/154
f 3/3/3 16/16/16 31/31/31
f 31/31/31 16/16/16 85/85/85
f 31/31/31 85/85/85 61/61/61
f 61/61/61 85/85/85 84/84/84
f 61/61/61 84/84/84 35/35/35
f 35/35/35 84/84/84 83/83/83
f 35/35/35 83/83/83 118/118/118
f 118/118/118 83/83/83 111/111/111
f 118/118/118 111/111/111 119/119/119
f 119/119/119 111/111/111 113/113/113
f 119/119/119 113/113/113 121/121/121
f 121/121/121 113/113/113 115/115/115
f 121/121/121 115/115/115 123/123/123
f 123/123/123 115/115/115 117/117/117
f 123/123/123 117/117/117 125/125/125
f 75/75/75 155/155/155 36/36/36
f 36/36/36 155/155/155 156/156/156
f 36/36/36 156/156/156 37/37/37
f 37/37/37 156/156/156 157/157/157
f 37/37/37 157/157/157 38/38/38
f 38/38/38 157/157/157 158/158/158
f 38/38/38 158/158/158 77/77/77
f 77/77/77 158/158/158 159/159/159
f 77/77/77 159/159/159 76/76/76
f 76/76/76 159/159/159 160/160/160
f 76/76/76 160/160/160 75/75/75
f 104/104/104 47/47/47 152/152/152
f 152/152/152 47/47/47 46/46/46
f 152/152/152 46/46/46 151/151/151
f 151/151/151 46/46/46 45/45/45
f 151/151/151 45/45/45 132/132/132
f 132/132/132 45/45/45 47/47/47
f 132/132/132 47/47/47 134/134/134
f 134/134/134 47/47/47 104/104/104
f 134/134/134 104/104/104 136/136/136
f 136/136/136 104/104/104 91/91/91
f 136/136/136 91/91/91 138/138/138
f 138/138/138 91/91/91 89/89/89
f 138/138/138 89/89/89 140/140/140
f 140/140/140 89/89/89 87/87/87
f 140/140/140 87/87/87 142/142/142
f 142/142/142 87/87/87 86/86/86
f 142/142/142 86/86/86 161/161/161
f 161/161/161 86/86/86 70/70/70
f 161/161/161 70/70/70 162/162/162
f 162/162/162 70/70/70 69/69/69
f 162/162/162 69/69/69 163/163/163
f 163/163/163 69/69/69 68/68/68
f 163/163/163 68/68/68 67/67/67
f 67/67/67 68/68/68 25/25/25
f 67/67/67 25/25/25 65/65/65
f 65/65/65 25/25/25 27/27/27
f 65/65/65 27/27/27 105/105/105
f 105/105/105 27/27/27 154/154/154
f 105/105/105 154/154/154 6/6/6
f 19/19/19 18/18/18 73/73/73
f 73/73/73 18/18/18 93/93/93
f 73/73/73 93/93/93 71/71/71
f 71/71/71 93/93/93 44/44/44
f 71/71/71 44/44/44 108/108/108
f 108/108/108 44/44/44 40/40/40
f 108/108/108 40/40/40 24/24/24
f 24/24/24 40/40/40 164/164/164
f 24/24/24 164/164/164 8/8/8
f 8/8/8 164/164/164 64/64/64
f 8/8/8 64/64/64 9/9/9
f 9/9/9 64/64/64 63/63/63
f 9/9/9 63/63/63 7/7/7
f 7/7/7 63/63/63 22/22/22
f 7/7/7 22/22/22 106/106/106
f 106/106/106 22/22/22 78/78/78
f 106/106/106 78/78/78 107/107/107
f 107/107/107 78/78/78 79/79/79
f 107/107/107 79/79/79 108/108/108
f 108/108/108 79/79/79 80/80/80
f 108/108/108 80/80/80 71/71/71
f 71/71/71 80/80/80 81/81/81
f 71/71/71 81/81/81 72/72/72
f 72/72/72 81/81/81 82/82/82
f 72/72/72 82/82/82 74/74/74
f 74/74/74 82/82/82 142/142/142
f 74/74/74 142/142/142 19/19/19
f 19/19/19 142/142/142 161/161/161
f 19/19/19 161/161/161 20/20/20
f 20/20/20 161/161/161 162/162/162
f 20/20/20 162/162/162 48/48/48
f 48/48/48 162/162/162 163/163/163
f 48/48/48 163/163/163 94/94/94
f 94/94/94 163/163/163 67/67/67
f 94/94/94 67/67/67 39/39/39
f 39/39/39 67/67/67 66/66/66
f 39/39/39 66/66/66 40/40/40
f 40/40/40 66/66/66 64/64/64
f 40/40/40 64/64/64 164/164/164
f 34/34/34 160/160/160 35/35/35
f 35/35/35 160/160/160 159/159/159
f 35/35/35 159/159/159 61/61/61
f 61/61/61 159/159/159 158/158/158
f 61/61/61 158/158/158 60/60/60
f 60/60/60 158/158/158 157/157/157
f 60/60/60 157/157/157 2/2/2
f 2/2/2 157/157/157 156/156/156
f 2/2/2 156/156/156 3/3/3
f 3/3/3 156/156/156 155/155/155
f 3/3/3 155/155/155 17/17/17
f 17/17/17 155/155/155 75/75/75
f 17/17/17 75/75/75 32/32/32
f 32/32/32 75/75/75 160/160/160
f 32/32/32 160/160/160 28/28/28
f 28/28/28 160/160/160 34/34/34
f 28/28/28 34/34/34 29/29/29
f 29/29/29 34/34/34 33/33/33
f 29/29/29 33/33/33 109/109/109
f 109/109/109 33/33/33 120/120/120
f 109/109/109 120/120/120 110/110/110
f 110/110/110 120/120/120 122/122/122
f 110/110/110 122/122/122 112/112/112
f 112/112/112 122/122/122 124/124/124
f 112/112/112 124/124/124 114/114/114
f 114/114/114 124/124/124 126/126/126
f 114/114/114 126/126/126 116/116/116
