mtllib 2168-0.mtl
g mesh00
usemtl texture00
v 7.251581 53.859394 -1.429185
vt 0.009979 0.013031
vn 0.952756 0.299213 -0.102362
v 9.106591 48.184677 -1.137652
vt 0.042969 0.014374
vn 0.944882 0.259843 -0.204724
v 7.154053 52.624176 -5.894354
vt 0.009979 0.144531
vn 0.905512 0.236220 -0.346457
v 7.592438 47.378004 -7.327682
vt 0.050781 0.146271
vn 0.842520 0.291339 -0.456693
v 4.376464 51.769888 -9.272099
vt 0.009979 0.272247
vn 0.559055 0.267717 -0.787402
v 0.002955 44.571456 -13.258284
vt 0.194641 0.436829
vn 0.000000 0.464567 -0.889764
v -6.458055 44.089693 -11.713624
vt 0.194641 0.272247
vn -0.527559 0.488189 -0.700787
v -5.650244 46.994275 -10.308776
vt 0.050781 0.272247
vn -0.543307 0.409449 -0.732283
v -8.420444 43.666751 -9.023545
vt 0.194641 0.146271
vn -0.834646 0.385827 -0.393701
v -7.576183 47.378004 -7.327682
vt 0.050781 0.146271
vn -0.866142 0.283465 -0.417323
v -8.336708 48.190279 -1.112797
vt 0.042969 0.014374
vn -0.976378 0.196850 -0.118110
v 0.002955 46.837422 -12.153772
vt 0.050781 0.436829
vn 0.062992 0.330709 -0.944882
v 5.656155 46.994275 -10.308776
vt 0.050781 0.272247
vn 0.535433 0.409449 -0.740157
v 6.463966 44.089693 -11.713624
vt 0.194641 0.272247
vn 0.527559 0.488189 -0.700787
v 8.425370 43.666751 -9.023545
vt 0.194641 0.146271
vn 0.811024 0.393701 -0.433071
v 0.002955 51.341343 -11.122791
vt 0.009979 0.436829
vn 0.015748 0.244094 -0.976378
v -4.351835 51.769888 -9.272099
vt 0.009979 0.272247
vn -0.629921 0.275591 -0.732283
v -7.147650 52.624176 -5.894354
vt 0.009979 0.144531
vn -0.937008 0.188976 -0.299213
v -7.245671 53.859394 -1.429185
vt 0.009979 0.013031
vn -0.984252 0.181102 -0.070866
f 1/1/1 2/2/2 3/3/3
f 3/3/3 2/2/2 4/4/4
f 3/3/3 4/4/4 5/5/5
f 6/6/6 7/7/7 8/8/8
f 8/8/8 7/7/7 9/9/9
f 8/8/8 9/9/9 10/10/10
f 10/10/10 9/9/9 11/11/11
f 8/8/8 12/12/12 6/6/6
f 6/6/6 12/12/12 13/13/13
f 6/6/6 13/13/13 14/14/14
f 14/14/14 13/13/13 15/15/15
f 2/2/2 15/15/15 4/4/4
f 4/4/4 15/15/15 13/13/13
f 4/4/4 13/13/13 5/5/5
f 5/5/5 13/13/13 12/12/12
f 5/5/5 12/12/12 16/16/16
f 16/16/16 12/12/12 8/8/8
f 16/16/16 8/8/8 17/17/17
f 17/17/17 8/8/8 10/10/10
f 17/17/17 10/10/10 18/18/18
f 18/18/18 10/10/10 11/11/11
f 18/18/18 11/11/11 19/19/19
usemtl texture00
v 8.136233 56.828397 2.844390
vt 0.292969 0.761719
vn 0.897638 0.125984 0.433071
v 8.805140 58.282088 -0.517303
vt 0.352844 0.730469
vn 0.976378 0.220472 0.062992
v 6.621587 58.122434 4.917226
vt 0.235291 0.732880
vn 0.889764 0.181102 0.417323
v -0.004926 56.934832 -11.073598
vt 0.688782 0.761719
vn 0.000000 0.133858 -0.992126
v -6.508297 53.231982 -8.355556
vt 0.589844 0.839844
vn -0.637795 0.141732 -0.755906
v -6.679218 58.304495 -7.709834
vt 0.546875 0.731750
vn -0.724409 0.173228 -0.669291
v 6.562972 56.125359 5.498739
vt 0.222656 0.769531
vn 0.881890 0.196850 0.440945
v 4.664123 57.116894 9.416571
vt 0.105469 0.761719
vn 0.755906 0.322835 0.566929
v -6.913187 48.842899 -9.669785
vt 0.613281 0.917969
vn -0.669291 0.417323 -0.614173
v -8.933700 43.593926 -13.676165
vt 0.636719 0.989990
vn -0.559055 0.629921 -0.543307
v -12.004367 42.871282 -7.949585
vt 0.464844 0.989990
vn -0.826772 0.519685 -0.236220
v -4.639002 59.455684 8.848522
vt 0.113281 0.707031
vn -0.653543 0.346457 0.677165
v -7.048151 60.640484 2.839211
vt 0.274872 0.690979
vn -0.866142 0.330709 0.385827
v -6.621587 58.122434 4.917226
vt 0.235291 0.732880
vn -0.889764 0.181102 0.417323
v 9.738063 48.184677 0.410114
vt 0.332031 0.917969
vn 0.944882 0.236220 0.244094
v 5.579314 47.879374 7.532221
vt 0.167969 0.917969
vn 0.881890 0.015748 0.472441
v 7.558944 43.921637 5.085518
vt 0.167969 0.989990
vn 0.803150 0.204724 0.566929
v 2.040708 63.326592 7.649767
vt 0.066406 0.808594
vn 0.362205 0.622047 0.700787
v 0.002955 63.976411 8.007063
vt 0.144470 0.792511
vn -0.007874 0.700787 0.716535
v 0.002955 62.475104 9.459550
vt 0.144470 0.847656
vn 0.000000 0.598425 0.803150
v -2.034797 63.318189 7.604716
vt 0.066406 0.808594
vn -0.370079 0.622047 0.692913
v 4.093730 45.226878 7.518758
vt 0.824219 0.410156
vn 0.755906 -0.220472 0.622047
v 5.503459 46.478900 5.355303
vt 0.738281 0.410156
vn 0.874016 -0.165354 0.464567
v 6.270879 52.192831 5.980830
vt 0.738281 0.097656
vn 0.921260 -0.133858 0.370079
v 12.470336 40.997449 0.683006
vt 0.250000 0.989990
vn 0.858268 0.338583 0.385827
v 8.010136 58.430538 -1.983771
vt 0.941406 0.989990
vn 0.393701 0.740157 -0.543307
v 8.010136 58.430538 1.983771
vt 0.832031 0.989990
vn 0.393701 0.740157 0.543307
v 16.139965 55.520355 0.000000
vt 0.886719 0.777344
vn 1.000000 0.000000 0.000000
v 8.010136 58.430538 1.983771
vt 0.985474 0.989990
vn 0.393701 0.740157 0.543307
v 8.010136 54.657663 3.209453
vt 0.792969 0.989990
vn 0.377953 -0.283465 0.881890
v 8.010136 52.304868 0.000000
vt 0.985474 0.989990
vn 0.370079 -0.937008 0.000000
v 8.010136 54.657663 -3.209453
vt 0.792969 0.989990
vn 0.377953 -0.283465 -0.881890
v 8.010136 58.430538 -1.983771
vt 0.985474 0.989990
vn 0.393701 0.740157 -0.543307
v -16.140458 55.520355 0.000000
vt 0.886719 0.777344
vn -1.000000 0.000000 0.000000
v -8.010136 58.430538 1.983771
vt 0.832031 0.989990
vn -0.393701 0.740157 0.543307
v -8.010136 58.430538 -1.983771
vt 0.941406 0.989990
vn -0.393701 0.740157 -0.543307
v -8.010136 54.657663 3.209453
vt 0.792969 0.989990
vn -0.377953 -0.283465 0.881890
v -8.010136 58.430538 1.983771
vt 0.985474 0.989990
vn -0.393701 0.740157 0.543307
v -8.010136 58.430538 -1.983771
vt 0.985474 0.989990
vn -0.393701 0.740157 -0.543307
v -8.010136 54.657663 -3.209453
vt 0.792969 0.989990
vn -0.377953 -0.283465 -0.881890
v -8.010136 52.304868 0.000000
vt 0.985474 0.989990
vn -0.370079 -0.937008 0.000000
v 3.043576 80.151875 0.238715
vt 0.386719 0.285156
vn 0.921260 0.133858 0.370079
v -0.002463 82.499068 2.633637
vt 0.324219 0.167969
vn 0.000000 0.000000 1.000000
v 0.014284 76.799143 2.620691
vt 0.285156 0.300781
vn 0.000000 0.102362 1.000000
v -3.014022 80.151875 0.238715
vt 0.386719 0.285156
vn -0.929134 0.125984 0.354331
v -4.221798 74.135443 0.221627
vt 0.363281 0.386719
vn -0.866142 0.173228 0.472441
v -2.851474 72.818998 -5.279183
vt 0.496094 0.425781
vn -0.842520 0.220472 -0.496063
v -8.136233 56.828397 2.844390
vt 0.292969 0.761719
vn -0.897638 0.125984 0.433071
v -9.014974 52.475726 1.124707
vt 0.332031 0.839844
vn -0.960630 0.062992 0.291339
v -6.497953 54.327152 5.550003
vt 0.222656 0.792969
vn -0.881890 0.055118 0.480315
v -6.977714 53.856593 3.142654
vt 0.613281 0.097656
vn -0.976378 -0.031496 0.228346
v -5.977801 54.111479 7.394481
vt 0.746094 0.042969
vn -0.905512 0.031496 0.425197
v -6.835362 55.705217 4.137388
vt 0.613281 0.042969
vn -0.976378 -0.047244 0.228346
v -6.270879 52.192831 5.980830
vt 0.738281 0.097656
vn -0.921260 -0.133858 0.370079
v -4.814849 51.811902 9.283491
vt 0.824219 0.097656
vn -0.724409 0.000000 0.692913
v -3.731693 53.439252 9.356504
vt 0.855469 0.042969
vn -0.472441 0.275591 0.842520
v 9.014974 52.475726 1.124707
vt 0.332031 0.839844
vn 0.960630 0.062992 0.291339
v 0.008866 53.472863 -11.279690
vt 0.699219 0.839844
vn 0.000000 0.220472 -0.976378
v 6.508297 53.231982 -8.355556
vt 0.589844 0.839844
vn 0.637795 0.149606 -0.755906
v 6.970325 48.837297 -9.705515
vt 0.613281 0.917969
vn 0.669291 0.417323 -0.614173
v -4.664123 57.116894 9.416571
vt 0.105469 0.761719
vn -0.755906 0.322835 0.566929
v -6.562972 56.125359 5.498739
vt 0.222656 0.769531
vn -0.881890 0.196850 0.440945
v -6.562972 56.125359 5.498739
vt 0.993286 0.615265
vn -0.881890 0.196850 0.440945
v -5.257175 56.044132 9.937499
vt 0.933594 0.615265
vn -0.653543 0.574803 0.496063
v -4.664123 57.116894 9.416571
vt 0.933594 0.535156
vn -0.755906 0.322835 0.566929
v -3.130760 55.486743 11.617827
vt 0.861786 0.613373
vn -0.338583 0.488189 0.803150
v -2.330338 57.660278 10.563026
vt 0.879944 0.517029
vn -0.393701 0.377953 0.842520
v 0.002463 58.044007 11.269852
vt 0.808228 0.503540
vn 0.000000 0.417323 0.913386
v -8.759331 52.837048 -4.021914
vt 0.464844 0.839844
vn -0.960630 0.141732 -0.251969
v -9.406072 48.411553 -4.870622
vt 0.464844 0.917969
vn -0.913386 0.362205 -0.181102
v 11.703408 43.714367 -1.199273
vt 0.332031 0.989990
vn 0.921260 0.401575 0.023622
v 9.432178 48.403150 -4.921369
vt 0.464844 0.917969
vn 0.913386 0.362205 -0.173228
v 8.759331 52.834247 -4.022950
vt 0.464844 0.839844
vn 0.960630 0.141732 -0.251969
v -9.742496 48.193080 0.462414
vt 0.332031 0.917969
vn -0.944882 0.228346 0.244094
v -11.703408 43.714367 -1.199273
vt 0.332031 0.989990
vn -0.921260 0.401575 0.023622
v -12.455066 40.994648 0.660739
vt 0.250000 0.989990
vn -0.858268 0.330709 0.393701
v -2.330338 57.660278 10.563026
vt 0.050781 0.761719
vn -0.393701 0.377953 0.842520
v 0.002463 58.044007 11.269852
vt 0.009979 0.751282
vn 0.000000 0.417323 0.913386
v 0.000000 59.903835 10.728211
vt 0.009979 0.691406
vn 0.000000 0.377953 0.929134
v 2.333293 57.660278 10.563026
vt 0.050781 0.761719
vn 0.393701 0.377953 0.842520
v 4.639002 59.455684 8.848522
vt 0.113281 0.707031
vn 0.653543 0.346457 0.677165
v -0.041376 91.778603 3.228095
vt 0.316406 0.011719
vn 0.000000 1.000000 0.118110
v 1.805753 86.095483 0.949166
vt 0.402344 0.152344
vn 0.952756 0.314961 0.007874
v 0.030047 84.042389 -2.296535
vt 0.488281 0.128906
vn 0.000000 0.574803 -0.818898
v 2.442643 81.252647 -2.283072
vt 0.464844 0.269531
vn 0.748031 0.346457 -0.566929
v -0.031524 80.207894 -4.664530
vt 0.550781 0.246094
vn 0.000000 0.448819 -0.897638
v 0.001970 58.156045 11.352185
vt 0.144470 0.989990
vn 0.000000 0.236220 0.976378
v 2.243646 58.777855 10.257512
vt 0.082031 0.988281
vn 0.385827 0.244094 0.889764
v 0.002463 59.951451 10.905824
vt 0.144470 0.941406
vn 0.000000 0.346457 0.944882
v 3.191839 59.679760 9.563114
vt 0.035156 0.941406
vn 0.393701 0.409449 0.826772
v 3.204153 62.175403 7.936639
vt 0.035156 0.855469
vn 0.401575 0.535433 0.740157
v -3.197749 62.169801 7.902981
vt 0.035156 0.855469
vn -0.409449 0.543307 0.732283
v -3.187898 59.674158 9.540848
vt 0.035156 0.941406
vn -0.401575 0.409449 0.818898
v -2.238228 58.775054 10.246638
vt 0.082031 0.988281
vn -0.385827 0.244094 0.889764
v 0.000000 54.674469 10.789314
vt 0.993286 0.008453
vn 0.000000 0.307087 0.952756
v -1.803783 50.870784 11.029065
vt 0.925781 0.105469
vn -0.511811 0.000000 0.858268
v -4.093730 45.226878 7.518758
vt 0.824219 0.410156
vn -0.755906 -0.220472 0.622047
v -5.503459 46.478900 5.355303
vt 0.738281 0.410156
vn -0.874016 -0.165354 0.464567
v 6.562972 56.125359 5.498739
vt 0.632416 0.613373
vn 0.881890 0.196850 0.440945
v 4.664123 57.116894 9.416571
vt 0.691406 0.542969
vn 0.755906 0.322835 0.566929
v 5.257175 56.044132 9.937499
vt 0.693420 0.613373
vn 0.653543 0.574803 0.496063
v 2.333293 57.660278 10.563026
vt 0.745728 0.518463
vn 0.393701 0.377953 0.842520
v 3.130760 55.486743 11.617827
vt 0.762238 0.613373
vn 0.338583 0.488189 0.803150
v 0.002955 54.800511 12.827975
vt 0.808105 0.613373
vn 0.000000 0.433071 0.905512
v 6.497953 54.327152 5.550003
vt 0.222656 0.792969
vn 0.881890 0.055118 0.480315
v 5.749250 52.170423 8.285133
vt 0.167969 0.824219
vn 0.913386 0.055118 0.417323
v 0.000000 51.150879 12.072474
vt 0.993286 0.128906
vn 0.000000 0.015748 1.000000
v 1.803783 50.870784 11.029065
vt 0.925781 0.105469
vn 0.511811 0.000000 0.858268
v 3.731693 53.439252 9.356504
vt 0.855469 0.042969
vn 0.472441 0.275591 0.842520
v 4.814849 51.811902 9.283491
vt 0.824219 0.097656
vn 0.724409 0.000000 0.692913
v 5.977801 54.111479 7.394481
vt 0.746094 0.042969
vn 0.905512 0.031496 0.425197
v 0.008866 48.971743 -12.574242
vt 0.746094 0.917969
vn 0.000000 0.496063 -0.874016
v -8.805140 58.282088 -0.517303
vt 0.352844 0.730469
vn -0.976378 0.220472 0.062992
v -7.536285 43.916035 5.040985
vt 0.167969 0.989990
vn -0.803150 0.196850 0.566929
v -5.575374 47.879374 7.532221
vt 0.167969 0.917969
vn -0.881890 0.015748 0.480315
v -5.749250 52.170423 8.285133
vt 0.167969 0.824219
vn -0.913386 0.047244 0.417323
v 0.010344 44.277357 -16.967952
vt 0.785156 0.989990
vn 0.000000 0.685039 -0.732283
v 8.933700 43.593926 -13.676165
vt 0.636719 0.989990
vn 0.559055 0.629921 -0.543307
v 12.028503 42.865680 -7.988421
vt 0.464844 0.989990
vn 0.826772 0.519685 -0.236220
v -4.242485 61.973735 7.065665
vt 0.128906 0.660156
vn -0.598425 0.582677 0.543307
v -4.399614 63.850369 4.151887
vt 0.191406 0.605469
vn -0.677165 0.488189 0.551181
v 0.016255 64.581415 7.267097
vt 0.074219 0.574219
vn 0.000000 0.692913 0.724409
v 0.065019 67.471992 5.408638
vt 0.160156 0.511719
vn 0.000000 0.488189 0.874016
v 4.399614 63.850369 4.151887
vt 0.191406 0.605469
vn 0.677165 0.480315 0.551181
v 5.017787 68.738020 0.766893
vt 0.324219 0.503906
vn 0.881890 0.299213 0.377953
v 0.000000 62.444294 9.253458
vt 0.027344 0.636719
vn 0.000000 0.606299 0.795276
v 4.242485 61.973735 7.065665
vt 0.128906 0.660156
vn 0.598425 0.582677 0.543307
v -1.647146 44.159717 9.074292
vt 0.925781 0.410156
vn -0.527559 -0.244094 0.811024
v 0.000000 43.535106 9.793027
vt 0.993286 0.410156
vn 0.000000 -0.283465 0.960630
v 1.647146 44.159717 9.074292
vt 0.925781 0.410156
vn 0.527559 -0.244094 0.811024
v 6.977714 53.856593 3.142654
vt 0.613281 0.097656
vn 0.976378 -0.031496 0.228346
v 6.835362 55.705217 4.137388
vt 0.613281 0.042969
vn 0.976378 -0.047244 0.228346
v 6.658037 58.307296 -7.685496
vt 0.546875 0.731750
vn 0.724409 0.173228 -0.669291
v 0.000000 61.181067 -10.020350
vt 0.628906 0.667969
vn 0.000000 0.259843 -0.968504
v -5.803925 62.956867 -6.962101
vt 0.503906 0.621094
vn -0.732283 0.330709 -0.598425
v -7.317093 62.483507 0.425649
vt 0.332031 0.636719
vn -0.921260 0.362205 0.125984
v 5.803925 62.956867 -6.962101
vt 0.503906 0.621094
vn 0.732283 0.314961 -0.606299
v -0.035465 65.404894 -8.652785
vt 0.613281 0.574219
vn -0.007874 0.259843 -0.968504
v -4.008023 67.525210 -6.106661
vt 0.496094 0.535156
vn -0.771654 0.299213 -0.559055
v -5.017787 68.738020 0.766893
vt 0.324219 0.503906
vn -0.881890 0.307087 0.354331
v 0.004433 71.468942 3.602479
vt 0.222656 0.433594
vn 0.000000 0.259843 0.968504
v 4.221798 74.135443 0.221627
vt 0.363281 0.386719
vn 0.850394 0.173228 0.496063
v 3.422853 72.818998 -5.279183
vt 0.496094 0.425781
vn 0.850394 0.228346 -0.480315
v -1.805753 86.095483 0.949166
vt 0.402344 0.152344
vn -0.952756 0.307087 0.007874
v -2.442643 81.252647 -2.283072
vt 0.464844 0.269531
vn -0.755906 0.330709 -0.566929
v 0.023151 76.667498 -6.048147
vt 0.589844 0.355469
vn -0.023622 0.346457 -0.944882
v -0.024136 70.513819 -7.933015
vt 0.598511 0.472656
vn -0.023622 0.228346 -0.976378
v 4.276965 67.525210 -6.106661
vt 0.496094 0.535156
vn 0.779528 0.275591 -0.566929
v 7.317093 62.483507 0.425649
vt 0.332031 0.636719
vn 0.929134 0.354331 0.133858
v 7.048151 60.640484 2.839211
vt 0.274872 0.690979
vn 0.866142 0.330709 0.385827
f 20/20/20 21/21/21 22/22/22
f 23/23/23 24/24/24 25/25/25
f 26/26/26 22/22/22 27/27/27
f 28/28/28 29/29/29 30/30/30
f 31/31/31 32/32/32 33/33/33
f 34/34/34 35/35/35 36/36/36
f 37/37/37 38/38/38 39/39/39
f 39/39/39 38/38/38 40/40/40
f 41/41/41 42/42/42 43/43/43
f 36/36/36 44/44/44 34/34/34
f 45/45/45 46/46/46 47/47/47
f 48/48/48 49/49/49 47/47/47
f 49/49/49 50/50/50 47/47/47
f 47/47/47 50/50/50 51/51/51
f 47/47/47 51/51/51 52/52/52
f 53/53/53 54/54/54 55/55/55
f 53/53/53 56/56/56 57/57/57
f 58/58/58 59/59/59 53/53/53
f 53/53/53 59/59/59 60/60/60
f 53/53/53 60/60/60 56/56/56
f 61/61/61 62/62/62 63/63/63
f 63/63/63 62/62/62 64/64/64
f 63/63/63 64/64/64 65/65/65
f 65/65/65 64/64/64 66/66/66
f 67/67/67 68/68/68 69/69/69
f 70/70/70 71/71/71 72/72/72
f 70/70/70 73/73/73 71/71/71
f 71/71/71 73/73/73 74/74/74
f 71/71/71 74/74/74 75/75/75
f 21/21/21 20/20/20 76/76/76
f 24/24/24 23/23/23 77/77/77
f 77/77/77 23/23/23 78/78/78
f 77/77/77 78/78/78 79/79/79
f 31/31/31 33/33/33 80/80/80
f 80/80/80 33/33/33 81/81/81
f 82/82/82 83/83/83 84/84/84
f 84/84/84 83/83/83 85/85/85
f 84/84/84 85/85/85 86/86/86
f 86/86/86 85/85/85 87/87/87
f 88/88/88 28/28/28 89/89/89
f 89/89/89 28/28/28 30/30/30
f 44/44/44 90/90/90 34/34/34
f 34/34/34 90/90/90 91/91/91
f 34/34/34 91/91/91 92/92/92
f 93/93/93 94/94/94 95/95/95
f 96/96/96 97/97/97 98/98/98
f 98/98/98 97/97/97 99/99/99
f 98/98/98 99/99/99 100/100/100
f 101/101/101 102/102/102 103/103/103
f 103/103/103 102/102/102 104/104/104
f 103/103/103 104/104/104 105/105/105
f 106/106/106 107/107/107 108/108/108
f 108/108/108 107/107/107 109/109/109
f 108/108/108 109/109/109 39/39/39
f 39/39/39 109/109/109 110/110/110
f 39/39/39 110/110/110 37/37/37
f 40/40/40 111/111/111 39/39/39
f 39/39/39 111/111/111 112/112/112
f 39/39/39 112/112/112 108/108/108
f 108/108/108 112/112/112 113/113/113
f 108/108/108 113/113/113 106/106/106
f 114/114/114 75/75/75 115/115/115
f 115/115/115 75/75/75 74/74/74
f 115/115/115 74/74/74 116/116/116
f 116/116/116 74/74/74 73/73/73
f 116/116/116 73/73/73 117/117/117
f 118/118/118 119/119/119 120/120/120
f 120/120/120 119/119/119 121/121/121
f 120/120/120 121/121/121 122/122/122
f 122/122/122 121/121/121 87/87/87
f 122/122/122 87/87/87 123/123/123
f 123/123/123 87/87/87 85/85/85
f 22/22/22 26/26/26 20/20/20
f 20/20/20 26/26/26 124/124/124
f 20/20/20 124/124/124 76/76/76
f 76/76/76 124/124/124 125/125/125
f 76/76/76 125/125/125 35/35/35
f 115/115/115 126/126/126 114/114/114
f 114/114/114 126/126/126 127/127/127
f 114/114/114 127/127/127 128/128/128
f 128/128/128 127/127/127 129/129/129
f 128/128/128 129/129/129 130/130/130
f 79/79/79 131/131/131 77/77/77
f 77/77/77 131/131/131 28/28/28
f 77/77/77 28/28/28 24/24/24
f 24/24/24 28/28/28 88/88/88
f 24/24/24 88/88/88 25/25/25
f 25/25/25 88/88/88 132/132/132
f 67/67/67 132/132/132 68/68/68
f 68/68/68 132/132/132 88/88/88
f 68/68/68 88/88/88 93/93/93
f 93/93/93 88/88/88 89/89/89
f 93/93/93 89/89/89 94/94/94
f 94/94/94 89/89/89 30/30/30
f 95/95/95 133/133/133 93/93/93
f 93/93/93 133/133/133 134/134/134
f 93/93/93 134/134/134 68/68/68
f 68/68/68 134/134/134 135/135/135
f 68/68/68 135/135/135 69/69/69
f 29/29/29 28/28/28 136/136/136
f 136/136/136 28/28/28 131/131/131
f 136/136/136 131/131/131 137/137/137
f 137/137/137 131/131/131 79/79/79
f 137/137/137 79/79/79 138/138/138
f 32/32/32 139/139/139 140/140/140
f 140/140/140 139/139/139 141/141/141
f 140/140/140 141/141/141 142/142/142
f 142/142/142 141/141/141 143/143/143
f 142/142/142 143/143/143 144/144/144
f 32/32/32 31/31/31 139/139/139
f 139/139/139 31/31/31 145/145/145
f 139/139/139 145/145/145 141/141/141
f 141/141/141 145/145/145 146/146/146
f 141/141/141 146/146/146 143/143/143
f 116/116/116 147/147/147 115/115/115
f 115/115/115 147/147/147 148/148/148
f 115/115/115 148/148/148 126/126/126
f 126/126/126 148/148/148 149/149/149
f 126/126/126 149/149/149 127/127/127
f 127/127/127 149/149/149 41/41/41
f 127/127/127 41/41/41 129/129/129
f 129/129/129 41/41/41 43/43/43
f 129/129/129 43/43/43 130/130/130
f 130/130/130 43/43/43 150/150/150
f 130/130/130 150/150/150 151/151/151
f 90/90/90 138/138/138 91/91/91
f 91/91/91 138/138/138 79/79/79
f 91/91/91 79/79/79 92/92/92
f 92/92/92 79/79/79 78/78/78
f 92/92/92 78/78/78 152/152/152
f 152/152/152 78/78/78 23/23/23
f 152/152/152 23/23/23 153/153/153
f 153/153/153 23/23/23 25/25/25
f 153/153/153 25/25/25 154/154/154
f 154/154/154 25/25/25 132/132/132
f 154/154/154 132/132/132 155/155/155
f 35/35/35 34/34/34 76/76/76
f 76/76/76 34/34/34 92/92/92
f 76/76/76 92/92/92 21/21/21
f 21/21/21 92/92/92 152/152/152
f 21/21/21 152/152/152 156/156/156
f 156/156/156 152/152/152 153/153/153
f 156/156/156 153/153/153 157/157/157
f 157/157/157 153/153/153 154/154/154
f 157/157/157 154/154/154 158/158/158
f 158/158/158 154/154/154 155/155/155
f 158/158/158 155/155/155 159/159/159
f 69/69/69 81/81/81 67/67/67
f 67/67/67 81/81/81 33/33/33
f 67/67/67 33/33/33 132/132/132
f 132/132/132 33/33/33 32/32/32
f 132/132/132 32/32/32 155/155/155
f 155/155/155 32/32/32 140/140/140
f 155/155/155 140/140/140 159/159/159
f 159/159/159 140/140/140 142/142/142
f 159/159/159 142/142/142 160/160/160
f 160/160/160 142/142/142 144/144/144
f 160/160/160 144/144/144 161/161/161
f 161/161/161 144/144/144 162/162/162
f 62/62/62 163/163/163 64/64/64
f 64/64/64 163/163/163 164/164/164
f 64/64/64 164/164/164 66/66/66
f 66/66/66 164/164/164 165/165/165
f 66/66/66 165/165/165 166/166/166
f 166/166/166 165/165/165 162/162/162
f 166/166/166 162/162/162 167/167/167
f 167/167/167 162/162/162 144/144/144
f 167/167/167 144/144/144 168/168/168
f 168/168/168 144/144/144 143/143/143
f 168/168/168 143/143/143 169/169/169
f 169/169/169 143/143/143 146/146/146
f 169/169/169 146/146/146 100/100/100
f 100/100/100 146/146/146 145/145/145
f 100/100/100 145/145/145 98/98/98
f 98/98/98 145/145/145 31/31/31
f 98/98/98 31/31/31 96/96/96
f 96/96/96 31/31/31 80/80/80
f 99/99/99 27/27/27 100/100/100
f 100/100/100 27/27/27 22/22/22
f 100/100/100 22/22/22 169/169/169
f 169/169/169 22/22/22 21/21/21
f 169/169/169 21/21/21 168/168/168
f 168/168/168 21/21/21 156/156/156
f 168/168/168 156/156/156 167/167/167
f 167/167/167 156/156/156 157/157/157
f 167/167/167 157/157/157 166/166/166
f 166/166/166 157/157/157 158/158/158
f 166/166/166 158/158/158 66/66/66
f 66/66/66 158/158/158 159/159/159
f 66/66/66 159/159/159 65/65/65
f 65/65/65 159/159/159 160/160/160
f 65/65/65 160/160/160 63/63/63
f 63/63/63 160/160/160 161/161/161
f 63/63/63 161/161/161 61/61/61
f 61/61/61 161/161/161 162/162/162
f 61/61/61 162/162/162 104/104/104
f 104/104/104 162/162/162 165/165/165
f 104/104/104 165/165/165 105/105/105
f 105/105/105 165/165/165 164/164/164
f 105/105/105 164/164/164 103/103/103
f 103/103/103 164/164/164 163/163/163
f 103/103/103 163/163/163 101/101/101
f 101/101/101 163/163/163 62/62/62
f 101/101/101 62/62/62 102/102/102
f 102/102/102 62/62/62 61/61/61
f 102/102/102 61/61/61 104/104/104
