mtllib 2076-0.mtl
g mesh00
usemtl texture00
v 5.452238 -1.299907 6.367569
vt 0.138000 0.789062
vn 0.866142 -0.417323 0.267717
v 5.814322 -1.646521 2.436543
vt 0.067688 0.826813
vn 0.874016 -0.464567 -0.157480
v 5.993660 1.152359 6.637662
vt 0.118744 0.670288
vn 0.952756 -0.212598 0.228346
v 6.287051 0.848607 2.331688
vt 0.039062 0.648438
vn 0.984252 -0.181102 0.055118
v 0.000000 -2.675236 10.623768
vt 0.492188 0.859375
vn 0.000000 -0.472441 0.881890
v -1.789708 -4.364620 9.572774
vt 0.376099 0.928558
vn -0.464567 -0.582677 0.669291
v 0.000000 -4.339479 10.076647
vt 0.492188 0.929688
vn 0.000000 -0.488189 0.874016
v 3.541661 -3.573301 6.058718
vt 0.205353 0.935242
vn 0.653543 -0.755906 0.062992
v -3.541661 -3.573301 6.058718
vt 0.205353 0.935242
vn -0.653543 -0.755906 0.062992
v -5.452238 -1.299907 6.367569
vt 0.138000 0.789062
vn -0.866142 -0.417323 0.267717
v -5.814322 -1.646521 2.436543
vt 0.067688 0.826813
vn -0.874016 -0.464567 -0.157480
v 4.278152 -2.994648 2.283137
vt 0.012268 0.966492
vn 0.629921 -0.661417 -0.409449
v 7.164600 4.379869 -0.334555
vt 0.007812 0.367188
vn 0.850394 -0.440945 -0.299213
v 4.386174 -1.596239 8.383878
vt 0.240601 0.846863
vn 0.748031 -0.385827 0.543307
v 5.095136 0.463664 8.325535
vt 0.199982 0.695312
vn 0.811024 -0.244094 0.535433
v 3.371237 1.265286 10.161918
vt 0.312500 0.640625
vn 0.543307 -0.125984 0.834646
v 0.000000 0.884876 11.593978
vt 0.492188 0.687500
vn 0.000000 -0.291339 0.960630
v 0.000000 -0.034620 12.178227
vt 0.492188 0.734375
vn 0.000000 -0.188976 0.984252
v 1.141575 -0.157852 11.715969
vt 0.429688 0.734375
vn 0.401575 -0.228346 0.889764
v -3.368877 -3.310352 8.037083
vt 0.266724 0.900665
vn -0.748031 -0.574803 0.346457
v -2.192694 -2.318318 10.119487
vt 0.375000 0.850433
vn -0.527559 -0.417323 0.740157
v 0.000000 1.578929 12.933424
vt 0.493469 0.644531
vn -0.023622 -0.740157 0.669291
v -0.854739 1.957691 12.868145
vt 0.453125 0.625000
vn -0.645669 -0.401575 0.653543
v -1.141575 -0.157852 11.715969
vt 0.429688 0.734375
vn -0.393701 -0.220472 0.889764
v -1.750904 1.789535 10.677623
vt 0.398438 0.632812
vn -0.606299 -0.047244 0.795276
v -3.371237 1.265286 10.161918
vt 0.312500 0.640625
vn -0.543307 -0.118110 0.834646
v 3.368877 -3.310352 8.037083
vt 0.266724 0.900665
vn 0.748031 -0.574803 0.346457
v 1.899303 -4.728544 7.935492
vt 0.377228 0.964264
vn 0.464567 -0.881890 0.070866
v 0.000000 -5.096590 5.771898
vt 0.492188 0.999847
vn 0.000000 -0.992126 -0.125984
v 0.000000 -5.340992 8.103178
vt 0.492188 0.976562
vn 0.000000 -1.000000 0.031496
v 0.000000 -1.923483 11.492388
vt 0.492188 0.820312
vn 0.000000 -0.519685 0.858268
v -1.039583 -1.392639 11.329598
vt 0.437500 0.789062
vn -0.393701 -0.007874 0.921260
v 0.000000 -1.414895 11.590715
vt 0.492188 0.787628
vn 0.000000 0.188976 0.984252
v 0.000000 -0.983379 11.179048
vt 0.492188 0.770447
vn 0.000000 0.007874 1.000000
v -1.082320 -0.721667 11.024826
vt 0.445312 0.757812
vn -0.299213 -0.283465 0.913386
v -2.642612 -0.806569 10.202717
vt 0.351562 0.757812
vn -0.590551 -0.228346 0.779528
v -4.386174 -1.596239 8.383878
vt 0.240601 0.846863
vn -0.748031 -0.385827 0.535433
v 0.000000 -0.673033 11.375293
vt 0.492188 0.750000
vn 0.000000 -0.708661 0.708661
v 1.082320 -0.721667 11.024826
vt 0.445312 0.757812
vn 0.314961 -0.283465 0.905512
v 2.642612 -0.776894 10.144782
vt 0.351562 0.757812
vn 0.598425 -0.220472 0.771654
v 1.039583 -1.392639 11.329598
vt 0.437500 0.789062
vn 0.401575 0.000000 0.921260
v 2.192694 -2.289056 10.148454
vt 0.375000 0.850433
vn 0.535433 -0.409449 0.740157
v -4.278152 -2.994648 2.283137
vt 0.012268 0.966492
vn -0.629921 -0.661417 -0.409449
v -1.899303 -4.728544 7.935492
vt 0.377228 0.964264
vn -0.464567 -0.881890 0.070866
v 0.000000 -5.100711 9.435688
vt 0.492188 0.953125
vn 0.000000 -0.913386 0.417323
v 1.789708 -4.364620 9.572774
vt 0.376099 0.928558
vn 0.464567 -0.590551 0.669291
v 1.750904 1.789535 10.677623
vt 0.398438 0.632812
vn 0.606299 -0.039370 0.795276
v 0.854739 1.957691 12.950968
vt 0.453125 0.625000
vn 0.622047 -0.409449 0.669291
v -7.164600 4.379869 -0.334555
vt 0.007812 0.367188
vn -0.850394 -0.440945 -0.299213
v -6.287051 0.848607 2.331688
vt 0.039062 0.648438
vn -0.984252 -0.181102 0.055118
v -5.993660 1.152359 6.637662
vt 0.118744 0.670288
vn -0.952756 -0.212598 0.228346
v -5.095136 0.463664 8.325535
vt 0.199982 0.695312
vn -0.811024 -0.244094 0.535433
f 1/1/1 2/2/2 3/3/3
f 2/2/2 4/4/4 3/3/3
f 5/5/5 6/6/6 7/7/7
f 2/2/2 1/1/1 8/8/8
f 9/9/9 10/10/10 11/11/11
f 12/12/12 13/13/13 4/4/4
f 14/14/14 15/15/15 16/16/16
f 17/17/17 18/18/18 19/19/19
f 20/20/20 6/6/6 21/21/21
f 17/17/17 22/22/22 23/23/23
f 24/24/24 25/25/25 26/26/26
f 3/3/3 15/15/15 1/1/1
f 1/1/1 15/15/15 14/14/14
f 1/1/1 14/14/14 8/8/8
f 8/8/8 14/14/14 27/27/27
f 8/8/8 27/27/27 28/28/28
f 4/4/4 2/2/2 12/12/12
f 12/12/12 2/2/2 8/8/8
f 12/12/12 8/8/8 29/29/29
f 29/29/29 8/8/8 28/28/28
f 29/29/29 28/28/28 30/30/30
f 6/6/6 5/5/5 21/21/21
f 21/21/21 5/5/5 31/31/31
f 21/21/21 31/31/31 32/32/32
f 32/32/32 31/31/31 33/33/33
f 32/32/32 33/33/33 34/34/34
f 34/34/34 35/35/35 32/32/32
f 32/32/32 35/35/35 36/36/36
f 32/32/32 36/36/36 21/21/21
f 21/21/21 36/36/36 37/37/37
f 21/21/21 37/37/37 20/20/20
f 23/23/23 25/25/25 17/17/17
f 17/17/17 25/25/25 24/24/24
f 17/17/17 24/24/24 18/18/18
f 18/18/18 24/24/24 38/38/38
f 18/18/18 38/38/38 19/19/19
f 19/19/19 38/38/38 39/39/39
f 19/19/19 39/39/39 40/40/40
f 40/40/40 39/39/39 41/41/41
f 40/40/40 41/41/41 42/42/42
f 11/11/11 43/43/43 9/9/9
f 9/9/9 43/43/43 29/29/29
f 9/9/9 29/29/29 44/44/44
f 44/44/44 29/29/29 30/30/30
f 44/44/44 30/30/30 45/45/45
f 45/45/45 30/30/30 28/28/28
f 45/45/45 28/28/28 46/46/46
f 46/46/46 28/28/28 27/27/27
f 46/46/46 27/27/27 42/42/42
f 42/42/42 27/27/27 14/14/14
f 42/42/42 14/14/14 40/40/40
f 40/40/40 14/14/14 16/16/16
f 40/40/40 16/16/16 19/19/19
f 19/19/19 16/16/16 47/47/47
f 19/19/19 47/47/47 17/17/17
f 17/17/17 47/47/47 48/48/48
f 17/17/17 48/48/48 22/22/22
f 49/49/49 43/43/43 50/50/50
f 50/50/50 43/43/43 11/11/11
f 50/50/50 11/11/11 51/51/51
f 51/51/51 11/11/11 10/10/10
f 51/51/51 10/10/10 52/52/52
f 52/52/52 10/10/10 37/37/37
f 52/52/52 37/37/37 26/26/26
f 26/26/26 37/37/37 36/36/36
f 26/26/26 36/36/36 24/24/24
f 24/24/24 36/36/36 35/35/35
f 24/24/24 35/35/35 38/38/38
f 38/38/38 35/35/35 34/34/34
f 38/38/38 34/34/34 39/39/39
f 39/39/39 34/34/34 33/33/33
f 39/39/39 33/33/33 41/41/41
f 41/41/41 33/33/33 31/31/31
f 41/41/41 31/31/31 42/42/42
f 42/42/42 31/31/31 5/5/5
f 42/42/42 5/5/5 46/46/46
f 46/46/46 5/5/5 7/7/7
f 46/46/46 7/7/7 45/45/45
f 45/45/45 7/7/7 6/6/6
f 45/45/45 6/6/6 44/44/44
f 44/44/44 6/6/6 20/20/20
f 44/44/44 20/20/20 9/9/9
f 9/9/9 20/20/20 37/37/37
f 9/9/9 37/37/37 10/10/10
usemtl texture00
v 7.825843 6.798338 0.813133
vt 0.968750 0.312500
vn -0.803150 0.417323 -0.425197
v 7.164600 4.379869 -0.334555
vt 0.913086 0.488312
vn -0.755906 0.118110 -0.645669
v 6.756633 5.774569 2.331280
vt 0.890625 0.382812
vn -0.858268 0.393701 -0.338583
v 0.854739 1.957691 12.950968
vt 0.453125 0.625000
vn 0.622047 -0.409449 0.669291
v 0.719973 3.992865 12.315313
vt 0.456238 0.526550
vn 0.708661 0.267717 0.653543
v 0.000000 2.235889 13.368754
vt 0.492188 0.617188
vn -0.031496 -0.141732 0.992126
v 6.269484 8.495965 5.897152
vt 0.109375 0.234375
vn 0.976378 0.031496 0.220472
v 7.391919 9.099346 0.065687
vt 0.054688 0.273438
vn 0.984252 -0.023622 0.181102
v 6.193711 11.646405 5.616044
vt 0.093750 0.078125
vn 0.929134 0.181102 0.314961
v 6.227534 5.546653 6.898370
vt 0.125000 0.429688
vn 0.952756 0.023622 0.314961
v 5.453287 5.174073 8.456909
vt 0.176544 0.439056
vn 0.811024 -0.125984 0.582677
v 5.557376 4.121454 8.416518
vt 0.164062 0.492188
vn 0.803150 0.039370 0.598425
v 3.646012 3.359397 10.289620
vt 0.293976 0.534119
vn 0.527559 0.047244 0.850394
v 5.501005 2.425476 8.634795
vt 0.189056 0.590607
vn 0.795276 -0.118110 0.590551
v -6.429682 3.546923 6.945698
vt 0.126556 0.540619
vn -0.968504 -0.039370 0.267717
v -6.756633 5.774569 2.331280
vt 0.070312 0.445312
vn -0.984252 -0.023622 0.196850
v -6.287051 0.848607 2.331688
vt 0.039062 0.648438
vn -0.984252 -0.181102 0.055118
v 4.391156 4.601191 9.618469
vt 0.257812 0.476562
vn 0.614173 -0.110236 0.779528
v 4.425765 6.084090 9.989336
vt 0.250000 0.389648
vn 0.566929 -0.291339 0.771654
v 3.429706 5.371903 10.565016
vt 0.312500 0.421875
vn 0.338583 -0.118110 0.937008
v 7.825843 6.798338 0.813133
vt 0.968750 0.312500
vn 0.874016 -0.094488 0.480315
v 6.756633 5.774569 2.331280
vt 0.890625 0.382812
vn 0.984252 -0.023622 0.196850
v 6.287051 0.848607 2.331688
vt 0.859375 0.648438
vn 0.984252 -0.181102 0.055118
v 5.993660 1.152359 6.637662
vt 0.118744 0.670288
vn 0.952756 -0.212598 0.228346
v 6.429682 3.546923 6.945698
vt 0.126556 0.540619
vn 0.968504 -0.039370 0.267717
v 6.287051 0.848607 2.331688
vt 0.039062 0.648438
vn 0.984252 -0.181102 0.055118
v 6.756633 5.774569 2.331280
vt 0.070312 0.445312
vn 0.984252 -0.023622 0.196850
v 7.164600 4.379869 -0.334555
vt 0.007812 0.367188
vn 0.984252 -0.062992 0.181102
v 8.591175 6.158689 -0.860460
vt 0.998413 0.364044
vn -0.629921 0.291339 -0.724409
v 1.750904 1.789535 10.677623
vt 0.398438 0.632812
vn 0.606299 -0.039370 0.795276
v 0.535654 5.204984 11.593571
vt 0.468750 0.453125
vn 0.582677 0.070866 0.811024
v 0.000000 5.426719 11.908134
vt 0.492188 0.437500
vn 0.000000 -0.031496 1.000000
v 0.000000 4.192755 12.592749
vt 0.492188 0.522339
vn -0.007874 0.440945 0.905512
v 8.437007 3.764948 -1.082409
vt 0.997101 0.518494
vn -0.527559 -0.062992 -0.850394
v 7.187411 0.859323 0.735206
vt 0.914062 0.640625
vn -0.732283 -0.196850 -0.645669
v 6.287051 0.848607 2.331688
vt 0.859375 0.648438
vn -0.866142 -0.149606 -0.488189
v 8.591175 6.158689 -0.860460
vt 0.998413 0.364044
vn 0.889764 -0.094488 0.440945
v 8.437007 3.764948 -1.082409
vt 0.997101 0.518494
vn 0.881890 -0.086614 0.464567
v 7.187411 0.859323 0.735206
vt 0.914062 0.640625
vn 0.874016 -0.062992 0.488189
v -8.591175 6.158689 -0.860460
vt 0.998413 0.364044
vn 0.629921 0.291339 -0.724409
v -7.825843 6.798338 0.813133
vt 0.968750 0.312500
vn 0.803150 0.417323 -0.425197
v -7.164600 4.379869 -0.334555
vt 0.913086 0.488312
vn 0.755906 0.118110 -0.645669
v -6.756633 5.774569 2.331280
vt 0.890625 0.382812
vn 0.858268 0.393701 -0.338583
v -3.371237 1.265286 10.161918
vt 0.312500 0.640625
vn -0.543307 -0.118110 0.834646
v -1.750904 1.789535 10.677623
vt 0.398438 0.632812
vn -0.606299 -0.047244 0.795276
v -1.897730 3.421631 10.935883
vt 0.408844 0.536438
vn -0.503937 0.047244 0.866142
v -8.437007 3.764948 -1.082409
vt 0.997101 0.518494
vn -0.881890 -0.086614 0.464567
v -7.187411 0.859323 0.735206
vt 0.914062 0.640625
vn -0.874016 -0.062992 0.488189
v -6.287051 0.848607 2.331688
vt 0.859375 0.648438
vn -0.984252 -0.181102 0.055118
v 0.000000 4.192755 12.592749
vt 0.492157 0.522339
vn -0.007874 0.440945 0.905512
v -0.535654 5.204984 11.593571
vt 0.468750 0.453125
vn -0.582677 0.070866 0.811024
v -0.927103 5.835155 11.613970
vt 0.453125 0.407806
vn -0.440945 -0.464567 0.771654
v -6.287051 0.848607 2.331688
vt 0.859375 0.648438
vn 0.866142 -0.149606 -0.488189
v -7.187411 0.859323 0.735206
vt 0.914062 0.640625
vn 0.732283 -0.196850 -0.645669
v -8.437007 3.764948 -1.082409
vt 0.997101 0.518494
vn 0.527559 -0.062992 -0.850394
v -8.591175 6.158689 -0.860460
vt 0.998413 0.364044
vn -0.889764 -0.094488 0.440945
v -7.825843 6.798338 0.813133
vt 0.968750 0.312500
vn -0.874016 -0.094488 0.480315
v -6.756633 5.774569 2.331280
vt 0.890625 0.382812
vn -0.984252 -0.023622 0.196850
v -2.756140 6.609576 11.538491
vt 0.359375 0.351562
vn -0.456693 -0.330709 0.826772
v 0.000000 6.294285 12.174963
vt 0.492188 0.382812
vn 0.000000 -0.125984 0.992126
v 0.927103 5.835155 11.613970
vt 0.453125 0.407806
vn 0.440945 -0.464567 0.771654
v 1.315931 5.010040 10.892636
vt 0.416656 0.454407
vn 0.598425 0.015748 0.803150
v 1.897730 3.421631 10.935883
vt 0.408844 0.536438
vn 0.503937 0.047244 0.866142
v 3.371237 1.265286 10.161918
vt 0.312500 0.640625
vn 0.543307 -0.125984 0.834646
v 2.233595 4.496918 10.531969
vt 0.367188 0.481232
vn 0.322835 0.000000 0.952756
v 2.405592 6.050294 10.627032
vt 0.360657 0.389313
vn 0.330709 -0.377953 0.866142
v 2.756140 6.609576 11.538491
vt 0.359375 0.351562
vn 0.456693 -0.330709 0.826772
v 5.330058 6.956190 9.620101
vt 0.192169 0.337494
vn 0.826772 -0.094488 0.559055
v 5.220462 10.083137 8.974246
vt 0.187500 0.187500
vn 0.779528 0.236220 0.582677
v 3.717852 13.219976 8.401014
vt 0.273438 0.046875
vn 0.543307 0.519685 0.661417
v -5.993660 1.152359 6.637662
vt 0.118744 0.670288
vn -0.952756 -0.212598 0.228346
v -5.095136 0.463664 8.325535
vt 0.199982 0.695312
vn -0.811024 -0.244094 0.535433
v -5.501005 2.425476 8.634795
vt 0.189056 0.590607
vn -0.795276 -0.125984 0.590551
v -3.646012 3.359397 10.289620
vt 0.293976 0.534119
vn -0.527559 0.047244 0.850394
v -2.233595 4.496918 10.531969
vt 0.367188 0.481232
vn -0.322835 0.000000 0.952756
v -5.557376 4.186985 8.416518
vt 0.164062 0.492188
vn -0.803150 0.047244 0.598425
v -4.391156 4.601191 9.618469
vt 0.257812 0.476562
vn -0.614173 -0.110236 0.779528
v -3.429706 5.371903 10.565016
vt 0.312500 0.421875
vn -0.338583 -0.118110 0.937008
v -6.227534 5.546653 6.898370
vt 0.125000 0.429688
vn -0.952756 0.031496 0.307087
v -6.269484 8.495965 5.897152
vt 0.109375 0.234375
vn -0.976378 0.031496 0.220472
v -5.329795 6.956190 9.620101
vt 0.192169 0.337494
vn -0.826772 -0.094488 0.559055
v -5.220462 10.083137 8.974246
vt 0.187500 0.187500
vn -0.779528 0.236220 0.582677
v -2.718384 10.621399 10.757998
vt 0.360931 0.140625
vn -0.362205 0.370079 0.858268
v 0.000000 10.561638 11.613562
vt 0.492188 0.156250
vn 0.000000 0.409449 0.913386
v 2.718384 10.621399 10.757998
vt 0.360931 0.140625
vn 0.362205 0.370079 0.858268
v 0.000000 13.504768 9.103988
vt 0.492188 0.039062
vn 0.000000 0.637795 0.771654
v -5.453287 5.174073 8.456909
vt 0.176544 0.439056
vn -0.803150 -0.125984 0.582677
v -4.425765 6.084090 9.989336
vt 0.250000 0.389648
vn -0.566929 -0.291339 0.771654
v -2.405592 6.050294 10.627032
vt 0.360657 0.389313
vn -0.330709 -0.377953 0.866142
v -1.315931 5.010040 10.892636
vt 0.416656 0.454407
vn -0.598425 0.015748 0.803150
v -0.719973 3.992865 12.315313
vt 0.456238 0.526550
vn -0.708661 0.259843 0.653543
v -0.854739 1.957691 12.868145
vt 0.453125 0.625000
vn -0.645669 -0.401575 0.653543
v 0.000000 1.578929 12.933424
vt 0.493469 0.644531
vn -0.023622 -0.740157 0.669291
v -7.164600 4.379869 -0.334555
vt 0.007812 0.367188
vn -0.984252 -0.062992 0.181102
v -7.391919 9.099346 0.065687
vt 0.054688 0.273438
vn -0.984252 -0.023622 0.181102
v -6.193711 11.646405 5.616044
vt 0.093750 0.078125
vn -0.929134 0.181102 0.314961
v -3.717852 13.219976 8.401014
vt 0.273438 0.046875
vn -0.543307 0.519685 0.661417
v 5.095136 0.463664 8.325535
vt 0.199982 0.695312
vn 0.811024 -0.244094 0.535433
f 53/53/53 54/54/54 55/55/55
f 56/56/56 57/57/57 58/58/58
f 59/59/59 60/60/60 61/61/61
f 62/62/62 63/63/63 64/64/64
f 64/64/64 65/65/65 66/66/66
f 67/67/67 68/68/68 69/69/69
f 70/70/70 71/71/71 72/72/72
f 73/73/73 74/74/74 75/75/75
f 66/66/66 76/76/76 77/77/77
f 77/77/77 76/76/76 78/78/78
f 77/77/77 78/78/78 79/79/79
f 79/79/79 80/80/80 60/60/60
f 54/54/54 53/53/53 81/81/81
f 57/57/57 56/56/56 82/82/82
f 83/83/83 84/84/84 57/57/57
f 57/57/57 84/84/84 85/85/85
f 57/57/57 85/85/85 58/58/58
f 81/81/81 86/86/86 54/54/54
f 54/54/54 86/86/86 87/87/87
f 54/54/54 87/87/87 88/88/88
f 89/89/89 73/73/73 90/90/90
f 90/90/90 73/73/73 75/75/75
f 90/90/90 75/75/75 91/91/91
f 92/92/92 93/93/93 94/94/94
f 94/94/94 93/93/93 95/95/95
f 96/96/96 97/97/97 98/98/98
f 99/99/99 100/100/100 101/101/101
f 102/102/102 84/84/84 103/103/103
f 103/103/103 84/84/84 104/104/104
f 105/105/105 106/106/106 94/94/94
f 94/94/94 106/106/106 107/107/107
f 94/94/94 107/107/107 92/92/92
f 108/108/108 99/99/99 109/109/109
f 109/109/109 99/99/99 101/101/101
f 109/109/109 101/101/101 110/110/110
f 111/111/111 104/104/104 112/112/112
f 112/112/112 104/104/104 84/84/84
f 112/112/112 84/84/84 113/113/113
f 113/113/113 84/84/84 83/83/83
f 113/113/113 83/83/83 114/114/114
f 114/114/114 83/83/83 57/57/57
f 114/114/114 57/57/57 115/115/115
f 115/115/115 57/57/57 82/82/82
f 115/115/115 82/82/82 116/116/116
f 60/60/60 59/59/59 79/79/79
f 79/79/79 59/59/59 62/62/62
f 79/79/79 62/62/62 77/77/77
f 77/77/77 62/62/62 64/64/64
f 77/77/77 64/64/64 66/66/66
f 65/65/65 70/70/70 117/117/117
f 117/117/117 70/70/70 72/72/72
f 117/117/117 72/72/72 118/118/118
f 118/118/118 72/72/72 71/71/71
f 118/118/118 71/71/71 119/119/119
f 63/63/63 62/62/62 120/120/120
f 120/120/120 62/62/62 59/59/59
f 120/120/120 59/59/59 121/121/121
f 121/121/121 59/59/59 61/61/61
f 121/121/121 61/61/61 122/122/122
f 123/123/123 124/124/124 125/125/125
f 125/125/125 124/124/124 96/96/96
f 125/125/125 96/96/96 126/126/126
f 126/126/126 96/96/96 98/98/98
f 126/126/126 98/98/98 127/127/127
f 69/69/69 123/123/123 67/67/67
f 67/67/67 123/123/123 125/125/125
f 67/67/67 125/125/125 128/128/128
f 128/128/128 125/125/125 126/126/126
f 128/128/128 126/126/126 129/129/129
f 129/129/129 126/126/126 127/127/127
f 129/129/129 127/127/127 130/130/130
f 68/68/68 131/131/131 132/132/132
f 132/132/132 131/131/131 133/133/133
f 132/132/132 133/133/133 134/134/134
f 134/134/134 133/133/133 111/111/111
f 134/134/134 111/111/111 135/135/135
f 135/135/135 111/111/111 112/112/112
f 135/135/135 112/112/112 136/136/136
f 65/65/65 64/64/64 70/70/70
f 70/70/70 64/64/64 63/63/63
f 70/70/70 63/63/63 71/71/71
f 71/71/71 63/63/63 120/120/120
f 71/71/71 120/120/120 119/119/119
f 119/119/119 120/120/120 121/121/121
f 119/119/119 121/121/121 137/137/137
f 137/137/137 121/121/121 122/122/122
f 137/137/137 122/122/122 138/138/138
f 131/131/131 139/139/139 133/133/133
f 133/133/133 139/139/139 140/140/140
f 133/133/133 140/140/140 111/111/111
f 111/111/111 140/140/140 141/141/141
f 111/111/111 141/141/141 104/104/104
f 104/104/104 141/141/141 142/142/142
f 104/104/104 142/142/142 103/103/103
f 103/103/103 142/142/142 143/143/143
f 103/103/103 143/143/143 102/102/102
f 102/102/102 143/143/143 144/144/144
f 102/102/102 144/144/144 58/58/58
f 58/58/58 144/144/144 145/145/145
f 58/58/58 145/145/145 56/56/56
f 68/68/68 67/67/67 131/131/131
f 131/131/131 67/67/67 128/128/128
f 131/131/131 128/128/128 139/139/139
f 139/139/139 128/128/128 129/129/129
f 139/139/139 129/129/129 140/140/140
f 140/140/140 129/129/129 130/130/130
f 140/140/140 130/130/130 141/141/141
f 141/141/141 130/130/130 127/127/127
f 141/141/141 127/127/127 142/142/142
f 142/142/142 127/127/127 98/98/98
f 142/142/142 98/98/98 143/143/143
f 143/143/143 98/98/98 97/97/97
f 143/143/143 97/97/97 144/144/144
f 146/146/146 68/68/68 147/147/147
f 147/147/147 68/68/68 132/132/132
f 147/147/147 132/132/132 148/148/148
f 148/148/148 132/132/132 134/134/134
f 148/148/148 134/134/134 149/149/149
f 149/149/149 134/134/134 135/135/135
f 149/149/149 135/135/135 138/138/138
f 138/138/138 135/135/135 136/136/136
f 138/138/138 136/136/136 137/137/137
f 137/137/137 136/136/136 112/112/112
f 137/137/137 112/112/112 119/119/119
f 119/119/119 112/112/112 113/113/113
f 119/119/119 113/113/113 118/118/118
f 118/118/118 113/113/113 114/114/114
f 118/118/118 114/114/114 117/117/117
f 117/117/117 114/114/114 115/115/115
f 117/117/117 115/115/115 65/65/65
f 65/65/65 115/115/115 116/116/116
f 65/65/65 116/116/116 66/66/66
f 66/66/66 116/116/116 150/150/150
f 66/66/66 150/150/150 76/76/76
