mtllib 6197-1.mtl
g mesh00
usemtl texture00
v -16.759176 -36.164322 175.700061
vt 0.065552 0.041748
vn 0.944882 -0.267717 0.212598
v -43.435201 -79.403526 214.794757
vt 0.009369 0.010529
vn 0.913386 -0.338583 0.236220
v -25.892323 -79.283322 175.700061
vt 0.009369 0.041748
vn 0.952756 -0.157480 0.283465
v -9.494857 -40.010860 128.225778
vt 0.009369 0.072937
vn 1.000000 -0.078740 0.086614
v -16.578321 -35.219860 175.700061
vt 0.066772 0.041748
vn 0.960630 -0.267717 0.062992
v -25.892323 -79.283322 175.700061
vt 0.009369 0.041748
vn 0.952756 -0.157480 0.283465
v 19.441849 52.340387 251.176636
vt 0.181580 0.010529
vn 0.866142 -0.480315 -0.149606
v -5.244778 0.463645 272.758596
vt 0.124176 0.010529
vn 0.937008 -0.346457 -0.055118
v 2.019541 52.889892 175.700061
vt 0.181580 0.041748
vn 0.929134 -0.283465 -0.251969
v -5.365348 -10.337570 46.781008
vt 0.009369 0.197784
vn 0.984252 -0.173228 0.039370
v -3.707515 -18.683183 24.264634
vt 0.009369 0.228973
vn 0.984252 -0.196850 0.062992
v -1.687975 -7.761763 24.264634
vt 0.066772 0.228973
vn 0.984252 -0.196850 0.062992
v -2.471677 -11.264860 1.778402
vt 0.009369 0.260193
vn 0.984252 -0.188976 0.000000
v -1.024842 -4.653624 1.778402
vt 0.066772 0.260193
vn 0.984252 -0.188976 0.000000
v -41.596515 40.783602 251.176636
vt 0.181580 0.167908
vn 0.732283 0.677165 -0.086614
v -1.718117 -0.549505 272.758596
vt 0.124176 0.167908
vn 0.653543 0.755906 0.007874
v -45.665739 30.497548 175.700061
vt 0.181580 0.199127
vn 0.590551 0.803150 -0.102362
v 16.457751 -1.871753 46.781008
vt 0.009369 0.355133
vn 0.496063 0.834646 -0.244094
v 18.869144 -9.496140 24.264634
vt 0.009369 0.386353
vn 0.519685 0.842520 -0.141732
v 9.344145 -3.777849 24.264634
vt 0.066772 0.386353
vn 0.519685 0.842520 -0.141732
v 11.484255 -6.559720 1.778402
vt 0.009369 0.417572
vn 0.527559 0.850394 -0.047244
v 5.817484 -2.850559 1.778402
vt 0.066772 0.417572
vn 0.527559 0.850394 -0.047244
v -5.244778 -24.744914 88.045956
vt 0.009369 0.135376
vn 0.992126 -0.062992 0.110236
v -4.340506 -15.300290 67.398411
vt 0.009369 0.166565
vn 1.000000 -0.118110 -0.007874
v -2.501819 0.772742 67.398411
vt 0.066772 0.166565
vn 1.000000 -0.118110 0.015748
v -2.893671 0.807086 46.781008
vt 0.066772 0.197784
vn 0.984252 -0.173228 0.047244
v 0.301424 3.142484 24.264634
vt 0.124176 0.228973
vn 0.984252 -0.196850 0.062992
v 0.421994 1.957613 1.778402
vt 0.124176 0.260193
vn 0.984252 -0.188976 0.015748
v -4.340506 77.651978 108.120796
vt 0.238983 0.104156
vn 0.992126 -0.039370 0.165354
v -6.691613 85.757182 128.225778
vt 0.238983 0.072937
vn 1.000000 -0.078740 -0.070866
v -7.384888 54.315172 128.225778
vt 0.181580 0.072937
vn 1.000000 -0.078740 -0.047244
v 11.333543 96.953354 175.700061
vt 0.238983 0.041748
vn 0.905512 -0.149606 -0.409449
v 34.422623 83.799569 214.794757
vt 0.238983 0.010529
vn 0.842520 -0.393701 -0.377953
v 3.044383 49.043355 67.398411
vt 0.238983 0.166565
vn 0.984252 -0.110236 0.165354
v -0.150712 67.177032 88.045956
vt 0.238983 0.135376
vn 0.976378 -0.062992 0.204724
v -1.416693 44.183666 88.045956
vt 0.181580 0.135376
vn 0.984252 -0.062992 0.188976
v -5.546202 51.069656 108.120796
vt 0.181580 0.104156
vn 0.992126 -0.039370 0.157480
v -8.078164 22.855989 128.225778
vt 0.124176 0.072937
vn 1.000000 -0.078740 0.000000
v -7.264319 8.826430 175.700061
vt 0.124176 0.041748
vn 0.976378 -0.236220 -0.055118
v -28.394143 -47.978688 251.176636
vt 0.066772 0.010529
vn 0.913386 -0.409449 0.031496
v 35.236468 0.412129 88.045956
vt 0.009369 0.292725
vn 0.409449 0.913386 -0.102362
v 24.897624 0.497989 67.398411
vt 0.009369 0.323944
vn 0.448819 0.866142 -0.220472
v 10.489556 7.881968 67.398411
vt 0.066772 0.323944
vn 0.448819 0.874016 -0.188976
v 6.872468 4.361699 46.781008
vt 0.066772 0.355133
vn 0.496063 0.834646 -0.236220
v -0.150712 1.923269 24.264634
vt 0.124176 0.386353
vn 0.519685 0.842520 -0.141732
v 0.150712 0.824258 1.778402
vt 0.124176 0.417572
vn 0.527559 0.850394 -0.031496
v -60.345089 42.208882 108.120796
vt 0.238983 0.261536
vn 0.385827 0.921260 0.070866
v -70.533221 42.878591 128.225778
vt 0.238983 0.230316
vn 0.425197 0.905512 0.062992
v -41.325233 31.184430 128.225778
vt 0.181580 0.230316
vn 0.425197 0.905512 0.086614
v -83.645166 54.692957 175.700061
vt 0.238983 0.199127
vn 0.488189 0.842520 -0.228346
v -65.800864 65.854785 214.794757
vt 0.238983 0.167908
vn 0.661417 0.692913 -0.283465
v -32.704506 30.033903 67.398411
vt 0.238983 0.323944
vn 0.456693 0.889764 -0.039370
v -49.011546 37.452226 88.045956
vt 0.238983 0.292725
vn 0.409449 0.913386 -0.007874
v -27.942007 28.196494 88.045956
vt 0.181580 0.292725
vn 0.409449 0.913386 -0.023622
v -35.869458 31.751107 108.120796
vt 0.181580 0.261536
vn 0.385827 0.921260 0.055118
v -12.147388 19.473097 128.225778
vt 0.124176 0.230316
vn 0.425197 0.897638 0.141732
v -7.686313 6.302140 175.700061
vt 0.124176 0.199127
vn 0.566929 0.818898 0.102362
v 35.507750 -39.255290 251.176636
vt 0.066772 0.167908
vn 0.732283 0.677165 0.094488
v -9.193433 -28.625796 108.120796
vt 0.009369 0.104156
vn 1.000000 -0.039370 0.102362
v -7.957594 -2.060645 108.120796
vt 0.066772 0.104156
vn 1.000000 -0.039370 0.110236
v -3.978797 -1.768720 88.045956
vt 0.066772 0.135376
vn 0.992126 -0.062992 0.125984
v -0.632990 16.862946 67.398411
vt 0.124176 0.166565
vn 0.992126 -0.118110 0.078740
v -0.421994 11.986086 46.781008
vt 0.124176 0.197784
vn 0.984252 -0.173228 0.078740
v 2.320965 14.046731 24.264634
vt 0.181580 0.228973
vn 0.984252 -0.196850 0.055118
v 1.868829 8.568849 1.778402
vt 0.181580 0.260193
vn 0.984252 -0.188976 0.023622
v 4.310363 24.968150 24.264634
vt 0.238983 0.228973
vn 0.984252 -0.196850 0.055118
v 4.491218 34.326914 46.781008
vt 0.238983 0.197784
vn 0.984252 -0.173228 0.110236
v 2.019541 23.147914 46.781008
vt 0.181580 0.197784
vn 0.984252 -0.173228 0.102362
v 1.175554 32.953150 67.398411
vt 0.181580 0.166565
vn 0.984252 -0.118110 0.141732
v -2.682674 21.207473 88.045956
vt 0.124176 0.135376
vn 0.992126 -0.062992 0.157480
v -6.751898 24.504505 108.120796
vt 0.124176 0.104156
vn 0.992126 -0.039370 0.133858
v -8.801581 -8.568849 128.225778
vt 0.066772 0.072937
vn 1.000000 -0.078740 0.055118
v 3.345807 15.180086 1.778402
vt 0.238983 0.260193
vn 0.984252 -0.188976 0.031496
v 46.238445 -3.915226 128.225778
vt 0.009369 0.230316
vn 0.417323 0.889764 0.220472
v 37.467006 0.343441 108.120796
vt 0.009369 0.261536
vn 0.385827 0.921260 0.000000
v 12.991375 10.801215 108.120796
vt 0.066772 0.261536
vn 0.385827 0.921260 0.015748
v 14.166929 9.667860 88.045956
vt 0.066772 0.292725
vn 0.409449 0.913386 -0.086614
v -3.888370 15.265946 67.398411
vt 0.124176 0.323944
vn 0.456693 0.881890 -0.125984
v -2.682674 10.595150 46.781008
vt 0.124176 0.355133
vn 0.503937 0.842520 -0.212598
v -9.645569 7.641559 24.264634
vt 0.181580 0.386353
vn 0.519685 0.842520 -0.149606
v -5.516060 4.516247 1.778402
vt 0.181580 0.417572
vn 0.527559 0.850394 -0.015748
v -19.170568 13.359849 24.264634
vt 0.238983 0.386353
vn 0.519685 0.842520 -0.149606
v -21.883384 23.062054 46.781008
vt 0.238983 0.355133
vn 0.503937 0.850394 -0.173228
v -12.267958 16.828602 46.781008
vt 0.181580 0.355133
vn 0.503937 0.850394 -0.188976
v -18.296438 22.649925 67.398411
vt 0.181580 0.323944
vn 0.456693 0.889764 -0.070866
v -6.872468 18.940763 88.045956
vt 0.124176 0.292725
vn 0.409449 0.913386 -0.055118
v -11.423970 21.276161 108.120796
vt 0.124176 0.261536
vn 0.385827 0.921260 0.039370
v 17.030457 7.778935 128.225778
vt 0.066772 0.230316
vn 0.417323 0.889764 0.196850
v 30.262972 -17.876097 175.700061
vt 0.066772 0.199127
vn 0.574803 0.771654 0.275591
v 59.651814 -64.377989 214.794757
vt 0.009369 0.167908
vn 0.653543 0.685039 0.322835
v 68.272541 -42.071505 175.700061
vt 0.009369 0.199127
vn 0.448819 0.771654 0.448819
v -11.182831 8.208237 1.778402
vt 0.238983 0.417572
vn 0.527559 0.850394 -0.007874
f 1/1/1 2/2/2 3/3/3
f 4/4/4 5/5/5 6/6/6
f 2/2/2 1/1/1 5/5/5
f 7/7/7 8/8/8 9/9/9
f 6/6/6 1/1/1 5/5/5
f 10/10/10 11/11/11 12/12/12
f 12/12/12 11/11/11 13/13/13
f 12/12/12 13/13/13 14/14/14
f 15/15/15 16/16/16 17/17/17
f 18/18/18 19/19/19 20/20/20
f 20/20/20 19/19/19 21/21/21
f 20/20/20 21/21/21 22/22/22
f 23/23/23 24/24/24 25/25/25
f 25/25/25 24/24/24 10/10/10
f 25/25/25 10/10/10 26/26/26
f 26/26/26 10/10/10 12/12/12
f 26/26/26 12/12/12 27/27/27
f 27/27/27 12/12/12 14/14/14
f 27/27/27 14/14/14 28/28/28
f 29/29/29 30/30/30 31/31/31
f 31/31/31 30/30/30 32/32/32
f 31/31/31 32/32/32 9/9/9
f 9/9/9 32/32/32 33/33/33
f 9/9/9 33/33/33 7/7/7
f 34/34/34 35/35/35 36/36/36
f 36/36/36 35/35/35 29/29/29
f 36/36/36 29/29/29 37/37/37
f 37/37/37 29/29/29 31/31/31
f 37/37/37 31/31/31 38/38/38
f 38/38/38 31/31/31 9/9/9
f 38/38/38 9/9/9 39/39/39
f 39/39/39 9/9/9 8/8/8
f 39/39/39 8/8/8 40/40/40
f 41/41/41 42/42/42 43/43/43
f 43/43/43 42/42/42 18/18/18
f 43/43/43 18/18/18 44/44/44
f 44/44/44 18/18/18 20/20/20
f 44/44/44 20/20/20 45/45/45
f 45/45/45 20/20/20 22/22/22
f 45/45/45 22/22/22 46/46/46
f 47/47/47 48/48/48 49/49/49
f 49/49/49 48/48/48 50/50/50
f 49/49/49 50/50/50 17/17/17
f 17/17/17 50/50/50 51/51/51
f 17/17/17 51/51/51 15/15/15
f 52/52/52 53/53/53 54/54/54
f 54/54/54 53/53/53 47/47/47
f 54/54/54 47/47/47 55/55/55
f 55/55/55 47/47/47 49/49/49
f 55/55/55 49/49/49 56/56/56
f 56/56/56 49/49/49 17/17/17
f 56/56/56 17/17/17 57/57/57
f 57/57/57 17/17/17 16/16/16
f 57/57/57 16/16/16 58/58/58
f 4/4/4 59/59/59 60/60/60
f 60/60/60 59/59/59 23/23/23
f 60/60/60 23/23/23 61/61/61
f 61/61/61 23/23/23 25/25/25
f 61/61/61 25/25/25 62/62/62
f 62/62/62 25/25/25 26/26/26
f 62/62/62 26/26/26 63/63/63
f 63/63/63 26/26/26 27/27/27
f 63/63/63 27/27/27 64/64/64
f 64/64/64 27/27/27 28/28/28
f 64/64/64 28/28/28 65/65/65
f 66/66/66 67/67/67 68/68/68
f 68/68/68 67/67/67 34/34/34
f 68/68/68 34/34/34 69/69/69
f 69/69/69 34/34/34 36/36/36
f 69/69/69 36/36/36 70/70/70
f 70/70/70 36/36/36 37/37/37
f 70/70/70 37/37/37 71/71/71
f 71/71/71 37/37/37 38/38/38
f 71/71/71 38/38/38 72/72/72
f 72/72/72 38/38/38 39/39/39
f 72/72/72 39/39/39 5/5/5
f 5/5/5 39/39/39 40/40/40
f 5/5/5 40/40/40 2/2/2
f 5/5/5 4/4/4 72/72/72
f 72/72/72 4/4/4 60/60/60
f 72/72/72 60/60/60 71/71/71
f 71/71/71 60/60/60 61/61/61
f 71/71/71 61/61/61 70/70/70
f 70/70/70 61/61/61 62/62/62
f 70/70/70 62/62/62 69/69/69
f 69/69/69 62/62/62 63/63/63
f 69/69/69 63/63/63 68/68/68
f 68/68/68 63/63/63 64/64/64
f 68/68/68 64/64/64 66/66/66
f 66/66/66 64/64/64 65/65/65
f 66/66/66 65/65/65 73/73/73
f 74/74/74 75/75/75 76/76/76
f 76/76/76 75/75/75 41/41/41
f 76/76/76 41/41/41 77/77/77
f 77/77/77 41/41/41 43/43/43
f 77/77/77 43/43/43 78/78/78
f 78/78/78 43/43/43 44/44/44
f 78/78/78 44/44/44 79/79/79
f 79/79/79 44/44/44 45/45/45
f 79/79/79 45/45/45 80/80/80
f 80/80/80 45/45/45 46/46/46
f 80/80/80 46/46/46 81/81/81
f 82/82/82 83/83/83 84/84/84
f 84/84/84 83/83/83 52/52/52
f 84/84/84 52/52/52 85/85/85
f 85/85/85 52/52/52 54/54/54
f 85/85/85 54/54/54 86/86/86
f 86/86/86 54/54/54 55/55/55
f 86/86/86 55/55/55 87/87/87
f 87/87/87 55/55/55 56/56/56
f 87/87/87 56/56/56 88/88/88
f 88/88/88 56/56/56 57/57/57
f 88/88/88 57/57/57 89/89/89
f 89/89/89 57/57/57 58/58/58
f 89/89/89 58/58/58 90/90/90
f 90/90/90 91/91/91 89/89/89
f 89/89/89 91/91/91 74/74/74
f 89/89/89 74/74/74 88/88/88
f 88/88/88 74/74/74 76/76/76
f 88/88/88 76/76/76 87/87/87
f 87/87/87 76/76/76 77/77/77
f 87/87/87 77/77/77 86/86/86
f 86/86/86 77/77/77 78/78/78
f 86/86/86 78/78/78 85/85/85
f 85/85/85 78/78/78 79/79/79
f 85/85/85 79/79/79 84/84/84
f 84/84/84 79/79/79 80/80/80
f 84/84/84 80/80/80 82/82/82
f 82/82/82 80/80/80 81/81/81
f 82/82/82 81/81/81 92/92/92
g mesh01
g mesh02
