mtllib 3542-0.mtl
g mesh00
usemtl texture00
v -4.532852 -3.995924 15.335754
vt 0.714844 0.003906
vn -0.370079 -0.826772 -0.425197
v -3.003577 -2.908335 12.817215
vt 0.714844 0.105469
vn -0.370079 -0.826772 -0.425197
v 5.212530 -2.908335 12.820469
vt 0.542969 0.105469
vn 0.370079 -0.826772 -0.425197
v 6.741805 -3.995924 15.342262
vt 0.542969 0.003906
vn 0.370079 -0.826772 -0.425197
v -3.568309 2.933170 20.450926
vt 0.996094 0.003906
vn -0.204724 0.976378 -0.110236
v -2.443842 3.314865 18.137384
vt 0.996094 0.105469
vn -0.204724 0.976378 -0.110236
v -6.716817 1.356179 14.161087
vt 0.853119 0.105469
vn -0.874016 -0.062992 -0.488189
v -8.084169 0.482923 16.575500
vt 0.853119 0.003906
vn -0.874016 -0.062992 -0.488189
v 6.741805 -3.995924 15.342262
vt 0.714844 0.003906
vn 0.370079 -0.826772 -0.425197
v 5.212530 -2.908335 12.820469
vt 0.714844 0.105469
vn 0.370079 -0.826772 -0.425197
v 10.737912 0.482923 16.591770
vt 0.853119 0.003906
vn 0.874016 -0.062992 -0.488189
v 9.412540 1.356179 14.174102
vt 0.853119 0.105469
vn 0.874016 -0.062992 -0.488189
v 5.778262 3.804806 20.454180
vt 0.996094 0.003906
vn 0.204724 0.976378 -0.110236
v 4.652795 4.186502 18.137384
vt 0.996094 0.105469
vn 0.204724 0.976378 -0.110236
f 1/1/1 2/2/2 3/3/3
f 4/4/4 1/1/1 3/3/3
f 5/5/5 6/6/6 7/7/7
f 2/2/2 1/1/1 7/7/7
f 7/7/7 1/1/1 8/8/8
f 7/7/7 8/8/8 5/5/5
f 9/9/9 10/10/10 11/11/11
f 11/11/11 10/10/10 12/12/12
f 11/11/11 12/12/12 13/13/13
f 13/13/13 12/12/12 14/14/14
usemtl texture00
v 1.709190 -2.567671 -13.341097
vt 0.914062 0.996094
vn 0.023622 -0.913386 0.417323
v -0.525751 0.012957 -1.783152
vt 0.996094 0.683594
vn -1.000000 0.000000 0.015748
v -1.375348 0.012687 -13.123084
vt 0.995392 0.985535
vn -0.818898 0.000000 0.574803
v 3.766215 0.012957 -1.783152
vt 0.847656 0.683594
vn 1.000000 0.000000 0.039370
v 1.670209 1.617751 -1.783152
vt 0.917969 0.683594
vn 0.000000 1.000000 0.015748
v 1.462307 1.706022 9.950506
vt 0.917969 0.433594
vn 0.000000 0.944882 -0.338583
v -1.686201 0.012957 9.950506
vt 0.996094 0.433594
vn -0.779528 0.000000 -0.629921
v 4.328949 -3.210938 -15.983285
vt 0.441406 0.097656
vn 0.330709 -0.944882 -0.086614
v -1.518281 -3.462792 -15.996301
vt 0.441406 0.035156
vn -0.503937 -0.858268 -0.133858
v 1.759166 0.012687 -17.320649
vt 0.386719 0.082031
vn 0.000000 0.000000 -1.000000
v -3.230469 0.012687 -15.885668
vt 0.386719 0.011719
vn -0.921260 0.000000 -0.393701
v -1.517281 3.488707 -15.996301
vt 0.339844 0.035156
vn -0.496063 0.858268 -0.133858
v 4.325950 3.219036 -15.983285
vt 0.339844 0.097656
vn 0.330709 0.944882 -0.086614
v 10.934818 0.012687 -15.059170
vt 0.386719 0.191406
vn 0.889764 0.000000 -0.464567
v -1.375348 0.012687 -13.123084
vt 0.526581 0.026245
vn -0.818898 0.000000 0.574803
v -1.518281 -3.462792 -15.996301
vt 0.457825 0.044312
vn -0.503937 -0.858268 -0.133858
v 1.709190 -2.567671 -13.341097
vt 0.521271 0.074646
vn 0.023622 -0.913386 0.417323
v 4.328949 -3.210938 -15.983285
vt 0.457184 0.130737
vn 0.330709 -0.944882 -0.086614
v 4.817717 0.012687 -13.123084
vt 0.525940 0.115448
vn 0.692913 0.000000 0.724409
v 1.670209 -1.591567 -1.783152
vt 0.917969 0.683594
vn 0.000000 -1.000000 0.015748
v 4.817717 0.012687 -13.123084
vt 0.847656 0.988281
vn 0.692913 0.000000 0.724409
v 1.708191 2.593585 -13.341097
vt 0.914062 0.996094
vn 0.023622 0.913386 0.417323
v 1.462307 -1.679838 9.950506
vt 0.917969 0.433594
vn 0.000000 -0.944882 -0.338583
v 4.575832 0.012957 9.950506
vt 0.847656 0.433594
vn 0.818898 0.000000 -0.574803
v 10.934818 0.012687 -15.059170
vt 0.486786 0.188568
vn 0.889764 0.000000 -0.464567
v 4.325950 3.219036 -15.983285
vt 0.457184 0.130737
vn 0.330709 0.944882 -0.086614
v 1.708191 2.593585 -13.341097
vt 0.521271 0.074646
vn 0.023622 0.913386 0.417323
v -1.517281 3.488707 -15.996301
vt 0.457825 0.044312
vn -0.496063 0.858268 -0.133858
v -3.230469 0.012687 -15.885668
vt 0.464111 0.005737
vn -0.921260 0.000000 -0.393701
f 15/15/15 16/16/16 17/17/17
f 18/18/18 19/19/19 20/20/20
f 20/20/20 19/19/19 21/21/21
f 22/22/22 23/23/23 24/24/24
f 24/24/24 23/23/23 25/25/25
f 24/24/24 25/25/25 26/26/26
f 26/26/26 27/27/27 24/24/24
f 24/24/24 27/27/27 28/28/28
f 24/24/24 28/28/28 22/22/22
f 29/29/29 30/30/30 31/31/31
f 31/31/31 30/30/30 32/32/32
f 31/31/31 32/32/32 33/33/33
f 16/16/16 15/15/15 34/34/34
f 34/34/34 15/15/15 35/35/35
f 34/34/34 35/35/35 18/18/18
f 18/18/18 35/35/35 36/36/36
f 18/18/18 36/36/36 19/19/19
f 36/36/36 17/17/17 19/19/19
f 19/19/19 17/17/17 16/16/16
f 19/19/19 16/16/16 21/21/21
f 21/21/21 16/16/16 34/34/34
f 21/21/21 34/34/34 37/37/37
f 37/37/37 34/34/34 18/18/18
f 37/37/37 18/18/18 38/38/38
f 38/38/38 18/18/18 20/20/20
f 32/32/32 39/39/39 33/33/33
f 33/33/33 39/39/39 40/40/40
f 33/33/33 40/40/40 41/41/41
f 41/41/41 40/40/40 42/42/42
f 41/41/41 42/42/42 29/29/29
f 29/29/29 42/42/42 43/43/43
f 29/29/29 43/43/43 30/30/30
usemtl texture00
v -1.686201 0.012957 9.950506
vt 0.484253 0.621094
vn -0.779528 0.000000 -0.629921
v -1.801146 2.635156 13.061260
vt 0.382690 0.566406
vn -0.283465 0.929134 -0.251969
v 1.462307 1.706022 9.950506
vt 0.484253 0.480469
vn 0.000000 0.944882 -0.338583
v 4.056078 2.635156 13.064514
vt 0.382690 0.410156
vn 0.299213 0.921260 -0.251969
v 4.575832 0.012957 9.950506
vt 0.484253 0.347656
vn 0.818898 0.000000 -0.574803
v 7.240569 0.012957 13.064514
vt 0.382690 0.316406
vn 0.787402 0.000000 -0.622047
v 4.056078 -2.609242 13.064514
vt 0.382690 0.410156
vn 0.322835 -0.905512 -0.283465
v 1.462307 -1.679838 9.950506
vt 0.484253 0.480469
vn 0.000000 -0.944882 -0.338583
v -1.801146 -2.609242 13.061260
vt 0.382690 0.566406
vn -0.307087 -0.889764 -0.338583
v -4.708769 0.012957 13.054752
vt 0.382935 0.651489
vn -0.779528 0.000000 -0.629921
f 44/44/44 45/45/45 46/46/46
f 46/46/46 45/45/45 47/47/47
f 46/46/46 47/47/47 48/48/48
f 47/47/47 49/49/49 48/48/48
f 48/48/48 49/49/49 50/50/50
f 48/48/48 50/50/50 51/51/51
f 51/51/51 50/50/50 52/52/52
f 51/51/51 52/52/52 44/44/44
f 44/44/44 52/52/52 53/53/53
f 44/44/44 53/53/53 45/45/45
usemtl texture00
v -3.139512 4.693989 37.729274
vt 0.160156 0.730469
vn -0.322835 0.944882 -0.055118
v -12.680991 0.017006 38.132761
vt 0.081116 0.719543
vn -0.456693 0.889764 -0.102362
v -15.528641 0.012687 42.785875
vt 0.025696 0.666473
vn -0.944882 -0.094488 0.322835
v 0.683676 4.467779 52.349164
vt 0.207031 0.582031
vn -0.157480 0.968504 0.204724
v -1.678205 5.124274 61.772534
vt 0.175781 0.511719
vn -0.055118 1.000000 -0.094488
v 1.673207 2.659990 59.491532
vt 0.232086 0.508759
vn 0.480315 0.874016 0.070866
v 5.874216 8.845129 24.469525
vt 0.253906 0.886719
vn 0.472441 0.834646 -0.283465
v -5.536376 4.388957 24.908805
vt 0.167969 0.910156
vn -0.283465 0.960630 0.015748
v 7.256561 5.946512 33.658612
vt 0.261719 0.808594
vn 0.275591 0.960630 0.007874
v 4.056078 2.635156 13.064514
vt 0.597656 0.761719
vn 0.299213 0.921260 -0.251969
v 11.275657 0.015657 18.599442
vt 0.514557 0.700836
vn 0.370079 -0.007874 -0.929134
v 7.240569 0.012957 13.064514
vt 0.597656 0.707031
vn 0.787402 0.000000 -0.622047
v -1.434320 -0.890803 93.716328
vt 0.166962 0.156708
vn 0.251969 -0.968504 0.047244
v -0.631701 -2.060993 66.884452
vt 0.167969 0.410156
vn 0.370079 -0.921260 0.102362
v 5.238518 -1.134019 68.127452
vt 0.277344 0.410156
vn 0.314961 -0.952756 -0.047244
v 21.908618 -1.062754 26.594339
vt 0.071167 0.202240
vn 0.354331 -0.921260 0.165354
v 29.750902 0.019436 28.647566
vt 0.042969 0.003906
vn 0.141732 -0.992126 0.031496
v 20.128462 0.019436 30.147626
vt 0.003906 0.207031
vn 0.637795 0.692913 0.338583
v -25.500916 0.714532 25.100787
vt 0.097656 0.957031
vn -0.496063 0.866142 -0.039370
v 2.736703 4.813033 21.306709
vt 0.238281 0.964844
vn 0.047244 0.968504 -0.259843
v -8.572938 0.007288 19.142848
vt 0.078949 0.982330
vn -0.795276 0.015748 -0.614173
v -1.678205 5.124274 61.772534
vt 0.175781 0.511719
vn 0.000000 -0.740157 0.677165
v -1.657215 3.890917 60.204142
vt 0.162994 0.479980
vn 0.000000 -0.740157 0.677165
v 1.673207 2.659990 59.491532
vt 0.231995 0.508972
vn -0.149606 -0.732283 0.669291
v -1.657215 3.890917 60.204142
vt 0.162994 0.479980
vn -0.188976 0.984252 0.039370
v -3.078541 3.489516 68.583002
vt 0.144531 0.402344
vn -0.212598 0.976378 0.062992
v -3.852175 1.390462 57.425289
vt 0.121094 0.542969
vn -0.535433 0.842520 -0.094488
v -7.641379 0.012687 57.132436
vt 0.050781 0.527344
vn -0.905512 -0.007874 -0.433071
v -4.805723 1.007417 65.465741
vt 0.097656 0.441406
vn -0.425197 0.905512 0.000000
v -14.120309 0.013497 31.589115
vt 0.097656 0.847656
vn -0.881890 0.023622 0.480315
v 9.140669 1.594536 31.579354
vt 0.285156 0.832031
vn 0.425197 0.905512 -0.047244
v 20.128462 0.019436 30.147626
vt 0.378906 0.832031
vn 0.637795 0.692913 0.338583
v 21.908618 1.097037 26.594339
vt 0.382263 0.878326
vn 0.220472 0.960630 0.188976
v 29.750902 0.019436 28.647566
vt 0.042969 0.003906
vn 0.141732 0.992126 0.031496
v 21.908618 1.097037 26.594339
vt 0.042969 0.269531
vn 0.220472 0.960630 0.188976
v -6.107106 0.012687 53.608434
vt 0.074219 0.566406
vn -1.000000 0.015748 -0.070866
v -0.094955 -4.756885 54.405646
vt 0.191406 0.566406
vn 0.023622 -0.913386 0.409449
v -0.608712 -3.487627 55.303729
vt 0.175781 0.527344
vn -0.007874 -0.984252 0.188976
v -4.422904 -1.525972 50.995531
vt 0.136719 0.589844
vn -0.480315 -0.874016 0.055118
v 2.677731 -6.035592 21.388057
vt 0.238281 0.964844
vn -0.023622 -1.000000 -0.086614
v -25.500916 -0.680249 25.100787
vt 0.097992 0.956970
vn -0.614173 -0.787402 0.031496
v -8.572938 0.007288 19.142848
vt 0.078979 0.981995
vn -0.795276 0.015748 -0.614173
v 13.167760 1.379124 38.087206
vt 0.344299 0.736633
vn 0.377953 0.921260 0.133858
v 9.932293 1.261970 48.551832
vt 0.297089 0.613037
vn 0.401575 0.889764 0.220472
v 15.039873 0.014307 41.184944
vt 0.371094 0.714844
vn 0.685039 0.047244 0.732283
v 12.793937 0.014037 47.452005
vt 0.341248 0.619751
vn 0.929134 0.102362 -0.370079
v 10.000261 -1.484401 48.548579
vt 0.297089 0.613037
vn 0.259843 -0.960630 0.110236
v 15.039873 0.014307 41.184944
vt 0.363983 0.700653
vn 0.685039 0.047244 0.732283
v -3.852175 1.390462 57.425289
vt 0.121094 0.542969
vn 0.133858 -0.732283 0.677165
v -1.657215 3.890917 60.204142
vt 0.163086 0.479767
vn 0.000000 -0.740157 0.677165
v 21.908618 -1.062754 26.594339
vt 0.369690 0.876953
vn 0.354331 -0.921260 0.165354
v 29.672939 0.020785 19.676492
vt 0.457031 0.988281
vn 0.653543 0.000000 -0.755906
v 8.388025 3.932218 23.913103
vt 0.269531 0.910156
vn 0.496063 0.858268 -0.118110
v 2.736703 4.813033 21.306709
vt 0.441223 0.825104
vn 0.047244 0.968504 -0.259843
v -2.467831 0.563905 93.807438
vt 0.152344 0.160156
vn -0.669291 0.716535 0.220472
v -1.843127 1.582119 94.171877
vt 0.167969 0.152344
vn -0.181102 0.976378 0.141732
v -1.657215 3.890917 60.204142
vt 0.163086 0.479767
vn -0.188976 0.984252 0.039370
v -3.713240 0.012687 94.142592
vt 0.128510 0.151215
vn -0.314961 -0.944882 0.118110
v -11.821398 0.012687 60.148825
vt 0.011414 0.500610
vn -0.897638 -0.007874 -0.440945
v -2.467831 -0.322848 93.807438
vt 0.147095 0.155426
vn -0.614173 -0.763780 0.196850
v -4.803724 -0.766360 65.465741
vt 0.097656 0.441406
vn -0.385827 -0.921260 0.000000
v -3.075543 -3.328362 68.583002
vt 0.131073 0.401367
vn -0.141732 -0.992126 0.094488
v 0.070966 0.012687 102.215583
vt 0.196167 0.053192
vn -0.283465 0.937008 0.188976
v 2.141985 0.012687 106.621399
vt 0.232635 0.008118
vn -0.047244 1.000000 0.094488
v -1.434320 1.132129 93.716328
vt 0.175781 0.167969
vn 0.244094 0.968504 0.062992
v 5.242516 1.375075 68.127452
vt 0.277344 0.410156
vn 0.346457 0.937008 -0.055118
v -0.632700 2.279915 66.884452
vt 0.191406 0.425781
vn 0.307087 0.952756 0.110236
v 10.000261 -1.484401 48.548579
vt 0.042969 0.269531
vn 0.259843 -0.960630 0.110236
v 12.793937 0.014037 47.452005
vt 0.089844 0.183594
vn 0.929134 0.102362 -0.370079
v 21.070016 1.673899 55.219127
vt 0.042969 0.003906
vn 0.748031 0.496063 0.448819
v 15.039873 0.014307 41.184944
vt 0.003906 0.207031
vn 0.685039 0.047244 0.732283
v 13.096794 -1.851520 38.048159
vt 0.042969 0.269531
vn 0.393701 -0.913386 0.141732
v 32.751480 1.907127 43.117776
vt 0.042969 0.003906
vn 0.622047 0.165354 0.771654
v 16.972957 0.017276 35.780172
vt 0.089844 0.183594
vn 0.968504 0.078740 -0.259843
v 13.167760 1.379124 38.087206
vt 0.042969 0.269531
vn 0.377953 0.921260 0.133858
v 11.359617 0.033203 52.261308
vt 0.336456 0.589050
vn 0.007874 0.472441 0.881890
v 6.934714 -1.064914 54.737546
vt 0.253906 0.511719
vn 0.370079 -0.929134 0.047244
v 8.103160 0.012687 66.744534
vt 0.340240 0.425140
vn 0.944882 -0.031496 -0.330709
v 16.972957 0.017276 35.780172
vt 0.371094 0.753906
vn 0.968504 0.078740 -0.259843
v 5.955178 4.240490 41.058040
vt 0.246094 0.707031
vn 0.267717 0.968504 0.031496
v 1.746173 5.539442 50.396809
vt 0.214844 0.605469
vn 0.244094 0.889764 0.385827
v 9.932293 1.261970 48.551832
vt 0.042969 0.269531
vn 0.401575 0.889764 0.220472
v 11.359617 0.033203 52.261308
vt 0.003906 0.207031
vn 0.007874 0.472441 0.881890
v -1.843127 -1.341063 94.171877
vt 0.159119 0.151062
vn -0.181102 -0.976378 0.133858
v -4.708769 0.012957 13.054752
vt 0.597656 0.972656
vn -0.779528 0.000000 -0.629921
v -8.572938 0.007288 19.142848
vt 0.462860 0.984955
vn -0.795276 0.015748 -0.614173
v -1.801146 2.635156 13.061260
vt 0.597656 0.878906
vn -0.283465 0.929134 -0.251969
v 4.056078 2.635156 13.064514
vt 0.597992 0.761993
vn 0.299213 0.921260 -0.251969
v 21.908618 -1.062754 26.594339
vt 0.382263 0.878326
vn 0.354331 -0.921260 0.165354
v 6.132094 -5.074065 31.390626
vt 0.238281 0.769531
vn 0.125984 -0.992126 0.007874
v -25.500916 -0.680249 25.100787
vt 0.097656 0.957031
vn -0.614173 -0.787402 0.031496
v -6.107106 0.012687 53.608434
vt 0.074219 0.566406
vn -1.000000 0.015748 -0.070866
v -3.586301 3.599112 46.550668
vt 0.144531 0.621094
vn -0.480315 0.866142 0.157480
v 3.735230 -3.586155 43.788085
vt 0.230469 0.636719
vn 0.015748 -0.992126 0.141732
v -4.422904 -1.525972 50.995531
vt 0.136719 0.589844
vn -0.511811 -0.858268 0.062992
v 11.359617 0.033203 52.261308
vt 0.332031 0.597656
vn 0.007874 0.472441 0.881890
v 11.309641 0.012687 70.932337
vt 0.377197 0.388428
vn 0.889764 -0.031496 -0.456693
v 6.090114 0.012687 97.132950
vt 0.302185 0.115814
vn 0.196850 -0.976378 0.070866
v 2.141985 0.012687 106.621399
vt 0.232635 0.008118
vn -0.039370 -1.000000 0.078740
v 0.070966 0.012687 102.215583
vt 0.196167 0.053192
vn -0.228346 -0.968504 0.157480
v -15.528641 0.012687 42.785875
vt 0.027344 0.667969
vn -0.944882 -0.094488 0.322835
v -12.680991 0.017006 38.132761
vt 0.081116 0.719543
vn -0.433071 -0.905512 -0.039370
v -3.123520 -3.832880 39.056876
vt 0.160156 0.707031
vn -0.377953 -0.921260 0.118110
v -14.120309 0.013497 31.589115
vt 0.097656 0.824219
vn -0.881890 0.023622 0.480315
v -4.293965 -3.574817 29.858027
vt 0.136719 0.816406
vn -0.259843 -0.960630 0.094488
v 2.677731 -6.035592 21.388057
vt 0.207031 0.925781
vn -0.023622 -1.000000 -0.086614
v -7.641379 0.012687 57.132436
vt 0.074219 0.527344
vn -0.905512 -0.007874 -0.433071
v -6.107106 0.012687 53.608434
vt 0.080383 0.543945
vn -1.000000 0.015748 -0.070866
v 4.565836 -6.777117 38.907195
vt 0.238281 0.683594
vn 0.062992 -0.992126 0.118110
v 7.240569 0.012957 13.064514
vt 0.597992 0.706970
vn 0.787402 0.000000 -0.622047
v 11.275657 0.015657 18.599442
vt 0.514984 0.700989
vn 0.370079 -0.007874 -0.929134
v 4.056078 -2.609242 13.064514
vt 0.597992 0.761993
vn 0.322835 -0.905512 -0.283465
v 2.677731 -6.035592 21.388057
vt 0.440979 0.824982
vn -0.023622 -1.000000 -0.086614
v -1.801146 -2.609242 13.061260
vt 0.597992 0.878998
vn -0.307087 -0.889764 -0.338583
v -8.572938 0.007288 19.142848
vt 0.480469 0.980469
vn -0.795276 0.015748 -0.614173
v -4.708769 0.012957 13.054752
vt 0.597992 0.972992
vn -0.779528 0.000000 -0.629921
v -3.713240 0.012687 94.142592
vt 0.128510 0.151215
vn -0.440945 0.881890 0.165354
v 13.096794 -1.851520 38.048159
vt 0.343506 0.721436
vn 0.393701 -0.913386 0.141732
v 21.908618 -1.062754 26.594339
vt 0.395630 0.878326
vn 0.354331 -0.921260 0.165354
v 11.275657 0.015657 18.599442
vt 0.386719 0.988281
vn 0.370079 -0.007874 -0.929134
v 6.090114 0.012687 97.132950
vt 0.302185 0.115814
vn 0.251969 0.968504 0.086614
v 1.673207 2.659990 59.491532
vt 0.231995 0.508972
vn 0.480315 0.874016 0.070866
f 54/54/54 55/55/55 56/56/56
f 57/57/57 58/58/58 59/59/59
f 60/60/60 61/61/61 62/62/62
f 63/63/63 64/64/64 65/65/65
f 66/66/66 67/67/67 68/68/68
f 69/69/69 70/70/70 71/71/71
f 72/72/72 73/73/73 74/74/74
f 75/75/75 76/76/76 77/77/77
f 78/78/78 79/79/79 59/59/59
f 80/80/80 81/81/81 82/82/82
f 55/55/55 54/54/54 83/83/83
f 84/84/84 85/85/85 86/86/86
f 71/71/71 87/87/87 88/88/88
f 58/58/58 57/57/57 80/80/80
f 80/80/80 57/57/57 89/89/89
f 80/80/80 89/89/89 81/81/81
f 90/90/90 91/91/91 92/92/92
f 93/93/93 94/94/94 95/95/95
f 96/96/96 97/97/97 98/98/98
f 98/98/98 97/97/97 99/99/99
f 99/99/99 100/100/100 101/101/101
f 102/102/102 103/103/103 75/75/75
f 61/61/61 60/60/60 73/73/73
f 104/104/104 105/105/105 86/86/86
f 86/86/86 105/105/105 106/106/106
f 86/86/86 106/106/106 84/84/84
f 64/64/64 63/63/63 107/107/107
f 108/108/108 109/109/109 82/82/82
f 82/82/82 109/109/109 79/79/79
f 82/82/82 79/79/79 80/80/80
f 80/80/80 79/79/79 110/110/110
f 111/111/111 112/112/112 113/113/113
f 113/113/113 112/112/112 114/114/114
f 113/113/113 114/114/114 115/115/115
f 116/116/116 117/117/117 118/118/118
f 118/118/118 117/117/117 119/119/119
f 118/118/118 119/119/119 120/120/120
f 121/121/121 122/122/122 123/123/123
f 124/124/124 125/125/125 126/126/126
f 125/125/125 127/127/127 126/126/126
f 126/126/126 127/127/127 128/128/128
f 126/126/126 128/128/128 124/124/124
f 100/100/100 129/129/129 130/130/130
f 130/130/130 129/129/129 131/131/131
f 132/132/132 62/62/62 96/96/96
f 96/96/96 62/62/62 133/133/133
f 96/96/96 133/133/133 97/97/97
f 97/97/97 133/133/133 134/134/134
f 122/122/122 135/135/135 123/123/123
f 123/123/123 135/135/135 136/136/136
f 123/123/123 136/136/136 121/121/121
f 67/67/67 66/66/66 137/137/137
f 70/70/70 69/69/69 88/88/88
f 138/138/138 139/139/139 140/140/140
f 140/140/140 139/139/139 107/107/107
f 140/140/140 107/107/107 141/141/141
f 142/142/142 143/143/143 105/105/105
f 105/105/105 143/143/143 93/93/93
f 83/83/83 72/72/72 144/144/144
f 144/144/144 72/72/72 74/74/74
f 145/145/145 57/57/57 56/56/56
f 56/56/56 57/57/57 146/146/146
f 56/56/56 146/146/146 54/54/54
f 147/147/147 90/90/90 148/148/148
f 131/131/131 149/149/149 119/119/119
f 119/119/119 149/149/149 97/97/97
f 150/150/150 151/151/151 68/68/68
f 68/68/68 151/151/151 152/152/152
f 68/68/68 152/152/152 66/66/66
f 66/66/66 152/152/152 153/153/153
f 66/66/66 153/153/153 137/137/137
f 154/154/154 155/155/155 156/156/156
f 156/156/156 155/155/155 157/157/157
f 156/156/156 157/157/157 158/158/158
f 158/158/158 157/157/157 94/94/94
f 158/158/158 94/94/94 159/159/159
f 160/160/160 161/161/161 92/92/92
f 92/92/92 161/161/161 154/154/154
f 92/92/92 154/154/154 147/147/147
f 147/147/147 154/154/154 156/156/156
f 147/147/147 156/156/156 162/162/162
f 162/162/162 156/156/156 158/158/158
f 162/162/162 158/158/158 143/143/143
f 143/143/143 158/158/158 159/159/159
f 163/163/163 164/164/164 165/165/165
f 165/165/165 164/164/164 166/166/166
f 165/165/165 166/166/166 167/167/167
f 167/167/167 166/166/166 168/168/168
f 167/167/167 168/168/168 169/169/169
f 81/81/81 112/112/112 82/82/82
f 82/82/82 112/112/112 170/170/170
f 82/82/82 170/170/170 108/108/108
f 108/108/108 170/170/170 116/116/116
f 108/108/108 116/116/116 109/109/109
f 109/109/109 116/116/116 118/118/118
f 109/109/109 118/118/118 79/79/79
f 79/79/79 118/118/118 120/120/120
f 79/79/79 120/120/120 59/59/59
f 59/59/59 120/120/120 119/119/119
f 171/171/171 172/172/172 132/132/132
f 132/132/132 172/172/172 85/85/85
f 132/132/132 85/85/85 62/62/62
f 62/62/62 85/85/85 84/84/84
f 62/62/62 84/84/84 60/60/60
f 60/60/60 84/84/84 106/106/106
f 60/60/60 106/106/106 73/73/73
f 73/73/73 106/106/106 105/105/105
f 73/73/73 105/105/105 173/173/173
f 173/173/173 105/105/105 93/93/93
f 117/117/117 174/174/174 119/119/119
f 119/119/119 174/174/174 150/150/150
f 119/119/119 150/150/150 131/131/131
f 131/131/131 150/150/150 68/68/68
f 131/131/131 68/68/68 130/130/130
f 130/130/130 68/68/68 67/67/67
f 130/130/130 67/67/67 115/115/115
f 115/115/115 67/67/67 137/137/137
f 115/115/115 137/137/137 113/113/113
f 113/113/113 137/137/137 153/153/153
f 113/113/113 153/153/153 111/111/111
f 112/112/112 160/160/160 114/114/114
f 114/114/114 160/160/160 92/92/92
f 114/114/114 92/92/92 115/115/115
f 115/115/115 92/92/92 91/91/91
f 115/115/115 91/91/91 130/130/130
f 130/130/130 91/91/91 90/90/90
f 130/130/130 90/90/90 100/100/100
f 100/100/100 90/90/90 147/147/147
f 100/100/100 147/147/147 101/101/101
f 101/101/101 147/147/147 162/162/162
f 101/101/101 162/162/162 171/171/171
f 171/171/171 162/162/162 143/143/143
f 171/171/171 143/143/143 172/172/172
f 73/73/73 72/72/72 61/61/61
f 61/61/61 72/72/72 83/83/83
f 61/61/61 83/83/83 62/62/62
f 62/62/62 83/83/83 54/54/54
f 62/62/62 54/54/54 133/133/133
f 133/133/133 54/54/54 146/146/146
f 133/133/133 146/146/146 134/134/134
f 134/134/134 146/146/146 57/57/57
f 134/134/134 57/57/57 97/97/97
f 97/97/97 57/57/57 175/175/175
f 97/97/97 175/175/175 119/119/119
g mesh01
