mtllib 2080-0.mtl
g mesh00
usemtl texture00
v 2.686118 29.554933 -20.971208
vt 0.406250 0.867188
vn 0.929134 -0.078740 0.362205
v 1.298227 32.622120 -16.583767
vt 0.562500 0.859375
vn 0.937008 0.346457 0.062992
v -0.003781 31.357005 -15.868777
vt 0.562500 0.984375
vn 0.000000 -0.606299 0.795276
v 2.021205 46.994081 8.775574
vt 0.750000 0.007812
vn 0.385827 0.661417 0.645669
v 4.459399 47.484831 6.813153
vt 0.757812 0.125000
vn 0.622047 0.590551 0.511811
v 0.000000 49.925833 6.396882
vt 0.570312 0.007812
vn 0.000000 0.787402 0.622047
v 0.000000 49.925833 6.396882
vt 0.828125 0.007812
vn 0.000000 0.787402 0.622047
v 0.000000 47.276103 9.507851
vt 0.976562 0.007812
vn 0.000000 0.763780 0.645669
v 2.021205 46.994081 8.775574
vt 0.976562 0.046875
vn 0.385827 0.661417 0.645669
v -4.038359 49.482884 4.156487
vt 0.679688 0.015625
vn -0.574803 0.700787 0.433071
v -4.459399 47.484831 6.813153
vt 0.703125 0.109375
vn -0.622047 0.590551 0.511811
v 8.534757 43.103135 -5.150835
vt 0.421875 0.406250
vn 0.984252 -0.125984 -0.157480
v 7.217355 37.869001 -5.535298
vt 0.420746 0.684143
vn 0.952756 -0.220472 -0.204724
v 5.875917 37.030902 -7.611121
vt 0.292389 0.667389
vn 0.811024 -0.228346 -0.543307
v -4.836146 50.269996 2.395287
vt 0.523438 0.023438
vn -0.440945 0.874016 0.220472
v -7.195479 48.267163 0.793819
vt 0.625000 0.203125
vn -0.811024 0.559055 0.181102
v -4.353531 49.065428 5.633488
vt 0.679688 0.015625
vn -0.543307 0.677165 0.496063
v -3.035589 47.290443 8.497599
vt 0.816406 0.284576
vn -0.480315 0.535433 0.692913
v -1.589633 47.580431 9.219504
vt 0.820312 0.195312
vn -0.370079 0.653543 0.661417
v -4.353531 49.065428 5.633488
vt 0.679688 0.273438
vn -0.543307 0.677165 0.496063
v -0.005671 27.991863 -18.274436
vt 0.406250 0.984375
vn 0.000000 -0.582677 0.818898
v 0.000000 52.209095 -2.726506
vt 0.960938 0.914062
vn 0.000000 1.000000 -0.039370
v 4.836146 50.269996 2.395287
vt 0.782806 0.809357
vn 0.440945 0.874016 0.220472
v 4.899073 50.749592 -3.368891
vt 0.782806 0.918732
vn 0.511811 0.842520 -0.157480
v 4.340028 47.231489 7.570324
vt 0.835938 0.054688
vn 0.598425 0.488189 0.637795
v 3.035589 47.290443 8.497599
vt 0.906250 0.007812
vn 0.480315 0.535433 0.692913
v 3.288914 43.082422 11.187456
vt 0.992188 0.109375
vn 0.606299 0.385827 0.692913
v 6.529486 42.387724 -9.121314
vt 0.291656 0.454407
vn 0.724409 0.007874 -0.692913
v 5.027086 45.921761 -9.235408
vt 0.226562 0.289062
vn 0.566929 0.299213 -0.771654
v 7.409105 47.730206 -4.672331
vt 0.429688 0.257812
vn 0.881890 0.401575 -0.259843
v 0.000000 36.195990 -11.011820
vt 0.007812 0.773438
vn 0.000000 -0.354331 -0.937008
v 0.000000 39.537232 -11.376922
vt 0.007812 0.656250
vn 0.000000 -0.055118 -1.000000
v 4.771060 42.245916 -9.124080
vt 0.239929 0.658478
vn 0.574803 -0.118110 -0.811024
v 0.000000 51.581318 2.685709
vt 0.992188 0.750000
vn 0.000000 0.976378 0.220472
v 0.000000 50.271589 6.396882
vt 0.992188 0.664062
vn 0.000000 0.889764 0.472441
v -0.004591 29.094457 -21.368118
vt 0.718750 0.742188
vn 0.000000 -0.598425 -0.803150
v 1.699822 30.937956 -18.833843
vt 0.687500 0.921875
vn 0.881890 -0.283465 -0.377953
v -0.005401 28.943089 -18.166565
vt 0.750000 0.921875
vn 0.000000 -1.000000 -0.039370
v -1.711975 30.937956 -18.833843
vt 0.687500 0.921875
vn -0.881890 -0.283465 -0.377953
v -0.005401 32.595033 -20.475417
vt 0.750000 0.921875
vn 0.000000 0.244094 -0.976378
v -0.005671 32.480313 -22.311297
vt 0.406250 0.750000
vn 0.000000 0.960630 -0.283465
v 2.151379 43.421804 11.174318
vt 0.993164 0.057617
vn 0.480315 0.511811 0.708661
v 6.463859 47.709492 1.815135
vt 0.625000 0.203125
vn 0.905512 0.362205 0.244094
v 4.038359 49.482884 4.156487
vt 0.679688 0.015625
vn 0.574803 0.700787 0.433071
v 4.459399 47.484831 6.813153
vt 0.703125 0.109375
vn 0.622047 0.590551 0.511811
v 7.270829 41.732860 3.945585
vt 0.773438 0.351562
vn 0.992126 0.070866 0.157480
v 6.413086 45.654079 4.581747
vt 0.779510 0.223938
vn 0.905512 0.291339 0.314961
v 6.463319 40.819874 7.054480
vt 0.973083 0.279510
vn 0.944882 0.157480 0.291339
v 6.370955 36.979915 5.484129
vt 0.981506 0.470154
vn 0.976378 -0.157480 0.149606
v 7.349149 40.274950 1.964495
vt 0.767334 0.482635
vn 1.000000 -0.118110 -0.023622
v -2.151379 43.421804 11.174318
vt 0.993164 0.057617
vn -0.480315 0.511811 0.708661
v -2.021205 46.994081 8.775574
vt 0.750000 0.007812
vn -0.385827 0.661417 0.645669
v -4.459399 47.484831 6.813153
vt 0.757812 0.125000
vn -0.622047 0.590551 0.511811
v -2.021205 46.994081 8.775574
vt 0.976562 0.046875
vn -0.385827 0.661417 0.645669
v -6.463859 47.709492 1.815135
vt 0.625000 0.203125
vn -0.905512 0.362205 0.244094
v -6.463319 40.819874 7.054480
vt 0.973083 0.279510
vn -0.944882 0.157480 0.291339
v -6.413086 45.654079 4.581747
vt 0.779510 0.223938
vn -0.905512 0.291339 0.314961
v -7.270829 41.732860 3.945585
vt 0.773438 0.351562
vn -0.992126 0.070866 0.157480
v -7.349149 40.274950 1.964495
vt 0.767334 0.482635
vn -1.000000 -0.118110 -0.023622
v -6.370955 36.979915 5.484129
vt 0.981506 0.470154
vn -0.976378 -0.157480 0.149606
v 4.899073 50.749592 -3.368891
vt 0.359375 0.101562
vn 0.511811 0.842520 -0.157480
v 5.203712 48.510944 -7.775694
vt 0.312500 0.218750
vn 0.440945 0.637795 -0.637795
v 0.000000 50.714539 -7.021289
vt 0.246094 0.036438
vn 0.000000 0.866142 -0.511811
v 8.268738 45.517051 0.554567
vt 0.597656 0.344727
vn 0.992126 0.118110 0.062992
v 7.195479 48.267163 0.793819
vt 0.625000 0.203125
vn 0.811024 0.559055 0.188976
v 8.011901 41.571932 2.892461
vt 0.767334 0.482635
vn 1.000000 -0.110236 0.039370
v 7.712664 43.912554 3.316339
vt 0.783844 0.396698
vn 0.984252 -0.055118 0.173228
v 7.053963 40.171383 6.030398
vt 0.982239 0.453827
vn 0.952756 0.062992 0.314961
v 5.970171 46.100215 6.516508
vt 0.851562 0.156250
vn 0.755906 0.440945 0.496063
v 6.578909 36.337798 -2.752091
vt 0.523438 0.734375
vn 0.968504 -0.228346 0.133858
v 7.236260 38.109596 2.897302
vt 0.762756 0.671875
vn 0.881890 -0.346457 -0.338583
v 7.159290 41.073215 -0.307017
vt 0.644958 0.546875
vn 0.929134 -0.362205 -0.118110
v 7.696189 39.263177 2.915280
vt 0.762695 0.583984
vn 0.968504 -0.204724 -0.165354
v 7.399382 38.619466 5.673594
vt 0.879883 0.572266
vn 0.992126 -0.133858 0.070866
v 6.578909 36.337798 -2.752091
vt 0.390625 0.718750
vn 0.921260 -0.307087 -0.259843
v 5.656350 33.519173 -2.673262
vt 0.398438 0.945312
vn 0.944882 -0.259843 -0.220472
v 5.616649 35.378605 -4.999401
vt 0.328125 0.812500
vn 0.921260 -0.212598 -0.322835
v 4.424019 32.254058 -7.722450
vt 0.186371 0.994415
vn 0.724409 -0.015748 -0.692913
v 1.589633 47.580431 9.219504
vt 0.820312 0.195312
vn 0.370079 0.653543 0.661417
v 0.000000 46.713652 10.067259
vt 0.816406 0.284576
vn 0.173228 0.503937 0.850394
v 0.484506 43.139782 12.107816
vt 0.997742 0.243835
vn 0.322835 0.456693 0.826772
v 7.424499 45.865993 4.116381
vt 0.796875 0.257812
vn 0.913386 0.228346 0.346457
v 5.696050 41.697806 8.225847
vt 0.989563 0.286438
vn 0.889764 0.070866 0.448819
v 0.484506 43.139782 12.107816
vt 0.992188 0.273438
vn 0.322835 0.456693 0.826772
v 3.035589 47.290443 8.497599
vt 0.816406 0.284576
vn 0.480315 0.535433 0.692913
v 4.353531 49.065428 5.633488
vt 0.679688 0.273438
vn 0.543307 0.677165 0.496063
v 4.751074 39.005055 -9.364023
vt 0.238831 0.623871
vn 0.598425 -0.173228 -0.787402
v 2.530017 37.421272 -11.378305
vt 0.158844 0.628906
vn 0.519685 0.000000 -0.858268
v 4.354341 42.892814 -10.246352
vt 0.180786 0.414062
vn 0.425197 0.070866 -0.905512
v 1.955848 40.893168 -11.228945
vt 0.104889 0.542389
vn 0.377953 0.165354 -0.913386
v 0.000000 46.624425 -10.733845
vt 0.078125 0.185913
vn 0.000000 0.377953 -0.929134
v 0.000000 43.455264 -11.699152
vt 0.032806 0.359375
vn 0.000000 0.228346 -0.976378
v 0.000000 34.470399 -9.474660
vt 0.012268 0.915161
vn 0.000000 -0.204724 -0.984252
v 4.049162 35.271851 -8.018403
vt 0.250000 0.854675
vn 0.677165 -0.220472 -0.700787
v 7.204662 40.488458 -5.401151
vt 0.328125 0.688599
vn 0.866142 -0.259843 -0.433071
v -8.503159 40.692406 3.500272
vt 0.007812 0.359375
vn -0.992126 0.118110 0.118110
v -8.268738 45.517051 0.554567
vt 0.132812 0.007812
vn -0.992126 0.118110 0.062992
v -8.849659 43.592292 -2.260448
vt 0.007812 0.007812
vn -0.992126 0.133858 -0.031496
v 8.849389 43.592292 -2.260448
vt 0.511719 0.366211
vn 0.992126 0.133858 -0.031496
v 8.489656 40.055069 0.347123
vt 0.617188 0.490234
vn 0.984252 -0.157480 -0.078740
v -1.589633 47.580431 9.219504
vt 0.880188 0.605469
vn -0.370079 0.653543 0.661417
v 0.000000 48.128542 9.602584
vt 0.992188 0.578125
vn 0.000000 0.811024 0.582677
v -4.049162 35.271851 -8.018403
vt 0.250000 0.854675
vn -0.677165 -0.220472 -0.700787
v -4.424019 32.254058 -7.722450
vt 0.186371 0.994415
vn -0.724409 -0.015748 -0.692913
v -5.616649 35.378605 -4.999401
vt 0.328125 0.812500
vn -0.921260 -0.212598 -0.322835
v -5.656350 33.519173 -2.673262
vt 0.398438 0.945312
vn -0.944882 -0.259843 -0.220472
v -8.268738 45.517051 0.554567
vt 0.597656 0.344727
vn -0.992126 0.118110 0.062992
v -7.409105 47.730206 -4.672331
vt 0.429688 0.257812
vn -0.881890 0.401575 -0.259843
v -8.849659 43.592292 -2.260448
vt 0.511719 0.366211
vn -0.992126 0.133858 -0.031496
v -7.053963 40.171383 6.030398
vt 0.982239 0.453827
vn -0.952756 0.062992 0.314961
v -7.712664 43.912554 3.316339
vt 0.783844 0.396698
vn -0.984252 -0.070866 0.173228
v -8.011901 41.571932 2.892461
vt 0.767334 0.482635
vn -1.000000 -0.110236 0.039370
v -4.340028 47.231489 7.570324
vt 0.835938 0.054688
vn -0.598425 0.488189 0.637795
v -5.970171 46.100215 6.516508
vt 0.851562 0.156250
vn -0.748031 0.440945 0.496063
v -3.288914 43.082422 11.187456
vt 0.992188 0.109375
vn -0.606299 0.385827 0.692913
v 0.000000 50.714539 -7.021289
vt 0.934357 0.985931
vn 0.000000 0.866142 -0.511811
v -4.899073 50.749592 -3.368891
vt 0.782806 0.918732
vn -0.511811 0.842520 -0.157480
v -4.836146 50.269996 2.395287
vt 0.782806 0.809357
vn -0.440945 0.874016 0.220472
v 0.000000 48.455177 -9.126154
vt 0.133911 0.091492
vn 0.000000 0.669291 -0.740157
v -5.203712 48.510944 -7.775694
vt 0.312500 0.218750
vn -0.440945 0.637795 -0.637795
v -5.027086 45.921761 -9.235408
vt 0.226562 0.289062
vn -0.566929 0.299213 -0.771654
v -4.771060 42.245916 -9.124080
vt 0.239929 0.658478
vn -0.574803 -0.118110 -0.811024
v -7.204662 40.488458 -5.401151
vt 0.328125 0.688599
vn -0.866142 -0.259843 -0.433071
v -6.578909 36.337798 -2.752091
vt 0.390625 0.718750
vn -0.921260 -0.307087 -0.259843
v -4.899073 50.749592 -3.368891
vt 0.359375 0.101562
vn -0.511811 0.842520 -0.157480
v -0.484506 43.139782 12.107816
vt 0.997742 0.243835
vn -0.322835 0.456693 0.826772
v 0.000000 46.713652 10.067259
vt 0.816406 0.284576
vn -0.173228 0.503937 0.850394
v -5.696050 41.697806 8.225847
vt 0.989563 0.286438
vn -0.889764 0.062992 0.456693
v -7.491206 45.865993 4.116381
vt 0.796875 0.257812
vn -0.913386 0.228346 0.346457
v -1.589633 47.580431 9.219504
vt 0.875000 0.609375
vn -0.307087 -0.897638 -0.330709
v 0.000000 46.713652 10.067259
vt 0.992188 0.578125
vn 0.000000 -0.937008 -0.354331
v 0.000000 45.727373 12.690043
vt 0.992188 0.507812
vn 0.000000 -0.937008 -0.354331
v 1.589633 47.580431 9.219504
vt 0.875000 0.609375
vn 0.307087 -0.897638 -0.330709
v -0.484506 43.139782 12.107816
vt 0.992188 0.273438
vn -0.322835 0.456693 0.826772
v 8.849389 43.592292 -2.260448
vt 0.007812 0.007812
vn 0.992126 0.133858 -0.031496
v 8.268738 45.517051 0.554567
vt 0.132812 0.007812
vn 0.992126 0.118110 0.062992
v 8.503159 40.692406 3.500272
vt 0.007812 0.359375
vn 0.992126 0.118110 0.118110
v -7.399382 38.619466 5.673594
vt 0.879883 0.572266
vn -0.992126 -0.133858 0.070866
v -7.696189 39.263177 2.915280
vt 0.762695 0.583984
vn -0.968504 -0.204724 -0.165354
v -7.159290 41.073215 -0.307017
vt 0.644958 0.546875
vn -0.929134 -0.362205 -0.118110
v -7.236260 38.109596 2.897302
vt 0.762756 0.671875
vn -0.881890 -0.346457 -0.338583
v -0.003781 33.774108 -17.168759
vt 0.562500 0.750000
vn 0.000000 0.921260 -0.393701
v -0.005671 31.568920 -22.658420
vt 0.406250 0.750000
vn 0.000000 0.921260 -0.393701
v -1.305789 32.622120 -16.583767
vt 0.562500 0.859375
vn -0.984252 0.062992 0.157480
v -2.040650 29.862449 -20.497544
vt 0.406250 0.867188
vn -0.984252 0.062992 0.157480
v -0.003781 31.637434 -15.868777
vt 0.562500 0.984375
vn 0.000000 -0.716535 0.700787
v -0.005671 27.078877 -20.439460
vt 0.406250 0.984375
vn 0.000000 -0.716535 0.700787
v 1.298227 32.622120 -16.583767
vt 0.562500 0.859375
vn 0.992126 0.062992 0.157480
v 2.026877 29.862449 -20.497544
vt 0.406250 0.867188
vn 0.992126 0.062992 0.157480
v -2.704753 29.554933 -20.971208
vt 0.406250 0.867188
vn -0.929134 -0.078740 0.362205
v -1.305789 32.622120 -16.583767
vt 0.562500 0.859375
vn -0.937008 0.346457 0.062992
v -0.003781 33.935035 -17.168759
vt 0.562500 0.750000
vn 0.000000 0.968504 -0.267717
v 6.485465 36.149783 1.736998
vt 0.798279 0.623566
vn 0.968504 -0.188976 -0.157480
v 7.135524 40.902728 -0.087818
vt 0.578125 0.554688
vn 0.976378 -0.157480 -0.149606
v 7.455287 44.819167 -1.255036
vt 0.585938 0.406250
vn 1.000000 0.015748 0.007874
v 6.463859 47.709492 1.815135
vt 0.609375 0.250000
vn 0.905512 0.362205 0.244094
v 4.986846 43.066489 9.583914
vt 0.996643 0.181335
vn 0.826772 0.354331 0.433071
v -4.986846 43.066489 9.583914
vt 0.996643 0.181335
vn -0.826772 0.354331 0.433071
v -6.463859 47.709492 1.815135
vt 0.609375 0.250000
vn -0.905512 0.362205 0.244094
v -7.455287 44.819167 -1.255036
vt 0.585938 0.406250
vn -1.000000 0.015748 0.007874
v -7.135524 40.902728 -0.087818
vt 0.578125 0.554688
vn -0.976378 -0.157480 -0.149606
v -6.485465 36.149783 1.736998
vt 0.798279 0.623566
vn -0.968504 -0.188976 -0.157480
v 4.836146 50.269996 2.395287
vt 0.523438 0.023438
vn 0.440945 0.874016 0.220472
v 4.353531 49.065428 5.633488
vt 0.679688 0.015625
vn 0.543307 0.677165 0.496063
v 0.000000 32.250871 -9.798964
vt 0.018951 0.996643
vn 0.000000 0.141732 -0.992126
v -4.353531 49.065428 5.633488
vt 0.776550 0.673431
vn -0.543307 0.677165 0.496063
v 0.000000 45.727373 12.690043
vt 0.989563 0.513000
vn 0.000000 0.795276 0.614173
v 1.589633 47.580431 9.219504
vt 0.880188 0.605469
vn 0.370079 0.653543 0.661417
v 4.353531 49.065428 5.633488
vt 0.776550 0.673431
vn 0.543307 0.677165 0.496063
v -1.955848 40.893168 -11.228945
vt 0.104889 0.542389
vn -0.377953 0.165354 -0.913386
v -2.530017 37.421272 -11.378305
vt 0.158844 0.628906
vn -0.519685 0.000000 -0.858268
v -4.354341 42.892814 -10.246352
vt 0.180786 0.414062
vn -0.425197 0.070866 -0.905512
v -4.751074 39.005055 -9.364023
vt 0.238831 0.623871
vn -0.598425 -0.173228 -0.787402
v -6.529486 42.387724 -9.121314
vt 0.291656 0.454407
vn -0.724409 0.007874 -0.692913
v -5.875917 37.030902 -7.611121
vt 0.292389 0.667389
vn -0.811024 -0.228346 -0.543307
v -8.534757 43.103135 -5.150835
vt 0.421875 0.406250
vn -0.984252 -0.125984 -0.157480
v -7.217355 37.869001 -5.535298
vt 0.420746 0.684143
vn -0.952756 -0.220472 -0.204724
v -6.578909 36.337798 -2.752091
vt 0.523438 0.734375
vn -0.968504 -0.228346 0.133858
v 0.000000 43.456858 -11.432932
vt 0.007812 0.609375
vn 0.000000 -0.007874 -1.000000
v 7.882268 45.652485 -2.676028
vt 0.539062 0.398438
vn 1.000000 -0.078740 0.007874
v 0.000000 38.021962 -12.641639
vt 0.042969 0.584625
vn 0.000000 0.165354 -0.992126
v -8.489656 40.055069 0.347123
vt 0.617188 0.490234
vn -0.984252 -0.157480 -0.078740
v -7.882268 45.652485 -2.676028
vt 0.539062 0.398438
vn -1.000000 -0.078740 0.007874
v -3.035589 47.290443 8.497599
vt 0.906250 0.007812
vn -0.480315 0.535433 0.692913
f 1/1/1 2/2/2 3/3/3
f 4/4/4 5/5/5 6/6/6
f 7/7/7 8/8/8 9/9/9
f 10/10/10 11/11/11 7/7/7
f 12/12/12 13/13/13 14/14/14
f 15/15/15 16/16/16 17/17/17
f 18/18/18 19/19/19 20/20/20
f 3/3/3 21/21/21 1/1/1
f 22/22/22 23/23/23 24/24/24
f 25/25/25 26/26/26 27/27/27
f 28/28/28 29/29/29 30/30/30
f 31/31/31 32/32/32 33/33/33
f 23/23/23 34/34/34 35/35/35
f 36/36/36 37/37/37 38/38/38
f 38/38/38 39/39/39 36/36/36
f 36/36/36 39/39/39 40/40/40
f 36/36/36 40/40/40 37/37/37
f 2/2/2 1/1/1 41/41/41
f 5/5/5 4/4/4 42/42/42
f 43/43/43 44/44/44 45/45/45
f 45/45/45 44/44/44 7/7/7
f 46/46/46 47/47/47 48/48/48
f 46/46/46 49/49/49 50/50/50
f 51/51/51 52/52/52 53/53/53
f 53/53/53 52/52/52 6/6/6
f 8/8/8 7/7/7 54/54/54
f 11/11/11 10/10/10 55/55/55
f 56/56/56 57/57/57 58/58/58
f 59/59/59 60/60/60 58/58/58
f 61/61/61 62/62/62 63/63/63
f 64/64/64 30/30/30 65/65/65
f 66/66/66 67/67/67 68/68/68
f 27/27/27 69/69/69 25/25/25
f 13/13/13 12/12/12 70/70/70
f 71/71/71 72/72/72 73/73/73
f 73/73/73 72/72/72 66/66/66
f 73/73/73 66/66/66 74/74/74
f 75/75/75 76/76/76 77/77/77
f 77/77/77 76/76/76 78/78/78
f 79/79/79 80/80/80 81/81/81
f 67/67/67 82/82/82 83/83/83
f 83/83/83 82/82/82 69/69/69
f 84/84/84 85/85/85 79/79/79
f 79/79/79 85/85/85 86/86/86
f 87/87/87 88/88/88 89/89/89
f 89/89/89 88/88/88 90/90/90
f 89/89/89 90/90/90 91/91/91
f 91/91/91 90/90/90 92/92/92
f 93/93/93 31/31/31 94/94/94
f 94/94/94 31/31/31 33/33/33
f 94/94/94 33/33/33 95/95/95
f 96/96/96 97/97/97 98/98/98
f 99/99/99 100/100/100 12/12/12
f 14/14/14 28/28/28 12/12/12
f 12/12/12 28/28/28 30/30/30
f 12/12/12 30/30/30 99/99/99
f 99/99/99 30/30/30 64/64/64
f 101/101/101 102/102/102 35/35/35
f 103/103/103 104/104/104 105/105/105
f 105/105/105 104/104/104 106/106/106
f 107/107/107 108/108/108 109/109/109
f 110/110/110 111/111/111 112/112/112
f 113/113/113 114/114/114 115/115/115
f 24/24/24 116/116/116 22/22/22
f 22/22/22 116/116/116 117/117/117
f 22/22/22 117/117/117 118/118/118
f 119/119/119 91/91/91 120/120/120
f 120/120/120 91/91/91 121/121/121
f 120/120/120 121/121/121 108/108/108
f 122/122/122 103/103/103 123/123/123
f 123/123/123 103/103/103 105/105/105
f 123/123/123 105/105/105 124/124/124
f 124/124/124 105/105/105 106/106/106
f 16/16/16 15/15/15 125/125/125
f 126/126/126 127/127/127 19/19/19
f 111/111/111 128/128/128 129/129/129
f 129/129/129 128/128/128 114/114/114
f 130/130/130 131/131/131 132/132/132
f 132/132/132 131/131/131 133/133/133
f 19/19/19 18/18/18 134/134/134
f 135/135/135 136/136/136 137/137/137
f 138/138/138 112/112/112 139/139/139
f 139/139/139 112/112/112 140/140/140
f 139/139/139 140/140/140 141/141/141
f 142/142/142 143/143/143 144/144/144
f 144/144/144 143/143/143 145/145/145
f 144/144/144 145/145/145 146/146/146
f 146/146/146 145/145/145 147/147/147
f 146/146/146 147/147/147 148/148/148
f 148/148/148 147/147/147 149/149/149
f 148/148/148 149/149/149 142/142/142
f 142/142/142 149/149/149 143/143/143
f 21/21/21 3/3/3 150/150/150
f 150/150/150 3/3/3 151/151/151
f 150/150/150 151/151/151 41/41/41
f 41/41/41 151/151/151 152/152/152
f 41/41/41 152/152/152 2/2/2
f 153/153/153 154/154/154 50/50/50
f 50/50/50 154/154/154 155/155/155
f 50/50/50 155/155/155 46/46/46
f 46/46/46 155/155/155 156/156/156
f 46/46/46 156/156/156 47/47/47
f 47/47/47 156/156/156 5/5/5
f 47/47/47 5/5/5 157/157/157
f 158/158/158 53/53/53 57/57/57
f 57/57/57 53/53/53 159/159/159
f 57/57/57 159/159/159 58/58/58
f 58/58/58 159/159/159 160/160/160
f 58/58/58 160/160/160 59/59/59
f 59/59/59 160/160/160 161/161/161
f 59/59/59 161/161/161 162/162/162
f 29/29/29 62/62/62 30/30/30
f 30/30/30 62/62/62 61/61/61
f 30/30/30 61/61/61 65/65/65
f 65/65/65 61/61/61 163/163/163
f 65/65/65 163/163/163 164/164/164
f 165/165/165 93/93/93 78/78/78
f 78/78/78 93/93/93 94/94/94
f 78/78/78 94/94/94 77/77/77
f 77/77/77 94/94/94 95/95/95
f 77/77/77 95/95/95 75/75/75
f 23/23/23 22/22/22 34/34/34
f 34/34/34 22/22/22 118/118/118
f 34/34/34 118/118/118 35/35/35
f 35/35/35 118/118/118 166/166/166
f 35/35/35 166/166/166 101/101/101
f 101/101/101 167/167/167 102/102/102
f 102/102/102 167/167/167 168/168/168
f 102/102/102 168/168/168 35/35/35
f 35/35/35 168/168/168 169/169/169
f 35/35/35 169/169/169 23/23/23
f 170/170/170 171/171/171 172/172/172
f 172/172/172 171/171/171 173/173/173
f 172/172/172 173/173/173 174/174/174
f 174/174/174 173/173/173 175/175/175
f 174/174/174 175/175/175 176/176/176
f 176/176/176 175/175/175 177/177/177
f 176/176/176 177/177/177 178/178/178
f 165/165/165 104/104/104 93/93/93
f 93/93/93 104/104/104 103/103/103
f 93/93/93 103/103/103 31/31/31
f 31/31/31 103/103/103 122/122/122
f 31/31/31 122/122/122 32/32/32
f 32/32/32 122/122/122 179/179/179
f 32/32/32 179/179/179 33/33/33
f 26/26/26 25/25/25 164/164/164
f 164/164/164 25/25/25 69/69/69
f 164/164/164 69/69/69 65/65/65
f 65/65/65 69/69/69 82/82/82
f 65/65/65 82/82/82 64/64/64
f 64/64/64 82/82/82 67/67/67
f 64/64/64 67/67/67 180/180/180
f 180/180/180 67/67/67 66/66/66
f 180/180/180 66/66/66 12/12/12
f 12/12/12 66/66/66 72/72/72
f 12/12/12 72/72/72 70/70/70
f 107/107/107 16/16/16 108/108/108
f 108/108/108 16/16/16 125/125/125
f 108/108/108 125/125/125 120/120/120
f 120/120/120 125/125/125 63/63/63
f 120/120/120 63/63/63 119/119/119
f 119/119/119 63/63/63 62/62/62
f 119/119/119 62/62/62 91/91/91
f 91/91/91 62/62/62 29/29/29
f 91/91/91 29/29/29 89/89/89
f 89/89/89 29/29/29 28/28/28
f 89/89/89 28/28/28 87/87/87
f 87/87/87 28/28/28 14/14/14
f 90/90/90 181/181/181 92/92/92
f 92/92/92 181/181/181 170/170/170
f 92/92/92 170/170/170 91/91/91
f 91/91/91 170/170/170 172/172/172
f 91/91/91 172/172/172 121/121/121
f 121/121/121 172/172/172 174/174/174
f 121/121/121 174/174/174 108/108/108
f 108/108/108 174/174/174 176/176/176
f 108/108/108 176/176/176 109/109/109
f 109/109/109 176/176/176 182/182/182
f 178/178/178 140/140/140 176/176/176
f 176/176/176 140/140/140 112/112/112
f 176/176/176 112/112/112 183/183/183
f 183/183/183 112/112/112 111/111/111
f 183/183/183 111/111/111 107/107/107
f 107/107/107 111/111/111 129/129/129
f 107/107/107 129/129/129 16/16/16
f 16/16/16 129/129/129 114/114/114
f 16/16/16 114/114/114 17/17/17
f 17/17/17 114/114/114 113/113/113
f 17/17/17 113/113/113 184/184/184
f 184/184/184 113/113/113 115/115/115
usemtl texture00
v 0.000000 37.848288 -11.067830
vt 0.671875 0.734375
vn 0.000000 0.881890 0.472441
v 0.000000 34.682314 -9.706998
vt 0.585938 0.734375
vn 0.000000 -0.141732 0.992126
v 1.551553 36.246977 -10.716558
vt 0.632812 0.726562
vn 0.858268 0.228346 0.464567
v -1.551553 36.246977 -10.716558
vt 0.585938 0.734375
vn -0.858268 0.228346 0.464567
v 0.000000 34.682314 -9.706998
vt 0.632812 0.726562
vn 0.000000 -0.141732 0.992126
v 1.692530 32.532893 -16.816104
vt 0.585938 0.734375
vn 0.818898 -0.236220 -0.519685
v -0.004051 30.977789 -15.963509
vt 0.671875 0.734375
vn 0.000000 -0.889764 -0.464567
v -0.004051 33.981242 -17.522797
vt 0.632812 0.726562
vn 0.000000 0.118110 -1.000000
v -1.699822 32.532893 -16.816104
vt 0.585938 0.734375
vn -0.818898 -0.236220 -0.519685
v 0.000000 34.682314 -9.706998
vt 0.671875 0.734375
vn 0.000000 -0.141732 0.992126
v 1.692530 32.532893 -16.816104
vt 0.632812 0.992188
vn 0.818898 -0.236220 -0.519685
v 1.551553 36.246977 -10.716558
vt 0.632812 0.734375
vn 0.858268 0.228346 0.464567
v -0.004051 33.981242 -17.522797
vt 0.585938 0.992188
vn 0.000000 0.118110 -1.000000
v 0.000000 37.848288 -11.067830
vt 0.585938 0.734375
vn 0.000000 0.881890 0.472441
v -1.699822 32.532893 -16.816104
vt 0.632812 0.992188
vn -0.818898 -0.236220 -0.519685
v -1.551553 36.246977 -10.716558
vt 0.632812 0.734375
vn -0.858268 0.228346 0.464567
v -0.004051 30.977789 -15.963509
vt 0.671875 0.992188
vn 0.000000 -0.889764 -0.464567
f 185/185/185 186/186/186 187/187/187
f 185/185/185 188/188/188 189/189/189
f 190/190/190 191/191/191 192/192/192
f 192/192/192 191/191/191 193/193/193
f 194/194/194 195/195/195 196/196/196
f 196/196/196 195/195/195 197/197/197
f 196/196/196 197/197/197 198/198/198
f 198/198/198 197/197/197 199/199/199
f 198/198/198 199/199/199 200/200/200
f 200/200/200 199/199/199 201/201/201
f 200/200/200 201/201/201 194/194/194
f 194/194/194 201/201/201 195/195/195
