mtllib 2048-0.mtl
g mesh00
usemtl texture00
v 0.000000 0.982967 11.866960
vt 0.500000 0.673584
vn 0.000000 -0.322835 0.944882
v 1.489499 -0.074186 11.599331
vt 0.582489 0.737366
vn 0.417323 -0.244094 0.881890
v 1.985037 1.461468 10.968639
vt 0.611267 0.650940
vn 0.440945 0.047244 0.897638
v 3.852876 -1.965522 9.175317
vt 0.740021 0.827972
vn 0.740157 -0.299213 0.598425
v 2.046914 -3.012784 10.234215
vt 0.633148 0.891266
vn 0.519685 -0.157480 0.842520
v 2.931017 -3.310765 9.342119
vt 0.702393 0.882690
vn 0.716535 -0.377953 0.590551
v 5.802779 -1.543485 4.586206
vt 0.932281 0.898682
vn 0.937008 -0.267717 0.236220
v 6.001781 -1.280948 3.073377
vt 0.980133 0.970337
vn 0.897638 -0.417323 -0.165354
v 6.513051 0.848608 2.348081
vt 0.987671 0.683441
vn 0.968504 -0.196850 0.188976
v 5.114270 -3.042459 4.843877
vt 0.897614 0.975708
vn 0.716535 -0.700787 0.007874
v 4.199752 -2.994650 2.299535
vt 0.987671 0.987671
vn 0.614173 -0.716535 -0.338583
v 0.000000 -5.133273 9.991482
vt 0.500000 0.981537
vn 0.000000 -0.850394 0.527559
v 0.000000 -5.096592 5.788255
vt 0.500000 0.987671
vn 0.000000 -1.000000 -0.110236
v 1.885143 -4.874446 9.602279
vt 0.632660 0.978210
vn 0.543307 -0.755906 0.370079
v 0.000000 -2.520270 10.903080
vt 0.500000 0.871918
vn 0.000000 -0.362205 0.937008
v 1.327466 -1.635806 11.088138
vt 0.584595 0.822571
vn 0.370079 -0.125984 0.921260
v 0.000000 -1.632921 11.567796
vt 0.500000 0.822418
vn 0.000000 -0.157480 0.992126
v 0.000000 -0.063470 12.043304
vt 0.500000 0.737183
vn 0.000000 -0.141732 0.992126
v 2.696358 -0.961123 10.223012
vt 0.656372 0.776764
vn 0.543307 -0.188976 0.818898
v 0.000000 -4.138766 10.904740
vt 0.500000 0.948395
vn 0.000000 -0.370079 0.929134
v 1.665428 -3.875405 10.563669
vt 0.607727 0.944763
vn 0.448819 -0.291339 0.842520
v 2.540093 -3.764538 9.547093
vt 0.664795 0.937408
vn 0.748031 -0.330709 0.574803
v 5.988672 0.629758 5.143041
vt 0.943817 0.707367
vn 0.944882 -0.228346 0.236220
v -2.046914 -3.012784 10.234215
vt 0.633148 0.891266
vn -0.519685 -0.157480 0.842520
v -2.931017 -3.310765 9.342119
vt 0.702393 0.882690
vn -0.716535 -0.377953 0.590551
v -2.540093 -3.764538 9.547093
vt 0.664795 0.937408
vn -0.748031 -0.330709 0.574803
v 0.000000 -0.538674 11.807210
vt 0.500000 0.760223
vn 0.000000 -0.677165 0.740157
v -1.489499 -0.074186 11.599331
vt 0.582489 0.737366
vn -0.417323 -0.244094 0.881890
v -1.302558 -0.759996 11.017601
vt 0.581848 0.776520
vn -0.330709 -0.440945 0.834646
v -2.696358 -0.961123 10.223012
vt 0.656372 0.776764
vn -0.543307 -0.188976 0.818898
v -5.802779 -1.543485 4.586206
vt 0.932281 0.898682
vn -0.937008 -0.267717 0.236220
v -4.995236 0.586071 8.440064
vt 0.821472 0.705139
vn -0.858268 -0.236220 0.456693
v -5.988672 0.629758 5.143041
vt 0.943817 0.707367
vn -0.944882 -0.228346 0.236220
v 3.888271 -3.156211 7.842981
vt 0.771149 0.926483
vn 0.803150 -0.464567 0.370079
v 3.165677 -4.326704 7.374112
vt 0.703247 0.980988
vn 0.566929 -0.818898 0.070866
v 0.000000 1.409126 13.027100
vt 0.500000 0.645508
vn 0.000000 -0.787402 0.622047
v -1.162286 2.004264 13.101787
vt 0.544952 0.619812
vn -0.692913 -0.165354 0.708661
v -1.901923 1.517108 10.997269
vt 0.608246 0.648315
vn -0.637795 -0.173228 0.755906
v 1.901923 1.517108 10.997269
vt 0.608246 0.648315
vn 0.637795 -0.173228 0.755906
v 1.162286 2.004264 13.101787
vt 0.544952 0.619812
vn 0.692913 -0.165354 0.708661
v 0.000000 2.225998 13.595967
vt 0.500000 0.616577
vn 0.000000 -0.047244 1.000000
v -1.327466 -1.635806 11.088138
vt 0.584595 0.822571
vn -0.370079 -0.125984 0.921260
v 0.000000 -0.871688 11.312615
vt 0.500000 0.780182
vn 0.000000 -0.173228 0.992126
v 1.302558 -0.759996 11.017601
vt 0.581848 0.776520
vn 0.330709 -0.440945 0.834646
v -3.852876 -1.965522 9.175317
vt 0.740021 0.827972
vn -0.740157 -0.299213 0.598425
v -3.888271 -3.156211 7.842981
vt 0.771149 0.926483
vn -0.803150 -0.464567 0.370079
v -6.513051 0.848608 2.348081
vt 0.987671 0.683441
vn -0.968504 -0.196850 0.188976
v -6.001781 -1.280948 3.073377
vt 0.980133 0.970337
vn -0.897638 -0.417323 -0.165354
v -5.114270 -3.042459 4.843877
vt 0.897614 0.975708
vn -0.716535 -0.700787 0.007874
v -4.199752 -2.994650 2.299535
vt 0.987671 0.987671
vn -0.614173 -0.716535 -0.338583
v -1.985037 1.461468 10.968639
vt 0.611267 0.650940
vn -0.440945 0.047244 0.897638
v 0.000000 -3.269963 10.921337
vt 0.500000 0.913239
vn 0.000000 0.078740 1.000000
v -1.665428 -3.875405 10.563669
vt 0.607727 0.944763
vn -0.448819 -0.291339 0.842520
v -1.885143 -4.874446 9.602279
vt 0.632660 0.978210
vn -0.543307 -0.755906 0.370079
v -3.165677 -4.326704 7.374112
vt 0.703247 0.980988
vn -0.566929 -0.818898 0.070866
v 4.995236 0.586071 8.440064
vt 0.821472 0.705139
vn 0.858268 -0.236220 0.456693
f 1/1/1 2/2/2 3/3/3
f 4/4/4 5/5/5 6/6/6
f 7/7/7 8/8/8 9/9/9
f 10/10/10 11/11/11 8/8/8
f 12/12/12 13/13/13 14/14/14
f 15/15/15 16/16/16 17/17/17
f 2/2/2 1/1/1 18/18/18
f 5/5/5 4/4/4 19/19/19
f 20/20/20 12/12/12 21/21/21
f 21/21/21 12/12/12 14/14/14
f 21/21/21 14/14/14 22/22/22
f 7/7/7 9/9/9 23/23/23
f 24/24/24 25/25/25 26/26/26
f 27/27/27 28/28/28 29/29/29
f 29/29/29 28/28/28 30/30/30
f 31/31/31 32/32/32 33/33/33
f 8/8/8 7/7/7 10/10/10
f 10/10/10 7/7/7 34/34/34
f 10/10/10 34/34/34 35/35/35
f 36/36/36 37/37/37 1/1/1
f 1/1/1 37/37/37 38/38/38
f 3/3/3 39/39/39 1/1/1
f 1/1/1 39/39/39 40/40/40
f 1/1/1 40/40/40 36/36/36
f 36/36/36 40/40/40 41/41/41
f 36/36/36 41/41/41 37/37/37
f 24/24/24 15/15/15 42/42/42
f 42/42/42 15/15/15 17/17/17
f 42/42/42 17/17/17 43/43/43
f 43/43/43 17/17/17 16/16/16
f 43/43/43 16/16/16 44/44/44
f 44/44/44 27/27/27 43/43/43
f 43/43/43 27/27/27 29/29/29
f 43/43/43 29/29/29 42/42/42
f 42/42/42 29/29/29 30/30/30
f 42/42/42 30/30/30 24/24/24
f 24/24/24 30/30/30 45/45/45
f 24/24/24 45/45/45 25/25/25
f 25/25/25 45/45/45 46/46/46
f 25/25/25 46/46/46 26/26/26
f 33/33/33 47/47/47 31/31/31
f 31/31/31 47/47/47 48/48/48
f 31/31/31 48/48/48 49/49/49
f 49/49/49 48/48/48 50/50/50
f 49/49/49 50/50/50 13/13/13
f 11/11/11 10/10/10 13/13/13
f 13/13/13 10/10/10 35/35/35
f 13/13/13 35/35/35 14/14/14
f 14/14/14 35/35/35 34/34/34
f 14/14/14 34/34/34 22/22/22
f 38/38/38 51/51/51 1/1/1
f 1/1/1 51/51/51 28/28/28
f 1/1/1 28/28/28 18/18/18
f 18/18/18 28/28/28 27/27/27
f 18/18/18 27/27/27 2/2/2
f 2/2/2 27/27/27 44/44/44
f 2/2/2 44/44/44 19/19/19
f 19/19/19 44/44/44 16/16/16
f 19/19/19 16/16/16 5/5/5
f 5/5/5 16/16/16 15/15/15
f 5/5/5 15/15/15 52/52/52
f 52/52/52 15/15/15 24/24/24
f 52/52/52 24/24/24 53/53/53
f 53/53/53 24/24/24 26/26/26
f 53/53/53 26/26/26 54/54/54
f 54/54/54 26/26/26 46/46/46
f 54/54/54 46/46/46 55/55/55
f 23/23/23 56/56/56 7/7/7
f 7/7/7 56/56/56 4/4/4
f 7/7/7 4/4/4 34/34/34
f 34/34/34 4/4/4 6/6/6
f 34/34/34 6/6/6 22/22/22
f 22/22/22 6/6/6 5/5/5
f 22/22/22 5/5/5 21/21/21
f 21/21/21 5/5/5 52/52/52
f 21/21/21 52/52/52 20/20/20
f 20/20/20 52/52/52 53/53/53
f 20/20/20 53/53/53 12/12/12
f 12/12/12 53/53/53 54/54/54
f 12/12/12 54/54/54 13/13/13
f 13/13/13 54/54/54 55/55/55
f 13/13/13 55/55/55 49/49/49
f 49/49/49 55/55/55 46/46/46
f 49/49/49 46/46/46 31/31/31
f 31/31/31 46/46/46 45/45/45
f 31/31/31 45/45/45 32/32/32
usemtl texture00
v 5.272894 9.883251 9.054158
vt 0.833496 0.159363
vn 0.811024 0.251969 0.535433
v 6.193704 11.646410 5.616059
vt 0.922028 0.012085
vn 0.929134 0.228346 0.307087
v 3.763469 13.219982 8.401061
vt 0.697388 0.012085
vn 0.551181 0.511811 0.661417
v -7.825834 6.798341 0.829442
vt 0.099365 0.367096
vn 0.826772 0.409449 -0.393701
v -7.164592 4.379871 -0.318250
vt 0.102783 0.403442
vn 0.244094 -0.070866 -0.968504
v -8.591428 6.158691 -0.843965
vt 0.093414 0.383026
vn 0.622047 0.275591 -0.740157
v 6.001781 -1.280948 3.073377
vt 0.980133 0.970337
vn 0.897638 -0.417323 -0.165354
v 7.164592 4.379871 -0.318250
vt 0.987671 0.504211
vn -0.244094 -0.070866 -0.968504
v 6.513051 0.848608 2.348081
vt 0.987671 0.683441
vn 0.968504 -0.196850 0.188976
v 0.000000 7.867447 11.619247
vt 0.500000 0.270020
vn 0.000000 0.259843 0.968504
v 2.153363 7.932566 11.305146
vt 0.635223 0.262939
vn 0.196850 0.259843 0.944882
v 0.000000 10.362988 11.333776
vt 0.500000 0.134735
vn 0.000000 0.275591 0.960630
v -1.815138 3.422045 10.842501
vt 0.604706 0.532166
vn -0.590551 0.228346 0.779528
v -1.901923 1.517108 10.997269
vt 0.608246 0.648315
vn -0.637795 -0.173228 0.755906
v -1.162286 2.004264 13.101787
vt 0.544952 0.619812
vn -0.692913 -0.165354 0.708661
v 1.815138 3.422045 10.842501
vt 0.604706 0.532166
vn 0.590551 0.228346 0.779528
v 1.162286 2.004264 13.101787
vt 0.544952 0.619812
vn 0.692913 -0.165354 0.708661
v 1.901923 1.517108 10.997269
vt 0.608246 0.648315
vn 0.637795 -0.173228 0.755906
v 7.256096 0.524661 0.751436
vt 0.072784 0.627380
vn 0.897638 -0.118110 0.440945
v 8.577007 3.764950 -1.065952
vt 0.015900 0.490295
vn 0.897638 -0.078740 0.448819
v 6.513051 0.848608 2.348081
vt 0.121887 0.620270
vn 0.968504 -0.196850 0.188976
v 6.928359 5.774572 2.347666
vt 0.121887 0.372437
vn 0.992126 0.039370 0.165354
v 7.825834 6.798341 0.829442
vt 0.032349 0.310669
vn 0.889764 -0.062992 0.456693
v 8.591166 6.158691 -0.843965
vt 0.012726 0.385742
vn 0.905512 -0.039370 0.425197
v 6.466906 8.774579 5.897381
vt 0.919922 0.221069
vn 0.960630 0.062992 0.267717
v 6.928359 5.774572 2.347666
vt 0.118347 0.380188
vn 0.992126 0.039370 0.165354
v 7.825834 6.798341 0.829442
vt 0.099365 0.367096
vn -0.826772 0.409449 -0.393701
v 7.164592 4.379871 -0.318250
vt 0.102783 0.403442
vn -0.244094 -0.070866 -0.968504
v 8.591166 6.158691 -0.843965
vt 0.093414 0.383026
vn -0.622047 0.275591 -0.740157
v 7.391910 9.099350 0.065559
vt 0.987213 0.216431
vn 0.992126 0.000000 0.141732
v 6.928359 5.774572 2.347666
vt 0.987274 0.384094
vn 0.992126 0.039370 0.165354
v 7.164592 4.379871 -0.318250
vt 0.987213 0.504211
vn -0.244094 -0.070866 -0.968504
v 2.193216 6.002488 10.581926
vt 0.625366 0.366760
vn 0.259843 -0.622047 0.740157
v 2.252733 6.030102 11.222575
vt 0.608215 0.357483
vn 0.259843 -0.921260 0.283465
v 0.976656 5.785287 11.219671
vt 0.553925 0.382751
vn 0.464567 -0.488189 0.740157
v 2.178533 4.763991 10.299774
vt 0.620667 0.450470
vn 0.204724 -0.007874 0.984252
v 1.410580 5.103599 10.406826
vt 0.583862 0.441833
vn 0.574803 -0.023622 0.818898
v 0.892493 4.820867 11.465724
vt 0.545349 0.445953
vn 0.716535 0.283465 0.637795
v 8.577007 3.764950 -1.065952
vt 0.094666 0.416870
vn -0.496063 -0.070866 -0.866142
v 7.256096 0.524661 0.751436
vt 0.112946 0.436218
vn -0.755906 -0.188976 -0.629921
v 6.513051 0.848608 2.348081
vt 0.118347 0.432770
vn 0.968504 -0.196850 0.188976
v 6.516459 3.232046 6.377868
vt 0.927948 0.564209
vn 0.976378 -0.118110 0.212598
v 6.513051 0.848608 2.348081
vt 0.987213 0.683441
vn 0.968504 -0.196850 0.188976
v 5.988672 0.629758 5.143041
vt 0.943817 0.707367
vn 0.944882 -0.228346 0.236220
v -2.178533 4.763991 10.299774
vt 0.620667 0.450470
vn -0.204724 -0.007874 0.984252
v -3.286808 5.411059 10.337533
vt 0.692474 0.404175
vn -0.244094 -0.236220 0.944882
v -4.521197 4.850541 9.656220
vt 0.760376 0.451843
vn -0.464567 -0.094488 0.881890
v -6.513051 0.848608 2.348081
vt 0.121887 0.620270
vn -0.968504 -0.196850 0.188976
v -8.577007 3.764950 -1.065952
vt 0.015900 0.490295
vn -0.897638 -0.078740 0.448819
v -7.256096 0.524661 0.751436
vt 0.072784 0.627380
vn -0.897638 -0.118110 0.440945
v -8.591428 6.158691 -0.843965
vt 0.012726 0.385742
vn -0.905512 -0.039370 0.425197
v -7.825834 6.798341 0.829442
vt 0.032349 0.310669
vn -0.889764 -0.062992 0.456693
v -6.928359 5.774572 2.347666
vt 0.121887 0.372437
vn -0.992126 0.039370 0.165354
v -4.199752 -2.994650 2.299535
vt 0.987671 0.987671
vn -0.614173 -0.716535 -0.338583
v -6.001781 -1.280948 3.073377
vt 0.980133 0.970337
vn -0.897638 -0.417323 -0.165354
v -7.164592 4.379871 -0.318250
vt 0.987671 0.504211
vn 0.244094 -0.070866 -0.968504
v -6.513051 0.848608 2.348081
vt 0.987671 0.683441
vn -0.968504 -0.196850 0.188976
v -6.928359 5.774572 2.347666
vt 0.118347 0.380188
vn -0.992126 0.039370 0.165354
v 0.000000 2.225998 13.595967
vt 0.500000 0.616577
vn 0.000000 -0.047244 1.000000
v 0.000000 5.028588 11.852852
vt 0.500000 0.439667
vn 0.000000 0.385827 0.921260
v -0.892493 4.820867 11.465724
vt 0.545349 0.445953
vn -0.716535 0.283465 0.637795
v -6.513051 0.848608 2.348081
vt 0.118347 0.432770
vn -0.968504 -0.196850 0.188976
v -7.256096 0.524661 0.751436
vt 0.112946 0.436218
vn 0.755906 -0.188976 -0.629921
v -8.577007 3.764950 -1.065952
vt 0.094666 0.416870
vn 0.496063 -0.070866 -0.866142
v -1.410580 5.103599 10.406826
vt 0.583862 0.441833
vn -0.574803 -0.023622 0.818898
v -0.976656 5.785287 11.219671
vt 0.553925 0.382751
vn -0.464567 -0.488189 0.740157
v -2.193216 6.002488 10.581926
vt 0.625366 0.366760
vn -0.259843 -0.622047 0.740157
v -1.489499 -0.074186 11.599331
vt 0.582489 0.737366
vn -0.417323 -0.244094 0.881890
v -1.985037 1.461468 10.968639
vt 0.611267 0.650940
vn -0.440945 0.047244 0.897638
v -2.696358 -0.961123 10.223012
vt 0.656372 0.776764
vn -0.543307 -0.188976 0.818898
v -3.836358 0.891059 9.998121
vt 0.722534 0.678162
vn -0.566929 -0.165354 0.811024
v -3.852876 -1.965522 9.175317
vt 0.740021 0.827972
vn -0.740157 -0.299213 0.598425
v -4.995236 0.586071 8.440064
vt 0.821472 0.705139
vn -0.858268 -0.236220 0.456693
v 4.199752 -2.994650 2.299535
vt 0.987671 0.987671
vn 0.614173 -0.716535 -0.338583
v 4.995236 0.586071 8.440064
vt 0.821472 0.705139
vn 0.858268 -0.236220 0.456693
v 5.717306 2.762612 8.311436
vt 0.859680 0.574524
vn 0.889764 -0.141732 0.433071
v 6.101938 5.197568 7.561660
vt 0.901794 0.425629
vn 0.944882 -0.023622 0.330709
v 3.286808 5.411059 10.337533
vt 0.692474 0.404175
vn 0.244094 -0.236220 0.944882
v -2.153363 7.932566 11.305146
vt 0.635223 0.262939
vn -0.196850 0.259843 0.944882
v -2.718381 10.421101 10.927146
vt 0.675720 0.132111
vn -0.354331 0.362205 0.866142
v -4.626073 8.194690 10.305998
vt 0.802246 0.257782
vn -0.677165 0.244094 0.700787
v -5.272894 9.883251 9.054158
vt 0.833496 0.159363
vn -0.811024 0.251969 0.535433
v -6.466906 8.774579 5.897381
vt 0.919922 0.221069
vn -0.960630 0.062992 0.267717
v -6.928359 5.774572 2.347666
vt 0.987274 0.384094
vn -0.992126 0.039370 0.165354
v -6.101938 5.197568 7.561660
vt 0.901794 0.425629
vn -0.944882 -0.023622 0.330709
v -5.203939 6.754654 10.223012
vt 0.823822 0.335419
vn -0.818898 -0.133858 0.559055
v -4.219941 6.831725 11.314275
vt 0.767273 0.328674
vn -0.480315 -0.370079 0.795276
v 0.000000 7.043568 11.986044
vt 0.500000 0.312805
vn 0.000000 0.110236 1.000000
v -1.762438 6.314070 11.863225
vt 0.592834 0.344147
vn -0.141732 -0.440945 0.889764
v -2.252733 6.030102 11.222575
vt 0.608215 0.357483
vn -0.259843 -0.921260 0.283465
v -5.360466 5.055378 8.875739
vt 0.825836 0.444885
vn -0.763780 -0.157480 0.629921
v -4.540599 5.785700 9.981109
vt 0.770660 0.389343
vn -0.440945 -0.417323 0.795276
v 2.696358 -0.961123 10.223012
vt 0.656372 0.776764
vn 0.543307 -0.188976 0.818898
v 3.852876 -1.965522 9.175317
vt 0.740021 0.827972
vn 0.740157 -0.299213 0.598425
v 3.836358 0.891059 9.998121
vt 0.722534 0.678162
vn 0.566929 -0.165354 0.811024
v 4.689260 2.905214 9.834639
vt 0.772644 0.571045
vn 0.669291 -0.055118 0.748031
v 5.360466 5.055378 8.875739
vt 0.825836 0.444885
vn 0.763780 -0.157480 0.629921
v 5.203939 6.754654 10.223012
vt 0.823822 0.335419
vn 0.818898 -0.133858 0.559055
v 4.626073 8.194690 10.305998
vt 0.802246 0.257782
vn 0.677165 0.244094 0.700787
v 2.718381 10.421101 10.927146
vt 0.675720 0.132111
vn 0.354331 0.362205 0.866142
v 0.000000 13.504774 9.103950
vt 0.500000 0.012085
vn 0.000000 0.606299 0.795276
v -3.194255 3.163629 10.489811
vt 0.684082 0.553467
vn -0.346457 0.102362 0.937008
v -4.689260 2.905214 9.834639
vt 0.772644 0.571045
vn -0.669291 -0.055118 0.748031
v -5.717306 2.762612 8.311436
vt 0.859680 0.574524
vn -0.889764 -0.141732 0.433071
v -5.988672 0.629758 5.143041
vt 0.943817 0.707367
vn -0.944882 -0.228346 0.236220
v -6.516459 3.232046 6.377868
vt 0.927948 0.564209
vn -0.976378 -0.118110 0.212598
v -6.513051 0.848608 2.348081
vt 0.987213 0.683441
vn -0.968504 -0.196850 0.188976
v 4.219941 6.831725 11.314275
vt 0.767273 0.328674
vn 0.480315 -0.370079 0.795276
v 1.762438 6.314070 11.863225
vt 0.592834 0.344147
vn 0.141732 -0.440945 0.889764
v 0.000000 6.033811 11.578999
vt 0.500000 0.355316
vn 0.000000 -0.354331 0.937008
v 1.489499 -0.074186 11.599331
vt 0.582489 0.737366
vn 0.417323 -0.244094 0.881890
v 1.985037 1.461468 10.968639
vt 0.611267 0.650940
vn 0.440945 0.047244 0.897638
v 3.194255 3.163629 10.489811
vt 0.684082 0.553467
vn 0.346457 0.102362 0.937008
v 4.521197 4.850541 9.656220
vt 0.760376 0.451843
vn 0.464567 -0.094488 0.881890
v 4.540599 5.785700 9.981109
vt 0.770660 0.389343
vn 0.440945 -0.417323 0.795276
v -3.718110 13.219982 8.401061
vt 0.697388 0.012085
vn -0.543307 0.519685 0.661417
v -6.193704 11.646410 5.616059
vt 0.922028 0.012085
vn -0.921260 0.228346 0.307087
v -7.391910 9.099350 0.065559
vt 0.987213 0.216431
vn -0.992126 0.000000 0.141732
v -7.164592 4.379871 -0.318250
vt 0.987213 0.504211
vn 0.244094 -0.070866 -0.968504
f 57/57/57 58/58/58 59/59/59
f 60/60/60 61/61/61 62/62/62
f 63/63/63 64/64/64 65/65/65
f 66/66/66 67/67/67 68/68/68
f 69/69/69 70/70/70 71/71/71
f 72/72/72 73/73/73 74/74/74
f 75/75/75 76/76/76 77/77/77
f 78/78/78 77/77/77 79/79/79
f 79/79/79 77/77/77 76/76/76
f 79/79/79 76/76/76 80/80/80
f 58/58/58 57/57/57 81/81/81
f 82/82/82 83/83/83 84/84/84
f 84/84/84 83/83/83 85/85/85
f 86/86/86 87/87/87 88/88/88
f 89/89/89 90/90/90 91/91/91
f 92/92/92 93/93/93 72/72/72
f 72/72/72 93/93/93 94/94/94
f 72/72/72 94/94/94 73/73/73
f 85/85/85 95/95/95 84/84/84
f 84/84/84 95/95/95 96/96/96
f 84/84/84 96/96/96 97/97/97
f 87/87/87 98/98/98 99/99/99
f 99/99/99 98/98/98 100/100/100
f 101/101/101 102/102/102 103/103/103
f 104/104/104 105/105/105 106/106/106
f 107/107/107 105/105/105 108/108/108
f 108/108/108 105/105/105 104/104/104
f 108/108/108 104/104/104 109/109/109
f 110/110/110 111/111/111 112/112/112
f 112/112/112 111/111/111 113/113/113
f 61/61/61 60/60/60 114/114/114
f 115/115/115 116/116/116 71/71/71
f 71/71/71 116/116/116 117/117/117
f 71/71/71 117/117/117 69/69/69
f 118/118/118 119/119/119 61/61/61
f 61/61/61 119/119/119 120/120/120
f 61/61/61 120/120/120 62/62/62
f 121/121/121 122/122/122 123/123/123
f 124/124/124 125/125/125 126/126/126
f 126/126/126 125/125/125 127/127/127
f 126/126/126 127/127/127 128/128/128
f 128/128/128 127/127/127 129/129/129
f 64/64/64 63/63/63 130/130/130
f 131/131/131 100/100/100 132/132/132
f 132/132/132 100/100/100 98/98/98
f 132/132/132 98/98/98 133/133/133
f 133/133/133 98/98/98 87/87/87
f 133/133/133 87/87/87 81/81/81
f 81/81/81 87/87/87 86/86/86
f 81/81/81 86/86/86 58/58/58
f 115/115/115 73/73/73 116/116/116
f 116/116/116 73/73/73 94/94/94
f 116/116/116 94/94/94 91/91/91
f 91/91/91 94/94/94 93/93/93
f 91/91/91 93/93/93 89/89/89
f 89/89/89 93/93/93 92/92/92
f 89/89/89 92/92/92 134/134/134
f 66/66/66 68/68/68 135/135/135
f 135/135/135 68/68/68 136/136/136
f 135/135/135 136/136/136 137/137/137
f 137/137/137 136/136/136 138/138/138
f 137/137/137 138/138/138 139/139/139
f 140/140/140 141/141/141 139/139/139
f 139/139/139 141/141/141 142/142/142
f 139/139/139 142/142/142 137/137/137
f 137/137/137 142/142/142 143/143/143
f 137/137/137 143/143/143 135/135/135
f 67/67/67 66/66/66 144/144/144
f 144/144/144 66/66/66 135/135/135
f 144/144/144 135/135/135 145/145/145
f 145/145/145 135/135/135 143/143/143
f 145/145/145 143/143/143 146/146/146
f 147/147/147 103/103/103 148/148/148
f 148/148/148 103/103/103 102/102/102
f 148/148/148 102/102/102 123/123/123
f 123/123/123 102/102/102 101/101/101
f 123/123/123 101/101/101 121/121/121
f 149/149/149 150/150/150 151/151/151
f 151/151/151 150/150/150 131/131/131
f 151/151/151 131/131/131 152/152/152
f 152/152/152 131/131/131 132/132/132
f 152/152/152 132/132/132 153/153/153
f 153/153/153 132/132/132 133/133/133
f 153/153/153 133/133/133 154/154/154
f 154/154/154 133/133/133 81/81/81
f 154/154/154 81/81/81 155/155/155
f 155/155/155 81/81/81 57/57/57
f 155/155/155 57/57/57 156/156/156
f 156/156/156 57/57/57 59/59/59
f 156/156/156 59/59/59 157/157/157
f 70/70/70 69/69/69 125/125/125
f 125/125/125 69/69/69 158/158/158
f 125/125/125 158/158/158 127/127/127
f 127/127/127 158/158/158 159/159/159
f 127/127/127 159/159/159 129/129/129
f 129/129/129 159/159/159 160/160/160
f 129/129/129 160/160/160 161/161/161
f 161/161/161 160/160/160 162/162/162
f 161/161/161 162/162/162 163/163/163
f 164/164/164 67/67/67 165/165/165
f 165/165/165 67/67/67 144/144/144
f 165/165/165 144/144/144 166/166/166
f 166/166/166 144/144/144 145/145/145
f 166/166/166 145/145/145 122/122/122
f 122/122/122 145/145/145 146/146/146
f 122/122/122 146/146/146 123/123/123
f 123/123/123 146/146/146 143/143/143
f 123/123/123 143/143/143 148/148/148
f 148/148/148 143/143/143 142/142/142
f 148/148/148 142/142/142 147/147/147
f 147/147/147 142/142/142 141/141/141
f 167/167/167 149/149/149 168/168/168
f 168/168/168 149/149/149 151/151/151
f 168/168/168 151/151/151 169/169/169
f 169/169/169 151/151/151 152/152/152
f 169/169/169 152/152/152 170/170/170
f 170/170/170 152/152/152 153/153/153
f 170/170/170 153/153/153 171/171/171
f 171/171/171 153/153/153 154/154/154
f 171/171/171 154/154/154 164/164/164
f 164/164/164 154/154/154 155/155/155
f 164/164/164 155/155/155 67/67/67
f 67/67/67 155/155/155 156/156/156
f 67/67/67 156/156/156 68/68/68
f 68/68/68 156/156/156 157/157/157
f 68/68/68 157/157/157 136/136/136
f 136/136/136 157/157/157 172/172/172
f 136/136/136 172/172/172 138/138/138
f 138/138/138 172/172/172 173/173/173
f 138/138/138 173/173/173 139/139/139
f 139/139/139 173/173/173 174/174/174
f 139/139/139 174/174/174 140/140/140
f 140/140/140 174/174/174 175/175/175
f 74/74/74 168/168/168 72/72/72
f 72/72/72 168/168/168 169/169/169
f 72/72/72 169/169/169 92/92/92
f 92/92/92 169/169/169 170/170/170
f 92/92/92 170/170/170 134/134/134
f 134/134/134 170/170/170 171/171/171
f 134/134/134 171/171/171 89/89/89
f 89/89/89 171/171/171 164/164/164
f 89/89/89 164/164/164 90/90/90
f 90/90/90 164/164/164 165/165/165
f 90/90/90 165/165/165 91/91/91
f 91/91/91 165/165/165 166/166/166
f 91/91/91 166/166/166 116/116/116
f 116/116/116 166/166/166 122/122/122
f 116/116/116 122/122/122 117/117/117
f 117/117/117 122/122/122 121/121/121
f 117/117/117 121/121/121 69/69/69
f 69/69/69 121/121/121 101/101/101
f 69/69/69 101/101/101 158/158/158
f 158/158/158 101/101/101 103/103/103
f 158/158/158 103/103/103 159/159/159
f 159/159/159 103/103/103 147/147/147
f 159/159/159 147/147/147 160/160/160
f 160/160/160 147/147/147 141/141/141
f 160/160/160 141/141/141 162/162/162
f 162/162/162 141/141/141 140/140/140
f 162/162/162 140/140/140 163/163/163
