mtllib 2169-0.mtl
g mesh00
usemtl texture00
v 2.074485 37.160792 0.000000
vt 0.353119 0.465607
vn 0.000000 0.000000 -1.000000
v -2.074485 37.160792 0.000000
vt 0.341797 0.527344
vn 0.000000 0.000000 -1.000000
v 0.000000 39.735219 -0.009924
vt 0.292969 0.457031
vn 0.000000 0.000000 -1.000000
f 1/1/1 2/2/2 3/3/3
usemtl texture00
v 0.000000 29.299508 -14.900043
vt 0.009979 0.989990
vn 0.000000 0.716535 -0.700787
v 0.000000 33.322974 -10.788156
vt 0.009979 0.878906
vn 0.000000 0.346457 -0.937008
v 8.299109 29.299508 -8.899747
vt 0.199219 0.989990
vn 0.543307 0.543307 -0.645669
v 0.000000 48.480385 9.552372
vt 0.989990 0.097656
vn 0.000000 0.236220 0.976378
v 0.000000 47.488072 9.799879
vt 0.989990 0.160156
vn 0.000000 0.598425 0.803150
v 2.499795 49.267335 6.789516
vt 0.925781 0.066406
vn 0.511811 0.480315 0.716535
v -18.205856 51.294675 -14.200135
vt 0.597656 0.746094
vn -0.519685 0.669291 -0.535433
v -19.132530 48.536243 -12.063051
vt 0.511719 0.746094
vn -0.779528 -0.433071 0.456693
v -18.300045 49.922852 -9.161264
vt 0.511719 0.816406
vn -0.921260 -0.070866 0.377953
v 0.000000 38.995913 14.472159
vt 0.989990 0.519531
vn 0.000000 0.173228 0.984252
v -5.568816 41.185901 10.346263
vt 0.910156 0.503906
vn -0.559055 0.433071 0.708661
v -4.606456 35.493247 10.017032
vt 0.910156 0.656250
vn -0.763780 -0.125984 0.629921
v 8.007769 44.276199 2.199544
vt 0.707031 0.355469
vn 0.763780 -0.614173 0.196850
v 10.299881 47.120062 4.399672
vt 0.769531 0.238281
vn 0.818898 -0.141732 0.559055
v 7.339675 44.373131 8.000199
vt 0.823975 0.339996
vn 0.858268 -0.267717 0.440945
v 13.599985 50.982524 -12.625196
vt 0.386719 0.175781
vn -0.724409 0.322835 -0.606299
v 15.422326 47.075704 -11.356722
vt 0.488281 0.207031
vn -0.464567 -0.874016 0.141732
v 13.471281 47.100347 -7.583407
vt 0.509125 0.089844
vn -0.039370 -0.984252 -0.196850
v 16.700012 53.338445 -10.553491
vt 0.285156 0.175781
vn 0.346457 0.929134 -0.133858
v 18.205856 51.294675 -14.200135
vt 0.300781 0.246094
vn 0.519685 0.669291 -0.535433
v 0.000000 30.319750 12.488016
vt 0.989990 0.753906
vn 0.000000 -0.055118 1.000000
v -4.705910 31.532211 9.639934
vt 0.910156 0.753906
vn -0.590551 0.157480 0.795276
v 0.000000 25.468261 13.867985
vt 0.989990 0.989990
vn 0.000000 0.086614 1.000000
v -8.916306 30.760048 6.139810
vt 0.824219 0.989990
vn -0.637795 0.472441 0.606299
v -6.863467 28.808280 9.589732
vt 0.910156 0.989990
vn -0.472441 0.267717 0.842520
v 0.000000 25.468261 13.867985
vt 0.989990 0.989990
vn 0.000000 0.299213 0.960630
v -8.007769 44.276199 2.199544
vt 0.707031 0.355469
vn -0.763780 -0.614173 0.196850
v -8.213111 44.611351 0.199640
vt 0.675781 0.417969
vn -1.000000 -0.078740 0.086614
v -7.574853 40.121301 3.189572
vt 0.660156 0.648438
vn -0.968504 -0.031496 0.251969
v 6.863467 28.808280 9.589732
vt 0.910156 0.989990
vn 0.472441 0.267717 0.842520
v 4.705910 31.532211 9.639934
vt 0.910156 0.753906
vn 0.590551 0.157480 0.795276
v 6.303017 42.955306 7.599751
vt 0.824219 0.425781
vn 0.921260 -0.118110 0.370079
v 7.339675 44.373131 8.000199
vt 0.824219 0.339844
vn 0.858268 -0.267717 0.440945
v 4.501737 41.706701 10.228347
vt 0.910156 0.464844
vn 0.653543 0.047244 0.755906
v 5.568816 41.185901 10.346263
vt 0.910156 0.503906
vn 0.559055 0.433071 0.708661
v 4.606456 35.493247 10.017032
vt 0.910156 0.656250
vn 0.763780 -0.125984 0.629921
v 11.136461 51.222388 -9.388924
vt 0.386719 0.089844
vn -0.787402 0.188976 -0.590551
v -13.471281 47.100347 -7.583407
vt 0.509125 0.089844
vn 0.039370 -0.984252 -0.196850
v -13.599985 50.982524 -12.625196
vt 0.386719 0.175781
vn 0.724409 0.322835 -0.606299
v -11.136461 51.222388 -9.388924
vt 0.386719 0.089844
vn 0.787402 0.188976 -0.590551
v -4.800098 45.368729 9.900283
vt 0.886719 0.253906
vn -0.433071 0.598425 0.677165
v -3.299519 48.667675 6.299756
vt 0.902344 0.121094
vn -0.448819 0.527559 0.716535
v -8.399733 51.987980 1.499636
vt 0.714844 0.027344
vn -0.157480 0.850394 0.503937
v 8.399733 51.987980 1.499636
vt 0.714844 0.027344
vn 0.181102 0.826772 0.527559
v 3.299519 48.667675 6.299756
vt 0.902344 0.121094
vn 0.448819 0.527559 0.716535
v 4.800098 45.368729 9.900283
vt 0.886719 0.253906
vn 0.433071 0.590551 0.685039
v -13.471281 47.100347 -7.583407
vt 0.394531 0.910156
vn 0.039370 -0.984252 -0.196850
v -11.642505 45.787669 -4.211123
vt 0.386719 0.989990
vn -0.480315 -0.866142 -0.149606
v -14.903997 49.733919 -1.670673
vt 0.511719 0.989990
vn -0.858268 0.055118 0.511811
v -15.909648 46.474402 -16.718986
vt 0.386719 0.308594
vn 0.716535 0.220472 -0.661417
v -14.774708 41.453694 -18.283418
vt 0.386719 0.390625
vn 0.992126 0.157480 -0.023622
v -16.060584 41.295976 -18.686200
vt 0.339844 0.363281
vn -0.472441 -0.078740 -0.881890
v -12.668632 36.432987 -19.128094
vt 0.386719 0.472656
vn -0.425197 -0.212598 -0.881890
v -16.602313 50.169288 -5.415968
vt 0.511719 0.910156
vn -0.905512 -0.118110 0.409449
v -14.218352 53.832958 -6.681523
vt 0.636719 0.910156
vn -0.173228 0.984252 0.055118
v -16.700012 53.338445 -10.553491
vt 0.613281 0.816406
vn -0.346457 0.929134 -0.133858
v -8.299109 29.299508 -8.899747
vt 0.199219 0.989990
vn -0.543307 0.543307 -0.645669
v -2.499795 49.267335 6.789516
vt 0.925781 0.066406
vn -0.511811 0.480315 0.716535
v -7.900125 51.030168 -2.799632
vt 0.605469 0.009979
vn 0.574803 0.803150 -0.173228
v -11.736108 53.409090 -2.809556
vt 0.522095 0.089844
vn 0.102362 0.992126 0.133858
v -8.672938 50.782090 -6.153236
vt 0.522095 0.009979
vn 0.740157 0.236220 -0.629921
v -6.100015 50.768947 2.799632
vt 0.746094 0.009979
vn 0.094488 1.000000 -0.039370
v -5.599822 48.748178 -2.319795
vt 0.574219 0.050781
vn 0.133858 0.771654 -0.622047
v -3.377912 48.196163 6.679772
vt 0.097656 0.066406
vn -0.251969 0.771654 0.582677
v -2.499795 50.768947 2.999856
vt 0.097656 0.207031
vn -0.259843 0.944882 0.204724
v -6.100015 50.768947 2.799632
vt 0.212128 0.207031
vn 0.094488 1.000000 -0.039370
v -1.399955 49.768420 -3.999808
vt 0.066406 0.371094
vn -0.448819 0.803150 -0.401575
v -5.599822 48.748178 -2.319795
vt 0.212128 0.413696
vn 0.133858 0.771654 -0.622047
v -10.299881 47.120062 4.399672
vt 0.769531 0.238281
vn -0.818898 -0.141732 0.559055
v -14.903997 49.733919 -1.670673
vt 0.522095 0.207031
vn -0.858268 0.055118 0.511811
v -11.642505 45.787669 -4.211123
vt 0.522095 0.363281
vn -0.480315 -0.866142 -0.149606
v -19.169386 45.950316 -14.477413
vt 0.511719 0.683594
vn -0.921260 -0.346457 0.165354
v -18.693179 46.991916 -17.143367
vt 0.582031 0.691406
vn -0.543307 0.267717 -0.795276
v -16.060584 41.295976 -18.686200
vt 0.558594 0.613281
vn -0.472441 -0.078740 -0.881890
v -14.218352 53.832958 -6.681523
vt 0.269531 0.089844
vn -0.173228 0.984252 0.055118
v -11.736108 53.409090 -2.809556
vt 0.254822 0.009979
vn 0.102362 0.992126 0.133858
v -8.672938 50.782090 -6.153236
vt 0.386719 0.009979
vn 0.740157 0.236220 -0.629921
v 0.000000 40.118015 12.891966
vt 0.989990 0.496094
vn 0.000000 0.393701 0.921260
v -8.599810 43.167241 -2.799632
vt 0.675781 0.417969
vn -0.748031 -0.330709 -0.574803
v -7.700048 44.087266 0.999952
vt 0.675781 0.417969
vn -0.629921 -0.700787 0.338583
v -10.790714 31.663643 -2.900036
vt 0.308594 0.989990
vn -0.850394 0.456693 -0.267717
v -8.688148 31.563426 2.799632
vt 0.369019 0.989990
vn -0.881890 0.370079 0.299213
v -9.350392 34.683297 -2.900036
vt 0.308594 0.878906
vn -0.968504 0.236220 -0.133858
v -7.459604 34.711226 3.008612
vt 0.369019 0.878906
vn -0.952756 0.133858 0.283465
v -8.985924 39.500284 -2.900036
vt 0.308594 0.738281
vn -1.000000 0.062992 -0.055118
v -7.280002 39.901152 3.635552
vt 0.369019 0.738281
vn -0.976378 0.031496 0.244094
v -8.599810 43.167241 -2.799632
vt 0.308594 0.625214
vn -0.748031 -0.330709 -0.574803
v -5.199667 45.868171 -6.100115
vt 0.199219 0.503906
vn -0.566929 0.488189 -0.669291
v -6.200053 41.571983 -7.100067
vt 0.199219 0.683594
vn -0.708661 0.125984 -0.692913
v 11.736108 53.409090 -2.809556
vt 0.522095 0.089844
vn -0.015748 0.992126 0.118110
v 7.900125 51.950193 -2.799632
vt 0.605469 0.009979
vn -0.559055 0.811024 -0.173228
v 8.672938 50.782090 -6.153236
vt 0.522095 0.009979
vn -0.700787 0.204724 -0.685039
v 5.599822 48.748178 -2.319795
vt 0.574219 0.050781
vn -0.181102 0.724409 -0.669291
v 6.100015 50.768947 2.799632
vt 0.746094 0.009979
vn -0.125984 0.992126 -0.023622
v 8.916306 30.760048 6.139810
vt 0.824219 0.989990
vn 0.637795 0.472441 0.606299
v 10.609357 32.844890 1.635648
vt 0.660156 0.989990
vn 0.661417 0.551181 0.503937
v 6.534101 33.276973 6.491807
vt 0.824219 0.753906
vn 0.787402 0.338583 0.519685
v 7.742169 35.018449 3.023789
vt 0.660156 0.753906
vn 0.889764 0.204724 0.417323
v 11.642505 45.787669 -4.211123
vt 0.522095 0.363281
vn 0.480315 -0.866142 -0.149606
v 14.903997 49.733919 -1.670673
vt 0.522095 0.207031
vn 0.858268 0.055118 0.511811
v 12.668632 36.432987 -19.128094
vt 0.386719 0.472656
vn 0.425197 -0.212598 -0.881890
v 14.774708 41.453694 -18.283418
vt 0.386719 0.390625
vn -0.992126 0.157480 -0.023622
v 16.061169 41.295976 -18.686200
vt 0.339844 0.363281
vn 0.472441 -0.078740 -0.881890
v 15.909648 46.474402 -16.718986
vt 0.386719 0.308594
vn -0.716535 0.220472 -0.661417
v 18.205856 51.294675 -14.200135
vt 0.597656 0.746094
vn 0.519685 0.669291 -0.535433
v 16.700012 53.338445 -10.553491
vt 0.613281 0.816406
vn 0.346457 0.929134 -0.133858
v 18.300045 49.922852 -9.161264
vt 0.511719 0.816406
vn 0.921260 -0.070866 0.377953
v 14.218352 53.832958 -6.681523
vt 0.636719 0.910156
vn 0.173228 0.984252 0.055118
v 16.602313 50.169288 -5.415968
vt 0.511719 0.910156
vn 0.905512 -0.118110 0.409449
v 8.985924 39.500284 -2.900036
vt 0.308594 0.738281
vn 0.992126 0.062992 -0.141732
v 8.599810 43.167241 -2.799632
vt 0.308594 0.625214
vn 0.748031 -0.330709 -0.574803
v 7.700048 44.087266 0.999952
vt 0.369019 0.625214
vn 0.629921 -0.700787 0.338583
v 7.280002 39.901152 3.635552
vt 0.369019 0.738281
vn 0.976378 0.031496 0.244094
v 7.459604 34.711226 3.008612
vt 0.369019 0.878906
vn 0.952756 0.133858 0.283465
v 9.350392 34.683297 -2.900036
vt 0.308594 0.878906
vn 0.960630 0.275591 -0.039370
v 8.688148 31.563426 2.799632
vt 0.369019 0.989990
vn 0.881890 0.370079 0.299213
v 16.061169 41.295976 -18.686200
vt 0.558594 0.613281
vn 0.472441 -0.078740 -0.881890
v 18.693179 46.991916 -17.143367
vt 0.582031 0.691406
vn 0.543307 0.267717 -0.795276
v 19.169386 45.950316 -14.477413
vt 0.511719 0.683594
vn 0.921260 -0.346457 0.165354
v 19.132530 48.536243 -12.063051
vt 0.511719 0.746094
vn 0.779528 -0.433071 0.456693
v 8.672938 50.782090 -6.153236
vt 0.386719 0.009979
vn -0.700787 0.204724 -0.685039
v 11.736108 53.409090 -2.809556
vt 0.254822 0.009979
vn -0.015748 0.992126 0.118110
v 14.218352 53.832958 -6.681523
vt 0.269531 0.089844
vn 0.173228 0.984252 0.055118
v 14.903997 49.733919 -1.670673
vt 0.511719 0.989990
vn 0.858268 0.055118 0.511811
v 11.642505 45.787669 -4.211123
vt 0.386719 0.989990
vn 0.480315 -0.866142 -0.149606
v 13.471281 47.100347 -7.583407
vt 0.394531 0.910156
vn -0.039370 -0.984252 -0.196850
v 7.700048 44.087266 0.999952
vt 0.675781 0.417969
vn 0.629921 -0.700787 0.338583
v 8.599810 43.167241 -2.799632
vt 0.675781 0.417969
vn 0.748031 -0.330709 -0.574803
v 12.668632 36.432987 -19.128094
vt 0.386719 0.472656
vn -0.622047 0.125984 0.779528
v 16.495840 41.245046 -16.871927
vt 0.433594 0.371094
vn 0.236220 -0.661417 0.708661
v 16.499935 45.289870 -14.392186
vt 0.464844 0.308594
vn -0.377953 -0.606299 0.700787
v 15.071898 49.328122 -14.916387
vt 0.386719 0.246094
vn -0.771654 0.157480 -0.622047
v -7.900125 51.030168 -2.799632
vt 0.636719 0.566406
vn 0.574803 0.803150 -0.173228
v -5.599822 48.748178 -2.319795
vt 0.707031 0.488281
vn 0.133858 0.771654 -0.622047
v -8.672938 50.782090 -6.153236
vt 0.522095 0.488281
vn 0.740157 0.236220 -0.629921
v -15.071898 49.328122 -14.916387
vt 0.386719 0.246094
vn 0.771654 0.157480 -0.622047
v -15.422326 47.075704 -11.356722
vt 0.488281 0.207031
vn 0.464567 -0.874016 0.141732
v -16.499935 45.289870 -14.392186
vt 0.464844 0.308594
vn 0.377953 -0.606299 0.700787
v -16.495840 41.245046 -16.871927
vt 0.433594 0.371094
vn -0.236220 -0.661417 0.708661
v -12.668632 36.432987 -19.128094
vt 0.386719 0.472656
vn 0.622047 0.125984 0.779528
v -18.693179 46.991916 -17.143367
vt 0.316406 0.308594
vn -0.543307 0.267717 -0.795276
v -18.205856 51.294675 -14.200135
vt 0.300781 0.246094
vn -0.519685 0.669291 -0.535433
v -11.642505 45.787669 -4.211123
vt 0.509125 0.009979
vn -0.480315 -0.866142 -0.149606
v -16.700012 53.338445 -10.553491
vt 0.285156 0.175781
vn -0.346457 0.929134 -0.133858
v -10.609357 32.844890 1.635648
vt 0.660156 0.989990
vn -0.661417 0.551181 0.503937
v -6.534101 33.276973 6.491807
vt 0.824219 0.753906
vn -0.787402 0.338583 0.519685
v 0.000000 34.412218 12.852272
vt 0.989990 0.671875
vn 0.000000 -0.251969 0.968504
v -4.501737 41.706701 10.228347
vt 0.910156 0.464844
vn -0.645669 0.062992 0.763780
v 0.000000 41.473409 14.140009
vt 0.989990 0.402344
vn 0.000000 -0.188976 0.984252
v -5.389799 43.474463 10.767141
vt 0.902344 0.363281
vn -0.669291 0.023622 0.740157
v 0.000000 44.351773 13.316348
vt 0.989990 0.292969
vn 0.000000 0.535433 0.850394
v -5.199667 50.824805 2.647859
vt 0.746094 0.009979
vn 0.338583 0.944882 0.000000
v -6.755823 33.391976 -7.153188
vt 0.199219 0.878906
vn -0.669291 0.299213 -0.677165
v 0.000000 41.644271 -10.700011
vt 0.009979 0.683594
vn 0.000000 0.244094 -0.968504
v 0.000000 45.868171 -9.000151
vt 0.009979 0.503906
vn 0.000000 0.590551 -0.811024
v -7.700048 44.087266 0.999952
vt 0.369019 0.625214
vn -0.629921 -0.700787 0.338583
v -7.339675 44.373131 8.000199
vt 0.824219 0.339844
vn -0.858268 -0.259843 0.440945
v -6.303017 42.955306 7.599751
vt 0.824219 0.425781
vn -0.921260 -0.110236 0.377953
v 0.000000 50.468296 -5.299804
vt 0.009979 0.371094
vn 0.000000 0.866142 -0.511811
v 0.000000 51.968265 1.099772
vt 0.009979 0.238281
vn 0.000000 1.000000 -0.031496
v 0.000000 50.468296 5.899891
vt 0.009979 0.105469
vn 0.000000 0.858268 0.519685
v 0.000000 46.362684 9.777113
vt 0.009979 0.009979
vn 0.000000 0.685039 0.732283
v 8.672938 50.782090 -6.153236
vt 0.522095 0.488281
vn -0.700787 0.204724 -0.685039
v 5.599822 48.748178 -2.319795
vt 0.707031 0.488281
vn -0.181102 0.724409 -0.669291
v 7.900125 51.950193 -2.799632
vt 0.636719 0.566406
vn -0.559055 0.811024 -0.173228
v 18.693179 46.991916 -17.143367
vt 0.316406 0.308594
vn 0.543307 0.267717 -0.795276
v 11.642505 45.787669 -4.211123
vt 0.509125 0.009979
vn 0.480315 -0.866142 -0.149606
v -7.742169 35.018449 3.023789
vt 0.660156 0.753906
vn -0.889764 0.204724 0.417323
v -6.239835 36.746781 7.041693
vt 0.824219 0.648438
vn -0.921260 -0.007874 0.385827
v -7.339675 44.373131 8.000199
vt 0.823975 0.339996
vn -0.858268 -0.259843 0.440945
v 8.213111 44.611351 0.199640
vt 0.675781 0.417969
vn 1.000000 -0.078740 0.086614
v 7.574853 40.121301 3.189572
vt 0.660156 0.648438
vn 0.968504 -0.031496 0.251969
v 6.239835 36.746781 7.041693
vt 0.824219 0.648438
vn 0.921260 -0.007874 0.385827
v 10.790714 31.663643 -2.900036
vt 0.308594 0.989990
vn 0.850394 0.456693 -0.267717
v 6.755823 33.391976 -7.153188
vt 0.199219 0.878906
vn 0.708661 0.259843 -0.661417
v 6.200053 41.571983 -7.100067
vt 0.199219 0.683594
vn 0.685039 0.141732 -0.724409
v 5.199667 45.868171 -6.100115
vt 0.199219 0.503906
vn 0.566929 0.488189 -0.669291
v 1.399955 49.768420 -3.999808
vt 0.066406 0.371094
vn 0.448819 0.803150 -0.401575
v -11.736108 53.409090 -2.809556
vt 0.652344 0.989990
vn 0.102362 0.992126 0.133858
v -15.422326 47.075704 -11.356722
vt 0.417969 0.761719
vn 0.464567 -0.874016 0.141732
v -16.499935 45.289870 -14.392186
vt 0.433594 0.691406
vn 0.377953 -0.606299 0.700787
v -16.495840 41.245046 -16.871927
vt 0.457031 0.628906
vn -0.236220 -0.661417 0.708661
v -12.668632 36.432987 -19.128094
vt 0.511719 0.519531
vn -0.425197 -0.212598 -0.881890
v 12.668632 36.432987 -19.128094
vt 0.511719 0.519531
vn 0.425197 -0.212598 -0.881890
v 16.495840 41.245046 -16.871927
vt 0.457031 0.628906
vn 0.236220 -0.661417 0.708661
v 16.499935 45.289870 -14.392186
vt 0.433594 0.691406
vn -0.377953 -0.606299 0.700787
v 15.422326 47.075704 -11.356722
vt 0.417969 0.761719
vn -0.464567 -0.874016 0.141732
v 11.736108 53.409090 -2.809556
vt 0.652344 0.989990
vn -0.015748 0.992126 0.118110
v 5.199667 50.824805 2.647859
vt 0.746094 0.009979
vn -0.307087 0.952756 0.094488
v 5.389799 43.334817 10.767141
vt 0.902344 0.363281
vn 0.677165 0.007874 0.740157
v 5.599822 48.748178 -2.319795
vt 0.212128 0.413696
vn -0.181102 0.724409 -0.669291
v 6.100015 50.768947 2.799632
vt 0.212128 0.207031
vn -0.125984 0.992126 -0.023622
v 2.499795 50.768947 2.999856
vt 0.097656 0.207031
vn 0.259843 0.944882 0.204724
v 3.377912 48.196163 6.679772
vt 0.097656 0.066406
vn 0.251969 0.771654 0.582677
f 4/4/4 5/5/5 6/6/6
f 7/7/7 8/8/8 9/9/9
f 10/10/10 11/11/11 12/12/12
f 13/13/13 14/14/14 15/15/15
f 16/16/16 17/17/17 18/18/18
f 19/19/19 20/20/20 21/21/21
f 19/19/19 22/22/22 23/23/23
f 24/24/24 25/25/25 26/26/26
f 27/27/27 28/28/28 25/25/25
f 25/25/25 28/28/28 29/29/29
f 30/30/30 31/31/31 32/32/32
f 26/26/26 33/33/33 34/34/34
f 16/16/16 18/18/18 35/35/35
f 36/36/36 37/37/37 35/35/35
f 35/35/35 37/37/37 38/38/38
f 35/35/35 38/38/38 39/39/39
f 40/40/40 19/19/19 21/21/21
f 41/41/41 42/42/42 43/43/43
f 44/44/44 45/45/45 46/46/46
f 47/47/47 48/48/48 49/49/49
f 50/50/50 51/51/51 52/52/52
f 53/53/53 54/54/54 55/55/55
f 55/55/55 54/54/54 56/56/56
f 57/57/57 58/58/58 12/12/12
f 12/12/12 58/58/58 59/59/59
f 12/12/12 59/59/59 10/10/10
f 5/5/5 4/4/4 60/60/60
f 8/8/8 7/7/7 61/61/61
f 46/46/46 62/62/62 63/63/63
f 63/63/63 62/62/62 64/64/64
f 65/65/65 66/66/66 62/62/62
f 67/67/67 68/68/68 69/69/69
f 69/69/69 68/68/68 70/70/70
f 69/69/69 70/70/70 71/71/71
f 72/72/72 73/73/73 74/74/74
f 11/11/11 10/10/10 75/75/75
f 75/75/75 10/10/10 76/76/76
f 75/75/75 76/76/76 77/77/77
f 78/78/78 79/79/79 80/80/80
f 14/14/14 13/13/13 81/81/81
f 30/30/30 82/82/82 83/83/83
f 84/84/84 85/85/85 86/86/86
f 86/86/86 85/85/85 87/87/87
f 86/86/86 87/87/87 88/88/88
f 88/88/88 87/87/87 89/89/89
f 90/90/90 91/91/91 92/92/92
f 47/47/47 93/93/93 94/94/94
f 94/94/94 93/93/93 95/95/95
f 94/94/94 96/96/96 97/97/97
f 98/98/98 99/99/99 100/100/100
f 100/100/100 99/99/99 101/101/101
f 102/102/102 103/103/103 17/17/17
f 104/104/104 105/105/105 106/106/106
f 106/106/106 105/105/105 107/107/107
f 108/108/108 109/109/109 110/110/110
f 110/110/110 109/109/109 111/111/111
f 110/110/110 111/111/111 112/112/112
f 113/113/113 114/114/114 115/115/115
f 115/115/115 116/116/116 113/113/113
f 113/113/113 116/116/116 117/117/117
f 113/113/113 117/117/117 118/118/118
f 118/118/118 117/117/117 119/119/119
f 120/120/120 121/121/121 122/122/122
f 122/122/122 121/121/121 108/108/108
f 122/122/122 108/108/108 123/123/123
f 123/123/123 108/108/108 110/110/110
f 124/124/124 125/125/125 126/126/126
f 127/127/127 128/128/128 129/129/129
f 130/130/130 131/131/131 16/16/16
f 132/132/132 133/133/133 105/105/105
f 105/105/105 133/133/133 134/134/134
f 105/105/105 134/134/134 107/107/107
f 107/107/107 134/134/134 20/20/20
f 107/107/107 20/20/20 135/135/135
f 136/136/136 137/137/137 138/138/138
f 138/138/138 137/137/137 82/82/82
f 138/138/138 82/82/82 74/74/74
f 74/74/74 82/82/82 30/30/30
f 74/74/74 30/30/30 72/72/72
f 139/139/139 140/140/140 53/53/53
f 53/53/53 140/140/140 141/141/141
f 53/53/53 141/141/141 54/54/54
f 54/54/54 141/141/141 142/142/142
f 54/54/54 142/142/142 143/143/143
f 55/55/55 144/144/144 53/53/53
f 53/53/53 144/144/144 145/145/145
f 53/53/53 145/145/145 139/139/139
f 139/139/139 145/145/145 42/42/42
f 139/139/139 42/42/42 140/140/140
f 140/140/140 42/42/42 41/41/41
f 146/146/146 41/41/41 80/80/80
f 80/80/80 41/41/41 43/43/43
f 80/80/80 43/43/43 78/78/78
f 78/78/78 43/43/43 42/42/42
f 78/78/78 42/42/42 147/147/147
f 147/147/147 42/42/42 145/145/145
f 148/148/148 27/27/27 149/149/149
f 149/149/149 27/27/27 25/25/25
f 149/149/149 25/25/25 15/15/15
f 15/15/15 25/25/25 150/150/150
f 15/15/15 150/150/150 13/13/13
f 151/151/151 152/152/152 153/153/153
f 153/153/153 152/152/152 154/154/154
f 153/153/153 154/154/154 44/44/44
f 44/44/44 154/154/154 8/8/8
f 44/44/44 8/8/8 45/45/45
f 45/45/45 8/8/8 61/61/61
f 45/45/45 61/61/61 46/46/46
f 46/46/46 61/61/61 155/155/155
f 46/46/46 155/155/155 62/62/62
f 60/60/60 156/156/156 5/5/5
f 5/5/5 156/156/156 92/92/92
f 5/5/5 92/92/92 157/157/157
f 157/157/157 92/92/92 91/91/91
f 157/157/157 91/91/91 158/158/158
f 60/60/60 84/84/84 156/156/156
f 156/156/156 84/84/84 86/86/86
f 156/156/156 86/86/86 92/92/92
f 92/92/92 86/86/86 88/88/88
f 92/92/92 88/88/88 90/90/90
f 90/90/90 88/88/88 89/89/89
f 90/90/90 89/89/89 159/159/159
f 63/63/63 73/73/73 46/46/46
f 46/46/46 73/73/73 72/72/72
f 46/46/46 72/72/72 44/44/44
f 44/44/44 72/72/72 160/160/160
f 44/44/44 160/160/160 153/153/153
f 153/153/153 160/160/160 161/161/161
f 153/153/153 161/161/161 151/151/151
f 162/162/162 70/70/70 163/163/163
f 163/163/163 70/70/70 68/68/68
f 163/163/163 68/68/68 164/164/164
f 164/164/164 68/68/68 67/67/67
f 164/164/164 67/67/67 165/165/165
f 17/17/17 16/16/16 102/102/102
f 102/102/102 16/16/16 131/131/131
f 102/102/102 131/131/131 166/166/166
f 166/166/166 131/131/131 167/167/167
f 166/166/166 167/167/167 168/168/168
f 20/20/20 19/19/19 135/135/135
f 135/135/135 19/19/19 23/23/23
f 135/135/135 23/23/23 107/107/107
f 107/107/107 23/23/23 169/169/169
f 107/107/107 169/169/169 106/106/106
f 22/22/22 19/19/19 126/126/126
f 126/126/126 19/19/19 40/40/40
f 126/126/126 40/40/40 124/124/124
f 124/124/124 40/40/40 21/21/21
f 124/124/124 21/21/21 170/170/170
f 171/171/171 172/172/172 32/32/32
f 32/32/32 172/172/172 161/161/161
f 32/32/32 161/161/161 30/30/30
f 30/30/30 161/161/161 173/173/173
f 30/30/30 173/173/173 72/72/72
f 174/174/174 16/16/16 175/175/175
f 175/175/175 16/16/16 35/35/35
f 175/175/175 35/35/35 176/176/176
f 176/176/176 35/35/35 39/39/39
f 176/176/176 39/39/39 34/34/34
f 34/34/34 39/39/39 24/24/24
f 34/34/34 24/24/24 26/26/26
f 33/33/33 98/98/98 34/34/34
f 34/34/34 98/98/98 100/100/100
f 34/34/34 100/100/100 176/176/176
f 176/176/176 100/100/100 101/101/101
f 176/176/176 101/101/101 175/175/175
f 177/177/177 6/6/6 178/178/178
f 178/178/178 6/6/6 5/5/5
f 178/178/178 5/5/5 179/179/179
f 179/179/179 5/5/5 157/157/157
f 179/179/179 157/157/157 180/180/180
f 180/180/180 157/157/157 158/158/158
f 180/180/180 158/158/158 181/181/181
f 182/182/182 58/58/58 52/52/52
f 52/52/52 58/58/58 57/57/57
f 52/52/52 57/57/57 50/50/50
f 50/50/50 57/57/57 12/12/12
f 50/50/50 12/12/12 183/183/183
f 183/183/183 12/12/12 11/11/11
f 183/183/183 11/11/11 184/184/184
f 184/184/184 11/11/11 75/75/75
f 184/184/184 75/75/75 185/185/185
f 185/185/185 75/75/75 77/77/77
f 185/185/185 77/77/77 186/186/186
f 187/187/187 120/120/120 188/188/188
f 188/188/188 120/120/120 122/122/122
f 188/188/188 122/122/122 189/189/189
f 189/189/189 122/122/122 123/123/123
f 189/189/189 123/123/123 190/190/190
f 190/190/190 123/123/123 110/110/110
f 190/190/190 110/110/110 129/129/129
f 129/129/129 110/110/110 112/112/112
f 129/129/129 112/112/112 127/127/127
f 127/127/127 112/112/112 111/111/111
f 127/127/127 111/111/111 191/191/191
f 94/94/94 192/192/192 47/47/47
f 47/47/47 192/192/192 9/9/9
f 47/47/47 9/9/9 48/48/48
f 48/48/48 9/9/9 8/8/8
f 48/48/48 8/8/8 49/49/49
f 49/49/49 8/8/8 154/154/154
f 49/49/49 154/154/154 193/193/193
f 193/193/193 154/154/154 152/152/152
f 193/193/193 152/152/152 81/81/81
f 81/81/81 152/152/152 151/151/151
f 81/81/81 151/151/151 14/14/14
f 14/14/14 151/151/151 161/161/161
f 14/14/14 161/161/161 15/15/15
f 15/15/15 161/161/161 172/172/172
f 15/15/15 172/172/172 149/149/149
f 149/149/149 172/172/172 171/171/171
f 149/149/149 171/171/171 148/148/148
f 119/119/119 177/177/177 118/118/118
f 118/118/118 177/177/177 178/178/178
f 118/118/118 178/178/178 113/113/113
f 113/113/113 178/178/178 179/179/179
f 113/113/113 179/179/179 114/114/114
f 114/114/114 179/179/179 180/180/180
f 114/114/114 180/180/180 194/194/194
f 194/194/194 180/180/180 181/181/181
f 194/194/194 181/181/181 195/195/195
f 195/195/195 181/181/181 196/196/196
f 195/195/195 196/196/196 197/197/197
f 25/25/25 24/24/24 150/150/150
f 150/150/150 24/24/24 39/39/39
f 150/150/150 39/39/39 13/13/13
f 13/13/13 39/39/39 38/38/38
f 13/13/13 38/38/38 81/81/81
f 81/81/81 38/38/38 37/37/37
f 81/81/81 37/37/37 193/193/193
f 193/193/193 37/37/37 36/36/36
f 193/193/193 36/36/36 49/49/49
f 49/49/49 36/36/36 17/17/17
f 49/49/49 17/17/17 47/47/47
f 47/47/47 17/17/17 103/103/103
f 47/47/47 103/103/103 93/93/93
f 165/165/165 197/197/197 164/164/164
f 164/164/164 197/197/197 196/196/196
f 164/164/164 196/196/196 163/163/163
f 163/163/163 196/196/196 181/181/181
f 163/163/163 181/181/181 162/162/162
f 162/162/162 181/181/181 158/158/158
f 162/162/162 158/158/158 70/70/70
f 70/70/70 158/158/158 91/91/91
f 70/70/70 91/91/91 71/71/71
f 71/71/71 91/91/91 90/90/90
