mtllib 6163-1.mtl
g mesh00
usemtl texture00
v -27.248792 40.638109 -53.607584
vt 0.230194 0.020538
vn 0.062992 0.937008 -0.362205
v 66.353392 30.474590 -64.916518
vt 0.020538 0.230194
vn 0.133858 0.944882 -0.299213
v 23.375113 26.578441 -78.572807
vt 0.230194 0.230194
vn 0.047244 0.913386 -0.409449
v 11.675818 23.241166 90.286458
vt 0.391937 0.016876
vn -0.220472 -0.574803 0.787402
v -49.997856 -24.997627 37.453616
vt 0.267212 0.232758
vn -0.220472 -0.574803 0.787402
v 44.222552 21.692287 84.562611
vt 0.443939 0.016876
vn 0.070866 -0.779528 0.622047
v -88.108602 39.967461 -1.167896
vt 0.483093 0.016876
vn -0.795276 -0.519685 -0.314961
v -49.997856 -3.473001 -37.453616
vt 0.267212 0.232758
vn -0.732283 -0.503937 -0.464567
v -49.997856 -5.061800 -9.724758
vt 0.483093 0.232758
vn -0.700787 -0.716535 -0.094488
v -34.542266 -34.227028 -25.867163
vt 0.483093 0.232758
vn -0.732283 -0.677165 -0.039370
v -49.997856 -3.473001 -37.453616
vt 0.267212 0.016876
vn -0.732283 -0.503937 -0.464567
v 0.884295 -24.997627 -49.999826
vt 0.267212 0.232758
vn 0.047244 -0.669291 -0.748031
v 49.997856 -24.997627 24.525817
vt 0.267212 0.232758
vn 0.307087 -0.952756 0.102362
v 49.997856 -24.997627 7.250206
vt 0.483093 0.232758
vn 0.622047 -0.779528 -0.047244
v 68.724553 14.490799 81.983989
vt 0.483093 0.016876
vn 0.976378 -0.157480 -0.157480
v 49.997856 -33.396701 -49.999826
vt 0.483093 0.232758
vn 0.188976 -0.818898 -0.543307
v 49.997856 -24.997627 7.250206
vt 0.483093 0.016876
vn 0.622047 -0.779528 -0.047244
v 1.299052 -24.997627 1.295093
vt 0.267212 0.232758
vn -0.188976 -0.984252 0.000000
v 0.884295 -24.997627 -49.999826
vt 0.483093 0.016876
vn 0.047244 -0.669291 -0.748031
v 24.948062 -13.221357 -49.999826
vt 0.267212 0.016876
vn 0.393701 -0.811024 -0.440945
v 1.299052 -24.997627 1.295093
vt 0.483093 0.232758
vn 0.346457 -0.944882 0.000000
v -27.248792 40.638109 -53.607584
vt 0.267212 0.016876
vn 0.070866 -0.015748 -1.000000
v 23.375113 26.578441 -78.572807
vt 0.267212 0.232758
vn -0.110236 -0.440945 -0.889764
v 0.884295 -24.997627 -49.999826
vt 0.483093 0.232758
vn 0.047244 -0.669291 -0.748031
v 49.997856 -33.396701 -49.999826
vt 0.267212 0.016876
vn 0.188976 -0.818898 -0.543307
v 24.948062 -13.221357 -49.999826
vt 0.267212 0.232758
vn -0.511811 -0.629921 -0.582677
v 23.375113 26.578441 -78.572807
vt 0.483093 0.016876
vn -0.062992 -0.448819 -0.889764
v 23.375113 26.578441 -78.572807
vt 0.483093 0.016876
vn -0.110236 -0.440945 -0.889764
v 24.948062 -13.221357 -49.999826
vt 0.267212 0.232758
vn 0.393701 -0.811024 -0.440945
v -63.426612 44.558210 -49.225083
vt 0.483093 0.016876
vn -0.795276 -0.346457 -0.496063
v -45.967664 37.564303 -69.322146
vt 0.267212 0.016876
vn -0.763780 -0.346457 -0.543307
v -49.997856 -3.473001 -37.453616
vt 0.483093 0.232758
vn -0.732283 -0.503937 -0.464567
v -27.248792 40.638109 -53.607584
vt 0.483093 0.016876
vn 0.070866 -0.015748 -1.000000
v -45.967664 37.564303 -69.322146
vt 0.267212 0.016876
vn 0.125984 -0.204724 -0.976378
v 45.912885 39.352699 -44.923526
vt 0.020538 0.020538
vn 0.149606 0.976378 -0.188976
v -27.248792 40.638109 -53.607584
vt 0.020538 0.230194
vn 0.062992 0.937008 -0.362205
v -53.276789 47.224836 -41.350458
vt 0.230194 0.020538
vn -0.015748 0.992126 -0.125984
v -45.967664 37.564303 -69.322146
vt 0.230194 0.230194
vn 0.047244 0.952756 -0.314961
v 3.576306 -16.957828 30.527183
vt 0.483093 0.232758
vn 0.094488 -0.913386 0.393701
v 68.724553 14.490799 81.983989
vt 0.483093 0.016876
vn 0.000000 -0.811024 0.590551
v -49.997856 -24.997627 37.453616
vt 0.267212 0.232758
vn -0.173228 -0.929134 0.330709
v 44.222552 21.692287 84.562611
vt 0.443939 0.016876
vn -0.094488 -0.606299 0.795276
v -34.542266 -34.227028 -25.867163
vt 0.267212 0.016876
vn 0.251969 -0.968504 0.000000
v 1.299052 -24.997627 1.295093
vt 0.483093 0.232758
vn -0.385827 -0.598425 0.708661
v -49.997856 -5.061800 -9.724758
vt 0.483093 0.016876
vn -0.700787 -0.716535 -0.094488
v -34.542266 -34.227028 -25.867163
vt 0.267212 0.016876
vn -0.732283 -0.677165 -0.039370
v 100.543505 26.586425 -10.661388
vt 0.483093 0.016876
vn 0.732283 -0.629921 0.251969
v 92.350086 32.837828 28.989261
vt 0.267212 0.016876
vn 0.700787 -0.637795 0.322835
v 49.997856 -24.997627 7.250206
vt 0.267212 0.232758
vn 0.700787 -0.637795 0.322835
v 63.426612 29.308939 71.935458
vt 0.020538 0.230194
vn 0.118110 0.818898 0.566929
v 92.350086 32.837828 28.989261
vt 0.230194 0.230194
vn 0.314961 0.944882 0.125984
v 53.488080 42.418521 55.423027
vt 0.020538 0.020538
vn 0.141732 0.976378 0.157480
v 100.543505 26.586425 -10.661388
vt 0.230194 0.020538
vn 0.236220 0.968504 -0.094488
v 100.543505 26.586425 -10.661388
vt 0.267212 0.016876
vn 0.818898 -0.535433 -0.220472
v 49.997856 -33.396701 -49.999826
vt 0.267212 0.232758
vn 0.188976 -0.818898 -0.543307
v 66.353392 30.474590 -64.916518
vt 0.483093 0.016876
vn 0.582677 -0.322835 -0.748031
v 23.375113 26.578441 -78.572807
vt 0.483093 0.232758
vn -0.062992 -0.448819 -0.889764
v 63.426612 29.308939 71.935458
vt 0.267212 0.016876
vn 0.669291 -0.637795 0.393701
v 49.997856 -24.997627 7.250206
vt 0.483093 0.232758
vn 0.700787 -0.637795 0.322835
v 92.350086 32.837828 28.989261
vt 0.483093 0.016876
vn 0.700787 -0.637795 0.322835
v 68.724553 14.490799 81.983989
vt 0.267212 0.232758
vn 0.976378 -0.157480 -0.157480
v 63.426612 29.308939 71.935458
vt 0.267212 0.016876
vn 0.944882 0.125984 -0.307087
v -66.353392 35.209049 48.623790
vt 0.020538 0.230194
vn -0.125984 0.929134 0.354331
v 11.675818 23.241166 90.286458
vt 0.141663 0.230194
vn 0.070866 0.866142 0.496063
v 63.426612 29.308939 71.935458
vt 0.230194 0.020538
vn 0.118110 0.818898 0.566929
v 44.222552 21.692287 84.562611
vt 0.192169 0.230194
vn 0.204724 0.669291 0.716535
v 68.724553 14.490799 81.983989
vt 0.230194 0.230194
vn 0.251969 0.606299 0.755906
v 49.997856 -24.997627 24.525817
vt 0.267212 0.232758
vn -0.062992 -0.811024 0.582677
v 3.576306 -16.957828 30.527183
vt 0.267212 0.016876
vn 0.094488 -0.913386 0.393701
v -49.997856 -24.295042 13.980062
vt 0.267212 0.016876
vn -0.661417 -0.724409 -0.181102
v 1.299052 -24.997627 1.295093
vt 0.267212 0.232758
vn 0.000000 -0.992126 -0.141732
v -49.997856 -24.997627 37.453616
vt 0.483093 0.016876
vn -0.173228 -0.929134 0.330709
v -49.997856 -24.295042 13.980062
vt 0.483093 0.232758
vn -0.661417 -0.724409 -0.181102
v -49.997856 -5.061800 -9.724758
vt 0.267212 0.016876
vn -0.700787 -0.716535 -0.094488
v 3.576306 -16.957828 30.527183
vt 0.267212 0.016876
vn -0.125984 -0.960630 0.267717
v 49.997856 -24.997627 24.525817
vt 0.483093 0.016876
vn 0.307087 -0.952756 0.102362
v 24.948062 -13.221357 -49.999826
vt 0.483093 0.016876
vn -0.511811 -0.629921 -0.582677
v -63.426612 44.558210 -49.225083
vt 0.020538 0.020538
vn -0.110236 0.984252 -0.173228
v -88.108602 39.967461 -1.167896
vt 0.020538 0.230194
vn -0.220472 0.976378 0.094488
v -58.238229 39.456490 42.680240
vt 0.230194 0.230194
vn -0.125984 0.937008 0.330709
v -49.997856 -24.997627 37.453616
vt 0.483093 0.232758
vn -0.173228 -0.929134 0.330709
v -66.353392 35.209049 48.623790
vt 0.484161 0.016907
vn -0.929134 -0.346457 0.157480
v -49.997856 -24.295042 13.980062
vt 0.267212 0.232758
vn -0.661417 -0.724409 -0.181102
v -88.108602 39.967461 -1.167896
vt 0.267212 0.016876
vn -0.850394 -0.425197 0.330709
v -53.276789 47.224836 -41.350458
vt 0.020538 0.020538
vn -0.015748 0.992126 -0.125984
v -58.238229 39.456490 42.680240
vt 0.020538 0.230194
vn -0.125984 0.937008 0.330709
v 53.488080 42.418521 55.423027
vt 0.230194 0.020538
vn 0.141732 0.976378 0.157480
v 63.426612 29.308939 71.935458
vt 0.230194 0.230194
vn 0.118110 0.818898 0.566929
v 53.488080 42.418521 55.423027
vt 0.020538 0.230194
vn 0.141732 0.976378 0.157480
v 45.912885 39.352699 -44.923526
vt 0.230194 0.230194
vn 0.149606 0.976378 -0.188976
v 66.353392 30.474590 -64.916518
vt 0.230194 0.230194
vn 0.133858 0.944882 -0.299213
v 45.912885 39.352699 -44.923526
vt 0.230194 0.020538
vn 0.149606 0.976378 -0.188976
v 100.543505 26.586425 -10.661388
vt 0.020538 0.230194
vn 0.236220 0.968504 -0.094488
v -58.238229 39.456490 42.680240
vt 0.230194 0.020538
vn -0.125984 0.937008 0.330709
v -88.108602 39.967461 -1.167896
vt 0.020538 0.020538
vn -0.220472 0.976378 0.094488
v -66.353392 35.209049 48.623790
vt 0.267212 0.016876
vn -0.488189 -0.283465 0.826772
v -63.426612 44.558210 -49.225083
vt 0.230194 0.020538
vn -0.110236 0.984252 -0.173228
v -45.967664 37.564303 -69.322146
vt 0.020538 0.230194
vn 0.047244 0.952756 -0.314961
v 100.543505 26.586425 -10.661388
vt 0.483093 0.016876
vn 0.818898 -0.535433 -0.220472
v 49.997856 -24.997627 7.250206
vt 0.267212 0.232758
vn 0.732283 -0.677165 0.094488
v -63.426612 44.558210 -49.225083
vt 0.267212 0.016876
vn -0.795276 -0.346457 -0.496063
f 1/1/1 2/2/2 3/3/3
f 4/4/4 5/5/5 6/6/6
f 7/7/7 8/8/8 9/9/9
f 10/10/10 11/11/11 12/12/12
f 13/13/13 14/14/14 15/15/15
f 16/16/16 17/17/17 18/18/18
f 19/19/19 20/20/20 21/21/21
f 22/22/22 23/23/23 24/24/24
f 25/25/25 26/26/26 27/27/27
f 24/24/24 28/28/28 29/29/29
f 30/30/30 31/31/31 32/32/32
f 33/33/33 24/24/24 34/34/34
f 35/35/35 36/36/36 37/37/37
f 37/37/37 36/36/36 38/38/38
f 2/2/2 1/1/1 35/35/35
f 39/39/39 40/40/40 41/41/41
f 41/41/41 40/40/40 42/42/42
f 43/43/43 12/12/12 21/21/21
f 44/44/44 45/45/45 46/46/46
f 47/47/47 48/48/48 49/49/49
f 50/50/50 51/51/51 52/52/52
f 52/52/52 51/51/51 53/53/53
f 54/54/54 55/55/55 56/56/56
f 56/56/56 55/55/55 57/57/57
f 58/58/58 59/59/59 60/60/60
f 61/61/61 14/14/14 62/62/62
f 63/63/63 64/64/64 65/65/65
f 65/65/65 64/64/64 66/66/66
f 65/65/65 66/66/66 67/67/67
f 68/68/68 40/40/40 69/69/69
f 70/70/70 71/71/71 72/72/72
f 72/72/72 71/71/71 39/39/39
f 71/71/71 73/73/73 74/74/74
f 74/74/74 73/73/73 7/7/7
f 75/75/75 18/18/18 76/76/76
f 76/76/76 18/18/18 14/14/14
f 25/25/25 18/18/18 77/77/77
f 78/78/78 79/79/79 37/37/37
f 37/37/37 79/79/79 80/80/80
f 81/81/81 82/82/82 83/83/83
f 83/83/83 82/82/82 84/84/84
f 85/85/85 86/86/86 87/87/87
f 87/87/87 86/86/86 88/88/88
f 89/89/89 90/90/90 37/37/37
f 91/91/91 92/92/92 93/93/93
f 93/93/93 92/92/92 52/52/52
f 88/88/88 94/94/94 63/63/63
f 63/63/63 94/94/94 95/95/95
f 5/5/5 4/4/4 96/96/96
f 97/97/97 85/85/85 98/98/98
f 16/16/16 99/99/99 100/100/100
f 8/8/8 7/7/7 101/101/101
f 11/11/11 10/10/10 45/45/45
f 32/32/32 34/34/34 12/12/12
g mesh01
g mesh02
