mtllib 6170-1.mtl
g mesh00
usemtl texture00
v 69.246413 -786.027651 1749.993973
vt 0.238861 0.201111
vn 0.102362 -0.984252 -0.188976
v 592.196502 -592.196502 2000.001831
vt 0.210724 0.229187
vn 0.622047 -0.771654 -0.141732
v 0.000000 -832.397755 2000.001831
vt 0.238861 0.229187
vn -0.102362 -0.992126 -0.133858
v 606.192805 -509.277230 1749.993973
vt 0.210724 0.201111
vn 0.763780 -0.614173 -0.188976
v 832.397755 0.000000 2000.001831
vt 0.182587 0.229187
vn 0.992126 -0.102362 -0.133858
v 786.027651 69.246413 1749.993973
vt 0.182587 0.201111
vn 0.984252 0.102362 -0.188976
v 592.196502 592.196502 2000.001831
vt 0.154449 0.229187
vn 0.771654 0.622047 -0.141732
v 509.277230 606.192805 1749.993973
vt 0.154449 0.201111
vn 0.614173 0.763780 -0.188976
v 0.000000 832.397755 2000.001831
vt 0.126312 0.229187
vn 0.102362 0.992126 -0.133858
v -509.277230 -606.192805 1749.993973
vt 0.041901 0.201111
vn -0.614173 -0.763780 -0.188976
v 0.000000 -832.397755 2000.001831
vt 0.013763 0.229187
vn -0.102362 -0.992126 -0.133858
v -592.196502 -592.196502 2000.001831
vt 0.041901 0.229187
vn -0.771654 -0.622047 -0.141732
v -69.246413 786.027651 1749.993973
vt 0.126312 0.201111
vn -0.102362 0.984252 -0.188976
v -592.196502 592.196502 2000.001831
vt 0.098175 0.229187
vn -0.622047 0.771654 -0.141732
v -606.192805 509.277230 1749.993973
vt 0.098175 0.201111
vn -0.763780 0.614173 -0.188976
v -832.397755 0.000000 2000.001831
vt 0.070038 0.229187
vn -0.992126 0.102362 -0.133858
v -786.027651 -69.246413 1749.993973
vt 0.070038 0.201111
vn -0.984252 -0.102362 -0.188976
v 190.008629 -706.519243 1499.986114
vt 0.238861 0.173035
vn 0.251969 -0.937008 -0.236220
v 633.950178 -366.785460 1499.986114
vt 0.210724 0.173035
vn 0.842520 -0.480315 -0.244094
v 288.012152 -599.106442 1249.978256
vt 0.238861 0.144958
vn 0.409449 -0.881890 -0.251969
v 626.922623 -220.559382 1249.978256
vt 0.210724 0.144958
vn 0.913386 -0.322835 -0.251969
v 330.471524 -505.131267 999.970397
vt 0.238861 0.116852
vn 0.535433 -0.818898 -0.212598
v 590.843918 -123.496788 999.970397
vt 0.210724 0.116852
vn 0.960630 -0.196850 -0.212598
v 352.377502 -427.916370 749.962538
vt 0.238861 0.088776
vn 0.622047 -0.755906 -0.212598
v 552.471702 -53.191831 749.962538
vt 0.210724 0.088776
vn 0.976378 -0.094488 -0.212598
v 342.850607 -356.582273 499.954680
vt 0.238861 0.060699
vn 0.677165 -0.708661 -0.204724
v 496.104240 -9.615107 499.954680
vt 0.210724 0.060699
vn 0.984252 -0.023622 -0.204724
v 327.883972 -307.536406 249.946821
vt 0.238861 0.032623
vn 0.716535 -0.677165 -0.173228
v 451.939436 14.113919 249.946821
vt 0.210724 0.032623
vn 0.992126 0.023622 -0.173228
v 304.037330 -270.046310 0.000000
vt 0.238861 0.004547
vn 0.811024 -0.559055 -0.165354
v 410.009336 23.317370 0.000000
vt 0.210724 0.004547
vn 0.968504 0.181102 -0.165354
v 706.519243 190.008629 1499.986114
vt 0.182587 0.173035
vn 0.937008 0.251969 -0.236220
v 599.106442 288.012152 1249.978256
vt 0.182587 0.144958
vn 0.881890 0.409449 -0.251969
v 505.131267 330.471524 999.970397
vt 0.182587 0.116852
vn 0.818898 0.535433 -0.212598
v 427.916370 352.377502 749.962538
vt 0.182587 0.088776
vn 0.755906 0.622047 -0.212598
v 356.582273 342.850607 499.954680
vt 0.182587 0.060699
vn 0.708661 0.677165 -0.204724
v 307.536406 327.883972 249.946821
vt 0.182587 0.032623
vn 0.677165 0.716535 -0.173228
v 270.046310 304.037330 0.000000
vt 0.182587 0.004547
vn 0.559055 0.811024 -0.165354
v 366.785460 633.950178 1499.986114
vt 0.154449 0.173035
vn 0.480315 0.842520 -0.244094
v 220.559382 626.922623 1249.978256
vt 0.154449 0.144958
vn 0.322835 0.913386 -0.251969
v 123.496788 590.843918 999.970397
vt 0.154449 0.116852
vn 0.196850 0.960630 -0.212598
v 53.191831 552.471702 749.962538
vt 0.154449 0.088776
vn 0.094488 0.976378 -0.212598
v 9.615107 496.104240 499.954680
vt 0.154449 0.060699
vn 0.023622 0.984252 -0.204724
v -14.113919 451.939436 249.946821
vt 0.154449 0.032623
vn -0.023622 0.992126 -0.173228
v -23.317370 410.009336 0.000000
vt 0.154449 0.004547
vn -0.181102 0.968504 -0.165354
v -190.008629 706.519243 1499.986114
vt 0.126312 0.173035
vn -0.251969 0.937008 -0.236220
v -288.012152 599.106442 1249.978256
vt 0.126312 0.144958
vn -0.409449 0.881890 -0.251969
v -330.471524 505.131267 999.970397
vt 0.126312 0.116852
vn -0.535433 0.818898 -0.212598
v -352.377502 427.916370 749.962538
vt 0.126312 0.088776
vn -0.622047 0.755906 -0.212598
v -342.850607 356.582273 499.954680
vt 0.126312 0.060699
vn -0.677165 0.708661 -0.204724
v -327.883972 307.536406 249.946821
vt 0.126312 0.032623
vn -0.716535 0.677165 -0.173228
v -304.037330 270.046310 0.000000
vt 0.126312 0.004547
vn -0.811024 0.559055 -0.165354
v 69.246413 -786.027651 1749.993973
vt 0.013763 0.201111
vn 0.102362 -0.984252 -0.188976
v -366.785460 -633.950178 1499.986114
vt 0.041901 0.173035
vn -0.480315 -0.842520 -0.244094
v 190.008629 -706.519243 1499.986114
vt 0.013763 0.173035
vn 0.251969 -0.937008 -0.236220
v -220.559382 -626.922623 1249.978256
vt 0.041901 0.144958
vn -0.322835 -0.913386 -0.251969
v 288.012152 -599.106442 1249.978256
vt 0.013763 0.144958
vn 0.409449 -0.881890 -0.251969
v -123.496788 -590.843918 999.970397
vt 0.041901 0.116852
vn -0.196850 -0.960630 -0.212598
v 330.471524 -505.131267 999.970397
vt 0.013763 0.116852
vn 0.535433 -0.818898 -0.212598
v -53.191831 -552.471702 749.962538
vt 0.041901 0.088776
vn -0.094488 -0.976378 -0.212598
v 352.377502 -427.916370 749.962538
vt 0.013763 0.088776
vn 0.622047 -0.755906 -0.212598
v -9.615107 -496.104240 499.954680
vt 0.041901 0.060699
vn -0.023622 -0.984252 -0.204724
v 342.850607 -356.582273 499.954680
vt 0.013763 0.060699
vn 0.677165 -0.708661 -0.204724
v 14.113919 -451.939436 249.946821
vt 0.041901 0.032623
vn 0.023622 -0.992126 -0.173228
v 327.883972 -307.536406 249.946821
vt 0.013763 0.032623
vn 0.716535 -0.677165 -0.173228
v 23.317370 -410.009336 0.000000
vt 0.041901 0.004547
vn 0.181102 -0.968504 -0.165354
v 304.037330 -270.046310 0.000000
vt 0.013763 0.004547
vn 0.811024 -0.559055 -0.165354
v -633.950178 366.785460 1499.986114
vt 0.098175 0.173035
vn -0.842520 0.480315 -0.244094
v -626.922623 220.559382 1249.978256
vt 0.098175 0.144958
vn -0.913386 0.322835 -0.251969
v -590.843918 123.496788 999.970397
vt 0.098175 0.116852
vn -0.960630 0.196850 -0.212598
v -552.471702 53.191831 749.962538
vt 0.098175 0.088776
vn -0.976378 0.094488 -0.212598
v -496.104240 9.615107 499.954680
vt 0.098175 0.060699
vn -0.984252 0.023622 -0.204724
v -451.939436 -14.113919 249.946821
vt 0.098175 0.032623
vn -0.992126 -0.023622 -0.173228
v -410.009336 -23.317370 0.000000
vt 0.098175 0.004547
vn -0.968504 -0.181102 -0.165354
v -706.519243 -190.008629 1499.986114
vt 0.070038 0.173035
vn -0.937008 -0.251969 -0.236220
v -599.106442 -288.012152 1249.978256
vt 0.070038 0.144958
vn -0.881890 -0.409449 -0.251969
v -505.131267 -330.471524 999.970397
vt 0.070038 0.116852
vn -0.818898 -0.535433 -0.212598
v -427.916370 -352.377502 749.962538
vt 0.070038 0.088776
vn -0.755906 -0.622047 -0.212598
v -356.582273 -342.850607 499.954680
vt 0.070038 0.060699
vn -0.708661 -0.677165 -0.204724
v -307.536406 -327.883972 249.946821
vt 0.070038 0.032623
vn -0.677165 -0.716535 -0.173228
v -270.046310 -304.037330 0.000000
vt 0.070038 0.004547
vn -0.559055 -0.811024 -0.165354
v -402.423105 189.861609 0.000000
vt 0.210724 0.405518
vn -0.826772 0.535433 -0.181102
v -415.066823 -147.872702 0.000000
vt 0.238861 0.405518
vn -0.960630 -0.212598 -0.181102
v -448.293340 197.624265 249.946821
vt 0.210724 0.479126
vn -0.905512 0.393701 -0.188976
v -454.232948 -175.865307 249.946821
vt 0.238861 0.479126
vn -0.921260 -0.354331 -0.188976
v -502.308483 191.714061 499.954680
vt 0.210724 0.552734
vn -0.913386 0.338583 -0.220472
v -489.164896 -219.059779 499.954680
vt 0.238861 0.552734
vn -0.889764 -0.401575 -0.220472
v -576.877020 170.866627 750.328761
vt 0.210724 0.626343
vn -0.937008 0.267717 -0.236220
v -527.948768 -286.983012 750.328761
vt 0.238861 0.626343
vn -0.858268 -0.464567 -0.236220
v -646.005817 116.145789 1002.594991
vt 0.210724 0.699951
vn -0.960630 0.165354 -0.244094
v -538.945863 -374.665731 1002.594991
vt 0.238861 0.699951
vn -0.795276 -0.551181 -0.244094
v -729.130917 33.285325 1257.424779
vt 0.210724 0.773560
vn -0.952756 0.031496 -0.314961
v -539.769175 -491.576024 1257.424779
vt 0.238861 0.773560
vn -0.692913 -0.645669 -0.314961
v -817.930988 -115.704729 1510.301380
vt 0.210724 0.847168
vn -0.921260 -0.118110 -0.377953
v -497.221591 -658.590728 1510.301380
vt 0.238861 0.847168
vn -0.559055 -0.740157 -0.377953
v -890.970517 -290.099836 1757.135310
vt 0.210724 0.920776
vn -0.881890 -0.259843 -0.393701
v -424.446699 -831.750867 1757.135310
vt 0.238861 0.920776
vn -0.433071 -0.818898 -0.385827
v -963.186734 -408.833176 2000.001831
vt 0.210724 0.994385
vn -0.818898 -0.448819 -0.370079
v -389.279518 -963.510178 2000.001831
vt 0.238861 0.994385
vn -0.259843 -0.897638 -0.362205
v -147.872702 415.066823 0.000000
vt 0.182587 0.405518
vn -0.212598 0.960630 -0.181102
v -175.865307 454.232948 249.946821
vt 0.182587 0.479126
vn -0.354331 0.921260 -0.188976
v -219.059779 489.164896 499.954680
vt 0.182587 0.552734
vn -0.401575 0.889764 -0.220472
v -286.983012 527.948768 750.328761
vt 0.182587 0.626343
vn -0.464567 0.858268 -0.236220
v -374.665731 538.945863 1002.594991
vt 0.182587 0.699951
vn -0.551181 0.795276 -0.244094
v -491.576024 539.769175 1257.424779
vt 0.182587 0.773560
vn -0.645669 0.692913 -0.314961
v -658.590728 497.221591 1510.301380
vt 0.182587 0.847168
vn -0.740157 0.559055 -0.377953
v -831.750867 424.446699 1757.135310
vt 0.182587 0.920776
vn -0.818898 0.433071 -0.385827
v -963.510178 389.279518 2000.001831
vt 0.182587 0.994385
vn -0.897638 0.259843 -0.362205
v 189.861609 402.423105 0.000000
vt 0.154449 0.405518
vn 0.535433 0.826772 -0.181102
v 197.624265 448.293340 249.946821
vt 0.154449 0.479126
vn 0.393701 0.905512 -0.188976
v 191.714061 502.308483 499.954680
vt 0.154449 0.552734
vn 0.338583 0.913386 -0.220472
v 170.866627 576.877020 750.328761
vt 0.154449 0.626343
vn 0.267717 0.937008 -0.236220
v 116.145789 646.005817 1002.594991
vt 0.154449 0.699951
vn 0.165354 0.960630 -0.244094
v 33.285325 729.130917 1257.424779
vt 0.154449 0.773560
vn 0.031496 0.952756 -0.314961
v -115.704729 817.930988 1510.301380
vt 0.154449 0.847168
vn -0.118110 0.921260 -0.377953
v -290.099836 890.970517 1757.135310
vt 0.154449 0.920776
vn -0.259843 0.881890 -0.393701
v -408.833176 963.186734 2000.001831
vt 0.154449 0.994385
vn -0.448819 0.818898 -0.370079
v 415.066823 147.872702 0.000000
vt 0.126312 0.405518
vn 0.960630 0.212598 -0.181102
v 454.232948 175.865307 249.946821
vt 0.126312 0.479126
vn 0.921260 0.354331 -0.188976
v 489.164896 219.059779 499.954680
vt 0.126312 0.552734
vn 0.889764 0.401575 -0.220472
v 527.948768 286.983012 750.328761
vt 0.126312 0.626343
vn 0.858268 0.464567 -0.236220
v 538.945863 374.665731 1002.594991
vt 0.126312 0.699951
vn 0.795276 0.551181 -0.244094
v 539.769175 491.576024 1257.424779
vt 0.126312 0.773560
vn 0.692913 0.645669 -0.314961
v 497.221591 658.590728 1510.301380
vt 0.126312 0.847168
vn 0.559055 0.740157 -0.377953
v 424.446699 831.750867 1757.135310
vt 0.126312 0.920776
vn 0.433071 0.818898 -0.385827
v 389.279518 963.480774 2000.001831
vt 0.126312 0.994385
vn 0.259843 0.897638 -0.362205
v -415.066823 -147.872702 0.000000
vt 0.013763 0.405518
vn -0.960630 -0.212598 -0.181102
v -189.861609 -402.423105 0.000000
vt 0.041901 0.405518
vn -0.535433 -0.826772 -0.181102
v -454.232948 -175.865307 249.946821
vt 0.013763 0.479126
vn -0.921260 -0.354331 -0.188976
v -197.624265 -448.293340 249.946821
vt 0.041901 0.479126
vn -0.393701 -0.905512 -0.188976
v -489.164896 -219.059779 499.954680
vt 0.013763 0.552734
vn -0.889764 -0.401575 -0.220472
v -191.714061 -502.308483 499.954680
vt 0.041901 0.552734
vn -0.338583 -0.913386 -0.220472
v -527.948768 -286.983012 750.328761
vt 0.013763 0.626343
vn -0.858268 -0.464567 -0.236220
v -170.866627 -576.877020 750.328761
vt 0.041901 0.626343
vn -0.267717 -0.937008 -0.236220
v -538.945863 -374.665731 1002.594991
vt 0.013763 0.699951
vn -0.795276 -0.551181 -0.244094
v -116.145789 -646.005817 1002.594991
vt 0.041901 0.699951
vn -0.165354 -0.960630 -0.244094
v -539.769175 -491.576024 1257.424779
vt 0.013763 0.773560
vn -0.692913 -0.645669 -0.314961
v -33.285325 -729.130917 1257.424779
vt 0.041901 0.773560
vn -0.031496 -0.952756 -0.314961
v -497.221591 -658.590728 1510.301380
vt 0.013763 0.847168
vn -0.559055 -0.740157 -0.377953
v 115.704729 -817.930988 1510.301380
vt 0.041901 0.847168
vn 0.118110 -0.921260 -0.377953
v -424.446699 -831.750867 1757.135310
vt 0.013763 0.920776
vn -0.433071 -0.818898 -0.385827
v 290.099836 -890.970517 1757.135310
vt 0.041901 0.920776
vn 0.259843 -0.881890 -0.393701
v -389.279518 -963.510178 2000.001831
vt 0.013763 0.994385
vn -0.259843 -0.897638 -0.362205
v 408.833176 -963.186734 2000.001831
vt 0.041901 0.994385
vn 0.448819 -0.818898 -0.370079
v 402.423105 -189.861609 0.000000
vt 0.098175 0.405518
vn 0.826772 -0.535433 -0.181102
v 448.293340 -197.624265 249.946821
vt 0.098175 0.479126
vn 0.905512 -0.393701 -0.188976
v 502.308483 -191.714061 499.954680
vt 0.098175 0.552734
vn 0.913386 -0.338583 -0.220472
v 576.877020 -170.866627 750.328761
vt 0.098175 0.626343
vn 0.937008 -0.267717 -0.236220
v 646.005817 -116.145789 1002.594991
vt 0.098175 0.699951
vn 0.960630 -0.165354 -0.244094
v 729.130917 -33.285325 1257.424779
vt 0.098175 0.773560
vn 0.952756 -0.031496 -0.314961
v 817.930988 115.704729 1510.301380
vt 0.098175 0.847168
vn 0.921260 0.118110 -0.377953
v 890.970517 290.099836 1757.135310
vt 0.098175 0.920776
vn 0.881890 0.259843 -0.393701
v 963.186734 408.833176 2000.001831
vt 0.098175 0.994385
vn 0.818898 0.448819 -0.370079
v 147.872702 -415.066823 0.000000
vt 0.070038 0.405518
vn 0.212598 -0.960630 -0.181102
v 175.865307 -454.232948 249.946821
vt 0.070038 0.479126
vn 0.354331 -0.921260 -0.188976
v 219.059779 -489.164896 499.954680
vt 0.070038 0.552734
vn 0.401575 -0.889764 -0.220472
v 286.983012 -527.948768 750.328761
vt 0.070038 0.626343
vn 0.464567 -0.858268 -0.236220
v 374.665731 -538.945863 1002.594991
vt 0.070038 0.699951
vn 0.551181 -0.795276 -0.244094
v 491.576024 -539.769175 1257.424779
vt 0.070038 0.773560
vn 0.645669 -0.692913 -0.314961
v 658.590728 -497.221591 1510.301380
vt 0.070038 0.847168
vn 0.740157 -0.559055 -0.377953
v 831.750867 -424.446699 1757.135310
vt 0.070038 0.920776
vn 0.818898 -0.433071 -0.385827
v 963.480774 -389.279518 2000.001831
vt 0.070038 0.994385
vn 0.897638 -0.259843 -0.362205
f 1/1/1 2/2/2 3/3/3
f 4/4/4 5/5/5 2/2/2
f 6/6/6 7/7/7 5/5/5
f 8/8/8 9/9/9 7/7/7
f 10/10/10 11/11/11 12/12/12
f 13/13/13 14/14/14 9/9/9
f 15/15/15 16/16/16 14/14/14
f 17/17/17 12/12/12 16/16/16
f 2/2/2 1/1/1 4/4/4
f 4/4/4 1/1/1 18/18/18
f 4/4/4 18/18/18 19/19/19
f 19/19/19 18/18/18 20/20/20
f 19/19/19 20/20/20 21/21/21
f 21/21/21 20/20/20 22/22/22
f 21/21/21 22/22/22 23/23/23
f 23/23/23 22/22/22 24/24/24
f 23/23/23 24/24/24 25/25/25
f 25/25/25 24/24/24 26/26/26
f 25/25/25 26/26/26 27/27/27
f 27/27/27 26/26/26 28/28/28
f 27/27/27 28/28/28 29/29/29
f 29/29/29 28/28/28 30/30/30
f 29/29/29 30/30/30 31/31/31
f 5/5/5 4/4/4 6/6/6
f 6/6/6 4/4/4 19/19/19
f 6/6/6 19/19/19 32/32/32
f 32/32/32 19/19/19 21/21/21
f 32/32/32 21/21/21 33/33/33
f 33/33/33 21/21/21 23/23/23
f 33/33/33 23/23/23 34/34/34
f 34/34/34 23/23/23 25/25/25
f 34/34/34 25/25/25 35/35/35
f 35/35/35 25/25/25 27/27/27
f 35/35/35 27/27/27 36/36/36
f 36/36/36 27/27/27 29/29/29
f 36/36/36 29/29/29 37/37/37
f 37/37/37 29/29/29 31/31/31
f 37/37/37 31/31/31 38/38/38
f 7/7/7 6/6/6 8/8/8
f 8/8/8 6/6/6 32/32/32
f 8/8/8 32/32/32 39/39/39
f 39/39/39 32/32/32 33/33/33
f 39/39/39 33/33/33 40/40/40
f 40/40/40 33/33/33 34/34/34
f 40/40/40 34/34/34 41/41/41
f 41/41/41 34/34/34 35/35/35
f 41/41/41 35/35/35 42/42/42
f 42/42/42 35/35/35 36/36/36
f 42/42/42 36/36/36 43/43/43
f 43/43/43 36/36/36 37/37/37
f 43/43/43 37/37/37 44/44/44
f 44/44/44 37/37/37 38/38/38
f 44/44/44 38/38/38 45/45/45
f 9/9/9 8/8/8 13/13/13
f 13/13/13 8/8/8 39/39/39
f 13/13/13 39/39/39 46/46/46
f 46/46/46 39/39/39 40/40/40
f 46/46/46 40/40/40 47/47/47
f 47/47/47 40/40/40 41/41/41
f 47/47/47 41/41/41 48/48/48
f 48/48/48 41/41/41 42/42/42
f 48/48/48 42/42/42 49/49/49
f 49/49/49 42/42/42 43/43/43
f 49/49/49 43/43/43 50/50/50
f 50/50/50 43/43/43 44/44/44
f 50/50/50 44/44/44 51/51/51
f 51/51/51 44/44/44 45/45/45
f 51/51/51 45/45/45 52/52/52
f 11/11/11 10/10/10 53/53/53
f 53/53/53 10/10/10 54/54/54
f 53/53/53 54/54/54 55/55/55
f 55/55/55 54/54/54 56/56/56
f 55/55/55 56/56/56 57/57/57
f 57/57/57 56/56/56 58/58/58
f 57/57/57 58/58/58 59/59/59
f 59/59/59 58/58/58 60/60/60
f 59/59/59 60/60/60 61/61/61
f 61/61/61 60/60/60 62/62/62
f 61/61/61 62/62/62 63/63/63
f 63/63/63 62/62/62 64/64/64
f 63/63/63 64/64/64 65/65/65
f 65/65/65 64/64/64 66/66/66
f 65/65/65 66/66/66 67/67/67
f 14/14/14 13/13/13 15/15/15
f 15/15/15 13/13/13 46/46/46
f 15/15/15 46/46/46 68/68/68
f 68/68/68 46/46/46 47/47/47
f 68/68/68 47/47/47 69/69/69
f 69/69/69 47/47/47 48/48/48
f 69/69/69 48/48/48 70/70/70
f 70/70/70 48/48/48 49/49/49
f 70/70/70 49/49/49 71/71/71
f 71/71/71 49/49/49 50/50/50
f 71/71/71 50/50/50 72/72/72
f 72/72/72 50/50/50 51/51/51
f 72/72/72 51/51/51 73/73/73
f 73/73/73 51/51/51 52/52/52
f 73/73/73 52/52/52 74/74/74
f 16/16/16 15/15/15 17/17/17
f 17/17/17 15/15/15 68/68/68
f 17/17/17 68/68/68 75/75/75
f 75/75/75 68/68/68 69/69/69
f 75/75/75 69/69/69 76/76/76
f 76/76/76 69/69/69 70/70/70
f 76/76/76 70/70/70 77/77/77
f 77/77/77 70/70/70 71/71/71
f 77/77/77 71/71/71 78/78/78
f 78/78/78 71/71/71 72/72/72
f 78/78/78 72/72/72 79/79/79
f 79/79/79 72/72/72 73/73/73
f 79/79/79 73/73/73 80/80/80
f 80/80/80 73/73/73 74/74/74
f 80/80/80 74/74/74 81/81/81
f 12/12/12 17/17/17 10/10/10
f 10/10/10 17/17/17 75/75/75
f 10/10/10 75/75/75 54/54/54
f 54/54/54 75/75/75 76/76/76
f 54/54/54 76/76/76 56/56/56
f 56/56/56 76/76/76 77/77/77
f 56/56/56 77/77/77 58/58/58
f 58/58/58 77/77/77 78/78/78
f 58/58/58 78/78/78 60/60/60
f 60/60/60 78/78/78 79/79/79
f 60/60/60 79/79/79 62/62/62
f 62/62/62 79/79/79 80/80/80
f 62/62/62 80/80/80 64/64/64
f 64/64/64 80/80/80 81/81/81
f 64/64/64 81/81/81 66/66/66
f 82/82/82 83/83/83 84/84/84
f 84/84/84 83/83/83 85/85/85
f 84/84/84 85/85/85 86/86/86
f 86/86/86 85/85/85 87/87/87
f 86/86/86 87/87/87 88/88/88
f 88/88/88 87/87/87 89/89/89
f 88/88/88 89/89/89 90/90/90
f 90/90/90 89/89/89 91/91/91
f 90/90/90 91/91/91 92/92/92
f 92/92/92 91/91/91 93/93/93
f 92/92/92 93/93/93 94/94/94
f 94/94/94 93/93/93 95/95/95
f 94/94/94 95/95/95 96/96/96
f 96/96/96 95/95/95 97/97/97
f 96/96/96 97/97/97 98/98/98
f 98/98/98 97/97/97 99/99/99
f 100/100/100 82/82/82 101/101/101
f 101/101/101 82/82/82 84/84/84
f 101/101/101 84/84/84 102/102/102
f 102/102/102 84/84/84 86/86/86
f 102/102/102 86/86/86 103/103/103
f 103/103/103 86/86/86 88/88/88
f 103/103/103 88/88/88 104/104/104
f 104/104/104 88/88/88 90/90/90
f 104/104/104 90/90/90 105/105/105
f 105/105/105 90/90/90 92/92/92
f 105/105/105 92/92/92 106/106/106
f 106/106/106 92/92/92 94/94/94
f 106/106/106 94/94/94 107/107/107
f 107/107/107 94/94/94 96/96/96
f 107/107/107 96/96/96 108/108/108
f 108/108/108 96/96/96 98/98/98
f 109/109/109 100/100/100 110/110/110
f 110/110/110 100/100/100 101/101/101
f 110/110/110 101/101/101 111/111/111
f 111/111/111 101/101/101 102/102/102
f 111/111/111 102/102/102 112/112/112
f 112/112/112 102/102/102 103/103/103
f 112/112/112 103/103/103 113/113/113
f 113/113/113 103/103/103 104/104/104
f 113/113/113 104/104/104 114/114/114
f 114/114/114 104/104/104 105/105/105
f 114/114/114 105/105/105 115/115/115
f 115/115/115 105/105/105 106/106/106
f 115/115/115 106/106/106 116/116/116
f 116/116/116 106/106/106 107/107/107
f 116/116/116 107/107/107 117/117/117
f 117/117/117 107/107/107 108/108/108
f 118/118/118 109/109/109 119/119/119
f 119/119/119 109/109/109 110/110/110
f 119/119/119 110/110/110 120/120/120
f 120/120/120 110/110/110 111/111/111
f 120/120/120 111/111/111 121/121/121
f 121/121/121 111/111/111 112/112/112
f 121/121/121 112/112/112 122/122/122
f 122/122/122 112/112/112 113/113/113
f 122/122/122 113/113/113 123/123/123
f 123/123/123 113/113/113 114/114/114
f 123/123/123 114/114/114 124/124/124
f 124/124/124 114/114/114 115/115/115
f 124/124/124 115/115/115 125/125/125
f 125/125/125 115/115/115 116/116/116
f 125/125/125 116/116/116 126/126/126
f 126/126/126 116/116/116 117/117/117
f 127/127/127 128/128/128 129/129/129
f 129/129/129 128/128/128 130/130/130
f 129/129/129 130/130/130 131/131/131
f 131/131/131 130/130/130 132/132/132
f 131/131/131 132/132/132 133/133/133
f 133/133/133 132/132/132 134/134/134
f 133/133/133 134/134/134 135/135/135
f 135/135/135 134/134/134 136/136/136
f 135/135/135 136/136/136 137/137/137
f 137/137/137 136/136/136 138/138/138
f 137/137/137 138/138/138 139/139/139
f 139/139/139 138/138/138 140/140/140
f 139/139/139 140/140/140 141/141/141
f 141/141/141 140/140/140 142/142/142
f 141/141/141 142/142/142 143/143/143
f 143/143/143 142/142/142 144/144/144
f 145/145/145 118/118/118 146/146/146
f 146/146/146 118/118/118 119/119/119
f 146/146/146 119/119/119 147/147/147
f 147/147/147 119/119/119 120/120/120
f 147/147/147 120/120/120 148/148/148
f 148/148/148 120/120/120 121/121/121
f 148/148/148 121/121/121 149/149/149
f 149/149/149 121/121/121 122/122/122
f 149/149/149 122/122/122 150/150/150
f 150/150/150 122/122/122 123/123/123
f 150/150/150 123/123/123 151/151/151
f 151/151/151 123/123/123 124/124/124
f 151/151/151 124/124/124 152/152/152
f 152/152/152 124/124/124 125/125/125
f 152/152/152 125/125/125 153/153/153
f 153/153/153 125/125/125 126/126/126
f 154/154/154 145/145/145 155/155/155
f 155/155/155 145/145/145 146/146/146
f 155/155/155 146/146/146 156/156/156
f 156/156/156 146/146/146 147/147/147
f 156/156/156 147/147/147 157/157/157
f 157/157/157 147/147/147 148/148/148
f 157/157/157 148/148/148 158/158/158
f 158/158/158 148/148/148 149/149/149
f 158/158/158 149/149/149 159/159/159
f 159/159/159 149/149/149 150/150/150
f 159/159/159 150/150/150 160/160/160
f 160/160/160 150/150/150 151/151/151
f 160/160/160 151/151/151 161/161/161
f 161/161/161 151/151/151 152/152/152
f 161/161/161 152/152/152 162/162/162
f 162/162/162 152/152/152 153/153/153
f 128/128/128 154/154/154 130/130/130
f 130/130/130 154/154/154 155/155/155
f 130/130/130 155/155/155 132/132/132
f 132/132/132 155/155/155 156/156/156
f 132/132/132 156/156/156 134/134/134
f 134/134/134 156/156/156 157/157/157
f 134/134/134 157/157/157 136/136/136
f 136/136/136 157/157/157 158/158/158
f 136/136/136 158/158/158 138/138/138
f 138/138/138 158/158/158 159/159/159
f 138/138/138 159/159/159 140/140/140
f 140/140/140 159/159/159 160/160/160
f 140/140/140 160/160/160 142/142/142
f 142/142/142 160/160/160 161/161/161
f 142/142/142 161/161/161 144/144/144
f 144/144/144 161/161/161 162/162/162
g mesh01
g mesh02
