mtllib 3862-0.mtl
g mesh00
usemtl texture00
v 3.571253 -0.111724 -82.068344
vt 0.642059 0.062531
vn 1.000000 0.000000 -0.102362
v -0.030932 -7.387622 -44.170613
vt 0.467102 0.004639
vn 0.000000 -1.000000 0.055118
v -0.030932 -3.715385 -82.068344
vt 0.642059 0.004639
vn 0.000000 -1.000000 -0.102362
v 7.243739 -0.111724 -44.170613
vt 0.467102 0.062531
vn 0.992126 0.000000 0.141732
v -0.030932 -0.111724 -25.493349
vt 0.420258 0.060303
vn 0.000000 0.000000 1.000000
v 3.571253 -0.111724 -82.068344
vt 0.400909 0.391876
vn 1.000000 0.000000 -0.102362
v -0.030932 1.501718 -99.755937
vt 0.441345 0.159576
vn 0.000000 0.960630 -0.291339
v -0.030932 3.490397 -82.068344
vt 0.400909 0.159576
vn 0.000000 1.000000 -0.102362
v -1.645026 -0.111724 -99.755937
vt 0.441345 0.391876
vn -0.960630 0.000000 -0.291339
v -3.633118 -0.111724 -82.068344
vt 0.400909 0.391876
vn -1.000000 0.000000 -0.102362
v -0.030932 -0.111724 -102.925863
vt 0.413391 0.391296
vn 0.000000 0.000000 -1.007874
v 1.583162 -0.111724 -99.755937
vt 0.441345 0.391876
vn 0.960630 0.000000 -0.291339
v -0.030932 -1.725936 -99.755937
vt 0.451935 0.164124
vn 0.000000 -0.960630 -0.291339
v -0.030932 -3.715385 -82.068344
vt 0.400909 0.164124
vn 0.000000 -1.000000 -0.102362
v -0.030932 3.490397 -82.068344
vt 0.642059 0.116760
vn 0.000000 1.000000 -0.102362
v -0.030932 7.163404 -44.170613
vt 0.467102 0.116760
vn 0.000000 1.000000 0.055118
v -3.633118 -0.111724 -82.068344
vt 0.642059 0.062531
vn -1.000000 0.000000 -0.102362
v -7.305604 -0.111724 -44.170613
vt 0.467102 0.062531
vn -0.992126 0.000000 0.141732
v -0.030932 4.038998 -35.881182
vt 0.162994 0.107880
vn 0.000000 1.000000 0.015748
v -0.030932 -0.111724 221.143270
vt 0.991974 0.060913
vn 0.000000 0.000000 1.000000
v 4.119596 -0.111724 -35.881182
vt 0.162994 0.062714
vn 1.000000 0.000000 0.015748
v -4.181460 -0.111724 -35.881182
vt 0.162994 0.062714
vn -1.000000 0.000000 0.015748
v -0.030932 -4.263216 -35.881182
vt 0.162994 0.010315
vn 0.000000 -1.000000 0.015748
f 1/1/1 2/2/2 3/3/3
f 2/2/2 4/4/4 5/5/5
f 6/6/6 7/7/7 8/8/8
f 8/8/8 7/7/7 9/9/9
f 8/8/8 9/9/9 10/10/10
f 11/11/11 12/12/12 13/13/13
f 13/13/13 12/12/12 14/14/14
f 1/1/1 15/15/15 16/16/16
f 16/16/16 15/15/15 17/17/17
f 16/16/16 17/17/17 18/18/18
f 19/19/19 20/20/20 21/21/21
f 19/19/19 22/22/22 20/20/20
f 20/20/20 22/22/22 23/23/23
f 20/20/20 23/23/23 21/21/21
f 14/14/14 10/10/10 13/13/13
f 13/13/13 10/10/10 9/9/9
f 13/13/13 9/9/9 11/11/11
f 11/11/11 9/9/9 7/7/7
f 11/11/11 7/7/7 12/12/12
f 12/12/12 7/7/7 6/6/6
f 12/12/12 6/6/6 14/14/14
f 2/2/2 1/1/1 4/4/4
f 4/4/4 1/1/1 16/16/16
f 4/4/4 16/16/16 5/5/5
f 5/5/5 16/16/16 18/18/18
f 5/5/5 18/18/18 2/2/2
f 2/2/2 18/18/18 17/17/17
f 2/2/2 17/17/17 3/3/3
usemtl texture00
v -0.111074 12.519970 41.990359
vt 0.317932 0.773468
vn 0.000000 0.598425 0.803150
v -8.956254 8.856208 41.990359
vt 0.403900 0.773468
vn -0.425197 0.425197 0.803150
v -0.111074 0.010787 41.990359
vt 0.358307 0.711670
vn 0.000000 0.000000 1.000000
v -0.111074 -12.496854 41.990359
vt 0.317932 0.773468
vn 0.000000 -0.598425 0.803150
v 8.732699 -8.833093 41.990359
vt 0.232758 0.773468
vn 0.425197 -0.425197 0.803150
v -0.111074 0.010787 41.990359
vt 0.272369 0.711670
vn 0.000000 0.000000 1.000000
v -8.956254 -8.833093 41.990359
vt 0.403900 0.773468
vn -0.425197 -0.425197 0.803150
v -0.111074 0.010787 41.990359
vt 0.446594 0.711670
vn 0.000000 0.000000 1.000000
v -12.620304 0.010787 41.990359
vt 0.492554 0.773468
vn -0.598425 0.000000 0.803150
v 8.732699 8.856208 41.990359
vt 0.232758 0.773468
vn 0.425197 0.425197 0.803150
v -0.111074 0.010787 41.990359
vt 0.194763 0.711670
vn 0.000000 0.000000 1.000000
v 12.395343 0.010787 41.990359
vt 0.148163 0.773468
vn 0.598425 0.000000 0.803150
v 25.123909 0.010787 -7.902492
vt 0.661377 0.008240
vn 0.338583 0.000000 -0.944882
v 17.732539 -17.833387 -7.902492
vt 0.661377 0.074432
vn 0.236220 -0.236220 -0.944882
v -0.111074 0.010787 18.684705
vt 0.875641 0.008240
vn 0.000000 0.000000 -1.007874
v -0.111074 -25.224861 -7.902492
vt 0.661377 0.008240
vn 0.000000 -0.338583 -0.944882
v -0.111074 17.841092 33.291665
vt 0.178253 0.414368
vn 0.000000 0.818898 0.574803
v -0.111074 0.010787 41.990359
vt 0.042267 0.414368
vn 0.000000 0.000000 1.000000
v 12.495169 12.618595 33.291665
vt 0.178253 0.562042
vn 0.582677 0.582677 0.574803
v 17.717073 0.010787 33.291665
vt 0.178253 0.707977
vn 0.818898 0.000000 0.574803
v -17.956094 17.855731 -7.902492
vt 0.661377 0.074432
vn -0.236220 0.236220 -0.944882
v -0.111074 25.247206 -7.902492
vt 0.661377 0.008240
vn 0.000000 0.338583 -0.944882
v 17.732539 17.855731 -7.902492
vt 0.661377 0.074432
vn 0.236220 0.236220 -0.944882
v -12.720130 12.618595 33.291665
vt 0.178253 0.273499
vn -0.582677 0.582677 0.574803
v -17.942034 0.010787 33.291665
vt 0.178253 0.134796
vn -0.818898 0.000000 0.574803
v -12.720130 -12.596250 33.291665
vt 0.178253 0.273499
vn -0.582677 -0.582677 0.574803
v -17.956094 -17.833387 -7.902492
vt 0.661377 0.074432
vn -0.236220 -0.236220 -0.944882
v -25.348870 0.010787 -7.902492
vt 0.661377 0.008240
vn -0.338583 0.000000 -0.944882
v -0.111074 -17.818747 33.291665
vt 0.178253 0.414368
vn 0.000000 -0.818898 0.574803
v 12.495169 -12.596250 33.291665
vt 0.178253 0.562042
vn 0.582677 -0.582677 0.574803
v 16.623201 4.262445 26.579756
vt 0.503754 0.848572
vn 0.929134 0.377953 0.055118
v 14.727906 8.839257 26.579756
vt 0.622650 0.848572
vn 0.929134 0.377953 0.055118
v 16.363090 4.197723 31.349527
vt 0.503754 0.721191
vn 0.929134 0.377953 0.055118
v 14.497321 8.700566 31.349527
vt 0.622650 0.721191
vn 0.929134 0.377953 0.055118
v 8.839555 15.108873 26.594638
vt 0.503754 0.848572
vn 0.377953 0.929134 0.055118
v 4.232076 17.017420 26.594638
vt 0.622650 0.848572
vn 0.377953 0.929134 0.055118
v 8.701767 14.879262 31.364409
vt 0.503754 0.721191
vn 0.377953 0.929134 0.055118
v 4.167400 16.756988 31.364409
vt 0.622650 0.721191
vn 0.377953 0.929134 0.055118
v -4.466879 16.953467 26.594638
vt 0.503754 0.848572
vn -0.377953 0.929134 0.055118
v -9.012494 15.070348 26.594638
vt 0.622650 0.848572
vn -0.377953 0.929134 0.055118
v -4.402203 16.692266 31.364409
vt 0.503754 0.721191
vn -0.377953 0.929134 0.055118
v -8.873299 14.839967 31.364409
vt 0.622650 0.721191
vn -0.377953 0.929134 0.055118
v -15.063941 8.830782 26.587197
vt 0.503754 0.848572
vn -0.929134 0.377953 0.055118
v -16.921274 4.347201 26.587197
vt 0.622650 0.848572
vn -0.929134 0.377953 0.055118
v -14.833356 8.692861 31.356968
vt 0.503754 0.721191
vn -0.929134 0.377953 0.055118
v -16.659757 4.281708 31.356968
vt 0.622650 0.721191
vn -0.929134 0.377953 0.055118
v -20.575482 11.059088 -1.852844
vt 0.503754 0.848572
vn -0.905512 0.370079 0.220472
v -22.394852 6.668739 -1.852844
vt 0.622650 0.848572
vn -0.905512 0.370079 0.220472
v -19.591278 10.609112 2.797869
vt 0.503754 0.721191
vn -0.905512 0.370079 0.220472
v -21.379717 6.290420 2.797869
vt 0.622650 0.721191
vn -0.905512 0.370079 0.220472
v -6.705239 22.312344 -1.860285
vt 0.503754 0.848572
vn -0.370079 0.905512 0.212598
v -11.219922 20.441553 -1.860285
vt 0.622650 0.848572
vn -0.370079 0.905512 0.212598
v -6.355144 21.364621 2.805310
vt 0.503754 0.721191
vn -0.370079 0.905512 0.212598
v -10.796715 19.524650 2.805310
vt 0.622650 0.721191
vn -0.370079 0.905512 0.212598
v 10.971059 20.385306 -1.867726
vt 0.503754 0.848572
vn 0.377953 0.905512 0.196850
v 6.456376 22.255327 -1.867726
vt 0.622650 0.848572
vn 0.377953 0.905512 0.196850
v 10.575972 19.536207 2.812751
vt 0.503754 0.721191
vn 0.377953 0.905512 0.196850
v 6.134401 21.376178 2.812751
vt 0.622650 0.721191
vn 0.377953 0.905512 0.196850
v 22.243004 6.608639 -1.837962
vt 0.503754 0.848572
vn 0.897638 0.370079 0.251969
v 20.360363 11.154631 -1.837962
vt 0.622650 0.848572
vn 0.897638 0.370079 0.251969
v 21.092892 6.175614 2.775546
vt 0.503754 0.721191
vn 0.897638 0.370079 0.251969
v 19.241183 10.647637 2.775546
vt 0.622650 0.721191
vn 0.897638 0.370079 0.251969
v 16.363090 -4.175378 31.349527
vt 0.503754 0.721191
vn 0.929134 -0.377953 0.055118
v 14.497321 -8.678221 31.349527
vt 0.622650 0.721191
vn 0.929134 -0.377953 0.055118
v 16.623201 -4.239330 26.579756
vt 0.503754 0.848572
vn 0.929134 -0.377953 0.055118
v 14.727906 -8.816913 26.579756
vt 0.622650 0.848572
vn 0.929134 -0.377953 0.055118
v 8.701767 -14.856147 31.364409
vt 0.503754 0.721191
vn 0.377953 -0.929134 0.055118
v 4.167400 -16.733873 31.364409
vt 0.622650 0.721191
vn 0.377953 -0.929134 0.055118
v 8.839555 -15.086529 26.594638
vt 0.503754 0.848572
vn 0.377953 -0.929134 0.055118
v 4.232076 -16.995075 26.594638
vt 0.622650 0.848572
vn 0.377953 -0.929134 0.055118
v -4.402203 -16.669921 31.364409
vt 0.503754 0.721191
vn -0.377953 -0.929134 0.055118
v -8.873299 -14.817622 31.364409
vt 0.622650 0.721191
vn -0.377953 -0.929134 0.055118
v -4.466879 -16.930352 26.594638
vt 0.503754 0.848572
vn -0.377953 -0.929134 0.055118
v -9.012494 -15.047233 26.594638
vt 0.622650 0.848572
vn -0.377953 -0.929134 0.055118
v -14.833356 -8.669746 31.356968
vt 0.503754 0.721191
vn -0.929134 -0.377953 0.055118
v -16.659757 -4.258593 31.356968
vt 0.622650 0.721191
vn -0.929134 -0.377953 0.055118
v -15.063941 -8.808437 26.587197
vt 0.503754 0.848572
vn -0.929134 -0.377953 0.055118
v -16.921274 -4.324086 26.587197
vt 0.622650 0.848572
vn -0.929134 -0.377953 0.055118
v -19.591278 -10.586767 2.797869
vt 0.503754 0.721191
vn -0.905512 -0.370079 0.220472
v -21.379717 -6.267305 2.797869
vt 0.622650 0.721191
vn -0.905512 -0.370079 0.220472
v -20.575482 -11.036744 -1.852844
vt 0.503754 0.848572
vn -0.905512 -0.370079 0.220472
v -22.394852 -6.645624 -1.852844
vt 0.622650 0.848572
vn -0.905512 -0.370079 0.220472
v -6.355144 -21.342276 2.805310
vt 0.503754 0.721191
vn -0.370079 -0.905512 0.212598
v -10.796715 -19.502305 2.805310
vt 0.622650 0.721191
vn -0.370079 -0.905512 0.212598
v -6.705239 -22.289229 -1.860285
vt 0.503754 0.848572
vn -0.370079 -0.905512 0.212598
v -11.219922 -20.419208 -1.860285
vt 0.622650 0.848572
vn -0.370079 -0.905512 0.212598
v 10.575972 -19.513862 2.812751
vt 0.503754 0.721191
vn 0.377953 -0.905512 0.196850
v 6.134401 -21.353833 2.812751
vt 0.622650 0.721191
vn 0.377953 -0.905512 0.196850
v 10.971059 -20.362961 -1.867726
vt 0.503754 0.848572
vn 0.377953 -0.905512 0.196850
v 6.456376 -22.232982 -1.867726
vt 0.622650 0.848572
vn 0.377953 -0.905512 0.196850
v 21.092892 -6.152499 2.775546
vt 0.503754 0.721191
vn 0.897638 -0.370079 0.251969
v 19.241183 -10.625293 2.775546
vt 0.622650 0.721191
vn 0.897638 -0.370079 0.251969
v 22.243004 -6.585524 -1.837962
vt 0.503754 0.848572
vn 0.897638 -0.370079 0.251969
v 20.360363 -11.131516 -1.837962
vt 0.622650 0.848572
vn 0.897638 -0.370079 0.251969
v -0.111074 14.845360 32.071318
vt 0.317932 0.843140
vn 0.000000 0.976378 0.228346
v -10.601280 10.500471 32.071318
vt 0.403900 0.843140
vn -0.692913 0.692913 0.228346
v -14.945836 0.010787 32.071318
vt 0.492554 0.843140
vn -0.976378 0.000000 0.228346
v -10.601280 -10.477355 32.071318
vt 0.403900 0.843140
vn -0.692913 -0.692913 0.228346
v -0.111074 -14.822245 32.071318
vt 0.317932 0.843140
vn 0.000000 -0.976378 0.228346
v 10.376319 -10.477355 32.071318
vt 0.232758 0.843140
vn 0.692913 -0.692913 0.228346
v 14.720876 0.010787 32.071318
vt 0.148163 0.843140
vn 0.976378 0.000000 0.228346
v 10.376319 10.500471 32.071318
vt 0.232758 0.843140
vn 0.692913 0.692913 0.228346
v -0.111074 -25.084629 -2.329077
vt 0.261017 0.414368
vn 0.000000 -0.992126 0.149606
v -13.456877 -13.333625 18.744234
vt 0.426178 0.273499
vn -0.700787 -0.700787 0.173228
v -17.857673 -17.733991 -2.329077
vt 0.261017 0.273499
vn -0.700787 -0.700787 0.149606
v -18.985290 0.010787 18.744234
vt 0.426178 0.134796
vn -0.984252 0.000000 0.173228
v -25.208269 0.010787 -2.329077
vt 0.261017 0.134796
vn -0.992126 0.000000 0.149606
v -13.456877 13.356740 18.744234
vt 0.426178 0.273499
vn -0.700787 0.700787 0.173228
v -17.857673 17.756336 -2.329077
vt 0.261017 0.273499
vn -0.700787 0.700787 0.149606
v -0.111074 18.884358 18.744234
vt 0.426178 0.414368
vn 0.000000 0.984252 0.173228
v -0.111074 25.106973 -2.329077
vt 0.261017 0.414368
vn 0.000000 0.992126 0.149606
v 13.231916 13.356740 18.744234
vt 0.426178 0.562042
vn 0.700787 0.700787 0.173228
v 17.632712 17.756336 -2.329077
vt 0.261017 0.562042
vn 0.700787 0.700787 0.149606
v 18.760329 0.010787 18.744234
vt 0.426178 0.707977
vn 0.984252 0.000000 0.173228
v 24.983308 0.010787 -2.329077
vt 0.261017 0.707977
vn 0.992126 0.000000 0.149606
v 13.231916 -13.333625 18.744234
vt 0.426178 0.562042
vn 0.700787 -0.700787 0.173228
v 17.632712 -17.733991 -2.329077
vt 0.261017 0.562042
vn 0.700787 -0.700787 0.149606
v -0.111074 -18.862014 18.744234
vt 0.426178 0.414368
vn 0.000000 -0.984252 0.173228
v -0.111074 -25.224861 -7.902492
vt 0.178253 0.414368
vn 0.000000 -0.338583 -0.944882
v 17.732539 -17.833387 -7.902492
vt 0.178253 0.562042
vn 0.236220 -0.236220 -0.944882
v 25.123909 0.010787 -7.902492
vt 0.178253 0.707977
vn 0.338583 0.000000 -0.944882
v 17.732539 17.855731 -7.902492
vt 0.178253 0.562042
vn 0.236220 0.236220 -0.944882
v -0.111074 25.247206 -7.902492
vt 0.178253 0.414368
vn 0.000000 0.338583 -0.944882
v -17.956094 17.855731 -7.902492
vt 0.178253 0.273499
vn -0.236220 0.236220 -0.944882
v -25.348870 0.010787 -7.902492
vt 0.178253 0.134796
vn -0.338583 0.000000 -0.944882
v -17.956094 -17.833387 -7.902492
vt 0.178253 0.273499
vn -0.236220 -0.236220 -0.944882
v -12.720130 -12.596250 33.291665
vt 0.541077 0.273499
vn -0.582677 -0.582677 0.574803
v -0.111074 -17.818747 33.291665
vt 0.541077 0.414368
vn 0.000000 -0.818898 0.574803
v 12.495169 -12.596250 33.291665
vt 0.541077 0.562042
vn 0.582677 -0.582677 0.574803
v 17.717073 0.010787 33.291665
vt 0.541077 0.707977
vn 0.818898 0.000000 0.574803
v 12.495169 12.618595 33.291665
vt 0.541077 0.562042
vn 0.582677 0.582677 0.574803
v -0.111074 17.841092 33.291665
vt 0.541077 0.414368
vn 0.000000 0.818898 0.574803
v -12.720130 12.618595 33.291665
vt 0.541077 0.273499
vn -0.582677 0.582677 0.574803
v -17.942034 0.010787 33.291665
vt 0.541077 0.134796
vn -0.818898 0.000000 0.574803
f 24/24/24 25/25/25 26/26/26
f 27/27/27 28/28/28 29/29/29
f 30/30/30 31/31/31 32/32/32
f 32/32/32 31/31/31 25/25/25
f 30/30/30 27/27/27 26/26/26
f 33/33/33 24/24/24 29/29/29
f 33/33/33 34/34/34 35/35/35
f 35/35/35 34/34/34 28/28/28
f 36/36/36 37/37/37 38/38/38
f 38/38/38 37/37/37 39/39/39
f 40/40/40 41/41/41 42/42/42
f 42/42/42 41/41/41 43/43/43
f 44/44/44 45/45/45 38/38/38
f 38/38/38 45/45/45 46/46/46
f 38/38/38 46/46/46 36/36/36
f 40/40/40 47/47/47 41/41/41
f 41/41/41 47/47/47 48/48/48
f 41/41/41 48/48/48 49/49/49
f 39/39/39 50/50/50 38/38/38
f 38/38/38 50/50/50 51/51/51
f 38/38/38 51/51/51 44/44/44
f 49/49/49 52/52/52 41/41/41
f 41/41/41 52/52/52 53/53/53
f 41/41/41 53/53/53 43/43/43
f 54/54/54 55/55/55 56/56/56
f 56/56/56 55/55/55 57/57/57
f 58/58/58 59/59/59 60/60/60
f 60/60/60 59/59/59 61/61/61
f 62/62/62 63/63/63 64/64/64
f 64/64/64 63/63/63 65/65/65
f 66/66/66 67/67/67 68/68/68
f 68/68/68 67/67/67 69/69/69
f 70/70/70 71/71/71 72/72/72
f 72/72/72 71/71/71 73/73/73
f 74/74/74 75/75/75 76/76/76
f 76/76/76 75/75/75 77/77/77
f 78/78/78 79/79/79 80/80/80
f 80/80/80 79/79/79 81/81/81
f 82/82/82 83/83/83 84/84/84
f 84/84/84 83/83/83 85/85/85
f 86/86/86 87/87/87 88/88/88
f 88/88/88 87/87/87 89/89/89
f 90/90/90 91/91/91 92/92/92
f 92/92/92 91/91/91 93/93/93
f 94/94/94 95/95/95 96/96/96
f 96/96/96 95/95/95 97/97/97
f 98/98/98 99/99/99 100/100/100
f 100/100/100 99/99/99 101/101/101
f 102/102/102 103/103/103 104/104/104
f 104/104/104 103/103/103 105/105/105
f 106/106/106 107/107/107 108/108/108
f 108/108/108 107/107/107 109/109/109
f 110/110/110 111/111/111 112/112/112
f 112/112/112 111/111/111 113/113/113
f 114/114/114 115/115/115 116/116/116
f 116/116/116 115/115/115 117/117/117
f 33/33/33 118/118/118 24/24/24
f 24/24/24 118/118/118 119/119/119
f 24/24/24 119/119/119 25/25/25
f 25/25/25 119/119/119 120/120/120
f 25/25/25 120/120/120 32/32/32
f 32/32/32 120/120/120 121/121/121
f 32/32/32 121/121/121 30/30/30
f 30/30/30 121/121/121 122/122/122
f 30/30/30 122/122/122 27/27/27
f 27/27/27 122/122/122 123/123/123
f 27/27/27 123/123/123 28/28/28
f 28/28/28 123/123/123 124/124/124
f 28/28/28 124/124/124 35/35/35
f 35/35/35 124/124/124 125/125/125
f 35/35/35 125/125/125 33/33/33
f 33/33/33 125/125/125 118/118/118
f 126/126/126 127/127/127 128/128/128
f 128/128/128 127/127/127 129/129/129
f 128/128/128 129/129/129 130/130/130
f 130/130/130 129/129/129 131/131/131
f 130/130/130 131/131/131 132/132/132
f 132/132/132 131/131/131 133/133/133
f 132/132/132 133/133/133 134/134/134
f 134/134/134 133/133/133 135/135/135
f 134/134/134 135/135/135 136/136/136
f 136/136/136 135/135/135 137/137/137
f 136/136/136 137/137/137 138/138/138
f 138/138/138 137/137/137 139/139/139
f 138/138/138 139/139/139 140/140/140
f 140/140/140 139/139/139 141/141/141
f 140/140/140 141/141/141 126/126/126
f 126/126/126 141/141/141 127/127/127
f 128/128/128 142/142/142 126/126/126
f 126/126/126 142/142/142 143/143/143
f 126/126/126 143/143/143 140/140/140
f 140/140/140 143/143/143 144/144/144
f 140/140/140 144/144/144 138/138/138
f 138/138/138 144/144/144 145/145/145
f 138/138/138 145/145/145 136/136/136
f 136/136/136 145/145/145 146/146/146
f 136/136/136 146/146/146 134/134/134
f 134/134/134 146/146/146 147/147/147
f 134/134/134 147/147/147 132/132/132
f 132/132/132 147/147/147 148/148/148
f 132/132/132 148/148/148 130/130/130
f 130/130/130 148/148/148 149/149/149
f 130/130/130 149/149/149 128/128/128
f 128/128/128 149/149/149 142/142/142
f 150/150/150 141/141/141 151/151/151
f 151/151/151 141/141/141 139/139/139
f 151/151/151 139/139/139 152/152/152
f 152/152/152 139/139/139 137/137/137
f 152/152/152 137/137/137 153/153/153
f 153/153/153 137/137/137 135/135/135
f 153/153/153 135/135/135 154/154/154
f 154/154/154 135/135/135 133/133/133
f 154/154/154 133/133/133 155/155/155
f 155/155/155 133/133/133 131/131/131
f 155/155/155 131/131/131 156/156/156
f 156/156/156 131/131/131 129/129/129
f 156/156/156 129/129/129 157/157/157
f 157/157/157 129/129/129 127/127/127
f 157/157/157 127/127/127 150/150/150
f 150/150/150 127/127/127 141/141/141
g mesh01
g mesh02
