mtllib 6141-0.mtl
g mesh00
usemtl texture03
v 36.175555 90.357804 58.519728
vt 0.778320 1.000000
vn 0.244094 0.551181 0.795276
v 6.622702 124.336393 42.340077
vt 1.000000 0.757690
vn 0.110236 0.748031 0.653543
v 6.852126 93.837885 65.369225
vt 1.000000 1.000000
vn 0.055118 0.527559 0.850394
v 52.483003 119.226220 32.024303
vt 0.613373 0.757690
vn 0.338583 0.826772 0.456693
v 13.361646 136.139028 -7.023918
vt 1.000000 0.398193
vn 0.102362 1.000000 -0.055118
v 59.249478 11.635324 -67.345999
vt 0.500000 0.820221
vn 0.590551 -0.220472 -0.779528
v 31.889917 13.839056 -71.800664
vt 0.750000 0.820221
vn 0.110236 -0.181102 -0.976378
v 39.644444 58.936693 -79.491812
vt 0.750000 0.445862
vn 0.212598 0.086614 -0.976378
v 4.533416 16.042789 69.225873
vt 1.000000 0.820221
vn -0.007874 -0.314961 0.952756
v 31.889917 13.839056 63.384144
vt 0.750000 0.820221
vn 0.141732 -0.299213 0.944882
v 39.644444 58.936693 76.712146
vt 0.750000 0.445862
vn 0.251969 0.102362 0.968504
v 4.533416 16.042789 69.225873
vt 1.000000 0.023834
vn -0.007874 -0.314961 0.952756
v 1.985281 -31.253800 50.053374
vt 1.000000 0.398193
vn 0.000000 -0.566929 0.826772
v 31.889917 13.839056 63.384144
vt 0.750000 0.023834
vn 0.141732 -0.299213 0.944882
v 4.533416 16.042789 69.225873
vt 0.000000 0.023834
vn -0.007874 -0.314961 0.952756
v -24.129273 16.042789 63.384144
vt 0.250000 0.023834
vn -0.149606 -0.275591 0.952756
v 1.985281 -31.253800 50.053374
vt 0.000000 0.398193
vn 0.000000 -0.566929 0.826772
v 6.852126 93.837885 65.369225
vt 0.000000 1.000000
vn 0.055118 0.527559 0.850394
v 6.622702 124.336393 42.340077
vt 0.000000 0.757690
vn 0.110236 0.748031 0.653543
v -23.774430 95.119014 60.532494
vt 0.221649 1.000000
vn -0.086614 0.511811 0.858268
v -51.201289 92.762311 -63.647160
vt 0.443298 0.203583
vn -0.519685 0.417323 -0.748031
v -22.039986 91.753661 -68.027073
vt 0.221649 0.203583
vn -0.110236 0.456693 -0.881890
v -25.410987 63.344158 -80.004002
vt 0.250000 0.445862
vn -0.188976 0.110236 -0.976378
v -96.024594 63.344158 -7.023918
vt 1.000000 0.445862
vn -1.000000 0.047244 -0.047244
v -86.642687 16.042789 -7.023918
vt 1.000000 0.869995
vn -0.968504 -0.244094 -0.031496
v -81.818668 63.344158 29.001001
vt 0.750000 0.445862
vn -0.897638 0.039370 0.448819
v -69.720383 16.042789 25.255096
vt 0.750000 0.845123
vn -0.858268 -0.251969 0.448819
v -55.912125 63.344158 -69.804509
vt 0.500000 0.445862
vn -0.582677 0.070866 -0.811024
v -50.115349 16.042789 -67.860957
vt 0.500000 0.820221
vn -0.559055 -0.149606 -0.818898
v -79.138997 63.344158 -39.319543
vt 0.750000 0.445862
vn -0.850394 0.055118 -0.535433
v -68.377489 16.042789 -37.442438
vt 0.750000 0.845123
vn -0.842520 -0.212598 -0.496063
v 4.533416 16.042789 -76.252560
vt 0.000000 0.820221
vn 0.000000 -0.204724 -0.984252
v -22.789437 16.042789 -72.055374
vt 0.250000 0.820221
vn -0.118110 -0.165354 -0.984252
v 7.115199 90.749792 -72.406985
vt 1.000000 0.203583
vn 0.031496 0.440945 -0.897638
v 36.304032 87.542190 -68.137817
vt 0.778320 0.203583
vn 0.173228 0.440945 -0.881890
v -51.201289 92.762311 -63.647160
vt 0.443298 1.000000
vn -0.519685 0.417323 -0.748031
v -68.686446 94.497571 -35.335539
vt 0.690399 0.971802
vn -0.771654 0.393701 -0.496063
v -54.220507 125.655764 -27.976622
vt 0.630798 0.701324
vn -0.543307 0.716535 -0.440945
v -86.171604 96.237611 -7.023918
vt 0.937500 0.943634
vn -0.897638 0.440945 -0.047244
v -63.740068 129.131064 -7.023918
vt 0.875000 0.644989
vn -0.496063 0.866142 -0.078740
v 70.555486 54.529228 -68.807816
vt 0.500000 0.445862
vn 0.653543 0.015748 -0.755906
v 65.495925 84.329808 -63.868648
vt 0.556671 0.203583
vn 0.614173 0.385827 -0.685039
v 86.284786 54.529228 -38.807353
vt 0.250000 0.445862
vn 0.913386 0.000000 -0.409449
v 78.095884 85.027736 -35.446283
vt 0.309570 0.175415
vn 0.858268 0.338583 -0.385827
v 97.043236 54.529228 -7.023918
vt 0.000000 0.445862
vn 1.000000 0.000000 -0.015748
v 90.695842 85.725664 -7.023918
vt 0.062500 0.147217
vn 0.937008 0.370079 -0.015748
v 86.284786 54.529228 29.001001
vt 0.250000 0.445862
vn 0.937008 0.000000 0.362205
v 72.204279 54.529228 65.028688
vt 0.500000 0.445862
vn 0.700787 0.047244 0.708661
v 59.249478 11.635324 57.539647
vt 0.500000 0.820221
vn 0.606299 -0.314961 0.732283
v 65.495925 86.877724 51.673000
vt 0.556671 0.203583
vn 0.637795 0.472441 0.606299
v 36.175555 90.357804 58.519728
vt 0.778320 0.203583
vn 0.244094 0.551181 0.795276
v -61.124636 63.344158 63.010384
vt 0.500000 0.445862
vn -0.653543 0.039370 0.763780
v -52.795020 16.042789 57.539647
vt 0.500000 0.820221
vn -0.598425 -0.244094 0.763780
v -28.093717 63.344158 76.712146
vt 0.250000 0.445862
vn -0.220472 0.086614 0.976378
v -24.129273 16.042789 63.384144
vt 0.250000 0.820221
vn -0.149606 -0.275591 0.952756
v 4.533416 16.042789 -76.252560
vt 1.000000 0.820221
vn 0.000000 -0.204724 -0.984252
v 7.323210 63.344158 -85.289244
vt 1.000000 0.445862
vn 0.015748 0.118110 -0.992126
v 4.533416 16.042789 69.225873
vt 0.000000 0.820221
vn -0.007874 -0.314961 0.952756
v 7.491454 63.344158 82.182883
vt 0.000000 0.445862
vn 0.007874 0.118110 1.000000
v 6.852126 93.837885 65.369225
vt 0.000000 0.203583
vn 0.055118 0.527559 0.850394
v 6.852126 93.837885 65.369225
vt 1.000000 0.203583
vn 0.055118 0.527559 0.850394
v 7.491454 63.344158 82.182883
vt 1.000000 0.445862
vn 0.007874 0.118110 1.000000
v 7.115199 90.749792 -72.406985
vt 0.000000 0.203583
vn 0.031496 0.440945 -0.897638
v 7.323210 63.344158 -85.289244
vt 0.000000 0.445862
vn 0.015748 0.118110 -0.992126
v 7.145789 118.155426 -56.418367
vt 1.000000 0.757690
vn 0.047244 0.685039 -0.732283
v 52.483003 114.130387 -50.194572
vt 0.613373 0.757690
vn 0.307087 0.779528 -0.551181
v 47.190959 126.530564 -7.023918
vt 0.562500 0.521576
vn 0.299213 0.952756 -0.047244
v 66.753168 115.526244 -28.610629
vt 0.369171 0.701324
vn 0.677165 0.653543 -0.330709
v 72.222633 116.926881 -7.023918
vt 0.125000 0.644989
vn 0.645669 0.771654 -0.031496
v 59.249478 11.635324 57.539647
vt 0.500000 0.023834
vn 0.606299 -0.314961 0.732283
v 46.294677 -31.253800 50.053374
vt 0.500000 0.398193
vn 0.440945 -0.598425 0.669291
v 7.081550 -55.361006 -7.023918
vt 1.000000 0.796387
vn 0.007874 -1.000000 0.000000
v -54.407105 96.395362 55.695764
vt 0.443298 1.000000
vn -0.574803 0.448819 0.685039
v -37.365500 129.446566 38.954089
vt 0.386597 0.757690
vn -0.157480 0.866142 0.480315
v 13.361646 136.139028 -7.023918
vt 0.000000 0.398193
vn 0.102362 1.000000 -0.055118
v 7.081550 -55.361006 -7.023918
vt 0.000000 0.796387
vn 0.007874 -1.000000 0.000000
v -42.321056 -31.253800 50.053374
vt 0.500000 0.398193
vn -0.440945 -0.582677 0.685039
v -52.795020 16.042789 57.539647
vt 0.500000 0.023834
vn -0.598425 -0.244094 0.763780
v 65.495925 84.329808 -63.868648
vt 0.556671 1.000000
vn 0.614173 0.385827 -0.685039
v 36.304032 87.542190 -68.137817
vt 0.778320 1.000000
vn 0.173228 0.440945 -0.881890
v 7.115199 90.749792 -72.406985
vt 1.000000 1.000000
vn 0.031496 0.440945 -0.897638
v 31.889917 13.839056 -71.800664
vt 0.750000 0.023834
vn 0.110236 -0.181102 -0.976378
v 59.249478 11.635324 -67.345999
vt 0.500000 0.023834
vn 0.590551 -0.220472 -0.779528
v 46.294677 -31.253800 -64.106747
vt 0.500000 0.398193
vn 0.448819 -0.551181 -0.700787
v 73.938723 11.635324 -37.184958
vt 0.250000 0.048706
vn 0.866142 -0.259843 -0.425197
v 76.893703 -31.253800 -7.023918
vt 0.000000 0.497742
vn 0.818898 -0.574803 0.000000
v 88.631027 11.635324 -7.023918
vt 0.000000 0.073608
vn 0.968504 -0.251969 -0.007874
v 73.938723 11.635324 25.255096
vt 0.250000 0.048706
vn 0.874016 -0.283465 0.409449
v 65.495925 86.877724 51.673000
vt 0.556671 1.000000
vn 0.637795 0.472441 0.606299
v 66.753168 118.074160 12.497424
vt 0.369171 0.701324
vn 0.685039 0.677165 0.275591
v 78.095884 86.304084 22.323157
vt 0.309570 0.971802
vn 0.866142 0.354331 0.362205
v 90.695842 85.725664 -7.023918
vt 0.062500 0.943634
vn 0.937008 0.370079 -0.015748
v 4.533416 16.042789 -76.252560
vt 1.000000 0.023834
vn 0.000000 -0.204724 -0.984252
v 1.985281 -31.253800 -64.106747
vt 1.000000 0.398193
vn 0.000000 -0.496063 -0.874016
v 78.095884 86.304084 22.323157
vt 0.309570 0.175415
vn 0.866142 0.354331 0.362205
v -70.289354 96.318876 24.333155
vt 0.690399 0.971802
vn -0.818898 0.409449 0.409449
v -54.670177 129.288815 15.963701
vt 0.630798 0.701324
vn -0.590551 0.748031 0.307087
v -29.305075 132.635046 -7.023918
vt 0.437500 0.521576
vn -0.086614 1.000000 -0.086614
v -36.460041 122.175683 -48.929326
vt 0.386597 0.757690
vn -0.165354 0.811024 -0.566929
v 7.145789 118.155426 -56.418367
vt 0.000000 0.757690
vn 0.047244 0.685039 -0.732283
v -22.039986 91.753661 -68.027073
vt 0.221649 1.000000
vn -0.110236 0.456693 -0.881890
v 7.115199 90.749792 -72.406985
vt 0.000000 1.000000
vn 0.031496 0.440945 -0.897638
v -23.774430 95.119014 60.532494
vt 0.221649 0.203583
vn -0.086614 0.511811 0.858268
v -54.407105 96.395362 55.695764
vt 0.443298 0.203583
vn -0.574803 0.448819 0.685039
v 78.095884 85.027736 -35.446283
vt 0.309570 0.971802
vn 0.858268 0.338583 -0.385827
v -70.289354 96.318876 24.333155
vt 0.690399 0.175415
vn -0.818898 0.409449 0.409449
v -86.171604 96.237611 -7.023918
vt 0.937500 0.147217
vn -0.897638 0.440945 -0.047244
v -69.720383 16.042789 25.255096
vt 0.750000 0.048706
vn -0.858268 -0.251969 0.448819
v -86.642687 16.042789 -7.023918
vt 1.000000 0.073608
vn -0.968504 -0.244094 -0.031496
v -72.920081 -31.253800 -7.023918
vt 1.000000 0.497742
vn -0.811024 -0.582677 -0.007874
v -68.377489 16.042789 -37.442438
vt 0.750000 0.048706
vn -0.842520 -0.212598 -0.496063
v -42.321056 -31.253800 -64.106747
vt 0.500000 0.398193
vn -0.448819 -0.527559 -0.724409
v -50.115349 16.042789 -67.860957
vt 0.500000 0.023834
vn -0.559055 -0.149606 -0.818898
v -22.789437 16.042789 -72.055374
vt 0.250000 0.023834
vn -0.118110 -0.165354 -0.984252
v 73.938723 11.635324 25.255096
vt 0.250000 0.845123
vn 0.874016 -0.283465 0.409449
v 88.631027 11.635324 -7.023918
vt 0.000000 0.869995
vn 0.968504 -0.251969 -0.007874
v 73.938723 11.635324 -37.184958
vt 0.250000 0.845123
vn 0.866142 -0.259843 -0.425197
v 1.985281 -31.253800 -64.106747
vt 0.000000 0.398193
vn 0.000000 -0.496063 -0.874016
v 4.533416 16.042789 -76.252560
vt 0.000000 0.023834
vn 0.000000 -0.204724 -0.984252
v -68.686446 94.497571 -35.335539
vt 0.690399 0.175415
vn -0.771654 0.393701 -0.496063
f 1/1/1 2/2/2 3/3/3
f 4/4/4 5/5/5 2/2/2
f 6/6/6 7/7/7 8/8/8
f 9/9/9 10/10/10 11/11/11
f 12/12/12 13/13/13 14/14/14
f 15/15/15 16/16/16 17/17/17
f 18/18/18 19/19/19 20/20/20
f 21/21/21 22/22/22 23/23/23
f 24/24/24 25/25/25 26/26/26
f 26/26/26 25/25/25 27/27/27
f 28/28/28 29/29/29 30/30/30
f 30/30/30 29/29/29 31/31/31
f 32/32/32 33/33/33 23/23/23
f 34/34/34 35/35/35 8/8/8
f 36/36/36 37/37/37 38/38/38
f 38/38/38 37/37/37 39/39/39
f 38/38/38 39/39/39 40/40/40
f 41/41/41 42/42/42 43/43/43
f 43/43/43 42/42/42 44/44/44
f 45/45/45 46/46/46 47/47/47
f 48/48/48 49/49/49 47/47/47
f 50/50/50 51/51/51 11/11/11
f 52/52/52 53/53/53 54/54/54
f 54/54/54 53/53/53 55/55/55
f 7/7/7 56/56/56 8/8/8
f 8/8/8 56/56/56 57/57/57
f 8/8/8 57/57/57 34/34/34
f 55/55/55 58/58/58 54/54/54
f 54/54/54 58/58/58 59/59/59
f 54/54/54 59/59/59 60/60/60
f 51/51/51 61/61/61 11/11/11
f 11/11/11 61/61/61 62/62/62
f 11/11/11 62/62/62 9/9/9
f 22/22/22 63/63/63 23/23/23
f 23/23/23 63/63/63 64/64/64
f 23/23/23 64/64/64 32/32/32
f 65/65/65 5/5/5 66/66/66
f 66/66/66 5/5/5 67/67/67
f 66/66/66 67/67/67 68/68/68
f 68/68/68 67/67/67 69/69/69
f 70/70/70 14/14/14 71/71/71
f 71/71/71 14/14/14 13/13/13
f 71/71/71 13/13/13 72/72/72
f 73/73/73 20/20/20 74/74/74
f 74/74/74 20/20/20 19/19/19
f 74/74/74 19/19/19 75/75/75
f 76/76/76 17/17/17 77/77/77
f 77/77/77 17/17/17 16/16/16
f 77/77/77 16/16/16 78/78/78
f 68/68/68 79/79/79 66/66/66
f 66/66/66 79/79/79 80/80/80
f 66/66/66 80/80/80 65/65/65
f 65/65/65 80/80/80 81/81/81
f 82/82/82 83/83/83 84/84/84
f 84/84/84 83/83/83 85/85/85
f 84/84/84 85/85/85 86/86/86
f 86/86/86 85/85/85 87/87/87
f 86/86/86 87/87/87 88/88/88
f 2/2/2 1/1/1 4/4/4
f 4/4/4 1/1/1 89/89/89
f 4/4/4 89/89/89 90/90/90
f 90/90/90 89/89/89 91/91/91
f 90/90/90 91/91/91 92/92/92
f 93/93/93 82/82/82 94/94/94
f 94/94/94 82/82/82 84/84/84
f 94/94/94 84/84/84 72/72/72
f 72/72/72 84/84/84 86/86/86
f 72/72/72 86/86/86 71/71/71
f 71/71/71 86/86/86 88/88/88
f 71/71/71 88/88/88 70/70/70
f 46/46/46 95/95/95 47/47/47
f 47/47/47 95/95/95 50/50/50
f 47/47/47 50/50/50 48/48/48
f 48/48/48 50/50/50 11/11/11
f 48/48/48 11/11/11 49/49/49
f 49/49/49 11/11/11 10/10/10
f 96/96/96 73/73/73 97/97/97
f 97/97/97 73/73/73 74/74/74
f 97/97/97 74/74/74 98/98/98
f 98/98/98 74/74/74 75/75/75
f 98/98/98 75/75/75 99/99/99
f 99/99/99 75/75/75 100/100/100
f 99/99/99 100/100/100 101/101/101
f 101/101/101 100/100/100 102/102/102
f 60/60/60 103/103/103 54/54/54
f 54/54/54 103/103/103 104/104/104
f 54/54/54 104/104/104 52/52/52
f 52/52/52 104/104/104 26/26/26
f 52/52/52 26/26/26 53/53/53
f 53/53/53 26/26/26 27/27/27
f 5/5/5 4/4/4 67/67/67
f 67/67/67 4/4/4 90/90/90
f 67/67/67 90/90/90 69/69/69
f 69/69/69 90/90/90 92/92/92
f 69/69/69 92/92/92 68/68/68
f 68/68/68 92/92/92 105/105/105
f 68/68/68 105/105/105 79/79/79
f 104/104/104 106/106/106 26/26/26
f 26/26/26 106/106/106 107/107/107
f 26/26/26 107/107/107 24/24/24
f 24/24/24 107/107/107 30/30/30
f 24/24/24 30/30/30 25/25/25
f 25/25/25 30/30/30 31/31/31
f 108/108/108 109/109/109 110/110/110
f 110/110/110 109/109/109 111/111/111
f 110/110/110 111/111/111 112/112/112
f 112/112/112 111/111/111 113/113/113
f 112/112/112 113/113/113 114/114/114
f 49/49/49 115/115/115 47/47/47
f 47/47/47 115/115/115 116/116/116
f 47/47/47 116/116/116 45/45/45
f 45/45/45 116/116/116 43/43/43
f 45/45/45 43/43/43 46/46/46
f 46/46/46 43/43/43 44/44/44
f 116/116/116 117/117/117 43/43/43
f 43/43/43 117/117/117 6/6/6
f 43/43/43 6/6/6 41/41/41
f 41/41/41 6/6/6 8/8/8
f 41/41/41 8/8/8 42/42/42
f 42/42/42 8/8/8 35/35/35
f 101/101/101 36/36/36 99/99/99
f 99/99/99 36/36/36 38/38/38
f 99/99/99 38/38/38 98/98/98
f 98/98/98 38/38/38 40/40/40
f 98/98/98 40/40/40 97/97/97
f 97/97/97 40/40/40 39/39/39
f 97/97/97 39/39/39 96/96/96
f 78/78/78 108/108/108 77/77/77
f 77/77/77 108/108/108 110/110/110
f 77/77/77 110/110/110 76/76/76
f 76/76/76 110/110/110 112/112/112
f 76/76/76 112/112/112 118/118/118
f 118/118/118 112/112/112 114/114/114
f 118/118/118 114/114/114 119/119/119
f 107/107/107 120/120/120 30/30/30
f 30/30/30 120/120/120 21/21/21
f 30/30/30 21/21/21 28/28/28
f 28/28/28 21/21/21 23/23/23
f 28/28/28 23/23/23 29/29/29
f 29/29/29 23/23/23 33/33/33
g mesh01
g mesh02
