mtllib 3497-0.mtl
g mesh00
usemtl texture00
v 5.974218 22.626519 -41.657974
vt 0.598541 0.712219
vn 0.000000 1.000000 -0.110236
v -7.388916 20.754995 -32.542684
vt 0.571503 0.414886
vn -0.283465 0.960630 -0.094488
v 5.974218 23.480251 -32.542684
vt 0.571503 0.712219
vn 0.000000 1.000000 -0.086614
v 18.332233 28.304831 -32.371986
vt 0.843506 0.047516
vn 0.771654 0.440945 -0.464567
v 19.337352 20.590937 -25.874070
vt 0.802338 0.112518
vn 0.653543 0.740157 0.196850
v 19.325582 18.053774 -32.371986
vt 0.802338 0.047516
vn 0.692913 0.062992 -0.724409
v 5.974218 27.988208 3.888128
vt 0.831635 0.613800
vn 0.000000 0.007874 1.000000
v 5.974218 22.476044 2.363223
vt 0.831635 0.642853
vn 0.000000 0.566929 0.826772
v 18.925418 22.476044 1.153162
vt 0.902802 0.655426
vn 0.370079 0.181102 0.913386
v -1.758369 25.722735 -31.378142
vt 0.638184 0.799774
vn 0.023622 0.992126 -0.173228
v -9.846396 19.012002 -70.964977
vt 0.989990 0.779327
vn 0.023622 0.992126 -0.173228
v -5.858876 19.969185 -31.378142
vt 0.638184 0.856689
vn -0.818898 0.582677 0.062992
v -15.806490 17.856276 22.361478
vt 0.788300 0.427917
vn 0.653543 0.661417 -0.377953
v -14.989684 7.269787 2.879111
vt 0.575653 0.720551
vn 0.716535 0.685039 -0.133858
v -21.580626 17.463371 8.155586
vt 0.788300 0.720551
vn 0.779528 0.598425 -0.181102
v -6.388505 29.426073 -25.874070
vt 0.843506 0.110626
vn -0.448819 0.464567 0.763780
v 3.224854 30.081263 -25.874070
vt 0.953583 0.110565
vn -0.661417 0.740157 0.157480
v 5.974218 29.028988 -32.371986
vt 0.989990 0.047516
vn 0.000000 0.826772 -0.566929
v -4.987930 7.395182 -31.427455
vt 0.575653 0.351593
vn 0.393701 0.905512 0.165354
v -17.708448 16.479019 -47.545169
vt 0.788300 0.606903
vn 0.385827 0.905512 0.196850
v -23.835669 16.815496 -24.971266
vt 0.788300 0.016602
vn 0.464567 0.889764 0.055118
v 35.786459 16.815496 -24.971266
vt 0.788300 0.594666
vn -0.464567 0.889764 0.055118
v 16.938720 7.395182 -31.427455
vt 0.575653 0.708008
vn -0.393701 0.905512 0.165354
v 33.865670 15.856223 -11.019524
vt 0.788300 0.347992
vn -0.645669 0.771654 0.039370
v 26.938120 7.269787 2.879111
vt 0.575653 0.089020
vn -0.716535 0.685039 -0.133858
v 33.531415 17.463371 8.155586
vt 0.788300 0.027832
vn -0.779528 0.598425 -0.181102
v 29.659237 16.479019 -47.545169
vt 0.788300 0.606903
vn -0.385827 0.905512 0.196850
v 16.938720 7.395182 -31.427455
vt 0.575653 0.351593
vn -0.393701 0.905512 0.165354
v 35.786459 16.815496 -24.971266
vt 0.788300 0.016602
vn -0.464567 0.889764 0.055118
v -21.580626 17.463371 8.155586
vt 0.788300 0.027832
vn 0.779528 0.598425 -0.181102
v -14.989684 7.269787 2.879111
vt 0.575653 0.089020
vn 0.716535 0.685039 -0.133858
v -21.914881 15.856223 -11.019524
vt 0.788300 0.347992
vn 0.645669 0.771654 0.039370
v -4.987930 7.395182 -31.427455
vt 0.575653 0.708008
vn 0.393701 0.905512 0.165354
v -23.835669 16.815496 -24.971266
vt 0.788300 0.594666
vn 0.464567 0.889764 0.055118
v 5.974218 6.896736 21.470054
vt 0.575653 0.009979
vn 0.000000 0.755906 -0.661417
v 18.598225 17.417393 33.085126
vt 0.788300 0.204041
vn -0.212598 0.755906 -0.622047
v 17.925007 7.538341 20.180333
vt 0.575653 0.325623
vn -0.464567 0.740157 -0.488189
v 27.757279 17.856276 22.361478
vt 0.788300 0.427917
vn -0.653543 0.661417 -0.377953
v 26.938120 7.269787 2.879111
vt 0.575653 0.720551
vn -0.716535 0.685039 -0.133858
v 33.531415 17.463371 8.155586
vt 0.788300 0.720551
vn -0.779528 0.598425 -0.181102
v -17.708448 16.479019 -47.545169
vt 0.788300 0.072968
vn 0.385827 0.905512 0.196850
v -4.987930 7.395182 -31.427455
vt 0.575653 0.241455
vn 0.393701 0.905512 0.165354
v 5.974218 15.491532 -69.394552
vt 0.788300 0.572083
vn 0.000000 0.968504 0.267717
v 5.974218 7.412946 -36.904974
vt 0.575653 0.572083
vn 0.000000 0.976378 0.236220
v 16.938720 7.395182 -31.427455
vt 0.575653 0.241455
vn -0.393701 0.905512 0.165354
v 29.659237 16.479019 -47.545169
vt 0.788300 0.072968
vn -0.385827 0.905512 0.196850
v 44.863127 11.515459 -28.529377
vt 0.777924 0.717499
vn 0.346457 0.937008 0.015748
v 19.337352 20.590937 -25.874070
vt 0.574921 0.717499
vn 0.440945 0.897638 0.007874
v 33.253654 12.519666 -9.775323
vt 0.775543 0.320251
vn 0.598425 0.803150 0.007874
v 26.938120 20.018298 2.879111
vt 0.574921 0.009979
vn 0.692913 0.724409 0.062992
v 34.458855 10.497668 9.540139
vt 0.785095 0.009979
vn 0.685039 0.685039 0.251969
v 5.974218 17.051657 31.791612
vt 0.785095 0.009979
vn 0.000000 0.881890 0.472441
v 22.797596 13.092304 23.336355
vt 0.785095 0.364166
vn 0.527559 0.708661 0.464567
v 19.765763 20.018298 16.170820
vt 0.574921 0.402740
vn 0.480315 0.779528 0.409449
v 34.458855 10.497668 9.540139
vt 0.785095 0.720795
vn 0.685039 0.685039 0.251969
v 26.938120 20.018298 2.879111
vt 0.574921 0.720795
vn 0.692913 0.724409 0.062992
v 19.337352 20.754995 -32.542684
vt 0.571503 0.414886
vn 0.283465 0.960630 -0.094488
v -13.469060 14.896950 -56.690805
vt 0.785095 0.714142
vn -0.322835 0.937008 -0.141732
v -32.912337 11.515459 -28.529377
vt 0.785095 0.073303
vn -0.346457 0.937008 0.015748
v -7.388916 20.754995 -32.542684
vt 0.574921 0.424469
vn -0.283465 0.960630 -0.094488
v -7.388916 20.590937 -25.874070
vt 0.574921 0.225830
vn -0.440945 0.897638 0.007874
v -13.469060 14.896950 -56.690805
vt 0.785095 0.359772
vn -0.322835 0.937008 -0.141732
v 5.974218 18.278440 -74.010993
vt 0.785095 0.712219
vn 0.000000 0.992126 -0.141732
v -14.989684 20.018298 2.879111
vt 0.574921 0.720795
vn -0.692913 0.724409 0.062992
v -22.508065 10.497668 9.540139
vt 0.785095 0.720795
vn -0.685039 0.685039 0.251969
v -7.817327 20.018298 16.170820
vt 0.574921 0.402740
vn -0.480315 0.779528 0.409449
v -10.849161 13.092304 23.336355
vt 0.785095 0.364166
vn -0.527559 0.708661 0.464567
v 5.974218 21.194923 21.470054
vt 0.574921 0.009979
vn 0.000000 0.929134 0.370079
v -22.508065 10.497668 9.540139
vt 0.785095 0.009979
vn -0.685039 0.685039 0.251969
v -14.989684 20.018298 2.879111
vt 0.574921 0.009979
vn -0.692913 0.724409 0.062992
v -21.305218 12.519666 -9.775323
vt 0.775543 0.320251
vn -0.598425 0.803150 0.007874
v -7.388916 20.590937 -25.874070
vt 0.574921 0.717499
vn -0.440945 0.897638 0.007874
v -32.912337 11.515459 -28.529377
vt 0.777924 0.717499
vn -0.346457 0.937008 0.015748
v 25.417495 14.896950 -56.690805
vt 0.785095 0.359772
vn 0.322835 0.937008 -0.141732
v 25.417495 14.896950 -56.690805
vt 0.785095 0.714142
vn 0.322835 0.937008 -0.141732
v 19.337352 20.754995 -32.542684
vt 0.574921 0.424469
vn 0.283465 0.960630 -0.094488
v 44.863127 11.515459 -28.529377
vt 0.785095 0.073303
vn 0.346457 0.937008 0.015748
v 19.337352 20.590937 -25.874070
vt 0.574921 0.225830
vn 0.440945 0.897638 0.007874
v 77.130493 24.315174 -2.416329
vt 0.499023 0.563782
vn 0.062992 -1.000000 -0.015748
v 54.156354 22.766543 -1.559045
vt 0.455658 0.321320
vn 0.133858 -0.314961 0.944882
v 51.148060 22.710115 -8.914245
vt 0.552399 0.257111
vn 0.188976 -0.259843 -0.952756
v 17.807312 19.969185 -31.378142
vt 0.638184 0.856689
vn 0.078740 -1.000000 0.031496
v 10.161819 19.339074 -31.378142
vt 0.638184 0.747314
vn 0.078740 -1.000000 0.031496
v 21.797185 19.012002 -70.964977
vt 0.989990 0.779327
vn 0.078740 -1.000000 0.031496
v 0.023539 11.652349 -22.475277
vt 0.420105 0.268890
vn 0.000000 0.165354 0.992126
v 0.023539 -2.492230 -20.017222
vt 0.420105 0.077576
vn 0.000000 0.598425 0.803150
v 12.004929 11.652349 -22.475277
vt 0.385437 0.268890
vn 0.000000 0.165354 0.992126
v 18.339295 29.426073 -25.874070
vt 0.843506 0.110626
vn 0.448819 0.464567 0.763780
v 10.161819 19.339074 -31.378142
vt 0.638184 0.747314
vn -0.850394 0.472441 -0.251969
v 13.709158 25.722735 -31.378142
vt 0.638184 0.799774
vn -0.023622 0.992126 -0.173228
v 21.797185 19.012002 -70.964977
vt 0.989990 0.779327
vn -0.023622 0.992126 -0.173228
v 17.807312 19.969185 -31.378142
vt 0.638184 0.856689
vn 0.818898 0.582677 0.062992
v 6.014234 11.642944 -26.393752
vt 0.402771 0.268890
vn 0.000000 -0.173228 -0.992126
v 12.004929 11.652349 -22.475277
vt 0.385437 0.268890
vn 0.535433 -0.141732 -0.834646
v 6.014234 -5.570682 -23.328769
vt 0.402771 0.077576
vn 0.000000 -0.598425 -0.803150
v 3.413166 32.863992 -9.600832
vt 0.843811 0.708618
vn -0.291339 0.866142 -0.417323
v 5.974218 34.240204 -1.460419
vt 0.831635 0.654266
vn 0.000000 0.952756 0.314961
v 5.974218 33.455439 -9.600832
vt 0.831635 0.708618
vn 0.000000 0.992126 -0.133858
v 8.535269 32.863992 -9.600832
vt 0.843811 0.708618
vn 0.291339 0.866142 -0.417323
v -39.197271 22.710115 -8.914245
vt 0.552399 0.257111
vn -0.188976 -0.259843 -0.952756
v -42.207919 22.766543 -1.559045
vt 0.455658 0.321320
vn -0.133858 -0.314961 0.944882
v -65.182058 24.315174 -2.416329
vt 0.499023 0.563782
vn -0.062992 -1.000000 -0.015748
v -41.068627 27.543055 -4.339530
vt 0.503021 0.288788
vn -0.188976 0.984252 0.086614
v -18.537023 33.455439 -4.271251
vt 0.504974 0.064362
vn -0.196850 0.984252 0.000000
v 12.004929 -2.492230 1.046950
vt 0.385437 0.077576
vn 0.598425 -0.480315 0.645669
v 6.014234 -12.177964 -9.483239
vt 0.402771 0.241577
vn 0.000000 -1.007874 0.000000
v 12.004929 -7.728524 -9.483239
vt 0.385437 0.241577
vn 0.606299 -0.795276 0.000000
v 12.004929 -2.492230 -20.017222
vt 0.385437 0.077576
vn 0.598425 -0.480315 -0.645669
v 1.833694 22.656822 -25.874070
vt 0.929657 0.136047
vn -0.472441 0.456693 0.755906
v 0.732065 22.656822 -12.134753
vt 0.920197 0.220184
vn -0.748031 0.456693 -0.488189
v 30.485458 33.455439 -4.271251
vt 0.504974 0.064362
vn 0.196850 0.984252 0.000000
v 53.017063 27.543055 -4.339530
vt 0.503021 0.288788
vn 0.188976 0.984252 0.086614
v -7.374793 18.053774 -32.371986
vt 0.802338 0.047516
vn -0.692913 0.062992 -0.724409
v -7.388916 20.590937 -25.874070
vt 0.802338 0.112518
vn -0.653543 0.740157 0.196850
v -6.381444 28.304831 -32.371986
vt 0.843506 0.047516
vn -0.771654 0.440945 -0.464567
v 0.023539 -7.728524 -9.483239
vt 0.420105 0.241577
vn -0.606299 -0.795276 0.000000
v 6.014234 -5.570682 4.354704
vt 0.402771 0.077576
vn 0.000000 -0.598425 0.803150
v 0.023539 -2.492230 1.046950
vt 0.420105 0.077576
vn -0.598425 -0.480315 0.645669
v 6.014234 11.642944 7.423480
vt 0.402771 0.268890
vn 0.000000 -0.173228 0.992126
v 0.023539 11.652349 3.505005
vt 0.420105 0.268890
vn -0.535433 -0.141732 0.834646
v 77.130493 24.315174 -2.416329
vt 0.499023 0.563782
vn 0.118110 0.992126 0.094488
v 17.925007 7.538341 20.180333
vt 0.887238 0.472351
vn 0.031496 -1.000000 0.007874
v 5.974218 6.896736 21.470054
vt 0.989990 0.472626
vn 0.000000 -1.000000 0.000000
v 5.974218 6.841353 2.006653
vt 0.989990 0.390076
vn 0.000000 -1.000000 0.000000
v -5.976572 7.538341 20.180333
vt 0.887238 0.472351
vn -0.031496 -1.000000 0.007874
v 1.786616 19.339074 -31.378142
vt 0.638184 0.747314
vn -0.078740 -1.000000 0.031496
v -5.858876 19.969185 -31.378142
vt 0.638184 0.856689
vn -0.078740 -1.000000 0.031496
v -9.846396 19.012002 -70.964977
vt 0.989990 0.779327
vn -0.078740 -1.000000 0.031496
v -65.182058 24.315174 -2.416329
vt 0.499023 0.563782
vn -0.118110 0.992126 0.094488
v 5.974218 33.455439 -9.600832
vt 0.989990 0.218536
vn 0.000000 0.992126 -0.133858
v 8.535269 32.863992 -9.600832
vt 0.961243 0.218536
vn 0.291339 0.866142 -0.417323
v 8.723582 30.081263 -25.874070
vt 0.953583 0.110565
vn 0.661417 0.740157 0.157480
v 11.216370 22.656822 -12.134753
vt 0.920197 0.220184
vn 0.748031 0.456693 -0.488189
v 10.114741 22.656822 -25.874070
vt 0.929657 0.136047
vn 0.472441 0.456693 0.755906
v -6.974628 22.476044 1.153162
vt 0.902802 0.655426
vn -0.370079 0.181102 0.913386
v 19.325582 18.053774 -32.371986
vt 0.843506 0.009979
vn 0.692913 0.062992 -0.724409
v 5.974218 18.053774 -32.371986
vt 0.989990 0.009979
vn 0.000000 0.000000 -1.007874
v 18.339295 29.426073 -25.874070
vt 0.843506 0.110626
vn 0.448819 0.464567 0.763780
v -7.374793 18.053774 -32.371986
vt 0.843506 0.009979
vn -0.692913 0.062992 -0.724409
v 1.786616 19.339074 -31.378142
vt 0.638184 0.747314
vn 0.850394 0.472441 -0.251969
v -14.989684 7.269787 2.879111
vt 0.803009 0.390106
vn -0.015748 -1.000000 0.000000
v -4.987930 7.395182 -31.427455
vt 0.900452 0.246460
vn -0.007874 -1.000000 -0.007874
v 5.974218 7.412946 -36.904974
vt 0.989990 0.185608
vn 0.000000 -1.000000 -0.007874
v 16.938720 7.395182 -31.427455
vt 0.900452 0.246460
vn 0.007874 -1.000000 -0.007874
v 26.938120 7.269787 2.879111
vt 0.803009 0.390106
vn 0.015748 -1.000000 0.000000
v 45.496328 6.609372 -24.971266
vt 0.785797 0.663727
vn 0.496063 0.874016 0.055118
v 19.337352 20.590937 -25.874070
vt 0.574921 0.708008
vn 0.653543 0.740157 0.196850
v 38.806522 3.345962 -13.731731
vt 0.785797 0.417023
vn 0.685039 0.724409 0.102362
v 26.938120 20.018298 2.879111
vt 0.574921 0.089020
vn 0.535433 0.850394 0.023622
v 38.413420 3.750361 8.155586
vt 0.785797 0.027832
vn 0.748031 0.582677 0.307087
v 5.974218 21.194923 21.470054
vt 0.574921 0.009979
vn 0.000000 0.889764 0.464567
v 18.598225 9.956379 27.691059
vt 0.785797 0.275848
vn 0.472441 0.669291 0.582677
v 19.765763 20.018298 16.170820
vt 0.574921 0.438568
vn 0.433071 0.818898 0.385827
v 38.413420 3.750361 8.155586
vt 0.785797 0.721436
vn 0.748031 0.582677 0.307087
v 26.938120 20.018298 2.879111
vt 0.574921 0.721436
vn 0.535433 0.850394 0.023622
v -19.678668 8.316837 -43.338404
vt 0.785797 0.427124
vn -0.496063 0.811024 -0.322835
v -33.547892 6.609372 -24.971266
vt 0.785797 0.041351
vn -0.496063 0.874016 0.055118
v -7.388916 20.754995 -32.542684
vt 0.574921 0.286102
vn -0.425197 0.881890 -0.212598
v -7.388916 20.590937 -25.874070
vt 0.574921 0.141754
vn -0.653543 0.740157 0.196850
v -26.462630 3.750361 8.155586
vt 0.785797 0.027832
vn -0.748031 0.582677 0.307087
v -14.989684 20.018298 2.879111
vt 0.574921 0.089020
vn -0.535433 0.850394 0.023622
v -26.855733 3.345962 -13.731731
vt 0.785797 0.417023
vn -0.685039 0.724409 0.102362
v -7.388916 20.590937 -25.874070
vt 0.574921 0.708008
vn -0.653543 0.740157 0.196850
v -33.547892 6.609372 -24.971266
vt 0.785797 0.663727
vn -0.496063 0.874016 0.055118
v 19.337352 20.590937 -25.874070
vt 0.574921 0.141754
vn 0.653543 0.740157 0.196850
v 45.496328 6.609372 -24.971266
vt 0.785797 0.041351
vn 0.496063 0.874016 0.055118
v 19.337352 20.754995 -32.542684
vt 0.574921 0.286102
vn 0.425197 0.881890 -0.212598
v 31.627104 8.316837 -43.338404
vt 0.785797 0.427124
vn 0.496063 0.811024 -0.322835
v 5.974218 23.480251 -32.542684
vt 0.579498 0.720734
vn 0.000000 0.984252 -0.181102
v 19.337352 20.754995 -32.542684
vt 0.574921 0.358368
vn 0.425197 0.881890 -0.212598
v 5.974218 19.739294 -52.893716
vt 0.597321 0.720734
vn 0.000000 0.952756 -0.299213
v 31.627104 8.316837 -43.338404
vt 0.785797 0.281433
vn 0.496063 0.811024 -0.322835
v 5.974218 11.880150 -75.342440
vt 0.785797 0.720734
vn 0.000000 0.944882 -0.330709
v -19.678668 8.316837 -43.338404
vt 0.785797 0.281433
vn -0.496063 0.811024 -0.322835
v -7.388916 20.754995 -32.542684
vt 0.574921 0.358368
vn -0.425197 0.881890 -0.212598
v -5.976572 7.538341 20.180333
vt 0.575653 0.325623
vn 0.464567 0.740157 -0.488189
v -6.647435 17.417393 33.085126
vt 0.788300 0.204041
vn 0.212598 0.755906 -0.622047
v 5.974218 16.157171 30.634656
vt 0.788300 0.009979
vn 0.000000 0.708661 -0.708661
v -18.537023 27.988208 2.700827
vt 0.989990 0.613800
vn -0.157480 0.070866 0.992126
v -18.537023 22.476044 -3.998134
vt 0.989990 0.676819
vn -0.062992 -1.000000 0.015748
v 0.732065 22.656822 -12.134753
vt 0.869446 0.695709
vn -0.748031 0.456693 -0.488189
v -18.537023 27.988208 -11.637831
vt 0.989990 0.737518
vn -0.133858 0.062992 -0.992126
v -18.537023 33.455439 -4.271251
vt 0.989990 0.674255
vn -0.196850 0.984252 0.000000
v 0.023539 11.652349 3.505005
vt 0.420105 0.268890
vn 0.000000 0.165354 -0.992126
v 12.004929 11.652349 3.505005
vt 0.385437 0.268890
vn 0.000000 0.165354 -0.992126
v 0.023539 -2.492230 1.046950
vt 0.420105 0.077576
vn 0.000000 0.598425 -0.803150
v 12.004929 -2.492230 1.046950
vt 0.385437 0.077576
vn 0.000000 0.598425 -0.803150
v 0.023539 -7.728524 -9.483239
vt 0.420105 0.241577
vn 0.000000 1.000000 0.000000
v 12.004929 -7.728524 -9.483239
vt 0.385437 0.241577
vn 0.000000 1.000000 0.000000
v 12.004929 -2.492230 -20.017222
vt 0.385437 0.077576
vn 0.000000 0.598425 0.803150
v 0.023539 11.652349 -22.475277
vt 0.420105 0.268890
vn -0.535433 -0.141732 -0.834646
v 0.023539 -2.492230 -20.017222
vt 0.420105 0.077576
vn -0.598425 -0.480315 -0.645669
v 12.004929 11.652349 3.505005
vt 0.385437 0.268890
vn 0.535433 -0.141732 0.834646
v -7.388916 20.590937 -25.874070
vt 0.843658 0.136047
vn -0.653543 0.740157 0.196850
v -14.989684 20.018298 2.879111
vt 0.803040 0.312225
vn -0.535433 0.850394 0.023622
v -6.974628 22.476044 1.153162
vt 0.888306 0.287018
vn -0.370079 0.181102 0.913386
v -7.817327 20.018298 16.170820
vt 0.843567 0.470276
vn -0.433071 0.818898 0.385827
v 5.974218 22.476044 2.363223
vt 0.989990 0.287323
vn 0.000000 0.566929 0.826772
v 30.485458 27.988208 2.700827
vt 0.439148 0.064362
vn 0.157480 0.070866 0.992126
v 30.485458 22.476044 -3.998134
vt 0.504974 0.064362
vn 0.062992 -1.000000 0.015748
v 30.485458 27.988208 -11.637831
vt 0.566559 0.064362
vn 0.133858 0.062992 -0.992126
v -18.537023 27.988208 -11.637831
vt 0.566559 0.064362
vn -0.133858 0.062992 -0.992126
v -18.537023 22.476044 -3.998134
vt 0.504974 0.064362
vn -0.062992 -1.000000 0.015748
v -18.537023 27.988208 2.700827
vt 0.439148 0.064362
vn -0.157480 0.070866 0.992126
v -14.989684 20.018298 2.879111
vt 0.574921 0.721436
vn -0.535433 0.850394 0.023622
v -26.462630 3.750361 8.155586
vt 0.785797 0.721436
vn -0.748031 0.582677 0.307087
v -7.817327 20.018298 16.170820
vt 0.574921 0.438568
vn -0.433071 0.818898 0.385827
v -6.647435 9.956379 27.691059
vt 0.785797 0.275848
vn -0.472441 0.669291 0.582677
v 5.974218 12.930335 32.861321
vt 0.785797 0.009979
vn 0.000000 0.811024 0.590551
v 3.413166 32.863992 -9.600832
vt 0.961243 0.218536
vn -0.291339 0.866142 -0.417323
v 19.337352 20.590937 -25.874070
vt 0.843658 0.136047
vn 0.653543 0.740157 0.196850
v 26.938120 20.018298 2.879111
vt 0.803040 0.312225
vn 0.535433 0.850394 0.023622
v 18.925418 22.476044 1.153162
vt 0.888306 0.287018
vn 0.370079 0.181102 0.913386
v 19.765763 20.018298 16.170820
vt 0.843567 0.470276
vn 0.433071 0.818898 0.385827
v 5.974218 21.194923 21.470054
vt 0.989990 0.580841
vn 0.000000 0.889764 0.464567
v 30.485458 27.988208 2.700827
vt 0.989990 0.613800
vn 0.157480 0.070866 0.992126
v 30.485458 22.476044 -3.998134
vt 0.989990 0.676819
vn 0.062992 -1.000000 0.015748
v 11.216370 22.656822 -12.134753
vt 0.869446 0.695709
vn 0.748031 0.456693 -0.488189
v 30.485458 27.988208 -11.637831
vt 0.989990 0.737518
vn 0.133858 0.062992 -0.992126
v 30.485458 33.455439 -4.271251
vt 0.989990 0.674255
vn 0.196850 0.984252 0.000000
f 1/1/1 2/2/2 3/3/3
f 4/4/4 5/5/5 6/6/6
f 7/7/7 8/8/8 9/9/9
f 10/10/10 11/11/11 12/12/12
f 13/13/13 14/14/14 15/15/15
f 16/16/16 17/17/17 18/18/18
f 19/19/19 20/20/20 21/21/21
f 22/22/22 23/23/23 24/24/24
f 24/24/24 23/23/23 25/25/25
f 24/24/24 25/25/25 26/26/26
f 27/27/27 28/28/28 29/29/29
f 30/30/30 31/31/31 32/32/32
f 32/32/32 31/31/31 33/33/33
f 32/32/32 33/33/33 34/34/34
f 35/35/35 36/36/36 37/37/37
f 37/37/37 36/36/36 38/38/38
f 37/37/37 38/38/38 39/39/39
f 39/39/39 38/38/38 40/40/40
f 41/41/41 42/42/42 43/43/43
f 42/42/42 44/44/44 43/43/43
f 43/43/43 44/44/44 45/45/45
f 43/43/43 45/45/45 46/46/46
f 47/47/47 48/48/48 49/49/49
f 49/49/49 48/48/48 50/50/50
f 49/49/49 50/50/50 51/51/51
f 52/52/52 53/53/53 54/54/54
f 54/54/54 53/53/53 55/55/55
f 54/54/54 55/55/55 56/56/56
f 57/57/57 1/1/1 3/3/3
f 58/58/58 59/59/59 60/60/60
f 60/60/60 59/59/59 61/61/61
f 62/62/62 2/2/2 63/63/63
f 64/64/64 65/65/65 66/66/66
f 65/65/65 67/67/67 66/66/66
f 66/66/66 67/67/67 52/52/52
f 66/66/66 52/52/52 68/68/68
f 68/68/68 52/52/52 54/54/54
f 69/69/69 70/70/70 71/71/71
f 71/71/71 70/70/70 72/72/72
f 71/71/71 72/72/72 73/73/73
f 2/2/2 1/1/1 63/63/63
f 63/63/63 1/1/1 57/57/57
f 63/63/63 57/57/57 74/74/74
f 75/75/75 76/76/76 77/77/77
f 77/77/77 76/76/76 78/78/78
f 79/79/79 80/80/80 81/81/81
f 82/82/82 83/83/83 84/84/84
f 85/85/85 86/86/86 87/87/87
f 5/5/5 4/4/4 88/88/88
f 89/89/89 90/90/90 91/91/91
f 91/91/91 90/90/90 92/92/92
f 93/93/93 94/94/94 95/95/95
f 96/96/96 97/97/97 98/98/98
f 98/98/98 97/97/97 99/99/99
f 100/100/100 101/101/101 102/102/102
f 103/103/103 101/101/101 104/104/104
f 105/105/105 106/106/106 107/107/107
f 107/107/107 106/106/106 95/95/95
f 107/107/107 95/95/95 108/108/108
f 108/108/108 95/95/95 94/94/94
f 109/109/109 110/110/110 17/17/17
f 111/111/111 80/80/80 112/112/112
f 113/113/113 114/114/114 115/115/115
f 116/116/116 117/117/117 118/118/118
f 118/118/118 117/117/117 119/119/119
f 118/118/118 119/119/119 120/120/120
f 80/80/80 121/121/121 112/112/112
f 112/112/112 121/121/121 81/81/81
f 112/112/112 81/81/81 111/111/111
f 122/122/122 123/123/123 124/124/124
f 124/124/124 123/123/123 125/125/125
f 126/126/126 127/127/127 128/128/128
f 104/104/104 100/100/100 103/103/103
f 103/103/103 100/100/100 129/129/129
f 103/103/103 129/129/129 101/101/101
f 130/130/130 131/131/131 132/132/132
f 132/132/132 131/131/131 133/133/133
f 132/132/132 133/133/133 134/134/134
f 8/8/8 7/7/7 135/135/135
f 136/136/136 137/137/137 4/4/4
f 4/4/4 137/137/137 18/18/18
f 4/4/4 18/18/18 138/138/138
f 114/114/114 16/16/16 115/115/115
f 115/115/115 16/16/16 18/18/18
f 115/115/115 18/18/18 139/139/139
f 139/139/139 18/18/18 137/137/137
f 11/11/11 10/10/10 140/140/140
f 125/125/125 141/141/141 124/124/124
f 124/124/124 141/141/141 142/142/142
f 124/124/124 142/142/142 143/143/143
f 143/143/143 144/144/144 124/124/124
f 124/124/124 144/144/144 145/145/145
f 124/124/124 145/145/145 122/122/122
f 146/146/146 147/147/147 148/148/148
f 148/148/148 147/147/147 149/149/149
f 148/148/148 149/149/149 150/150/150
f 151/151/151 152/152/152 153/153/153
f 153/153/153 152/152/152 154/154/154
f 153/153/153 154/154/154 155/155/155
f 156/156/156 157/157/157 158/158/158
f 158/158/158 157/157/157 159/159/159
f 160/160/160 161/161/161 162/162/162
f 162/162/162 161/161/161 163/163/163
f 162/162/162 163/163/163 164/164/164
f 165/165/165 166/166/166 167/167/167
f 167/167/167 166/166/166 168/168/168
f 169/169/169 170/170/170 171/171/171
f 171/171/171 170/170/170 172/172/172
f 171/171/171 172/172/172 173/173/173
f 173/173/173 174/174/174 171/171/171
f 171/171/171 174/174/174 175/175/175
f 171/171/171 175/175/175 169/169/169
f 14/14/14 13/13/13 176/176/176
f 176/176/176 13/13/13 177/177/177
f 176/176/176 177/177/177 35/35/35
f 35/35/35 177/177/177 178/178/178
f 35/35/35 178/178/178 36/36/36
f 7/7/7 179/179/179 135/135/135
f 135/135/135 179/179/179 180/180/180
f 135/135/135 180/180/180 181/181/181
f 181/181/181 180/180/180 182/182/182
f 181/181/181 182/182/182 96/96/96
f 96/96/96 182/182/182 183/183/183
f 96/96/96 183/183/183 97/97/97
f 184/184/184 185/185/185 186/186/186
f 186/186/186 185/185/185 187/187/187
f 186/186/186 187/187/187 188/188/188
f 188/188/188 187/187/187 189/189/189
f 188/188/188 189/189/189 86/86/86
f 86/86/86 189/189/189 190/190/190
f 86/86/86 190/190/190 87/87/87
f 191/191/191 93/93/93 192/192/192
f 192/192/192 93/93/93 95/95/95
f 192/192/192 95/95/95 116/116/116
f 116/116/116 95/95/95 106/106/106
f 116/116/116 106/106/106 117/117/117
f 117/117/117 106/106/106 105/105/105
f 117/117/117 105/105/105 119/119/119
f 119/119/119 105/105/105 193/193/193
f 17/17/17 16/16/16 109/109/109
f 109/109/109 16/16/16 194/194/194
f 109/109/109 194/194/194 110/110/110
f 110/110/110 194/194/194 195/195/195
f 110/110/110 195/195/195 196/196/196
f 196/196/196 195/195/195 197/197/197
f 196/196/196 197/197/197 198/198/198
f 111/111/111 199/199/199 80/80/80
f 80/80/80 199/199/199 200/200/200
f 80/80/80 200/200/200 81/81/81
f 81/81/81 200/200/200 201/201/201
f 81/81/81 201/201/201 111/111/111
f 104/104/104 202/202/202 100/100/100
f 100/100/100 202/202/202 203/203/203
f 100/100/100 203/203/203 101/101/101
f 101/101/101 203/203/203 204/204/204
f 101/101/101 204/204/204 104/104/104
f 205/205/205 206/206/206 207/207/207
f 207/207/207 206/206/206 208/208/208
f 207/207/207 208/208/208 151/151/151
f 151/151/151 208/208/208 209/209/209
f 151/151/151 209/209/209 152/152/152
f 110/110/110 210/210/210 17/17/17
f 17/17/17 210/210/210 130/130/130
f 17/17/17 130/130/130 18/18/18
f 18/18/18 130/130/130 132/132/132
f 18/18/18 132/132/132 138/138/138
f 138/138/138 132/132/132 134/134/134
f 138/138/138 134/134/134 211/211/211
f 211/211/211 134/134/134 133/133/133
f 211/211/211 133/133/133 212/212/212
f 212/212/212 133/133/133 213/213/213
f 212/212/212 213/213/213 214/214/214
f 214/214/214 213/213/213 198/198/198
f 214/214/214 198/198/198 215/215/215
f 215/215/215 198/198/198 197/197/197
f 183/183/183 179/179/179 97/97/97
f 97/97/97 179/179/179 7/7/7
f 97/97/97 7/7/7 216/216/216
f 216/216/216 7/7/7 9/9/9
f 216/216/216 9/9/9 217/217/217
f 217/217/217 9/9/9 218/218/218
f 217/217/217 218/218/218 219/219/219
f 219/219/219 218/218/218 99/99/99
f 219/219/219 99/99/99 220/220/220
f 220/220/220 99/99/99 97/97/97
f 220/220/220 97/97/97 216/216/216
g mesh01
