mtllib 3108-0.mtl
g mesh00
usemtl texture00
v 13.928487 -3.952012 -10.335565
vt 0.722656 0.527344
vn 0.590551 0.401575 -0.700787
v 15.161868 -10.205351 -11.187955
vt 0.722656 0.636719
vn 0.685039 0.196850 -0.708661
v 8.984165 -10.142848 -16.218938
vt 0.838013 0.636719
vn 0.338583 0.275591 -0.905512
v 19.376958 6.311743 -0.966669
vt 0.566406 0.186737
vn 0.937008 -0.338583 -0.094488
v 16.810529 2.680441 -1.021120
vt 0.566406 0.332031
vn 0.929134 -0.220472 -0.307087
v 11.858732 8.001364 -11.130143
vt 0.734863 0.186737
vn 0.551181 -0.393701 -0.740157
v -17.541421 -24.589157 -14.180731
vt 0.722656 0.910156
vn -0.519685 0.330709 -0.787402
v -9.218382 -17.036583 -17.158046
vt 0.838013 0.777344
vn -0.322835 0.165354 -0.937008
v 0.000000 -23.915973 -20.177039
vt 0.980377 0.910156
vn 0.000000 0.236220 -0.976378
v 10.287313 -7.337401 14.987409
vt 0.167969 0.527344
vn 0.354331 0.370079 0.866142
v 11.661889 -14.133796 16.068358
vt 0.167969 0.636719
vn 0.362205 0.196850 0.913386
v 20.176787 -13.076374 10.333548
vt 0.292969 0.636719
vn 0.716535 0.228346 0.661417
v -19.312175 -5.463346 3.677781
vt 0.386719 0.527344
vn -0.905512 0.385827 0.196850
v -17.922648 -6.238994 10.002810
vt 0.292969 0.527344
vn -0.716535 0.417323 0.559055
v -14.502403 -1.948853 9.664677
vt 0.292969 0.441406
vn -0.637795 0.299213 0.708661
v -20.176787 -13.076374 10.333548
vt 0.292969 0.636719
vn -0.716535 0.228346 0.661417
v -11.661889 -14.133796 16.068358
vt 0.167969 0.636719
vn -0.362205 0.196850 0.913386
v -10.287313 -7.337401 14.987409
vt 0.167969 0.527344
vn -0.354331 0.370079 0.866142
v -16.018175 -17.034534 -12.041017
vt 0.722656 0.777344
vn -0.669291 0.244094 -0.700787
v -20.924291 -10.970752 -4.666634
vt 0.566406 0.636719
vn -0.858268 0.244094 -0.448819
v -15.161868 -10.205351 -11.187955
vt 0.722656 0.636719
vn -0.685039 0.196850 -0.708661
v 14.502403 -1.948853 9.664677
vt 0.292969 0.441406
vn 0.637795 0.299213 0.708661
v 17.922648 -6.238994 10.002810
vt 0.292969 0.527344
vn 0.716535 0.417323 0.559055
v 19.312175 -5.463346 3.677781
vt 0.386719 0.527344
vn 0.905512 0.385827 0.196850
v 21.313824 -12.023051 3.443172
vt 0.386719 0.636719
vn 0.968504 0.259843 0.094488
v 20.924291 -10.970752 -4.666634
vt 0.566406 0.636719
vn 0.858268 0.244094 -0.448819
v 9.218382 -17.036583 -17.158046
vt 0.838013 0.777344
vn 0.322835 0.165354 -0.937008
v 0.004153 -17.037607 -18.291429
vt 0.980377 0.777344
vn 0.000000 0.181102 -0.984252
v 0.004153 -13.558976 -17.918340
vt 0.980377 0.699219
vn 0.000000 0.133858 -0.992126
v 19.293902 -4.687699 -3.866005
vt 0.566406 0.527344
vn 0.858268 0.440945 -0.251969
v 11.334649 -0.633224 -9.676778
vt 0.722656 0.441406
vn 0.488189 0.354331 -0.803150
v 11.244118 2.705033 -10.160112
vt 0.734863 0.332031
vn 0.566929 -0.228346 -0.795276
v 17.113683 -1.019510 -1.118594
vt 0.566406 0.441406
vn 0.913386 0.362205 -0.181102
v 0.000831 5.691840 -15.382682
vt 0.980377 0.186737
vn 0.007874 -0.472441 -0.881890
v 0.005814 2.636382 -12.354949
vt 0.980377 0.332031
vn 0.000000 -0.291339 -0.960630
v -11.845443 7.101735 -11.130143
vt 0.734863 0.186737
vn -0.535433 -0.433071 -0.724409
v 9.703429 6.981853 17.198380
vt 0.175781 0.186737
vn 0.377953 -0.598425 0.708661
v 0.003322 5.236902 15.796777
vt 0.009979 0.186737
vn 0.000000 -0.464567 0.889764
v 9.220874 0.928318 12.296465
vt 0.167969 0.332031
vn 0.346457 -0.267717 0.897638
v -9.703429 6.981853 17.198380
vt 0.175781 0.186737
vn -0.377953 -0.598425 0.708661
v -9.218382 0.928318 12.297137
vt 0.167969 0.332031
vn -0.346457 -0.267717 0.897638
v -0.017442 0.673184 14.487941
vt 0.009979 0.332031
vn 0.000000 -0.173228 0.992126
v 0.705145 -14.527255 18.198661
vt 0.009979 0.636719
vn 0.181102 0.173228 0.968504
v 11.661889 -14.133796 16.068358
vt 0.167969 0.636719
vn 0.362205 0.196850 0.913386
v 0.368769 -7.995216 16.731179
vt 0.009979 0.527344
vn 0.141732 0.377953 0.921260
v 0.252490 -3.842376 14.111491
vt 0.009979 0.441406
vn 0.204724 0.125984 0.976378
v 9.261572 -2.409938 11.972449
vt 0.167969 0.441406
vn 0.283465 0.251969 0.929134
v -19.376958 6.311743 -0.966669
vt 0.566406 0.186737
vn -0.937008 -0.354331 -0.094488
v -11.244118 2.705033 -10.160112
vt 0.734863 0.332031
vn -0.566929 -0.251969 -0.787402
v 0.003322 -0.666012 -12.104879
vt 0.980377 0.441406
vn 0.000000 0.393701 -0.921260
v -1.321421 -22.116716 19.310532
vt 0.009979 0.777344
vn -0.196850 0.157480 0.968504
v -14.489945 -29.339358 17.709948
vt 0.167969 0.910156
vn -0.393701 0.251969 0.889764
v -1.999157 -29.962336 20.736336
vt 0.009979 0.910156
vn -0.212598 0.244094 0.944882
v -15.700071 -32.629457 18.314285
vt 0.167969 0.989990
vn -0.385827 0.322835 0.866142
v -2.676063 -33.575194 22.017610
vt 0.009979 0.989990
vn -0.220472 0.314961 0.929134
v 13.117030 -21.883100 16.852853
vt 0.167969 0.777344
vn 0.448819 0.165354 0.881890
v 1.377899 -22.116716 19.315238
vt 0.009979 0.777344
vn 0.196850 0.157480 0.968504
v 2.050652 -29.962336 20.743059
vt 0.009979 0.910156
vn 0.220472 0.244094 0.944882
v 16.810529 2.680441 -1.021120
vt 0.566406 0.332031
vn 0.929134 -0.220472 -0.307087
v 16.811359 2.058489 6.244362
vt 0.386719 0.332031
vn 0.944882 -0.149606 0.307087
v 15.414358 8.286212 10.709998
vt 0.269531 0.186737
vn 0.771654 -0.244094 0.590551
v 14.367853 1.492891 9.602832
vt 0.292969 0.332031
vn 0.653543 -0.102362 0.755906
v -13.928487 -3.952012 -10.335565
vt 0.722656 0.527344
vn -0.590551 0.401575 -0.700787
v -19.293902 -4.687699 -3.866005
vt 0.566406 0.527344
vn -0.858268 0.440945 -0.251969
v -17.113683 -1.019510 -1.118594
vt 0.566406 0.441406
vn -0.913386 0.362205 -0.181102
v -17.021491 -1.488793 6.253101
vt 0.386719 0.441406
vn -0.929134 0.173228 0.330709
v -24.648521 -25.374026 -7.398584
vt 0.566406 0.910156
vn -0.834646 0.433071 -0.338583
v -22.518966 -18.177000 -5.607086
vt 0.566406 0.777344
vn -0.881890 0.291339 -0.362205
v -25.406822 -26.642523 2.067785
vt 0.386719 0.910156
vn -0.921260 0.393701 0.070866
v -23.079594 -19.327664 2.998826
vt 0.386719 0.777344
vn -0.968504 0.259843 0.070866
v -24.367792 -27.823925 10.315398
vt 0.292969 0.910156
vn -0.748031 0.314961 0.590551
v -21.996544 -20.357420 10.384638
vt 0.292969 0.777344
vn -0.818898 0.220472 0.535433
v -13.117030 -21.883100 16.852853
vt 0.167969 0.777344
vn -0.448819 0.173228 0.881890
v 22.518966 -18.177000 -5.607086
vt 0.566406 0.777344
vn 0.881890 0.291339 -0.362205
v 16.018175 -17.034534 -12.041017
vt 0.722656 0.777344
vn 0.669291 0.244094 -0.700787
v 8.984165 -10.142848 -16.218938
vt 0.838013 0.636719
vn 0.338583 0.275591 -0.905512
v -14.367853 1.492891 9.602832
vt 0.292969 0.332031
vn -0.653543 -0.102362 0.755906
v -15.414358 8.286212 10.709998
vt 0.269531 0.186737
vn -0.771654 -0.244094 0.590551
v -16.811359 2.058489 6.244362
vt 0.386719 0.332031
vn -0.944882 -0.149606 0.307087
v -19.376958 6.311743 -0.966669
vt 0.566406 0.186737
vn -0.937008 -0.354331 -0.094488
v -16.810529 2.680441 -1.021120
vt 0.566406 0.332031
vn -0.929134 -0.228346 -0.299213
v -11.334649 -0.633224 -9.676778
vt 0.722656 0.441406
vn -0.488189 0.354331 -0.803150
v -6.962582 -4.491994 -13.455393
vt 0.861450 0.535156
vn -0.236220 0.511811 -0.826772
v 0.003322 -5.033000 -15.531245
vt 0.980377 0.550781
vn 0.000000 0.519685 -0.858268
v 14.367853 1.492891 9.602832
vt 0.292969 0.332031
vn 0.653543 -0.102362 0.755906
v 17.021491 -1.488793 6.253101
vt 0.386719 0.441406
vn 0.929134 0.173228 0.330709
v 16.811359 2.058489 6.244362
vt 0.386719 0.332031
vn 0.944882 -0.149606 0.307087
v 17.113683 -1.019510 -1.118594
vt 0.566406 0.441406
vn 0.913386 0.362205 -0.181102
v 11.244118 2.705033 -10.160112
vt 0.734863 0.332031
vn 0.566929 -0.228346 -0.795276
v -27.215781 -29.813764 1.810993
vt 0.386719 0.989990
vn -0.874016 0.488189 0.078740
v -26.256485 -31.032053 10.305987
vt 0.292969 0.989990
vn -0.748031 0.433071 0.503937
v -14.489945 -29.339358 17.709948
vt 0.167969 0.910156
vn -0.393701 0.251969 0.889764
v -13.117030 -21.883100 16.852853
vt 0.167969 0.777344
vn -0.448819 0.173228 0.881890
v -1.321421 -22.116716 19.310532
vt 0.009979 0.777344
vn -0.196850 0.157480 0.968504
v -0.643684 -14.527255 18.196644
vt 0.009979 0.636719
vn -0.173228 0.173228 0.968504
v 0.003322 -5.033000 -15.531245
vt 0.980377 0.550781
vn 0.000000 0.519685 -0.858268
v -8.984165 -10.142848 -16.218938
vt 0.838013 0.636719
vn -0.338583 0.275591 -0.905512
v -13.928487 -3.952012 -10.335565
vt 0.722656 0.527344
vn -0.590551 0.401575 -0.700787
v -16.810529 2.680441 -1.021120
vt 0.566406 0.332031
vn -0.929134 -0.228346 -0.299213
v -16.811359 2.058489 6.244362
vt 0.386719 0.332031
vn -0.944882 -0.149606 0.307087
v -14.367853 1.492891 9.602832
vt 0.292969 0.332031
vn -0.653543 -0.102362 0.755906
v 0.705145 -14.527255 18.198661
vt 0.009979 0.636719
vn 0.181102 0.173228 0.968504
v 1.377899 -22.116716 19.315238
vt 0.009979 0.777344
vn 0.196850 0.157480 0.968504
v 13.117030 -21.883100 16.852853
vt 0.167969 0.777344
vn 0.448819 0.165354 0.881890
v 21.996544 -20.357420 10.384638
vt 0.292969 0.777344
vn 0.818898 0.204724 0.535433
v 23.079594 -19.267210 2.998826
vt 0.386719 0.777344
vn 0.968504 0.251969 0.078740
v 25.406822 -26.642523 2.067785
vt 0.386719 0.910156
vn 0.921260 0.377953 0.094488
v 24.648521 -25.374026 -7.398584
vt 0.566406 0.910156
vn 0.834646 0.433071 -0.338583
v 26.258146 -28.493011 -8.294669
vt 0.566406 0.989990
vn 0.795276 0.519685 -0.322835
v 17.541421 -24.589157 -14.180731
vt 0.722656 0.910156
vn 0.519685 0.330709 -0.787402
v 18.827958 -27.642565 -15.451922
vt 0.722656 0.989990
vn 0.472441 0.480315 -0.740157
v 0.000000 -23.915973 -20.177039
vt 0.980377 0.910156
vn 0.000000 0.236220 -0.976378
v 0.000000 -26.997046 -21.613599
vt 0.980377 0.989990
vn 0.000000 0.456693 -0.889764
v -17.541421 -24.589157 -14.180731
vt 0.722656 0.910156
vn -0.519685 0.330709 -0.787402
v -18.827958 -27.642565 -15.451922
vt 0.722656 0.989990
vn -0.472441 0.480315 -0.740157
v -24.648521 -25.374026 -7.398584
vt 0.566406 0.910156
vn -0.834646 0.433071 -0.338583
v -26.258146 -28.493011 -8.294669
vt 0.566406 0.989990
vn -0.795276 0.519685 -0.322835
v -27.215781 -29.813764 1.810993
vt 0.386719 0.989990
vn -0.874016 0.488189 0.078740
v 0.004983 -10.081370 -17.325432
vt 0.980377 0.636719
vn 0.000000 0.291339 -0.960630
v 6.962582 -4.491994 -13.455393
vt 0.861450 0.535156
vn 0.236220 0.511811 -0.826772
v 11.334649 -0.633224 -9.676778
vt 0.722656 0.441406
vn 0.488189 0.354331 -0.803150
v 17.021491 -1.488793 6.253101
vt 0.386719 0.441406
vn 0.929134 0.173228 0.330709
v 14.502403 -1.948853 9.664677
vt 0.292969 0.441406
vn 0.637795 0.299213 0.708661
v 14.367853 1.492891 9.602832
vt 0.292969 0.332031
vn 0.653543 -0.102362 0.755906
v 9.220874 0.928318 12.296465
vt 0.167969 0.332031
vn 0.346457 -0.267717 0.897638
v 15.414358 8.286212 10.709998
vt 0.269531 0.186737
vn 0.771654 -0.244094 0.590551
v -9.703429 6.981853 17.198380
vt 0.175781 0.186737
vn -0.377953 -0.598425 0.708661
v -15.414358 8.286212 10.709998
vt 0.269531 0.186737
vn -0.771654 -0.244094 0.590551
v -9.218382 0.928318 12.297137
vt 0.167969 0.332031
vn -0.346457 -0.267717 0.897638
v -9.261572 -2.409938 11.972449
vt 0.167969 0.441406
vn -0.283465 0.251969 0.929134
v -10.287313 -7.337401 14.987409
vt 0.167969 0.527344
vn -0.354331 0.370079 0.866142
v -20.176787 -13.076374 10.333548
vt 0.292969 0.636719
vn -0.716535 0.228346 0.661417
v -21.313824 -12.023051 3.443172
vt 0.386719 0.636719
vn -0.968504 0.259843 0.094488
v -20.924291 -10.970752 -4.666634
vt 0.566406 0.636719
vn -0.858268 0.244094 -0.448819
v -8.984165 -10.142848 -16.218938
vt 0.838013 0.636719
vn -0.338583 0.275591 -0.905512
v -21.313824 -12.023051 3.443172
vt 0.386719 0.636719
vn -0.968504 0.259843 0.094488
v -0.301493 -7.995216 16.730507
vt 0.009979 0.527344
vn -0.141732 0.377953 0.921260
v -9.261572 -2.409938 11.972449
vt 0.167969 0.441406
vn -0.283465 0.251969 0.929134
v -0.327241 -3.842376 14.111491
vt 0.009979 0.441406
vn -0.204724 0.125984 0.976378
v -9.218382 0.928318 12.297137
vt 0.167969 0.332031
vn -0.346457 -0.267717 0.897638
v -0.039036 -3.888485 14.180731
vt 0.009979 0.441406
vn 0.000000 -0.062992 1.000000
v 20.176787 -13.076374 10.333548
vt 0.292969 0.636719
vn 0.716535 0.228346 0.661417
v 21.313824 -12.023051 3.443172
vt 0.386719 0.636719
vn 0.968504 0.259843 0.094488
v 23.079594 -19.267210 2.998826
vt 0.386719 0.777344
vn 0.968504 0.251969 0.078740
v 22.518966 -18.177000 -5.607086
vt 0.566406 0.777344
vn 0.881890 0.291339 -0.362205
v 24.648521 -25.374026 -7.398584
vt 0.566406 0.910156
vn 0.834646 0.433071 -0.338583
v 16.018175 -17.034534 -12.041017
vt 0.722656 0.777344
vn 0.669291 0.244094 -0.700787
v 17.541421 -24.589157 -14.180731
vt 0.722656 0.910156
vn 0.519685 0.330709 -0.787402
v 9.218382 -17.036583 -17.158046
vt 0.838013 0.777344
vn 0.322835 0.165354 -0.937008
v 0.004153 -17.037607 -18.291429
vt 0.980377 0.777344
vn 0.000000 0.181102 -0.984252
v 0.004153 -13.558976 -17.918340
vt 0.980377 0.699219
vn 0.000000 0.133858 -0.992126
v 0.004983 -10.081370 -17.325432
vt 0.980377 0.636719
vn 0.000000 0.291339 -0.960630
v 6.962582 -4.491994 -13.455393
vt 0.861450 0.535156
vn 0.236220 0.511811 -0.826772
v 11.858732 8.001364 -11.130143
vt 0.734863 0.186737
vn 0.551181 -0.393701 -0.740157
f 1/1/1 2/2/2 3/3/3
f 4/4/4 5/5/5 6/6/6
f 7/7/7 8/8/8 9/9/9
f 10/10/10 11/11/11 12/12/12
f 13/13/13 14/14/14 15/15/15
f 16/16/16 17/17/17 18/18/18
f 19/19/19 20/20/20 21/21/21
f 22/22/22 23/23/23 24/24/24
f 24/24/24 23/23/23 25/25/25
f 24/24/24 25/25/25 26/26/26
f 27/27/27 28/28/28 29/29/29
f 2/2/2 1/1/1 26/26/26
f 26/26/26 1/1/1 30/30/30
f 26/26/26 30/30/30 24/24/24
f 31/31/31 32/32/32 33/33/33
f 34/34/34 35/35/35 36/36/36
f 37/37/37 38/38/38 39/39/39
f 40/40/40 41/41/41 38/38/38
f 38/38/38 41/41/41 42/42/42
f 38/38/38 42/42/42 39/39/39
f 43/43/43 44/44/44 45/45/45
f 45/45/45 44/44/44 10/10/10
f 45/45/45 10/10/10 46/46/46
f 46/46/46 10/10/10 47/47/47
f 48/48/48 36/36/36 49/49/49
f 49/49/49 36/36/36 35/35/35
f 49/49/49 35/35/35 50/50/50
f 51/51/51 52/52/52 53/53/53
f 53/53/53 52/52/52 54/54/54
f 53/53/53 54/54/54 55/55/55
f 56/56/56 57/57/57 58/58/58
f 59/59/59 4/4/4 60/60/60
f 60/60/60 4/4/4 61/61/61
f 60/60/60 61/61/61 62/62/62
f 63/63/63 64/64/64 65/65/65
f 65/65/65 64/64/64 13/13/13
f 65/65/65 13/13/13 66/66/66
f 66/66/66 13/13/13 15/15/15
f 7/7/7 67/67/67 68/68/68
f 68/68/68 67/67/67 69/69/69
f 68/68/68 69/69/69 70/70/70
f 70/70/70 69/69/69 71/71/71
f 70/70/70 71/71/71 72/72/72
f 72/72/72 71/71/71 73/73/73
f 25/25/25 74/74/74 26/26/26
f 26/26/26 74/74/74 75/75/75
f 26/26/26 75/75/75 2/2/2
f 2/2/2 75/75/75 27/27/27
f 2/2/2 27/27/27 76/76/76
f 76/76/76 27/27/27 29/29/29
f 77/77/77 78/78/78 79/79/79
f 79/79/79 78/78/78 80/80/80
f 79/79/79 80/80/80 81/81/81
f 81/81/81 80/80/80 49/49/49
f 81/81/81 49/49/49 82/82/82
f 82/82/82 49/49/49 50/50/50
f 82/82/82 50/50/50 83/83/83
f 83/83/83 50/50/50 84/84/84
f 85/85/85 86/86/86 87/87/87
f 87/87/87 86/86/86 88/88/88
f 87/87/87 88/88/88 5/5/5
f 5/5/5 88/88/88 89/89/89
f 5/5/5 89/89/89 6/6/6
f 67/67/67 90/90/90 69/69/69
f 69/69/69 90/90/90 91/91/91
f 69/69/69 91/91/91 71/71/71
f 71/71/71 91/91/91 92/92/92
f 71/71/71 92/92/92 93/93/93
f 93/93/93 92/92/92 94/94/94
f 93/93/93 94/94/94 95/95/95
f 96/96/96 97/97/97 83/83/83
f 83/83/83 97/97/97 98/98/98
f 83/83/83 98/98/98 82/82/82
f 82/82/82 98/98/98 65/65/65
f 82/82/82 65/65/65 99/99/99
f 99/99/99 65/65/65 66/66/66
f 99/99/99 66/66/66 100/100/100
f 100/100/100 66/66/66 15/15/15
f 100/100/100 15/15/15 101/101/101
f 102/102/102 103/103/103 11/11/11
f 11/11/11 103/103/103 104/104/104
f 11/11/11 104/104/104 12/12/12
f 12/12/12 104/104/104 105/105/105
f 12/12/12 105/105/105 106/106/106
f 106/106/106 105/105/105 107/107/107
f 106/106/106 107/107/107 108/108/108
f 108/108/108 107/107/107 109/109/109
f 108/108/108 109/109/109 110/110/110
f 110/110/110 109/109/109 111/111/111
f 110/110/110 111/111/111 112/112/112
f 112/112/112 111/111/111 113/113/113
f 112/112/112 113/113/113 114/114/114
f 114/114/114 113/113/113 115/115/115
f 114/114/114 115/115/115 116/116/116
f 116/116/116 115/115/115 117/117/117
f 116/116/116 117/117/117 118/118/118
f 29/29/29 119/119/119 3/3/3
f 3/3/3 119/119/119 120/120/120
f 3/3/3 120/120/120 1/1/1
f 1/1/1 120/120/120 121/121/121
f 1/1/1 121/121/121 30/30/30
f 30/30/30 121/121/121 33/33/33
f 30/30/30 33/33/33 24/24/24
f 24/24/24 33/33/33 122/122/122
f 24/24/24 122/122/122 123/123/123
f 123/123/123 122/122/122 124/124/124
f 123/123/123 124/124/124 125/125/125
f 125/125/125 124/124/124 126/126/126
f 125/125/125 126/126/126 37/37/37
f 127/127/127 128/128/128 129/129/129
f 129/129/129 128/128/128 101/101/101
f 129/129/129 101/101/101 130/130/130
f 130/130/130 101/101/101 15/15/15
f 130/130/130 15/15/15 131/131/131
f 131/131/131 15/15/15 14/14/14
f 131/131/131 14/14/14 132/132/132
f 132/132/132 14/14/14 13/13/13
f 132/132/132 13/13/13 133/133/133
f 133/133/133 13/13/13 64/64/64
f 133/133/133 64/64/64 134/134/134
f 134/134/134 64/64/64 63/63/63
f 134/134/134 63/63/63 21/21/21
f 21/21/21 63/63/63 135/135/135
f 21/21/21 135/135/135 19/19/19
f 19/19/19 135/135/135 8/8/8
f 8/8/8 7/7/7 19/19/19
f 19/19/19 7/7/7 68/68/68
f 19/19/19 68/68/68 20/20/20
f 20/20/20 68/68/68 70/70/70
f 20/20/20 70/70/70 136/136/136
f 136/136/136 70/70/70 72/72/72
f 136/136/136 72/72/72 16/16/16
f 16/16/16 72/72/72 73/73/73
f 16/16/16 73/73/73 17/17/17
f 17/17/17 73/73/73 95/95/95
f 17/17/17 95/95/95 18/18/18
f 18/18/18 95/95/95 137/137/137
f 18/18/18 137/137/137 138/138/138
f 138/138/138 137/137/137 139/139/139
f 138/138/138 139/139/139 140/140/140
f 140/140/140 139/139/139 141/141/141
f 140/140/140 141/141/141 42/42/42
f 42/42/42 141/141/141 46/46/46
f 42/42/42 46/46/46 39/39/39
f 39/39/39 46/46/46 47/47/47
f 39/39/39 47/47/47 22/22/22
f 22/22/22 47/47/47 10/10/10
f 22/22/22 10/10/10 23/23/23
f 23/23/23 10/10/10 142/142/142
f 23/23/23 142/142/142 143/143/143
f 143/143/143 142/142/142 144/144/144
f 143/143/143 144/144/144 145/145/145
f 145/145/145 144/144/144 146/146/146
f 145/145/145 146/146/146 147/147/147
f 147/147/147 146/146/146 148/148/148
f 147/147/147 148/148/148 149/149/149
f 149/149/149 148/148/148 9/9/9
f 149/149/149 9/9/9 150/150/150
f 150/150/150 9/9/9 8/8/8
f 150/150/150 8/8/8 151/151/151
f 151/151/151 8/8/8 135/135/135
f 151/151/151 135/135/135 152/152/152
f 152/152/152 135/135/135 84/84/84
f 152/152/152 84/84/84 153/153/153
f 153/153/153 84/84/84 50/50/50
f 153/153/153 50/50/50 31/31/31
f 31/31/31 50/50/50 35/35/35
f 31/31/31 35/35/35 32/32/32
f 32/32/32 35/35/35 34/34/34
f 32/32/32 34/34/34 154/154/154
usemtl texture00
v 15.700071 -32.629457 18.314285
vt 0.167969 0.989990
vn 0.393701 0.322835 0.858268
v 14.489945 -29.339358 17.709948
vt 0.167969 0.910156
vn 0.401575 0.259843 0.881890
v 2.722575 -33.575194 22.027021
vt 0.009979 0.989990
vn 0.220472 0.314961 0.929134
v 23.856167 -27.823925 10.315398
vt 0.292969 0.910156
vn 0.748031 0.299213 0.590551
v 26.258146 -28.493011 -8.294669
vt 0.566406 0.989990
vn 0.795276 0.519685 -0.322835
v 25.406822 -26.642523 2.067785
vt 0.386719 0.910156
vn 0.921260 0.377953 0.094488
v 27.214951 -29.813764 1.810993
vt 0.386719 0.989990
vn 0.874016 0.480315 0.102362
v 23.856167 -27.823925 10.315398
vt 0.292969 0.910156
vn 0.748031 0.299213 0.590551
v 25.704993 -31.032053 10.305987
vt 0.292969 0.989990
vn 0.740157 0.425197 0.519685
v 25.406822 -26.642523 2.067785
vt 0.386719 0.910156
vn 0.921260 0.377953 0.094488
v 21.996544 -20.357420 10.384638
vt 0.292969 0.777344
vn 0.818898 0.204724 0.535433
v 13.117030 -21.883100 16.852853
vt 0.167969 0.777344
vn 0.448819 0.165354 0.881890
v 2.050652 -29.962336 20.743059
vt 0.009979 0.910156
vn 0.220472 0.244094 0.944882
f 155/155/155 156/156/156 157/157/157
f 156/156/156 155/155/155 158/158/158
f 159/159/159 160/160/160 161/161/161
f 161/161/161 160/160/160 162/162/162
f 161/161/161 162/162/162 163/163/163
f 163/163/163 162/162/162 155/155/155
f 164/164/164 165/165/165 158/158/158
f 158/158/158 165/165/165 166/166/166
f 158/158/158 166/166/166 156/156/156
f 156/156/156 166/166/166 167/167/167
f 156/156/156 167/167/167 157/157/157
usemtl texture00
v -8.344634 -2.644579 14.945731
vt 0.355469 0.024109
vn 0.000000 -0.212598 -0.984252
v 6.959260 -3.793194 15.468055
vt 0.035156 0.008606
vn 0.267717 -0.795276 0.551181
v -6.959260 -3.793194 15.468055
vt 0.324219 0.008606
vn -0.267717 -0.795276 0.551181
v -8.344634 0.419075 14.945731
vt 0.355469 0.086609
vn -0.354331 0.000000 0.937008
v -8.344634 -2.644579 14.945731
vt 0.355469 0.024109
vn -0.354331 0.000000 0.937008
v 8.344634 -2.644579 14.945731
vt 0.009979 0.024109
vn 0.354331 0.000000 0.937008
v 6.905274 1.567689 15.492255
vt 0.035156 0.105255
vn 0.267717 0.787402 0.559055
v 8.344634 0.419075 14.945731
vt 0.009979 0.086609
vn 0.354331 0.000000 0.937008
v -0.028239 -3.821883 16.400441
vt 0.175781 0.008606
vn 0.000000 -0.456693 0.889764
v -0.028239 1.567689 16.400441
vt 0.175781 0.105255
vn 0.000000 0.448819 0.897638
v -6.959260 1.567689 15.468055
vt 0.324219 0.105255
vn -0.267717 0.787402 0.559055
v -17.735772 1.241856 7.912169
vt 0.650726 0.055542
vn 0.535433 0.409449 0.740157
v -21.934252 1.814626 7.169353
vt 0.650909 0.008453
vn -0.574803 0.590551 0.566929
v -19.672638 -8.837465 6.482332
vt 0.817200 0.056000
vn 0.401575 -0.755906 0.519685
v -23.871117 -8.265719 5.740188
vt 0.817383 0.008881
vn -0.748031 -0.519685 0.409449
v -20.901866 3.115911 -1.634868
vt 0.439972 0.172424
vn -0.393701 0.748031 -0.527559
v -22.687569 -6.719547 -3.103022
vt 0.604034 0.172424
vn -0.527559 -0.401575 -0.748031
v -23.871117 -8.265719 5.740188
vt 0.604462 0.009979
vn -0.748031 -0.519685 0.409449
v -20.901866 3.115911 -1.634868
vt 0.650909 0.008453
vn -0.393701 0.748031 -0.527559
v -16.703387 2.543141 -0.892052
vt 0.650726 0.055542
vn 0.740157 0.519685 -0.425197
v -22.687569 -6.719547 -3.103022
vt 0.817383 0.008881
vn -0.527559 -0.401575 -0.748031
v -18.488260 -7.291293 -2.360878
vt 0.817200 0.056000
vn 0.574803 -0.574803 -0.582677
v -16.703387 2.543141 -0.892052
vt 0.633453 0.172424
vn 0.740157 0.519685 -0.425197
v -17.735772 1.241856 7.912169
vt 0.633881 0.009979
vn 0.535433 0.409449 0.740157
v -18.488260 -7.291293 -2.360878
vt 0.604034 0.172424
vn 0.574803 -0.574803 -0.582677
v -19.672638 -8.837465 6.482332
vt 0.604462 0.009979
vn 0.401575 -0.755906 0.519685
v -23.871117 -8.265719 5.740188
vt 0.633881 0.009979
vn -0.748031 -0.519685 0.409449
v -22.687569 -6.719547 -3.103022
vt 0.633453 0.172424
vn -0.527559 -0.401575 -0.748031
v -21.934252 1.814626 7.169353
vt 0.440399 0.009979
vn -0.574803 0.590551 0.566929
v -17.735772 1.241856 7.912169
vt 0.370087 0.009979
vn 0.535433 0.409449 0.740157
v -16.703387 2.543141 -0.892052
vt 0.369659 0.172424
vn 0.740157 0.519685 -0.425197
v 8.344634 -2.644579 14.945731
vt 0.009979 0.024109
vn 0.000000 -0.212598 -0.984252
v -8.344634 0.419075 14.945731
vt 0.355469 0.086609
vn 0.000000 0.212598 -0.976378
v 8.344634 0.419075 14.945731
vt 0.009979 0.086609
vn 0.000000 0.212598 -0.976378
f 168/168/168 169/169/169 170/170/170
f 171/171/171 172/172/172 170/170/170
f 169/169/169 173/173/173 174/174/174
f 174/174/174 173/173/173 175/175/175
f 176/176/176 177/177/177 178/178/178
f 179/179/179 180/180/180 181/181/181
f 181/181/181 180/180/180 182/182/182
f 183/183/183 184/184/184 185/185/185
f 186/186/186 187/187/187 188/188/188
f 188/188/188 187/187/187 189/189/189
f 190/190/190 191/191/191 192/192/192
f 191/191/191 193/193/193 192/192/192
f 192/192/192 193/193/193 194/194/194
f 192/192/192 194/194/194 195/195/195
f 185/185/185 196/196/196 183/183/183
f 183/183/183 196/196/196 197/197/197
f 183/183/183 197/197/197 198/198/198
f 169/169/169 168/168/168 199/199/199
f 199/199/199 168/168/168 200/200/200
f 199/199/199 200/200/200 201/201/201
f 201/201/201 200/200/200 178/178/178
f 201/201/201 178/178/178 174/174/174
f 174/174/174 178/178/178 177/177/177
f 174/174/174 177/177/177 169/169/169
f 169/169/169 177/177/177 176/176/176
f 169/169/169 176/176/176 170/170/170
f 170/170/170 176/176/176 178/178/178
f 170/170/170 178/178/178 171/171/171
usemtl texture00
v -26.256485 -31.032053 10.305987
vt 0.292969 0.989990
vn -0.748031 0.433071 0.503937
v -15.700071 -32.629457 18.314285
vt 0.167969 0.989990
vn -0.385827 0.322835 0.866142
v -14.489945 -29.339358 17.709948
vt 0.167969 0.910156
vn -0.393701 0.251969 0.889764
f 202/202/202 203/203/203 204/204/204
