mtllib 0418-0.mtl
g mesh00
usemtl texture00
v 1.232525 -5.316368 9.276062
vt 0.426331 0.970428
vn 0.346457 -0.874016 0.354331
v 0.000000 -4.569672 10.604319
vt 0.500000 0.945312
vn 0.000000 -0.503937 0.866142
v 0.000000 -5.291361 9.803428
vt 0.500000 0.981415
vn 0.000000 -0.921260 0.385827
v 4.392443 -1.577186 9.538515
vt 0.290558 0.808929
vn 0.590551 -0.464567 0.661417
v 5.459467 -2.198409 7.320379
vt 0.213379 0.830658
vn 0.740157 -0.582677 0.338583
v 5.816523 -0.168906 8.904527
vt 0.192078 0.709045
vn 0.811024 -0.314961 0.488189
v 6.768081 -0.579545 6.112687
vt 0.129028 0.746582
vn 0.905512 -0.385827 0.204724
v 7.224615 2.128653 6.807776
vt 0.091431 0.591187
vn 0.960630 -0.086614 0.283465
v 1.499577 -1.611845 11.168592
vt 0.434448 0.822632
vn 0.330709 0.157480 0.937008
v 2.974876 -1.116534 10.431264
vt 0.372131 0.808472
vn 0.464567 -0.291339 0.842520
v 1.321049 -1.174883 11.081654
vt 0.439209 0.801453
vn 0.346457 -0.299213 0.889764
v 0.000000 -0.566822 12.012541
vt 0.500000 0.760376
vn 0.000000 -0.070866 1.000000
v 2.075130 1.152508 11.500348
vt 0.391235 0.648224
vn 0.393701 -0.039370 0.921260
v 0.000000 0.634384 11.926014
vt 0.500000 0.703125
vn 0.000000 -0.590551 0.811024
v 0.930537 1.768905 12.967213
vt 0.457031 0.641388
vn 0.614173 -0.228346 0.755906
v 0.000000 1.389415 13.210392
vt 0.500000 0.664062
vn 0.000000 -0.637795 0.771654
v 0.000000 -0.754593 11.979735
vt 0.500000 0.768616
vn 0.000000 -0.417323 0.913386
v -1.345622 -0.747134 11.687756
vt 0.446960 0.769196
vn -0.275591 -0.543307 0.795276
v 0.000000 -5.634437 5.211736
vt 0.500000 0.988068
vn 0.000000 -0.992126 -0.149606
v -1.232525 -5.316368 9.276062
vt 0.426331 0.970428
vn -0.346457 -0.874016 0.354331
v -3.349697 -4.215628 7.166188
vt 0.265991 0.950989
vn -0.606299 -0.787402 0.149606
v -1.625109 -4.586782 9.957209
vt 0.405243 0.946045
vn -0.566929 -0.574803 0.590551
v -3.576484 -3.414970 8.343535
vt 0.277557 0.889954
vn -0.669291 -0.622047 0.401575
v 0.000000 -2.202796 11.609430
vt 0.500000 0.854828
vn 0.000000 -0.251969 0.968504
v -1.842126 -2.224732 11.071812
vt 0.424164 0.854736
vn -0.401575 -0.322835 0.858268
v 0.000000 -3.250451 10.796237
vt 0.500000 0.919281
vn 0.000000 -0.503937 0.866142
v -2.386000 -2.975376 10.118371
vt 0.396912 0.907532
vn -0.496063 -0.401575 0.771654
v -2.974876 -1.116534 10.431264
vt 0.372131 0.808472
vn -0.464567 -0.291339 0.842520
v -1.482997 -0.555415 11.709900
vt 0.444580 0.762299
vn -0.370079 -0.204724 0.905512
v -3.530889 0.820400 10.902448
vt 0.324402 0.661255
vn -0.433071 -0.102362 0.897638
v -2.075130 1.152508 11.500348
vt 0.391235 0.648224
vn -0.393701 -0.039370 0.921260
v 7.543479 3.837454 -0.550330
vt 0.011871 0.585938
vn 0.464567 -0.519685 -0.716535
v 7.437783 0.359309 2.271856
vt 0.050781 0.644531
vn 0.921260 -0.377953 0.102362
v 5.591512 -2.887194 3.034609
vt 0.047852 0.952118
vn 0.566929 -0.748031 -0.346457
v 5.678260 -2.633616 4.692572
vt 0.140625 0.875000
vn 0.771654 -0.629921 0.125984
v 3.349697 -4.215628 7.166188
vt 0.265991 0.950989
vn 0.606299 -0.779528 0.149606
v 3.576484 -3.414970 8.343535
vt 0.277557 0.889954
vn 0.669291 -0.622047 0.401575
v 1.625109 -4.586782 9.957209
vt 0.405243 0.946045
vn 0.566929 -0.574803 0.590551
v 2.386000 -2.975376 10.118371
vt 0.396912 0.907532
vn 0.496063 -0.401575 0.771654
v 3.530889 0.820400 10.902448
vt 0.324402 0.661255
vn 0.433071 -0.102362 0.897638
v 1.482997 -0.555415 11.709900
vt 0.444580 0.762299
vn 0.370079 -0.204724 0.905512
v 1.345622 -0.747134 11.687756
vt 0.446960 0.769196
vn 0.275591 -0.543307 0.795276
v 0.000000 -1.295530 11.532745
vt 0.500000 0.804779
vn 0.000000 -0.236220 0.976378
v -1.321049 -1.174883 11.081654
vt 0.439209 0.801453
vn -0.346457 -0.299213 0.889764
v -5.459467 -2.198409 7.320379
vt 0.213379 0.830658
vn -0.740157 -0.582677 0.338583
v -6.768081 -0.579545 6.112687
vt 0.129028 0.746582
vn -0.905512 -0.385827 0.204724
v -5.678260 -2.633616 4.692572
vt 0.140625 0.875000
vn -0.763780 -0.637795 0.118110
v -7.437783 0.359309 2.271856
vt 0.050781 0.644531
vn -0.921260 -0.377953 0.102362
v -5.527858 -2.887194 3.034609
vt 0.047852 0.952118
vn -0.559055 -0.755906 -0.354331
v -7.543479 3.837015 -0.550330
vt 0.011871 0.585938
vn -0.464567 -0.519685 -0.716535
v -3.824587 -3.020564 2.512164
vt 0.011871 0.987976
vn -0.259843 -0.692913 -0.669291
v -4.392443 -1.577186 9.538515
vt 0.290558 0.808929
vn -0.590551 -0.464567 0.661417
v -1.499577 -1.611845 11.168592
vt 0.434448 0.822632
vn -0.330709 0.157480 0.937008
v 0.000000 -1.643432 11.676274
vt 0.500000 0.823547
vn 0.000000 0.133858 0.992126
v 1.842126 -2.224732 11.071812
vt 0.424164 0.854736
vn 0.401575 -0.322835 0.858268
v 7.797208 5.748942 2.346901
vt 0.032227 0.372345
vn 0.992126 0.000000 0.157480
v -7.797504 5.748942 2.346901
vt 0.032227 0.372345
vn -0.992126 0.000000 0.157480
v -7.224615 2.128653 6.807776
vt 0.091431 0.591187
vn -0.960630 -0.086614 0.283465
v -5.816523 -0.168906 8.904527
vt 0.192078 0.709045
vn -0.811024 -0.314961 0.488189
v 0.000000 1.998354 13.437167
vt 0.500000 0.617188
vn 0.000000 0.125984 0.992126
v -0.930537 1.768905 12.967213
vt 0.457031 0.641388
vn -0.614173 -0.228346 0.755906
v 3.824587 -3.020564 2.512164
vt 0.011871 0.987976
vn 0.251969 -0.692913 -0.677165
f 1/1/1 2/2/2 3/3/3
f 4/4/4 5/5/5 6/6/6
f 6/6/6 5/5/5 7/7/7
f 6/6/6 7/7/7 8/8/8
f 9/9/9 10/10/10 11/11/11
f 12/12/12 13/13/13 14/14/14
f 14/14/14 13/13/13 15/15/15
f 14/14/14 15/15/15 16/16/16
f 17/17/17 12/12/12 18/18/18
f 19/19/19 20/20/20 21/21/21
f 21/21/21 20/20/20 22/22/22
f 21/21/21 22/22/22 23/23/23
f 24/24/24 25/25/25 26/26/26
f 26/26/26 25/25/25 27/27/27
f 26/26/26 27/27/27 2/2/2
f 28/28/28 29/29/29 30/30/30
f 30/30/30 29/29/29 31/31/31
f 32/32/32 33/33/33 34/34/34
f 34/34/34 33/33/33 35/35/35
f 34/34/34 35/35/35 36/36/36
f 36/36/36 35/35/35 37/37/37
f 36/36/36 37/37/37 38/38/38
f 38/38/38 37/37/37 39/39/39
f 40/40/40 41/41/41 10/10/10
f 10/10/10 41/41/41 42/42/42
f 10/10/10 42/42/42 11/11/11
f 11/11/11 42/42/42 43/43/43
f 11/11/11 43/43/43 9/9/9
f 40/40/40 13/13/13 41/41/41
f 41/41/41 13/13/13 12/12/12
f 41/41/41 12/12/12 42/42/42
f 42/42/42 12/12/12 17/17/17
f 42/42/42 17/17/17 43/43/43
f 43/43/43 17/17/17 18/18/18
f 43/43/43 18/18/18 44/44/44
f 45/45/45 46/46/46 47/47/47
f 47/47/47 46/46/46 48/48/48
f 47/47/47 48/48/48 49/49/49
f 49/49/49 48/48/48 50/50/50
f 49/49/49 50/50/50 51/51/51
f 51/51/51 19/19/19 49/49/49
f 49/49/49 19/19/19 21/21/21
f 49/49/49 21/21/21 47/47/47
f 47/47/47 21/21/21 23/23/23
f 47/47/47 23/23/23 45/45/45
f 52/52/52 27/27/27 28/28/28
f 28/28/28 27/27/27 25/25/25
f 28/28/28 25/25/25 53/53/53
f 53/53/53 25/25/25 24/24/24
f 53/53/53 24/24/24 54/54/54
f 9/9/9 55/55/55 10/10/10
f 10/10/10 55/55/55 39/39/39
f 10/10/10 39/39/39 4/4/4
f 4/4/4 39/39/39 37/37/37
f 4/4/4 37/37/37 5/5/5
f 5/5/5 37/37/37 35/35/35
f 5/5/5 35/35/35 7/7/7
f 7/7/7 35/35/35 33/33/33
f 7/7/7 33/33/33 8/8/8
f 8/8/8 33/33/33 56/56/56
f 57/57/57 48/48/48 58/58/58
f 58/58/58 48/48/48 46/46/46
f 58/58/58 46/46/46 59/59/59
f 59/59/59 46/46/46 45/45/45
f 59/59/59 45/45/45 52/52/52
f 52/52/52 45/45/45 23/23/23
f 52/52/52 23/23/23 27/27/27
f 27/27/27 23/23/23 22/22/22
f 27/27/27 22/22/22 2/2/2
f 2/2/2 22/22/22 20/20/20
f 2/2/2 20/20/20 3/3/3
f 3/3/3 20/20/20 19/19/19
f 3/3/3 19/19/19 1/1/1
f 15/15/15 60/60/60 16/16/16
f 16/16/16 60/60/60 61/61/61
f 16/16/16 61/61/61 14/14/14
f 14/14/14 61/61/61 31/31/31
f 14/14/14 31/31/31 12/12/12
f 12/12/12 31/31/31 29/29/29
f 12/12/12 29/29/29 18/18/18
f 18/18/18 29/29/29 28/28/28
f 18/18/18 28/28/28 44/44/44
f 44/44/44 28/28/28 53/53/53
f 44/44/44 53/53/53 43/43/43
f 43/43/43 53/53/53 54/54/54
f 43/43/43 54/54/54 9/9/9
f 9/9/9 54/54/54 24/24/24
f 9/9/9 24/24/24 55/55/55
f 55/55/55 24/24/24 26/26/26
f 55/55/55 26/26/26 39/39/39
f 39/39/39 26/26/26 2/2/2
f 39/39/39 2/2/2 38/38/38
f 38/38/38 2/2/2 1/1/1
f 38/38/38 1/1/1 36/36/36
f 36/36/36 1/1/1 19/19/19
f 36/36/36 19/19/19 34/34/34
f 34/34/34 19/19/19 62/62/62
f 34/34/34 62/62/62 32/32/32
usemtl texture00
v 1.732877 4.513955 10.779424
vt 0.401672 0.453766
vn 0.535433 0.023622 0.842520
v 0.890568 3.518068 12.354140
vt 0.464264 0.527893
vn 0.582677 0.346457 0.740157
v 2.018878 2.889826 11.175563
vt 0.387421 0.541290
vn 0.559055 0.244094 0.795276
v -6.274538 2.233067 8.885664
vt 0.178314 0.582886
vn -0.818898 -0.062992 0.566929
v -7.224615 2.128653 6.807776
vt 0.091431 0.591187
vn -0.960630 -0.086614 0.283465
v -5.816523 -0.168906 8.904527
vt 0.192078 0.709045
vn -0.811024 -0.314961 0.488189
v -7.797504 5.748942 2.346901
vt 0.032227 0.372345
vn -0.992126 0.000000 0.157480
v -7.534597 10.143127 2.082808
vt 0.011536 0.187500
vn -1.000000 0.110236 0.031496
v -7.543479 3.837015 -0.550330
vt 0.011536 0.585938
vn -0.992126 0.047244 -0.118110
v 0.000000 6.999723 12.373414
vt 0.500000 0.343750
vn 0.000000 -0.157480 0.992126
v 0.000000 5.888454 12.045348
vt 0.500000 0.375000
vn 0.000000 -0.165354 0.992126
v 1.507275 5.873099 11.408900
vt 0.410492 0.387756
vn 0.409449 -0.322835 0.850394
v 2.686212 4.281874 10.535015
vt 0.857361 0.125336
vn 0.267717 0.023622 0.968504
v 5.354363 4.257306 9.659899
vt 0.731964 0.128845
vn 0.551181 0.015748 0.834646
v 3.952784 5.136055 10.457509
vt 0.812561 0.075226
vn 0.299213 -0.149606 0.944882
v 6.274538 2.233067 8.885664
vt 0.178314 0.582886
vn 0.818898 -0.062992 0.566929
v 6.327534 3.806744 8.702357
vt 0.170898 0.502777
vn 0.818898 0.078740 0.574803
v 5.197448 2.486646 10.092536
vt 0.252838 0.570831
vn 0.590551 0.039370 0.811024
v 6.157000 7.217765 9.385144
vt 0.163483 0.297607
vn 0.811024 -0.015748 0.590551
v 3.898900 8.881817 11.370352
vt 0.327057 0.196869
vn 0.464567 0.141732 0.874016
v 3.897716 7.220398 11.495017
vt 0.328033 0.300049
vn 0.433071 -0.314961 0.842520
v 3.530889 0.820400 10.902448
vt 0.324402 0.661255
vn 0.433071 -0.102362 0.897638
v 2.974876 -1.116534 10.431264
vt 0.372131 0.808472
vn 0.464567 -0.291339 0.842520
v 4.855787 0.325089 10.151178
vt 0.258759 0.681580
vn 0.582677 -0.228346 0.779528
v 4.392443 -1.577186 9.538515
vt 0.290558 0.808929
vn 0.590551 -0.464567 0.661417
v 5.816523 -0.168906 8.904527
vt 0.192078 0.709045
vn 0.811024 -0.314961 0.488189
v 8.986507 6.701396 0.808682
vt 0.980042 0.367188
vn 0.866142 -0.086614 0.496063
v 7.797208 5.748942 2.346901
vt 0.882812 0.453125
vn 0.992126 0.000000 0.157480
v 7.437783 0.359309 2.271856
vt 0.851562 0.656250
vn 0.921260 -0.377953 0.102362
v 9.701212 5.572139 -0.869785
vt 0.971710 0.695374
vn -0.385827 0.322835 -0.866142
v 7.543479 3.837454 -0.550330
vt 0.947845 0.748047
vn -0.661417 0.141732 -0.732283
v 8.986507 6.701396 0.808682
vt 0.951477 0.686523
vn -0.685039 0.566929 -0.456693
v 7.797208 5.748942 2.346901
vt 0.932770 0.714844
vn -0.795276 0.535433 -0.283465
v 0.000000 3.679955 12.720343
vt 0.500000 0.500000
vn 0.000000 0.425197 0.905512
v 0.000000 5.062351 11.997778
vt 0.500000 0.406250
vn 0.000000 0.181102 0.984252
v 0.856520 4.965833 11.554069
vt 0.448853 0.433228
vn 0.574803 0.086614 0.818898
v 9.701212 5.572139 -0.869785
vt 0.987854 0.398438
vn 0.897638 -0.086614 0.440945
v 9.492485 3.339072 -0.904642
vt 0.987854 0.578125
vn 0.905512 -0.188976 0.385827
v 7.802537 0.346586 0.790229
vt 0.945312 0.648438
vn -0.236220 -0.685039 -0.685039
v -2.631735 5.986726 10.838886
vt 0.349609 0.363037
vn -0.307087 -0.338583 0.889764
v -1.507275 5.873099 11.408900
vt 0.410492 0.387756
vn -0.409449 -0.322835 0.850394
v -3.897716 7.220398 11.495017
vt 0.328033 0.300049
vn -0.433071 -0.314961 0.842520
v -7.437783 0.359309 2.271856
vt 0.939484 0.785919
vn -0.921260 -0.377953 0.102362
v -7.802537 0.346586 0.790229
vt 0.955017 0.783630
vn 0.236220 -0.685039 -0.685039
v -7.543479 3.837015 -0.550330
vt 0.947845 0.748047
vn 0.661417 0.141732 -0.732283
v -9.492485 3.339072 -0.904642
vt 0.987854 0.578125
vn -0.905512 -0.188976 0.385827
v -7.802537 0.346586 0.790229
vt 0.945312 0.648438
vn 0.236220 -0.685039 -0.685039
v -7.437783 0.359309 2.271856
vt 0.851562 0.656250
vn -0.921260 -0.377953 0.102362
v -3.952784 5.136055 10.457509
vt 0.303802 0.410553
vn -0.299213 -0.149606 0.944882
v -5.374496 5.919603 9.939165
vt 0.218140 0.367432
vn -0.574803 -0.196850 0.795276
v -6.157000 7.217765 9.385144
vt 0.163483 0.297607
vn -0.811024 -0.015748 0.590551
v -3.688397 10.769615 10.858159
vt 0.342621 0.059357
vn -0.417323 0.354331 0.842520
v -5.831918 10.219025 9.214550
vt 0.173157 0.090363
vn -0.779528 0.259843 0.574803
v -3.898900 8.881817 11.370352
vt 0.327057 0.196869
vn -0.464567 0.141732 0.874016
v 0.000000 8.999832 12.296728
vt 0.500000 0.201721
vn 0.000000 0.157480 0.992126
v 0.000000 11.049955 11.707440
vt 0.500000 0.059692
vn 0.000000 0.338583 0.944882
v -4.392443 -1.577186 9.538515
vt 0.290558 0.808929
vn -0.590551 -0.464567 0.661417
v -4.855787 0.325089 10.151178
vt 0.258759 0.681580
vn -0.582677 -0.228346 0.779528
v -2.974876 -1.116534 10.431264
vt 0.372131 0.808472
vn -0.464567 -0.291339 0.842520
v -3.530889 0.820400 10.902448
vt 0.324402 0.661255
vn -0.433071 -0.102362 0.897638
v -8.986507 6.701396 0.808682
vt 0.951477 0.686523
vn 0.685039 0.566929 -0.456693
v -7.797504 5.748942 2.346901
vt 0.932770 0.714844
vn 0.795276 0.535433 -0.283465
v -9.492485 3.339072 -0.904642
vt 0.975494 0.728973
vn 0.212598 -0.165354 -0.968504
v -9.701508 5.572139 -0.869785
vt 0.971710 0.695374
vn 0.385827 0.322835 -0.866142
v -5.354363 4.257306 9.659899
vt 0.223206 0.464172
vn -0.551181 0.015748 0.834646
v -6.257070 4.998737 8.480912
vt 0.167389 0.422974
vn -0.811024 -0.031496 0.582677
v -6.327534 3.806744 8.702357
vt 0.170898 0.502777
vn -0.818898 0.078740 0.574803
v -7.094346 5.261967 7.142404
vt 0.084656 0.386322
vn -0.937008 0.000000 0.362205
v 9.492485 3.339072 -0.904642
vt 0.975494 0.728973
vn -0.212598 -0.165354 -0.968504
v 7.802537 0.346586 0.790229
vt 0.955017 0.783630
vn -0.236220 -0.685039 -0.685039
v 7.437783 0.359309 2.271856
vt 0.939484 0.785919
vn 0.921260 -0.377953 0.102362
v -9.701508 5.572139 -0.869785
vt 0.987854 0.398438
vn -0.897638 -0.086614 0.440945
v -8.986507 6.701396 0.808682
vt 0.980042 0.367188
vn -0.866142 -0.086614 0.496063
v -7.797504 5.748942 2.346901
vt 0.882812 0.453125
vn -0.992126 0.000000 0.157480
v 3.688397 10.769615 10.858159
vt 0.342621 0.059357
vn 0.417323 0.354331 0.842520
v 5.831918 10.219025 9.214550
vt 0.173157 0.090363
vn 0.779528 0.259843 0.574803
v 7.181094 8.992374 6.495294
vt 0.082031 0.198242
vn 0.968504 0.110236 0.244094
v 7.094346 5.261967 7.142404
vt 0.084656 0.386322
vn 0.937008 0.000000 0.362205
v 7.797208 5.748942 2.346901
vt 0.032227 0.372345
vn 0.992126 0.000000 0.157480
v 7.224615 2.128653 6.807776
vt 0.091431 0.591187
vn 0.960630 -0.086614 0.283465
v 1.732877 4.513955 10.779424
vt 0.910431 0.118439
vn 0.535433 0.023622 0.842520
v 2.631735 5.986726 10.838886
vt 0.858337 0.027710
vn 0.307087 -0.338583 0.889764
v 5.374496 5.919603 9.939165
vt 0.726898 0.032104
vn 0.574803 -0.196850 0.795276
v 6.257070 4.998737 8.480912
vt 0.676147 0.087646
vn 0.811024 -0.031496 0.582677
v 6.327534 3.806744 8.702357
vt 0.679626 0.167450
vn 0.818898 0.078740 0.574803
v 2.018878 2.889826 11.175563
vt 0.896179 0.210815
vn 0.559055 0.244094 0.795276
v 3.596912 2.701178 10.743747
vt 0.832703 0.222839
vn 0.338583 0.181102 0.929134
v 5.197448 2.486646 10.092536
vt 0.761597 0.237915
vn 0.590551 0.039370 0.811024
v 6.257070 4.998737 8.480912
vt 0.167389 0.422974
vn 0.811024 -0.031496 0.582677
v 5.374496 5.919603 9.939165
vt 0.218140 0.367432
vn 0.574803 -0.196850 0.795276
v 2.631735 5.986726 10.838886
vt 0.349609 0.363037
vn 0.307087 -0.338583 0.889764
v 0.000000 14.375426 10.289785
vt 0.500000 0.011688
vn 0.000000 0.433071 0.905512
v 3.853602 14.060428 9.007048
vt 0.242188 0.011688
vn 0.590551 0.425197 0.692913
v 6.389412 12.582830 6.225050
vt 0.011536 0.011688
vn 0.897638 0.291339 0.322835
v 7.534597 10.143127 2.082808
vt 0.011536 0.187500
vn 1.000000 0.110236 0.031496
v 7.543479 3.837454 -0.550330
vt 0.011536 0.585938
vn 0.992126 0.047244 -0.118110
v 0.000000 1.998354 13.437167
vt 0.500000 0.617188
vn 0.000000 0.125984 0.992126
v -0.890568 3.518068 12.354140
vt 0.464264 0.527893
vn -0.582677 0.346457 0.740157
v -0.930537 1.768905 12.967213
vt 0.457031 0.641388
vn -0.614173 -0.228346 0.755906
v -2.018878 2.889826 11.175563
vt 0.387421 0.541290
vn -0.559055 0.244094 0.795276
v -2.075130 1.152508 11.500348
vt 0.391235 0.648224
vn -0.393701 -0.039370 0.921260
v -3.596912 2.701178 10.743747
vt 0.323944 0.555756
vn -0.338583 0.181102 0.929134
v -5.197448 2.486646 10.092536
vt 0.252838 0.570831
vn -0.590551 0.039370 0.811024
v -7.181094 8.992374 6.495294
vt 0.082031 0.198242
vn -0.968504 0.110236 0.244094
v -2.686212 4.281874 10.535015
vt 0.348633 0.460693
vn -0.267717 0.023622 0.968504
v -1.732877 4.513955 10.779424
vt 0.401672 0.453766
vn -0.535433 0.023622 0.842520
v -0.856520 4.965833 11.554069
vt 0.448853 0.433228
vn -0.574803 0.086614 0.818898
v -6.389412 12.582830 6.225050
vt 0.011536 0.011688
vn -0.897638 0.291339 0.322835
v -3.853602 14.060428 9.007048
vt 0.242188 0.011688
vn -0.590551 0.425197 0.692913
v 0.930537 1.768905 12.967213
vt 0.457031 0.641388
vn 0.614173 -0.228346 0.755906
v 2.075130 1.152508 11.500348
vt 0.391235 0.648224
vn 0.393701 -0.039370 0.921260
v 3.596912 2.701178 10.743747
vt 0.323944 0.555756
vn 0.338583 0.181102 0.929134
f 63/63/63 64/64/64 65/65/65
f 66/66/66 67/67/67 68/68/68
f 69/69/69 70/70/70 71/71/71
f 72/72/72 73/73/73 74/74/74
f 75/75/75 76/76/76 77/77/77
f 78/78/78 79/79/79 80/80/80
f 81/81/81 82/82/82 83/83/83
f 84/84/84 85/85/85 86/86/86
f 86/86/86 85/85/85 87/87/87
f 86/86/86 87/87/87 88/88/88
f 89/89/89 90/90/90 91/91/91
f 92/92/92 93/93/93 94/94/94
f 94/94/94 93/93/93 95/95/95
f 96/96/96 64/64/64 97/97/97
f 97/97/97 64/64/64 98/98/98
f 99/99/99 89/89/89 100/100/100
f 100/100/100 89/89/89 91/91/91
f 100/100/100 91/91/91 101/101/101
f 102/102/102 103/103/103 104/104/104
f 105/105/105 106/106/106 107/107/107
f 108/108/108 109/109/109 110/110/110
f 111/111/111 102/102/102 112/112/112
f 112/112/112 102/102/102 104/104/104
f 112/112/112 104/104/104 113/113/113
f 114/114/114 115/115/115 116/116/116
f 72/72/72 117/117/117 116/116/116
f 116/116/116 117/117/117 118/118/118
f 116/116/116 118/118/118 114/114/114
f 68/68/68 119/119/119 120/120/120
f 120/120/120 119/119/119 121/121/121
f 120/120/120 121/121/121 122/122/122
f 107/107/107 123/123/123 124/124/124
f 106/106/106 125/125/125 107/107/107
f 107/107/107 125/125/125 126/126/126
f 107/107/107 126/126/126 123/123/123
f 127/127/127 128/128/128 129/129/129
f 129/129/129 128/128/128 130/130/130
f 129/129/129 130/130/130 67/67/67
f 67/67/67 130/130/130 69/69/69
f 92/92/92 131/131/131 93/93/93
f 93/93/93 131/131/131 132/132/132
f 93/93/93 132/132/132 133/133/133
f 134/134/134 108/108/108 135/135/135
f 135/135/135 108/108/108 110/110/110
f 135/135/135 110/110/110 136/136/136
f 137/137/137 82/82/82 138/138/138
f 138/138/138 82/82/82 81/81/81
f 138/138/138 81/81/81 139/139/139
f 139/139/139 81/81/81 140/140/140
f 139/139/139 140/140/140 141/141/141
f 141/141/141 140/140/140 142/142/142
f 143/143/143 75/75/75 144/144/144
f 144/144/144 75/75/75 77/77/77
f 144/144/144 77/77/77 145/145/145
f 145/145/145 77/77/77 76/76/76
f 145/145/145 76/76/76 146/146/146
f 146/146/146 76/76/76 147/147/147
f 143/143/143 148/148/148 75/75/75
f 75/75/75 148/148/148 149/149/149
f 75/75/75 149/149/149 76/76/76
f 76/76/76 149/149/149 150/150/150
f 76/76/76 150/150/150 147/147/147
f 78/78/78 142/142/142 79/79/79
f 79/79/79 142/142/142 140/140/140
f 79/79/79 140/140/140 151/151/151
f 151/151/151 140/140/140 81/81/81
f 151/151/151 81/81/81 152/152/152
f 152/152/152 81/81/81 83/83/83
f 152/152/152 83/83/83 153/153/153
f 154/154/154 137/137/137 155/155/155
f 155/155/155 137/137/137 138/138/138
f 155/155/155 138/138/138 156/156/156
f 156/156/156 138/138/138 139/139/139
f 156/156/156 139/139/139 157/157/157
f 157/157/157 139/139/139 141/141/141
f 157/157/157 141/141/141 158/158/158
f 159/159/159 160/160/160 161/161/161
f 161/161/161 160/160/160 162/162/162
f 161/161/161 162/162/162 163/163/163
f 163/163/163 162/162/162 164/164/164
f 163/163/163 164/164/164 122/122/122
f 122/122/122 164/164/164 165/165/165
f 122/122/122 165/165/165 120/120/120
f 120/120/120 165/165/165 66/66/66
f 120/120/120 66/66/66 68/68/68
f 64/64/64 63/63/63 98/98/98
f 98/98/98 63/63/63 74/74/74
f 98/98/98 74/74/74 97/97/97
f 97/97/97 74/74/74 73/73/73
f 97/97/97 73/73/73 103/103/103
f 103/103/103 73/73/73 72/72/72
f 103/103/103 72/72/72 104/104/104
f 104/104/104 72/72/72 116/116/116
f 104/104/104 116/116/116 113/113/113
f 113/113/113 116/116/116 115/115/115
f 113/113/113 115/115/115 166/166/166
f 67/67/67 66/66/66 129/129/129
f 129/129/129 66/66/66 165/165/165
f 129/129/129 165/165/165 127/127/127
f 127/127/127 165/165/165 164/164/164
f 127/127/127 164/164/164 167/167/167
f 167/167/167 164/164/164 162/162/162
f 167/167/167 162/162/162 168/168/168
f 168/168/168 162/162/162 160/160/160
f 168/168/168 160/160/160 169/169/169
f 70/70/70 166/166/166 170/170/170
f 170/170/170 166/166/166 115/115/115
f 170/170/170 115/115/115 171/171/171
f 171/171/171 115/115/115 114/114/114
f 171/171/171 114/114/114 154/154/154
f 154/154/154 114/114/114 118/118/118
f 154/154/154 118/118/118 137/137/137
f 137/137/137 118/118/118 117/117/117
f 137/137/137 117/117/117 82/82/82
f 82/82/82 117/117/117 72/72/72
f 82/82/82 72/72/72 83/83/83
f 83/83/83 72/72/72 74/74/74
f 83/83/83 74/74/74 153/153/153
f 153/153/153 74/74/74 63/63/63
f 70/70/70 69/69/69 166/166/166
f 166/166/166 69/69/69 130/130/130
f 166/166/166 130/130/130 113/113/113
f 113/113/113 130/130/130 128/128/128
f 113/113/113 128/128/128 112/112/112
f 112/112/112 128/128/128 127/127/127
f 112/112/112 127/127/127 111/111/111
f 111/111/111 127/127/127 167/167/167
f 111/111/111 167/167/167 102/102/102
f 102/102/102 167/167/167 168/168/168
f 102/102/102 168/168/168 103/103/103
f 103/103/103 168/168/168 169/169/169
f 103/103/103 169/169/169 97/97/97
f 97/97/97 169/169/169 160/160/160
f 97/97/97 160/160/160 96/96/96
f 96/96/96 160/160/160 159/159/159
f 96/96/96 159/159/159 64/64/64
f 64/64/64 159/159/159 172/172/172
f 64/64/64 172/172/172 65/65/65
f 65/65/65 172/172/172 173/173/173
f 65/65/65 173/173/173 174/174/174
f 174/174/174 173/173/173 84/84/84
f 174/174/174 84/84/84 80/80/80
f 80/80/80 84/84/84 86/86/86
f 80/80/80 86/86/86 78/78/78
f 78/78/78 86/86/86 88/88/88
f 78/78/78 88/88/88 142/142/142
