mtllib 0405-0.mtl
g mesh00
usemtl texture00
v 0.000000 1.033178 13.368193
vt 0.499695 0.637054
vn 0.000000 -0.795276 0.614173
v 1.053171 1.805319 13.179855
vt 0.554443 0.624146
vn 0.692913 -0.078740 0.724409
v 0.000000 1.727227 13.868030
vt 0.499695 0.619812
vn 0.000000 -0.212598 0.984252
v -3.523291 2.395832 11.077240
vt 0.695251 0.593292
vn -0.362205 0.133858 0.921260
v -1.976931 0.894543 11.533907
vt 0.616211 0.695221
vn -0.543307 -0.031496 0.842520
v -2.226508 2.722675 11.533061
vt 0.621887 0.561829
vn -0.503937 0.236220 0.834646
v -5.479946 -2.412503 7.362114
vt 0.873566 0.865814
vn -0.842520 -0.425197 0.338583
v -6.624658 0.008774 6.529617
vt 0.901978 0.739105
vn -0.937008 -0.251969 0.236220
v -6.597524 -1.119166 4.984398
vt 0.920593 0.796814
vn -0.944882 -0.307087 0.157480
v 3.056044 -0.982725 10.696332
vt 0.672089 0.796478
vn 0.503937 -0.204724 0.842520
v 1.627465 -0.254017 12.313500
vt 0.591309 0.749084
vn 0.496063 -0.181102 0.850394
v 1.783114 -1.234987 11.305786
vt 0.581543 0.796478
vn 0.377953 -0.629921 0.677165
v 2.068472 -4.602138 10.601951
vt 0.612823 0.934967
vn 0.582677 -0.417323 0.700787
v 0.000000 -5.365066 11.028992
vt 0.499695 0.952637
vn 0.000000 -0.685039 0.732283
v 1.897317 -5.619083 9.700891
vt 0.611664 0.977356
vn 0.401575 -0.866142 0.299213
v 3.871863 -2.844200 2.512303
vt 0.988403 0.988647
vn 0.220472 -0.685039 -0.700787
v 7.543349 3.837016 -0.550201
vt 0.988556 0.593323
vn 0.622047 -0.448819 -0.645669
v 6.555182 -2.083904 2.621496
vt 0.956390 0.939697
vn 0.598425 -0.629921 -0.496063
v 7.242486 0.359309 2.271484
vt 0.967621 0.727783
vn 0.952756 -0.251969 0.181102
v 1.976931 0.894543 11.533907
vt 0.616211 0.695221
vn 0.543307 -0.031496 0.842520
v 0.000000 0.748451 12.592833
vt 0.499695 0.703186
vn 0.000000 -0.259843 0.968504
v 3.326492 -4.838606 7.697736
vt 0.755707 0.980835
vn 0.614173 -0.779528 0.149606
v 3.880808 -3.674252 8.841308
vt 0.750916 0.921936
vn 0.740157 -0.535433 0.409449
v 3.006247 -3.610199 10.121584
vt 0.699707 0.906494
vn 0.669291 -0.330709 0.661417
v 6.597524 -1.119166 4.984398
vt 0.920593 0.796814
vn 0.944882 -0.307087 0.157480
v 5.479946 -2.412503 7.362114
vt 0.873566 0.865814
vn 0.842520 -0.425197 0.338583
v 6.211381 -2.824896 3.429446
vt 0.911102 0.949371
vn 0.811024 -0.582677 -0.031496
v 5.358289 -3.611077 5.371655
vt 0.809662 0.969177
vn 0.653543 -0.748031 0.086614
v 0.000000 -5.634877 5.215483
vt 0.499542 0.988647
vn 0.000000 -0.960630 -0.299213
v -1.053171 1.805319 13.179855
vt 0.554443 0.624146
vn -0.692913 -0.078740 0.724409
v -3.326492 -4.838606 7.697736
vt 0.755707 0.980835
vn -0.614173 -0.779528 0.149606
v -1.897317 -5.619083 9.700891
vt 0.611664 0.977356
vn -0.401575 -0.866142 0.299213
v 0.000000 -5.810363 10.276063
vt 0.499695 0.977356
vn 0.000000 -0.976378 0.244094
v -2.068472 -4.602138 10.601951
vt 0.612823 0.934967
vn -0.582677 -0.417323 0.700787
v 0.000000 -4.609157 11.388739
vt 0.499695 0.929504
vn 0.000000 -0.173228 0.984252
v 2.423306 -3.352234 10.508417
vt 0.648529 0.891022
vn 0.448819 -0.251969 0.858268
v -7.543349 3.837016 -0.550201
vt 0.988556 0.593323
vn -0.622047 -0.448819 -0.645669
v -3.871863 -2.844200 2.512303
vt 0.988403 0.988647
vn -0.220472 -0.685039 -0.700787
v -6.555182 -2.083904 2.621496
vt 0.956390 0.939697
vn -0.598425 -0.629921 -0.496063
v -7.242486 0.359309 2.271484
vt 0.967621 0.727783
vn -0.952756 -0.251969 0.181102
v -7.162276 2.979325 7.083204
vt 0.925629 0.563690
vn -0.976378 -0.070866 0.220472
v -7.743726 5.748943 2.346819
vt 0.975433 0.413086
vn -0.984252 0.000000 0.181102
v 2.226508 2.722675 11.533061
vt 0.621887 0.561829
vn 0.503937 0.236220 0.834646
v 3.523291 2.395832 11.077240
vt 0.695251 0.593292
vn 0.362205 0.133858 0.921260
v 4.171832 0.248752 10.783941
vt 0.719971 0.716980
vn 0.456693 -0.181102 0.874016
v 5.114676 2.165944 10.314154
vt 0.787415 0.597260
vn 0.598425 0.015748 0.803150
v 5.653188 0.062298 9.299668
vt 0.806671 0.733063
vn 0.803150 -0.251969 0.535433
v 6.362260 2.198409 8.959390
vt 0.858124 0.593353
vn 0.866142 -0.070866 0.503937
v 6.624658 0.008774 6.529617
vt 0.901978 0.739105
vn 0.937008 -0.251969 0.236220
v 7.162276 2.979325 7.083204
vt 0.925629 0.563690
vn 0.976378 -0.070866 0.220472
v 7.743726 5.748943 2.346819
vt 0.975433 0.413086
vn 0.984252 0.000000 0.181102
v -5.358289 -3.611077 5.371655
vt 0.809662 0.969177
vn -0.653543 -0.748031 0.086614
v -6.211381 -2.824896 3.429446
vt 0.911102 0.949371
vn -0.811024 -0.582677 -0.031496
v 0.000000 -1.266575 12.058291
vt 0.499695 0.800507
vn 0.000000 0.291339 0.960630
v -0.937477 -1.106882 11.828053
vt 0.540619 0.798492
vn -0.377953 0.149606 0.921260
v 0.000000 -1.815848 12.227584
vt 0.499695 0.830475
vn 0.000000 0.110236 1.000000
v -1.826351 -2.237016 11.461112
vt 0.582062 0.859833
vn -0.480315 -0.062992 0.881890
v 0.000000 -2.374773 12.241551
vt 0.499695 0.863892
vn 0.000000 -0.433071 0.905512
v -2.423306 -3.352234 10.508417
vt 0.648529 0.891022
vn -0.448819 -0.251969 0.858268
v 0.000000 -3.130243 11.470846
vt 0.499695 0.886536
vn 0.000000 -0.417323 0.913386
v -3.056044 -0.982725 10.696332
vt 0.672089 0.796478
vn -0.503937 -0.204724 0.842520
v -1.783114 -1.234987 11.305786
vt 0.581543 0.796478
vn -0.377953 -0.629921 0.677165
v -1.627465 -0.254017 12.313500
vt 0.591309 0.749084
vn -0.496063 -0.181102 0.850394
v -0.937477 -1.106882 11.828053
vt 0.540619 0.798492
vn -0.291339 -0.629921 0.724409
v 0.000000 -0.164957 12.959351
vt 0.499695 0.756226
vn 0.000000 -0.354331 0.937008
v 0.000000 -1.266575 12.058291
vt 0.499695 0.800507
vn 0.000000 -0.637795 0.779528
v 0.937477 -1.106882 11.828053
vt 0.540619 0.798492
vn 0.291339 -0.629921 0.724409
v -4.171832 0.248752 10.783941
vt 0.719971 0.716980
vn -0.456693 -0.181102 0.874016
v -5.114676 2.165944 10.314154
vt 0.787415 0.597260
vn -0.598425 0.015748 0.803150
v -5.653188 0.062298 9.299668
vt 0.806671 0.733063
vn -0.803150 -0.251969 0.535433
v -6.362260 2.198409 8.959390
vt 0.858124 0.593353
vn -0.866142 -0.070866 0.503937
v -3.006247 -3.610199 10.121584
vt 0.699707 0.906494
vn -0.669291 -0.330709 0.661417
v -4.485219 -1.905346 9.734750
vt 0.777466 0.831573
vn -0.606299 -0.338583 0.716535
v -1.783114 -1.234987 11.305786
vt 0.581543 0.796478
vn -0.472441 0.149606 0.874016
v 4.485219 -1.905346 9.734750
vt 0.777466 0.831573
vn 0.606299 -0.338583 0.716535
v -3.880808 -3.674252 8.841308
vt 0.750916 0.921936
vn -0.740157 -0.535433 0.409449
v 1.826351 -2.237016 11.461112
vt 0.582062 0.859833
vn 0.480315 -0.062992 0.881890
v 0.937477 -1.106882 11.828053
vt 0.540619 0.798492
vn 0.377953 0.149606 0.921260
v 1.783114 -1.234987 11.305786
vt 0.581543 0.796478
vn 0.472441 0.149606 0.874016
f 1/1/1 2/2/2 3/3/3
f 4/4/4 5/5/5 6/6/6
f 7/7/7 8/8/8 9/9/9
f 10/10/10 11/11/11 12/12/12
f 13/13/13 14/14/14 15/15/15
f 16/16/16 17/17/17 18/18/18
f 18/18/18 17/17/17 19/19/19
f 20/20/20 2/2/2 21/21/21
f 15/15/15 22/22/22 13/13/13
f 13/13/13 22/22/22 23/23/23
f 13/13/13 23/23/23 24/24/24
f 25/25/25 26/26/26 27/27/27
f 27/27/27 26/26/26 28/28/28
f 27/27/27 28/28/28 29/29/29
f 3/3/3 30/30/30 1/1/1
f 31/31/31 29/29/29 32/32/32
f 32/32/32 29/29/29 33/33/33
f 34/34/34 14/14/14 35/35/35
f 35/35/35 14/14/14 13/13/13
f 35/35/35 13/13/13 36/36/36
f 36/36/36 13/13/13 24/24/24
f 37/37/37 38/38/38 39/39/39
f 39/39/39 38/38/38 29/29/29
f 40/40/40 41/41/41 42/42/42
f 2/2/2 1/1/1 21/21/21
f 21/21/21 1/1/1 30/30/30
f 21/21/21 30/30/30 5/5/5
f 43/43/43 20/20/20 44/44/44
f 44/44/44 20/20/20 45/45/45
f 44/44/44 45/45/45 46/46/46
f 46/46/46 45/45/45 47/47/47
f 46/46/46 47/47/47 48/48/48
f 48/48/48 47/47/47 49/49/49
f 48/48/48 49/49/49 50/50/50
f 50/50/50 49/49/49 19/19/19
f 50/50/50 19/19/19 51/51/51
f 31/31/31 52/52/52 29/29/29
f 29/29/29 52/52/52 53/53/53
f 29/29/29 53/53/53 39/39/39
f 39/39/39 53/53/53 40/40/40
f 39/39/39 40/40/40 37/37/37
f 54/54/54 55/55/55 56/56/56
f 56/56/56 55/55/55 57/57/57
f 56/56/56 57/57/57 58/58/58
f 58/58/58 57/57/57 59/59/59
f 58/58/58 59/59/59 60/60/60
f 61/61/61 62/62/62 63/63/63
f 63/63/63 62/62/62 64/64/64
f 63/63/63 64/64/64 65/65/65
f 65/65/65 64/64/64 66/66/66
f 65/65/65 66/66/66 67/67/67
f 5/5/5 4/4/4 68/68/68
f 68/68/68 4/4/4 69/69/69
f 68/68/68 69/69/69 70/70/70
f 70/70/70 69/69/69 71/71/71
f 70/70/70 71/71/71 8/8/8
f 7/7/7 72/72/72 73/73/73
f 73/73/73 72/72/72 59/59/59
f 73/73/73 59/59/59 61/61/61
f 61/61/61 59/59/59 57/57/57
f 61/61/61 57/57/57 74/74/74
f 74/74/74 57/57/57 55/55/55
f 21/21/21 11/11/11 20/20/20
f 20/20/20 11/11/11 10/10/10
f 20/20/20 10/10/10 45/45/45
f 45/45/45 10/10/10 75/75/75
f 45/45/45 75/75/75 47/47/47
f 47/47/47 75/75/75 26/26/26
f 47/47/47 26/26/26 49/49/49
f 49/49/49 26/26/26 25/25/25
f 49/49/49 25/25/25 19/19/19
f 19/19/19 25/25/25 27/27/27
f 19/19/19 27/27/27 18/18/18
f 18/18/18 27/27/27 29/29/29
f 18/18/18 29/29/29 16/16/16
f 8/8/8 7/7/7 70/70/70
f 70/70/70 7/7/7 73/73/73
f 70/70/70 73/73/73 68/68/68
f 68/68/68 73/73/73 61/61/61
f 68/68/68 61/61/61 5/5/5
f 5/5/5 61/61/61 63/63/63
f 5/5/5 63/63/63 21/21/21
f 21/21/21 63/63/63 65/65/65
f 21/21/21 65/65/65 11/11/11
f 11/11/11 65/65/65 67/67/67
f 11/11/11 67/67/67 12/12/12
f 7/7/7 76/76/76 72/72/72
f 72/72/72 76/76/76 34/34/34
f 72/72/72 34/34/34 59/59/59
f 59/59/59 34/34/34 35/35/35
f 59/59/59 35/35/35 60/60/60
f 60/60/60 35/35/35 36/36/36
f 60/60/60 36/36/36 58/58/58
f 58/58/58 36/36/36 77/77/77
f 58/58/58 77/77/77 56/56/56
f 56/56/56 77/77/77 78/78/78
f 56/56/56 78/78/78 54/54/54
f 71/71/71 41/41/41 8/8/8
f 8/8/8 41/41/41 40/40/40
f 8/8/8 40/40/40 9/9/9
f 9/9/9 40/40/40 53/53/53
f 9/9/9 53/53/53 7/7/7
f 7/7/7 53/53/53 52/52/52
f 7/7/7 52/52/52 76/76/76
f 76/76/76 52/52/52 31/31/31
f 76/76/76 31/31/31 34/34/34
f 34/34/34 31/31/31 32/32/32
f 34/34/34 32/32/32 14/14/14
f 14/14/14 32/32/32 33/33/33
f 14/14/14 33/33/33 15/15/15
f 15/15/15 33/33/33 29/29/29
f 15/15/15 29/29/29 22/22/22
f 22/22/22 29/29/29 28/28/28
f 22/22/22 28/28/28 23/23/23
f 23/23/23 28/28/28 26/26/26
f 23/23/23 26/26/26 24/24/24
f 24/24/24 26/26/26 75/75/75
f 24/24/24 75/75/75 36/36/36
f 36/36/36 75/75/75 10/10/10
f 36/36/36 10/10/10 77/77/77
f 77/77/77 10/10/10 79/79/79
f 77/77/77 79/79/79 78/78/78
usemtl texture00
v -5.770373 5.013654 9.342837
vt 0.842407 0.437195
vn -0.700787 -0.007874 0.716535
v -6.148763 6.777733 9.273004
vt 0.882324 0.326294
vn -0.826772 -0.047244 0.559055
v -6.698905 5.028570 8.047749
vt 0.923553 0.419373
vn -0.921260 0.007874 0.393701
v -1.976931 0.894543 11.533907
vt 0.616211 0.695221
vn -0.543307 -0.031496 0.842520
v -0.871579 3.080668 12.528078
vt 0.549377 0.541443
vn -0.614173 0.299213 0.732283
v -2.226508 2.722675 11.533061
vt 0.621887 0.561829
vn -0.503937 0.236220 0.834646
v -7.534702 10.143129 2.082723
vt 0.988831 0.011078
vn -1.000000 0.102362 0.039370
v -7.743726 5.748943 2.346819
vt 0.975433 0.413086
vn -0.984252 0.000000 0.181102
v -7.181061 8.992375 6.621035
vt 0.938690 0.196442
vn -0.952756 0.094488 0.299213
v 0.000000 2.425664 13.721591
vt 0.499695 0.602600
vn 0.000000 0.480315 0.881890
v 0.000000 1.727227 13.868030
vt 0.499695 0.619812
vn 0.000000 -0.212598 0.984252
v 1.053171 1.805319 13.179855
vt 0.554443 0.624146
vn 0.692913 -0.078740 0.724409
v -6.362260 2.198409 8.959390
vt 0.858124 0.593353
vn -0.866142 -0.070866 0.503937
v -7.162276 2.979325 7.083204
vt 0.925629 0.563690
vn -0.976378 -0.070866 0.220472
v -6.389394 12.582832 6.224890
vt 0.825226 0.011078
vn -0.897638 0.299213 0.330709
v 2.486520 4.559582 10.590101
vt 0.636078 0.465057
vn 0.244094 0.047244 0.968504
v 3.534920 5.208005 10.709875
vt 0.699493 0.423096
vn 0.228346 -0.149606 0.968504
v 2.456404 5.944610 10.780555
vt 0.636078 0.382263
vn 0.346457 -0.346457 0.874016
v 0.823274 4.926349 11.684578
vt 0.546234 0.442963
vn 0.496063 0.015748 0.874016
v 2.226508 2.722675 11.533061
vt 0.621887 0.561829
vn 0.503937 0.236220 0.834646
v 1.753893 4.889058 10.749659
vt 0.597534 0.447601
vn 0.503937 0.047244 0.866142
v 0.000000 6.501342 12.134473
vt 0.499695 0.333221
vn 0.000000 -0.078740 1.000000
v 0.000000 5.008389 11.828053
vt 0.499695 0.439148
vn 0.000000 0.165354 0.992126
v 9.561728 3.339072 -0.904446
vt 0.011139 0.626709
vn -0.212598 -0.173228 -0.968504
v 8.001353 0.346586 0.790173
vt 0.018372 0.654877
vn -0.181102 -0.685039 -0.708661
v 7.543349 3.837016 -0.550201
vt 0.032990 0.621338
vn -0.622047 0.118110 -0.779528
v 7.242486 0.359309 2.271484
vt 0.032990 0.658783
vn 0.952756 -0.251969 0.181102
v 6.362260 2.198409 8.959390
vt 0.858124 0.593353
vn 0.866142 -0.070866 0.503937
v 7.162276 2.979325 7.083204
vt 0.925629 0.563690
vn 0.976378 -0.070866 0.220472
v 6.698905 5.028570 8.047749
vt 0.923553 0.419373
vn 0.921260 0.007874 0.393701
v 7.743726 5.748943 2.346819
vt 0.975433 0.413086
vn 0.984252 0.000000 0.181102
v 7.181061 8.992375 6.621035
vt 0.938690 0.196442
vn 0.952756 0.094488 0.299213
v 7.743726 5.748943 2.346819
vt 0.032990 0.610321
vn -0.779528 0.551181 -0.307087
v 9.055717 6.722016 0.808796
vt 0.013550 0.586975
vn -0.669291 0.574803 -0.472441
v 9.770453 5.572140 -0.870164
vt 0.011139 0.602661
vn -0.377953 0.322835 -0.866142
v 9.561728 3.339072 -0.904446
vt 0.012177 0.541260
vn 0.874016 -0.133858 0.464567
v 9.770453 5.572140 -0.870164
vt 0.012177 0.373413
vn 0.897638 -0.086614 0.440945
v 9.055717 6.722016 0.808796
vt 0.036835 0.373413
vn 0.850394 -0.094488 0.519685
v 1.976931 0.894543 11.533907
vt 0.616211 0.695221
vn 0.543307 -0.031496 0.842520
v 0.871579 3.080668 12.528078
vt 0.549377 0.541443
vn 0.614173 0.299213 0.732283
v 0.000000 3.196928 12.906024
vt 0.499695 0.541260
vn 0.000000 0.543307 0.842520
v -9.561728 3.339072 -0.904446
vt 0.012177 0.541260
vn -0.874016 -0.133858 0.464567
v -8.001353 0.346586 0.790173
vt 0.053650 0.654327
vn 0.181102 -0.685039 -0.708661
v -7.242486 0.359309 2.271484
vt 0.129089 0.654327
vn -0.952756 -0.251969 0.181102
v -2.486520 4.559582 10.590101
vt 0.636078 0.465057
vn -0.244094 0.047244 0.968504
v -1.753893 4.889058 10.749659
vt 0.597534 0.447601
vn -0.503937 0.047244 0.866142
v -2.456404 5.944610 10.780555
vt 0.636078 0.382263
vn -0.346457 -0.346457 0.874016
v -4.986161 5.873538 10.151633
vt 0.784454 0.382263
vn -0.503937 -0.165354 0.850394
v -4.964393 4.544227 9.904466
vt 0.781342 0.466583
vn -0.433071 -0.023622 0.905512
v -3.534920 5.208005 10.709875
vt 0.699493 0.423096
vn -0.228346 -0.149606 0.968504
v 8.001353 0.346586 0.790173
vt 0.053650 0.654327
vn -0.181102 -0.685039 -0.708661
v 7.242486 0.359309 2.271484
vt 0.129089 0.654327
vn 0.952756 -0.251969 0.181102
v 7.743726 5.748943 2.346819
vt 0.129089 0.479553
vn 0.984252 0.000000 0.181102
v -1.053171 1.805319 13.179855
vt 0.554443 0.624146
vn -0.692913 -0.078740 0.724409
v -9.561728 3.339072 -0.904446
vt 0.011139 0.626709
vn 0.212598 -0.173228 -0.968504
v -7.543349 3.837016 -0.550201
vt 0.032990 0.621338
vn 0.622047 0.118110 -0.779528
v -8.001353 0.346586 0.790173
vt 0.018372 0.654877
vn 0.181102 -0.685039 -0.708661
v -7.242486 0.359309 2.271484
vt 0.032990 0.658783
vn -0.952756 -0.251969 0.181102
v -9.770752 5.572140 -0.870164
vt 0.011139 0.602661
vn 0.377953 0.322835 -0.866142
v -9.055717 6.722016 0.808796
vt 0.013550 0.586975
vn 0.669291 0.574803 -0.472441
v -7.743726 5.748943 2.346819
vt 0.032990 0.610321
vn 0.779528 0.551181 -0.307087
v -7.543349 3.837016 -0.550201
vt 0.992920 0.593719
vn -1.000000 0.039370 -0.094488
v -9.770752 5.572140 -0.870164
vt 0.012177 0.373413
vn -0.897638 -0.086614 0.440945
v -9.055717 6.722016 0.808796
vt 0.036835 0.373413
vn -0.850394 -0.094488 0.519685
v -7.743726 5.748943 2.346819
vt 0.129089 0.479553
vn -0.984252 0.000000 0.181102
v -2.912917 8.727390 11.544488
vt 0.637421 0.229523
vn -0.307087 0.102362 0.944882
v 0.000000 8.652808 12.240704
vt 0.499695 0.228027
vn 0.000000 0.070866 1.000000
v 3.853674 14.060430 9.006792
vt 0.654266 0.011078
vn 0.574803 0.417323 0.708661
v 5.831798 10.219027 9.214598
vt 0.823364 0.150177
vn 0.779528 0.251969 0.582677
v 6.389394 12.582832 6.224890
vt 0.825226 0.011078
vn 0.897638 0.299213 0.330709
v 7.534702 10.143129 2.082723
vt 0.988831 0.011078
vn 1.000000 0.102362 0.039370
v 7.543349 3.837016 -0.550201
vt 0.992920 0.593719
vn 1.000000 0.039370 -0.094488
v 5.404805 8.151794 10.124123
vt 0.814301 0.249420
vn 0.677165 0.157480 0.716535
v 5.258995 7.119932 10.648507
vt 0.805237 0.298798
vn 0.566929 -0.228346 0.795276
v 6.148763 6.777733 9.273004
vt 0.882324 0.326294
vn 0.826772 -0.047244 0.559055
v 4.986161 5.873538 10.151633
vt 0.784454 0.382263
vn 0.503937 -0.165354 0.850394
v 5.770373 5.013654 9.342837
vt 0.842407 0.437195
vn 0.700787 -0.007874 0.716535
v 4.964393 4.544227 9.904466
vt 0.781342 0.466583
vn 0.433071 -0.023622 0.905512
v 5.114676 2.165944 10.314154
vt 0.787415 0.597260
vn 0.598425 0.015748 0.803150
v 3.523291 2.395832 11.077240
vt 0.695251 0.593292
vn 0.362205 0.133858 0.921260
v 3.335140 10.739783 10.974818
vt 0.653961 0.129150
vn 0.425197 0.291339 0.858268
v 0.000000 14.375428 10.289606
vt 0.499695 0.011078
vn 0.000000 0.433071 0.905512
v -5.258995 7.119932 10.648507
vt 0.805237 0.298798
vn -0.566929 -0.228346 0.795276
v -0.823274 4.926349 11.684578
vt 0.546234 0.442963
vn -0.496063 0.015748 0.874016
v -2.484135 6.757991 11.820435
vt 0.620880 0.327271
vn -0.385827 -0.196850 0.905512
v -5.404805 8.151794 10.124123
vt 0.814301 0.249420
vn -0.677165 0.157480 0.716535
v -5.831798 10.219027 9.214598
vt 0.823364 0.150177
vn -0.779528 0.251969 0.582677
v -3.853674 14.060430 9.006792
vt 0.654266 0.011078
vn -0.574803 0.417323 0.708661
v -3.335140 10.739783 10.974818
vt 0.653961 0.129150
vn -0.425197 0.291339 0.858268
v 0.000000 10.856482 11.800543
vt 0.499695 0.120239
vn 0.000000 0.267717 0.968504
v 2.912917 8.727390 11.544488
vt 0.637421 0.229523
vn 0.307087 0.102362 0.944882
v 2.484135 6.757991 11.820435
vt 0.620880 0.327271
vn 0.385827 -0.196850 0.905512
v -5.114676 2.165944 10.314154
vt 0.787415 0.597260
vn -0.598425 0.015748 0.803150
v -3.523291 2.395832 11.077240
vt 0.695251 0.593292
vn -0.362205 0.133858 0.921260
f 80/80/80 81/81/81 82/82/82
f 83/83/83 84/84/84 85/85/85
f 86/86/86 87/87/87 88/88/88
f 89/89/89 90/90/90 91/91/91
f 92/92/92 82/82/82 93/93/93
f 88/88/88 94/94/94 86/86/86
f 95/95/95 96/96/96 97/97/97
f 98/98/98 99/99/99 100/100/100
f 98/98/98 101/101/101 102/102/102
f 103/103/103 104/104/104 105/105/105
f 105/105/105 104/104/104 106/106/106
f 107/107/107 108/108/108 109/109/109
f 109/109/109 108/108/108 110/110/110
f 109/109/109 110/110/110 111/111/111
f 112/112/112 113/113/113 105/105/105
f 105/105/105 113/113/113 114/114/114
f 105/105/105 114/114/114 103/103/103
f 115/115/115 116/116/116 117/117/117
f 118/118/118 119/119/119 91/91/91
f 91/91/91 119/119/119 120/120/120
f 91/91/91 120/120/120 89/89/89
f 121/121/121 122/122/122 123/123/123
f 124/124/124 125/125/125 126/126/126
f 81/81/81 80/80/80 127/127/127
f 127/127/127 80/80/80 128/128/128
f 127/127/127 128/128/128 129/129/129
f 130/130/130 115/115/115 131/131/131
f 131/131/131 115/115/115 117/117/117
f 131/131/131 117/117/117 132/132/132
f 84/84/84 83/83/83 133/133/133
f 134/134/134 135/135/135 136/136/136
f 136/136/136 135/135/135 137/137/137
f 134/134/134 138/138/138 135/135/135
f 135/135/135 138/138/138 139/139/139
f 135/135/135 139/139/139 140/140/140
f 87/87/87 86/86/86 141/141/141
f 142/142/142 121/121/121 143/143/143
f 143/143/143 121/121/121 123/123/123
f 143/143/143 123/123/123 144/144/144
f 145/145/145 101/101/101 146/146/146
f 147/147/147 148/148/148 149/149/149
f 149/149/149 148/148/148 111/111/111
f 149/149/149 111/111/111 150/150/150
f 150/150/150 111/111/111 110/110/110
f 150/150/150 110/110/110 151/151/151
f 152/152/152 153/153/153 154/154/154
f 154/154/154 153/153/153 155/155/155
f 154/154/154 155/155/155 156/156/156
f 156/156/156 155/155/155 157/157/157
f 156/156/156 157/157/157 158/158/158
f 158/158/158 157/157/157 159/159/159
f 158/158/158 107/107/107 156/156/156
f 156/156/156 107/107/107 109/109/109
f 156/156/156 109/109/109 154/154/154
f 154/154/154 109/109/109 111/111/111
f 154/154/154 111/111/111 152/152/152
f 152/152/152 111/111/111 148/148/148
f 152/152/152 148/148/148 160/160/160
f 160/160/160 148/148/148 147/147/147
f 160/160/160 147/147/147 161/161/161
f 128/128/128 124/124/124 129/129/129
f 129/129/129 124/124/124 126/126/126
f 129/129/129 126/126/126 127/127/127
f 127/127/127 126/126/126 162/162/162
f 127/127/127 162/162/162 81/81/81
f 118/118/118 99/99/99 119/119/119
f 119/119/119 99/99/99 98/98/98
f 119/119/119 98/98/98 120/120/120
f 120/120/120 98/98/98 102/102/102
f 120/120/120 102/102/102 163/163/163
f 163/163/163 102/102/102 101/101/101
f 163/163/163 101/101/101 164/164/164
f 164/164/164 101/101/101 145/145/145
f 164/164/164 145/145/145 165/165/165
f 90/90/90 89/89/89 133/133/133
f 133/133/133 89/89/89 120/120/120
f 133/133/133 120/120/120 84/84/84
f 84/84/84 120/120/120 163/163/163
f 84/84/84 163/163/163 85/85/85
f 94/94/94 166/166/166 167/167/167
f 167/167/167 166/166/166 168/168/168
f 167/167/167 168/168/168 161/161/161
f 161/161/161 168/168/168 169/169/169
f 161/161/161 169/169/169 160/160/160
f 160/160/160 169/169/169 170/170/170
f 160/160/160 170/170/170 152/152/152
f 152/152/152 170/170/170 171/171/171
f 152/152/152 171/171/171 153/153/153
f 153/153/153 171/171/171 97/97/97
f 153/153/153 97/97/97 155/155/155
f 155/155/155 97/97/97 96/96/96
f 155/155/155 96/96/96 157/157/157
f 157/157/157 96/96/96 95/95/95
f 157/157/157 95/95/95 159/159/159
f 82/82/82 92/92/92 80/80/80
f 80/80/80 92/92/92 172/172/172
f 80/80/80 172/172/172 128/128/128
f 128/128/128 172/172/172 173/173/173
f 128/128/128 173/173/173 124/124/124
f 124/124/124 173/173/173 85/85/85
f 124/124/124 85/85/85 125/125/125
f 125/125/125 85/85/85 163/163/163
f 125/125/125 163/163/163 126/126/126
f 126/126/126 163/163/163 164/164/164
f 126/126/126 164/164/164 162/162/162
f 162/162/162 164/164/164 165/165/165
f 162/162/162 165/165/165 81/81/81
f 81/81/81 165/165/165 88/88/88
f 81/81/81 88/88/88 82/82/82
f 82/82/82 88/88/88 87/87/87
f 82/82/82 87/87/87 93/93/93
f 94/94/94 88/88/88 166/166/166
f 166/166/166 88/88/88 165/165/165
f 166/166/166 165/165/165 168/168/168
f 168/168/168 165/165/165 145/145/145
f 168/168/168 145/145/145 169/169/169
f 169/169/169 145/145/145 146/146/146
f 169/169/169 146/146/146 170/170/170
f 170/170/170 146/146/146 101/101/101
f 170/170/170 101/101/101 171/171/171
f 171/171/171 101/101/101 98/98/98
f 171/171/171 98/98/98 97/97/97
f 97/97/97 98/98/98 100/100/100
f 97/97/97 100/100/100 95/95/95
f 95/95/95 100/100/100 99/99/99
f 95/95/95 99/99/99 159/159/159
