mtllib 0740-0.mtl
g mesh00
usemtl texture00
v 2.731885 33.416607 -21.072940
vt 0.138428 0.724121
vn 0.984252 0.133858 0.118110
v 1.379262 36.054760 -17.392669
vt 0.122864 0.504852
vn 0.716535 0.385827 0.582677
v 0.000000 34.494051 -16.287157
vt 0.188293 0.496063
vn 0.000000 -0.149606 0.992126
v 0.000000 31.718048 -18.827394
vt 0.227417 0.670563
vn 0.000000 -0.614173 0.787402
v 0.000000 26.132769 -21.833243
vt 0.300415 0.871918
vn 0.000000 -0.614173 0.795276
v 2.800289 29.395206 -25.652440
vt 0.180389 0.962646
vn 1.000000 0.094488 0.023622
v 9.750202 42.804629 -1.430515
vt 0.669250 0.696594
vn 0.905512 -0.417323 -0.070866
v 8.223280 40.659248 0.183550
vt 0.705719 0.755188
vn 0.590551 -0.519685 -0.622047
v 7.276476 37.987821 -3.186874
vt 0.662628 0.816467
vn 0.905512 -0.433071 -0.078740
v 0.000000 47.301373 -11.146902
vt 0.379669 0.546875
vn 0.000000 0.535433 -0.850394
v 4.365031 49.549745 -7.518833
vt 0.554688 0.492188
vn 0.377953 0.724409 -0.582677
v 4.805382 46.236605 -9.803952
vt 0.492188 0.601562
vn 0.488189 0.464567 -0.740157
v -4.805382 46.236605 -9.803952
vt 0.492188 0.601562
vn -0.488189 0.464567 -0.740157
v -9.284529 44.444562 -6.840202
vt 0.578125 0.648438
vn -0.818898 0.228346 -0.535433
v -7.720774 48.271073 -6.012541
vt 0.625000 0.539062
vn -0.685039 0.622047 -0.393701
v 6.659196 37.759656 -6.992599
vt 0.570312 0.822906
vn 0.850394 -0.496063 -0.204724
v 10.089262 31.336189 3.042896
vt 0.140625 0.335938
vn 1.000000 -0.086614 -0.015748
v 9.817291 36.686966 2.450988
vt 0.126801 0.020142
vn 0.968504 -0.267717 -0.031496
v 8.669550 36.699642 4.071789
vt 0.216339 0.023071
vn 0.000000 -0.031496 1.000000
v 6.478978 30.269837 3.077417
vt 0.140625 0.335938
vn -1.000000 0.047244 0.078740
v 7.243919 36.764605 2.485509
vt 0.126801 0.020142
vn -1.000000 -0.039370 0.031496
v 8.577139 36.728162 0.769565
vt 0.036682 0.024994
vn -0.055118 -0.165354 -0.992126
v 0.000000 32.252016 -27.589824
vt 0.075256 0.988708
vn 0.000000 0.779528 -0.622047
v -3.793463 50.368919 6.076531
vt 0.924988 0.457794
vn -0.598425 0.677165 0.433071
v -8.671195 47.144510 4.312594
vt 0.837219 0.567688
vn -0.795276 0.401575 0.464567
v -5.768628 45.837317 7.566826
vt 0.934875 0.604156
vn -0.716535 0.291339 0.637795
v 0.000000 51.083518 5.642914
vt 0.332581 0.141724
vn 0.023622 0.929134 0.370079
v -3.793463 50.368919 6.076531
vt 0.337036 0.297974
vn -0.598425 0.677165 0.433071
v -3.392576 47.914565 9.726491
vt 0.449219 0.312500
vn -0.590551 0.362205 0.724409
v -2.759510 46.881487 9.677656
vt 0.458313 0.343750
vn -0.968504 -0.196850 0.173228
v -1.056973 43.931192 11.418018
vt 0.588531 0.355011
vn -0.535433 -0.078740 0.842520
v -4.491644 42.576464 -11.899627
vt 0.445312 0.703125
vn -0.519685 0.133858 -0.842520
v 0.000000 39.120722 -14.192324
vt 0.362091 0.782166
vn 0.000000 0.393701 -0.921260
v -1.662086 37.984652 -13.073340
vt 0.406982 0.820801
vn -0.763780 -0.251969 -0.590551
v 0.000000 36.091203 -22.472302
vt 0.034851 0.718292
vn 0.000000 0.897638 -0.448819
v -2.800289 29.395206 -25.652440
vt 0.180389 0.962646
vn -1.000000 0.094488 0.023622
v -2.731885 33.416607 -21.072940
vt 0.138428 0.724121
vn -0.984252 0.133858 0.118110
v -1.379262 36.054760 -17.392669
vt 0.122864 0.504852
vn -0.716535 0.385827 0.582677
v 0.000000 37.174985 -17.932375
vt 0.080292 0.500427
vn 0.000000 0.976378 0.244094
v -3.961513 46.792756 8.936718
vt 0.968750 0.575195
vn -0.574803 0.527559 0.629921
v -2.759510 46.881487 9.677656
vt 0.988159 0.529663
vn -0.968504 -0.196850 0.173228
v 10.775933 39.247480 2.677479
vt 0.984375 0.122742
vn 0.937008 0.000000 0.346457
v 9.516708 43.829785 5.983913
vt 0.809387 0.084229
vn 0.889764 0.141732 0.448819
v 8.104559 41.117162 7.499468
vt 0.850250 0.165344
vn 0.803150 -0.078740 0.598425
v 6.438527 42.164501 9.417486
vt 0.792969 0.191406
vn 0.677165 0.141732 0.724409
v 4.293009 48.101534 9.345076
vt 0.547729 0.115448
vn 0.425197 0.582677 0.700787
v 0.782371 48.456456 9.943720
vt 0.488281 0.196594
vn 0.031496 0.677165 0.740157
v 2.082705 44.282946 11.912257
vt 0.625854 0.263000
vn 0.094488 0.291339 0.952756
v 4.746843 33.243899 -5.599131
vt 0.608063 0.941406
vn 0.795276 -0.259843 -0.551181
v 4.757696 31.680020 -5.860985
vt 0.605835 0.987305
vn 0.795276 0.102362 -0.606299
v 0.000000 31.141299 -8.714437
vt 0.366394 0.986542
vn 0.000000 0.173228 -0.992126
v 9.976133 40.847801 2.250598
vt 0.786041 0.736145
vn 0.984252 -0.165354 -0.102362
v 10.220480 44.590334 1.904547
vt 0.773438 0.625000
vn 0.952756 0.204724 0.220472
v 9.269401 40.915933 4.555925
vt 0.839661 0.737640
vn 0.385827 -0.023622 0.921260
v 0.000000 42.985259 -12.896525
vt 0.356232 0.692169
vn 0.000000 0.346457 -0.944882
v 4.491644 42.576464 -11.899627
vt 0.445312 0.703125
vn 0.519685 0.133858 -0.842520
v 0.000000 50.224732 -8.462687
vt 0.476562 0.428101
vn 0.000000 0.866142 -0.503937
v -4.364702 49.549745 -7.518833
vt 0.554688 0.492188
vn -0.370079 0.724409 -0.582677
v -3.962499 51.238797 -3.615439
vt 0.674194 0.429993
vn -0.377953 0.913386 -0.165354
v -9.750202 42.804629 -1.430515
vt 0.669250 0.696594
vn -0.905512 -0.417323 -0.070866
v -6.659196 37.759656 -6.992599
vt 0.570312 0.822906
vn -0.850394 -0.496063 -0.204724
v -7.276476 37.987821 -3.186874
vt 0.662628 0.816467
vn -0.905512 -0.433071 -0.078740
v -4.746843 33.243899 -5.599131
vt 0.608063 0.941406
vn -0.795276 -0.259843 -0.551181
v -5.848543 33.434036 -1.402730
vt 0.671875 0.917969
vn -0.960630 -0.157480 -0.244094
v 5.848543 33.434036 -1.402730
vt 0.671875 0.917969
vn 0.960630 -0.157480 -0.244094
v 8.813593 40.841463 -7.356332
vt 0.559875 0.735657
vn 0.889764 -0.291339 -0.362205
v 9.284529 44.444562 -6.840202
vt 0.578125 0.648438
vn 0.818898 0.236220 -0.527559
v 10.323414 44.940503 -1.690685
vt 0.690613 0.621857
vn 0.984252 0.141732 -0.094488
v 7.720774 48.069844 -6.012541
vt 0.625000 0.539062
vn 0.685039 0.614173 -0.393701
v 7.825353 49.028452 -2.637064
vt 0.710938 0.500000
vn 0.732283 0.685039 -0.023622
v 3.962499 51.238797 -3.615439
vt 0.674194 0.429993
vn 0.385827 0.905512 -0.173228
v 0.000000 35.085060 -15.799653
vt 0.203461 0.515656
vn 0.000000 -0.787402 0.622047
v -1.662086 37.984652 -13.073340
vt 0.128296 0.528992
vn -0.763780 -0.251969 -0.590551
v -1.648273 36.268664 -16.847912
vt 0.128296 0.528992
vn -0.984252 0.110236 0.149606
v 0.000000 39.120722 -14.192324
vt 0.074982 0.524506
vn 0.000000 0.393701 -0.921260
v 0.000000 37.379382 -17.507178
vt 0.074982 0.524506
vn 0.000000 0.952756 -0.307087
v 1.662086 37.984652 -13.073340
vt 0.128296 0.528992
vn 0.763780 -0.251969 -0.590551
v 1.648273 36.268664 -16.847912
vt 0.128296 0.528992
vn 0.984252 0.110236 0.149606
v 0.000000 36.496829 -12.567313
vt 0.203461 0.515656
vn 0.000000 -0.984252 -0.181102
v 7.269899 46.813354 7.666179
vt 0.621643 0.076996
vn 0.677165 0.488189 0.551181
v 3.993084 43.940699 11.149428
vt 0.670135 0.203125
vn 0.496063 0.251969 0.834646
v 3.155793 39.851165 12.251572
vt 0.736969 0.318573
vn 0.118110 0.102362 0.992126
v 3.530370 33.416607 -21.293538
vt 0.142639 0.729309
vn 0.952756 0.220472 0.236220
v 0.000000 36.710733 -23.072630
vt 0.014130 0.724457
vn 0.000000 0.944882 -0.338583
v -3.530370 33.416607 -21.293538
vt 0.142639 0.729309
vn -0.952756 0.220472 0.236220
v 0.000000 31.518404 -18.407249
vt 0.248535 0.653595
vn 0.000000 -0.472441 0.881890
v -8.709343 36.679043 4.051582
vt 0.216339 0.023071
vn -0.007874 -0.031496 1.000000
v -9.817291 36.686966 2.450988
vt 0.126801 0.020142
vn -0.960630 -0.283465 -0.055118
v -10.089262 31.336189 3.042896
vt 0.140625 0.335938
vn -1.000000 -0.086614 -0.031496
v -8.391988 36.728162 0.769565
vt 0.036682 0.024994
vn 0.102362 -0.149606 -0.984252
v -7.800030 30.428284 0.709785
vt 0.031250 0.335938
vn 0.094488 -0.330709 -0.944882
v -6.478978 30.269837 3.077417
vt 0.140625 0.335938
vn 1.000000 0.047244 0.094488
v -6.873616 27.644359 3.525348
vt 0.132812 0.476562
vn 0.976378 -0.212598 0.102362
v -8.371269 30.639020 5.169724
vt 0.234375 0.320312
vn -0.031496 -0.078740 1.000000
v -7.942429 27.859848 4.497828
vt 0.203125 0.476562
vn -0.047244 -0.244094 0.968504
v -8.978684 27.896291 3.282859
vt 0.132812 0.476562
vn -0.929134 -0.377953 -0.031496
v -7.243919 36.764605 2.485509
vt 0.126801 0.020142
vn 1.000000 -0.015748 0.062992
v -7.822393 27.748935 2.349951
vt 0.046875 0.476562
vn 0.062992 -0.519685 -0.850394
v 7.800030 30.428284 0.709785
vt 0.031250 0.335938
vn -0.094488 -0.330709 -0.944882
v 6.873616 27.644359 3.525348
vt 0.132812 0.476562
vn -0.976378 -0.212598 0.102362
v 8.371269 30.639020 5.169724
vt 0.234375 0.320312
vn 0.031496 -0.078740 1.000000
v 7.942429 27.859848 4.497828
vt 0.203125 0.476562
vn 0.039370 -0.236220 0.976378
v 9.019792 27.896291 3.282859
vt 0.132812 0.476562
vn 0.929134 -0.377953 -0.031496
v 7.822393 27.748935 2.349951
vt 0.046875 0.476562
vn -0.070866 -0.519685 -0.850394
v 0.000000 26.833107 -19.087564
vt 0.372375 0.815094
vn 0.000000 -0.322835 0.952756
v 4.373581 30.375996 -24.293493
vt 0.181824 0.929688
vn 0.960630 0.236220 0.165354
v 0.000000 34.315005 -27.513204
vt 0.013489 0.969910
vn 0.000000 0.866142 -0.503937
v -4.373581 30.375996 -24.293493
vt 0.181824 0.929688
vn -0.960630 0.236220 0.165354
v -8.223280 40.659248 0.183550
vt 0.705719 0.755188
vn -0.582677 -0.519685 -0.622047
v -9.976133 40.847801 2.250598
vt 0.786041 0.736145
vn -0.984252 -0.165354 -0.102362
v -10.220480 44.590334 1.904547
vt 0.773438 0.625000
vn -0.960630 0.204724 0.204724
v -9.269401 40.915933 4.555925
vt 0.839661 0.737640
vn -0.409449 -0.031496 0.913386
v -7.860870 43.983479 5.208455
vt 0.866058 0.656952
vn -0.716535 -0.078740 0.692913
v -7.638228 40.744810 2.425729
vt 0.885803 0.738831
vn 0.771654 -0.330709 0.543307
v -6.535214 42.538437 7.650181
vt 0.908844 0.671875
vn -0.897638 -0.055118 0.448819
v 0.000000 33.315200 -8.322077
vt 0.368805 0.935913
vn 0.000000 -0.519685 -0.858268
v -4.686661 37.891168 -10.733492
vt 0.473419 0.809357
vn -0.629921 -0.480315 -0.614173
v -8.813593 40.841463 -7.356332
vt 0.559875 0.735657
vn -0.889764 -0.291339 -0.362205
v -10.323414 44.940503 -1.690685
vt 0.690613 0.621857
vn -0.992126 0.141732 -0.094488
v -7.825353 49.028452 -2.637064
vt 0.710938 0.500000
vn -0.732283 0.685039 -0.007874
v 7.718471 40.744810 2.425729
vt 0.885803 0.738831
vn -0.952756 -0.133858 0.283465
v 7.471165 43.983479 5.080475
vt 0.866058 0.656952
vn 0.385827 -0.165354 0.913386
v 8.671195 47.144510 4.312594
vt 0.837219 0.567688
vn 0.818898 0.496063 0.299213
v 6.751607 49.346932 2.064522
vt 0.804688 0.507812
vn 0.629921 0.771654 0.102362
v 3.793463 50.368919 5.156252
vt 0.924988 0.457794
vn 0.440945 0.842520 0.314961
v 3.727032 51.186509 2.163033
vt 0.820892 0.442261
vn 0.299213 0.952756 0.125984
v 0.000000 51.083518 5.642914
vt 0.939056 0.398438
vn 0.023622 0.929134 0.370079
v 0.000000 51.817131 2.282593
vt 0.815948 0.365448
vn 0.000000 1.000000 0.110236
v 10.062624 43.379794 2.988168
vt 0.879669 0.026550
vn 0.968504 0.228346 0.141732
v 8.671195 47.144510 4.312594
vt 0.723419 0.015625
vn 0.818898 0.496063 0.299213
v 3.793463 50.368919 5.156252
vt 0.462494 0.028107
vn 0.440945 0.842520 0.314961
v -6.751607 49.346932 2.064522
vt 0.804688 0.507812
vn -0.637795 0.771654 0.086614
v -3.727032 51.186509 2.163033
vt 0.820892 0.442261
vn -0.283465 0.952756 0.102362
v 0.000000 51.918537 -4.139989
vt 0.651031 0.359375
vn 0.000000 1.000000 -0.110236
v 4.686661 37.891168 -10.733492
vt 0.473419 0.809357
vn 0.629921 -0.480315 -0.614173
v -4.757696 31.680020 -5.860985
vt 0.605835 0.987305
vn -0.795276 0.102362 -0.606299
v 0.000000 36.496829 -12.567313
vt 0.365540 0.860260
vn 0.000000 -0.984252 -0.181102
v 1.662086 37.984652 -13.073340
vt 0.406982 0.820801
vn 0.763780 -0.251969 -0.590551
f 1/1/1 2/2/2 3/3/3
f 4/4/4 5/5/5 6/6/6
f 7/7/7 8/8/8 9/9/9
f 10/10/10 11/11/11 12/12/12
f 13/13/13 14/14/14 15/15/15
f 9/9/9 16/16/16 7/7/7
f 17/17/17 18/18/18 19/19/19
f 20/20/20 21/21/21 22/22/22
f 1/1/1 6/6/6 23/23/23
f 24/24/24 25/25/25 26/26/26
f 27/27/27 28/28/28 29/29/29
f 29/29/29 28/28/28 30/30/30
f 29/29/29 30/30/30 31/31/31
f 32/32/32 33/33/33 34/34/34
f 2/2/2 1/1/1 35/35/35
f 35/35/35 1/1/1 23/23/23
f 35/35/35 23/23/23 36/36/36
f 5/5/5 4/4/4 37/37/37
f 37/37/37 4/4/4 38/38/38
f 37/37/37 38/38/38 39/39/39
f 26/26/26 40/40/40 24/24/24
f 24/24/24 40/40/40 41/41/41
f 42/42/42 43/43/43 44/44/44
f 44/44/44 43/43/43 45/45/45
f 46/46/46 47/47/47 48/48/48
f 49/49/49 50/50/50 51/51/51
f 8/8/8 7/7/7 52/52/52
f 52/52/52 7/7/7 53/53/53
f 52/52/52 53/53/53 54/54/54
f 55/55/55 10/10/10 56/56/56
f 56/56/56 10/10/10 12/12/12
f 11/11/11 10/10/10 57/57/57
f 57/57/57 10/10/10 58/58/58
f 57/57/57 58/58/58 59/59/59
f 14/14/14 13/13/13 32/32/32
f 60/60/60 61/61/61 62/62/62
f 62/62/62 61/61/61 63/63/63
f 62/62/62 63/63/63 64/64/64
f 16/16/16 9/9/9 49/49/49
f 49/49/49 9/9/9 65/65/65
f 49/49/49 65/65/65 50/50/50
f 66/66/66 67/67/67 68/68/68
f 68/68/68 67/67/67 69/69/69
f 68/68/68 69/69/69 70/70/70
f 70/70/70 69/69/69 71/71/71
f 72/72/72 73/73/73 74/74/74
f 74/74/74 73/73/73 75/75/75
f 74/74/74 75/75/75 76/76/76
f 76/76/76 75/75/75 77/77/77
f 76/76/76 77/77/77 78/78/78
f 78/78/78 77/77/77 79/79/79
f 78/78/78 79/79/79 72/72/72
f 72/72/72 79/79/79 73/73/73
f 43/43/43 80/80/80 45/45/45
f 45/45/45 80/80/80 46/46/46
f 45/45/45 46/46/46 81/81/81
f 81/81/81 46/46/46 48/48/48
f 81/81/81 48/48/48 82/82/82
f 78/78/78 83/83/83 76/76/76
f 76/76/76 83/83/83 84/84/84
f 76/76/76 84/84/84 74/74/74
f 74/74/74 84/84/84 85/85/85
f 74/74/74 85/85/85 72/72/72
f 72/72/72 85/85/85 86/86/86
f 72/72/72 86/86/86 78/78/78
f 78/78/78 86/86/86 83/83/83
f 87/87/87 88/88/88 89/89/89
f 89/89/89 88/88/88 90/90/90
f 89/89/89 90/90/90 91/91/91
f 91/91/91 90/90/90 92/92/92
f 91/91/91 92/92/92 93/93/93
f 93/93/93 92/92/92 94/94/94
f 93/93/93 94/94/94 95/95/95
f 95/95/95 94/94/94 96/96/96
f 90/90/90 97/97/97 92/92/92
f 92/92/92 97/97/97 87/87/87
f 92/92/92 87/87/87 94/94/94
f 94/94/94 87/87/87 89/89/89
f 94/94/94 89/89/89 96/96/96
f 96/96/96 89/89/89 91/91/91
f 96/96/96 91/91/91 98/98/98
f 98/98/98 91/91/91 93/93/93
f 18/18/18 17/17/17 22/22/22
f 22/22/22 17/17/17 99/99/99
f 22/22/22 99/99/99 20/20/20
f 20/20/20 99/99/99 100/100/100
f 20/20/20 100/100/100 101/101/101
f 101/101/101 100/100/100 102/102/102
f 101/101/101 102/102/102 103/103/103
f 21/21/21 20/20/20 19/19/19
f 19/19/19 20/20/20 101/101/101
f 19/19/19 101/101/101 17/17/17
f 17/17/17 101/101/101 103/103/103
f 17/17/17 103/103/103 99/99/99
f 99/99/99 103/103/103 104/104/104
f 99/99/99 104/104/104 100/100/100
f 85/85/85 105/105/105 86/86/86
f 86/86/86 105/105/105 106/106/106
f 86/86/86 106/106/106 83/83/83
f 83/83/83 106/106/106 107/107/107
f 83/83/83 107/107/107 84/84/84
f 84/84/84 107/107/107 108/108/108
f 84/84/84 108/108/108 85/85/85
f 85/85/85 108/108/108 105/105/105
f 62/62/62 109/109/109 60/60/60
f 60/60/60 109/109/109 110/110/110
f 60/60/60 110/110/110 111/111/111
f 111/111/111 110/110/110 112/112/112
f 111/111/111 112/112/112 113/113/113
f 113/113/113 112/112/112 114/114/114
f 113/113/113 114/114/114 115/115/115
f 116/116/116 63/63/63 117/117/117
f 117/117/117 63/63/63 61/61/61
f 117/117/117 61/61/61 118/118/118
f 118/118/118 61/61/61 60/60/60
f 118/118/118 60/60/60 119/119/119
f 119/119/119 60/60/60 111/111/111
f 119/119/119 111/111/111 120/120/120
f 121/121/121 54/54/54 122/122/122
f 122/122/122 54/54/54 53/53/53
f 122/122/122 53/53/53 123/123/123
f 123/123/123 53/53/53 124/124/124
f 123/123/123 124/124/124 125/125/125
f 125/125/125 124/124/124 126/126/126
f 125/125/125 126/126/126 127/127/127
f 127/127/127 126/126/126 128/128/128
f 6/6/6 1/1/1 4/4/4
f 4/4/4 1/1/1 3/3/3
f 4/4/4 3/3/3 38/38/38
f 38/38/38 3/3/3 2/2/2
f 38/38/38 2/2/2 39/39/39
f 39/39/39 2/2/2 35/35/35
f 39/39/39 35/35/35 37/37/37
f 37/37/37 35/35/35 36/36/36
f 37/37/37 36/36/36 5/5/5
f 42/42/42 129/129/129 43/43/43
f 43/43/43 129/129/129 130/130/130
f 43/43/43 130/130/130 80/80/80
f 80/80/80 130/130/130 131/131/131
f 80/80/80 131/131/131 46/46/46
f 46/46/46 131/131/131 27/27/27
f 46/46/46 27/27/27 47/47/47
f 47/47/47 27/27/27 29/29/29
f 47/47/47 29/29/29 48/48/48
f 48/48/48 29/29/29 31/31/31
f 48/48/48 31/31/31 82/82/82
f 25/25/25 24/24/24 132/132/132
f 132/132/132 24/24/24 133/133/133
f 132/132/132 133/133/133 59/59/59
f 59/59/59 133/133/133 134/134/134
f 59/59/59 134/134/134 57/57/57
f 57/57/57 134/134/134 71/71/71
f 57/57/57 71/71/71 11/11/11
f 11/11/11 71/71/71 69/69/69
f 11/11/11 69/69/69 12/12/12
f 12/12/12 69/69/69 67/67/67
f 12/12/12 67/67/67 56/56/56
f 56/56/56 67/67/67 66/66/66
f 56/56/56 66/66/66 135/135/135
f 24/24/24 127/127/127 133/133/133
f 133/133/133 127/127/127 128/128/128
f 133/133/133 128/128/128 134/134/134
f 134/134/134 128/128/128 126/126/126
f 134/134/134 126/126/126 71/71/71
f 71/71/71 126/126/126 124/124/124
f 71/71/71 124/124/124 70/70/70
f 70/70/70 124/124/124 53/53/53
f 70/70/70 53/53/53 68/68/68
f 68/68/68 53/53/53 7/7/7
f 68/68/68 7/7/7 66/66/66
f 66/66/66 7/7/7 16/16/16
f 66/66/66 16/16/16 135/135/135
f 135/135/135 16/16/16 49/49/49
f 135/135/135 49/49/49 116/116/116
f 116/116/116 49/49/49 51/51/51
f 116/116/116 51/51/51 63/63/63
f 63/63/63 51/51/51 136/136/136
f 63/63/63 136/136/136 64/64/64
f 120/120/120 15/15/15 119/119/119
f 119/119/119 15/15/15 14/14/14
f 119/119/119 14/14/14 118/118/118
f 118/118/118 14/14/14 32/32/32
f 118/118/118 32/32/32 117/117/117
f 117/117/117 32/32/32 34/34/34
f 117/117/117 34/34/34 116/116/116
f 116/116/116 34/34/34 137/137/137
f 116/116/116 137/137/137 135/135/135
f 135/135/135 137/137/137 138/138/138
f 135/135/135 138/138/138 56/56/56
f 56/56/56 138/138/138 33/33/33
f 56/56/56 33/33/33 55/55/55
f 55/55/55 33/33/33 32/32/32
f 55/55/55 32/32/32 10/10/10
f 10/10/10 32/32/32 13/13/13
f 10/10/10 13/13/13 58/58/58
f 58/58/58 13/13/13 15/15/15
f 58/58/58 15/15/15 59/59/59
f 59/59/59 15/15/15 120/120/120
f 59/59/59 120/120/120 132/132/132
f 132/132/132 120/120/120 111/111/111
f 132/132/132 111/111/111 25/25/25
f 25/25/25 111/111/111 113/113/113
f 25/25/25 113/113/113 26/26/26
f 26/26/26 113/113/113 115/115/115
usemtl texture00
v 2.451363 36.989601 -15.452760
vt 0.324219 0.394531
vn 1.000000 0.000000 -0.015748
v 2.184653 37.724798 -13.492643
vt 0.324219 0.332031
vn 0.740157 -0.236220 -0.637795
v 0.000000 34.894923 -14.267260
vt 0.404083 0.394531
vn 0.000000 -0.897638 0.440945
v -8.921132 37.645574 4.674643
vt 0.835938 0.320312
vn -0.015748 -0.204724 0.984252
v -9.817291 36.686966 2.450988
vt 0.914062 0.363556
vn -0.960630 -0.283465 -0.055118
v -8.709343 36.679043 4.051582
vt 0.835938 0.363556
vn -0.007874 -0.031496 1.000000
v 8.561025 37.623391 0.309847
vt 0.987976 0.319702
vn -0.110236 -0.228346 -0.968504
v 7.718471 40.744810 2.425729
vt 0.914062 0.189301
vn -0.952756 -0.133858 0.283465
v 8.223280 40.659248 0.183550
vt 0.987976 0.188690
vn 0.590551 -0.519685 -0.622047
v 0.000000 39.561206 -14.672249
vt 0.277344 0.332031
vn 0.000000 0.433071 -0.905512
v 2.184653 37.724798 -13.492643
vt 0.835938 0.828125
vn 0.740157 -0.236220 -0.637795
v 3.440261 35.476426 -10.595408
vt 0.960938 0.914062
vn 0.425197 -0.637795 -0.637795
v 0.000000 35.896312 -12.907471
vt 0.898438 0.781250
vn 0.000000 -0.921260 -0.393701
v -2.184653 37.724798 -13.492643
vt 0.835938 0.828125
vn -0.740157 -0.236220 -0.637795
v -3.440261 41.858697 -12.771913
vt 0.726562 0.921875
vn -0.456693 0.078740 -0.889764
v 0.000000 39.561206 -14.672249
vt 0.781250 0.781250
vn 0.000000 0.433071 -0.905512
v 7.180448 37.618638 2.365949
vt 0.914062 0.320312
vn -1.000000 -0.047244 0.070866
v 8.921132 37.645574 4.674643
vt 0.835938 0.320312
vn 0.007874 -0.196850 0.984252
v 0.000000 35.896312 -12.907471
vt 0.371094 0.332031
vn 0.000000 -0.921260 -0.393701
v -2.184653 37.724798 -13.492643
vt 0.324219 0.332031
vn -0.740157 -0.236220 -0.637795
v -2.451363 36.989601 -15.452760
vt 0.324219 0.394531
vn -1.000000 0.000000 -0.015748
v 0.000000 38.917909 -16.562482
vt 0.246094 0.394531
vn 0.000000 0.889764 -0.464567
v 0.000000 34.181909 -16.410085
vt 0.402344 0.457031
vn 0.000000 -0.937008 0.354331
v -2.165579 35.786983 -17.577062
vt 0.324219 0.464844
vn -0.984252 -0.062992 -0.165354
v 0.000000 37.228857 -18.375254
vt 0.246094 0.457031
vn 0.000000 0.779528 -0.629921
v 2.165579 35.786983 -17.577062
vt 0.324219 0.464844
vn 0.984252 -0.062992 -0.165354
v 10.481270 37.580610 2.450988
vt 0.914062 0.320312
vn 0.968504 -0.251969 -0.094488
v 9.976133 40.847801 2.250598
vt 0.914062 0.189301
vn 0.984252 -0.165354 -0.102362
v 9.269401 40.915933 4.555925
vt 0.835938 0.189301
vn 0.385827 -0.023622 0.921260
v -7.180448 37.618638 2.365949
vt 0.914062 0.320312
vn 1.000000 -0.031496 0.078740
v -7.243919 36.764605 2.485509
vt 0.914062 0.363556
vn 1.000000 -0.015748 0.062992
v -8.561025 37.623391 0.309847
vt 0.987976 0.319702
vn 0.133858 -0.220472 -0.968504
v -8.391988 36.728162 0.769565
vt 0.987366 0.363556
vn 0.102362 -0.149606 -0.984252
v -10.481270 37.580610 2.450988
vt 0.914062 0.320312
vn -0.960630 -0.267717 -0.094488
v 0.000000 33.929977 -10.403438
vt 0.984375 0.804688
vn 0.000000 -0.787402 -0.622047
v -3.440261 35.476426 -10.595408
vt 0.960938 0.914062
vn -0.425197 -0.637795 -0.637795
v -4.963895 38.833931 -11.780909
vt 0.835938 0.968750
vn -0.582677 -0.259843 -0.771654
v 0.000000 43.219762 -13.715766
vt 0.695312 0.812500
vn 0.000000 0.251969 -0.968504
v 3.440261 41.858697 -12.771913
vt 0.726562 0.921875
vn 0.456693 0.078740 -0.889764
v 4.963895 38.833931 -11.780909
vt 0.835938 0.968750
vn 0.582677 -0.259843 -0.771654
v -9.976133 40.847801 2.250598
vt 0.914062 0.189301
vn -0.984252 -0.165354 -0.102362
v -8.223280 40.659248 0.183550
vt 0.987976 0.188690
vn -0.582677 -0.519685 -0.622047
v -7.638228 40.744810 2.425729
vt 0.914062 0.189301
vn 0.771654 -0.330709 0.543307
v -9.269401 40.915933 4.555925
vt 0.835938 0.189301
vn -0.409449 -0.031496 0.913386
v 7.243919 36.764605 2.485509
vt 0.914062 0.363556
vn -1.000000 -0.039370 0.031496
v 8.669550 36.699642 4.071789
vt 0.835938 0.363556
vn 0.000000 -0.031496 1.000000
v 9.817291 36.686966 2.450988
vt 0.914062 0.363556
vn 0.968504 -0.267717 -0.031496
v 8.577139 36.728162 0.769565
vt 0.987366 0.363556
vn -0.055118 -0.165354 -0.992126
f 139/139/139 140/140/140 141/141/141
f 142/142/142 143/143/143 144/144/144
f 145/145/145 146/146/146 147/147/147
f 140/140/140 139/139/139 148/148/148
f 149/149/149 150/150/150 151/151/151
f 152/152/152 153/153/153 154/154/154
f 146/146/146 155/155/155 156/156/156
f 140/140/140 157/157/157 141/141/141
f 141/141/141 157/157/157 158/158/158
f 141/141/141 158/158/158 159/159/159
f 159/159/159 158/158/158 148/148/148
f 159/159/159 148/148/148 160/160/160
f 160/160/160 148/148/148 139/139/139
f 161/161/161 141/141/141 162/162/162
f 162/162/162 141/141/141 159/159/159
f 162/162/162 159/159/159 163/163/163
f 163/163/163 159/159/159 160/160/160
f 163/163/163 160/160/160 164/164/164
f 164/164/164 160/160/160 139/139/139
f 164/164/164 139/139/139 161/161/161
f 161/161/161 139/139/139 141/141/141
f 145/145/145 147/147/147 165/165/165
f 165/165/165 147/147/147 166/166/166
f 165/165/165 166/166/166 156/156/156
f 156/156/156 166/166/166 167/167/167
f 156/156/156 167/167/167 146/146/146
f 142/142/142 144/144/144 168/168/168
f 168/168/168 144/144/144 169/169/169
f 168/168/168 169/169/169 170/170/170
f 170/170/170 169/169/169 171/171/171
f 170/170/170 171/171/171 172/172/172
f 172/172/172 171/171/171 143/143/143
f 150/150/150 173/173/173 151/151/151
f 151/151/151 173/173/173 174/174/174
f 151/151/151 174/174/174 152/152/152
f 152/152/152 174/174/174 175/175/175
f 152/152/152 175/175/175 153/153/153
f 153/153/153 176/176/176 154/154/154
f 154/154/154 176/176/176 177/177/177
f 154/154/154 177/177/177 149/149/149
f 149/149/149 177/177/177 178/178/178
f 149/149/149 178/178/178 150/150/150
f 143/143/143 142/142/142 172/172/172
f 172/172/172 142/142/142 179/179/179
f 172/172/172 179/179/179 170/170/170
f 170/170/170 179/179/179 180/180/180
f 170/170/170 180/180/180 168/168/168
f 168/168/168 180/180/180 181/181/181
f 168/168/168 181/181/181 142/142/142
f 142/142/142 181/181/181 182/182/182
f 142/142/142 182/182/182 179/179/179
f 146/146/146 145/145/145 155/155/155
f 155/155/155 145/145/145 183/183/183
f 155/155/155 183/183/183 156/156/156
f 156/156/156 183/183/183 184/184/184
f 156/156/156 184/184/184 165/165/165
f 165/165/165 184/184/184 185/185/185
f 165/165/165 185/185/185 145/145/145
f 145/145/145 185/185/185 186/186/186
f 145/145/145 186/186/186 183/183/183
