mtllib 2095-0.mtl
g mesh00
usemtl texture00
v -6.927443 57.476501 -5.401476
vt 0.269531 0.160156
vn -0.874016 -0.236220 -0.425197
v -5.616497 50.361311 -4.339560
vt 0.228149 0.435059
vn -0.929134 -0.157480 -0.330709
v -6.382428 51.078929 -2.027851
vt 0.279053 0.405426
vn -0.952756 -0.220472 -0.204724
v 4.104808 49.170025 -7.229708
vt 0.134308 0.484283
vn 0.692913 -0.102362 -0.716535
v 0.000000 51.715230 -10.222983
vt 0.010345 0.371094
vn 0.000000 -0.244094 -0.968504
v 4.771195 56.647073 -8.547913
vt 0.144531 0.175781
vn 0.551181 -0.110236 -0.826772
v 0.000000 51.715230 -10.222983
vt 0.010345 0.371094
vn 0.000000 -0.244094 -0.968504
v 0.000000 48.765476 -9.455136
vt 0.010345 0.503906
vn 0.000000 -0.118110 -1.000000
v -4.104808 49.170025 -7.229708
vt 0.134308 0.484283
vn -0.692913 -0.094488 -0.716535
v 5.616497 50.361311 -4.339560
vt 0.228149 0.435059
vn 0.929134 -0.173228 -0.330709
v 6.927443 56.537296 -5.401476
vt 0.269531 0.160156
vn 0.905512 -0.236220 -0.362205
v -5.616497 50.361311 -4.339560
vt 0.228149 0.435059
vn -0.929134 -0.157480 -0.330709
v -6.927443 57.476501 -5.401476
vt 0.269531 0.160156
vn -0.874016 -0.236220 -0.425197
v -4.104808 49.170025 -7.229708
vt 0.134308 0.484283
vn -0.692913 -0.094488 -0.716535
v -4.771195 57.350460 -8.547913
vt 0.144531 0.175781
vn -0.551181 -0.102362 -0.826772
v 6.927443 56.537296 -5.401476
vt 0.269531 0.160156
vn 0.905512 -0.236220 -0.362205
v 6.382428 51.078929 -2.027851
vt 0.279053 0.405426
vn 0.960630 -0.212598 -0.181102
v 5.616497 50.361311 -4.339560
vt 0.228149 0.435059
vn 0.929134 -0.173228 -0.330709
v 5.924060 48.844759 -2.990212
vt 0.277344 0.527344
vn 0.944882 -0.094488 -0.322835
v 4.104808 49.170025 -7.229708
vt 0.134308 0.484283
vn 0.692913 -0.102362 -0.716535
v 4.420639 46.655314 -7.597294
vt 0.144531 0.613281
vn 0.732283 0.110236 -0.677165
v 0.000000 46.130823 -10.122918
vt 0.010345 0.644531
vn 0.000000 0.165354 -0.992126
v 0.000000 51.715230 -10.222983
vt 0.010345 0.371094
vn 0.000000 -0.244094 -0.968504
v 0.000000 48.765476 -9.455136
vt 0.010345 0.503906
vn 0.000000 -0.118110 -1.000000
v -4.420639 46.655314 -7.597294
vt 0.144531 0.613281
vn -0.732283 0.110236 -0.677165
v -5.616497 50.361311 -4.339560
vt 0.228149 0.435059
vn -0.929134 -0.157480 -0.330709
v -5.924060 48.844759 -2.990212
vt 0.277344 0.527344
vn -0.944882 -0.094488 -0.322835
v -6.382428 51.078929 -2.027851
vt 0.279053 0.405426
vn -0.952756 -0.220472 -0.204724
f 1/1/1 2/2/2 3/3/3
f 4/4/4 5/5/5 6/6/6
f 7/7/7 8/8/8 9/9/9
f 10/10/10 4/4/4 11/11/11
f 11/11/11 4/4/4 6/6/6
f 12/12/12 13/13/13 14/14/14
f 14/14/14 13/13/13 15/15/15
f 14/14/14 15/15/15 5/5/5
f 16/16/16 17/17/17 18/18/18
f 18/18/18 17/17/17 19/19/19
f 18/18/18 19/19/19 20/20/20
f 20/20/20 19/19/19 21/21/21
f 20/20/20 21/21/21 22/22/22
f 23/23/23 20/20/20 24/24/24
f 24/24/24 20/20/20 22/22/22
f 24/24/24 22/22/22 9/9/9
f 9/9/9 22/22/22 25/25/25
f 9/9/9 25/25/25 26/26/26
f 26/26/26 25/25/25 27/27/27
f 26/26/26 27/27/27 28/28/28
usemtl texture00
v -5.862216 54.630425 7.936801
vt 0.164337 0.583862
vn -0.755906 0.141732 0.645669
v -5.004678 57.456171 8.298771
vt 0.178101 0.420227
vn -0.755906 0.141732 0.645669
v -5.617489 57.340296 7.339473
vt 0.115601 0.420227
vn -0.842520 0.188976 0.511811
v 6.030880 52.581250 7.459960
vt 0.113281 0.589264
vn 0.929134 0.055118 0.370079
v 6.203181 57.122774 6.289299
vt 0.089844 0.417389
vn 0.929134 0.055118 0.370079
v 4.974583 57.340296 7.995512
vt 0.152344 0.401764
vn 0.818898 0.110236 0.574803
v 5.168381 54.404772 8.110383
vt 0.164337 0.583862
vn 0.708661 -0.102362 0.700787
v 4.480829 57.456171 9.258580
vt 0.178101 0.420227
vn 0.708661 -0.102362 0.700787
v 3.261821 57.236617 9.654756
vt 0.224976 0.451477
vn 0.338583 -0.259843 0.905512
v -6.681723 55.313483 4.707147
vt 0.042969 0.461975
vn -0.976378 -0.070866 0.212598
v -5.855271 52.581250 7.459960
vt 0.113281 0.594788
vn -0.937008 -0.007874 0.354331
v -6.652951 57.122774 5.469378
vt 0.089844 0.422913
vn -0.937008 -0.007874 0.354331
v -5.617489 57.340296 7.339473
vt 0.152344 0.407288
vn -0.881890 0.055118 0.480315
v -4.072729 57.572047 9.078871
vt 0.224976 0.451477
vn -0.645669 0.094488 0.755906
v 6.376144 55.941653 5.219215
vt 0.042969 0.456451
vn 0.992126 0.000000 0.157480
v 4.974583 57.340296 7.995512
vt 0.115601 0.420227
vn 0.937008 0.070866 0.354331
v -4.771195 57.350460 -8.547913
vt 0.144531 0.175781
vn -0.543307 -0.078740 -0.834646
v 0.000000 58.198184 -10.157124
vt 0.044495 0.111176
vn 0.007874 0.125984 -0.992126
v 0.000000 54.837782 -10.585975
vt 0.030945 0.250031
vn 0.000000 0.007874 -1.000000
v -7.936117 58.578338 -4.279317
vt 0.300781 0.167969
vn -0.960630 -0.244094 -0.157480
v -6.382428 51.078929 -2.027851
vt 0.279053 0.405426
vn -0.952756 -0.220472 -0.204724
v -6.700904 54.813387 -0.107213
vt 0.361816 0.251038
vn -0.976378 -0.157480 0.141732
v 3.932507 57.691989 -9.730316
vt 0.057953 0.132050
vn 0.472441 -0.031496 -0.881890
v 4.744076 53.825392 -8.508602
vt 0.096527 0.291931
vn 0.724409 -0.125984 -0.677165
v 2.691011 51.987640 -9.728784
vt 0.058014 0.367889
vn 0.488189 -0.102362 -0.874016
v 0.000000 53.931103 -11.525362
vt 0.010345 0.285156
vn 0.000000 -0.094488 -1.000000
v -2.444630 55.467984 -10.133129
vt 0.045227 0.223999
vn -0.488189 -0.173228 -0.858268
v -3.932507 57.691989 -9.730316
vt 0.057953 0.132050
vn -0.472441 -0.031496 -0.881890
v -2.691011 51.987640 -9.728784
vt 0.058014 0.367889
vn -0.488189 -0.102362 -0.874016
v 7.128847 54.813387 -0.107213
vt 0.361816 0.251038
vn 0.984252 -0.181102 -0.023622
v 6.382428 51.078929 -2.027851
vt 0.279053 0.405426
vn 0.960630 -0.212598 -0.181102
v 7.732067 58.623063 -4.163425
vt 0.300781 0.167969
vn 0.976378 -0.204724 -0.125984
v 6.927443 56.537296 -5.401476
vt 0.269531 0.160156
vn 0.905512 -0.236220 -0.362205
v -7.767123 58.476693 -5.151314
vt 0.207031 0.074219
vn -0.787402 -0.070866 -0.614173
v -5.420384 59.133323 -8.839940
vt 0.089844 0.027344
vn -0.598425 0.015748 -0.803150
v -4.744076 53.825392 -8.508602
vt 0.096527 0.291931
vn -0.716535 -0.125984 -0.685039
v -7.936117 58.578338 -4.279317
vt 0.286774 0.167969
vn -0.960630 -0.244094 -0.157480
v -6.927443 57.476501 -5.401476
vt 0.255524 0.160156
vn -0.874016 -0.236220 -0.425197
v -5.329769 51.810777 -7.271061
vt 0.135620 0.375153
vn -0.732283 -0.047244 -0.685039
v -7.364645 55.858303 -5.535748
vt 0.207031 0.222656
vn -0.748031 -0.015748 -0.669291
v -8.107095 53.628200 -4.168531
vt 0.246094 0.300781
vn -0.842520 -0.047244 -0.535433
v 0.000000 56.929647 -11.214445
vt 0.011719 0.144531
vn 0.000000 0.220472 -0.976378
v 2.444630 55.467984 -10.133129
vt 0.045227 0.223999
vn 0.488189 -0.173228 -0.858268
v 4.771195 56.647073 -8.547913
vt 0.144531 0.175781
vn 0.551181 -0.110236 -0.826772
v 0.000000 51.715230 -10.222983
vt 0.010345 0.371094
vn 0.000000 -0.244094 -0.968504
v -4.771195 57.350460 -8.547913
vt 0.144531 0.175781
vn -0.551181 -0.102362 -0.826772
v 7.577293 58.476693 -5.151314
vt 0.207031 0.074219
vn 0.834646 -0.094488 -0.543307
v 7.711232 54.150658 -4.283401
vt 0.246094 0.300781
vn 0.874016 -0.062992 -0.480315
v 7.364645 55.382602 -5.086986
vt 0.207031 0.222656
vn 0.834646 -0.062992 -0.551181
v 5.329769 51.810777 -7.271061
vt 0.135620 0.375153
vn 0.803150 -0.078740 -0.590551
v 5.420384 59.133323 -8.839940
vt 0.089844 0.027344
vn 0.614173 0.015748 -0.795276
v 0.000000 59.383371 -10.305180
vt 0.013550 0.015411
vn 0.000000 0.330709 -0.944882
f 29/29/29 30/30/30 31/31/31
f 32/32/32 33/33/33 34/34/34
f 35/35/35 36/36/36 37/37/37
f 38/38/38 39/39/39 40/40/40
f 40/40/40 39/39/39 41/41/41
f 30/30/30 29/29/29 42/42/42
f 33/33/33 32/32/32 43/43/43
f 36/36/36 35/35/35 44/44/44
f 45/45/45 46/46/46 47/47/47
f 48/48/48 49/49/49 50/50/50
f 51/51/51 52/52/52 53/53/53
f 54/54/54 55/55/55 56/56/56
f 56/56/56 55/55/55 57/57/57
f 58/58/58 59/59/59 60/60/60
f 60/60/60 59/59/59 61/61/61
f 62/62/62 63/63/63 64/64/64
f 65/65/65 66/66/66 49/49/49
f 64/64/64 67/67/67 62/62/62
f 62/62/62 67/67/67 68/68/68
f 62/62/62 68/68/68 69/69/69
f 56/56/56 70/70/70 54/54/54
f 54/54/54 70/70/70 51/51/51
f 54/54/54 51/51/51 71/71/71
f 71/71/71 51/51/51 53/53/53
f 46/46/46 72/72/72 47/47/47
f 47/47/47 72/72/72 73/73/73
f 47/47/47 73/73/73 74/74/74
f 75/75/75 76/76/76 77/77/77
f 77/77/77 78/78/78 75/75/75
f 75/75/75 78/78/78 52/52/52
f 75/75/75 52/52/52 79/79/79
f 79/79/79 52/52/52 51/51/51
f 79/79/79 51/51/51 80/80/80
f 80/80/80 51/51/51 70/70/70
f 80/80/80 70/70/70 63/63/63
f 63/63/63 70/70/70 56/56/56
f 63/63/63 56/56/56 64/64/64
f 64/64/64 56/56/56 57/57/57
usemtl texture00
v -2.763106 65.317439 3.817282
vt 0.731689 0.373596
vn -0.251969 0.905512 0.338583
v -0.005291 66.612404 -0.037269
vt 0.679840 0.320404
vn 0.000000 1.000000 0.062992
v -2.682081 66.018794 0.034206
vt 0.732941 0.321411
vn -0.251969 0.968504 0.039370
v 9.792408 53.786767 -3.543123
vt 0.785156 0.808594
vn 0.960630 0.259843 -0.125984
v 8.835987 58.379113 -1.756246
vt 0.785156 0.652344
vn 0.968504 0.236220 -0.070866
v 8.631275 57.415513 2.887084
vt 0.878906 0.652344
vn 0.960630 0.118110 0.259843
v 5.674702 59.606992 8.028697
vt 0.550781 0.519531
vn 0.740157 0.267717 0.622047
v 5.608229 62.660424 6.168813
vt 0.550781 0.425781
vn 0.692913 0.519685 0.496063
v 2.843800 63.089369 7.600357
vt 0.628906 0.425781
vn 0.354331 0.653543 0.669291
v 5.481566 64.614052 3.074961
vt 0.550781 0.371094
vn 0.582677 0.771654 0.267717
v 2.762775 65.317439 3.817282
vt 0.627716 0.373932
vn 0.251969 0.905512 0.338583
v -5.675033 59.606992 8.028697
vt 0.808594 0.519531
vn -0.740157 0.267717 0.622047
v -5.248083 57.008931 9.242243
vt 0.808594 0.613281
vn -0.716535 0.283465 0.637795
v -2.810729 59.936323 9.793112
vt 0.730469 0.503906
vn -0.377953 0.362205 0.858268
v -2.605356 56.506802 10.901997
vt 0.730469 0.613281
vn -0.330709 0.346457 0.881890
v 0.002315 56.258787 11.553952
vt 0.683594 0.613281
vn 0.000000 0.322835 0.944882
v -9.792408 53.786767 -3.543123
vt 0.191406 0.808594
vn -0.960630 0.259843 -0.125984
v -7.606727 59.045908 -5.858407
vt 0.300781 0.652344
vn -0.866142 0.362205 -0.346457
v -8.453021 54.305159 -8.027166
vt 0.300781 0.808594
vn -0.818898 0.370079 -0.433071
v -5.271563 59.367108 -9.037007
vt 0.386719 0.652344
vn -0.622047 0.393701 -0.677165
v -5.951178 54.410870 -11.353311
vt 0.386719 0.808594
vn -0.535433 0.448819 -0.716535
v 0.000000 59.413865 -11.688734
vt 0.488281 0.652344
vn 0.000000 0.393701 -0.921260
v -5.481897 64.614052 3.074961
vt 0.808594 0.371094
vn -0.582677 0.771654 0.267717
v -5.608560 62.660424 6.168813
vt 0.808594 0.425781
vn -0.700787 0.519685 0.496063
v -2.844131 63.089369 7.600357
vt 0.730469 0.425781
vn -0.354331 0.653543 0.669291
v -7.606727 59.045908 -5.858407
vt 0.989990 0.222656
vn -0.866142 0.362205 -0.346457
v -4.585665 62.906407 -7.092373
vt 0.790863 0.128906
vn -0.622047 0.574803 -0.535433
v -5.271563 59.367108 -9.037007
vt 0.800659 0.008636
vn -0.622047 0.393701 -0.677165
v 0.003307 61.906214 -10.996446
vt 0.675781 0.058594
vn 0.000000 0.496063 -0.874016
v 0.000000 59.413865 -11.688734
vt 0.675781 0.008636
vn 0.000000 0.393701 -0.921260
v 5.270240 59.367108 -9.037007
vt 0.558685 0.008636
vn 0.622047 0.393701 -0.677165
v -0.013890 66.272908 -4.978242
vt 0.679474 0.196228
vn 0.000000 0.992126 -0.165354
v 2.681751 66.018794 0.034206
vt 0.626556 0.322113
vn 0.251969 0.968504 0.039370
v 5.354903 65.160905 -0.018890
vt 0.556976 0.321564
vn 0.559055 0.834646 -0.047244
v 9.512625 52.526362 1.309526
vt 0.878906 0.808594
vn 0.921260 0.062992 0.385827
v 6.706196 50.965086 5.866575
vt 0.989990 0.808594
vn 0.850394 0.007874 0.527559
v 7.732728 46.378838 4.666304
vt 0.989990 0.989990
vn 0.858268 0.031496 0.519685
v -10.436968 48.200326 -0.085770
vt 0.089844 0.989990
vn -0.944882 0.102362 0.314961
v -9.513948 52.526362 1.309526
vt 0.089844 0.808594
vn -0.921260 0.062992 0.385827
v -7.733059 46.378838 4.666304
vt 0.010345 0.989990
vn -0.858268 0.031496 0.519685
v -6.706857 50.965086 5.866575
vt 0.009979 0.808594
vn -0.850394 0.007874 0.527559
v 7.606727 59.045908 -5.858407
vt 0.371094 0.230469
vn 0.874016 0.354331 -0.346457
v 4.584011 62.906407 -7.092373
vt 0.568481 0.128906
vn 0.614173 0.574803 -0.543307
v 0.006614 65.057227 -8.379436
vt 0.678894 0.118713
vn 0.000000 0.834646 -0.559055
v 5.863209 56.382794 7.474255
vt 0.989990 0.652344
vn 0.905512 0.062992 0.433071
v 6.760102 50.308455 -13.869235
vt 0.589844 0.989990
vn 0.551181 0.488189 -0.677165
v 0.007606 49.857149 -16.729261
vt 0.488281 0.989990
vn 0.000000 0.496063 -0.874016
v 0.008268 54.187250 -14.263369
vt 0.488281 0.808594
vn 0.000000 0.503937 -0.866142
v -6.761755 50.308455 -13.869235
vt 0.386719 0.989990
vn -0.551181 0.488189 -0.677165
v -0.002646 65.695561 4.134325
vt 0.683594 0.371094
vn 0.000000 0.937008 0.354331
v 0.000000 63.249969 8.306429
vt 0.683594 0.425781
vn 0.000000 0.740157 0.677165
v 0.000000 60.048133 10.559937
vt 0.683594 0.496094
vn 0.000000 0.417323 0.913386
v 2.810398 59.936323 9.793112
vt 0.628906 0.503906
vn 0.377953 0.362205 0.858268
v 2.605025 56.506802 10.901997
vt 0.628906 0.613281
vn 0.330709 0.346457 0.881890
v 5.247752 57.008931 9.242243
vt 0.550781 0.613281
vn 0.716535 0.283465 0.637795
v -3.835939 64.992174 -4.557560
vt 0.769531 0.199219
vn -0.511811 0.803150 -0.307087
v -5.354903 65.160905 -0.018890
vt 0.802490 0.320282
vn -0.566929 0.826772 -0.055118
v -6.935710 62.497791 -3.236802
vt 0.871094 0.222656
vn -0.803150 0.551181 -0.228346
v -7.484032 62.170493 2.413817
vt 0.863281 0.363281
vn -0.866142 0.480315 0.125984
v -8.445084 60.070495 -1.083869
vt 0.910156 0.316406
vn -0.952756 0.307087 -0.039370
v -8.248971 59.198376 3.353204
vt 0.910156 0.425781
vn -0.921260 0.188976 0.346457
v -8.631937 57.415513 2.887084
vt 0.989990 0.433594
vn -0.960630 0.118110 0.259843
v -5.863209 56.382794 7.474255
vt 0.884521 0.644531
vn -0.905512 0.062992 0.433071
v 7.484694 62.170493 2.413817
vt 0.511719 0.371094
vn 0.866142 0.480315 0.133858
v 8.248640 59.198376 3.353204
vt 0.464844 0.425781
vn 0.921260 0.188976 0.346457
v 5.863209 56.382794 7.474255
vt 0.478485 0.644531
vn 0.905512 0.062992 0.433071
v -5.863209 56.382794 7.474255
vt 0.009979 0.652344
vn -0.905512 0.062992 0.433071
v -8.631937 57.415513 2.887084
vt 0.089844 0.652344
vn -0.960630 0.118110 0.259843
v -8.835656 58.381146 -1.754714
vt 0.191406 0.652344
vn -0.968504 0.236220 -0.070866
v 5.960107 54.410870 -11.353311
vt 0.589844 0.808594
vn 0.535433 0.448819 -0.716535
v 8.452029 54.305159 -8.027166
vt 0.683594 0.808594
vn 0.818898 0.370079 -0.433071
v 9.385962 50.180382 -10.024895
vt 0.683594 0.989990
vn 0.874016 0.354331 -0.330709
v 10.836138 49.605068 -5.216152
vt 0.785156 0.989990
vn 0.968504 0.259843 -0.055118
v 10.435975 48.200326 -0.085770
vt 0.878906 0.989990
vn 0.944882 0.102362 0.314961
v 8.631275 57.415513 2.887084
vt 0.371094 0.425781
vn 0.960630 0.118110 0.259843
v 8.835987 58.379113 -1.756246
vt 0.371094 0.316406
vn 0.968504 0.236220 -0.070866
v 8.445415 60.070495 -1.083869
vt 0.464844 0.316406
vn 0.960630 0.291339 -0.031496
v 7.110988 62.497791 -3.236802
vt 0.503906 0.230469
vn 0.811024 0.543307 -0.228346
v 3.835608 64.992174 -4.557560
vt 0.589844 0.199219
vn 0.496063 0.811024 -0.314961
v 7.606727 59.045908 -5.858407
vt 0.683594 0.652344
vn 0.874016 0.354331 -0.346457
v 5.270240 59.367108 -9.037007
vt 0.589844 0.652344
vn 0.622047 0.393701 -0.677165
v -9.386954 50.180382 -10.024895
vt 0.300781 0.989990
vn -0.874016 0.354331 -0.330709
v -10.836799 49.607101 -5.214620
vt 0.191406 0.989990
vn -0.968504 0.259843 -0.055118
v -8.835656 58.381146 -1.754714
vt 0.989990 0.316406
vn -0.968504 0.236220 -0.070866
v 5.663127 55.903027 9.566944
vt 0.535156 0.644531
vn 0.724409 0.433071 0.535433
v 3.006511 55.276891 11.335953
vt 0.628906 0.644531
vn 0.314961 0.417323 0.850394
v 0.003307 54.811354 12.291677
vt 0.683594 0.644531
vn 0.000000 0.425197 0.905512
v -3.006841 55.276891 11.335953
vt 0.730469 0.644531
vn -0.314961 0.417323 0.850394
v -5.663458 55.903027 9.566944
vt 0.816406 0.644531
vn -0.724409 0.433071 0.535433
f 81/81/81 82/82/82 83/83/83
f 84/84/84 85/85/85 86/86/86
f 87/87/87 88/88/88 89/89/89
f 89/89/89 88/88/88 90/90/90
f 89/89/89 90/90/90 91/91/91
f 92/92/92 93/93/93 94/94/94
f 94/94/94 93/93/93 95/95/95
f 94/94/94 95/95/95 96/96/96
f 97/97/97 98/98/98 99/99/99
f 99/99/99 98/98/98 100/100/100
f 99/99/99 100/100/100 101/101/101
f 101/101/101 100/100/100 102/102/102
f 83/83/83 103/103/103 81/81/81
f 81/81/81 103/103/103 104/104/104
f 81/81/81 104/104/104 105/105/105
f 106/106/106 107/107/107 108/108/108
f 108/108/108 107/107/107 109/109/109
f 108/108/108 109/109/109 110/110/110
f 110/110/110 109/109/109 111/111/111
f 112/112/112 113/113/113 114/114/114
f 115/115/115 116/116/116 117/117/117
f 97/97/97 118/118/118 119/119/119
f 119/119/119 118/118/118 120/120/120
f 119/119/119 120/120/120 121/121/121
f 122/122/122 111/111/111 123/123/123
f 123/123/123 111/111/111 109/109/109
f 123/123/123 109/109/109 124/124/124
f 124/124/124 109/109/109 107/107/107
f 84/84/84 86/86/86 115/115/115
f 115/115/115 86/86/86 125/125/125
f 115/115/115 125/125/125 116/116/116
f 126/126/126 127/127/127 128/128/128
f 128/128/128 127/127/127 129/129/129
f 82/82/82 81/81/81 130/130/130
f 130/130/130 81/81/81 105/105/105
f 130/130/130 105/105/105 131/131/131
f 131/131/131 105/105/105 132/132/132
f 131/131/131 132/132/132 133/133/133
f 104/104/104 92/92/92 105/105/105
f 105/105/105 92/92/92 94/94/94
f 105/105/105 94/94/94 132/132/132
f 132/132/132 94/94/94 96/96/96
f 132/132/132 96/96/96 133/133/133
f 133/133/133 96/96/96 134/134/134
f 133/133/133 134/134/134 135/135/135
f 112/112/112 136/136/136 137/137/137
f 137/137/137 136/136/136 138/138/138
f 137/137/137 138/138/138 139/139/139
f 139/139/139 138/138/138 140/140/140
f 139/139/139 140/140/140 141/141/141
f 141/141/141 140/140/140 142/142/142
f 141/141/141 142/142/142 143/143/143
f 113/113/113 91/91/91 114/114/114
f 114/114/114 91/91/91 90/90/90
f 114/114/114 90/90/90 144/144/144
f 144/144/144 90/90/90 88/88/88
f 144/144/144 88/88/88 145/145/145
f 145/145/145 88/88/88 87/87/87
f 145/145/145 87/87/87 146/146/146
f 121/121/121 147/147/147 119/119/119
f 119/119/119 147/147/147 148/148/148
f 119/119/119 148/148/148 97/97/97
f 97/97/97 148/148/148 149/149/149
f 97/97/97 149/149/149 98/98/98
f 128/128/128 150/150/150 126/126/126
f 126/126/126 150/150/150 151/151/151
f 126/126/126 151/151/151 152/152/152
f 152/152/152 151/151/151 84/84/84
f 152/152/152 84/84/84 153/153/153
f 153/153/153 84/84/84 115/115/115
f 153/153/153 115/115/115 154/154/154
f 154/154/154 115/115/115 117/117/117
f 155/155/155 156/156/156 157/157/157
f 157/157/157 156/156/156 122/122/122
f 157/157/157 122/122/122 158/158/158
f 158/158/158 122/122/122 123/123/123
f 158/158/158 123/123/123 159/159/159
f 159/159/159 123/123/123 124/124/124
f 85/85/85 84/84/84 160/160/160
f 160/160/160 84/84/84 151/151/151
f 160/160/160 151/151/151 161/161/161
f 161/161/161 151/151/151 150/150/150
f 161/161/161 150/150/150 102/102/102
f 102/102/102 150/150/150 128/128/128
f 102/102/102 128/128/128 101/101/101
f 101/101/101 128/128/128 129/129/129
f 101/101/101 129/129/129 99/99/99
f 99/99/99 129/129/129 162/162/162
f 99/99/99 162/162/162 97/97/97
f 97/97/97 162/162/162 163/163/163
f 97/97/97 163/163/163 118/118/118
f 146/146/146 155/155/155 145/145/145
f 145/145/145 155/155/155 157/157/157
f 145/145/145 157/157/157 144/144/144
f 144/144/144 157/157/157 158/158/158
f 144/144/144 158/158/158 114/114/114
f 114/114/114 158/158/158 159/159/159
f 114/114/114 159/159/159 112/112/112
f 112/112/112 159/159/159 124/124/124
f 112/112/112 124/124/124 136/136/136
f 136/136/136 124/124/124 107/107/107
f 136/136/136 107/107/107 138/138/138
f 138/138/138 107/107/107 106/106/106
f 138/138/138 106/106/106 140/140/140
f 140/140/140 106/106/106 164/164/164
f 140/140/140 164/164/164 142/142/142
f 165/165/165 135/135/135 166/166/166
f 166/166/166 135/135/135 134/134/134
f 166/166/166 134/134/134 167/167/167
f 167/167/167 134/134/134 96/96/96
f 167/167/167 96/96/96 168/168/168
f 168/168/168 96/96/96 95/95/95
f 168/168/168 95/95/95 169/169/169
f 169/169/169 95/95/95 93/93/93
f 169/169/169 93/93/93 143/143/143
f 143/143/143 93/93/93 92/92/92
f 143/143/143 92/92/92 141/141/141
f 141/141/141 92/92/92 104/104/104
f 141/141/141 104/104/104 139/139/139
f 139/139/139 104/104/104 103/103/103
f 139/139/139 103/103/103 137/137/137
f 137/137/137 103/103/103 83/83/83
f 137/137/137 83/83/83 112/112/112
f 112/112/112 83/83/83 82/82/82
f 112/112/112 82/82/82 113/113/113
f 113/113/113 82/82/82 130/130/130
f 113/113/113 130/130/130 91/91/91
f 91/91/91 130/130/130 131/131/131
f 91/91/91 131/131/131 89/89/89
f 89/89/89 131/131/131 133/133/133
f 89/89/89 133/133/133 87/87/87
f 87/87/87 133/133/133 135/135/135
f 87/87/87 135/135/135 146/146/146
f 146/146/146 135/135/135 165/165/165
