mtllib 0421-0.mtl
g mesh00
usemtl texture00
v 1.173608 -0.797148 12.672940
vt 0.446411 0.743286
vn 0.496063 -0.291339 0.818898
v 2.941717 -1.685549 10.713624
vt 0.353516 0.791016
vn 0.566929 -0.228346 0.795276
v 2.137304 1.089333 11.848231
vt 0.401550 0.657806
vn 0.559055 -0.031496 0.834646
v -6.131242 -2.978447 2.307161
vt 0.052063 0.937500
vn -0.496063 -0.700787 -0.519685
v -7.543183 3.840525 -0.529989
vt 0.011536 0.523438
vn -0.464567 -0.417323 -0.779528
v -3.824587 -3.020564 2.512073
vt 0.010986 0.988373
vn 0.062992 -0.535433 -0.842520
v 6.131242 -2.978447 2.307161
vt 0.052063 0.937500
vn 0.496063 -0.700787 -0.519685
v 3.824587 -3.020564 2.512073
vt 0.010986 0.988373
vn -0.062992 -0.535433 -0.842520
v 7.543479 3.837016 -0.550227
vt 0.011536 0.523438
vn 0.464567 -0.425197 -0.779528
v 7.412914 2.657307 6.975872
vt 0.114349 0.564667
vn 0.960630 -0.055118 0.283465
v 6.347962 2.340553 9.164555
vt 0.191071 0.586304
vn 0.834646 -0.039370 0.551181
v 6.632482 0.031588 6.882692
vt 0.141479 0.722198
vn 0.921260 -0.291339 0.267717
v 5.748428 0.409761 9.526735
vt 0.211975 0.705048
vn 0.787402 -0.212598 0.582677
v 1.178345 -1.457855 11.836425
vt 0.437500 0.789062
vn 0.362205 -0.244094 0.897638
v 0.000000 -1.273594 12.709200
vt 0.500000 0.789062
vn 0.000000 -0.795276 0.606299
v 0.000000 -1.539018 12.107955
vt 0.500000 0.796875
vn 0.000000 -0.346457 0.944882
v -7.437783 0.359309 2.271744
vt 0.057709 0.609314
vn -0.929134 -0.346457 0.157480
v -2.941717 -1.685549 10.713624
vt 0.353516 0.791016
vn -0.566929 -0.228346 0.795276
v -1.173608 -0.797148 12.672940
vt 0.446411 0.743286
vn -0.496063 -0.291339 0.818898
v -2.130495 1.089333 11.848231
vt 0.401550 0.657806
vn -0.559055 -0.031496 0.834646
v -2.512421 -3.624238 10.306329
vt 0.384766 0.884766
vn -0.551181 -0.417323 0.724409
v -4.930692 -1.895256 9.443674
vt 0.258270 0.817230
vn -0.661417 -0.385827 0.645669
v 0.000000 -6.360514 8.752622
vt 0.500000 0.984375
vn 0.000000 -1.000000 0.015748
v 0.000000 -5.956456 10.428602
vt 0.500000 0.976562
vn 0.000000 -0.834646 0.559055
v -1.674256 -5.916533 9.301163
vt 0.361603 0.951996
vn -0.433071 -0.889764 0.165354
v 2.512421 -3.624238 10.306329
vt 0.384766 0.884766
vn 0.551181 -0.417323 0.724409
v 1.481813 -2.315108 12.147588
vt 0.425781 0.846680
vn 0.472441 -0.047244 0.881890
v 0.000000 -3.082862 12.347863
vt 0.500000 0.875000
vn 0.000000 -0.582677 0.818898
v 0.000000 -2.284398 12.472244
vt 0.500000 0.843750
vn 0.000000 0.236220 0.976378
v -1.481813 -2.315108 12.147588
vt 0.425781 0.846680
vn -0.472441 -0.047244 0.881890
v -1.178345 -1.457855 11.836425
vt 0.437500 0.789062
vn -0.362205 -0.244094 0.897638
v -3.590103 -4.158156 8.749670
vt 0.284180 0.897369
vn -0.724409 -0.559055 0.409449
v -1.784097 -5.118946 10.606108
vt 0.427429 0.949768
vn -0.456693 -0.472441 0.755906
v 0.000000 -5.208444 10.881433
vt 0.500000 0.953125
vn 0.000000 -0.425197 0.905512
v -7.797208 5.748943 2.346794
vt 0.044891 0.424072
vn -0.992126 0.015748 0.149606
v -7.412914 2.657307 6.975872
vt 0.114349 0.564667
vn -0.960630 -0.055118 0.283465
v -6.632482 0.031588 6.882692
vt 0.141479 0.722198
vn -0.921260 -0.291339 0.267717
v -6.347962 2.340553 9.164555
vt 0.191071 0.586304
vn -0.834646 -0.039370 0.551181
v 7.797208 5.748943 2.346794
vt 0.044891 0.424072
vn 0.992126 0.015748 0.149606
v 7.437783 0.359309 2.271744
vt 0.057709 0.609314
vn 0.929134 -0.346457 0.165354
v 5.783660 -2.376528 6.755781
vt 0.121124 0.869415
vn 0.858268 -0.464567 0.228346
v 4.930692 -1.895256 9.443674
vt 0.258270 0.817230
vn 0.661417 -0.385827 0.645669
v 0.003257 2.286152 13.815557
vt 0.500000 0.603882
vn 0.000000 0.401575 0.921260
v -0.652827 2.104962 13.609380
vt 0.474976 0.618744
vn -0.527559 0.204724 0.826772
v 0.003257 1.367041 13.542341
vt 0.500000 0.651733
vn 0.000000 -0.535433 0.850394
v -1.218018 1.848313 13.121554
vt 0.449982 0.633575
vn -0.685039 -0.125984 0.716535
v 0.003257 0.792322 12.839905
vt 0.500000 0.683380
vn 0.000000 -0.480315 0.881890
v 0.000000 0.143899 12.942783
vt 0.500000 0.714844
vn 0.000000 0.322835 0.944882
v 0.000000 -0.456265 13.401938
vt 0.500000 0.742188
vn 0.000000 -0.078740 1.000000
v 0.000000 -5.634438 5.211771
vt 0.499451 0.988373
vn 0.000000 -0.937008 -0.362205
v -4.112364 -4.656977 5.969862
vt 0.281250 0.950867
vn -0.669291 -0.748031 0.055118
v -5.783660 -2.376528 6.755781
vt 0.121124 0.869415
vn -0.858268 -0.464567 0.228346
v -5.748428 0.409761 9.526735
vt 0.211975 0.705048
vn -0.787402 -0.212598 0.582677
v 3.590103 -4.158156 8.749670
vt 0.284180 0.897369
vn 0.724409 -0.559055 0.409449
v 4.112364 -4.656977 5.969862
vt 0.281250 0.950867
vn 0.669291 -0.748031 0.055118
v 0.000000 -3.762434 11.388654
vt 0.500000 0.898438
vn 0.000000 -0.417323 0.913386
v 1.784097 -5.118946 10.606108
vt 0.427429 0.949768
vn 0.456693 -0.472441 0.755906
v 1.674256 -5.916533 9.301163
vt 0.361603 0.951996
vn 0.433071 -0.889764 0.165354
v 1.224827 1.848313 13.121554
vt 0.449982 0.633575
vn 0.685039 -0.125984 0.716535
v 0.659636 2.104962 13.609380
vt 0.474976 0.618744
vn 0.527559 0.204724 0.826772
f 1/1/1 2/2/2 3/3/3
f 4/4/4 5/5/5 6/6/6
f 7/7/7 8/8/8 9/9/9
f 10/10/10 11/11/11 12/12/12
f 12/12/12 11/11/11 13/13/13
f 2/2/2 1/1/1 14/14/14
f 14/14/14 1/1/1 15/15/15
f 14/14/14 15/15/15 16/16/16
f 5/5/5 4/4/4 17/17/17
f 18/18/18 19/19/19 20/20/20
f 21/21/21 18/18/18 22/22/22
f 23/23/23 24/24/24 25/25/25
f 26/26/26 27/27/27 28/28/28
f 28/28/28 27/27/27 29/29/29
f 28/28/28 29/29/29 30/30/30
f 30/30/30 29/29/29 31/31/31
f 32/32/32 25/25/25 33/33/33
f 33/33/33 25/25/25 24/24/24
f 33/33/33 24/24/24 34/34/34
f 35/35/35 17/17/17 36/36/36
f 36/36/36 17/17/17 37/37/37
f 36/36/36 37/37/37 38/38/38
f 39/39/39 10/10/10 40/40/40
f 40/40/40 10/10/10 12/12/12
f 40/40/40 12/12/12 41/41/41
f 41/41/41 12/12/12 13/13/13
f 41/41/41 13/13/13 42/42/42
f 43/43/43 44/44/44 45/45/45
f 45/45/45 44/44/44 46/46/46
f 45/45/45 46/46/46 47/47/47
f 47/47/47 46/46/46 20/20/20
f 47/47/47 20/20/20 48/48/48
f 48/48/48 20/20/20 19/19/19
f 48/48/48 19/19/19 49/49/49
f 6/6/6 50/50/50 4/4/4
f 4/4/4 50/50/50 51/51/51
f 4/4/4 51/51/51 17/17/17
f 17/17/17 51/51/51 52/52/52
f 17/17/17 52/52/52 37/37/37
f 37/37/37 52/52/52 53/53/53
f 37/37/37 53/53/53 38/38/38
f 15/15/15 31/31/31 16/16/16
f 16/16/16 31/31/31 29/29/29
f 16/16/16 29/29/29 14/14/14
f 14/14/14 29/29/29 27/27/27
f 14/14/14 27/27/27 2/2/2
f 2/2/2 27/27/27 26/26/26
f 2/2/2 26/26/26 42/42/42
f 42/42/42 26/26/26 54/54/54
f 42/42/42 54/54/54 41/41/41
f 41/41/41 54/54/54 55/55/55
f 41/41/41 55/55/55 40/40/40
f 40/40/40 55/55/55 7/7/7
f 40/40/40 7/7/7 9/9/9
f 22/22/22 32/32/32 21/21/21
f 21/21/21 32/32/32 33/33/33
f 21/21/21 33/33/33 56/56/56
f 56/56/56 33/33/33 34/34/34
f 56/56/56 34/34/34 57/57/57
f 57/57/57 34/34/34 24/24/24
f 57/57/57 24/24/24 58/58/58
f 58/58/58 24/24/24 23/23/23
f 58/58/58 23/23/23 50/50/50
f 50/50/50 23/23/23 25/25/25
f 50/50/50 25/25/25 51/51/51
f 51/51/51 25/25/25 32/32/32
f 51/51/51 32/32/32 52/52/52
f 52/52/52 32/32/32 22/22/22
f 52/52/52 22/22/22 53/53/53
f 8/8/8 7/7/7 50/50/50
f 50/50/50 7/7/7 55/55/55
f 50/50/50 55/55/55 58/58/58
f 58/58/58 55/55/55 54/54/54
f 58/58/58 54/54/54 57/57/57
f 57/57/57 54/54/54 26/26/26
f 57/57/57 26/26/26 56/56/56
f 56/56/56 26/26/26 28/28/28
f 56/56/56 28/28/28 21/21/21
f 21/21/21 28/28/28 30/30/30
f 21/21/21 30/30/30 18/18/18
f 18/18/18 30/30/30 31/31/31
f 18/18/18 31/31/31 19/19/19
f 19/19/19 31/31/31 15/15/15
f 19/19/19 15/15/15 49/49/49
f 49/49/49 15/15/15 1/1/1
f 49/49/49 1/1/1 48/48/48
f 48/48/48 1/1/1 3/3/3
f 48/48/48 3/3/3 47/47/47
f 47/47/47 3/3/3 59/59/59
f 47/47/47 59/59/59 45/45/45
f 45/45/45 59/59/59 60/60/60
f 45/45/45 60/60/60 43/43/43
usemtl texture00
v 0.940899 3.021442 12.503023
vt 0.452148 0.559601
vn 0.637795 0.417323 0.645669
v 0.854152 5.094816 11.778662
vt 0.457336 0.419830
vn 0.622047 0.078740 0.779528
v 0.471930 3.096023 12.834846
vt 0.476074 0.559113
vn 0.417323 0.511811 0.755906
v 6.181869 6.949272 9.484993
vt 0.181183 0.308716
vn 0.716535 -0.055118 0.692913
v 5.241266 6.178446 9.806276
vt 0.229034 0.370758
vn 0.622047 -0.220472 0.755906
v 5.767080 4.868439 8.780028
vt 0.195923 0.459076
vn 0.732283 -0.055118 0.677165
v -4.094600 0.693172 10.843486
vt 0.310760 0.682281
vn -0.496063 -0.102362 0.866142
v -4.930692 -1.895256 9.443674
vt 0.258270 0.817230
vn -0.661417 -0.385827 0.645669
v -2.941717 -1.685549 10.713624
vt 0.353516 0.791016
vn -0.566929 -0.228346 0.795276
v 7.184646 8.920425 6.576167
vt 0.092377 0.255249
vn 0.952756 0.118110 0.291339
v 7.534597 10.143129 2.082853
vt 0.011353 0.213165
vn 1.000000 0.110236 0.031496
v 6.389412 12.582832 6.224949
vt 0.011353 0.011719
vn 0.897638 0.291339 0.330709
v -7.117439 5.035590 7.302214
vt 0.106903 0.439117
vn -0.913386 0.023622 0.417323
v -7.184646 8.920425 6.576167
vt 0.092377 0.255249
vn -0.952756 0.118110 0.291339
v -7.797208 5.748943 2.346794
vt 0.044891 0.424072
vn -0.992126 0.015748 0.149606
v -0.854152 5.094816 11.778662
vt 0.457336 0.419830
vn -0.622047 0.078740 0.779528
v -0.426928 5.236522 12.068743
vt 0.478668 0.409546
vn -0.440945 -0.015748 0.897638
v -2.011476 6.065258 11.228856
vt 0.406006 0.366150
vn -0.409449 -0.377953 0.834646
v 1.907261 2.805593 11.611275
vt 0.394501 0.560150
vn 0.598425 0.259843 0.763780
v 4.094600 0.693172 10.843486
vt 0.310760 0.682281
vn 0.496063 -0.102362 0.866142
v 4.758381 2.671784 10.537383
vt 0.274780 0.569214
vn 0.519685 0.157480 0.842520
v 3.656718 6.314449 10.951423
vt 0.316528 0.351501
vn 0.354331 -0.401575 0.842520
v 3.139489 6.987879 11.554776
vt 0.342560 0.300201
vn 0.385827 -0.181102 0.905512
v 0.003257 2.286152 13.815557
vt 0.500000 0.603882
vn 0.000000 0.401575 0.921260
v -0.465121 3.096023 12.834846
vt 0.476074 0.559113
vn -0.417323 0.511811 0.755906
v -0.652827 2.104962 13.609380
vt 0.474976 0.618744
vn -0.527559 0.204724 0.826772
v -7.437783 0.359309 2.271744
vt 0.897064 0.814331
vn -0.929134 -0.346457 0.157480
v -7.802537 0.346586 0.790135
vt 0.936401 0.816406
vn 0.244094 -0.685039 -0.692913
v -7.543183 3.840525 -0.529989
vt 0.954803 0.724884
vn 0.669291 0.149606 -0.732283
v 1.943973 4.868000 10.882276
vt 0.401611 0.452209
vn 0.535433 -0.062992 0.842520
v 2.647427 5.685329 10.848546
vt 0.358826 0.393951
vn 0.283465 -0.370079 0.889764
v 2.011476 6.065258 11.228856
vt 0.406006 0.366150
vn 0.409449 -0.377953 0.834646
v 3.656718 6.314449 10.951423
vt 0.316528 0.351501
vn 0.354331 -0.401575 0.842520
v -7.802537 0.346586 0.790135
vt 0.925201 0.658783
vn 0.244094 -0.685039 -0.692913
v -7.437783 0.359309 2.271744
vt 0.856018 0.655121
vn -0.929134 -0.346457 0.157480
v -9.492485 3.339072 -0.904397
vt 0.989319 0.525085
vn -0.905512 -0.188976 0.385827
v 5.788397 8.548394 9.320136
vt 0.179901 0.241302
vn 0.755906 0.141732 0.637795
v 3.201367 8.278144 11.370524
vt 0.352325 0.242889
vn 0.440945 0.125984 0.889764
v 8.986507 6.701397 0.808687
vt 0.960938 0.376099
vn 0.866142 -0.086614 0.496063
v 7.797208 5.748943 2.346794
vt 0.873871 0.466492
vn 0.992126 0.015748 0.149606
v 7.437783 0.359309 2.271744
vt 0.856018 0.655121
vn 0.929134 -0.346457 0.165354
v 9.701212 5.572140 -0.869823
vt 0.975739 0.661438
vn -0.385827 0.322835 -0.866142
v 7.543479 3.837016 -0.550227
vt 0.954803 0.724884
vn -0.661417 0.141732 -0.732283
v 8.986507 6.701397 0.808687
vt 0.956726 0.655701
vn -0.685039 0.566929 -0.456693
v 7.797208 5.748943 2.346794
vt 0.907227 0.707092
vn -0.795276 0.535433 -0.283465
v 5.767080 4.868439 8.780028
vt 0.195923 0.459076
vn 0.732283 -0.055118 0.677165
v 4.866742 5.547133 10.073589
vt 0.247223 0.407166
vn 0.590551 -0.188976 0.787402
v 4.943127 4.463503 9.852655
vt 0.246033 0.474579
vn 0.543307 0.055118 0.834646
v 3.747610 5.799834 10.610325
vt 0.310333 0.391083
vn 0.283465 -0.346457 0.897638
v 2.592359 4.459116 10.496063
vt 0.362183 0.468872
vn 0.362205 0.023622 0.937008
v 0.000000 14.375428 10.289886
vt 0.500000 0.011719
vn 0.000000 0.425197 0.905512
v 3.345256 10.666956 10.920644
vt 0.347351 0.136078
vn 0.417323 0.291339 0.866142
v 3.853602 14.060430 9.006865
vt 0.242188 0.011719
vn 0.574803 0.401575 0.716535
v 5.835175 10.147516 9.155700
vt 0.173279 0.156097
vn 0.755906 0.196850 0.629921
v 7.543479 3.837016 -0.550227
vt 0.011353 0.523438
vn 0.992126 0.047244 -0.118110
v 7.797208 5.748943 2.346794
vt 0.044891 0.424072
vn 0.992126 0.015748 0.149606
v 9.701212 5.572140 -0.869823
vt 0.989319 0.385590
vn 0.897638 -0.086614 0.440945
v 9.492485 3.339072 -0.904397
vt 0.989319 0.525085
vn 0.905512 -0.188976 0.385827
v 7.802537 0.346586 0.790135
vt 0.925201 0.658783
vn -0.236220 -0.685039 -0.685039
v -5.835175 10.147516 9.155700
vt 0.173279 0.156097
vn -0.755906 0.196850 0.629921
v -5.788397 8.548394 9.320136
vt 0.179901 0.241302
vn -0.755906 0.141732 0.637795
v -3.201367 8.278144 11.370524
vt 0.352325 0.242889
vn -0.440945 0.125984 0.889764
v -3.656718 6.314449 10.951423
vt 0.316528 0.351501
vn -0.354331 -0.401575 0.842520
v -2.647427 5.685329 10.848546
vt 0.358826 0.393951
vn -0.283465 -0.370079 0.889764
v -2.011476 6.065258 11.228856
vt 0.406006 0.366150
vn -0.409449 -0.377953 0.834646
v -1.943973 4.868000 10.882276
vt 0.401611 0.452209
vn -0.535433 -0.062992 0.842520
v -2.130495 1.089333 11.848231
vt 0.401550 0.657806
vn -0.559055 -0.031496 0.834646
v -1.218018 1.848313 13.121554
vt 0.449982 0.633575
vn -0.685039 -0.125984 0.716535
v -1.900155 2.805593 11.611275
vt 0.394501 0.560150
vn -0.598425 0.259843 0.763780
v -0.933794 3.021442 12.503023
vt 0.452148 0.559601
vn -0.637795 0.417323 0.645669
v 0.426928 5.236522 12.068743
vt 0.478668 0.409546
vn 0.440945 -0.015748 0.897638
v 0.000000 5.279955 12.164875
vt 0.500000 0.399261
vn 0.000000 -0.023622 1.000000
v 0.000000 3.131998 12.972297
vt 0.500000 0.558655
vn 0.000000 0.543307 0.842520
v 9.492485 3.339072 -0.904397
vt 0.975739 0.740723
vn -0.212598 -0.165354 -0.968504
v 7.802537 0.346586 0.790135
vt 0.936401 0.816406
vn -0.236220 -0.685039 -0.685039
v 7.437783 0.359309 2.271744
vt 0.897064 0.814331
vn 0.929134 -0.346457 0.165354
v -8.986507 6.701397 0.808687
vt 0.956726 0.655701
vn 0.692913 0.559055 -0.456693
v -7.797208 5.748943 2.346794
vt 0.907227 0.707092
vn 0.795276 0.535433 -0.283465
v -9.492485 3.339072 -0.904397
vt 0.975739 0.740723
vn 0.228346 -0.165354 -0.960630
v -9.701508 5.572140 -0.869823
vt 0.975739 0.661438
vn 0.393701 0.322835 -0.866142
v -2.592359 4.459116 10.496063
vt 0.362183 0.468872
vn -0.362205 0.023622 0.937008
v -3.747610 5.799834 10.610325
vt 0.310333 0.391083
vn -0.283465 -0.346457 0.897638
v -4.943127 4.463503 9.852655
vt 0.246033 0.474579
vn -0.543307 0.055118 0.834646
v -4.866742 5.547133 10.073589
vt 0.247223 0.407166
vn -0.590551 -0.188976 0.787402
v -5.767080 4.868439 8.780028
vt 0.195923 0.459076
vn -0.732283 -0.055118 0.677165
v -4.758381 2.671784 10.537383
vt 0.274780 0.569214
vn -0.519685 0.157480 0.842520
v -4.943127 4.463503 9.852655
vt 0.246033 0.474579
vn -0.543307 0.055118 0.834646
v -6.339673 3.521578 8.804061
vt 0.181854 0.515991
vn -0.755906 0.204724 0.622047
v -9.701508 5.572140 -0.869823
vt 0.989319 0.385590
vn -0.897638 -0.086614 0.440945
v -8.986507 6.701397 0.808687
vt 0.960938 0.376099
vn -0.866142 -0.086614 0.496063
v -7.797208 5.748943 2.346794
vt 0.873871 0.466492
vn -0.992126 0.015748 0.149606
v 0.000000 6.356127 12.617284
vt 0.500000 0.335938
vn 0.000000 -0.267717 0.968504
v -3.139489 6.987879 11.554776
vt 0.342560 0.300201
vn -0.385827 -0.181102 0.905512
v -6.181869 6.949272 9.484993
vt 0.181183 0.308716
vn -0.716535 -0.055118 0.692913
v -5.241266 6.178446 9.806276
vt 0.229034 0.370758
vn -0.622047 -0.220472 0.755906
v 0.000000 7.847325 12.105425
vt 0.500000 0.263794
vn 0.000000 0.181102 0.984252
v 0.000000 10.783655 11.864253
vt 0.500000 0.137207
vn 0.000000 0.220472 0.976378
v -3.345256 10.666956 10.920644
vt 0.347351 0.136078
vn -0.417323 0.291339 0.866142
v -5.748428 0.409761 9.526735
vt 0.211975 0.705048
vn -0.787402 -0.212598 0.582677
v -6.347962 2.340553 9.164555
vt 0.191071 0.586304
vn -0.834646 -0.039370 0.551181
v -7.412914 2.657307 6.975872
vt 0.114349 0.564667
vn -0.960630 -0.055118 0.283465
v 7.117439 5.035590 7.302214
vt 0.106903 0.439117
vn 0.913386 0.023622 0.417323
v 7.412914 2.657307 6.975872
vt 0.114349 0.564667
vn 0.960630 -0.055118 0.283465
v 6.339673 3.521578 8.804061
vt 0.181854 0.515991
vn 0.755906 0.204724 0.622047
v 6.347962 2.340553 9.164555
vt 0.191071 0.586304
vn 0.834646 -0.039370 0.551181
v 5.748428 0.409761 9.526735
vt 0.211975 0.705048
vn 0.787402 -0.212598 0.582677
v 4.930692 -1.895256 9.443674
vt 0.258270 0.817230
vn 0.661417 -0.385827 0.645669
v 0.659636 2.104962 13.609380
vt 0.474976 0.618744
vn 0.527559 0.204724 0.826772
v 1.224827 1.848313 13.121554
vt 0.449982 0.633575
vn 0.685039 -0.125984 0.716535
v 2.137304 1.089333 11.848231
vt 0.401550 0.657806
vn 0.559055 -0.031496 0.834646
v 2.941717 -1.685549 10.713624
vt 0.353516 0.791016
vn 0.566929 -0.228346 0.795276
v -3.853602 14.060430 9.006865
vt 0.242188 0.011719
vn -0.574803 0.401575 0.716535
v -6.389412 12.582832 6.224949
vt 0.011353 0.011719
vn -0.897638 0.291339 0.330709
v -7.534597 10.143129 2.082853
vt 0.011353 0.213165
vn -1.000000 0.110236 0.031496
v -7.543183 3.840525 -0.529989
vt 0.011353 0.523438
vn -0.992126 0.047244 -0.118110
f 61/61/61 62/62/62 63/63/63
f 64/64/64 65/65/65 66/66/66
f 67/67/67 68/68/68 69/69/69
f 70/70/70 71/71/71 72/72/72
f 73/73/73 74/74/74 75/75/75
f 76/76/76 77/77/77 78/78/78
f 79/79/79 80/80/80 81/81/81
f 82/82/82 65/65/65 83/83/83
f 84/84/84 85/85/85 86/86/86
f 87/87/87 88/88/88 89/89/89
f 90/90/90 91/91/91 92/92/92
f 92/92/92 91/91/91 93/93/93
f 94/94/94 95/95/95 96/96/96
f 97/97/97 98/98/98 64/64/64
f 62/62/62 61/61/61 79/79/79
f 99/99/99 100/100/100 101/101/101
f 102/102/102 103/103/103 104/104/104
f 104/104/104 103/103/103 105/105/105
f 106/106/106 107/107/107 108/108/108
f 108/108/108 107/107/107 109/109/109
f 108/108/108 109/109/109 110/110/110
f 111/111/111 112/112/112 113/113/113
f 113/113/113 112/112/112 114/114/114
f 113/113/113 114/114/114 72/72/72
f 72/72/72 114/114/114 70/70/70
f 115/115/115 71/71/71 116/116/116
f 117/117/117 99/99/99 118/118/118
f 118/118/118 99/99/99 101/101/101
f 118/118/118 101/101/101 119/119/119
f 120/120/120 121/121/121 122/122/122
f 123/123/123 124/124/124 125/125/125
f 125/125/125 124/124/124 126/126/126
f 125/125/125 126/126/126 76/76/76
f 127/127/127 128/128/128 129/129/129
f 129/129/129 128/128/128 130/130/130
f 62/62/62 131/131/131 63/63/63
f 63/63/63 131/131/131 132/132/132
f 63/63/63 132/132/132 133/133/133
f 102/102/102 134/134/134 103/103/103
f 103/103/103 134/134/134 135/135/135
f 103/103/103 135/135/135 136/136/136
f 89/89/89 137/137/137 138/138/138
f 88/88/88 139/139/139 89/89/89
f 89/89/89 139/139/139 140/140/140
f 89/89/89 140/140/140 137/137/137
f 141/141/141 142/142/142 143/143/143
f 143/143/143 142/142/142 144/144/144
f 143/143/143 144/144/144 145/145/145
f 146/146/146 147/147/147 148/148/148
f 148/148/148 147/147/147 145/145/145
f 148/148/148 145/145/145 73/73/73
f 149/149/149 96/96/96 150/150/150
f 150/150/150 96/96/96 95/95/95
f 150/150/150 95/95/95 151/151/151
f 77/77/77 152/152/152 78/78/78
f 78/78/78 152/152/152 153/153/153
f 78/78/78 153/153/153 123/123/123
f 123/123/123 153/153/153 154/154/154
f 123/123/123 154/154/154 155/155/155
f 120/120/120 74/74/74 121/121/121
f 121/121/121 74/74/74 154/154/154
f 121/121/121 154/154/154 122/122/122
f 122/122/122 154/154/154 153/153/153
f 122/122/122 153/153/153 156/156/156
f 156/156/156 153/153/153 152/152/152
f 156/156/156 152/152/152 83/83/83
f 83/83/83 152/152/152 92/92/92
f 83/83/83 92/92/92 82/82/82
f 106/106/106 65/65/65 107/107/107
f 107/107/107 65/65/65 93/93/93
f 107/107/107 93/93/93 109/109/109
f 109/109/109 93/93/93 91/91/91
f 109/109/109 91/91/91 110/110/110
f 110/110/110 91/91/91 90/90/90
f 69/69/69 127/127/127 67/67/67
f 67/67/67 127/127/127 129/129/129
f 67/67/67 129/129/129 146/146/146
f 146/146/146 129/129/129 141/141/141
f 146/146/146 141/141/141 147/147/147
f 65/65/65 64/64/64 83/83/83
f 83/83/83 64/64/64 98/98/98
f 83/83/83 98/98/98 156/156/156
f 156/156/156 98/98/98 157/157/157
f 156/156/156 157/157/157 122/122/122
f 122/122/122 157/157/157 158/158/158
f 122/122/122 158/158/158 120/120/120
f 68/68/68 67/67/67 159/159/159
f 159/159/159 67/67/67 146/146/146
f 159/159/159 146/146/146 160/160/160
f 160/160/160 146/146/146 148/148/148
f 160/160/160 148/148/148 161/161/161
f 161/161/161 148/148/148 73/73/73
f 161/161/161 73/73/73 75/75/75
f 71/71/71 70/70/70 116/116/116
f 116/116/116 70/70/70 162/162/162
f 116/116/116 162/162/162 163/163/163
f 163/163/163 162/162/162 164/164/164
f 163/163/163 164/164/164 165/165/165
f 165/165/165 164/164/164 81/81/81
f 165/165/165 81/81/81 166/166/166
f 166/166/166 81/81/81 80/80/80
f 166/166/166 80/80/80 167/167/167
f 132/132/132 85/85/85 133/133/133
f 133/133/133 85/85/85 84/84/84
f 133/133/133 84/84/84 63/63/63
f 63/63/63 84/84/84 168/168/168
f 63/63/63 168/168/168 61/61/61
f 61/61/61 168/168/168 169/169/169
f 61/61/61 169/169/169 79/79/79
f 79/79/79 169/169/169 170/170/170
f 79/79/79 170/170/170 80/80/80
f 80/80/80 170/170/170 171/171/171
f 80/80/80 171/171/171 167/167/167
f 74/74/74 73/73/73 154/154/154
f 154/154/154 73/73/73 145/145/145
f 154/154/154 145/145/145 155/155/155
f 155/155/155 145/145/145 144/144/144
f 155/155/155 144/144/144 123/123/123
f 123/123/123 144/144/144 142/142/142
f 123/123/123 142/142/142 124/124/124
f 124/124/124 142/142/142 141/141/141
f 124/124/124 141/141/141 126/126/126
f 126/126/126 141/141/141 129/129/129
f 126/126/126 129/129/129 76/76/76
f 76/76/76 129/129/129 130/130/130
f 76/76/76 130/130/130 77/77/77
f 128/128/128 86/86/86 130/130/130
f 130/130/130 86/86/86 85/85/85
f 130/130/130 85/85/85 77/77/77
f 77/77/77 85/85/85 132/132/132
f 77/77/77 132/132/132 152/152/152
f 152/152/152 132/132/132 131/131/131
f 152/152/152 131/131/131 92/92/92
f 92/92/92 131/131/131 62/62/62
f 92/92/92 62/62/62 90/90/90
f 90/90/90 62/62/62 79/79/79
f 90/90/90 79/79/79 110/110/110
f 110/110/110 79/79/79 81/81/81
f 110/110/110 81/81/81 108/108/108
f 108/108/108 81/81/81 164/164/164
f 108/108/108 164/164/164 66/66/66
f 66/66/66 164/164/164 162/162/162
f 66/66/66 162/162/162 64/64/64
f 64/64/64 162/162/162 70/70/70
f 64/64/64 70/70/70 97/97/97
f 97/97/97 70/70/70 114/114/114
f 97/97/97 114/114/114 98/98/98
f 98/98/98 114/114/114 112/112/112
f 98/98/98 112/112/112 157/157/157
f 157/157/157 112/112/112 111/111/111
f 157/157/157 111/111/111 158/158/158
f 158/158/158 111/111/111 172/172/172
f 158/158/158 172/172/172 120/120/120
f 120/120/120 172/172/172 173/173/173
f 120/120/120 173/173/173 74/74/74
f 74/74/74 173/173/173 174/174/174
f 74/74/74 174/174/174 75/75/75
f 75/75/75 174/174/174 175/175/175
