mtllib 3768-0.mtl
g mesh00
usemtl texture00
v -3.902994 0.000000 135.565314
vt 0.420288 0.024994
vn -0.826772 0.000000 -0.566929
v 0.000000 3.902669 135.565314
vt 0.420288 0.024994
vn 0.000000 0.826772 -0.566929
v 0.000000 0.000000 133.400396
vt 0.374634 0.009979
vn 0.000000 0.000000 -1.007874
v -0.264852 -0.145729 -22.645644
vt 0.170013 0.101868
vn 0.307087 -0.913386 0.283465
v -0.264852 0.145729 -22.645644
vt 0.170013 0.053589
vn 0.330709 0.897638 0.291339
v -0.303707 -0.006535 -22.134764
vt 0.084076 0.077209
vn 0.905512 -0.007874 0.425197
v 3.902994 0.000000 141.675642
vt 0.329407 0.117371
vn 0.677165 0.000000 -0.740157
v 0.000000 -3.902669 135.565314
vt 0.328430 0.025299
vn 0.000000 -0.826772 -0.566929
v 3.902994 0.000000 135.565314
vt 0.328430 0.025299
vn 0.826772 0.000000 -0.566929
v -4.008459 0.000000 -5.584273
vt 0.910156 0.238281
vn -1.007874 0.000000 0.000000
v 0.000000 -3.471362 -5.584273
vt 0.828125 0.238281
vn 0.000000 -1.007874 0.000000
v -3.106853 0.000000 6.555451
vt 0.910156 0.425781
vn -0.960630 0.000000 -0.275591
v 0.303707 -0.006535 -22.134764
vt 0.084076 0.056213
vn -0.905512 -0.007874 0.425197
v 0.264852 -0.145729 -22.645644
vt 0.170013 0.056213
vn -0.307087 -0.913386 0.283465
v 0.625653 0.000000 -21.917261
vt 0.084076 0.009979
vn 0.149606 -0.984252 0.118110
v 4.008459 0.000000 -5.584273
vt 0.746094 0.238281
vn 1.000000 0.000000 0.000000
v 3.106853 0.000000 6.555451
vt 0.746094 0.425781
vn 0.960630 0.000000 -0.275591
v 0.000000 -2.691090 6.555451
vt 0.828125 0.425781
vn 0.000000 -0.960630 -0.275591
v 1.988767 -3.471362 9.327355
vt 0.800781 0.464844
vn 0.401575 -0.826772 0.393701
v -1.988767 -3.471362 9.327355
vt 0.855469 0.464844
vn -0.401575 -0.826772 0.393701
v 0.000000 2.691090 6.555451
vt 0.828125 0.425781
vn 0.000000 0.960630 -0.275591
v -1.988767 3.471362 9.327355
vt 0.855469 0.464844
vn -0.401575 0.826772 0.393701
v 1.988767 3.471362 9.327355
vt 0.800781 0.464844
vn 0.401575 0.826772 0.393701
v 0.000000 -2.691090 -17.723998
vt 0.828125 0.074219
vn 0.000000 -0.960630 0.275591
v 3.106853 0.000000 -17.723998
vt 0.746094 0.074219
vn 0.960630 0.000000 0.275591
v 0.625653 0.000000 -21.917261
vt 0.084076 0.009979
vn 0.118110 0.984252 0.133858
v 0.264852 0.145729 -22.645644
vt 0.170013 0.056213
vn -0.330709 0.897638 0.291339
v 1.988767 -3.471362 -20.500960
vt 0.800781 0.035156
vn 0.401575 -0.826772 -0.393701
v 0.000000 0.000000 -22.316860
vt 0.832031 0.009979
vn 0.000000 0.000000 -1.007874
v 3.977533 0.000000 -20.500960
vt 0.746094 0.035156
vn 0.929134 0.000000 -0.377953
v 1.988767 3.471362 -20.500960
vt 0.800781 0.035156
vn 0.401575 0.826772 -0.393701
v -17.119410 0.000000 150.745027
vt 0.511719 0.277344
vn -0.787402 0.000000 -0.614173
v -10.938216 0.000000 144.336265
vt 0.446045 0.168152
vn -0.275591 0.000000 -0.960630
v -7.734621 -7.734760 144.336265
vt 0.372742 0.171875
vn -0.196850 -0.196850 -0.960630
v -3.902994 0.000000 141.675642
vt 0.420502 0.117371
vn -0.677165 0.000000 -0.740157
v 15.141745 15.141466 161.630314
vt 0.365234 0.436127
vn 0.488189 0.488189 -0.716535
v 0.000000 21.413052 161.630314
vt 0.549591 0.429474
vn 0.000000 0.700787 -0.716535
v 0.053129 20.350470 165.742645
vt 0.562134 0.489929
vn 0.000000 0.590551 0.811024
v -14.351948 14.352044 165.742645
vt 0.726166 0.435150
vn -0.417323 0.417323 0.811024
v 12.360803 12.360847 165.742645
vt 0.375000 0.419922
vn -0.307087 -0.307087 0.905512
v 0.103879 17.377070 165.742645
vt 0.556732 0.407959
vn 0.000000 -0.433071 0.905512
v 0.000000 0.000000 142.869381
vt 0.375000 0.094666
vn 0.000000 0.000000 1.000000
v -12.213310 12.213811 165.742645
vt 0.697388 0.367065
vn 0.307087 -0.307087 0.905512
v -0.103879 -17.377070 165.742645
vt 0.193237 0.415771
vn 0.000000 0.433071 0.905512
v 12.213310 -12.213811 165.742645
vt 0.052582 0.367065
vn -0.307087 0.307087 0.905512
v 17.377125 0.103906 165.742645
vt 0.193237 0.415771
vn -0.433071 0.000000 0.905512
v 0.000000 -3.902669 141.675642
vt 0.329407 0.117371
vn 0.000000 -0.677165 -0.740157
v 0.000000 -10.938190 144.336265
vt 0.292969 0.167969
vn 0.000000 -0.275591 -0.960630
v -12.105467 -12.105331 150.745027
vt 0.371094 0.285156
vn -0.559055 -0.559055 -0.614173
v -21.413338 0.000000 161.630314
vt 0.549591 0.429474
vn -0.700787 0.000000 -0.716535
v 0.000000 3.902669 141.675642
vt 0.420502 0.117371
vn 0.000000 0.677165 -0.740157
v -17.377125 -0.103906 165.742645
vt 0.556732 0.407959
vn 0.433071 0.000000 0.905512
v -12.360803 -12.360847 165.742645
vt 0.375000 0.419922
vn 0.307087 0.307087 0.905512
v 3.977533 0.000000 9.327355
vt 0.746094 0.464844
vn 0.929134 0.000000 0.377953
v 0.000000 0.000000 11.148314
vt 0.832031 0.503906
vn 0.000000 0.000000 1.000000
v -3.977533 0.000000 9.327355
vt 0.910156 0.464844
vn -0.929134 0.000000 0.377953
v -1.988767 3.471362 -20.500960
vt 0.855469 0.035156
vn -0.401575 0.826772 -0.393701
v -3.977533 0.000000 -20.500960
vt 0.910156 0.035156
vn -0.929134 0.000000 -0.377953
v 0.000000 2.691090 -17.723998
vt 0.828125 0.074219
vn 0.000000 0.960630 0.275591
v -3.106853 0.000000 -17.723998
vt 0.910156 0.074219
vn -0.960630 0.000000 0.275591
v 0.000000 3.471362 -5.584273
vt 0.828125 0.238281
vn 0.000000 1.000000 0.000000
v 1.730259 -0.341778 -31.897126
vt 0.914032 0.777344
vn 0.535433 -0.653543 -0.543307
v 1.418622 -1.694511 -25.761507
vt 0.914032 0.871094
vn 0.590551 -0.787402 0.196850
v 1.008657 -1.990544 -25.715983
vt 0.835907 0.871094
vn 0.346457 -0.921260 0.181102
v 0.252957 -0.176443 -22.675993
vt 0.914032 0.980469
vn 0.188976 -0.724409 0.661417
v -0.171281 -0.176443 -22.675993
vt 0.835907 0.980469
vn 0.000000 -0.716535 0.700787
v 0.199035 0.011109 -22.554596
vt 0.914032 0.989990
vn 0.000000 0.031496 1.000000
v -0.224410 0.011109 -22.554596
vt 0.835907 0.989990
vn 0.000000 0.031496 1.000000
v 0.164145 0.199969 -22.696226
vt 0.914032 0.980469
vn 0.228346 0.944882 0.259843
v -0.259301 0.199969 -22.696226
vt 0.835907 0.980469
vn 0.000000 0.889764 0.456693
v -1.169629 0.290152 -27.385195
vt 0.835907 0.871094
vn 0.417323 0.897638 0.165354
v -1.988767 -3.471362 -20.500960
vt 0.855469 0.035156
vn -0.401575 -0.826772 -0.393701
v -0.303707 -0.006535 -22.134764
vt 0.084076 0.056213
vn 0.905512 -0.007874 0.425197
v -0.625653 0.000000 -21.917261
vt 0.084076 0.009979
vn -0.149606 -0.984252 0.118110
v -0.264852 -0.145729 -22.645644
vt 0.170013 0.056213
vn 0.307087 -0.913386 0.283465
v -0.529703 0.000000 -22.908672
vt 0.170013 0.009979
vn -0.307087 -0.929134 -0.204724
v 0.000000 -0.145729 -22.751867
vt 0.255951 0.056213
vn 0.000000 -0.858268 0.519685
v 0.000000 0.000000 -23.126175
vt 0.255951 0.009979
vn 0.000000 -0.937008 -0.362205
v 0.529703 0.000000 -22.908672
vt 0.170013 0.009979
vn 0.307087 -0.929134 -0.204724
v 0.529703 0.000000 -22.908672
vt 0.170013 0.009979
vn 0.307087 0.929134 -0.204724
v 0.000000 0.000000 -23.126175
vt 0.255951 0.009979
vn 0.000000 0.937008 -0.362205
v 0.000000 0.145729 -22.751867
vt 0.255951 0.056213
vn 0.000000 0.858268 0.519685
v -0.529703 0.000000 -22.908672
vt 0.170013 0.009979
vn -0.307087 0.929134 -0.204724
v -0.264852 0.145729 -22.645644
vt 0.170013 0.056213
vn 0.330709 0.897638 0.291339
v -0.625653 0.000000 -21.917261
vt 0.084076 0.009979
vn -0.118110 0.984252 0.133858
v 0.000000 0.145729 -22.751867
vt 0.255951 0.053589
vn 0.000000 0.858268 0.519685
v 0.000000 -0.145729 -22.751867
vt 0.255951 0.101868
vn 0.000000 -0.858268 0.519685
v 0.264852 0.145729 -22.645644
vt 0.170013 0.053589
vn -0.330709 0.897638 0.291339
v 0.264852 -0.145729 -22.645644
vt 0.170013 0.101868
vn -0.307087 -0.913386 0.283465
v 0.303707 -0.006535 -22.134764
vt 0.084076 0.077209
vn -0.905512 -0.007874 0.425197
v 12.105467 -12.105331 150.745027
vt 0.113281 0.246094
vn 0.559055 -0.559055 -0.614173
v 10.938216 0.000000 144.336265
vt 0.292969 0.167969
vn 0.275591 0.000000 -0.960630
v 17.119410 0.000000 150.745027
vt 0.230469 0.277344
vn 0.787402 0.000000 -0.614173
v 7.734621 7.734760 144.336265
vt 0.372742 0.171875
vn 0.196850 0.196850 -0.960630
v 12.105467 12.105331 150.745027
vt 0.371094 0.285156
vn 0.559055 0.559055 -0.614173
v 0.000000 10.938190 144.336265
vt 0.446045 0.168152
vn 0.000000 0.275591 -0.960630
v 0.000000 17.119593 150.745027
vt 0.511719 0.277344
vn 0.000000 0.787402 -0.614173
v 0.000000 -21.413705 161.630314
vt 0.174194 0.431061
vn 0.000000 -0.700787 -0.716535
v 15.141745 -15.141466 161.630314
vt 0.042969 0.385345
vn 0.496063 -0.496063 -0.708661
v 21.413338 0.000000 161.630314
vt 0.174194 0.431061
vn 0.700787 0.000000 -0.716535
v 7.734621 -7.734760 144.336265
vt 0.214844 0.152344
vn 0.196850 -0.196850 -0.960630
v 0.000000 -17.119593 150.745027
vt 0.230469 0.277344
vn 0.000000 -0.787402 -0.614173
v -15.141745 -15.141466 161.630314
vt 0.365234 0.436127
vn -0.488189 -0.488189 -0.716535
v -0.643891 -0.103252 -27.461068
vt 0.914032 0.871094
vn 0.606299 0.787402 0.133858
v 0.314809 1.144922 -30.991705
vt 0.914032 0.777344
vn 0.480315 0.850394 0.212598
v -0.259301 1.411548 -30.991705
vt 0.835907 0.777344
vn 0.291339 0.952756 -0.102362
v 1.089540 0.573115 -32.362482
vt 0.914032 0.746094
vn 0.440945 0.669291 -0.598425
v 0.618516 0.363996 -32.711499
vt 0.835907 0.746094
vn 0.488189 0.141732 -0.858268
v 1.080024 -0.399939 -32.033698
vt 0.835907 0.777344
vn 0.370079 -0.740157 -0.566929
v 0.000000 -2.152611 135.327577
vt 0.960938 0.989990
vn 0.000000 -1.007874 0.000000
v 2.485958 0.000000 6.049629
vt 0.929169 0.009979
vn 1.000000 0.000000 0.000000
v 2.485958 0.000000 135.327577
vt 0.929169 0.989990
vn 1.000000 0.000000 0.000000
v 0.000000 2.152611 6.049629
vt 0.960938 0.009979
vn 0.000000 1.000000 0.000000
v 0.000000 2.152611 135.327577
vt 0.960938 0.989990
vn 0.000000 1.000000 0.000000
v -2.485958 0.000000 6.049629
vt 0.989990 0.009979
vn -1.007874 0.000000 0.000000
v -2.485958 0.000000 135.327577
vt 0.989990 0.989990
vn -1.007874 0.000000 0.000000
v 0.000000 -2.152611 6.049629
vt 0.960938 0.009979
vn 0.000000 -1.007874 0.000000
v -7.734621 -7.734760 144.336265
vt 0.372742 0.171875
vn -0.354331 -0.354331 -0.866142
v -7.734621 7.734760 144.336265
vt 0.542969 0.152344
vn -0.196850 0.196850 -0.960630
v -12.105467 12.105331 150.745027
vt 0.636719 0.238281
vn -0.559055 0.559055 -0.614173
v -15.141745 15.141466 161.630314
vt 0.708984 0.380646
vn -0.496063 0.496063 -0.708661
v -21.413338 0.000000 161.630314
vt 0.549591 0.429474
vn -0.700787 0.000000 -0.716535
v 0.103879 17.377070 165.742645
vt 0.572632 0.458588
vn 0.000000 -0.433071 0.905512
v -14.351948 14.352044 165.742645
vt 0.716125 0.432281
vn -0.417323 0.417323 0.811024
v -12.213310 12.213811 165.742645
vt 0.710938 0.411438
vn 0.307087 -0.307087 0.905512
v -20.350759 -0.052933 165.742645
vt 0.580444 0.489929
vn -0.590551 0.000000 0.811024
v -17.377125 -0.103906 165.742645
vt 0.572632 0.458588
vn 0.433071 0.000000 0.905512
v -14.428073 -14.427850 165.742645
vt 0.382019 0.489929
vn -0.417323 -0.417323 0.811024
v -12.360803 -12.360847 165.742645
vt 0.381226 0.469513
vn 0.307087 0.307087 0.905512
v -0.053129 -20.350470 165.742645
vt 0.195312 0.489929
vn 0.000000 -0.590551 0.811024
v -0.103879 -17.377070 165.742645
vt 0.197266 0.463867
vn 0.000000 0.433071 0.905512
v 14.351948 -14.352044 165.742645
vt 0.047516 0.444000
vn 0.417323 -0.417323 0.811024
v 12.213310 -12.213811 165.742645
vt 0.052734 0.423828
vn -0.307087 0.307087 0.905512
v 20.350759 0.052933 165.742645
vt 0.195312 0.489929
vn 0.590551 0.000000 0.811024
v 17.377125 0.103906 165.742645
vt 0.197266 0.463867
vn -0.433071 0.000000 0.905512
v 14.427280 14.427850 165.742645
vt 0.382019 0.489929
vn 0.417323 0.417323 0.811024
v 12.360803 12.360847 165.742645
vt 0.381226 0.469513
vn -0.307087 -0.307087 0.905512
v 0.053129 20.350470 165.742645
vt 0.580444 0.489929
vn 0.000000 0.590551 0.811024
v 14.427280 14.427850 165.742645
vt 0.370300 0.489929
vn 0.417323 0.417323 0.811024
v 20.350759 0.052933 165.742645
vt 0.166382 0.489929
vn 0.590551 0.000000 0.811024
v 14.351948 -14.352044 165.742645
vt 0.032196 0.437469
vn 0.417323 -0.417323 0.811024
v -0.053129 -20.350470 165.742645
vt 0.166382 0.489929
vn 0.000000 -0.590551 0.811024
v -14.428073 -14.427850 165.742645
vt 0.370300 0.489929
vn -0.417323 -0.417323 0.811024
v -15.141745 -15.141466 161.630314
vt 0.365234 0.436127
vn -0.488189 -0.488189 -0.716535
v -20.350759 -0.052933 165.742645
vt 0.562134 0.489929
vn -0.590551 0.000000 0.811024
v -21.413338 0.000000 161.630314
vt 0.549591 0.429474
vn -0.700787 0.000000 -0.716535
f 1/1/1 2/2/2 3/3/3
f 4/4/4 5/5/5 6/6/6
f 7/7/7 8/8/8 9/9/9
f 10/10/10 11/11/11 12/12/12
f 13/13/13 14/14/14 15/15/15
f 16/16/16 17/17/17 18/18/18
f 18/18/18 17/17/17 19/19/19
f 18/18/18 19/19/19 20/20/20
f 21/21/21 22/22/22 23/23/23
f 24/24/24 25/25/25 11/11/11
f 26/26/26 27/27/27 13/13/13
f 28/28/28 29/29/29 30/30/30
f 30/30/30 29/29/29 31/31/31
f 32/32/32 33/33/33 34/34/34
f 34/34/34 33/33/33 35/35/35
f 36/36/36 37/37/37 38/38/38
f 38/38/38 37/37/37 39/39/39
f 40/40/40 41/41/41 42/42/42
f 42/42/42 41/41/41 43/43/43
f 44/44/44 45/45/45 42/42/42
f 42/42/42 45/45/45 46/46/46
f 42/42/42 46/46/46 40/40/40
f 47/47/47 48/48/48 34/34/34
f 34/34/34 48/48/48 49/49/49
f 34/34/34 49/49/49 32/32/32
f 32/32/32 49/49/49 50/50/50
f 2/2/2 1/1/1 35/35/35
f 7/7/7 9/9/9 51/51/51
f 43/43/43 52/52/52 42/42/42
f 42/42/42 52/52/52 53/53/53
f 42/42/42 53/53/53 44/44/44
f 17/17/17 54/54/54 19/19/19
f 19/19/19 54/54/54 55/55/55
f 19/19/19 55/55/55 20/20/20
f 20/20/20 55/55/55 56/56/56
f 20/20/20 56/56/56 18/18/18
f 57/57/57 58/58/58 59/59/59
f 59/59/59 58/58/58 60/60/60
f 59/59/59 60/60/60 61/61/61
f 61/61/61 60/60/60 10/10/10
f 61/61/61 10/10/10 21/21/21
f 21/21/21 10/10/10 12/12/12
f 21/21/21 12/12/12 22/22/22
f 62/62/62 63/63/63 64/64/64
f 64/64/64 63/63/63 65/65/65
f 64/64/64 65/65/65 66/66/66
f 66/66/66 65/65/65 67/67/67
f 66/66/66 67/67/67 68/68/68
f 68/68/68 67/67/67 69/69/69
f 68/68/68 69/69/69 70/70/70
f 70/70/70 69/69/69 71/71/71
f 31/31/31 25/25/25 30/30/30
f 30/30/30 25/25/25 24/24/24
f 30/30/30 24/24/24 28/28/28
f 28/28/28 24/24/24 72/72/72
f 28/28/28 72/72/72 29/29/29
f 73/73/73 74/74/74 75/75/75
f 75/75/75 74/74/74 76/76/76
f 75/75/75 76/76/76 77/77/77
f 77/77/77 76/76/76 78/78/78
f 77/77/77 78/78/78 14/14/14
f 14/14/14 78/78/78 79/79/79
f 14/14/14 79/79/79 15/15/15
f 26/26/26 80/80/80 27/27/27
f 27/27/27 80/80/80 81/81/81
f 27/27/27 81/81/81 82/82/82
f 82/82/82 81/81/81 83/83/83
f 82/82/82 83/83/83 84/84/84
f 84/84/84 83/83/83 85/85/85
f 84/84/84 85/85/85 73/73/73
f 5/5/5 4/4/4 86/86/86
f 86/86/86 4/4/4 87/87/87
f 86/86/86 87/87/87 88/88/88
f 88/88/88 87/87/87 89/89/89
f 88/88/88 89/89/89 90/90/90
f 91/91/91 92/92/92 93/93/93
f 93/93/93 92/92/92 94/94/94
f 93/93/93 94/94/94 95/95/95
f 95/95/95 94/94/94 96/96/96
f 95/95/95 96/96/96 97/97/97
f 98/98/98 91/91/91 99/99/99
f 99/99/99 91/91/91 93/93/93
f 99/99/99 93/93/93 100/100/100
f 100/100/100 93/93/93 95/95/95
f 100/100/100 95/95/95 36/36/36
f 36/36/36 95/95/95 97/97/97
f 36/36/36 97/97/97 37/37/37
f 8/8/8 7/7/7 47/47/47
f 47/47/47 7/7/7 101/101/101
f 47/47/47 101/101/101 48/48/48
f 48/48/48 101/101/101 102/102/102
f 48/48/48 102/102/102 49/49/49
f 49/49/49 102/102/102 103/103/103
f 49/49/49 103/103/103 50/50/50
f 69/69/69 104/104/104 71/71/71
f 71/71/71 104/104/104 105/105/105
f 71/71/71 105/105/105 106/106/106
f 106/106/106 105/105/105 107/107/107
f 106/106/106 107/107/107 108/108/108
f 108/108/108 107/107/107 62/62/62
f 108/108/108 62/62/62 109/109/109
f 109/109/109 62/62/62 64/64/64
f 110/110/110 111/111/111 112/112/112
f 112/112/112 111/111/111 113/113/113
f 112/112/112 113/113/113 114/114/114
f 114/114/114 113/113/113 115/115/115
f 114/114/114 115/115/115 116/116/116
f 116/116/116 115/115/115 117/117/117
f 116/116/116 117/117/117 110/110/110
f 110/110/110 117/117/117 111/111/111
f 11/11/11 10/10/10 24/24/24
f 24/24/24 10/10/10 60/60/60
f 24/24/24 60/60/60 72/72/72
f 72/72/72 60/60/60 58/58/58
f 72/72/72 58/58/58 29/29/29
f 29/29/29 58/58/58 57/57/57
f 29/29/29 57/57/57 31/31/31
f 31/31/31 57/57/57 59/59/59
f 31/31/31 59/59/59 25/25/25
f 25/25/25 59/59/59 16/16/16
f 25/25/25 16/16/16 11/11/11
f 11/11/11 16/16/16 18/18/18
f 11/11/11 18/18/18 12/12/12
f 12/12/12 18/18/18 56/56/56
f 12/12/12 56/56/56 22/22/22
f 22/22/22 56/56/56 55/55/55
f 22/22/22 55/55/55 23/23/23
f 23/23/23 55/55/55 54/54/54
f 23/23/23 54/54/54 21/21/21
f 21/21/21 54/54/54 17/17/17
f 21/21/21 17/17/17 61/61/61
f 61/61/61 17/17/17 16/16/16
f 61/61/61 16/16/16 59/59/59
f 118/118/118 35/35/35 47/47/47
f 47/47/47 35/35/35 1/1/1
f 47/47/47 1/1/1 8/8/8
f 8/8/8 1/1/1 3/3/3
f 8/8/8 3/3/3 9/9/9
f 9/9/9 3/3/3 2/2/2
f 9/9/9 2/2/2 51/51/51
f 51/51/51 2/2/2 35/35/35
f 51/51/51 35/35/35 119/119/119
f 119/119/119 35/35/35 33/33/33
f 119/119/119 33/33/33 120/120/120
f 120/120/120 33/33/33 32/32/32
f 120/120/120 32/32/32 121/121/121
f 121/121/121 32/32/32 122/122/122
f 123/123/123 124/124/124 125/125/125
f 125/125/125 124/124/124 126/126/126
f 125/125/125 126/126/126 127/127/127
f 127/127/127 126/126/126 128/128/128
f 127/127/127 128/128/128 129/129/129
f 129/129/129 128/128/128 130/130/130
f 129/129/129 130/130/130 131/131/131
f 131/131/131 130/130/130 132/132/132
f 131/131/131 132/132/132 133/133/133
f 133/133/133 132/132/132 134/134/134
f 133/133/133 134/134/134 135/135/135
f 135/135/135 134/134/134 136/136/136
f 135/135/135 136/136/136 137/137/137
f 137/137/137 136/136/136 138/138/138
f 137/137/137 138/138/138 123/123/123
f 123/123/123 138/138/138 124/124/124
f 38/38/38 139/139/139 36/36/36
f 36/36/36 139/139/139 140/140/140
f 36/36/36 140/140/140 100/100/100
f 100/100/100 140/140/140 141/141/141
f 100/100/100 141/141/141 99/99/99
f 99/99/99 141/141/141 142/142/142
f 99/99/99 142/142/142 98/98/98
f 98/98/98 142/142/142 143/143/143
f 98/98/98 143/143/143 144/144/144
f 144/144/144 143/143/143 145/145/145
f 144/144/144 145/145/145 146/146/146
f 146/146/146 145/145/145 39/39/39
f 146/146/146 39/39/39 121/121/121
f 121/121/121 39/39/39 37/37/37
f 121/121/121 37/37/37 120/120/120
f 120/120/120 37/37/37 97/97/97
f 120/120/120 97/97/97 119/119/119
f 119/119/119 97/97/97 96/96/96
f 119/119/119 96/96/96 51/51/51
f 51/51/51 96/96/96 94/94/94
f 51/51/51 94/94/94 7/7/7
f 7/7/7 94/94/94 92/92/92
f 7/7/7 92/92/92 101/101/101
f 101/101/101 92/92/92 91/91/91
f 101/101/101 91/91/91 102/102/102
f 102/102/102 91/91/91 98/98/98
f 102/102/102 98/98/98 103/103/103
g mesh01
