mtllib 6095-0.mtl
g mesh00
usemtl texture03
v 83.993610 37.402324 0.000000
vt 0.123322 0.683990
vn 0.000000 0.000000 1.000000
v 167.987220 0.000000 0.000000
vt 0.065369 0.750305
vn 0.000000 0.000000 1.000000
v 167.987220 37.402324 0.000000
vt 0.123322 0.750305
vn 0.000000 0.000000 1.000000
v 83.993610 0.000000 0.000000
vt 0.065369 0.683990
vn 0.000000 0.000000 1.000000
v 167.987220 -37.402324 0.000000
vt 0.005554 0.750305
vn 0.000000 0.000000 1.000000
v 0.000000 37.402324 0.000000
vt 0.123322 0.625671
vn 0.000000 0.000000 1.000000
v 0.000000 0.000000 0.000000
vt 0.065369 0.625671
vn 0.000000 0.000000 1.000000
v -83.993610 37.402324 0.000000
vt 0.123322 0.559326
vn 0.000000 0.000000 1.000000
v -83.993610 0.000000 0.000000
vt 0.065369 0.559326
vn 0.000000 0.000000 1.000000
v -167.987220 37.402324 0.000000
vt 0.123322 0.501007
vn 0.000000 0.000000 1.000000
v -167.987220 0.000000 0.000000
vt 0.065369 0.501007
vn 0.000000 0.000000 1.000000
v 83.993610 -37.402324 0.000000
vt 0.005554 0.683990
vn 0.000000 0.000000 1.000000
v 0.000000 -37.402324 0.000000
vt 0.005554 0.625671
vn 0.000000 0.000000 1.000000
v -83.993610 -37.402324 0.000000
vt 0.005554 0.559326
vn 0.000000 0.000000 1.000000
v -167.987220 -37.402324 0.000000
vt 0.005554 0.501007
vn 0.000000 0.000000 1.000000
f 1/1/1 2/2/2 3/3/3
f 4/4/4 5/5/5 2/2/2
f 2/2/2 1/1/1 4/4/4
f 4/4/4 1/1/1 6/6/6
f 4/4/4 6/6/6 7/7/7
f 7/7/7 6/6/6 8/8/8
f 7/7/7 8/8/8 9/9/9
f 9/9/9 8/8/8 10/10/10
f 9/9/9 10/10/10 11/11/11
f 5/5/5 4/4/4 12/12/12
f 12/12/12 4/4/4 7/7/7
f 12/12/12 7/7/7 13/13/13
f 13/13/13 7/7/7 9/9/9
f 13/13/13 9/9/9 14/14/14
f 14/14/14 9/9/9 11/11/11
f 14/14/14 11/11/11 15/15/15
g mesh01
g mesh02
