mtllib 2226-0.mtl
g mesh00
usemtl texture00
v -5.533674 54.019856 7.901703
vt 0.247101 0.127899
vn -0.629921 -0.157480 0.755906
v -5.141759 56.827520 8.827214
vt 0.194183 0.023438
vn -0.629921 -0.157480 0.755906
v -5.754732 56.848014 7.868115
vt 0.121094 0.019531
vn -0.842520 -0.055118 0.535433
v 6.118355 53.089433 6.781234
vt 0.081482 0.148376
vn 0.818898 -0.078740 0.574803
v 6.554370 56.585692 6.644689
vt 0.058594 0.009979
vn 0.818898 -0.078740 0.574803
v 5.569176 56.352061 7.682648
vt 0.121094 0.019531
vn 0.732283 -0.062992 0.677165
v 5.397766 54.040350 8.052122
vt 0.247101 0.127899
vn 0.732283 0.070866 0.685039
v 4.751787 56.727100 8.461391
vt 0.194183 0.023438
vn 0.732283 0.070866 0.685039
v 3.532775 56.850063 9.837790
vt 0.277344 0.009979
vn 0.748031 0.078740 0.661417
v -7.032822 54.683858 5.235796
vt 0.019531 0.042969
vn -0.921260 -0.031496 0.385827
v -6.243724 52.997211 6.954288
vt 0.081482 0.148376
vn -0.905512 -0.015748 0.433071
v -6.789852 56.809075 5.997744
vt 0.058594 0.009979
vn -0.905512 -0.015748 0.433071
v -5.754732 56.848014 7.868115
vt 0.121094 0.019531
vn -0.874016 0.000000 0.480315
v -4.250314 56.671766 9.139003
vt 0.277344 0.009979
vn -0.354331 -0.244094 0.905512
v 6.977904 55.403194 5.574602
vt 0.019531 0.042969
vn 0.889764 -0.086614 0.456693
v 5.569176 56.352061 7.682648
vt 0.121094 0.019531
vn 0.708661 0.055118 0.708661
f 1/1/1 2/2/2 3/3/3
f 4/4/4 5/5/5 6/6/6
f 7/7/7 8/8/8 9/9/9
f 10/10/10 11/11/11 12/12/12
f 12/12/12 11/11/11 13/13/13
f 2/2/2 1/1/1 14/14/14
f 5/5/5 4/4/4 15/15/15
f 8/8/8 7/7/7 16/16/16
usemtl texture00
v 5.613000 55.903245 8.702717
vt 0.535156 0.644531
vn 0.708661 0.000000 0.708661
v 5.580548 57.007866 8.746163
vt 0.535156 0.613281
vn 0.708661 0.047244 0.700787
v 1.693857 55.261786 11.109774
vt 0.628906 0.644531
vn 0.409449 0.055118 0.913386
v 7.668261 44.820147 2.841882
vt 0.878906 0.989990
vn 0.921260 -0.125984 0.377953
v 4.677176 50.017399 8.140839
vt 0.989990 0.808594
vn 0.795276 -0.141732 0.590551
v 4.187630 43.442957 7.185391
vt 0.989990 0.989990
vn 0.795276 -0.141732 0.590551
v 6.506387 52.318863 6.268643
vt 0.989990 0.769501
vn 0.874016 -0.086614 0.480315
v 8.510613 57.415695 2.887154
vt 0.878906 0.652344
vn 0.968504 0.015748 0.251969
v 6.589873 56.382802 7.062355
vt 0.989990 0.652344
vn 0.889764 0.023622 0.456693
v 8.648185 60.069654 -1.316160
vt 0.441406 0.316406
vn 0.968504 0.244094 -0.055118
v 8.952175 57.923943 -1.756096
vt 0.371094 0.316406
vn 0.992126 0.094488 -0.102362
v 7.613066 58.204709 -5.796213
vt 0.371094 0.009979
vn 0.874016 0.181102 -0.456693
v 4.942335 53.085335 -9.301469
vt 0.621094 0.808594
vn 0.574803 0.007874 -0.818898
v 0.000000 58.358414 -11.464279
vt 0.488281 0.652344
vn 0.000000 0.110236 -1.000000
v 4.720445 58.378908 -8.993331
vt 0.621094 0.652344
vn 0.629921 0.181102 -0.755906
v 1.521060 51.550342 11.431420
vt 0.191406 0.180573
vn 0.346457 0.047244 0.937008
v 1.693857 55.261786 11.109774
vt 0.191406 0.277344
vn 0.409449 0.055118 0.913386
v 0.003328 55.284330 11.795783
vt 0.246094 0.277344
vn 0.000000 0.070866 1.000000
v -7.668816 44.820147 2.841882
vt 0.089844 0.989990
vn -0.921260 -0.125984 0.377953
v -8.300927 51.790121 2.845898
vt 0.089844 0.808594
vn -0.952756 -0.055118 0.314961
v -9.088361 52.583234 -2.075187
vt 0.191406 0.808594
vn -0.992126 -0.055118 -0.118110
v -6.506664 52.318863 6.268643
vt 0.009979 0.769501
vn -0.874016 -0.086614 0.488189
v -6.589595 56.382802 7.062355
vt 0.009979 0.652344
vn -0.889764 0.023622 0.456693
v -8.511168 57.415695 2.887154
vt 0.089844 0.652344
vn -0.968504 0.015748 0.251969
v -1.764030 55.276132 11.109043
vt 0.292969 0.277344
vn -0.401575 0.062992 0.913386
v -1.582080 51.564688 11.430690
vt 0.292969 0.180573
vn -0.330709 0.047244 0.944882
v 0.006657 50.886340 11.962996
vt 0.246094 0.180573
vn 0.000000 0.031496 1.000000
v 2.006446 59.936444 9.793249
vt 0.628906 0.496094
vn 0.346457 0.377953 0.858268
v 0.000000 60.047111 10.559944
vt 0.683594 0.496094
vn 0.000000 0.409449 0.913386
v 0.002496 56.538556 11.554092
vt 0.683594 0.613281
vn 0.000000 0.236220 0.976378
v 5.188079 65.340683 -0.018985
vt 0.542969 0.324219
vn 0.543307 0.842520 -0.023622
v 7.589490 62.350624 2.413994
vt 0.511719 0.371094
vn 0.850394 0.503937 0.141732
v 7.210334 62.678527 -3.236913
vt 0.503906 0.230469
vn 0.811024 0.527559 -0.267717
v 0.003328 55.284330 11.795783
vt 0.683594 0.636719
vn 0.000000 0.070866 1.000000
v 1.693857 55.261786 11.109774
vt 0.628906 0.636719
vn 0.409449 0.055118 0.913386
v 1.826437 56.505766 11.020326
vt 0.628906 0.613281
vn 0.409449 0.165354 0.897638
v -5.613277 55.903245 8.702717
vt 0.847656 0.644531
vn -0.716535 0.000000 0.700787
v -1.764030 55.276132 11.109043
vt 0.730469 0.644531
vn -0.401575 0.062992 0.913386
v -1.826437 56.505766 11.020326
vt 0.730469 0.613281
vn -0.401575 0.173228 0.897638
v -2.006723 59.936444 9.793249
vt 0.730469 0.496094
vn -0.346457 0.377953 0.858268
v -1.764030 55.276132 11.109043
vt 0.730469 0.636719
vn -0.401575 0.062992 0.913386
v 5.674852 59.608541 8.284686
vt 0.480469 0.511719
vn 0.645669 0.283465 0.708661
v 4.162667 65.172634 -4.557453
vt 0.566406 0.199219
vn 0.511811 0.787402 -0.346457
v -0.013868 66.553922 -4.978405
vt 0.679474 0.196228
vn 0.000000 0.984252 -0.188976
v 1.914916 66.457601 0.034319
vt 0.626556 0.322113
vn 0.322835 0.952756 0.031496
v 8.300095 51.790121 2.845898
vt 0.878906 0.808594
vn 0.952756 -0.055118 0.314961
v 9.088361 52.583234 -2.075187
vt 0.785156 0.808594
vn 0.992126 -0.055118 -0.118110
v 6.589873 56.382802 7.062355
vt 0.394531 0.644531
vn 0.889764 0.023622 0.456693
v -5.188079 65.340683 -0.018985
vt 0.816406 0.316406
vn -0.551181 0.834646 -0.031496
v -1.915193 66.457601 0.034319
vt 0.732941 0.321411
vn -0.322835 0.952756 0.031496
v -0.005270 67.152344 -0.037239
vt 0.679840 0.320404
vn 0.000000 1.000000 0.039370
v 0.007766 46.840845 -11.737003
vt 0.488281 0.989990
vn 0.000000 -0.023622 -1.000000
v 4.458059 46.918722 -9.256928
vt 0.621094 0.989990
vn 0.708661 -0.070866 -0.708661
v 7.598366 53.044347 -5.963061
vt 0.683594 0.808594
vn 0.842520 -0.031496 -0.543307
v 6.728832 46.773215 -6.036809
vt 0.683594 0.989990
vn 0.897638 -0.118110 -0.433071
v -7.613343 58.204709 -5.796213
vt 0.300781 0.652344
vn -0.874016 0.188976 -0.456693
v -7.599198 53.044347 -5.963061
vt 0.300781 0.808594
vn -0.842520 -0.031496 -0.543307
v -4.721554 58.378908 -8.993331
vt 0.386719 0.652344
vn -0.629921 0.181102 -0.755906
v -4.935124 53.085335 -9.301469
vt 0.386719 0.808594
vn -0.574803 0.007874 -0.818898
v 0.008321 52.886544 -11.735543
vt 0.488281 0.808594
vn 0.000000 0.023622 -1.000000
v 0.003051 62.086253 -10.616533
vt 0.675781 0.058594
vn 0.000000 0.417323 -0.913386
v -4.721554 58.378908 -8.993331
vt 0.800659 0.009979
vn -0.629921 0.181102 -0.755906
v -4.193455 63.086355 -7.092293
vt 0.790863 0.128906
vn -0.629921 0.480315 -0.614173
v -7.613343 58.204709 -5.796213
vt 0.989990 0.009979
vn -0.874016 0.188976 -0.456693
v -7.032822 62.678527 -3.236913
vt 0.871094 0.238281
vn -0.811024 0.527559 -0.267717
v -8.647631 60.069654 -1.316160
vt 0.933594 0.316406
vn -0.968504 0.251969 -0.062992
v -7.588658 62.350624 2.413994
vt 0.863281 0.363281
vn -0.850394 0.511811 0.133858
v -8.247395 59.846270 3.005444
vt 0.933594 0.441406
vn -0.929134 0.196850 0.322835
v -5.608562 62.840428 6.168973
vt 0.808594 0.425781
vn -0.669291 0.543307 0.511811
v -5.675129 59.608541 8.284686
vt 0.878906 0.519531
vn -0.645669 0.283465 0.708661
v -2.030576 63.270800 7.600502
vt 0.730469 0.425781
vn -0.346457 0.637795 0.685039
v 4.192068 63.086355 -7.092293
vt 0.568481 0.128906
vn 0.622047 0.480315 -0.622047
v 0.006657 64.984090 -8.556315
vt 0.678894 0.118713
vn 0.000000 0.779528 -0.629921
v -4.162945 65.172634 -4.557453
vt 0.800781 0.199219
vn -0.527559 0.779528 -0.346457
v -8.951898 57.923943 -1.754636
vt 0.989990 0.316406
vn -0.992126 0.094488 -0.102362
v -8.511168 57.415695 2.887154
vt 0.989990 0.433594
vn -0.968504 0.015748 0.251969
v -6.589595 56.382802 7.062355
vt 0.980469 0.644531
vn -0.889764 0.023622 0.456693
v -5.580825 57.007866 8.746163
vt 0.847656 0.613281
vn -0.708661 0.047244 0.700787
v -5.310951 64.793497 3.074811
vt 0.808594 0.371094
vn -0.551181 0.787402 0.275591
v -1.972885 65.758759 3.817410
vt 0.731689 0.373596
vn -0.314961 0.889764 0.346457
v -0.002496 66.236267 4.134676
vt 0.683594 0.371094
vn 0.000000 0.929134 0.370079
v 1.972607 65.758759 3.817410
vt 0.627716 0.373932
vn 0.314961 0.889764 0.346457
v 5.310674 64.793497 3.074811
vt 0.550781 0.371094
vn 0.551181 0.787402 0.275591
v -4.187630 43.442957 7.185391
vt 0.009979 0.989990
vn -0.795276 -0.141732 0.590551
v -4.677731 50.017399 8.140839
vt 0.009979 0.808594
vn -0.795276 -0.141732 0.590551
v -8.951898 57.923943 -1.754636
vt 0.191406 0.652344
vn -0.992126 0.094488 -0.102362
v 7.613066 58.204709 -5.796213
vt 0.683594 0.652344
vn 0.874016 0.181102 -0.456693
v 8.952175 57.923943 -1.756096
vt 0.785156 0.652344
vn 0.992126 0.094488 -0.102362
v 8.151428 46.254720 -2.108046
vt 0.785156 0.989990
vn 0.984252 -0.141732 -0.149606
v 8.510613 57.415695 2.887154
vt 0.371094 0.425781
vn 0.968504 0.015748 0.251969
v 8.247118 59.846270 3.005444
vt 0.441406 0.441406
vn 0.929134 0.196850 0.322835
v 0.000000 63.688876 8.306591
vt 0.683594 0.425781
vn 0.000000 0.708661 0.708661
v 2.030299 63.270800 7.600502
vt 0.628906 0.425781
vn 0.346457 0.637795 0.685039
v 5.608284 62.840428 6.168973
vt 0.550781 0.425781
vn 0.669291 0.543307 0.511811
v -4.459169 46.918722 -9.256928
vt 0.386719 0.989990
vn -0.708661 -0.070866 -0.708661
v -6.729387 46.773215 -6.036809
vt 0.300781 0.989990
vn -0.897638 -0.118110 -0.433071
v -8.151705 46.256769 -2.106585
vt 0.191406 0.989990
vn -0.984252 -0.141732 -0.149606
v 4.720445 58.378908 -8.993331
vt 0.558685 0.009979
vn 0.629921 0.181102 -0.755906
v 0.000000 58.358414 -11.464279
vt 0.675781 0.009979
vn 0.000000 0.110236 -1.000000
f 17/17/17 18/18/18 19/19/19
f 20/20/20 21/21/21 22/22/22
f 23/23/23 24/24/24 25/25/25
f 26/26/26 27/27/27 28/28/28
f 29/29/29 30/30/30 31/31/31
f 32/32/32 33/33/33 34/34/34
f 35/35/35 36/36/36 37/37/37
f 38/38/38 39/39/39 40/40/40
f 41/41/41 42/42/42 34/34/34
f 34/34/34 42/42/42 43/43/43
f 34/34/34 43/43/43 32/32/32
f 44/44/44 45/45/45 46/46/46
f 47/47/47 48/48/48 49/49/49
f 50/50/50 51/51/51 52/52/52
f 53/53/53 54/54/54 55/55/55
f 45/45/45 56/56/56 46/46/46
f 46/46/46 56/56/56 55/55/55
f 46/46/46 55/55/55 57/57/57
f 58/58/58 44/44/44 52/52/52
f 52/52/52 44/44/44 46/46/46
f 52/52/52 46/46/46 50/50/50
f 50/50/50 46/46/46 57/57/57
f 49/49/49 59/59/59 47/47/47
f 47/47/47 59/59/59 60/60/60
f 47/47/47 60/60/60 61/61/61
f 24/24/24 62/62/62 63/63/63
f 18/18/18 17/17/17 64/64/64
f 65/65/65 66/66/66 60/60/60
f 60/60/60 66/66/66 67/67/67
f 60/60/60 67/67/67 61/61/61
f 68/68/68 29/29/29 69/69/69
f 69/69/69 29/29/29 70/70/70
f 69/69/69 70/70/70 71/71/71
f 71/71/71 70/70/70 63/63/63
f 21/21/21 20/20/20 23/23/23
f 37/37/37 72/72/72 73/73/73
f 73/73/73 72/72/72 74/74/74
f 73/73/73 74/74/74 75/75/75
f 75/75/75 74/74/74 30/30/30
f 75/75/75 30/30/30 76/76/76
f 77/77/77 78/78/78 79/79/79
f 79/79/79 78/78/78 80/80/80
f 79/79/79 80/80/80 81/81/81
f 81/81/81 80/80/80 82/82/82
f 81/81/81 82/82/82 83/83/83
f 83/83/83 82/82/82 84/84/84
f 83/83/83 84/84/84 85/85/85
f 85/85/85 84/84/84 86/86/86
f 85/85/85 86/86/86 87/87/87
f 49/49/49 88/88/88 59/59/59
f 59/59/59 88/88/88 89/89/89
f 59/59/59 89/89/89 60/60/60
f 60/60/60 89/89/89 90/90/90
f 60/60/60 90/90/90 65/65/65
f 80/80/80 91/91/91 82/82/82
f 82/82/82 91/91/91 92/92/92
f 82/82/82 92/92/92 84/84/84
f 84/84/84 92/92/92 93/93/93
f 84/84/84 93/93/93 86/86/86
f 86/86/86 93/93/93 94/94/94
f 65/65/65 95/95/95 66/66/66
f 66/66/66 95/95/95 96/96/96
f 66/66/66 96/96/96 67/67/67
f 67/67/67 96/96/96 97/97/97
f 67/67/67 97/97/97 61/61/61
f 61/61/61 97/97/97 98/98/98
f 61/61/61 98/98/98 47/47/47
f 47/47/47 98/98/98 99/99/99
f 47/47/47 99/99/99 48/48/48
f 100/100/100 101/101/101 35/35/35
f 35/35/35 101/101/101 38/38/38
f 35/35/35 38/38/38 36/36/36
f 36/36/36 38/38/38 40/40/40
f 36/36/36 40/40/40 37/37/37
f 37/37/37 40/40/40 102/102/102
f 37/37/37 102/102/102 72/72/72
f 29/29/29 31/31/31 70/70/70
f 70/70/70 31/31/31 103/103/103
f 70/70/70 103/103/103 63/63/63
f 63/63/63 103/103/103 104/104/104
f 63/63/63 104/104/104 24/24/24
f 24/24/24 23/23/23 62/62/62
f 62/62/62 23/23/23 20/20/20
f 62/62/62 20/20/20 63/63/63
f 63/63/63 20/20/20 105/105/105
f 63/63/63 105/105/105 71/71/71
f 27/27/27 26/26/26 106/106/106
f 106/106/106 26/26/26 107/107/107
f 106/106/106 107/107/107 64/64/64
f 64/64/64 107/107/107 58/58/58
f 64/64/64 58/58/58 18/18/18
f 18/18/18 58/58/58 52/52/52
f 18/18/18 52/52/52 19/19/19
f 88/88/88 77/77/77 89/89/89
f 89/89/89 77/77/77 79/79/79
f 89/89/89 79/79/79 90/90/90
f 90/90/90 79/79/79 81/81/81
f 90/90/90 81/81/81 65/65/65
f 65/65/65 81/81/81 83/83/83
f 65/65/65 83/83/83 95/95/95
f 95/95/95 83/83/83 85/85/85
f 95/95/95 85/85/85 96/96/96
f 96/96/96 85/85/85 87/87/87
f 96/96/96 87/87/87 97/97/97
f 97/97/97 87/87/87 108/108/108
f 97/97/97 108/108/108 98/98/98
f 98/98/98 108/108/108 109/109/109
f 98/98/98 109/109/109 99/99/99
f 99/99/99 109/109/109 110/110/110
f 99/99/99 110/110/110 48/48/48
f 30/30/30 29/29/29 76/76/76
f 76/76/76 29/29/29 68/68/68
f 76/76/76 68/68/68 75/75/75
f 75/75/75 68/68/68 111/111/111
f 75/75/75 111/111/111 73/73/73
f 73/73/73 111/111/111 112/112/112
f 73/73/73 112/112/112 37/37/37
f 37/37/37 112/112/112 113/113/113
f 37/37/37 113/113/113 35/35/35
f 93/93/93 53/53/53 94/94/94
f 94/94/94 53/53/53 55/55/55
f 94/94/94 55/55/55 86/86/86
f 86/86/86 55/55/55 56/56/56
f 86/86/86 56/56/56 87/87/87
f 87/87/87 56/56/56 45/45/45
f 87/87/87 45/45/45 108/108/108
f 108/108/108 45/45/45 44/44/44
f 108/108/108 44/44/44 109/109/109
f 109/109/109 44/44/44 58/58/58
f 109/109/109 58/58/58 110/110/110
f 110/110/110 58/58/58 107/107/107
f 110/110/110 107/107/107 48/48/48
f 48/48/48 107/107/107 26/26/26
f 48/48/48 26/26/26 49/49/49
f 49/49/49 26/26/26 28/28/28
f 49/49/49 28/28/28 88/88/88
f 88/88/88 28/28/28 114/114/114
f 88/88/88 114/114/114 77/77/77
f 77/77/77 114/114/114 115/115/115
f 77/77/77 115/115/115 78/78/78
