mtllib 3589-0.mtl
g mesh00
usemtl texture00
v -5.262197 0.000000 93.227567
vt 0.586212 0.129608
vn 0.330709 0.889764 0.314961
v -18.085261 1.898165 99.839520
vt 0.829102 0.075378
vn 0.165354 0.960630 0.220472
v -14.715989 0.000000 100.841136
vt 0.748932 0.042450
vn 0.354331 0.692913 0.637795
v -9.111366 -1.898047 28.740899
vt 0.748688 0.886871
vn -0.283465 -0.850394 0.448819
v -16.591417 0.000000 28.550882
vt 0.909515 0.879120
vn -0.393701 0.000000 0.921260
v -14.696826 -1.898047 27.877770
vt 0.868774 0.907562
vn -0.322835 -0.944882 0.118110
v -14.696826 1.898165 27.877770
vt 0.868774 0.907562
vn -0.322835 0.944882 0.118110
v -9.111366 1.898165 28.740899
vt 0.748688 0.886871
vn -0.283465 0.850394 0.448819
v -6.043695 3.541785 23.681290
vt 0.682770 0.944641
vn -0.259843 0.921260 -0.299213
v -3.877496 0.000000 20.041978
vt 0.105164 0.439880
vn -0.811024 0.000000 -0.590551
v -0.709847 3.086083 19.858403
vt 0.056488 0.440491
vn -0.023622 0.905512 -0.433071
v -0.202456 3.086083 15.423596
vt 0.054382 0.503632
vn -0.023622 1.000000 -0.118110
v 2.853550 0.000000 19.674827
vt 0.012604 0.441101
vn 0.929134 0.000000 -0.370079
v 3.026013 0.000000 14.231963
vt 0.009796 0.518372
vn 0.992126 0.000000 -0.149606
v -0.202456 -3.086083 15.423596
vt 0.054382 0.503632
vn -0.023622 -1.000000 -0.118110
v -27.300771 0.000000 105.530373
vt 0.986908 0.010406
vn 0.338583 -0.220472 0.913386
v -24.099796 -1.898047 103.868528
vt 0.959839 0.028351
vn 0.000000 -0.952756 0.314961
v -14.715989 0.000000 100.841136
vt 0.748932 0.042450
vn 0.354331 -0.692913 0.637795
v 6.148672 1.898165 63.842542
vt 0.369904 0.486267
vn 0.165354 0.984252 0.062992
v 14.586017 1.898165 33.758640
vt 0.209961 0.845978
vn 0.196850 0.984252 0.078740
v -6.343630 1.898165 32.805334
vt 0.699738 0.837311
vn -0.393701 0.897638 0.212598
v 12.502300 2.308981 21.909944
vt 0.293335 0.987274
vn -0.165354 0.976378 -0.181102
v 16.463112 1.898165 22.312522
vt 0.189972 0.987274
vn 0.275591 0.960630 0.031496
v 20.093161 0.000000 22.518643
vt 0.113770 0.987274
vn 0.456693 0.889764 0.039370
v -9.081372 1.898165 91.594708
vt 0.676758 0.169495
vn 0.188976 0.968504 0.157480
v 6.148672 1.898165 63.842542
vt 0.369904 0.486267
vn 0.165354 0.984252 0.062992
v -10.536058 1.898165 68.795871
vt 0.805481 0.429688
vn -0.527559 0.850394 0.000000
v -9.081372 -1.898047 91.594708
vt 0.676758 0.169495
vn 0.188976 -0.968504 0.157480
v -18.085261 -1.898047 99.839520
vt 0.829102 0.075378
vn 0.165354 -0.960630 0.220472
v -13.663716 -1.898047 88.032692
vt 0.849701 0.210144
vn -0.425197 -0.858268 -0.291339
v -19.702412 -1.898047 98.280735
vt 0.912659 0.092163
vn -0.370079 -0.897638 -0.251969
v -15.345020 0.000000 86.799190
vt 0.930878 0.224213
vn -0.629921 0.000000 -0.779528
v 2.574444 0.000000 82.670343
vt 0.430145 0.253662
vn 0.314961 0.929134 0.181102
v 20.683867 0.000000 11.014553
vt 0.041901 0.164093
vn 0.582677 -0.811024 -0.062992
v 20.093161 0.000000 22.518643
vt 0.036285 0.026672
vn 0.456693 -0.889764 0.039370
v 17.356252 -1.898047 9.896995
vt 0.113434 0.218719
vn 0.275591 -0.960630 0.000000
v 16.463112 -1.898047 22.312522
vt 0.112488 0.026672
vn 0.275591 -0.960630 0.031496
v 13.958652 -2.077942 9.426783
vt 0.202728 0.189606
vn -0.559055 -0.826772 0.031496
v 15.951555 0.000000 -12.412307
vt 0.175385 0.518280
vn -0.314961 0.000000 -0.952756
v 14.844295 -1.898047 -9.146588
vt 0.199188 0.468903
vn -0.188976 -0.944882 -0.267717
v 12.309009 -2.052192 3.343014
vt 0.229095 0.280060
vn -0.598425 -0.803150 0.000000
v -0.186626 2.269057 -7.017752
vt 0.064056 0.783569
vn 0.047244 0.960630 0.275591
v -2.317000 3.870391 -10.679608
vt 0.086243 0.826172
vn -0.433071 0.897638 -0.133858
v -3.022681 0.000000 -6.260904
vt 0.101562 0.786713
vn -0.874016 0.000000 0.496063
v -5.224705 0.000000 -9.922760
vt 0.110138 0.828888
vn -1.000000 0.000000 -0.039370
v -2.656093 0.000000 13.011344
vt 0.097931 0.533478
vn -1.000000 0.000000 -0.102362
v -0.221619 2.269057 12.286702
vt 0.054565 0.542389
vn 0.000000 0.992126 -0.133858
v 1.926251 0.000000 11.562061
vt 0.022308 0.551331
vn 1.000000 0.000000 -0.094488
v 12.309009 2.052192 3.343014
vt 0.229095 0.280060
vn -0.598425 0.803150 0.000000
v 11.804118 0.000000 3.220630
vt 0.270264 0.280731
vn -1.000000 0.000000 0.015748
v 13.958652 2.077942 9.426783
vt 0.202728 0.189606
vn -0.559055 0.826772 0.031496
v 13.404605 0.000000 9.326944
vt 0.255615 0.191132
vn -1.000000 0.000000 0.062992
v 11.530010 0.000000 21.494482
vt 0.246033 0.026703
vn -0.724409 0.000000 -0.692913
v 12.502300 -2.308981 21.909944
vt 0.215851 0.026672
vn -0.165354 -0.976378 -0.181102
v 6.762706 3.233614 23.481611
vt 0.423370 0.952209
vn 0.125984 0.944882 -0.299213
v -0.813991 3.461819 29.948635
vt 0.570343 0.873108
vn -0.015748 0.992126 0.141732
v 10.392756 1.898165 27.414000
vt 0.329407 0.902008
vn 0.102362 0.992126 0.070866
v 11.119266 0.000000 64.003574
vt 0.266327 0.465820
vn 0.346457 -0.929134 0.125984
v 6.148672 -1.898047 63.842542
vt 0.369904 0.486267
vn 0.165354 -0.984252 0.062992
v 17.067981 0.000000 44.264334
vt 0.164459 0.701721
vn 0.362205 -0.929134 0.086614
v 14.586017 -1.898047 33.758640
vt 0.209961 0.845978
vn 0.196850 -0.984252 0.078740
v 18.730955 0.000000 34.377001
vt 0.134979 0.837677
vn 0.409449 -0.913386 0.055118
v 20.093161 0.000000 22.518643
vt 0.113770 0.987274
vn 0.456693 -0.889764 0.039370
v 3.900824 0.000000 -10.830978
vt 0.007019 0.828888
vn 0.984252 0.000000 -0.181102
v 1.670473 -3.727467 -10.753682
vt 0.040833 0.827148
vn 0.574803 -0.826772 -0.015748
v 0.675687 0.000000 -14.322140
vt 0.042969 0.873413
vn 0.244094 0.000000 -0.968504
v -2.317000 -3.870509 -10.679608
vt 0.086243 0.826172
vn -0.433071 -0.897638 -0.133858
v -2.783566 0.000000 -13.707000
vt 0.078888 0.867188
vn -0.574803 0.000000 -0.818898
v 12.502300 2.308981 21.909944
vt 0.215851 0.026672
vn -0.165354 0.976378 -0.181102
v 16.463112 1.898165 22.312522
vt 0.112488 0.026672
vn 0.275591 0.960630 0.031496
v 17.356252 1.898165 9.896995
vt 0.113434 0.218719
vn 0.275591 0.960630 0.000000
v -11.380876 0.000000 68.995550
vt 0.892273 0.427429
vn -1.000000 0.000000 0.007874
v -11.814949 1.898165 61.014829
vt 0.824280 0.518494
vn -0.464567 0.889764 -0.047244
v -13.267968 0.000000 60.985844
vt 0.914276 0.518860
vn -1.000000 0.000000 -0.102362
v -10.010338 0.000000 53.768412
vt 0.837738 0.618652
vn -0.968504 0.000000 -0.259843
v -8.712285 -1.898047 53.678235
vt 0.755829 0.614441
vn -0.448819 -0.889764 -0.118110
v -6.343630 -1.898047 32.805334
vt 0.699738 0.837311
vn -0.393701 -0.897638 0.212598
v -27.300771 0.000000 105.530373
vt 0.986908 0.010406
vn -0.771654 0.000000 -0.637795
v -24.099796 1.898165 103.868528
vt 0.959839 0.028351
vn 0.000000 0.952756 0.314961
v -20.683867 0.000000 97.881377
vt 0.954010 0.097748
vn -0.826772 0.000000 -0.559055
v -19.702412 1.898165 98.280735
vt 0.912659 0.092163
vn -0.370079 0.897638 -0.251969
v -13.663716 1.898165 88.032692
vt 0.849701 0.210144
vn -0.425197 0.858268 -0.291339
v -10.536058 -1.898047 68.795871
vt 0.805481 0.429688
vn -0.527559 -0.850394 0.000000
v -11.814949 -1.898047 61.014829
vt 0.824280 0.518494
vn -0.464567 -0.889764 -0.047244
v -19.411642 0.000000 25.819788
vt 0.970154 0.919586
vn -0.992126 0.000000 -0.133858
v -13.073010 0.000000 25.182103
vt 0.833893 0.949921
vn -0.409449 0.000000 -0.913386
v -3.877496 0.000000 20.041978
vt 0.636200 0.986206
vn -0.811024 0.000000 -0.590551
v -0.709847 3.086083 19.858403
vt 0.568115 0.988281
vn -0.023622 0.905512 -0.433071
v 10.392756 -1.898047 27.414000
vt 0.329407 0.902008
vn 0.102362 -0.992126 0.070866
v 12.502300 -2.308981 21.909944
vt 0.293335 0.987274
vn -0.165354 -0.976378 -0.181102
v 16.463112 -1.898047 22.312522
vt 0.189972 0.987274
vn 0.275591 -0.960630 0.031496
v -6.043695 -3.541785 23.681290
vt 0.682770 0.944641
vn -0.259843 -0.921260 -0.299213
v -0.221619 -2.269057 12.286702
vt 0.054565 0.542389
vn 0.000000 -0.992126 -0.133858
v -0.186626 -2.269057 -7.017752
vt 0.064056 0.783569
vn 0.047244 -0.960630 0.275591
v 2.598606 0.000000 -7.771379
vt 0.022461 0.790283
vn 0.921260 0.000000 0.401575
v 1.670473 3.727467 -10.753682
vt 0.040833 0.827148
vn 0.574803 0.826772 -0.015748
v 7.385072 0.000000 22.170815
vt 0.397461 0.967285
vn 0.118110 0.000000 -1.000000
v 2.853550 0.000000 19.674827
vt 0.491486 0.990387
vn 0.929134 0.000000 -0.370079
v 6.762706 -3.233614 23.481611
vt 0.423370 0.952209
vn 0.125984 -0.944882 -0.299213
v 2.574444 0.000000 82.670343
vt 0.430145 0.253662
vn 0.314961 -0.929134 0.181102
v -5.262197 0.000000 93.227567
vt 0.586212 0.129608
vn 0.330709 -0.889764 0.314961
v 14.634340 0.000000 -9.388136
vt 0.220581 0.473694
vn -0.952756 0.000000 -0.307087
v 14.844295 1.898165 -9.146588
vt 0.199188 0.468903
vn -0.188976 0.944882 -0.267717
v -27.300771 0.000000 105.530373
vt 0.986908 0.010406
vn 0.338583 0.220472 0.913386
v 11.119266 0.000000 64.003574
vt 0.266327 0.465820
vn 0.346457 0.929134 0.125984
v 17.067981 0.000000 44.264334
vt 0.164459 0.701721
vn 0.362205 0.929134 0.086614
v 18.730955 0.000000 34.377001
vt 0.134979 0.837677
vn 0.409449 0.913386 0.055118
v -13.952820 0.000000 86.409494
vt 0.911743 0.238220
vn -0.795276 0.000000 -0.614173
v -8.712285 1.898165 53.678235
vt 0.755829 0.614441
vn -0.448819 0.889764 -0.118110
v -7.708335 0.000000 32.956703
vt 0.781189 0.824310
vn -0.976378 0.000000 0.244094
v -0.813991 -3.461819 29.948635
vt 0.570343 0.873108
vn -0.015748 -0.992126 0.141732
v -0.709847 -3.086083 19.858403
vt 0.568115 0.988281
vn -0.023622 -0.905512 -0.433071
v -0.709847 -3.086083 19.858403
vt 0.056488 0.440491
vn -0.023622 -0.905512 -0.433071
v 20.093161 0.000000 22.518643
vt 0.036285 0.026672
vn 0.456693 0.889764 0.039370
v 20.683867 0.000000 11.014553
vt 0.041901 0.164093
vn 0.582677 0.811024 -0.062992
v -10.171137 0.000000 29.204670
vt 0.809662 0.858337
vn -0.511811 0.000000 0.866142
v 11.530010 0.000000 21.494482
vt 0.323547 0.987274
vn -0.724409 0.000000 -0.692913
f 1/1/1 2/2/2 3/3/3
f 4/4/4 5/5/5 6/6/6
f 7/7/7 8/8/8 9/9/9
f 10/10/10 11/11/11 12/12/12
f 12/12/12 11/11/11 13/13/13
f 12/12/12 13/13/13 14/14/14
f 14/14/14 13/13/13 15/15/15
f 16/16/16 17/17/17 18/18/18
f 19/19/19 20/20/20 21/21/21
f 22/22/22 20/20/20 23/23/23
f 23/23/23 20/20/20 24/24/24
f 25/25/25 26/26/26 27/27/27
f 28/28/28 29/29/29 30/30/30
f 30/30/30 29/29/29 31/31/31
f 30/30/30 31/31/31 32/32/32
f 2/2/2 1/1/1 25/25/25
f 25/25/25 1/1/1 33/33/33
f 25/25/25 33/33/33 26/26/26
f 34/34/34 35/35/35 36/36/36
f 36/36/36 35/35/35 37/37/37
f 36/36/36 37/37/37 38/38/38
f 39/39/39 34/34/34 40/40/40
f 40/40/40 34/34/34 36/36/36
f 40/40/40 36/36/36 41/41/41
f 41/41/41 36/36/36 38/38/38
f 42/42/42 43/43/43 44/44/44
f 44/44/44 43/43/43 45/45/45
f 44/44/44 46/46/46 42/42/42
f 42/42/42 46/46/46 47/47/47
f 42/42/42 47/47/47 48/48/48
f 49/49/49 50/50/50 51/51/51
f 51/51/51 50/50/50 52/52/52
f 51/51/51 52/52/52 53/53/53
f 53/53/53 52/52/52 54/54/54
f 55/55/55 56/56/56 57/57/57
f 58/58/58 59/59/59 60/60/60
f 60/60/60 59/59/59 61/61/61
f 60/60/60 61/61/61 62/62/62
f 62/62/62 61/61/61 63/63/63
f 64/64/64 65/65/65 66/66/66
f 66/66/66 65/65/65 67/67/67
f 66/66/66 67/67/67 68/68/68
f 69/69/69 70/70/70 71/71/71
f 72/72/72 73/73/73 74/74/74
f 74/74/74 73/73/73 75/75/75
f 74/74/74 75/75/75 76/76/76
f 76/76/76 75/75/75 77/77/77
f 78/78/78 79/79/79 80/80/80
f 80/80/80 79/79/79 81/81/81
f 80/80/80 81/81/81 82/82/82
f 59/59/59 83/83/83 84/84/84
f 85/85/85 7/7/7 86/86/86
f 86/86/86 7/7/7 9/9/9
f 86/86/86 9/9/9 87/87/87
f 87/87/87 9/9/9 88/88/88
f 89/89/89 90/90/90 61/61/61
f 61/61/61 90/90/90 91/91/91
f 61/61/61 91/91/91 63/63/63
f 92/92/92 4/4/4 6/6/6
f 93/93/93 94/94/94 48/48/48
f 48/48/48 94/94/94 95/95/95
f 48/48/48 95/95/95 42/42/42
f 42/42/42 95/95/95 96/96/96
f 42/42/42 96/96/96 43/43/43
f 8/8/8 56/56/56 9/9/9
f 9/9/9 56/56/56 55/55/55
f 9/9/9 55/55/55 88/88/88
f 88/88/88 55/55/55 97/97/97
f 88/88/88 97/97/97 98/98/98
f 98/98/98 97/97/97 99/99/99
f 100/100/100 101/101/101 28/28/28
f 28/28/28 101/101/101 18/18/18
f 28/28/28 18/18/18 29/29/29
f 29/29/29 18/18/18 17/17/17
f 29/29/29 17/17/17 31/31/31
f 102/102/102 50/50/50 103/103/103
f 103/103/103 50/50/50 49/49/49
f 103/103/103 49/49/49 71/71/71
f 71/71/71 49/49/49 51/51/51
f 71/71/71 51/51/51 69/69/69
f 69/69/69 51/51/51 53/53/53
f 27/27/27 82/82/82 25/25/25
f 25/25/25 82/82/82 81/81/81
f 25/25/25 81/81/81 2/2/2
f 2/2/2 81/81/81 79/79/79
f 2/2/2 79/79/79 3/3/3
f 3/3/3 79/79/79 104/104/104
f 33/33/33 105/105/105 26/26/26
f 26/26/26 105/105/105 106/106/106
f 26/26/26 106/106/106 20/20/20
f 20/20/20 106/106/106 107/107/107
f 20/20/20 107/107/107 24/24/24
f 32/32/32 108/108/108 30/30/30
f 30/30/30 108/108/108 83/83/83
f 30/30/30 83/83/83 28/28/28
f 28/28/28 83/83/83 59/59/59
f 28/28/28 59/59/59 100/100/100
f 100/100/100 59/59/59 58/58/58
f 73/73/73 109/109/109 75/75/75
f 75/75/75 109/109/109 110/110/110
f 75/75/75 110/110/110 77/77/77
f 77/77/77 110/110/110 4/4/4
f 77/77/77 4/4/4 111/111/111
f 111/111/111 4/4/4 92/92/92
f 111/111/111 92/92/92 99/99/99
f 99/99/99 92/92/92 112/112/112
f 99/99/99 112/112/112 98/98/98
f 13/13/13 113/113/113 15/15/15
f 15/15/15 113/113/113 10/10/10
f 15/15/15 10/10/10 46/46/46
f 46/46/46 10/10/10 12/12/12
f 46/46/46 12/12/12 47/47/47
f 47/47/47 12/12/12 14/14/14
f 47/47/47 14/14/14 48/48/48
f 48/48/48 14/14/14 15/15/15
f 48/48/48 15/15/15 93/93/93
f 93/93/93 15/15/15 46/46/46
f 93/93/93 46/46/46 94/94/94
f 94/94/94 46/46/46 44/44/44
f 94/94/94 44/44/44 67/67/67
f 67/67/67 44/44/44 45/45/45
f 67/67/67 45/45/45 68/68/68
f 68/68/68 45/45/45 43/43/43
f 68/68/68 43/43/43 66/66/66
f 66/66/66 43/43/43 96/96/96
f 66/66/66 96/96/96 64/64/64
f 64/64/64 96/96/96 95/95/95
f 64/64/64 95/95/95 65/65/65
f 65/65/65 95/95/95 94/94/94
f 65/65/65 94/94/94 67/67/67
f 70/70/70 114/114/114 71/71/71
f 71/71/71 114/114/114 115/115/115
f 71/71/71 115/115/115 103/103/103
f 103/103/103 115/115/115 39/39/39
f 103/103/103 39/39/39 102/102/102
f 102/102/102 39/39/39 40/40/40
f 102/102/102 40/40/40 50/50/50
f 50/50/50 40/40/40 41/41/41
f 50/50/50 41/41/41 52/52/52
f 52/52/52 41/41/41 38/38/38
f 52/52/52 38/38/38 54/54/54
f 54/54/54 38/38/38 37/37/37
f 5/5/5 4/4/4 116/116/116
f 116/116/116 4/4/4 110/110/110
f 116/116/116 110/110/110 21/21/21
f 21/21/21 110/110/110 109/109/109
f 21/21/21 109/109/109 19/19/19
f 19/19/19 109/109/109 73/73/73
f 19/19/19 73/73/73 27/27/27
f 27/27/27 73/73/73 72/72/72
f 27/27/27 72/72/72 82/82/82
f 17/17/17 78/78/78 31/31/31
f 31/31/31 78/78/78 80/80/80
f 31/31/31 80/80/80 32/32/32
f 32/32/32 80/80/80 82/82/82
f 32/32/32 82/82/82 108/108/108
f 108/108/108 82/82/82 72/72/72
f 108/108/108 72/72/72 83/83/83
f 83/83/83 72/72/72 74/74/74
f 83/83/83 74/74/74 84/84/84
f 84/84/84 74/74/74 76/76/76
f 84/84/84 76/76/76 59/59/59
f 59/59/59 76/76/76 77/77/77
f 59/59/59 77/77/77 61/61/61
f 61/61/61 77/77/77 111/111/111
f 61/61/61 111/111/111 89/89/89
f 89/89/89 111/111/111 99/99/99
f 89/89/89 99/99/99 90/90/90
f 90/90/90 99/99/99 97/97/97
f 90/90/90 97/97/97 117/117/117
f 117/117/117 97/97/97 55/55/55
f 117/117/117 55/55/55 22/22/22
f 22/22/22 55/55/55 57/57/57
f 22/22/22 57/57/57 20/20/20
f 20/20/20 57/57/57 56/56/56
f 20/20/20 56/56/56 21/21/21
f 21/21/21 56/56/56 8/8/8
f 21/21/21 8/8/8 116/116/116
f 116/116/116 8/8/8 7/7/7
f 116/116/116 7/7/7 5/5/5
f 5/5/5 7/7/7 85/85/85
f 5/5/5 85/85/85 6/6/6
f 6/6/6 85/85/85 86/86/86
f 6/6/6 86/86/86 92/92/92
f 92/92/92 86/86/86 87/87/87
f 92/92/92 87/87/87 112/112/112
g mesh01
