mtllib 3293-0.mtl
g mesh00
usemtl texture00
v -9.228243 -0.332712 11.298631
vt 0.214233 0.009979
vn -0.251969 0.377953 0.889764
v -6.985782 -7.343246 14.396441
vt 0.315521 0.122314
vn -0.118110 0.283465 0.952756
v -4.667427 -0.402234 12.901606
vt 0.371918 0.009979
vn -0.133858 0.236220 0.960630
v 0.000000 -40.443096 21.606201
vt 0.491943 0.860474
vn 0.000000 0.086614 1.000000
v 5.269754 -40.680216 19.829148
vt 0.667877 0.860474
vn 0.228346 0.078740 0.976378
v 5.549835 -30.840391 19.240973
vt 0.667877 0.666687
vn 0.204724 0.133858 0.968504
v 0.000000 -7.529465 14.654922
vt 0.491943 0.122314
vn 0.000000 0.244094 0.976378
v 0.000000 -11.982588 16.146460
vt 0.491943 0.245087
vn 0.000000 0.251969 0.968504
v 6.336474 -7.238963 14.417542
vt 0.626556 0.122314
vn 0.110236 0.283465 0.952756
v 0.000000 -0.244568 13.216135
vt 0.491943 0.009979
vn 0.000000 0.188976 0.984252
v 4.242787 -0.402234 12.901606
vt 0.611603 0.009979
vn 0.125984 0.236220 0.968504
v 6.336474 -7.238963 14.417542
vt 0.626556 0.122314
vn 0.110236 0.283465 0.952756
v 9.228243 -0.332712 11.298631
vt 0.723785 0.009979
vn 0.244094 0.377953 0.897638
v 13.730030 -3.545614 -11.824165
vt 0.974213 0.679077
vn 0.519685 0.582677 -0.629921
v 16.997651 2.429540 -1.107114
vt 0.847778 0.505768
vn 0.763780 0.566929 -0.299213
v 19.727997 -2.053378 -1.163162
vt 0.974213 0.505768
vn 0.826772 0.559055 -0.078740
v 15.592424 1.937922 7.462306
vt 0.847778 0.317078
vn 0.653543 0.551181 0.519685
v 19.736429 -3.190556 7.903437
vt 0.974213 0.317993
vn 0.503937 0.661417 0.551181
v 0.000000 -0.244568 13.216135
vt 0.491577 0.009979
vn 0.000000 0.188976 0.984252
v 0.000000 -7.529465 14.654922
vt 0.491577 0.122314
vn 0.000000 0.244094 0.976378
v -6.985782 -7.343246 14.396441
vt 0.315521 0.122314
vn -0.118110 0.283465 0.952756
v 0.000000 -11.982588 16.146460
vt 0.491577 0.245087
vn 0.000000 0.251969 0.968504
v -19.736429 -3.190556 7.903437
vt 0.974213 0.317993
vn -0.503937 0.661417 0.551181
v -15.592424 1.937922 7.462306
vt 0.847778 0.317078
vn -0.653543 0.559055 0.519685
v -19.726190 -2.045929 -1.162503
vt 0.974213 0.505768
vn -0.826772 0.559055 -0.078740
v -16.997651 2.429540 -1.107114
vt 0.847778 0.505768
vn -0.763780 0.574803 -0.299213
v -13.730030 -3.545614 -11.824165
vt 0.974213 0.679077
vn -0.519685 0.582677 -0.629921
v -11.150869 1.580381 -8.417101
vt 0.847778 0.679077
vn -0.385827 0.622047 -0.685039
v 0.000000 -4.737418 -15.541141
vt 0.974213 0.833740
vn 0.000000 0.582677 -0.818898
v 0.000000 0.905026 -11.859772
vt 0.847778 0.833740
vn 0.000000 0.582677 -0.818898
v 13.730030 -3.545614 -11.824165
vt 0.974213 0.679077
vn 0.519685 0.582677 -0.629921
v 11.150869 1.580381 -8.417101
vt 0.847778 0.679077
vn 0.385827 0.622047 -0.685039
v 16.997651 2.429540 -1.107114
vt 0.847778 0.505768
vn 0.763780 0.566929 -0.299213
v 15.592424 1.937922 7.462306
vt 0.854706 0.009979
vn 0.653543 0.551181 0.519685
v 12.283242 -5.474846 12.953039
vt 0.740143 0.154663
vn 0.196850 0.456693 0.874016
v 7.941071 -11.945344 15.429704
vt 0.624603 0.245087
vn 0.062992 0.251969 0.968504
v 6.926151 -20.018569 17.078836
vt 0.667877 0.463715
vn 0.125984 0.173228 0.976378
v 0.000000 -20.287966 18.311893
vt 0.491943 0.465485
vn 0.000000 0.204724 0.984252
v 5.549835 -30.840391 19.240973
vt 0.667877 0.666687
vn 0.204724 0.133858 0.968504
v 0.000000 -31.104822 20.336218
vt 0.491943 0.668427
vn 0.000000 0.133858 0.992126
v 0.000000 -40.443096 21.606201
vt 0.491943 0.860474
vn 0.000000 0.086614 1.000000
v -12.274207 -5.463673 12.954357
vt 0.219238 0.160675
vn -0.196850 0.456693 0.866142
v -8.584356 -11.944103 15.430363
vt 0.314270 0.245087
vn -0.055118 0.251969 0.968504
v -7.329108 -20.022294 17.078836
vt 0.315643 0.463715
vn -0.125984 0.173228 0.976378
v 0.000000 -20.287966 18.311893
vt 0.491577 0.465485
vn 0.000000 0.204724 0.984252
v -5.873285 -30.840391 19.240973
vt 0.315643 0.666687
vn -0.204724 0.133858 0.976378
v 0.000000 -31.104822 20.336218
vt 0.491577 0.668427
vn 0.000000 0.133858 0.992126
v -5.578747 -40.672767 19.826510
vt 0.315643 0.860474
vn -0.228346 0.078740 0.976378
v 0.000000 -40.443096 21.606201
vt 0.491577 0.860474
vn 0.000000 0.086614 1.000000
f 1/1/1 2/2/2 3/3/3
f 4/4/4 5/5/5 6/6/6
f 7/7/7 8/8/8 9/9/9
f 10/10/10 7/7/7 11/11/11
f 11/11/11 7/7/7 12/12/12
f 11/11/11 12/12/12 13/13/13
f 14/14/14 15/15/15 16/16/16
f 16/16/16 15/15/15 17/17/17
f 16/16/16 17/17/17 18/18/18
f 19/19/19 3/3/3 20/20/20
f 20/20/20 3/3/3 21/21/21
f 20/20/20 21/21/21 22/22/22
f 23/23/23 24/24/24 25/25/25
f 25/25/25 24/24/24 26/26/26
f 25/25/25 26/26/26 27/27/27
f 27/27/27 26/26/26 28/28/28
f 27/27/27 28/28/28 29/29/29
f 29/29/29 28/28/28 30/30/30
f 29/29/29 30/30/30 31/31/31
f 31/31/31 30/30/30 32/32/32
f 31/31/31 32/32/32 33/33/33
f 34/34/34 13/13/13 35/35/35
f 35/35/35 13/13/13 9/9/9
f 35/35/35 9/9/9 36/36/36
f 36/36/36 9/9/9 8/8/8
f 36/36/36 8/8/8 37/37/37
f 37/37/37 8/8/8 38/38/38
f 37/37/37 38/38/38 39/39/39
f 39/39/39 38/38/38 40/40/40
f 39/39/39 40/40/40 41/41/41
f 1/1/1 42/42/42 2/2/2
f 2/2/2 42/42/42 43/43/43
f 2/2/2 43/43/43 22/22/22
f 22/22/22 43/43/43 44/44/44
f 22/22/22 44/44/44 45/45/45
f 45/45/45 44/44/44 46/46/46
f 45/45/45 46/46/46 47/47/47
f 47/47/47 46/46/46 48/48/48
f 47/47/47 48/48/48 49/49/49
usemtl texture00
v 12.283242 -5.474846 12.953039
vt 0.740143 0.154663
vn 0.196850 0.456693 0.874016
v 19.736429 -3.190556 7.903437
vt 0.956696 0.062408
vn 0.503937 0.661417 0.551181
v 15.592424 1.937922 7.462306
vt 0.854706 0.009979
vn 0.653543 0.551181 0.519685
v 19.736429 -3.190556 7.903437
vt 0.956696 0.062408
vn 0.503937 0.661417 0.551181
v 12.283242 -5.474846 12.953039
vt 0.740143 0.154663
vn 0.196850 0.456693 0.874016
v 18.887149 -8.304137 14.418860
vt 0.829681 0.245087
vn 0.070866 0.377953 0.929134
v 5.269754 -40.680216 19.829148
vt 0.667877 0.860474
vn 0.228346 0.078740 0.976378
v 11.549006 -40.295362 18.743793
vt 0.829681 0.860474
vn 0.204724 0.078740 0.976378
v 5.549835 -30.840391 19.240973
vt 0.667877 0.666687
vn 0.204724 0.133858 0.968504
v 12.815699 -30.611962 17.431609
vt 0.829681 0.666687
vn 0.181102 0.110236 0.976378
v 6.926151 -20.018569 17.078836
vt 0.667877 0.463715
vn 0.125984 0.173228 0.976378
v 7.941071 -11.945344 15.429704
vt 0.624603 0.245087
vn 0.062992 0.251969 0.968504
f 50/50/50 51/51/51 52/52/52
f 53/53/53 54/54/54 55/55/55
f 56/56/56 57/57/57 58/58/58
f 58/58/58 57/57/57 59/59/59
f 58/58/58 59/59/59 60/60/60
f 60/60/60 59/59/59 55/55/55
f 60/60/60 55/55/55 61/61/61
f 61/61/61 55/55/55 54/54/54
usemtl texture00
v -18.876307 -8.299171 14.420179
vt 0.150177 0.245087
vn -0.078740 0.377953 0.929134
v -8.584356 -11.944103 15.430363
vt 0.314270 0.245087
vn -0.055118 0.251969 0.968504
v -12.274207 -5.463673 12.954357
vt 0.219238 0.160675
vn -0.196850 0.456693 0.866142
v -12.274207 -5.463673 12.954357
vt 0.219238 0.160675
vn -0.196850 0.456693 0.866142
v -9.228243 -0.332712 11.298631
vt 0.214233 0.009979
vn -0.251969 0.377953 0.889764
v -15.592424 1.937922 7.462306
vt 0.105560 0.009979
vn -0.653543 0.559055 0.519685
v -18.876307 -8.299171 14.420179
vt 0.150177 0.245087
vn -0.078740 0.377953 0.929134
v -19.736429 -3.190556 7.903437
vt 0.020355 0.049530
vn -0.503937 0.661417 0.551181
v -7.329108 -20.022294 17.078836
vt 0.315643 0.463715
vn -0.125984 0.173228 0.976378
v -12.815699 -30.611962 17.431609
vt 0.150177 0.666687
vn -0.196850 0.110236 0.976378
v -5.873285 -30.840391 19.240973
vt 0.315643 0.666687
vn -0.204724 0.133858 0.976378
v -11.547199 -40.287914 18.741156
vt 0.150177 0.860474
vn -0.212598 0.070866 0.976378
v -5.578747 -40.672767 19.826510
vt 0.315643 0.860474
vn -0.228346 0.078740 0.976378
f 62/62/62 63/63/63 64/64/64
f 65/65/65 66/66/66 67/67/67
f 68/68/68 64/64/64 69/69/69
f 69/69/69 64/64/64 67/67/67
f 63/63/63 62/62/62 70/70/70
f 70/70/70 62/62/62 71/71/71
f 70/70/70 71/71/71 72/72/72
f 72/72/72 71/71/71 73/73/73
f 72/72/72 73/73/73 74/74/74
usemtl texture00
v 2.480380 -0.973306 18.296068
vt 0.090088 0.327026
vn 0.787402 0.047244 0.622047
v 2.480380 -2.399745 13.588690
vt 0.117950 0.339203
vn 0.787402 -0.039370 -0.614173
v 2.168977 1.255118 16.367355
vt 0.090088 0.281738
vn 0.590551 0.811024 -0.039370
v -2.480380 -0.973306 18.296068
vt 0.090363 0.327026
vn -0.771654 0.047244 0.637795
v -2.480380 -2.399745 13.588690
vt 0.117828 0.339203
vn -0.803150 -0.031496 -0.598425
v -2.133440 -4.794525 16.240752
vt 0.090363 0.394775
vn -0.590551 -0.803150 0.102362
v -12.401298 -0.377404 -10.436151
vt 0.745514 0.985748
vn -0.472441 0.204724 -0.858268
v -0.142751 3.438849 -13.475934
vt 0.354614 0.903381
vn 0.000000 0.086614 -1.000000
v 0.000000 -1.035379 -14.310061
vt 0.354614 0.985748
vn 0.000000 0.181102 -0.984252
v 12.401298 -0.377404 -10.436151
vt 0.745514 0.985748
vn 0.472441 0.204724 -0.858268
v 11.970635 6.465532 -9.824238
vt 0.983337 0.871185
vn 0.614173 -0.110236 -0.787402
v 17.646959 7.570433 -0.999634
vt 0.680298 0.871185
vn 0.968504 -0.062992 -0.244094
v 11.885105 4.485401 -9.499159
vt 0.983337 0.905090
vn 0.645669 0.094488 -0.763780
v -2.183433 0.165114 15.512787
vt 0.009979 0.710846
vn 0.456693 0.000000 0.889764
v -9.343889 -1.945370 19.185584
vt 0.009979 0.837952
vn -0.433071 -0.023622 0.905512
v -2.183433 -4.042199 15.512787
vt 0.115112 0.710846
vn 0.464567 0.031496 0.889764
v -8.648805 4.701415 14.985276
vt 0.359894 0.871185
vn -0.338583 -0.181102 0.921260
v 0.000000 0.306641 15.509490
vt 0.145691 0.898102
vn 0.000000 -0.181102 0.984252
v 0.000000 3.966470 16.388456
vt 0.145691 0.871185
vn 0.000000 -0.228346 0.976378
v 8.648805 4.701415 14.985276
vt 0.359894 0.871185
vn 0.338583 -0.181102 0.929134
v -11.882093 4.540025 -9.493884
vt 0.745514 0.904083
vn -0.598425 0.055118 -0.803150
v -11.970635 6.465532 -9.824238
vt 0.745514 0.871185
vn -0.614173 -0.110236 -0.779528
v -0.197563 5.395392 -13.698808
vt 0.354614 0.871185
vn 0.000000 -0.141732 -0.992126
v 0.000000 0.306641 15.509490
vt 0.145691 0.902496
vn 0.000000 -0.181102 0.984252
v 9.195717 1.457476 14.157742
vt 0.359894 0.903534
vn 0.488189 -0.070866 0.874016
v 16.853093 6.618232 8.171809
vt 0.680298 0.871185
vn 0.818898 -0.078740 0.566929
v -17.646959 7.570433 -0.999634
vt 0.680298 0.871185
vn -0.968504 -0.055118 -0.244094
v -11.970635 6.465532 -9.824238
vt 0.983337 0.871185
vn -0.614173 -0.110236 -0.779528
v -17.570463 5.675963 -1.074804
vt 0.680298 0.905090
vn -0.984252 0.125984 -0.165354
v -11.882093 4.540025 -9.493884
vt 0.983337 0.904083
vn -0.598425 0.055118 -0.803150
v -18.952200 1.021723 -1.259433
vt 0.680298 0.985748
vn -0.937008 0.267717 -0.228346
v -12.401298 -0.377404 -10.436151
vt 0.983337 0.985748
vn -0.472441 0.204724 -0.858268
v -17.824645 0.247051 7.495275
vt 0.680298 0.985748
vn -0.858268 0.149606 0.496063
v -9.189092 1.512100 14.166314
vt 0.359894 0.902374
vn -0.488189 -0.070866 0.874016
v -16.792258 4.798249 7.978608
vt 0.680298 0.904663
vn -0.881890 0.031496 0.472441
v -16.853093 6.618232 8.171809
vt 0.680298 0.871185
vn -0.818898 -0.078740 0.566929
v 11.970635 6.465532 -9.824238
vt 0.745514 0.871185
vn 0.614173 -0.110236 -0.787402
v 11.885105 4.485401 -9.499159
vt 0.745514 0.905090
vn 0.645669 0.094488 -0.763780
v 17.554803 5.730587 -1.072826
vt 0.680298 0.904022
vn 0.968504 0.102362 -0.244094
v 18.952200 1.021723 -1.259433
vt 0.680298 0.985748
vn 0.897638 0.244094 -0.362205
v 12.401298 -0.377404 -10.436151
vt 0.983337 0.985748
vn 0.472441 0.204724 -0.858268
v 16.794065 4.789559 7.977289
vt 0.680298 0.904816
vn 0.881890 0.039370 0.472441
v 17.554803 5.730587 -1.072826
vt 0.983337 0.904022
vn 0.968504 0.102362 -0.244094
v 17.646959 7.570433 -0.999634
vt 0.983337 0.871185
vn 0.968504 -0.062992 -0.244094
v -17.646959 7.570433 -0.999634
vt 0.983337 0.871185
vn -0.968504 -0.055118 -0.244094
v -17.570463 5.675963 -1.074804
vt 0.983337 0.905090
vn -0.984252 0.125984 -0.165354
v -18.952200 1.021723 -1.259433
vt 0.983337 0.985748
vn -0.937008 0.267717 -0.228346
v -9.189092 1.512100 14.166314
vt 0.359894 0.897980
vn -0.488189 -0.070866 0.874016
v 11.670676 -1.312225 18.021762
vt 0.009979 0.426178
vn -0.133858 0.511811 0.850394
v 2.340640 0.057107 15.657193
vt 0.009979 0.702972
vn -0.259843 0.283465 0.921260
v 12.160368 -3.973919 19.721667
vt 0.059753 0.426178
vn -0.307087 0.039370 0.952756
v 2.002133 -4.038475 15.657193
vt 0.115112 0.702972
vn -0.362205 -0.196850 0.913386
v 11.834509 -7.152061 18.021762
vt 0.115112 0.426178
vn -0.330709 -0.417323 0.850394
v 10.646119 -4.131584 15.158695
vt 0.009979 0.426178
vn 0.118110 0.173228 0.984252
v 2.087663 0.121663 15.467948
vt 0.009979 0.702972
vn 0.070866 0.110236 0.992126
v 10.250993 -6.474223 15.631477
vt 0.059753 0.426178
vn 0.047244 0.062992 1.000000
v 1.882872 -3.985092 15.683569
vt 0.115112 0.702972
vn 0.007874 0.007874 1.000000
v 9.140303 -9.421453 15.535866
vt 0.115112 0.426178
vn 0.000000 -0.031496 1.000000
v 2.133440 -4.794525 15.644005
vt 0.090088 0.394775
vn 0.598425 -0.795276 0.102362
v -2.168977 1.255118 16.367355
vt 0.090363 0.281738
vn -0.590551 0.811024 -0.039370
v -2.480380 -2.399745 13.588690
vt 0.090363 0.414459
vn -0.803150 -0.031496 -0.598425
v 2.480380 -2.399745 13.588690
vt 0.009979 0.414459
vn 0.787402 -0.039370 -0.614173
v 2.133440 -4.794525 15.644005
vt 0.009979 0.394775
vn 0.598425 -0.795276 0.102362
v -9.742027 -2.980749 13.808266
vt 0.359894 0.985748
vn -0.385827 -0.047244 0.921260
v 0.000000 -4.045924 14.847463
vt 0.145691 0.985748
vn 0.000000 -0.102362 1.000000
v 9.742027 -2.980749 13.808266
vt 0.359894 0.985748
vn 0.385827 -0.047244 0.921260
v 17.824645 0.247051 7.495275
vt 0.680298 0.985748
vn 0.787402 0.110236 0.614173
v 18.952200 1.021723 -1.259433
vt 0.983337 0.985748
vn 0.897638 0.244094 -0.362205
v -2.183433 0.165114 15.508171
vt 0.009979 0.989990
vn 0.055118 0.000000 -1.000000
v -2.183433 -4.042199 15.508171
vt 0.115112 0.989990
vn 0.055118 0.000000 -1.000000
v -9.656497 -1.055242 15.073634
vt 0.009979 0.904785
vn -0.716535 0.000000 -0.700787
v -9.686011 -7.728099 15.073634
vt 0.115112 0.904785
vn -0.944882 -0.062992 -0.322835
v -8.350653 -8.618227 19.185584
vt 0.115112 0.837952
vn -0.377953 -0.055118 0.929134
v 2.480380 -0.973306 18.296068
vt 0.009979 0.327026
vn 0.787402 0.047244 0.622047
v 2.168977 1.255118 16.367355
vt 0.009979 0.281738
vn 0.590551 0.811024 -0.039370
v 2.480380 -2.399745 13.588690
vt 0.009979 0.257507
vn 0.787402 -0.039370 -0.614173
v -2.480380 -2.399745 13.588690
vt 0.090363 0.257507
vn -0.803150 -0.031496 -0.598425
f 75/75/75 76/76/76 77/77/77
f 78/78/78 79/79/79 80/80/80
f 81/81/81 82/82/82 83/83/83
f 83/83/83 82/82/82 84/84/84
f 85/85/85 86/86/86 87/87/87
f 88/88/88 89/89/89 90/90/90
f 91/91/91 92/92/92 93/93/93
f 93/93/93 92/92/92 94/94/94
f 81/81/81 95/95/95 82/82/82
f 82/82/82 95/95/95 96/96/96
f 82/82/82 96/96/96 97/97/97
f 98/98/98 99/99/99 94/94/94
f 94/94/94 99/99/99 100/100/100
f 101/101/101 102/102/102 103/103/103
f 103/103/103 102/102/102 104/104/104
f 103/103/103 104/104/104 105/105/105
f 105/105/105 104/104/104 106/106/106
f 107/107/107 108/108/108 109/109/109
f 109/109/109 108/108/108 110/110/110
f 97/97/97 111/111/111 82/82/82
f 82/82/82 111/111/111 112/112/112
f 82/82/82 112/112/112 84/84/84
f 86/86/86 113/113/113 87/87/87
f 87/87/87 113/113/113 114/114/114
f 87/87/87 114/114/114 115/115/115
f 99/99/99 116/116/116 100/100/100
f 100/100/100 116/116/116 117/117/117
f 100/100/100 117/117/117 118/118/118
f 110/110/110 119/119/119 109/109/109
f 109/109/109 119/119/119 120/120/120
f 109/109/109 120/120/120 107/107/107
f 107/107/107 120/120/120 121/121/121
f 110/110/110 122/122/122 91/91/91
f 91/91/91 122/122/122 98/98/98
f 123/123/123 124/124/124 125/125/125
f 125/125/125 124/124/124 126/126/126
f 125/125/125 126/126/126 127/127/127
f 128/128/128 129/129/129 130/130/130
f 130/130/130 129/129/129 131/131/131
f 130/130/130 131/131/131 132/132/132
f 76/76/76 75/75/75 133/133/133
f 79/79/79 78/78/78 134/134/134
f 135/135/135 136/136/136 80/80/80
f 80/80/80 136/136/136 137/137/137
f 80/80/80 137/137/137 78/78/78
f 107/107/107 138/138/138 108/108/108
f 108/108/108 138/138/138 139/139/139
f 108/108/108 139/139/139 98/98/98
f 98/98/98 139/139/139 140/140/140
f 98/98/98 140/140/140 99/99/99
f 99/99/99 140/140/140 141/141/141
f 99/99/99 141/141/141 116/116/116
f 116/116/116 141/141/141 142/142/142
f 116/116/116 142/142/142 117/117/117
f 143/143/143 144/144/144 145/145/145
f 145/145/145 144/144/144 146/146/146
f 145/145/145 146/146/146 89/89/89
f 89/89/89 146/146/146 147/147/147
f 89/89/89 147/147/147 90/90/90
f 137/137/137 148/148/148 78/78/78
f 78/78/78 148/148/148 149/149/149
f 78/78/78 149/149/149 134/134/134
f 134/134/134 149/149/149 150/150/150
f 134/134/134 150/150/150 151/151/151
