mtllib 3953-0.mtl
g mesh00
usemtl texture00
v 4.015634 0.000000 -2.004130
vt 0.578247 0.370392
vn 0.992126 0.000000 0.133858
v 4.192135 0.000000 9.218338
vt 0.576416 0.234314
vn 0.976378 0.000000 -0.220472
v 1.570075 -1.944702 -1.383411
vt 0.623199 0.364288
vn -0.023622 -0.992126 0.125984
v -0.722691 0.000000 -0.756089
vt 0.668304 0.358032
vn -1.000000 0.000000 0.118110
v -0.339832 0.000000 5.847305
vt 0.666443 0.289581
vn -0.992126 0.000000 -0.133858
v 1.570075 1.944952 -1.383411
vt 0.623199 0.364288
vn -0.023622 0.992126 0.125984
v 1.495435 -1.944702 14.368985
vt 0.637085 0.123169
vn 0.000000 -0.669291 0.748031
v -1.786970 0.000000 14.368985
vt 0.687683 0.123169
vn -0.362205 0.000000 0.937008
v 1.534950 -2.876492 12.579466
vt 0.633057 0.161224
vn 0.000000 -0.992126 0.125984
v -2.592204 0.000000 12.579466
vt 0.703094 0.161224
vn -1.000000 0.000000 -0.031496
v 1.703549 1.944952 7.983503
vt 0.626190 0.263672
vn 0.007874 0.992126 -0.165354
v 1.703549 -1.944702 7.983503
vt 0.626190 0.263672
vn 0.007874 -0.992126 -0.165354
v 1.014226 -2.921422 -7.696256
vt 0.628937 0.458252
vn 0.023622 -0.992126 -0.157480
v 1.728136 -1.975155 -9.426345
vt 0.613800 0.482758
vn 0.181102 -0.771654 -0.614173
v 5.213387 0.000000 -6.296336
vt 0.549011 0.432434
vn 1.000000 0.000000 -0.047244
v 4.512648 0.000000 -8.501870
vt 0.574982 0.470062
vn 0.629921 0.000000 -0.779528
v 1.014226 2.921422 -7.696256
vt 0.628937 0.458252
vn 0.023622 0.992126 -0.157480
v 1.728136 1.975155 -9.426345
vt 0.613800 0.482758
vn 0.181102 0.771654 -0.614173
v -2.566739 0.000000 -8.917884
vt 0.683319 0.472565
vn -0.937008 0.000000 -0.346457
v -0.813137 0.000000 -10.274881
vt 0.662201 0.498444
vn -0.055118 0.000000 -1.000000
v 1.495435 1.944952 14.368985
vt 0.637085 0.123169
vn 0.000000 0.669291 0.748031
v 4.193013 0.000000 14.378891
vt 0.587860 0.123169
vn 0.346457 0.000000 0.944882
v 1.534950 2.876492 12.579466
vt 0.633057 0.161224
vn 0.000000 0.992126 0.125984
v 5.655080 0.000000 12.619086
vt 0.565643 0.161224
vn 1.000000 0.000000 -0.007874
f 1/1/1 2/2/2 3/3/3
f 4/4/4 5/5/5 6/6/6
f 7/7/7 8/8/8 9/9/9
f 9/9/9 8/8/8 10/10/10
f 2/2/2 1/1/1 11/11/11
f 5/5/5 4/4/4 12/12/12
f 13/13/13 14/14/14 15/15/15
f 15/15/15 14/14/14 16/16/16
f 17/17/17 18/18/18 19/19/19
f 19/19/19 18/18/18 20/20/20
f 21/21/21 22/22/22 23/23/23
f 23/23/23 22/22/22 24/24/24
f 6/6/6 1/1/1 15/15/15
f 15/15/15 1/1/1 3/3/3
f 15/15/15 3/3/3 13/13/13
f 13/13/13 3/3/3 19/19/19
f 13/13/13 19/19/19 14/14/14
f 14/14/14 19/19/19 20/20/20
f 14/14/14 20/20/20 16/16/16
f 16/16/16 20/20/20 18/18/18
f 16/16/16 18/18/18 15/15/15
f 15/15/15 18/18/18 17/17/17
f 15/15/15 17/17/17 6/6/6
f 6/6/6 17/17/17 19/19/19
f 6/6/6 19/19/19 4/4/4
f 4/4/4 19/19/19 3/3/3
f 4/4/4 3/3/3 12/12/12
f 12/12/12 3/3/3 2/2/2
f 12/12/12 2/2/2 24/24/24
f 24/24/24 2/2/2 11/11/11
f 24/24/24 11/11/11 23/23/23
f 23/23/23 11/11/11 10/10/10
f 23/23/23 10/10/10 21/21/21
f 21/21/21 10/10/10 8/8/8
f 21/21/21 8/8/8 22/22/22
f 22/22/22 8/8/8 7/7/7
f 22/22/22 7/7/7 24/24/24
f 24/24/24 7/7/7 9/9/9
f 24/24/24 9/9/9 12/12/12
f 12/12/12 9/9/9 10/10/10
f 12/12/12 10/10/10 5/5/5
f 5/5/5 10/10/10 11/11/11
f 5/5/5 11/11/11 6/6/6
f 6/6/6 11/11/11 1/1/1
g mesh01
g mesh02
