mtllib 3726-0.mtl
g mesh00
usemtl texture00
v -4.744057 18.630320 -20.724156
vt 0.880493 0.514160
vn 0.755906 -0.629921 -0.196850
v -10.431596 18.340153 -21.364750
vt 0.912079 0.514160
vn -0.346457 -0.921260 0.173228
v -23.346040 17.705760 -35.940275
vt 0.912079 0.659668
vn -0.598425 -0.779528 -0.181102
v 8.725092 -2.493052 7.595998
vt 0.568420 0.686188
vn 0.055118 -1.000000 0.023622
v 11.623363 0.343431 8.308961
vt 0.554504 0.718323
vn 0.685039 -0.724409 0.078740
v 9.342776 0.703556 14.331617
vt 0.634460 0.748322
vn 0.362205 -0.897638 0.259843
v -6.948342 25.505294 -20.062120
vt 0.834991 0.474335
vn -0.322835 0.929134 -0.173228
v -10.734382 13.683169 -12.865487
vt 0.782227 0.445984
vn -0.874016 0.488189 -0.070866
v -7.326219 15.064047 -11.155450
vt 0.834991 0.445984
vn -0.149606 0.921260 0.362205
v 11.918883 2.733931 -4.636936
vt 0.851898 0.367798
vn 0.803150 0.031496 -0.590551
v 8.344792 9.810829 -10.887419
vt 0.922272 0.280212
vn 0.960630 0.086614 -0.275591
v 11.235797 7.642923 -4.870123
vt 0.826477 0.343536
vn 0.559055 0.464567 -0.685039
v -6.816327 1.912718 23.361581
vt 0.433380 0.063995
vn -0.968504 0.102362 0.244094
v -6.933808 1.724308 33.415423
vt 0.303467 0.062988
vn -0.984252 0.078740 -0.149606
v -0.862336 9.946770 18.113534
vt 0.517334 0.191101
vn -0.110236 0.960630 0.259843
v 7.782821 10.585933 -21.463922
vt 0.912079 0.514160
vn -0.433071 -0.803150 0.409449
v 11.783234 12.981998 -19.282149
vt 0.880493 0.515381
vn 0.755906 -0.488189 0.440945
v 6.584998 12.798358 -16.486586
vt 0.834991 0.474335
vn -0.543307 -0.535433 0.653543
v -10.431596 18.340153 -21.364750
vt 0.750702 0.514160
vn -0.346457 -0.921260 0.173228
v -7.851856 17.481576 -15.567240
vt 0.834991 0.474335
vn -0.188976 -0.842520 0.503937
v -12.786063 22.319815 -19.121331
vt 0.782227 0.514160
vn -0.755906 0.102362 0.653543
v 16.796166 9.059574 -4.460036
vt 0.834991 0.497162
vn -0.047244 0.889764 0.456693
v 20.496215 7.481542 -7.679088
vt 0.834991 0.515381
vn 0.763780 0.598425 -0.251969
v 16.643561 6.573677 -8.997800
vt 0.782227 0.515381
vn -0.685039 0.433071 -0.582677
v 19.404973 4.758741 -4.854041
vt 0.880493 0.514160
vn 0.401575 -0.354331 0.850394
v 16.460678 2.989914 -7.132305
vt 0.912079 0.514160
vn -0.763780 -0.574803 0.291339
v 18.392455 -3.638616 -13.717826
vt 0.912079 0.659668
vn 0.118110 -0.905512 -0.417323
v 19.404973 4.758741 -4.854041
vt 0.880493 0.515381
vn 0.401575 -0.354331 0.850394
v 14.954013 6.099075 -4.441273
vt 0.834991 0.474335
vn -0.842520 -0.165354 0.511811
v 8.084396 16.729527 -15.867435
vt 0.834991 0.497162
vn -0.015748 0.677165 0.740157
v 11.058969 17.425928 -21.504126
vt 0.834991 0.515381
vn 0.456693 0.834646 -0.322835
v 6.339135 15.427352 -21.908853
vt 0.782227 0.515381
vn -0.921260 0.393701 -0.047244
v 11.783234 12.981998 -19.282149
vt 0.880493 0.514160
vn 0.755906 -0.488189 0.440945
v 3.168357 4.250750 -33.013377
vt 0.912079 0.659668
vn 0.165354 -0.811024 -0.559055
v -12.786063 22.319815 -19.121331
vt 0.782227 0.515381
vn -0.755906 0.102362 0.653543
v -23.346040 17.705760 -35.940275
vt 0.750702 0.659668
vn -0.598425 -0.779528 -0.181102
v -23.346040 17.705760 -35.940275
vt 0.834991 0.659668
vn -0.598425 -0.779528 -0.181102
v -7.070667 26.049059 -20.415920
vt 0.834991 0.515381
vn 0.322835 0.944882 -0.015748
v -4.744057 18.630320 -20.724156
vt 0.880493 0.515381
vn 0.755906 -0.629921 -0.196850
v -5.442888 21.338812 -14.336978
vt 0.834991 0.497162
vn 0.417323 0.244094 0.874016
v 2.869204 -1.733053 12.160566
vt 0.634460 0.664734
vn -0.220472 -0.913386 -0.346457
v -4.007680 13.824675 -13.736588
vt 0.880493 0.445984
vn 0.488189 0.779528 -0.393701
v 3.740017 7.650078 -14.235126
vt 0.984375 0.184875
vn 0.496063 0.149606 -0.858268
v -8.576121 12.270492 -16.025573
vt 0.946899 0.092163
vn -0.157480 0.543307 -0.826772
v 2.199440 12.189405 -13.993898
vt 0.929413 0.180084
vn -0.086614 0.763780 -0.637795
v -4.007680 13.824675 -13.736588
vt 0.921143 0.123566
vn 0.488189 0.779528 -0.393701
v 9.342776 0.703556 14.331617
vt 0.541321 0.315979
vn 0.362205 -0.897638 0.259843
v 8.484074 0.245648 18.786292
vt 0.453735 0.301605
vn 0.566929 -0.818898 -0.086614
v 2.869204 -1.733053 12.160566
vt 0.584839 0.213257
vn -0.220472 -0.913386 -0.346457
v -0.243440 -1.671840 23.125714
vt 0.457611 0.206207
vn -0.204724 -0.984252 -0.055118
v -4.679866 0.293347 13.784834
vt 0.554810 0.128693
vn -0.409449 -0.787402 -0.456693
v 8.895864 -0.159791 -4.133038
vt 0.450531 0.627350
vn 0.448819 -0.826772 -0.354331
v 6.392426 -2.024810 -2.985865
vt 0.478241 0.594757
vn -0.314961 -0.952756 0.000000
v 1.647158 1.056526 -9.354282
vt 0.413391 0.594513
vn -0.118110 -0.929134 -0.354331
v -8.597922 12.284802 -15.993409
vt 0.751007 0.445984
vn -0.842520 -0.062992 -0.543307
v -8.576121 12.270492 -16.025573
vt 0.750702 0.445984
vn -0.157480 0.543307 -0.826772
v 5.362952 13.087730 -10.691756
vt 0.834991 0.445984
vn 0.354331 0.937008 0.062992
v 8.344792 9.810829 -10.887419
vt 0.880493 0.445984
vn 0.960630 0.086614 -0.275591
v 10.866397 17.030823 -21.131563
vt 0.834991 0.474335
vn 0.322835 0.732283 -0.606299
v -13.034348 11.501748 -10.514856
vt 0.931000 0.023987
vn -0.637795 0.771654 -0.047244
v -10.958444 10.727439 -1.857455
vt 0.769531 0.025604
vn -0.606299 0.748031 0.259843
v -7.326219 15.064047 -11.155450
vt 0.906708 0.096283
vn -0.149606 0.921260 0.362205
v 8.344792 9.810829 -10.887419
vt 0.834991 0.474335
vn 0.960630 0.086614 -0.275591
v 3.740017 7.650078 -14.235126
vt 0.880493 0.445984
vn 0.496063 0.149606 -0.858268
v 2.199440 12.189405 -13.993898
vt 0.782227 0.445984
vn -0.086614 0.763780 -0.637795
v 12.274959 8.155684 -1.769005
vt 0.834991 0.445984
vn 0.559055 0.826772 0.062992
v 14.492567 5.222213 0.072368
vt 0.880493 0.445984
vn 0.992126 0.149606 -0.015748
v 20.141349 7.258948 -7.545072
vt 0.834991 0.474335
vn 0.629921 0.685039 -0.370079
v 14.492567 5.222213 0.072368
vt 0.834991 0.474335
vn 0.992126 0.149606 -0.015748
v 11.918883 2.733931 -4.636936
vt 0.880493 0.445984
vn 0.803150 0.031496 -0.590551
v 11.235797 7.642923 -4.870123
vt 0.782227 0.445984
vn 0.559055 0.464567 -0.685039
v 3.740017 7.650078 -14.235126
vt 0.430786 0.451263
vn -0.314961 -0.929134 -0.204724
v 11.918883 2.733931 -4.636936
vt 0.371765 0.525146
vn -0.228346 -0.960630 -0.165354
v -8.576121 12.270492 -16.025573
vt 0.429443 0.375336
vn -0.141732 -0.984252 -0.125984
v -10.958444 10.727439 -1.857455
vt 0.313843 0.330902
vn -0.228346 -0.929134 -0.283465
v -13.034348 11.501748 -10.514856
vt 0.388672 0.332642
vn 0.047244 -1.000000 -0.094488
v 7.259606 6.087945 32.589888
vt 0.552032 0.955536
vn 0.433071 0.905512 0.000000
v 9.507492 2.863512 19.014118
vt 0.742249 0.921356
vn 0.881890 0.440945 0.181102
v 6.169575 5.553719 19.327715
vt 0.670593 0.989990
vn 0.566929 0.803150 0.181102
v 12.124777 3.327780 16.368652
vt 0.817322 0.904694
vn -0.086614 -0.330709 0.944882
v 11.673020 6.413886 11.565537
vt 0.908844 0.955841
vn 0.425197 0.858268 0.283465
v -10.734382 13.683169 -12.865487
vt 0.917938 0.074066
vn -0.874016 0.488189 -0.070866
v -8.597922 12.284802 -15.993409
vt 0.946594 0.091980
vn -0.842520 -0.062992 -0.543307
v 9.342776 0.703556 14.331617
vt 0.151001 0.498199
vn 0.362205 -0.897638 0.259843
v 2.686321 1.013598 14.749745
vt 0.183105 0.423676
vn -0.377953 -0.590551 -0.716535
v 13.527284 0.418159 12.774357
vt 0.196503 0.540436
vn -0.165354 -0.968504 0.212598
v 12.274959 8.155684 -1.769005
vt 0.770782 0.374573
vn 0.559055 0.826772 0.062992
v -0.593461 16.010071 -0.753167
vt 0.769684 0.176422
vn 0.133858 0.992126 0.031496
v 11.673020 6.413886 11.565537
vt 0.544067 0.383453
vn 0.425197 0.858268 0.283465
v 6.169575 5.553719 19.327715
vt 0.441010 0.322601
vn 0.566929 0.803150 0.181102
v 3.740017 7.650078 -14.235126
vt 0.945648 0.315918
vn 0.496063 0.149606 -0.858268
v 14.492567 5.222213 0.072368
vt 0.741058 0.398315
vn 0.992126 0.149606 -0.015748
v 20.120760 -0.132761 8.828941
vt 0.575104 0.576843
vn 0.968504 0.094488 -0.259843
v 11.918883 2.733931 -4.636936
vt 0.753967 0.417297
vn 0.803150 0.031496 -0.590551
v 18.654063 0.329916 15.275086
vt 0.488983 0.447083
vn 0.811024 -0.283465 0.519685
v 3.168357 4.250750 -33.013377
vt 0.750702 0.659668
vn 0.165354 -0.811024 -0.559055
v 7.782821 10.585933 -21.463922
vt 0.750702 0.514160
vn -0.433071 -0.803150 0.409449
v 6.339135 15.427352 -21.908853
vt 0.782227 0.514160
vn -0.921260 0.393701 -0.047244
v 3.168357 4.250750 -33.013377
vt 0.834991 0.659668
vn 0.165354 -0.811024 -0.559055
v 18.392455 -3.638616 -13.717826
vt 0.750702 0.659668
vn 0.118110 -0.905512 -0.417323
v 16.460678 2.989914 -7.132305
vt 0.750702 0.514160
vn -0.763780 -0.574803 0.291339
v 16.643561 6.573677 -8.997800
vt 0.782227 0.514160
vn -0.685039 0.433071 -0.582677
v 18.392455 -3.638616 -13.717826
vt 0.834991 0.659668
vn 0.118110 -0.905512 -0.417323
v -4.679866 0.293347 13.784834
vt 0.627441 0.725647
vn -0.409449 -0.787402 -0.456693
v 2.686321 1.013598 14.749745
vt 0.648285 0.653931
vn -0.377953 -0.590551 -0.716535
v 6.308857 0.767154 6.258524
vt 0.582245 0.654236
vn -0.881890 -0.346457 -0.322835
v 5.005664 0.681297 -2.152289
vt 0.498962 0.572296
vn -0.763780 -0.511811 0.393701
v 1.682281 0.866527 -5.274850
vt 0.479919 0.544342
vn -0.606299 -0.732283 0.314961
v 8.866796 -1.888074 32.362062
vt 0.301849 0.298004
vn 0.283465 -0.960630 -0.055118
v 3.967713 -2.642508 44.166146
vt 0.163574 0.257935
vn 0.133858 -0.992126 0.062992
v -8.272124 -2.263304 50.389826
vt 0.079132 0.087524
vn -0.535433 -0.826772 0.188976
v -5.392020 -1.345104 53.606198
vt 0.026093 0.125763
vn -0.173228 -0.937008 0.322835
v -7.792510 1.347488 53.914433
vt 0.027649 0.057800
vn -0.677165 0.181102 0.716535
v -4.679866 0.293347 13.784834
vt 0.162079 0.366608
vn -0.409449 -0.787402 -0.456693
v 20.120760 -0.132761 8.828941
vt 0.234619 0.661896
vn 0.968504 0.094488 -0.259843
v 18.654063 0.329916 15.275086
vt 0.165710 0.581024
vn 0.811024 -0.283465 0.519685
v -10.523643 1.370543 50.775791
vt 0.082031 0.035706
vn -0.968504 -0.039370 0.259843
v -6.933808 1.724308 33.415423
vt 0.303467 0.067230
vn -0.984252 -0.031496 -0.188976
v -6.816327 1.912718 23.361581
vt 0.453735 0.068237
vn -0.968504 0.102362 0.244094
v -10.283836 4.927276 13.559688
vt 0.548248 0.043549
vn -0.629921 -0.771654 -0.133858
v -10.958444 10.727439 -1.857455
vt 0.750702 0.021149
vn -0.228346 -0.929134 -0.283465
v -10.523643 1.370543 50.775791
vt 0.082031 0.031464
vn -0.968504 -0.039370 0.259843
v -8.330259 5.614138 50.601570
vt 0.078796 0.084381
vn -0.527559 0.787402 0.322835
v -6.933808 1.724308 33.415423
vt 0.303467 0.062988
vn -0.984252 -0.031496 -0.188976
v -1.578123 7.711291 42.769705
vt 0.180359 0.198883
vn -0.070866 0.992126 0.110236
v 7.259606 6.087945 32.589888
vt 0.306824 0.301575
vn 0.433071 0.905512 0.000000
v 11.235797 7.642923 -4.870123
vt 0.825745 0.343536
vn 0.559055 0.464567 -0.685039
v 8.344792 9.810829 -10.887419
vt 0.921539 0.280212
vn 0.960630 0.086614 -0.275591
v 5.362952 13.087730 -10.691756
vt 0.906342 0.222076
vn 0.354331 0.937008 0.062992
v 2.199440 12.189405 -13.993898
vt 0.929840 0.182343
vn -0.086614 0.763780 -0.637795
v -4.007680 13.824675 -13.736588
vt 0.921570 0.125824
vn 0.488189 0.779528 -0.393701
v -7.792510 1.347488 53.914433
vt 0.027649 0.053558
vn -0.677165 0.181102 0.716535
v -2.607596 4.602925 52.220478
vt 0.041809 0.154083
vn 0.015748 0.952756 0.307087
v 5.115879 5.975853 42.142512
vt 0.165802 0.262634
vn 0.244094 0.968504 0.125984
v -10.283836 4.927276 13.559688
vt 0.538544 0.027771
vn -0.559055 0.779528 0.283465
f 1/1/1 2/2/2 3/3/3
f 4/4/4 5/5/5 6/6/6
f 7/7/7 8/8/8 9/9/9
f 10/10/10 11/11/11 12/12/12
f 13/13/13 14/14/14 15/15/15
f 16/16/16 17/17/17 18/18/18
f 19/19/19 20/20/20 21/21/21
f 22/22/22 23/23/23 24/24/24
f 25/25/25 26/26/26 27/27/27
f 26/26/26 28/28/28 29/29/29
f 30/30/30 31/31/31 32/32/32
f 33/33/33 16/16/16 34/34/34
f 35/35/35 36/36/36 19/19/19
f 37/37/37 38/38/38 39/39/39
f 2/2/2 1/1/1 20/20/20
f 20/20/20 1/1/1 40/40/40
f 20/20/20 40/40/40 21/21/21
f 37/37/37 35/35/35 38/38/38
f 38/38/38 35/35/35 40/40/40
f 38/38/38 40/40/40 39/39/39
f 4/4/4 6/6/6 41/41/41
f 9/9/9 42/42/42 7/7/7
f 43/43/43 44/44/44 45/45/45
f 45/45/45 44/44/44 46/46/46
f 47/47/47 48/48/48 49/49/49
f 49/49/49 48/48/48 50/50/50
f 49/49/49 50/50/50 51/51/51
f 5/5/5 4/4/4 52/52/52
f 52/52/52 4/4/4 53/53/53
f 52/52/52 53/53/53 54/54/54
f 8/8/8 7/7/7 55/55/55
f 55/55/55 7/7/7 42/42/42
f 55/55/55 42/42/42 56/56/56
f 57/57/57 58/58/58 59/59/59
f 60/60/60 61/61/61 62/62/62
f 63/63/63 64/64/64 59/59/59
f 59/59/59 64/64/64 65/65/65
f 59/59/59 65/65/65 57/57/57
f 66/66/66 67/67/67 68/68/68
f 69/69/69 70/70/70 68/68/68
f 68/68/68 70/70/70 71/71/71
f 68/68/68 71/71/71 66/66/66
f 72/72/72 73/73/73 74/74/74
f 74/74/74 73/73/73 75/75/75
f 74/74/74 75/75/75 76/76/76
f 77/77/77 78/78/78 79/79/79
f 79/79/79 78/78/78 80/80/80
f 79/79/79 80/80/80 81/81/81
f 62/62/62 82/82/82 60/60/60
f 60/60/60 82/82/82 83/83/83
f 60/60/60 83/83/83 44/44/44
f 84/84/84 85/85/85 86/86/86
f 87/87/87 88/88/88 89/89/89
f 89/89/89 88/88/88 15/15/15
f 89/89/89 15/15/15 90/90/90
f 11/11/11 10/10/10 91/91/91
f 92/92/92 93/93/93 94/94/94
f 95/95/95 93/93/93 89/89/89
f 89/89/89 93/93/93 92/92/92
f 89/89/89 92/92/92 87/87/87
f 96/96/96 97/97/97 98/98/98
f 98/98/98 97/97/97 18/18/18
f 98/98/98 18/18/18 30/30/30
f 30/30/30 18/18/18 17/17/17
f 30/30/30 17/17/17 31/31/31
f 31/31/31 17/17/17 99/99/99
f 31/31/31 99/99/99 32/32/32
f 100/100/100 101/101/101 102/102/102
f 102/102/102 101/101/101 29/29/29
f 102/102/102 29/29/29 22/22/22
f 22/22/22 29/29/29 28/28/28
f 22/22/22 28/28/28 23/23/23
f 23/23/23 28/28/28 103/103/103
f 23/23/23 103/103/103 24/24/24
f 104/104/104 105/105/105 41/41/41
f 41/41/41 105/105/105 106/106/106
f 41/41/41 106/106/106 4/4/4
f 4/4/4 106/106/106 107/107/107
f 4/4/4 107/107/107 53/53/53
f 53/53/53 107/107/107 108/108/108
f 53/53/53 108/108/108 54/54/54
f 48/48/48 109/109/109 50/50/50
f 50/50/50 109/109/109 110/110/110
f 50/50/50 110/110/110 111/111/111
f 111/111/111 110/110/110 112/112/112
f 111/111/111 112/112/112 113/113/113
f 114/114/114 75/75/75 85/85/85
f 85/85/85 75/75/75 73/73/73
f 85/85/85 73/73/73 86/86/86
f 86/86/86 73/73/73 115/115/115
f 86/86/86 115/115/115 116/116/116
f 113/113/113 117/117/117 111/111/111
f 111/111/111 117/117/117 118/118/118
f 111/111/111 118/118/118 50/50/50
f 50/50/50 118/118/118 119/119/119
f 50/50/50 119/119/119 51/51/51
f 51/51/51 119/119/119 120/120/120
f 51/51/51 120/120/120 121/121/121
f 122/122/122 123/123/123 124/124/124
f 124/124/124 123/123/123 125/125/125
f 124/124/124 125/125/125 15/15/15
f 15/15/15 125/125/125 126/126/126
f 15/15/15 126/126/126 90/90/90
f 127/127/127 128/128/128 87/87/87
f 87/87/87 128/128/128 129/129/129
f 87/87/87 129/129/129 88/88/88
f 88/88/88 129/129/129 130/130/130
f 88/88/88 130/130/130 131/131/131
f 122/122/122 132/132/132 123/123/123
f 123/123/123 132/132/132 133/133/133
f 123/123/123 133/133/133 125/125/125
f 125/125/125 133/133/133 134/134/134
f 125/125/125 134/134/134 126/126/126
f 131/131/131 62/62/62 88/88/88
f 88/88/88 62/62/62 61/61/61
f 88/88/88 61/61/61 15/15/15
f 15/15/15 61/61/61 135/135/135
f 15/15/15 135/135/135 13/13/13
usemtl texture00
v -10.958444 10.727439 -1.857455
vt 0.913818 0.802246
vn -0.606299 0.748031 0.259843
v -19.945144 7.367065 -17.574792
vt 0.670593 0.681519
vn -0.629921 0.755906 0.173228
v -17.134075 6.886898 -7.563835
vt 0.913818 0.681519
vn -0.692913 0.661417 0.299213
v -10.283836 4.927276 13.559688
vt 0.913818 0.802246
vn -0.559055 0.779528 0.283465
v -16.914858 3.042383 9.166660
vt 0.913818 0.681519
vn -0.409449 0.881890 0.244094
v -6.816327 1.912718 23.361581
vt 0.670593 0.681519
vn -0.968504 0.102362 0.244094
v 11.918883 2.733931 -4.636936
vt 0.670593 0.802246
vn 0.803150 0.031496 -0.590551
v 10.870031 -0.393514 -13.350624
vt 0.670593 0.681519
vn 0.692913 0.574803 -0.433071
v 3.740017 7.650078 -14.235126
vt 0.913818 0.802246
vn 0.496063 0.149606 -0.858268
v -4.188141 5.649912 -22.667381
vt 0.913818 0.681519
vn 0.228346 0.653543 -0.724409
v -8.576121 12.270492 -16.025573
vt 0.670349 0.802246
vn 0.000000 0.748031 -0.669291
v -19.945144 7.367065 -17.574792
vt 0.913818 0.681519
vn -0.629921 0.755906 0.173228
v -13.034348 11.501748 -10.514856
vt 0.913818 0.802246
vn -0.637795 0.771654 -0.047244
v -19.500653 8.023718 -21.134243
vt 0.796539 0.681519
vn -0.244094 0.889764 -0.393701
v -8.576121 12.270492 -16.025573
vt 0.670593 0.802246
vn 0.000000 0.748031 -0.669291
v -10.644758 7.762170 -18.352082
vt 0.670593 0.681519
vn -0.015748 0.464567 -0.889764
v -13.034348 11.501748 -10.514856
vt 0.670593 0.802246
vn -0.637795 0.771654 -0.047244
v -14.002053 4.106859 7.587957
vt 0.854614 0.681519
vn -0.433071 0.889764 0.141732
v 20.120760 -0.132761 8.828941
vt 0.670593 0.681519
vn 0.968504 0.094488 -0.259843
v 10.870031 -0.393514 -13.350624
vt 0.913818 0.681519
vn 0.692913 0.574803 -0.433071
v 11.918883 2.733931 -4.636936
vt 0.913818 0.802246
vn 0.803150 0.031496 -0.590551
v -14.002053 4.106859 7.587957
vt 0.914612 0.681519
vn -0.433071 0.889764 0.141732
v -10.283836 4.927276 13.559688
vt 0.914612 0.802246
vn -0.559055 0.779528 0.283465
v -13.213597 6.739032 -0.005361
vt 0.749146 0.681519
vn -0.692913 0.661417 0.283465
v -10.958444 10.727439 -1.857455
vt 0.668427 0.802246
vn -0.606299 0.748031 0.259843
v -17.134075 6.886898 -7.563835
vt 0.668427 0.681519
vn -0.692913 0.661417 0.299213
f 136/136/136 137/137/137 138/138/138
f 139/139/139 140/140/140 141/141/141
f 142/142/142 143/143/143 144/144/144
f 144/144/144 143/143/143 145/145/145
f 144/144/144 145/145/145 146/146/146
f 147/147/147 148/148/148 149/149/149
f 149/149/149 148/148/148 150/150/150
f 149/149/149 150/150/150 151/151/151
f 151/151/151 150/150/150 145/145/145
f 137/137/137 136/136/136 152/152/152
f 140/140/140 139/139/139 153/153/153
f 154/154/154 155/155/155 156/156/156
f 157/157/157 158/158/158 159/159/159
f 159/159/159 158/158/158 160/160/160
f 159/159/159 160/160/160 161/161/161
usemtl texture00
v 1.466697 0.910250 9.844778
vt 0.692261 0.552734
vn 0.921260 0.346457 -0.173228
v 2.653620 -2.248994 21.069916
vt 0.678772 0.665253
vn 0.850394 -0.015748 0.535433
v 2.653620 -2.248994 12.227574
vt 0.678772 0.581879
vn 0.590551 -0.732283 -0.346457
v 0.161082 0.926945 21.069916
vt 0.704742 0.665253
vn 0.000000 0.724409 0.692913
v -1.143321 0.910250 9.844778
vt 0.708740 0.552734
vn -0.921260 0.346457 -0.173228
v -2.330244 -2.248994 21.069916
vt 0.727448 0.665253
vn -0.850394 -0.015748 0.535433
v -2.330244 -2.248994 12.227574
vt 0.727448 0.581879
vn -0.590551 -0.732283 -0.346457
v 1.466697 0.910250 9.844778
vt 0.678772 0.552734
vn 0.921260 0.346457 -0.173228
v 0.161082 -1.748158 9.844778
vt 0.703125 0.552734
vn 0.000000 -0.834646 -0.551181
v 2.653620 -2.248994 21.069916
vt 0.678772 0.664551
vn 0.850394 -0.015748 0.535433
v -2.330244 -2.248994 21.069916
vt 0.727448 0.664551
vn -0.850394 -0.015748 0.535433
v -1.143321 0.910250 9.844778
vt 0.727448 0.552734
vn -0.921260 0.346457 -0.173228
v 2.653620 -2.248994 21.069916
vt 0.727844 0.586639
vn 0.850394 -0.015748 0.535433
v 0.161082 0.926945 21.069916
vt 0.703796 0.548523
vn 0.000000 0.724409 0.692913
v -2.330244 -2.248994 21.069916
vt 0.679718 0.586639
vn -0.850394 -0.015748 0.535433
v -1.119098 1.164643 -9.713443
vt 0.988312 0.989990
vn -0.622047 0.417323 -0.661417
v 1.442474 1.194058 -9.713443
vt 0.932922 0.989990
vn 0.614173 0.385827 -0.685039
v 0.025434 -1.715563 -9.713443
vt 0.960449 0.958435
vn -0.015748 -0.629921 -0.779528
v 0.161082 -1.748158 9.844778
vt 0.960449 0.462738
vn 0.000000 -0.834646 -0.551181
v 1.442474 1.194058 -9.713443
vt 0.932922 0.989990
vn 0.614173 0.385827 -0.685039
v 1.466697 0.910250 9.844778
vt 0.932922 0.462738
vn 0.921260 0.346457 -0.173228
v -1.143321 0.910250 9.844778
vt 0.988129 0.462738
vn -0.921260 0.346457 -0.173228
v 0.025434 -1.715563 -9.713443
vt 0.960449 0.989990
vn -0.015748 -0.629921 -0.779528
f 162/162/162 163/163/163 164/164/164
f 165/165/165 166/166/166 167/167/167
f 167/167/167 166/166/166 168/168/168
f 169/169/169 164/164/164 170/170/170
f 171/171/171 172/172/172 168/168/168
f 173/173/173 170/170/170 168/168/168
f 168/168/168 170/170/170 164/164/164
f 168/168/168 164/164/164 171/171/171
f 174/174/174 175/175/175 176/176/176
f 163/163/163 162/162/162 165/165/165
f 177/177/177 178/178/178 179/179/179
f 180/180/180 181/181/181 182/182/182
f 182/182/182 181/181/181 177/177/177
f 182/182/182 177/177/177 183/183/183
f 183/183/183 177/177/177 184/184/184
f 183/183/183 184/184/184 180/180/180
f 180/180/180 184/184/184 181/181/181
usemtl texture00
v 16.076745 1.958032 35.026290
vt 0.565582 0.766846
vn 0.960630 -0.078740 -0.275591
v 8.866796 -1.888074 32.362062
vt 0.552032 0.955536
vn 0.283465 -0.960630 -0.055118
v 8.484074 0.245648 18.786292
vt 0.660522 0.975952
vn 0.566929 -0.818898 -0.086614
v 9.446935 6.048196 66.385915
vt 0.098450 0.688324
vn 0.086614 1.000000 0.023622
v 15.258011 2.163931 61.344252
vt 0.172821 0.649139
vn 0.968504 0.102362 -0.244094
v 15.411826 1.554183 54.927591
vt 0.286377 0.726776
vn 0.984252 0.078740 0.165354
v 4.277766 1.140794 69.540640
vt 0.009979 0.690643
vn -0.629921 -0.039370 0.779528
v 39.685604 0.955564 87.825714
vt 0.009979 0.230164
vn -0.133858 -0.094488 0.992126
v -5.392020 -1.345104 53.606198
vt 0.113739 0.969330
vn -0.173228 -0.937008 0.322835
v 9.720654 -3.105981 66.420759
vt 0.098450 0.688324
vn 0.188976 -0.984252 -0.039370
v -7.792510 1.347488 53.914433
vt 0.009979 0.982025
vn -0.677165 0.181102 0.716535
v 18.098147 1.279915 65.780165
vt 0.147095 0.594879
vn 0.755906 0.023622 -0.661417
v 36.409456 0.814853 81.875426
vt 0.116150 0.314453
vn 0.740157 -0.015748 -0.677165
v 14.278194 3.074182 19.719040
vt 0.836731 0.845612
vn -0.535433 -0.141732 0.834646
v 11.673020 6.413886 11.565537
vt 0.908844 0.955841
vn 0.425197 0.858268 0.283465
v 12.124777 3.327780 16.368652
vt 0.817322 0.904694
vn -0.086614 -0.330709 0.944882
v 3.967713 -2.642508 44.166146
vt 0.386627 0.953430
vn 0.133858 -0.992126 0.062992
v 17.400527 1.737028 44.343047
vt 0.452026 0.727478
vn 0.944882 -0.007874 -0.330709
v 21.193835 1.668660 51.215361
vt 0.330292 0.590302
vn 1.000000 -0.015748 0.078740
v 13.527284 0.418159 12.774357
vt 0.908844 0.955841
vn -0.165354 -0.968504 0.212598
v 18.654063 0.329916 15.275086
vt 0.914490 0.880768
vn 0.811024 -0.283465 0.519685
v -2.607596 4.602925 52.220478
vt 0.182617 0.964264
vn 0.015748 0.952756 0.307087
v 5.115879 5.975853 42.142512
vt 0.386627 0.953430
vn 0.244094 0.968504 0.125984
v 7.259606 6.087945 32.589888
vt 0.552032 0.955536
vn 0.433071 0.905512 0.000000
v 9.507492 2.863512 19.014118
vt 0.742249 0.921356
vn 0.881890 0.440945 0.181102
v 9.342776 0.703556 14.331617
vt 0.849609 0.989990
vn 0.362205 -0.897638 0.259843
f 185/185/185 186/186/186 187/187/187
f 188/188/188 189/189/189 190/190/190
f 191/191/191 192/192/192 188/188/188
f 193/193/193 194/194/194 195/195/195
f 196/196/196 197/197/197 194/194/194
f 198/198/198 199/199/199 200/200/200
f 186/186/186 185/185/185 201/201/201
f 201/201/201 185/185/185 202/202/202
f 201/201/201 202/202/202 203/203/203
f 200/200/200 204/204/204 198/198/198
f 198/198/198 204/204/204 205/205/205
f 198/198/198 205/205/205 199/199/199
f 193/193/193 190/190/190 194/194/194
f 194/194/194 190/190/190 189/189/189
f 194/194/194 189/189/189 196/196/196
f 196/196/196 189/189/189 188/188/188
f 196/196/196 188/188/188 197/197/197
f 197/197/197 188/188/188 192/192/192
f 197/197/197 192/192/192 194/194/194
f 194/194/194 192/192/192 191/191/191
f 194/194/194 191/191/191 195/195/195
f 195/195/195 191/191/191 188/188/188
f 195/195/195 188/188/188 206/206/206
f 206/206/206 188/188/188 190/190/190
f 206/206/206 190/190/190 207/207/207
f 193/193/193 201/201/201 190/190/190
f 190/190/190 201/201/201 203/203/203
f 190/190/190 203/203/203 207/207/207
f 207/207/207 203/203/203 202/202/202
f 207/207/207 202/202/202 208/208/208
f 208/208/208 202/202/202 185/185/185
f 208/208/208 185/185/185 209/209/209
f 209/209/209 185/185/185 187/187/187
f 209/209/209 187/187/187 200/200/200
f 200/200/200 187/187/187 210/210/210
f 200/200/200 210/210/210 204/204/204
g mesh01
