mtllib 2402-0.mtl
g mesh00
usemtl texture00
v -6.849403 44.705367 4.200054
vt 0.867188 0.781250
vn -0.929134 0.157480 0.330709
v -6.264172 47.471625 3.363271
vt 0.798157 0.676422
vn -0.858268 0.448819 0.251969
v -7.594558 45.106412 0.218921
vt 0.730469 0.769531
vn -0.992126 0.102362 0.078740
v 0.000000 49.579475 -8.445631
vt 0.808594 0.253906
vn 0.000000 0.755906 -0.653543
v 0.000000 51.265755 -5.136572
vt 0.652344 0.253906
vn 0.000000 0.960630 -0.291339
v 1.881083 48.927383 -8.251954
vt 0.808594 0.058594
vn 0.472441 0.645669 -0.598425
v -4.659828 36.163443 -6.641292
vt 0.879883 0.211914
vn -0.787402 -0.283465 -0.551181
v -2.964629 33.562972 -7.589811
vt 0.968750 0.280273
vn -0.677165 -0.440945 -0.598425
v -4.385407 34.497689 -6.693022
vt 0.945312 0.199219
vn -0.818898 -0.118110 -0.566929
v 5.399653 46.109022 6.033776
vt 0.985260 0.745422
vn 0.834646 0.322835 0.456693
v 5.779531 47.151105 4.637068
vt 0.876282 0.681641
vn 0.818898 0.385827 0.433071
v 4.588673 47.170052 6.572594
vt 0.987885 0.671875
vn 0.771654 0.409449 0.488189
v 0.000000 49.579475 -8.445631
vt 0.142334 0.518219
vn 0.000000 0.755906 -0.653543
v 0.000000 45.976393 -11.030470
vt 0.362305 0.518066
vn 0.000000 0.425197 -0.905512
v -1.881083 48.927383 -8.251954
vt 0.142334 0.326813
vn -0.480315 0.645669 -0.598425
v 0.000000 51.736271 -1.049082
vt 0.503906 0.253906
vn 0.000000 1.000000 0.031496
v -2.513596 50.907341 2.951501
vt 0.355469 0.058594
vn -0.409449 0.889764 0.212598
v 0.000000 51.152073 3.445211
vt 0.355469 0.253906
vn 0.000000 0.968504 0.251969
v -7.042935 45.196410 -5.459367
vt 0.468750 0.773438
vn -0.921260 0.188976 -0.354331
v -7.506716 40.723347 -3.325612
vt 0.593750 0.859375
vn -1.000000 -0.110236 0.000000
v -5.537095 36.172917 -2.960606
vt 0.476562 0.968750
vn -0.889764 -0.377953 -0.251969
v -4.659828 36.163443 -6.641292
vt 0.296875 0.953125
vn -0.787402 -0.283465 -0.551181
v -4.385407 34.497689 -6.693022
vt 0.281250 0.984375
vn -0.818898 -0.118110 -0.566929
v -4.120489 47.564780 -8.236228
vt 0.250000 0.632812
vn -0.535433 0.559055 -0.637795
v -2.475121 48.628968 -7.855496
vt 0.179688 0.585938
vn -0.464567 0.692913 -0.559055
v -1.627985 45.431668 -10.383226
vt 0.148438 0.734375
vn -0.401575 0.362205 -0.842520
v -4.510102 49.399478 -4.586166
vt 0.398438 0.578125
vn -0.472441 0.842520 -0.251969
v -2.740966 50.296301 -3.815184
vt 0.351562 0.539062
vn -0.566929 0.787402 -0.244094
v 1.341280 33.621392 -9.747983
vt 0.031250 0.390625
vn 0.929134 0.244094 -0.291339
v 1.520441 28.327294 -12.685827
vt 0.011047 0.742188
vn 0.118110 0.496063 -0.866142
v 0.765551 33.853492 -10.173409
vt 0.011047 0.375000
vn -0.338583 0.346457 -0.874016
v -4.955573 48.234240 5.044700
vt 0.902344 0.628906
vn -0.716535 0.559055 0.425197
v -4.635028 47.170052 6.572594
vt 0.987885 0.671875
vn -0.787402 0.409449 0.472441
v -3.861133 47.828459 7.151555
vt 0.987885 0.601562
vn -0.488189 0.740157 0.472441
v -4.642213 48.996855 4.079213
vt 0.855469 0.589844
vn -0.582677 0.755906 0.307087
v -5.779531 47.151105 4.637068
vt 0.876282 0.681641
vn -0.818898 0.385827 0.425197
v -5.399653 46.109022 6.033776
vt 0.985260 0.745422
vn -0.834646 0.314961 0.448819
v -1.881083 48.927383 -8.251954
vt 0.808594 0.058594
vn -0.480315 0.645669 -0.598425
v -7.013268 41.252283 -0.070353
vt 0.734375 0.875000
vn -0.984252 -0.125984 0.149606
v -6.798644 38.432343 2.023674
vt 0.789062 0.968750
vn -0.992126 0.015748 0.125984
v -6.609516 41.275966 3.040891
vt 0.836578 0.886047
vn -0.992126 -0.086614 0.141732
v -7.088363 40.353881 -5.821476
vt 0.445312 0.867188
vn -0.897638 -0.212598 -0.385827
v -3.919772 40.507035 -10.052982
vt 0.257812 0.843750
vn -0.645669 -0.196850 -0.732283
v -2.546508 37.270262 -9.354421
vt 0.164062 0.921875
vn -0.551181 -0.244094 -0.795276
v -6.529554 42.480678 4.438426
vt 0.915771 0.877594
vn -0.976378 -0.118110 0.212598
v -5.954985 43.775387 6.645844
vt 0.980927 0.812500
vn -0.921260 0.102362 0.377953
v 0.000000 46.131127 9.293173
vt 0.010559 0.254028
vn 0.000000 0.291339 0.960630
v 0.000000 47.308996 8.931064
vt 0.058594 0.253906
vn 0.000000 0.385827 0.921260
v -1.668545 46.525855 8.616132
vt 0.023438 0.156250
vn -0.322835 0.330709 0.889764
v -2.559023 47.192157 7.963922
vt 0.078125 0.117188
vn -0.417323 0.244094 0.881890
v -2.546508 37.270262 -9.354421
vt 0.808350 0.327637
vn -0.551181 -0.244094 -0.795276
v 0.000000 48.632126 7.860462
vt 0.121094 0.253906
vn 0.000000 0.700787 0.716535
v 0.000000 50.010518 6.258077
vt 0.222656 0.253906
vn 0.000000 0.866142 0.496063
v -2.386351 48.365290 7.817836
vt 0.128204 0.092194
vn -0.354331 0.559055 0.748031
v -2.441977 49.764207 5.768091
vt 0.222656 0.058594
vn -0.566929 0.716535 0.401575
v -2.996846 47.795302 7.547186
vt 0.116730 0.062866
vn -0.606299 0.566929 0.559055
v 6.609516 41.275966 3.040891
vt 0.836578 0.886047
vn 0.992126 -0.086614 0.141732
v 6.798644 38.432343 2.023674
vt 0.789062 0.968750
vn 0.992126 0.015748 0.125984
v 7.013268 41.252283 -0.070353
vt 0.734375 0.875000
vn 0.984252 -0.125984 0.149606
v 6.849403 44.705367 4.200054
vt 0.867188 0.781250
vn 0.929134 0.157480 0.330709
v 5.954985 43.775387 6.645844
vt 0.980927 0.812500
vn 0.921260 0.102362 0.377953
v 6.529554 42.480678 4.438426
vt 0.915771 0.877594
vn 0.976378 -0.118110 0.212598
v 7.088363 40.353881 -5.821476
vt 0.445312 0.867188
vn 0.897638 -0.212598 -0.385827
v 4.659828 36.163443 -6.641292
vt 0.296875 0.953125
vn 0.787402 -0.283465 -0.551181
v 3.919772 40.507035 -10.052982
vt 0.257812 0.843750
vn 0.645669 -0.196850 -0.732283
v 2.546508 37.270262 -9.354421
vt 0.164062 0.921875
vn 0.551181 -0.244094 -0.795276
v 2.475121 48.628968 -7.855496
vt 0.808594 0.011719
vn 0.464567 0.692913 -0.559055
v 2.127691 50.915236 -4.086662
vt 0.652344 0.058594
vn 0.535433 0.803150 -0.259843
v 2.740966 50.296301 -3.815184
vt 0.652344 0.011719
vn 0.559055 0.795276 -0.244094
v 2.374531 51.298912 -1.100398
vt 0.503906 0.058594
vn 0.472441 0.881890 -0.055118
v 2.753482 50.676820 -1.052807
vt 0.503906 0.011719
vn 0.598425 0.803150 -0.047244
v 2.513596 50.915236 2.951501
vt 0.355469 0.058594
vn 0.409449 0.889764 0.212598
v 1.881083 48.927383 -8.251954
vt 0.142334 0.326813
vn 0.472441 0.645669 -0.598425
v 2.546508 37.270262 -9.354421
vt 0.808350 0.327637
vn 0.551181 -0.244094 -0.795276
v 4.659828 36.163443 -6.641292
vt 0.879883 0.211914
vn 0.787402 -0.283465 -0.551181
v 2.964629 33.562972 -7.589811
vt 0.968750 0.280273
vn 0.677165 -0.440945 -0.598425
v 4.385407 34.497689 -6.693022
vt 0.945312 0.199219
vn 0.818898 -0.118110 -0.566929
v 1.827774 40.770714 -11.243597
vt 0.572266 0.327454
vn 0.370079 -0.110236 -0.929134
v 1.627985 45.431668 -10.383226
vt 0.362305 0.326660
vn 0.401575 0.362205 -0.842520
v 2.475121 48.628968 -7.855496
vt 0.142792 0.276031
vn 0.464567 0.692913 -0.559055
v 1.710960 26.975744 -12.120523
vt 0.117188 0.859375
vn 0.055118 -0.401575 0.913386
v 2.012267 24.837894 -13.560683
vt 0.062500 0.960938
vn 0.125984 -0.992126 -0.086614
v 2.355525 26.948902 -12.814531
vt 0.062500 0.859375
vn 1.000000 0.055118 0.023622
v -1.710960 26.975744 -12.120523
vt 0.117188 0.859375
vn -0.055118 -0.401575 0.913386
v -2.012267 24.837894 -13.560269
vt 0.062500 0.960938
vn -0.125984 -0.992126 -0.086614
v -1.106260 26.773643 -12.814531
vt 0.062500 0.859375
vn 0.976378 -0.220472 0.023622
v -1.520441 28.327294 -12.685827
vt 0.117188 0.742188
vn -0.118110 0.496063 -0.866142
v -0.765551 33.853492 -10.173409
vt 0.117188 0.375000
vn 0.338583 0.346457 -0.874016
v -1.113445 28.153613 -12.281092
vt 0.093750 0.742188
vn 0.968504 0.062992 -0.267717
v -0.242668 33.562972 -9.747983
vt 0.093750 0.390625
vn 0.992126 -0.133858 -0.047244
v -0.817237 33.231400 -9.328763
vt 0.062500 0.406250
vn -0.354331 -0.370079 0.858268
v -3.018401 49.483161 4.774877
vt 0.230469 0.011719
vn -0.543307 0.755906 0.370079
v -2.926386 50.383142 2.460688
vt 0.355469 0.011719
vn -0.590551 0.787402 0.181102
v -2.374531 51.298912 -1.100398
vt 0.503906 0.058594
vn -0.472441 0.881890 -0.055118
v -2.753482 50.676820 -1.052807
vt 0.503906 0.011719
vn -0.598425 0.803150 -0.039370
v -2.127691 50.937340 -4.086662
vt 0.652344 0.058594
vn -0.535433 0.803150 -0.259843
v -2.740966 50.296301 -3.815184
vt 0.652344 0.011719
vn -0.566929 0.787402 -0.244094
v -2.475121 48.628968 -7.855496
vt 0.808594 0.011719
vn -0.464567 0.692913 -0.559055
v -3.976557 44.845891 -9.631694
vt 0.257812 0.734375
vn -0.622047 0.173228 -0.763780
v -1.827774 40.770714 -11.243597
vt 0.148438 0.835938
vn -0.370079 -0.110236 -0.929134
v -6.957873 38.462342 -3.035511
vt 0.550781 0.950317
vn -0.944882 -0.330709 -0.086614
v -6.005048 48.120558 -4.902753
vt 0.429688 0.640625
vn -0.787402 0.590551 -0.196850
v -4.581488 49.784733 1.565554
vt 0.718750 0.593750
vn -0.574803 0.818898 0.055118
v -6.236591 48.237398 0.670420
vt 0.703125 0.648438
vn -0.811024 0.590551 0.078740
v 0.000000 32.514573 -10.373707
vt 0.975586 0.517578
vn 0.000000 -0.976378 -0.236220
v 0.000000 33.608761 -10.951427
vt 0.942383 0.517578
vn 0.000000 -0.165354 -0.992126
v 0.000000 37.027109 -10.281421
vt 0.809265 0.517914
vn 0.000000 -0.188976 -0.984252
v -1.827774 40.770714 -11.243597
vt 0.572266 0.327454
vn -0.370079 -0.110236 -0.929134
v 0.000000 41.432279 -11.765449
vt 0.572540 0.517853
vn 0.000000 -0.078740 -1.000000
v -1.627985 45.431668 -10.383226
vt 0.362305 0.326660
vn -0.401575 0.362205 -0.842520
v 7.594558 45.106412 0.218921
vt 0.730469 0.769531
vn 0.992126 0.102362 0.078740
v 6.264172 47.471625 3.363271
vt 0.798157 0.676422
vn 0.858268 0.448819 0.251969
v 4.955573 48.234240 5.044700
vt 0.902344 0.628906
vn 0.708661 0.559055 0.440945
v -2.753482 50.676820 -1.052807
vt 0.554688 0.539062
vn -0.598425 0.803150 -0.039370
v -2.926386 50.383142 2.460688
vt 0.773438 0.539062
vn -0.590551 0.787402 0.181102
v -3.018401 49.483161 4.774877
vt 0.859375 0.539062
vn -0.543307 0.755906 0.370079
v -2.996846 47.795302 7.547186
vt 0.984375 0.539062
vn -0.606299 0.566929 0.559055
v 1.668777 46.525855 8.616132
vt 0.023438 0.156250
vn 0.322835 0.330709 0.889764
v 2.559023 47.192157 7.963922
vt 0.078125 0.117188
vn 0.417323 0.244094 0.881890
v 2.386351 48.365290 7.817836
vt 0.128204 0.092194
vn 0.354331 0.559055 0.748031
v 2.996846 47.795302 7.547186
vt 0.116730 0.062866
vn 0.614173 0.566929 0.559055
v 2.441977 49.764207 5.768091
vt 0.222656 0.058594
vn 0.566929 0.716535 0.401575
v 3.018401 49.483161 4.774877
vt 0.230469 0.011719
vn 0.551181 0.748031 0.370079
v 2.926386 50.383142 2.460688
vt 0.355469 0.011719
vn 0.590551 0.787402 0.181102
v 2.996846 47.795302 7.547186
vt 0.984375 0.539062
vn 0.614173 0.566929 0.559055
v 3.785343 47.828459 7.151555
vt 0.987885 0.601562
vn 0.488189 0.732283 0.480315
v 3.018401 49.483161 4.774877
vt 0.859375 0.539062
vn 0.551181 0.748031 0.370079
v 4.642213 48.996855 4.079213
vt 0.855469 0.589844
vn 0.582677 0.755906 0.307087
v 2.926386 50.383142 2.460688
vt 0.773438 0.539062
vn 0.590551 0.787402 0.181102
v 4.581488 49.784733 1.565554
vt 0.718750 0.593750
vn 0.574803 0.818898 0.055118
v 2.753482 50.676820 -1.052807
vt 0.554688 0.539062
vn 0.598425 0.803150 -0.047244
v 4.510102 49.399478 -4.586166
vt 0.398438 0.578125
vn 0.472441 0.842520 -0.251969
v 2.740966 50.296301 -3.815184
vt 0.351562 0.539062
vn 0.559055 0.795276 -0.244094
v 2.475121 48.628968 -7.855496
vt 0.179688 0.585938
vn 0.464567 0.692913 -0.559055
v 7.506716 40.723347 -3.325612
vt 0.593750 0.859375
vn 1.000000 -0.110236 0.000000
v 7.042935 45.196410 -5.459367
vt 0.468750 0.773438
vn 0.921260 0.188976 -0.354331
v 3.976557 44.845891 -9.631694
vt 0.257812 0.734375
vn 0.622047 0.173228 -0.763780
v 1.827774 40.770714 -11.243597
vt 0.148438 0.835938
vn 0.370079 -0.110236 -0.929134
v 6.957873 38.462342 -3.035511
vt 0.550781 0.950317
vn 0.944882 -0.330709 -0.086614
v 5.537095 36.172917 -2.960606
vt 0.476562 0.968750
vn 0.889764 -0.377953 -0.251969
v 4.385407 34.497689 -6.693022
vt 0.281250 0.984375
vn 0.818898 -0.118110 -0.566929
v 6.236591 48.237398 0.670420
vt 0.703125 0.648438
vn 0.811024 0.590551 0.078740
v 6.005048 48.120558 -4.902753
vt 0.429688 0.640625
vn 0.787402 0.590551 -0.196850
v 4.120489 47.564780 -8.236228
vt 0.250000 0.632812
vn 0.535433 0.559055 -0.637795
v 1.627985 45.431668 -10.383226
vt 0.148438 0.734375
vn 0.401575 0.362205 -0.842520
v 1.955714 28.272032 -12.281092
vt 0.031250 0.742188
vn 0.984252 0.196850 0.039370
v 0.817237 33.231400 -9.328763
vt 0.062500 0.406250
vn 0.354331 -0.370079 0.858268
v 1.545241 28.153613 -11.822559
vt 0.062500 0.742188
vn 0.039370 -0.330709 0.944882
v 0.242668 33.562972 -9.747983
vt 0.093750 0.390625
vn -0.992126 -0.133858 -0.047244
v 1.113445 28.153613 -12.281092
vt 0.093750 0.742188
vn -0.968504 0.062992 -0.267717
v 0.765551 33.853492 -10.173409
vt 0.117188 0.375000
vn -0.338583 0.346457 -0.874016
v 1.520441 28.327294 -12.685827
vt 0.117188 0.742188
vn 0.118110 0.496063 -0.866142
v -0.765551 33.853492 -10.173409
vt 0.011047 0.375000
vn 0.338583 0.346457 -0.874016
v -1.520441 28.327294 -12.685827
vt 0.011047 0.742188
vn -0.118110 0.496063 -0.866142
v -1.341280 33.621392 -9.747983
vt 0.031250 0.390625
vn -0.929134 0.244094 -0.291339
v -1.955714 28.272032 -12.281092
vt 0.031250 0.742188
vn -0.984252 0.196850 0.039370
v -1.545241 28.153613 -11.822559
vt 0.062500 0.742188
vn -0.039370 -0.330709 0.944882
v -2.475121 48.628968 -7.855496
vt 0.142792 0.276031
vn -0.464567 0.692913 -0.559055
v 0.000000 33.079825 -8.689796
vt 0.986755 0.414062
vn 0.000000 -0.952756 0.314961
v 1.106260 26.773643 -12.814531
vt 0.062500 0.859375
vn -0.976378 -0.220472 0.023622
v 1.674108 27.237843 -13.475846
vt 0.011047 0.859375
vn -0.055118 0.385827 -0.921260
v 1.955714 28.272032 -12.281092
vt 0.062500 0.742188
vn 0.984252 0.196850 0.039370
v 1.545241 28.153613 -11.822559
vt 0.117188 0.742188
vn 0.039370 -0.330709 0.944882
v 1.113445 28.153613 -12.281092
vt 0.062500 0.742188
vn -0.968504 0.062992 -0.267717
v -2.355525 26.948902 -12.814531
vt 0.062500 0.859375
vn -1.000000 0.055118 0.023622
v -1.674108 27.237843 -13.475846
vt 0.011047 0.859375
vn 0.055118 0.385827 -0.921260
v -1.113445 28.153613 -12.281092
vt 0.062500 0.742188
vn 0.968504 0.062992 -0.267717
v -1.545241 28.153613 -11.822559
vt 0.117188 0.742188
vn -0.039370 -0.330709 0.944882
v -1.955714 28.272032 -12.281092
vt 0.062500 0.742188
vn -0.984252 0.196850 0.039370
f 1/1/1 2/2/2 3/3/3
f 4/4/4 5/5/5 6/6/6
f 7/7/7 8/8/8 9/9/9
f 10/10/10 11/11/11 12/12/12
f 13/13/13 14/14/14 15/15/15
f 16/16/16 17/17/17 18/18/18
f 19/19/19 20/20/20 3/3/3
f 21/21/21 22/22/22 23/23/23
f 24/24/24 25/25/25 26/26/26
f 27/27/27 28/28/28 25/25/25
f 29/29/29 30/30/30 31/31/31
f 32/32/32 33/33/33 34/34/34
f 34/34/34 35/35/35 32/32/32
f 2/2/2 1/1/1 36/36/36
f 36/36/36 1/1/1 37/37/37
f 36/36/36 37/37/37 33/33/33
f 5/5/5 4/4/4 38/38/38
f 39/39/39 40/40/40 41/41/41
f 42/42/42 43/43/43 22/22/22
f 22/22/22 43/43/43 44/44/44
f 3/3/3 45/45/45 1/1/1
f 1/1/1 45/45/45 46/46/46
f 1/1/1 46/46/46 37/37/37
f 47/47/47 48/48/48 49/49/49
f 49/49/49 48/48/48 50/50/50
f 8/8/8 7/7/7 51/51/51
f 52/52/52 53/53/53 54/54/54
f 54/54/54 53/53/53 55/55/55
f 54/54/54 55/55/55 56/56/56
f 57/57/57 58/58/58 59/59/59
f 11/11/11 10/10/10 60/60/60
f 60/60/60 10/10/10 61/61/61
f 60/60/60 61/61/61 62/62/62
f 63/63/63 64/64/64 65/65/65
f 65/65/65 64/64/64 66/66/66
f 67/67/67 68/68/68 69/69/69
f 69/69/69 68/68/68 70/70/70
f 69/69/69 70/70/70 71/71/71
f 71/71/71 70/70/70 72/72/72
f 14/14/14 13/13/13 73/73/73
f 74/74/74 75/75/75 76/76/76
f 76/76/76 75/75/75 77/77/77
f 78/78/78 14/14/14 79/79/79
f 79/79/79 14/14/14 73/73/73
f 79/79/79 73/73/73 80/80/80
f 81/81/81 82/82/82 83/83/83
f 84/84/84 85/85/85 86/86/86
f 87/87/87 88/88/88 89/89/89
f 89/89/89 88/88/88 90/90/90
f 89/89/89 90/90/90 91/91/91
f 92/92/92 17/17/17 93/93/93
f 93/93/93 17/17/17 94/94/94
f 93/93/93 94/94/94 95/95/95
f 95/95/95 94/94/94 96/96/96
f 95/95/95 96/96/96 97/97/97
f 97/97/97 96/96/96 98/98/98
f 17/17/17 16/16/16 94/94/94
f 94/94/94 16/16/16 5/5/5
f 94/94/94 5/5/5 96/96/96
f 96/96/96 5/5/5 38/38/38
f 96/96/96 38/38/38 98/98/98
f 20/20/20 19/19/19 42/42/42
f 42/42/42 19/19/19 99/99/99
f 42/42/42 99/99/99 43/43/43
f 43/43/43 99/99/99 100/100/100
f 43/43/43 100/100/100 44/44/44
f 22/22/22 21/21/21 42/42/42
f 42/42/42 21/21/21 101/101/101
f 42/42/42 101/101/101 20/20/20
f 20/20/20 101/101/101 39/39/39
f 20/20/20 39/39/39 3/3/3
f 3/3/3 39/39/39 41/41/41
f 3/3/3 41/41/41 45/45/45
f 25/25/25 24/24/24 27/27/27
f 27/27/27 24/24/24 102/102/102
f 27/27/27 102/102/102 103/103/103
f 103/103/103 102/102/102 104/104/104
f 103/103/103 104/104/104 35/35/35
f 105/105/105 8/8/8 106/106/106
f 106/106/106 8/8/8 51/51/51
f 106/106/106 51/51/51 107/107/107
f 107/107/107 51/51/51 108/108/108
f 107/107/107 108/108/108 109/109/109
f 109/109/109 108/108/108 110/110/110
f 62/62/62 111/111/111 60/60/60
f 60/60/60 111/111/111 112/112/112
f 60/60/60 112/112/112 11/11/11
f 11/11/11 112/112/112 113/113/113
f 11/11/11 113/113/113 12/12/12
f 28/28/28 27/27/27 114/114/114
f 114/114/114 27/27/27 103/103/103
f 114/114/114 103/103/103 115/115/115
f 115/115/115 103/103/103 35/35/35
f 115/115/115 35/35/35 116/116/116
f 116/116/116 35/35/35 34/34/34
f 116/116/116 34/34/34 117/117/117
f 47/47/47 118/118/118 48/48/48
f 48/48/48 118/118/118 119/119/119
f 48/48/48 119/119/119 120/120/120
f 120/120/120 119/119/119 121/121/121
f 120/120/120 121/121/121 122/122/122
f 122/122/122 121/121/121 123/123/123
f 122/122/122 123/123/123 124/124/124
f 125/125/125 126/126/126 127/127/127
f 127/127/127 126/126/126 128/128/128
f 127/127/127 128/128/128 129/129/129
f 129/129/129 128/128/128 130/130/130
f 129/129/129 130/130/130 131/131/131
f 131/131/131 130/130/130 132/132/132
f 131/131/131 132/132/132 133/133/133
f 133/133/133 132/132/132 134/134/134
f 111/111/111 135/135/135 136/136/136
f 136/136/136 135/135/135 63/63/63
f 136/136/136 63/63/63 137/137/137
f 137/137/137 63/63/63 65/65/65
f 137/137/137 65/65/65 138/138/138
f 138/138/138 65/65/65 66/66/66
f 62/62/62 57/57/57 111/111/111
f 111/111/111 57/57/57 59/59/59
f 111/111/111 59/59/59 135/135/135
f 135/135/135 59/59/59 139/139/139
f 135/135/135 139/139/139 63/63/63
f 63/63/63 139/139/139 140/140/140
f 63/63/63 140/140/140 64/64/64
f 64/64/64 140/140/140 141/141/141
f 56/56/56 50/50/50 54/54/54
f 54/54/54 50/50/50 48/48/48
f 54/54/54 48/48/48 52/52/52
f 52/52/52 48/48/48 120/120/120
f 52/52/52 120/120/120 53/53/53
f 53/53/53 120/120/120 122/122/122
f 53/53/53 122/122/122 72/72/72
f 72/72/72 122/122/122 124/124/124
f 72/72/72 124/124/124 71/71/71
f 128/128/128 142/142/142 130/130/130
f 130/130/130 142/142/142 143/143/143
f 130/130/130 143/143/143 132/132/132
f 132/132/132 143/143/143 144/144/144
f 132/132/132 144/144/144 134/134/134
f 134/134/134 144/144/144 145/145/145
f 30/30/30 29/29/29 146/146/146
f 146/146/146 29/29/29 147/147/147
f 146/146/146 147/147/147 148/148/148
f 148/148/148 147/147/147 149/149/149
f 148/148/148 149/149/149 150/150/150
f 150/150/150 149/149/149 151/151/151
f 150/150/150 151/151/151 152/152/152
f 153/153/153 154/154/154 155/155/155
f 155/155/155 154/154/154 156/156/156
f 155/155/155 156/156/156 91/91/91
f 91/91/91 156/156/156 157/157/157
f 91/91/91 157/157/157 89/89/89
f 33/33/33 32/32/32 36/36/36
f 36/36/36 32/32/32 35/35/35
f 36/36/36 35/35/35 2/2/2
f 2/2/2 35/35/35 104/104/104
f 2/2/2 104/104/104 3/3/3
f 3/3/3 104/104/104 102/102/102
f 3/3/3 102/102/102 19/19/19
f 19/19/19 102/102/102 24/24/24
f 19/19/19 24/24/24 99/99/99
f 99/99/99 24/24/24 26/26/26
f 99/99/99 26/26/26 100/100/100
f 67/67/67 6/6/6 68/68/68
f 68/68/68 6/6/6 5/5/5
f 68/68/68 5/5/5 70/70/70
f 70/70/70 5/5/5 16/16/16
f 70/70/70 16/16/16 72/72/72
f 72/72/72 16/16/16 18/18/18
f 72/72/72 18/18/18 53/53/53
f 53/53/53 18/18/18 17/17/17
f 53/53/53 17/17/17 55/55/55
f 55/55/55 17/17/17 92/92/92
f 55/55/55 92/92/92 56/56/56
f 138/138/138 145/145/145 137/137/137
f 137/137/137 145/145/145 144/144/144
f 137/137/137 144/144/144 136/136/136
f 136/136/136 144/144/144 143/143/143
f 136/136/136 143/143/143 111/111/111
f 111/111/111 143/143/143 142/142/142
f 111/111/111 142/142/142 112/112/112
f 112/112/112 142/142/142 128/128/128
f 112/112/112 128/128/128 113/113/113
f 113/113/113 128/128/128 126/126/126
f 113/113/113 126/126/126 12/12/12
f 158/158/158 15/15/15 110/110/110
f 110/110/110 15/15/15 14/14/14
f 110/110/110 14/14/14 109/109/109
f 109/109/109 14/14/14 78/78/78
f 109/109/109 78/78/78 107/107/107
f 107/107/107 78/78/78 74/74/74
f 107/107/107 74/74/74 106/106/106
f 106/106/106 74/74/74 76/76/76
f 106/106/106 76/76/76 105/105/105
f 105/105/105 76/76/76 159/159/159
f 105/105/105 159/159/159 8/8/8
f 81/81/81 160/160/160 82/82/82
f 82/82/82 160/160/160 161/161/161
f 82/82/82 161/161/161 83/83/83
f 83/83/83 161/161/161 162/162/162
f 83/83/83 162/162/162 81/81/81
f 81/81/81 162/162/162 163/163/163
f 81/81/81 163/163/163 160/160/160
f 160/160/160 163/163/163 164/164/164
f 160/160/160 164/164/164 161/161/161
f 161/161/161 164/164/164 30/30/30
f 161/161/161 30/30/30 162/162/162
f 84/84/84 165/165/165 85/85/85
f 85/85/85 165/165/165 166/166/166
f 85/85/85 166/166/166 86/86/86
f 86/86/86 166/166/166 167/167/167
f 86/86/86 167/167/167 84/84/84
f 84/84/84 167/167/167 168/168/168
f 84/84/84 168/168/168 165/165/165
f 165/165/165 168/168/168 169/169/169
f 165/165/165 169/169/169 166/166/166
f 166/166/166 169/169/169 154/154/154
f 166/166/166 154/154/154 167/167/167
