mtllib 2106-0.mtl
g mesh00
usemtl texture00
v -6.509489 34.014386 -2.703184
vt 0.082031 0.613281
vn -0.992126 0.086614 -0.141732
v -7.164314 39.380492 -2.334646
vt 0.009979 0.613281
vn -0.984252 -0.165354 -0.086614
v -5.760893 34.024518 -7.738717
vt 0.082031 0.761719
vn -0.874016 -0.015748 -0.480315
v 0.000000 34.095445 -11.102054
vt 0.082031 0.989990
vn 0.000000 -0.007874 -1.000000
v 5.029583 40.278221 -9.882780
vt 0.009979 0.886719
vn 0.559055 -0.165354 -0.811024
v 5.760893 34.024518 -7.738717
vt 0.082031 0.761719
vn 0.874016 -0.015748 -0.480315
v 7.752086 40.018832 -6.993031
vt 0.009979 0.761719
vn 0.937008 -0.173228 -0.307087
v 7.164314 39.380492 -2.334646
vt 0.009979 0.613281
vn 0.984252 -0.165354 -0.086614
v -7.752086 40.018832 -6.993031
vt 0.009979 0.761719
vn -0.937008 -0.173228 -0.307087
v -5.029583 40.278221 -9.882780
vt 0.009979 0.886719
vn -0.559055 -0.165354 -0.811024
v 0.000000 41.577191 -11.646250
vt 0.009979 0.989990
vn 0.000000 -0.102362 -1.000000
v 6.509489 34.014386 -2.703184
vt 0.082031 0.613281
vn 0.992126 0.086614 -0.141732
v 6.309374 31.679886 -8.920678
vt 0.121094 0.761719
vn 0.763780 0.346457 -0.551181
v 0.000000 31.700151 -11.494702
vt 0.121094 0.989990
vn 0.000000 0.362205 -0.937008
v -6.309374 31.679886 -8.920678
vt 0.121094 0.761719
vn -0.763780 0.346457 -0.551181
f 1/1/1 2/2/2 3/3/3
f 4/4/4 5/5/5 6/6/6
f 6/6/6 5/5/5 7/7/7
f 6/6/6 7/7/7 8/8/8
f 2/2/2 9/9/9 3/3/3
f 3/3/3 9/9/9 10/10/10
f 3/3/3 10/10/10 4/4/4
f 4/4/4 10/10/10 11/11/11
f 4/4/4 11/11/11 5/5/5
f 8/8/8 12/12/12 6/6/6
f 6/6/6 12/12/12 13/13/13
f 6/6/6 13/13/13 4/4/4
f 4/4/4 13/13/13 14/14/14
f 4/4/4 14/14/14 3/3/3
f 3/3/3 14/14/14 15/15/15
f 3/3/3 15/15/15 1/1/1
usemtl texture00
v 3.524009 40.657171 10.635928
vt 0.074219 0.183594
vn 0.464567 -0.212598 0.858268
v 4.886046 44.631089 10.340869
vt 0.214844 0.183594
vn 0.661417 0.062992 0.755906
v 0.000000 44.916822 12.990666
vt 0.152344 0.009979
vn 0.000000 0.275591 0.968504
v 0.000000 37.370229 -14.763895
vt 0.832031 0.350952
vn 0.000000 0.653543 -0.755906
v 0.000000 44.055570 -10.409180
vt 0.989990 0.350952
vn 0.000000 0.543307 -0.842520
v 7.140741 42.343199 -7.705422
vt 0.989990 0.550781
vn 0.700787 0.496063 -0.511811
v -6.776658 47.867370 4.870782
vt 0.308594 0.183594
vn -0.685039 0.700787 0.212598
v -7.372287 49.638509 -3.439685
vt 0.427216 0.183594
vn -0.669291 0.716535 0.196850
v -9.493922 45.591639 -3.014317
vt 0.427216 0.339844
vn -0.889764 0.417323 0.181102
v 11.914680 39.889137 0.376574
vt 0.128906 0.886719
vn 0.913386 0.346457 0.236220
v 7.307328 44.497342 5.764572
vt 0.363281 0.989990
vn 0.889764 0.267717 0.370079
v 9.034496 40.604483 4.615906
vt 0.128906 0.989990
vn 0.889764 0.291339 0.346457
v 2.777508 51.851420 -4.014305
vt 0.427216 0.082031
vn 0.409449 0.889764 0.204724
v 0.000000 50.451126 6.166979
vt 0.308594 0.009979
vn 0.000000 0.968504 0.267717
v 6.776658 47.867370 4.870782
vt 0.308594 0.183594
vn 0.685039 0.700787 0.212598
v 7.769373 45.386965 4.851839
vt 0.308594 0.339844
vn 0.913386 0.362205 0.204724
v 9.493922 45.591639 -3.014317
vt 0.427216 0.339844
vn 0.889764 0.417323 0.181102
v 7.372287 49.638509 -3.439685
vt 0.427216 0.183594
vn 0.669291 0.716535 0.196850
v 10.081693 47.145945 4.799026
vt 0.009979 0.339844
vn 0.637795 -0.212598 0.748031
v 8.144981 48.988011 6.898313
vt 0.009979 0.230469
vn 0.637795 -0.212598 0.748031
v 8.670413 44.993828 5.301317
vt 0.136719 0.339844
vn 0.637795 -0.212598 0.748031
v 6.830615 46.681882 7.439065
vt 0.136719 0.230469
vn 0.637795 -0.212598 0.748031
v 7.020253 41.548821 7.817361
vt 0.214844 0.285156
vn 0.732283 -0.047244 0.685039
v 0.000000 52.388436 -0.171066
vt 0.378906 0.009979
vn 0.000000 0.984252 0.204724
v 0.000000 53.057173 -5.538972
vt 0.427216 0.009979
vn 0.000000 1.000000 0.118110
v -2.776984 51.851420 -4.014305
vt 0.427216 0.082031
vn -0.409449 0.889764 0.204724
v -7.768849 45.386965 4.851839
vt 0.308594 0.339844
vn -0.913386 0.362205 0.204724
v -8.670413 44.993828 5.301317
vt 0.136719 0.339844
vn -0.637795 -0.212598 0.748031
v -6.830092 46.681882 7.439065
vt 0.136719 0.230469
vn -0.637795 -0.212598 0.748031
v -10.081169 47.145945 4.799026
vt 0.009979 0.339844
vn -0.637795 -0.212598 0.748031
v -8.144457 48.988011 6.898313
vt 0.009979 0.230469
vn -0.637795 -0.212598 0.748031
v -3.524009 40.657171 10.635928
vt 0.074219 0.183594
vn -0.464567 -0.212598 0.858268
v 0.000000 38.636776 11.076222
vt 0.009979 0.009979
vn 0.000000 -0.425197 0.905512
v 0.000000 40.946957 12.165762
vt 0.074219 0.009979
vn 0.000000 -0.314961 0.952756
v 8.238228 40.533557 6.546423
vt 0.009979 0.339844
vn 0.787402 0.086614 0.614173
v 9.775235 42.513423 4.250812
vt 0.009979 0.230469
vn 0.787402 0.086614 0.614173
v 7.206223 42.732282 7.478100
vt 0.136719 0.339844
vn 0.787402 0.086614 0.614173
v 8.707607 44.752678 5.362166
vt 0.136719 0.230469
vn 0.787402 0.086614 0.614173
v -9.756376 38.521267 1.971275
vt 0.989990 0.989990
vn -0.968504 0.141732 0.212598
v -10.427965 38.752285 0.258895
vt 0.989990 0.886719
vn -0.952756 0.314961 -0.055118
v -12.926779 32.535059 -3.016039
vt 0.832031 0.886719
vn -0.952756 0.307087 0.055118
v -7.140741 42.343199 -7.705422
vt 0.989990 0.550781
vn -0.700787 0.496063 -0.511811
v 11.970209 31.606933 -14.766191
vt 0.660156 0.550781
vn 0.543307 0.677165 -0.496063
v 9.066451 35.933458 -11.920070
vt 0.832031 0.550781
vn 0.708661 0.590551 -0.393701
v 15.118610 29.027230 -5.542416
vt 0.660156 0.886719
vn 0.889764 0.456693 0.078740
v 12.926779 32.535059 -3.016039
vt 0.832031 0.886719
vn 0.952756 0.307087 0.055118
v 10.882151 30.253248 -0.275542
vt 0.660156 0.989990
vn 0.921260 0.110236 0.377953
v 9.756899 38.521267 1.971275
vt 0.989990 0.989990
vn 0.968504 0.141732 0.212598
v -9.065928 35.933458 -11.920070
vt 0.832031 0.550781
vn -0.708661 0.590551 -0.393701
v -7.205699 42.732282 7.478100
vt 0.136719 0.339844
vn -0.787402 0.086614 0.614173
v -8.707083 44.752678 5.362166
vt 0.136719 0.230469
vn -0.787402 0.086614 0.614173
v -8.237704 40.533557 6.546423
vt 0.009979 0.339844
vn -0.787402 0.086614 0.614173
v -9.775235 42.513423 4.250812
vt 0.009979 0.230469
vn -0.787402 0.086614 0.614173
v 8.117216 43.709043 5.428755
vt 0.989990 0.167969
vn 0.787402 0.204724 0.582677
v 5.761940 39.645960 9.141112
vt 0.878906 0.333527
vn 0.559055 0.102362 0.826772
v 8.690844 32.304041 9.169240
vt 0.714844 0.167969
vn 0.779528 0.007874 0.629921
v 4.835755 32.936301 12.041768
vt 0.714844 0.333527
vn 0.401575 0.062992 0.921260
v 6.961057 26.826478 12.038323
vt 0.527344 0.167969
vn 0.763780 -0.157480 0.629921
v 4.798561 26.682599 13.036590
vt 0.472656 0.246094
vn 0.370079 0.110236 0.921260
v 4.007532 20.009416 15.964799
vt 0.441406 0.167969
vn 0.803150 -0.133858 0.590551
v 6.587544 25.651123 10.194487
vt 0.472656 0.082031
vn 0.913386 -0.401575 0.102362
v 10.442109 31.138818 3.614195
vt 0.714844 0.009979
vn 0.937008 -0.299213 0.204724
v 11.101125 37.639750 2.323165
vt 0.871094 0.009979
vn 0.944882 0.047244 0.330709
v 7.307328 44.197424 6.784652
vt 0.308594 0.339844
vn 0.858268 0.228346 0.464567
v 10.104219 45.891557 0.858199
vt 0.427216 0.339844
vn 0.826772 0.362205 0.433071
v 6.051635 46.921006 7.720348
vt 0.308594 0.183594
vn 0.708661 0.535433 0.456693
v 7.228749 49.758072 1.739934
vt 0.427216 0.183594
vn 0.519685 0.732283 0.440945
v 0.000000 48.376015 10.214004
vt 0.308594 0.009979
vn 0.000000 0.858268 0.519685
v 2.777508 51.829129 1.493668
vt 0.427216 0.082031
vn 0.480315 0.787402 0.393701
v 0.000000 51.768335 5.741036
vt 0.378906 0.009979
vn 0.000000 0.905512 0.433071
v 17.165333 66.401512 -1.174499
vt 0.441406 0.167969
vn 0.787402 0.173228 0.598425
v 13.280908 61.918949 2.653242
vt 0.472656 0.082031
vn 0.251969 0.377953 0.889764
v 15.637232 60.449755 2.612484
vt 0.527344 0.167969
vn 0.685039 0.141732 0.716535
v 9.769472 57.355327 4.909243
vt 0.714844 0.009979
vn 0.212598 0.236220 0.952756
v 13.017930 55.598373 4.545872
vt 0.714844 0.167969
vn 0.464567 -0.023622 0.889764
v 7.601738 51.908162 6.200273
vt 0.871094 0.009979
vn 0.251969 0.055118 0.968504
v 7.771469 46.317117 5.948267
vt 0.989990 0.167969
vn 0.448819 -0.118110 0.889764
v 12.488307 48.258480 3.013169
vt 0.878906 0.333527
vn 0.606299 -0.204724 0.771654
v 15.628326 51.898029 1.369100
vt 0.714844 0.333527
vn 0.834646 -0.110236 0.543307
v 15.745671 59.649297 0.893790
vt 0.472656 0.246094
vn 0.992126 -0.086614 0.102362
v 9.600789 44.896558 4.030379
vt 0.308594 0.339844
vn 0.795276 0.094488 0.598425
v 6.248083 48.086229 7.790381
vt 0.308594 0.183594
vn 0.543307 0.385827 0.740157
v 2.777508 49.456127 8.210583
vt 0.308594 0.082031
vn 0.393701 0.582677 0.708661
v 0.000000 48.631351 10.670945
vt 0.246094 0.009979
vn 0.000000 0.645669 0.763780
v -4.007008 20.009416 15.964799
vt 0.441406 0.167969
vn -0.803150 -0.133858 0.590551
v -4.798037 26.682599 13.036590
vt 0.472656 0.246094
vn -0.370079 0.110236 0.921260
v -6.960533 26.826478 12.038323
vt 0.527344 0.167969
vn -0.763780 -0.157480 0.629921
v -4.835755 32.936301 12.041768
vt 0.714844 0.333527
vn -0.401575 0.062992 0.921260
v -8.690320 32.304041 9.169240
vt 0.714844 0.167969
vn -0.779528 0.007874 0.629921
v -5.761940 39.645960 9.141112
vt 0.878906 0.333527
vn -0.559055 0.102362 0.826772
v -8.116693 43.709043 5.428755
vt 0.989990 0.167969
vn -0.787402 0.204724 0.582677
v -11.100601 37.639750 2.323165
vt 0.871094 0.009979
vn -0.944882 0.047244 0.330709
v -10.441585 31.138818 3.614195
vt 0.714844 0.009979
vn -0.937008 -0.299213 0.204724
v -6.587020 25.651123 10.194487
vt 0.472656 0.082031
vn -0.913386 -0.401575 0.102362
v 0.000000 53.363171 0.299652
vt 0.427216 0.009979
vn 0.000000 0.960630 0.283465
v -2.776984 51.829129 1.493668
vt 0.427216 0.082031
vn -0.480315 0.787402 0.393701
v -7.228225 49.758072 1.739934
vt 0.427216 0.183594
vn -0.519685 0.732283 0.440945
v -6.051111 46.921006 7.720348
vt 0.308594 0.183594
vn -0.708661 0.535433 0.456693
v -10.103695 45.891557 0.858199
vt 0.427216 0.339844
vn -0.826772 0.362205 0.433071
v -7.307328 44.197424 6.784652
vt 0.308594 0.339844
vn -0.858268 0.228346 0.464567
v -7.771469 46.317117 5.948267
vt 0.989990 0.167969
vn -0.448819 -0.118110 0.889764
v -7.601214 51.908162 6.200273
vt 0.871094 0.009979
vn -0.251969 0.055118 0.968504
v -13.017406 55.598373 4.545872
vt 0.714844 0.167969
vn -0.464567 -0.023622 0.889764
v -9.769472 57.355327 4.909243
vt 0.714844 0.009979
vn -0.212598 0.236220 0.952756
v -15.637232 60.449755 2.612484
vt 0.527344 0.167969
vn -0.685039 0.141732 0.716535
v -13.280908 61.918949 2.653242
vt 0.472656 0.082031
vn -0.251969 0.377953 0.889764
v -17.165333 66.401512 -1.174499
vt 0.441406 0.167969
vn -0.787402 0.173228 0.598425
v -15.745147 59.649297 0.893790
vt 0.472656 0.246094
vn -0.992126 -0.086614 0.102362
v -15.627803 51.898029 1.369100
vt 0.714844 0.333527
vn -0.834646 -0.110236 0.543307
v -12.488307 48.258480 3.013169
vt 0.878906 0.333527
vn -0.606299 -0.204724 0.771654
v 0.000000 51.636614 7.350662
vt 0.308594 0.009979
vn 0.000000 0.740157 0.669291
v -2.776984 49.456127 8.210583
vt 0.308594 0.082031
vn -0.393701 0.582677 0.708661
v -6.247559 48.086229 7.790381
vt 0.308594 0.183594
vn -0.543307 0.385827 0.740157
v -4.885522 44.631089 10.340869
vt 0.214844 0.183594
vn -0.661417 0.062992 0.755906
v -9.600265 44.896558 4.030379
vt 0.308594 0.339844
vn -0.795276 0.094488 0.598425
v -7.020253 41.548821 7.817361
vt 0.214844 0.285156
vn -0.732283 -0.047244 0.685039
v 7.928627 45.569347 3.689969
vt 0.363281 0.886719
vn 0.921260 0.377953 0.102362
v 7.785089 44.835763 -7.041825
vt 0.128906 0.550781
vn 0.874016 0.488189 -0.094488
v 6.342378 49.158235 0.090125
vt 0.363281 0.550781
vn 0.732283 0.669291 -0.118110
v 4.384187 48.904925 -8.222064
vt 0.128906 0.433594
vn 0.511811 0.850394 -0.149606
v 0.000000 51.587979 0.289893
vt 0.363281 0.350952
vn 0.000000 1.000000 -0.118110
v 0.000000 50.295087 -9.982090
vt 0.128906 0.350952
vn 0.000000 0.992126 -0.118110
v -4.384187 48.904925 -8.222064
vt 0.128906 0.433594
vn -0.511811 0.850394 -0.149606
v -6.341854 49.158235 0.090125
vt 0.363281 0.550781
vn -0.732283 0.669291 -0.118110
v -7.784565 44.835763 -7.041825
vt 0.128906 0.550781
vn -0.874016 0.488189 -0.094488
v -7.928627 45.569347 3.689969
vt 0.363281 0.886719
vn -0.921260 0.377953 0.102362
v -11.914156 39.889137 0.376574
vt 0.128906 0.886719
vn -0.913386 0.346457 0.236220
v -7.307328 44.497342 5.764572
vt 0.363281 0.989990
vn -0.889764 0.267717 0.370079
v -9.033972 40.604483 4.615906
vt 0.128906 0.989990
vn -0.889764 0.291339 0.346457
v 11.970209 31.606933 -14.766191
vt 0.660156 0.550781
vn 0.511811 0.700787 -0.503937
v 10.427965 38.752285 0.258895
vt 0.989990 0.886719
vn 0.952756 0.314961 -0.055118
v 8.171174 42.598535 4.377102
vt 0.660156 0.989990
vn 0.929134 0.307087 0.204724
v 10.680989 35.781472 2.711220
vt 0.363281 0.989990
vn 0.944882 0.267717 0.212598
v 10.979066 38.711755 0.306541
vt 0.511719 0.886719
vn 0.944882 0.338583 0.015748
v 13.379394 35.072206 -2.320295
vt 0.363281 0.886719
vn 0.905512 0.440945 0.000000
v 7.140741 42.724176 -7.705422
vt 0.511719 0.550781
vn 0.763780 0.472441 -0.440945
v 10.068072 38.600299 -10.994133
vt 0.363281 0.550781
vn 0.590551 0.708661 -0.385827
v 0.000000 44.434521 -10.409180
vt 0.511719 0.350952
vn 0.000000 0.645669 -0.771654
v 0.000000 33.706362 -18.810347
vt 0.660156 0.350952
vn 0.000000 0.740157 -0.669291
v -11.969686 31.606933 -14.766191
vt 0.660156 0.550781
vn -0.543307 0.677165 -0.496063
v -15.118610 29.027230 -5.542416
vt 0.660156 0.886719
vn -0.889764 0.456693 0.078740
v -10.881628 30.253248 -0.275542
vt 0.660156 0.989990
vn -0.921260 0.110236 0.377953
v 4.384187 48.846158 -6.561922
vt 0.660156 0.496094
vn 0.503937 0.409449 -0.763780
v 6.891383 46.700120 -4.145762
vt 0.660156 0.605469
vn 0.897638 0.338583 -0.275591
v 8.340905 43.192292 2.394347
vt 0.660156 0.886719
vn 0.921260 0.377953 0.094488
v -8.171174 42.598535 4.377102
vt 0.660156 0.989990
vn -0.921260 0.314961 0.228346
v -8.340381 43.192292 2.394347
vt 0.660156 0.886719
vn -0.913386 0.393701 0.102362
v -11.118413 38.711755 0.306541
vt 0.511719 0.886719
vn -0.937008 0.346457 0.031496
v -6.891383 46.700120 -4.145762
vt 0.660156 0.605469
vn -0.897638 0.346457 -0.275591
v -7.140741 42.724176 -7.705422
vt 0.511719 0.550781
vn -0.755906 0.480315 -0.440945
v -4.384187 48.846158 -6.561922
vt 0.660156 0.496094
vn -0.503937 0.409449 -0.763780
v 0.000000 50.236320 -6.941941
vt 0.660156 0.350952
vn 0.000000 0.511811 -0.858268
v 0.000000 41.741336 -14.357470
vt 0.363281 0.350952
vn 0.000000 0.826772 -0.566929
v -10.067549 38.600299 -10.994133
vt 0.363281 0.550781
vn -0.590551 0.708661 -0.385827
v -13.673280 35.072206 -2.320295
vt 0.363281 0.886719
vn -0.897638 0.448819 0.000000
v -10.680989 35.781472 2.711220
vt 0.363281 0.989990
vn -0.937008 0.259843 0.251969
f 16/16/16 17/17/17 18/18/18
f 19/19/19 20/20/20 21/21/21
f 22/22/22 23/23/23 24/24/24
f 25/25/25 26/26/26 27/27/27
f 28/28/28 29/29/29 30/30/30
f 31/31/31 32/32/32 30/30/30
f 30/30/30 32/32/32 33/33/33
f 30/30/30 33/33/33 28/28/28
f 34/34/34 35/35/35 36/36/36
f 36/36/36 35/35/35 37/37/37
f 17/17/17 16/16/16 38/38/38
f 39/39/39 40/40/40 41/41/41
f 24/24/24 42/42/42 22/22/22
f 43/43/43 44/44/44 45/45/45
f 45/45/45 44/44/44 46/46/46
f 47/47/47 48/48/48 49/49/49
f 50/50/50 51/51/51 52/52/52
f 52/52/52 51/51/51 53/53/53
f 54/54/54 55/55/55 56/56/56
f 56/56/56 55/55/55 57/57/57
f 58/58/58 59/59/59 60/60/60
f 60/60/60 59/59/59 61/61/61
f 60/60/60 61/61/61 62/62/62
f 62/62/62 61/61/61 63/63/63
f 20/20/20 19/19/19 57/57/57
f 57/57/57 19/19/19 64/64/64
f 57/57/57 64/64/64 56/56/56
f 65/65/65 66/66/66 67/67/67
f 67/67/67 66/66/66 68/68/68
f 69/69/69 70/70/70 71/71/71
f 71/71/71 70/70/70 72/72/72
f 71/71/71 72/72/72 73/73/73
f 73/73/73 72/72/72 74/74/74
f 73/73/73 74/74/74 75/75/75
f 75/75/75 76/76/76 73/73/73
f 73/73/73 76/76/76 77/77/77
f 73/73/73 77/77/77 71/71/71
f 71/71/71 77/77/77 78/78/78
f 71/71/71 78/78/78 69/69/69
f 79/79/79 80/80/80 81/81/81
f 81/81/81 80/80/80 82/82/82
f 81/81/81 82/82/82 83/83/83
f 83/83/83 82/82/82 84/84/84
f 83/83/83 84/84/84 85/85/85
f 86/86/86 87/87/87 88/88/88
f 88/88/88 87/87/87 89/89/89
f 88/88/88 89/89/89 90/90/90
f 90/90/90 89/89/89 91/91/91
f 90/90/90 91/91/91 92/92/92
f 92/92/92 93/93/93 90/90/90
f 90/90/90 93/93/93 94/94/94
f 90/90/90 94/94/94 88/88/88
f 88/88/88 94/94/94 95/95/95
f 88/88/88 95/95/95 86/86/86
f 38/38/38 96/96/96 17/17/17
f 17/17/17 96/96/96 97/97/97
f 17/17/17 97/97/97 18/18/18
f 18/18/18 97/97/97 98/98/98
f 18/18/18 98/98/98 99/99/99
f 23/23/23 22/22/22 41/41/41
f 41/41/41 22/22/22 29/29/29
f 41/41/41 29/29/29 39/39/39
f 39/39/39 29/29/29 28/28/28
f 39/39/39 28/28/28 40/40/40
f 100/100/100 101/101/101 102/102/102
f 102/102/102 101/101/101 103/103/103
f 102/102/102 103/103/103 104/104/104
f 104/104/104 103/103/103 105/105/105
f 104/104/104 105/105/105 106/106/106
f 106/106/106 107/107/107 104/104/104
f 104/104/104 107/107/107 108/108/108
f 104/104/104 108/108/108 102/102/102
f 102/102/102 108/108/108 109/109/109
f 102/102/102 109/109/109 100/100/100
f 84/84/84 110/110/110 85/85/85
f 85/85/85 110/110/110 111/111/111
f 85/85/85 111/111/111 83/83/83
f 83/83/83 111/111/111 112/112/112
f 83/83/83 112/112/112 113/113/113
f 113/113/113 112/112/112 114/114/114
f 113/113/113 114/114/114 115/115/115
f 116/116/116 117/117/117 118/118/118
f 118/118/118 117/117/117 119/119/119
f 118/118/118 119/119/119 120/120/120
f 120/120/120 119/119/119 121/121/121
f 120/120/120 121/121/121 122/122/122
f 122/122/122 123/123/123 120/120/120
f 120/120/120 123/123/123 124/124/124
f 120/120/120 124/124/124 118/118/118
f 118/118/118 124/124/124 125/125/125
f 118/118/118 125/125/125 116/116/116
f 98/98/98 126/126/126 99/99/99
f 99/99/99 126/126/126 127/127/127
f 99/99/99 127/127/127 18/18/18
f 18/18/18 127/127/127 128/128/128
f 18/18/18 128/128/128 129/129/129
f 129/129/129 128/128/128 130/130/130
f 48/48/48 16/16/16 49/49/49
f 49/49/49 16/16/16 18/18/18
f 49/49/49 18/18/18 47/47/47
f 47/47/47 18/18/18 129/129/129
f 47/47/47 129/129/129 131/131/131
f 131/131/131 129/129/129 130/130/130
f 26/26/26 25/25/25 132/132/132
f 132/132/132 25/25/25 133/133/133
f 132/132/132 133/133/133 134/134/134
f 134/134/134 133/133/133 135/135/135
f 134/134/134 135/135/135 136/136/136
f 135/135/135 137/137/137 136/136/136
f 136/136/136 137/137/137 138/138/138
f 136/136/136 138/138/138 139/139/139
f 139/139/139 138/138/138 140/140/140
f 139/139/139 140/140/140 141/141/141
f 141/141/141 140/140/140 142/142/142
f 141/141/141 142/142/142 143/143/143
f 143/143/143 142/142/142 144/144/144
f 145/145/145 19/19/19 59/59/59
f 59/59/59 19/19/19 21/21/21
f 59/59/59 21/21/21 61/61/61
f 61/61/61 21/21/21 146/146/146
f 61/61/61 146/146/146 63/63/63
f 147/147/147 148/148/148 149/149/149
f 149/149/149 148/148/148 150/150/150
f 149/149/149 150/150/150 151/151/151
f 151/151/151 150/150/150 152/152/152
f 151/151/151 152/152/152 153/153/153
f 58/58/58 154/154/154 19/19/19
f 19/19/19 154/154/154 155/155/155
f 19/19/19 155/155/155 64/64/64
f 64/64/64 155/155/155 156/156/156
f 64/64/64 156/156/156 56/56/56
f 56/56/56 156/156/156 157/157/157
f 56/56/56 157/157/157 54/54/54
f 153/153/153 158/158/158 151/151/151
f 151/151/151 158/158/158 159/159/159
f 151/151/151 159/159/159 149/149/149
f 149/149/149 159/159/159 160/160/160
f 149/149/149 160/160/160 147/147/147
f 161/161/161 162/162/162 163/163/163
f 163/163/163 162/162/162 164/164/164
f 163/163/163 164/164/164 165/165/165
f 165/165/165 164/164/164 166/166/166
f 165/165/165 166/166/166 153/153/153
f 153/153/153 166/166/166 167/167/167
f 153/153/153 167/167/167 158/158/158
f 152/152/152 168/168/168 153/153/153
f 153/153/153 168/168/168 169/169/169
f 153/153/153 169/169/169 165/165/165
f 165/165/165 169/169/169 170/170/170
f 165/165/165 170/170/170 163/163/163
f 163/163/163 170/170/170 171/171/171
f 163/163/163 171/171/171 161/161/161
