mtllib 2059-0.mtl
g mesh00
usemtl texture00
v 6.375146 0.848608 2.331527
vt 0.025391 0.647461
vn 0.984252 -0.181102 0.094488
v 4.278152 -2.994650 2.283039
vt 0.012024 0.987549
vn 0.645669 -0.669291 -0.377953
v 7.164600 4.379871 -0.334531
vt 0.012024 0.367188
vn 0.826772 -0.448819 -0.346457
v -5.362831 -1.794070 5.255920
vt 0.160156 0.831055
vn -0.889764 -0.417323 0.196850
v -5.541120 0.798738 6.396421
vt 0.120117 0.691406
vn -0.929134 -0.259843 0.275591
v -6.375146 0.848608 2.331527
vt 0.025391 0.647461
vn -0.984252 -0.173228 0.102362
v -4.666193 0.684162 8.591446
vt 0.209961 0.703125
vn -0.826772 -0.244094 0.511811
v -4.278152 -1.200168 8.721021
vt 0.268951 0.796875
vn -0.803150 -0.251969 0.543307
v -1.825890 -4.345251 9.716463
vt 0.398438 0.945312
vn -0.551181 -0.417323 0.724409
v 0.000000 -4.036966 10.356594
vt 0.492188 0.937500
vn 0.000000 -0.307087 0.952756
v 0.000000 -2.626604 10.487391
vt 0.492188 0.875000
vn 0.000000 -0.433071 0.905512
v 5.541120 0.798738 6.396421
vt 0.120117 0.691406
vn 0.921260 -0.275591 0.275591
v 5.363094 -1.794070 5.255920
vt 0.160156 0.831055
vn 0.889764 -0.409449 0.196850
v 0.000000 2.147278 13.351479
vt 0.492188 0.617188
vn 0.000000 -0.102362 1.000000
v 0.000000 1.477954 13.005131
vt 0.492188 0.659576
vn 0.000000 -0.724409 0.692913
v 0.718662 1.934611 12.924860
vt 0.447540 0.635040
vn 0.653543 -0.267717 0.716535
v 4.278152 -1.200168 8.721021
vt 0.268951 0.796875
vn 0.803150 -0.251969 0.543307
v 2.861278 -1.844351 9.929161
vt 0.342896 0.842346
vn 0.629921 -0.370079 0.685039
v 3.391164 -3.041222 8.385675
vt 0.277893 0.900665
vn 0.748031 -0.456693 0.488189
v 2.259552 -2.833089 9.611337
vt 0.390625 0.875000
vn 0.496063 -0.417323 0.763780
v 1.825890 -4.345251 9.716871
vt 0.398438 0.945312
vn 0.551181 -0.417323 0.724409
v 6.375146 0.848608 2.331527
vt 0.847656 0.639648
vn -0.889764 -0.133858 -0.440945
v 7.164600 4.379871 -0.334531
vt 0.937500 0.500000
vn -0.763780 0.125984 -0.637795
v 7.209172 0.599260 0.735071
vt 0.914062 0.640625
vn -0.755906 -0.188976 -0.629921
v -0.718662 1.934611 12.924860
vt 0.447540 0.635040
vn -0.653543 -0.267717 0.716535
v -1.758507 1.619732 11.047251
vt 0.390625 0.638367
vn -0.559055 -0.094488 0.826772
v 0.000000 0.957826 11.752985
vt 0.492188 0.686371
vn 0.000000 -0.433071 0.905512
v 0.000000 -1.755328 11.395228
vt 0.492188 0.843750
vn 0.000000 -0.370079 0.929134
v 0.000000 -1.268584 11.375670
vt 0.492188 0.804688
vn 0.000000 0.322835 0.952756
v -1.514671 -1.619732 11.127115
vt 0.437500 0.828125
vn -0.385827 -0.220472 0.897638
v -2.259552 -2.833089 9.611337
vt 0.390625 0.875000
vn -0.496063 -0.417323 0.763780
v -3.391164 -3.041222 8.385675
vt 0.277893 0.900665
vn -0.748031 -0.456693 0.488189
v -3.716803 -3.827184 6.257474
vt 0.171875 0.974609
vn -0.677165 -0.724409 0.110236
v 1.758507 1.619732 11.047251
vt 0.390625 0.638367
vn 0.559055 -0.094488 0.826772
v -7.209172 0.599260 0.735071
vt 0.914062 0.640625
vn 0.755906 -0.188976 -0.629921
v -7.164600 4.379871 -0.334531
vt 0.937500 0.500000
vn 0.763780 0.125984 -0.637795
v -6.375146 0.848608 2.331527
vt 0.847656 0.639648
vn 0.889764 -0.133858 -0.440945
v 6.108237 -1.046850 2.176690
vt 0.067383 0.815430
vn 0.826772 -0.393701 -0.417323
v 3.716803 -3.827184 6.257474
vt 0.171875 0.974609
vn 0.677165 -0.724409 0.110236
v 0.000000 -5.096592 5.771773
vt 0.492188 0.987396
vn 0.000000 -1.000000 -0.118110
v 1.981631 -4.901235 8.616302
vt 0.382812 0.976562
vn 0.377953 -0.913386 0.165354
v 0.000000 -5.206635 8.640750
vt 0.492188 0.984375
vn 0.000000 -1.000000 0.062992
v 1.514671 -1.619732 11.127115
vt 0.437500 0.828125
vn 0.385827 -0.220472 0.897638
v 2.816706 -1.021709 10.152046
vt 0.351562 0.796875
vn 0.574803 -0.173228 0.803150
v 1.019919 -0.722491 10.930716
vt 0.431915 0.772308
vn 0.322835 -0.228346 0.921260
v 1.178543 -0.020195 11.614038
vt 0.430786 0.745514
vn 0.362205 -0.244094 0.897638
v 0.000000 -0.750929 11.524803
vt 0.493286 0.767853
vn 0.000000 -0.763780 0.645669
v 0.000000 -0.092321 11.860963
vt 0.492188 0.745514
vn 0.000000 -0.181102 0.984252
v -1.178543 -0.020195 11.614038
vt 0.430786 0.745514
vn -0.362205 -0.244094 0.897638
v -2.861278 -1.844351 9.929161
vt 0.342896 0.842346
vn -0.629921 -0.370079 0.685039
v -2.816706 -1.021709 10.152046
vt 0.351562 0.796875
vn -0.574803 -0.173228 0.803150
v -1.019919 -0.722491 10.930716
vt 0.431915 0.772308
vn -0.322835 -0.228346 0.921260
v 0.000000 -0.871276 11.107964
vt 0.493286 0.777893
vn 0.000000 -0.330709 0.944882
v -1.981631 -4.901235 8.616302
vt 0.382812 0.976562
vn -0.377953 -0.913386 0.165354
v 0.000000 -5.007157 9.795105
vt 0.492188 0.968750
vn 0.000000 -0.842520 0.543307
v -7.164600 4.379871 -0.334531
vt 0.012024 0.367188
vn -0.826772 -0.448819 -0.346457
v -4.278152 -2.994650 2.283039
vt 0.012024 0.987549
vn -0.645669 -0.669291 -0.385827
v -6.074415 -1.046850 2.176690
vt 0.067383 0.815430
vn -0.818898 -0.393701 -0.425197
v 4.666193 0.684162 8.591446
vt 0.209961 0.703125
vn 0.826772 -0.244094 0.511811
f 1/1/1 2/2/2 3/3/3
f 4/4/4 5/5/5 6/6/6
f 7/7/7 5/5/5 8/8/8
f 9/9/9 10/10/10 11/11/11
f 12/12/12 13/13/13 1/1/1
f 14/14/14 15/15/15 16/16/16
f 17/17/17 18/18/18 19/19/19
f 19/19/19 18/18/18 20/20/20
f 19/19/19 20/20/20 21/21/21
f 22/22/22 23/23/23 24/24/24
f 25/25/25 26/26/26 27/27/27
f 28/28/28 29/29/29 30/30/30
f 11/11/11 31/31/31 9/9/9
f 9/9/9 31/31/31 32/32/32
f 9/9/9 32/32/32 33/33/33
f 33/33/33 32/32/32 4/4/4
f 34/34/34 16/16/16 27/27/27
f 27/27/27 16/16/16 15/15/15
f 27/27/27 15/15/15 25/25/25
f 25/25/25 15/15/15 14/14/14
f 35/35/35 36/36/36 37/37/37
f 2/2/2 1/1/1 38/38/38
f 38/38/38 1/1/1 13/13/13
f 38/38/38 13/13/13 2/2/2
f 2/2/2 13/13/13 39/39/39
f 2/2/2 39/39/39 40/40/40
f 40/40/40 39/39/39 41/41/41
f 40/40/40 41/41/41 42/42/42
f 43/43/43 44/44/44 45/45/45
f 45/45/45 44/44/44 46/46/46
f 45/45/45 46/46/46 47/47/47
f 47/47/47 46/46/46 48/48/48
f 47/47/47 48/48/48 49/49/49
f 8/8/8 50/50/50 51/51/51
f 51/51/51 50/50/50 30/30/30
f 51/51/51 30/30/30 52/52/52
f 52/52/52 30/30/30 29/29/29
f 52/52/52 29/29/29 53/53/53
f 33/33/33 54/54/54 9/9/9
f 9/9/9 54/54/54 55/55/55
f 9/9/9 55/55/55 10/10/10
f 10/10/10 55/55/55 21/21/21
f 10/10/10 21/21/21 11/11/11
f 11/11/11 21/21/21 20/20/20
f 11/11/11 20/20/20 43/43/43
f 43/43/43 20/20/20 18/18/18
f 43/43/43 18/18/18 44/44/44
f 44/44/44 18/18/18 17/17/17
f 5/5/5 4/4/4 8/8/8
f 8/8/8 4/4/4 32/32/32
f 8/8/8 32/32/32 50/50/50
f 50/50/50 32/32/32 31/31/31
f 50/50/50 31/31/31 30/30/30
f 30/30/30 31/31/31 11/11/11
f 30/30/30 11/11/11 28/28/28
f 28/28/28 11/11/11 43/43/43
f 28/28/28 43/43/43 29/29/29
f 29/29/29 43/43/43 45/45/45
f 29/29/29 45/45/45 53/53/53
f 53/53/53 45/45/45 47/47/47
f 53/53/53 47/47/47 52/52/52
f 52/52/52 47/47/47 49/49/49
f 52/52/52 49/49/49 51/51/51
f 56/56/56 57/57/57 6/6/6
f 6/6/6 57/57/57 58/58/58
f 6/6/6 58/58/58 4/4/4
f 4/4/4 58/58/58 57/57/57
f 4/4/4 57/57/57 33/33/33
f 33/33/33 57/57/57 40/40/40
f 33/33/33 40/40/40 54/54/54
f 54/54/54 40/40/40 42/42/42
f 54/54/54 42/42/42 55/55/55
f 55/55/55 42/42/42 41/41/41
f 55/55/55 41/41/41 21/21/21
f 21/21/21 41/41/41 39/39/39
f 21/21/21 39/39/39 19/19/19
f 19/19/19 39/39/39 13/13/13
f 19/19/19 13/13/13 17/17/17
f 17/17/17 13/13/13 12/12/12
f 17/17/17 12/12/12 59/59/59
usemtl texture00
v -1.758507 1.619732 11.047251
vt 0.390625 0.638367
vn -0.559055 -0.094488 0.826772
v -2.078641 3.192067 10.959238
vt 0.382812 0.541290
vn -0.511811 0.196850 0.834646
v -4.053980 3.087383 10.317478
vt 0.264313 0.574219
vn -0.527559 0.039370 0.850394
v -1.178543 -0.020195 11.614038
vt 0.430786 0.745514
vn -0.362205 -0.244094 0.897638
v 0.000000 0.957826 11.752985
vt 0.492188 0.686371
vn 0.000000 -0.433071 0.905512
v -2.897198 10.238520 10.643451
vt 0.357117 0.116058
vn -0.370079 0.299213 0.881890
v 0.000000 13.504774 9.104040
vt 0.492188 0.039062
vn 0.000000 0.590551 0.811024
v -3.717852 13.219982 8.400752
vt 0.273438 0.040161
vn -0.551181 0.456693 0.700787
v -3.275800 1.187391 10.279991
vt 0.319183 0.684143
vn -0.629921 -0.157480 0.763780
v -2.816706 -1.021709 10.152046
vt 0.351562 0.796875
vn -0.574803 -0.173228 0.803150
v 4.938084 8.412716 9.244616
vt 0.198090 0.231995
vn 0.748031 0.125984 0.653543
v 2.686397 8.366555 10.871633
vt 0.368652 0.221436
vn 0.456693 0.188976 0.874016
v 5.117159 6.991225 9.553477
vt 0.193054 0.305786
vn 0.755906 -0.031496 0.661417
v -2.278692 6.316955 10.578257
vt 0.340820 0.356445
vn -0.385827 -0.377953 0.842520
v -1.120862 5.778693 11.338183
vt 0.424805 0.377930
vn -0.551181 -0.393701 0.740157
v -2.475859 6.816476 11.475499
vt 0.380188 0.326813
vn -0.488189 -0.401575 0.779528
v 0.000000 6.778146 12.387411
vt 0.492188 0.335938
vn 0.000000 -0.031496 1.000000
v -2.686397 8.366555 10.871633
vt 0.368652 0.221436
vn -0.456693 0.188976 0.874016
v 7.164600 4.379871 -0.334531
vt 0.937500 0.500000
vn -0.763780 0.125984 -0.637795
v 6.756633 5.774572 2.331120
vt 0.869141 0.409180
vn -0.858268 0.393701 -0.338583
v 7.825843 6.798341 0.812897
vt 0.958984 0.310547
vn -0.803150 0.417323 -0.425197
v 7.825843 6.798341 0.812897
vt 0.958984 0.310547
vn 0.874016 -0.086614 0.480315
v 6.756633 5.774572 2.331120
vt 0.869141 0.409180
vn 0.984252 -0.031496 0.188976
v 6.375146 0.848608 2.331527
vt 0.847656 0.639648
vn 0.984252 -0.181102 0.094488
v 8.591175 6.158691 -0.860571
vt 0.987671 0.362366
vn -0.629921 0.291339 -0.724409
v 8.437007 3.764950 -1.082233
vt 0.987885 0.520813
vn -0.527559 -0.055118 -0.850394
v 7.209172 0.599260 0.735071
vt 0.914062 0.640625
vn -0.755906 -0.188976 -0.629921
v 4.053980 3.087383 10.317478
vt 0.264313 0.574219
vn 0.535433 0.047244 0.842520
v 2.078641 3.192067 10.959238
vt 0.382812 0.541290
vn 0.511811 0.196850 0.834646
v 1.758507 1.619732 11.047251
vt 0.390625 0.638367
vn 0.559055 -0.094488 0.826772
v 0.752747 3.599267 12.399635
vt 0.453125 0.502228
vn 0.724409 0.228346 0.653543
v 0.718662 1.934611 12.924860
vt 0.447540 0.635040
vn 0.653543 -0.267717 0.716535
v 0.000000 3.846143 12.800990
vt 0.492188 0.492188
vn 0.000000 0.370079 0.929134
v 1.178543 -0.020195 11.614038
vt 0.430786 0.745514
vn 0.362205 -0.244094 0.897638
v 2.816706 -1.021709 10.152046
vt 0.351562 0.796875
vn 0.574803 -0.173228 0.803150
v 3.275800 1.187391 10.279991
vt 0.319183 0.684143
vn 0.629921 -0.157480 0.763780
v 8.591175 6.158691 -0.860571
vt 0.987671 0.362366
vn 0.889764 -0.094488 0.440945
v 8.437007 3.764950 -1.082233
vt 0.987885 0.520813
vn 0.889764 -0.086614 0.456693
v 7.209172 0.599260 0.735071
vt 0.914062 0.640625
vn 0.881890 -0.070866 0.472441
v -8.437007 3.764950 -1.082233
vt 0.987885 0.520813
vn 0.527559 -0.055118 -0.850394
v -7.164600 4.379871 -0.334531
vt 0.937500 0.500000
vn 0.763780 0.125984 -0.637795
v -7.209172 0.599260 0.735071
vt 0.914062 0.640625
vn 0.755906 -0.188976 -0.629921
v 7.164600 4.379871 -0.334531
vt 0.011993 0.367188
vn 0.984252 -0.055118 0.181102
v 7.391919 9.099350 0.049304
vt 0.011993 0.203125
vn 0.992126 -0.015748 0.165354
v 6.756633 5.774572 2.331120
vt 0.041992 0.360352
vn 0.984252 -0.031496 0.188976
v -8.591175 6.158691 -0.860571
vt 0.987671 0.362366
vn 0.629921 0.291339 -0.724409
v -7.825843 6.798341 0.812897
vt 0.958984 0.310547
vn 0.803150 0.417323 -0.425197
v -6.756633 5.774572 2.331120
vt 0.869141 0.409180
vn 0.858268 0.393701 -0.338583
v -5.117159 6.991225 9.553477
vt 0.193054 0.305786
vn -0.755906 -0.031496 0.661417
v -4.938084 8.412716 9.244616
vt 0.198090 0.231995
vn -0.748031 0.125984 0.653543
v -6.342897 8.253627 6.693872
vt 0.114929 0.236603
vn -0.952756 0.047244 0.314961
v -8.437007 3.764950 -1.082233
vt 0.987885 0.520813
vn -0.889764 -0.086614 0.456693
v -7.209172 0.599260 0.735071
vt 0.914062 0.640625
vn -0.881890 -0.070866 0.472441
v -6.375146 0.848608 2.331527
vt 0.847656 0.639648
vn -0.984252 -0.173228 0.102362
v -8.591175 6.158691 -0.860571
vt 0.987671 0.362366
vn -0.889764 -0.094488 0.440945
v -7.825843 6.798341 0.812897
vt 0.958984 0.310547
vn -0.874016 -0.086614 0.480315
v -6.756633 5.774572 2.331120
vt 0.869141 0.409180
vn -0.984252 -0.039370 0.188976
v 4.278152 -1.200168 8.721021
vt 0.268951 0.796875
vn 0.803150 -0.251969 0.543307
v 4.666193 0.684162 8.591446
vt 0.209961 0.703125
vn 0.826772 -0.244094 0.511811
v 5.560785 2.512439 8.465132
vt 0.182281 0.615875
vn 0.826772 -0.236220 0.511811
v 5.541120 0.798738 6.396421
vt 0.120117 0.691406
vn 0.921260 -0.275591 0.275591
v 6.543734 3.346210 6.451429
vt 0.102844 0.519531
vn 0.968504 -0.102362 0.236220
v 6.375146 0.848608 2.331527
vt 0.025391 0.647461
vn 0.984252 -0.181102 0.094488
v 0.000000 5.693379 11.935530
vt 0.492188 0.406250
vn 0.000000 0.000000 1.000000
v 1.120862 5.778693 11.338183
vt 0.424805 0.377930
vn 0.551181 -0.393701 0.740157
v 2.475859 6.816476 11.475499
vt 0.380188 0.326813
vn 0.488189 -0.401575 0.779528
v 2.278692 6.316955 10.578257
vt 0.340820 0.356445
vn 0.385827 -0.377953 0.842520
v 4.451459 6.311597 9.650046
vt 0.226562 0.349609
vn 0.535433 -0.259843 0.803150
v 3.200289 5.426309 10.501245
vt 0.304688 0.410583
vn 0.314961 -0.086614 0.944882
v 0.706864 5.226830 11.559030
vt 0.454224 0.443054
vn 0.661417 0.157480 0.740157
v 1.439947 4.850541 10.603112
vt 0.403992 0.444183
vn 0.637795 0.047244 0.771654
v 2.201084 4.634165 10.351705
vt 0.343750 0.466797
vn 0.259843 0.039370 0.968504
v 4.459587 4.616855 9.603595
vt 0.225250 0.467438
vn 0.590551 -0.015748 0.811024
v 6.342897 8.253627 6.693872
vt 0.114929 0.236603
vn 0.952756 0.047244 0.314961
v 6.193711 11.646410 5.616121
vt 0.120117 0.102539
vn 0.905512 0.212598 0.370079
v 4.758746 9.736527 9.382748
vt 0.203125 0.158203
vn 0.748031 0.173228 0.645669
v 3.763473 13.219982 8.400752
vt 0.273438 0.040161
vn 0.551181 0.448819 0.708661
v 2.897198 10.238520 10.643451
vt 0.357117 0.116058
vn 0.370079 0.299213 0.881890
v 0.000000 10.541447 11.402155
vt 0.492188 0.117188
vn 0.000000 0.370079 0.929134
v -0.752747 3.599267 12.399635
vt 0.453125 0.502228
vn -0.724409 0.228346 0.653543
v -0.718662 1.934611 12.924860
vt 0.447540 0.635040
vn -0.653543 -0.267717 0.716535
v 0.000000 2.147278 13.351479
vt 0.492188 0.617188
vn 0.000000 -0.102362 1.000000
v -6.756633 5.774572 2.331120
vt 0.041992 0.360352
vn -0.984252 -0.039370 0.188976
v -6.375146 0.848608 2.331527
vt 0.025391 0.647461
vn -0.984252 -0.173228 0.102362
v -6.410804 3.346210 6.451429
vt 0.102844 0.519531
vn -0.976378 -0.125984 0.204724
v -5.541120 0.798738 6.396421
vt 0.120117 0.691406
vn -0.929134 -0.259843 0.275591
v -5.560785 2.512439 8.465132
vt 0.182281 0.615875
vn -0.834646 -0.251969 0.488189
v -4.666193 0.684162 8.591446
vt 0.209961 0.703125
vn -0.826772 -0.244094 0.511811
v -4.278152 -1.200168 8.721021
vt 0.268951 0.796875
vn -0.803150 -0.251969 0.543307
v -0.706864 5.226830 11.559030
vt 0.454224 0.443054
vn -0.661417 0.157480 0.740157
v -1.439947 4.850541 10.603112
vt 0.403992 0.444183
vn -0.637795 0.047244 0.771654
v -2.201084 4.634165 10.351705
vt 0.343750 0.466797
vn -0.259843 0.039370 0.968504
v -4.459587 4.616855 9.603595
vt 0.225250 0.467438
vn -0.582677 -0.007874 0.818898
v -5.856273 4.042324 8.218206
vt 0.149719 0.490875
vn -0.858268 0.023622 0.519685
v -5.438080 5.530169 8.613857
vt 0.157532 0.395813
vn -0.787402 -0.055118 0.614173
v -6.261880 5.770450 6.566742
vt 0.102844 0.381500
vn -0.960630 0.015748 0.275591
v -3.200289 5.426309 10.501245
vt 0.304688 0.410583
vn -0.314961 -0.086614 0.944882
v -4.451459 6.311597 9.650046
vt 0.226562 0.349609
vn -0.535433 -0.259843 0.803150
v -4.758746 9.736527 9.382748
vt 0.203125 0.158203
vn -0.740157 0.173228 0.645669
v -6.193711 11.646410 5.616121
vt 0.120117 0.102539
vn -0.905512 0.220472 0.370079
v -7.391919 9.099350 0.049304
vt 0.011993 0.203125
vn -0.992126 -0.015748 0.165354
v 0.000000 -0.092321 11.860963
vt 0.492188 0.745514
vn 0.000000 -0.181102 0.984252
v 5.737501 4.042324 8.218206
vt 0.149719 0.490875
vn 0.850394 0.031496 0.535433
v 6.261880 5.770450 6.566742
vt 0.102844 0.381500
vn 0.960630 0.023622 0.291339
v 5.438080 5.530169 8.613857
vt 0.157532 0.395813
vn 0.795276 -0.078740 0.606299
v 0.000000 8.409418 11.614853
vt 0.492188 0.218750
vn 0.000000 0.204724 0.984252
v -7.164600 4.379871 -0.334531
vt 0.011993 0.367188
vn -0.984252 -0.055118 0.181102
f 60/60/60 61/61/61 62/62/62
f 60/60/60 63/63/63 64/64/64
f 65/65/65 66/66/66 67/67/67
f 68/68/68 69/69/69 63/63/63
f 70/70/70 71/71/71 72/72/72
f 73/73/73 74/74/74 75/75/75
f 75/75/75 74/74/74 76/76/76
f 75/75/75 76/76/76 77/77/77
f 78/78/78 79/79/79 80/80/80
f 81/81/81 82/82/82 83/83/83
f 80/80/80 84/84/84 78/78/78
f 78/78/78 84/84/84 85/85/85
f 78/78/78 85/85/85 86/86/86
f 87/87/87 88/88/88 89/89/89
f 89/89/89 88/88/88 90/90/90
f 89/89/89 90/90/90 91/91/91
f 91/91/91 90/90/90 92/92/92
f 93/93/93 94/94/94 95/95/95
f 96/96/96 81/81/81 97/97/97
f 97/97/97 81/81/81 83/83/83
f 97/97/97 83/83/83 98/98/98
f 99/99/99 100/100/100 101/101/101
f 102/102/102 103/103/103 104/104/104
f 99/99/99 105/105/105 100/100/100
f 100/100/100 105/105/105 106/106/106
f 100/100/100 106/106/106 107/107/107
f 108/108/108 109/109/109 110/110/110
f 111/111/111 112/112/112 113/113/113
f 114/114/114 111/111/111 115/115/115
f 115/115/115 111/111/111 113/113/113
f 115/115/115 113/113/113 116/116/116
f 94/94/94 117/117/117 95/95/95
f 95/95/95 117/117/117 118/118/118
f 95/95/95 118/118/118 119/119/119
f 119/119/119 118/118/118 120/120/120
f 119/119/119 120/120/120 121/121/121
f 121/121/121 120/120/120 122/122/122
f 121/121/121 122/122/122 104/104/104
f 74/74/74 123/123/123 76/76/76
f 76/76/76 123/123/123 124/124/124
f 76/76/76 124/124/124 125/125/125
f 125/125/125 124/124/124 126/126/126
f 125/125/125 126/126/126 127/127/127
f 127/127/127 126/126/126 128/128/128
f 123/123/123 129/129/129 124/124/124
f 124/124/124 129/129/129 130/130/130
f 124/124/124 130/130/130 126/126/126
f 126/126/126 130/130/130 131/131/131
f 126/126/126 131/131/131 128/128/128
f 128/128/128 131/131/131 132/132/132
f 128/128/128 132/132/132 127/127/127
f 133/133/133 134/134/134 135/135/135
f 135/135/135 134/134/134 136/136/136
f 135/135/135 136/136/136 137/137/137
f 137/137/137 136/136/136 66/66/66
f 137/137/137 66/66/66 138/138/138
f 61/61/61 60/60/60 139/139/139
f 139/139/139 60/60/60 140/140/140
f 139/139/139 140/140/140 92/92/92
f 92/92/92 140/140/140 141/141/141
f 92/92/92 141/141/141 91/91/91
f 142/142/142 143/143/143 144/144/144
f 144/144/144 143/143/143 145/145/145
f 144/144/144 145/145/145 146/146/146
f 146/146/146 145/145/145 147/147/147
f 146/146/146 147/147/147 68/68/68
f 68/68/68 147/147/147 148/148/148
f 68/68/68 148/148/148 69/69/69
f 92/92/92 149/149/149 139/139/139
f 139/139/139 149/149/149 150/150/150
f 139/139/139 150/150/150 61/61/61
f 61/61/61 150/150/150 151/151/151
f 61/61/61 151/151/151 62/62/62
f 62/62/62 151/151/151 152/152/152
f 62/62/62 152/152/152 153/153/153
f 153/153/153 152/152/152 154/154/154
f 153/153/153 154/154/154 155/155/155
f 156/156/156 73/73/73 157/157/157
f 157/157/157 73/73/73 75/75/75
f 157/157/157 75/75/75 108/108/108
f 108/108/108 75/75/75 77/77/77
f 108/108/108 77/77/77 109/109/109
f 109/109/109 77/77/77 158/158/158
f 109/109/109 158/158/158 110/110/110
f 110/110/110 158/158/158 159/159/159
f 110/110/110 159/159/159 160/160/160
f 63/63/63 60/60/60 68/68/68
f 68/68/68 60/60/60 62/62/62
f 68/68/68 62/62/62 146/146/146
f 146/146/146 62/62/62 153/153/153
f 146/146/146 153/153/153 144/144/144
f 144/144/144 153/153/153 155/155/155
f 144/144/144 155/155/155 142/142/142
f 63/63/63 161/161/161 64/64/64
f 64/64/64 161/161/161 93/93/93
f 64/64/64 93/93/93 89/89/89
f 89/89/89 93/93/93 95/95/95
f 89/89/89 95/95/95 87/87/87
f 87/87/87 95/95/95 119/119/119
f 87/87/87 119/119/119 162/162/162
f 162/162/162 119/119/119 121/121/121
f 162/162/162 121/121/121 163/163/163
f 163/163/163 121/121/121 104/104/104
f 163/163/163 104/104/104 133/133/133
f 133/133/133 104/104/104 103/103/103
f 133/133/133 103/103/103 134/134/134
f 132/132/132 164/164/164 127/127/127
f 127/127/127 164/164/164 72/72/72
f 127/127/127 72/72/72 125/125/125
f 125/125/125 72/72/72 71/71/71
f 125/125/125 71/71/71 76/76/76
f 76/76/76 71/71/71 165/165/165
f 76/76/76 165/165/165 77/77/77
f 77/77/77 165/165/165 65/65/65
f 77/77/77 65/65/65 158/158/158
f 158/158/158 65/65/65 67/67/67
f 158/158/158 67/67/67 159/159/159
f 66/66/66 65/65/65 138/138/138
f 138/138/138 65/65/65 165/165/165
f 138/138/138 165/165/165 137/137/137
f 137/137/137 165/165/165 71/71/71
f 137/137/137 71/71/71 135/135/135
f 135/135/135 71/71/71 70/70/70
f 135/135/135 70/70/70 133/133/133
f 133/133/133 70/70/70 72/72/72
f 133/133/133 72/72/72 163/163/163
f 163/163/163 72/72/72 164/164/164
f 163/163/163 164/164/164 162/162/162
f 162/162/162 164/164/164 132/132/132
f 162/162/162 132/132/132 87/87/87
f 87/87/87 132/132/132 131/131/131
f 87/87/87 131/131/131 88/88/88
f 88/88/88 131/131/131 130/130/130
f 88/88/88 130/130/130 90/90/90
f 90/90/90 130/130/130 129/129/129
f 90/90/90 129/129/129 92/92/92
f 92/92/92 129/129/129 123/123/123
f 92/92/92 123/123/123 149/149/149
f 149/149/149 123/123/123 74/74/74
f 149/149/149 74/74/74 150/150/150
f 150/150/150 74/74/74 73/73/73
f 150/150/150 73/73/73 151/151/151
f 151/151/151 73/73/73 156/156/156
f 151/151/151 156/156/156 152/152/152
f 152/152/152 156/156/156 157/157/157
f 152/152/152 157/157/157 154/154/154
f 154/154/154 157/157/157 108/108/108
f 154/154/154 108/108/108 155/155/155
f 155/155/155 108/108/108 110/110/110
f 155/155/155 110/110/110 142/142/142
f 142/142/142 110/110/110 160/160/160
f 142/142/142 160/160/160 166/166/166
