mtllib 3585-0.mtl
g mesh00
usemtl texture00
v -2.557497 0.000000 17.912144
vt 0.808594 0.160156
vn -0.661417 0.000000 0.755906
v 1.278507 2.359546 17.912144
vt 0.941406 0.082031
vn 0.440945 0.748031 0.503937
v -1.278507 2.359546 17.912144
vt 0.863281 0.082031
vn -0.440945 0.748031 0.503937
v -1.524336 0.613979 32.130096
vt 0.589844 0.214844
vn -0.464567 0.889764 0.047244
v -2.881721 0.000000 31.038715
vt 0.527344 0.074219
vn -1.000000 0.000000 0.000000
v -4.395895 0.000000 32.130096
vt 0.589844 0.074219
vn -0.196850 0.944882 -0.275591
v 2.557497 0.000000 16.704500
vt 0.996094 0.160156
vn 0.661417 0.000000 -0.755906
v -1.278507 2.359546 16.704500
vt 0.863281 0.082031
vn -0.440945 0.748031 -0.503937
v 1.278507 2.359546 16.704500
vt 0.941406 0.082031
vn 0.440945 0.748031 -0.503937
v -3.792452 0.000000 29.906080
vt 0.808594 0.160156
vn -0.645669 0.000000 0.763780
v 1.813234 3.149792 29.906080
vt 0.941406 0.082031
vn 0.417323 0.763780 0.496063
v -1.813234 3.149792 29.906080
vt 0.863281 0.082031
vn -0.417323 0.763780 0.496063
v 3.792452 0.000000 27.723319
vt 0.996094 0.160156
vn 0.645669 0.000000 -0.763780
v -1.813234 3.149792 27.723319
vt 0.863281 0.082031
vn -0.417323 0.763780 -0.496063
v 1.813234 3.149792 27.723319
vt 0.941406 0.082031
vn 0.417323 0.763780 -0.496063
v 0.000000 1.644221 6.754559
vt 0.503906 0.636719
vn 0.000000 1.000000 -0.023622
v 0.000000 1.991469 16.862018
vt 0.503906 0.905945
vn 0.000000 1.000000 -0.023622
v 2.156331 0.000000 16.862018
vt 0.433594 0.905945
vn 1.000000 0.000000 -0.031496
v 0.000000 -1.644221 6.754559
vt 0.503906 0.636719
vn 0.000000 -1.000000 -0.023622
v 0.000000 -1.991469 16.862018
vt 0.503906 0.905945
vn 0.000000 -1.000000 -0.023622
v -2.156331 0.000000 16.862018
vt 0.574219 0.905945
vn -1.000000 0.000000 -0.031496
v 0.000000 0.000000 15.999415
vt 0.628906 0.308594
vn 0.000000 0.000000 -1.007874
v -7.307136 0.000000 20.042399
vt 0.542969 0.035156
vn -0.291339 0.000000 -0.960630
v -7.305200 0.906047 20.826243
vt 0.511719 0.035156
vn -0.291339 0.960630 0.000000
v 7.307136 0.000000 20.042399
vt 0.542969 0.582031
vn 0.291339 0.000000 -0.960630
v 7.305200 -0.906047 20.826243
vt 0.511719 0.582031
vn 0.291339 -0.960630 0.000000
v 14.445385 0.000000 21.996383
vt 0.292969 0.996094
vn -0.598425 0.000000 0.803150
v 14.469096 1.196405 20.863748
vt 0.292969 0.933594
vn -0.598425 0.803150 -0.015748
v 12.889110 0.006839 20.841245
vt 0.252350 0.933594
vn -1.000000 0.000000 -0.023622
v -14.445385 0.000000 21.996383
vt 0.292969 0.996094
vn -0.511811 -0.582677 0.629921
v -15.844387 0.000000 20.856247
vt 0.355469 0.933594
vn -0.511811 -0.582677 0.629921
v -14.469096 -1.196405 20.863748
vt 0.292969 0.933594
vn -0.511811 -0.582677 0.629921
v -14.445385 0.000000 21.996383
vt 0.292969 0.996094
vn 0.590551 0.000000 0.811024
v -14.469096 -1.196405 20.863748
vt 0.292969 0.933594
vn 0.606299 -0.803150 -0.007874
v -12.892013 -0.006839 20.871248
vt 0.252563 0.933594
vn 1.000000 0.000000 -0.015748
v 14.445385 0.000000 21.996383
vt 0.292969 0.996094
vn 0.511811 0.582677 0.629921
v 15.844387 0.000000 20.856247
vt 0.355469 0.933594
vn 0.511811 0.582677 0.629921
v 14.469096 1.196405 20.863748
vt 0.292969 0.933594
vn 0.511811 0.582677 0.629921
v -14.469096 -1.196405 20.863748
vt 0.292969 0.933594
vn -0.503937 -0.582677 -0.645669
v -15.844387 0.000000 20.856247
vt 0.355469 0.933594
vn -0.503937 -0.582677 -0.645669
v -14.471032 0.000000 19.779868
vt 0.292969 0.871094
vn -0.503937 -0.582677 -0.645669
v 2.557497 0.000000 17.912144
vt 0.996094 0.160156
vn 0.661417 0.000000 0.755906
v -1.278507 -2.359546 17.912144
vt 0.863281 0.082031
vn -0.440945 -0.748031 0.503937
v 1.278507 -2.359546 17.912144
vt 0.941406 0.082031
vn 0.440945 -0.748031 0.503937
v 7.282456 0.000000 21.718850
vt 0.003906 0.972656
vn 0.275591 0.000000 0.968504
v 7.305200 -0.906047 20.826243
vt 0.003906 0.933594
vn 0.291339 -0.960630 0.000000
v 15.533228 0.000000 20.852496
vt 0.246094 0.933594
vn 0.968504 0.000000 -0.267717
v -7.282456 0.000000 21.718850
vt 0.003906 0.972656
vn -0.275591 0.000000 0.968504
v -7.305200 0.906047 20.826243
vt 0.003906 0.933594
vn -0.291339 0.960630 0.000000
v -15.533228 0.000000 20.852496
vt 0.246094 0.933594
vn -0.968504 0.000000 -0.267717
v 0.000000 1.990226 31.038715
vt 0.527344 0.304657
vn 0.000000 0.984252 0.181102
v 1.524336 0.613979 32.130096
vt 0.589844 0.394531
vn 0.464567 0.889764 0.047244
v 2.881721 0.000000 31.038715
vt 0.527344 0.535156
vn 1.000000 0.000000 0.000000
v 4.395895 0.000000 32.130096
vt 0.589844 0.535156
vn 0.196850 0.944882 -0.275591
v 0.000000 -1.990226 31.038715
vt 0.527344 0.304688
vn 0.000000 -0.984252 0.181102
v 1.524336 -0.613979 32.130096
vt 0.589844 0.394531
vn 0.464567 -0.889764 0.047244
v 4.395895 0.000000 32.130096
vt 0.589844 0.535156
vn 0.196850 -0.944882 -0.275591
v -14.471032 0.000000 19.779868
vt 0.292969 0.871094
vn 0.566929 0.000000 -0.826772
v -14.469096 1.196405 20.863748
vt 0.292969 0.933594
vn 0.606299 0.795276 -0.007874
v 14.469096 1.196405 20.863748
vt 0.292969 0.933594
vn 0.503937 0.582677 -0.645669
v 15.844387 0.000000 20.856247
vt 0.355469 0.933594
vn 0.503937 0.582677 -0.645669
v 14.471032 0.000000 19.779868
vt 0.292969 0.871094
vn 0.503937 0.582677 -0.645669
v 14.469096 -1.196405 20.863748
vt 0.292969 0.933594
vn 0.511811 -0.582677 0.629921
v 15.844387 0.000000 20.856247
vt 0.355469 0.933594
vn 0.511811 -0.582677 0.629921
v 14.445385 0.000000 21.996383
vt 0.292969 0.996094
vn 0.511811 -0.582677 0.629921
v -14.469096 1.196405 20.863748
vt 0.292969 0.933594
vn -0.511811 0.582677 0.629921
v -15.844387 0.000000 20.856247
vt 0.355469 0.933594
vn -0.511811 0.582677 0.629921
v -14.445385 0.000000 21.996383
vt 0.292969 0.996094
vn -0.511811 0.582677 0.629921
v 0.000000 1.740126 32.130096
vt 0.589844 0.304688
vn 0.000000 0.976378 0.220472
v -2.557497 0.000000 16.704500
vt 0.808594 0.160156
vn -0.661417 0.000000 -0.755906
v 1.278507 -2.359546 16.704500
vt 0.941406 0.082031
vn 0.440945 -0.748031 -0.503937
v -1.278507 -2.359546 16.704500
vt 0.863281 0.082031
vn -0.440945 -0.748031 -0.503937
v -1.383033 2.046650 -5.408147
vt 0.535156 0.996094
vn -0.472441 0.850394 -0.244094
v -2.766065 0.000000 -5.408147
vt 0.582031 0.996094
vn -1.000000 0.000000 0.000000
v 0.000000 0.000000 -2.974106
vt 0.503906 0.902344
vn 0.000000 0.000000 1.000000
v -1.383033 -2.046650 -5.408147
vt 0.535156 0.996094
vn -0.472441 -0.858268 -0.220472
v 1.383033 -2.046650 -5.408147
vt 0.472656 0.996094
vn 0.472441 -0.858268 -0.212598
v 2.766065 0.000000 -5.408147
vt 0.425781 0.996094
vn 1.000000 0.000000 0.007874
v 1.383033 2.046650 -5.408147
vt 0.472656 0.996094
vn 0.472441 0.850394 -0.236220
v 0.000000 5.093231 20.848746
vt 0.511719 0.308594
vn 0.000000 0.984252 -0.196850
v -3.173523 2.983318 20.803740
vt 0.511719 0.191406
vn -0.574803 0.818898 0.078740
v 0.000000 -5.093386 20.848746
vt 0.511719 0.308594
vn 0.000000 -0.984252 -0.196850
v 3.173523 -2.983318 20.803740
vt 0.511719 0.433594
vn 0.574803 -0.818898 0.078740
v 0.000000 -1.740126 32.130096
vt 0.589844 0.304688
vn 0.000000 -0.976378 0.220472
v -1.524336 -0.613979 32.130096
vt 0.589844 0.214844
vn -0.464567 -0.889764 0.047244
v -4.395895 0.000000 32.130096
vt 0.589844 0.074219
vn -0.196850 -0.944882 -0.275591
v -7.307136 0.000000 20.042399
vt 0.003906 0.894531
vn -0.291339 0.000000 -0.960630
v -7.305200 -0.906047 20.826243
vt 0.003906 0.933594
vn -0.291339 -0.960630 0.000000
v 14.471032 0.000000 19.779868
vt 0.292969 0.871094
vn 0.503937 -0.582677 -0.645669
v 15.844387 0.000000 20.856247
vt 0.355469 0.933594
vn 0.503937 -0.582677 -0.645669
v 14.469096 -1.196405 20.863748
vt 0.292969 0.933594
vn 0.503937 -0.582677 -0.645669
v -14.471032 0.000000 19.779868
vt 0.292969 0.871094
vn -0.503937 0.582677 -0.645669
v -15.844387 0.000000 20.856247
vt 0.355469 0.933594
vn -0.503937 0.582677 -0.645669
v -14.469096 1.196405 20.863748
vt 0.292969 0.933594
vn -0.503937 0.582677 -0.645669
v 3.792452 0.000000 29.906080
vt 0.996094 0.160156
vn 0.645669 0.000000 0.763780
v -1.813234 -3.149792 29.906080
vt 0.863281 0.082031
vn -0.417323 -0.763780 0.496063
v 1.813234 -3.149792 29.906080
vt 0.941406 0.082031
vn 0.417323 -0.763780 0.496063
v -3.792452 0.000000 27.723319
vt 0.808594 0.160156
vn -0.645669 0.000000 -0.763780
v 1.813234 -3.149792 27.723319
vt 0.941406 0.082031
vn 0.417323 -0.763780 -0.496063
v -1.813234 -3.149792 27.723319
vt 0.863281 0.082031
vn -0.417323 -0.763780 -0.496063
v 0.000000 2.207839 26.721949
vt 0.300781 0.308594
vn 0.000000 0.952756 0.322835
v 3.214656 0.000000 26.721949
vt 0.300781 0.449219
vn 0.937008 0.000000 0.362205
v 3.173523 2.983318 20.803740
vt 0.511719 0.433594
vn 0.574803 0.818898 0.078740
v 14.471032 0.000000 19.779868
vt 0.292969 0.871094
vn -0.559055 0.000000 -0.834646
v 14.469096 -1.196405 20.863748
vt 0.292969 0.933594
vn -0.606299 -0.795276 -0.015748
v 7.307136 0.000000 20.042399
vt 0.003906 0.894531
vn 0.291339 0.000000 -0.960630
v 7.305200 0.906047 20.826243
vt 0.003906 0.933594
vn 0.291339 0.960630 0.000000
v -1.383033 -2.046650 -5.408147
vt 0.597656 0.886719
vn -0.472441 -0.858268 -0.220472
v -1.400938 -0.043523 -6.608291
vt 0.691406 0.902344
vn -0.700787 0.000000 -0.716535
v 0.018389 -1.133763 -6.608291
vt 0.691406 0.949219
vn 0.000000 -0.811024 -0.582677
v 0.014034 -0.030466 -14.683008
vt 0.832031 0.996094
vn 0.000000 0.000000 -1.000000
v 0.000000 -2.207839 26.721949
vt 0.300781 0.308594
vn 0.000000 -0.952756 0.322835
v -3.214656 0.000000 26.721949
vt 0.300781 0.167969
vn -0.937008 0.000000 0.362205
v -3.173523 -2.983318 20.803740
vt 0.511719 0.191406
vn -0.574803 -0.818898 0.078740
v -7.282456 0.000000 21.718850
vt 0.472656 0.035156
vn -0.275591 0.000000 0.968504
v -4.755929 0.000000 22.900241
vt 0.433594 0.097656
vn -0.740157 0.000000 0.677165
v -7.305200 -0.906047 20.826243
vt 0.511719 0.035156
vn -0.291339 -0.960630 0.000000
v 7.282456 0.000000 21.718850
vt 0.472656 0.582031
vn 0.275591 0.000000 0.968504
v 4.755929 0.000000 22.900241
vt 0.433594 0.519531
vn 0.740157 0.000000 0.677165
v 7.305200 0.906047 20.826243
vt 0.511719 0.582031
vn 0.291339 0.960630 0.000000
v -1.871304 0.000000 6.754559
vt 0.574219 0.636719
vn -1.000000 0.000000 -0.023622
v 0.000000 -1.345314 -4.763070
vt 0.503906 0.903381
vn 0.000000 -1.000000 -0.023622
v 1.871304 0.000000 6.754559
vt 0.433594 0.636719
vn 1.000000 0.000000 -0.023622
v 1.574180 0.000000 -4.763070
vt 0.433594 0.903381
vn 1.000000 0.000000 -0.023622
v 0.000000 1.345314 -4.763070
vt 0.503906 0.903381
vn 0.000000 1.000000 -0.023622
v -1.574180 0.000000 -4.763070
vt 0.574219 0.903381
vn -1.000000 0.000000 -0.023622
v 0.000000 -2.207839 26.721949
vt 0.464844 0.304688
vn 0.000000 -0.952756 0.322835
v 3.214656 0.000000 26.721949
vt 0.464844 0.535156
vn 0.937008 0.000000 0.362205
v 0.000000 2.207839 26.721949
vt 0.464844 0.304688
vn 0.000000 0.952756 0.322835
v -3.214656 0.000000 26.721949
vt 0.464844 0.074219
vn -0.937008 0.000000 0.362205
v -1.813234 3.149792 29.906080
vt 0.871094 0.003906
vn -0.417323 0.763780 0.496063
v 1.813234 3.149792 29.906080
vt 0.933594 0.003906
vn 0.417323 0.763780 0.496063
v 1.813234 3.149792 27.723319
vt 0.933594 0.074219
vn 0.417323 0.763780 -0.496063
v 3.792452 0.000000 29.906080
vt 0.996094 0.003906
vn 0.645669 0.000000 0.763780
v 3.792452 0.000000 27.723319
vt 0.996094 0.074219
vn 0.645669 0.000000 -0.763780
v 1.813234 -3.149792 29.906080
vt 0.933594 0.003906
vn 0.417323 -0.763780 0.496063
v 1.813234 -3.149792 27.723319
vt 0.933594 0.074219
vn 0.417323 -0.763780 -0.496063
v -1.813234 -3.149792 27.723319
vt 0.871094 0.074219
vn -0.417323 -0.763780 -0.496063
v -1.813234 3.149792 27.723319
vt 0.871094 0.074219
vn -0.417323 0.763780 -0.496063
v -3.792452 0.000000 27.723319
vt 0.808594 0.074219
vn -0.645669 0.000000 -0.763780
v -3.792452 0.000000 29.906080
vt 0.808594 0.003906
vn -0.645669 0.000000 0.763780
v -1.813234 -3.149792 29.906080
vt 0.871094 0.003906
vn -0.417323 -0.763780 0.496063
v 0.018389 1.046407 -6.608291
vt 0.691406 0.949219
vn 0.000000 0.803150 -0.598425
v 1.438683 -0.043523 -6.608291
vt 0.691406 0.996094
vn 0.708661 0.000000 -0.708661
v 1.383033 -2.046650 -5.408147
vt 0.597656 0.949219
vn 0.472441 -0.858268 -0.212598
v -2.766065 0.000000 -5.408147
vt 0.597656 0.839844
vn -1.000000 0.000000 0.000000
v -1.383033 2.046650 -5.408147
vt 0.597656 0.886719
vn -0.472441 0.850394 -0.244094
v 1.383033 2.046650 -5.408147
vt 0.597656 0.949219
vn 0.472441 0.850394 -0.236220
v 2.766065 0.000000 -5.408147
vt 0.597656 0.996094
vn 1.000000 0.000000 0.007874
v -2.557497 0.000000 16.704500
vt 0.808594 0.074219
vn -0.661417 0.000000 -0.755906
v -1.278507 2.359546 17.912144
vt 0.871094 0.003906
vn -0.440945 0.748031 0.503937
v -1.278507 2.359546 16.704500
vt 0.871094 0.074219
vn -0.440945 0.748031 -0.503937
v 1.278507 2.359546 17.912144
vt 0.933594 0.003906
vn 0.440945 0.748031 0.503937
v 1.278507 2.359546 16.704500
vt 0.933594 0.074219
vn 0.440945 0.748031 -0.503937
v 2.557497 0.000000 17.912144
vt 0.996094 0.003906
vn 0.661417 0.000000 0.755906
v 2.557497 0.000000 16.704500
vt 0.996094 0.074219
vn 0.661417 0.000000 -0.755906
v 1.278507 -2.359546 17.912144
vt 0.933594 0.003906
vn 0.440945 -0.748031 0.503937
v 1.278507 -2.359546 16.704500
vt 0.933594 0.074219
vn 0.440945 -0.748031 -0.503937
v -1.278507 -2.359546 17.912144
vt 0.871094 0.003906
vn -0.440945 -0.748031 0.503937
v -1.278507 -2.359546 16.704500
vt 0.871094 0.074219
vn -0.440945 -0.748031 -0.503937
v -2.557497 0.000000 17.912144
vt 0.808594 0.003906
vn -0.661417 0.000000 0.755906
f 1/1/1 2/2/2 3/3/3
f 4/4/4 5/5/5 6/6/6
f 7/7/7 8/8/8 9/9/9
f 10/10/10 11/11/11 12/12/12
f 13/13/13 14/14/14 15/15/15
f 16/16/16 17/17/17 18/18/18
f 19/19/19 20/20/20 21/21/21
f 22/22/22 23/23/23 24/24/24
f 22/22/22 25/25/25 26/26/26
f 27/27/27 28/28/28 29/29/29
f 30/30/30 31/31/31 32/32/32
f 33/33/33 34/34/34 35/35/35
f 36/36/36 37/37/37 38/38/38
f 39/39/39 40/40/40 41/41/41
f 2/2/2 1/1/1 42/42/42
f 42/42/42 1/1/1 43/43/43
f 42/42/42 43/43/43 44/44/44
f 45/45/45 46/46/46 47/47/47
f 48/48/48 49/49/49 50/50/50
f 51/51/51 52/52/52 53/53/53
f 53/53/53 52/52/52 54/54/54
f 55/55/55 53/53/53 56/56/56
f 56/56/56 53/53/53 57/57/57
f 34/34/34 58/58/58 35/35/35
f 35/35/35 58/58/58 59/59/59
f 35/35/35 59/59/59 33/33/33
f 60/60/60 61/61/61 62/62/62
f 63/63/63 64/64/64 65/65/65
f 66/66/66 67/67/67 68/68/68
f 5/5/5 4/4/4 51/51/51
f 51/51/51 4/4/4 69/69/69
f 51/51/51 69/69/69 52/52/52
f 8/8/8 7/7/7 70/70/70
f 70/70/70 7/7/7 71/71/71
f 70/70/70 71/71/71 72/72/72
f 73/73/73 74/74/74 75/75/75
f 75/75/75 74/74/74 76/76/76
f 75/75/75 76/76/76 77/77/77
f 77/77/77 78/78/78 75/75/75
f 75/75/75 78/78/78 79/79/79
f 75/75/75 79/79/79 73/73/73
f 80/80/80 22/22/22 81/81/81
f 82/82/82 22/22/22 83/83/83
f 56/56/56 84/84/84 55/55/55
f 55/55/55 84/84/84 85/85/85
f 55/55/55 85/85/85 5/5/5
f 5/5/5 85/85/85 86/86/86
f 49/49/49 87/87/87 50/50/50
f 50/50/50 87/87/87 88/88/88
f 50/50/50 88/88/88 48/48/48
f 89/89/89 90/90/90 91/91/91
f 92/92/92 93/93/93 94/94/94
f 11/11/11 10/10/10 95/95/95
f 95/95/95 10/10/10 96/96/96
f 95/95/95 96/96/96 97/97/97
f 14/14/14 13/13/13 98/98/98
f 98/98/98 13/13/13 99/99/99
f 98/98/98 99/99/99 100/100/100
f 101/101/101 102/102/102 103/103/103
f 28/28/28 104/104/104 29/29/29
f 29/29/29 104/104/104 105/105/105
f 29/29/29 105/105/105 27/27/27
f 46/46/46 106/106/106 47/47/47
f 47/47/47 106/106/106 107/107/107
f 47/47/47 107/107/107 45/45/45
f 108/108/108 109/109/109 110/110/110
f 110/110/110 109/109/109 111/111/111
f 112/112/112 113/113/113 114/114/114
f 22/22/22 24/24/24 81/81/81
f 81/81/81 24/24/24 115/115/115
f 81/81/81 115/115/115 116/116/116
f 116/116/116 115/115/115 117/117/117
f 22/22/22 26/26/26 83/83/83
f 83/83/83 26/26/26 118/118/118
f 83/83/83 118/118/118 119/119/119
f 119/119/119 118/118/118 120/120/120
f 17/17/17 16/16/16 21/21/21
f 21/21/21 16/16/16 121/121/121
f 21/21/21 121/121/121 19/19/19
f 19/19/19 121/121/121 122/122/122
f 19/19/19 122/122/122 123/123/123
f 123/123/123 122/122/122 124/124/124
f 123/123/123 124/124/124 125/125/125
f 20/20/20 19/19/19 18/18/18
f 18/18/18 19/19/19 123/123/123
f 18/18/18 123/123/123 16/16/16
f 16/16/16 123/123/123 125/125/125
f 16/16/16 125/125/125 121/121/121
f 121/121/121 125/125/125 126/126/126
f 121/121/121 126/126/126 122/122/122
f 55/55/55 127/127/127 53/53/53
f 53/53/53 127/127/127 128/128/128
f 53/53/53 128/128/128 51/51/51
f 51/51/51 128/128/128 129/129/129
f 51/51/51 129/129/129 5/5/5
f 5/5/5 129/129/129 130/130/130
f 5/5/5 130/130/130 55/55/55
f 55/55/55 130/130/130 127/127/127
f 131/131/131 132/132/132 133/133/133
f 133/133/133 132/132/132 134/134/134
f 133/133/133 134/134/134 135/135/135
f 135/135/135 134/134/134 136/136/136
f 135/135/135 136/136/136 137/137/137
f 137/137/137 136/136/136 138/138/138
f 133/133/133 139/139/139 131/131/131
f 131/131/131 139/139/139 140/140/140
f 131/131/131 140/140/140 141/141/141
f 141/141/141 140/140/140 138/138/138
f 141/141/141 138/138/138 142/142/142
f 142/142/142 138/138/138 136/136/136
f 109/109/109 143/143/143 111/111/111
f 111/111/111 143/143/143 144/144/144
f 111/111/111 144/144/144 110/110/110
f 110/110/110 144/144/144 145/145/145
f 110/110/110 145/145/145 108/108/108
f 108/108/108 146/146/146 109/109/109
f 109/109/109 146/146/146 147/147/147
f 109/109/109 147/147/147 143/143/143
f 143/143/143 147/147/147 148/148/148
f 143/143/143 148/148/148 144/144/144
f 144/144/144 148/148/148 149/149/149
f 144/144/144 149/149/149 145/145/145
f 150/150/150 151/151/151 152/152/152
f 152/152/152 151/151/151 153/153/153
f 152/152/152 153/153/153 154/154/154
f 154/154/154 153/153/153 155/155/155
f 154/154/154 155/155/155 156/156/156
f 156/156/156 155/155/155 157/157/157
f 156/156/156 157/157/157 158/158/158
f 158/158/158 157/157/157 159/159/159
f 158/158/158 159/159/159 160/160/160
f 160/160/160 159/159/159 161/161/161
f 160/160/160 161/161/161 150/150/150
f 150/150/150 161/161/161 151/151/151
f 23/23/23 22/22/22 114/114/114
f 114/114/114 22/22/22 82/82/82
f 114/114/114 82/82/82 112/112/112
f 112/112/112 82/82/82 83/83/83
f 112/112/112 83/83/83 102/102/102
f 102/102/102 83/83/83 119/119/119
f 102/102/102 119/119/119 103/103/103
f 103/103/103 119/119/119 120/120/120
f 103/103/103 120/120/120 25/25/25
f 25/25/25 22/22/22 103/103/103
f 103/103/103 22/22/22 80/80/80
f 103/103/103 80/80/80 101/101/101
f 101/101/101 80/80/80 81/81/81
f 101/101/101 81/81/81 113/113/113
f 113/113/113 81/81/81 116/116/116
f 113/113/113 116/116/116 114/114/114
f 114/114/114 116/116/116 117/117/117
f 114/114/114 117/117/117 23/23/23
g mesh01
g mesh02
