mtllib 3535-0.mtl
g mesh00
usemtl texture00
v 0.040736 -3.267890 59.348655
vt 0.167969 0.192993
vn 0.000000 -1.000000 0.000000
v -3.215146 0.003726 64.247590
vt 0.332031 0.003906
vn -1.000000 0.000000 0.000000
v -3.243959 0.003571 59.348655
vt 0.332031 0.192993
vn -1.000000 0.000000 0.000000
v 0.026826 -2.313604 20.786991
vt 0.839233 0.914429
vn 0.000000 -1.000000 0.000000
v 0.032787 -2.232722 -4.702294
vt 0.599121 0.914062
vn 0.000000 -1.000000 0.000000
v 2.368637 0.025771 20.789841
vt 0.839233 0.861084
vn 1.000000 0.000000 0.000000
v 18.607311 -1.190412 34.722882
vt 0.590149 0.628906
vn -1.000000 0.000000 -0.110236
v 18.607311 1.419398 34.722882
vt 0.590149 0.628906
vn -1.000000 0.000000 -0.110236
v 16.886473 0.079640 30.074735
vt 0.621094 0.707031
vn -0.944882 0.000000 0.346457
v 18.347993 1.419398 64.626624
vt 0.573578 0.107361
vn -1.000000 0.000000 0.055118
v 18.347993 -1.190412 64.626624
vt 0.573578 0.107361
vn -1.000000 0.000000 0.055118
v 16.657955 0.079640 68.012276
vt 0.621094 0.011719
vn -0.897638 0.000000 -0.448819
v 7.481474 2.979291 52.691346
vt 0.746094 0.300781
vn 0.086614 0.937008 0.354331
v 3.793396 0.038811 56.837915
vt 0.800781 0.207031
vn 0.188976 0.716535 0.677165
v 7.491410 0.092060 55.809109
vt 0.746094 0.230469
vn 0.078740 0.748031 0.669291
v -10.097507 0.085384 44.968184
vt 0.173767 0.990540
vn 0.393701 0.000000 -0.921260
v -10.066706 -4.916584 50.009613
vt 0.173767 0.856232
vn 0.748031 -0.661417 -0.007874
v -13.419957 0.083987 46.071085
vt 0.039185 0.942780
vn -0.866142 0.000000 -0.503937
v -13.427905 -4.143933 49.998214
vt 0.038910 0.856232
vn -0.724409 -0.692913 -0.007874
v -10.097507 0.080882 55.569720
vt 0.173767 0.721924
vn 0.346457 0.000000 0.937008
v -10.066706 5.086886 50.009613
vt 0.173767 0.856232
vn 0.748031 0.661417 -0.007874
v -13.419957 0.102927 53.931042
vt 0.039185 0.769684
vn -0.881890 0.000000 0.472441
v -13.427905 4.312063 49.998214
vt 0.038910 0.856232
vn -0.724409 0.692913 -0.007874
v -10.097507 0.085384 44.968184
vt 0.152344 0.660156
vn 0.393701 0.000000 -0.921260
v -10.066706 5.086886 50.009613
vt 0.074219 0.574219
vn 0.748031 0.661417 -0.007874
v -10.066706 -4.916584 50.009613
vt 0.074219 0.730469
vn 0.748031 -0.661417 -0.007874
v -10.097507 0.080882 55.569720
vt 0.003906 0.660156
vn 0.346457 0.000000 0.937008
v 3.305560 0.023908 64.250440
vt 0.332031 0.003906
vn 1.000000 0.000000 0.000000
v 3.335366 0.023908 59.351505
vt 0.332031 0.192993
vn 1.000000 0.000000 0.000000
v 0.042723 3.268356 64.250440
vt 0.167969 0.003906
vn 0.000000 1.000000 0.000000
v 3.305560 0.023908 64.250440
vt 0.248993 0.560089
vn 1.000000 0.000000 0.110236
v 0.042723 3.268356 64.250440
vt 0.132751 0.560089
vn 0.000000 1.000000 0.110236
v 0.026826 0.042382 93.381866
vt 0.132782 0.287598
vn 0.000000 0.000000 1.000000
v -3.215146 0.003726 64.247590
vt 0.008698 0.560089
vn -1.000000 0.000000 0.110236
v 0.040736 -3.238239 64.247590
vt 0.132751 0.560089
vn 0.000000 -1.000000 0.110236
v 0.042723 3.298008 59.351505
vt 0.167969 0.192993
vn 0.000000 1.000000 0.000000
v -3.243959 0.003571 59.348655
vt 0.003906 0.192993
vn -1.000000 0.000000 0.000000
v -3.215146 0.003726 64.247590
vt 0.003906 0.003906
vn -1.000000 0.000000 0.000000
v 0.040736 -3.238239 64.247590
vt 0.167969 0.003906
vn 0.000000 -1.000000 0.000000
v 3.335366 0.023908 59.351505
vt 0.003906 0.192993
vn 1.000000 0.000000 0.000000
v 3.305560 0.023908 64.250440
vt 0.003906 0.003906
vn 1.000000 0.000000 0.000000
v 5.624519 -0.379572 61.930642
vt 0.400513 0.838928
vn 0.716535 -0.338583 -0.606299
v 5.622532 0.720644 62.606062
vt 0.396606 0.878418
vn 0.692913 0.724409 0.000000
v 5.620545 -0.379727 63.278633
vt 0.400513 0.897156
vn 0.716535 -0.338583 0.614173
v 0.026826 0.025771 37.985989
vt 0.839844 0.738281
vn 0.000000 0.000000 -1.000000
v -4.207708 0.034309 38.983445
vt 0.878906 0.824219
vn -0.708661 0.000000 -0.708661
v 0.027820 4.825300 38.983445
vt 0.878906 0.738281
vn 0.000000 0.677165 -0.740157
v 21.212414 0.079640 31.570919
vt 0.535156 0.691406
vn 0.141732 0.952756 -0.283465
v 16.886473 0.079640 30.074735
vt 0.621094 0.707031
vn 0.102362 0.944882 -0.307087
v 18.607311 1.419398 34.722882
vt 0.590149 0.628906
vn -0.047244 0.968504 -0.244094
v -5.556957 -0.379727 63.278633
vt 0.400513 0.838928
vn -0.716535 -0.338583 0.614173
v -5.558944 0.720644 62.606062
vt 0.407410 0.878418
vn -0.692913 0.724409 0.000000
v -5.560931 -0.379572 61.933492
vt 0.400513 0.897156
vn -0.716535 -0.338583 -0.606299
v 3.937461 0.025771 19.940578
vt 0.955505 0.507080
vn 0.984252 0.000000 0.181102
v 0.026826 -3.206103 19.940578
vt 0.954224 0.585510
vn 0.000000 -0.992126 0.149606
v 0.026826 0.025771 15.110039
vt 0.987244 0.586823
vn 0.000000 0.000000 -1.007874
v 0.026826 0.025771 22.827502
vt 0.912720 0.585114
vn 0.000000 0.000000 1.000000
v 0.026826 3.257799 19.940578
vt 0.954224 0.585510
vn 0.000000 0.992126 0.149606
v -3.882816 0.025771 19.940578
vt 0.951996 0.662872
vn -0.984252 0.000000 0.181102
v 0.043716 0.019561 58.932573
vt 0.839844 0.738281
vn 0.000000 0.000000 1.000000
v -4.475968 0.027323 60.263465
vt 0.878906 0.824219
vn 0.283465 0.000000 0.960630
v 0.027820 -4.905872 60.263465
vt 0.878906 0.738281
vn 0.000000 0.259843 0.968504
v -2.237487 -0.100133 -4.702294
vt 0.599121 0.996094
vn -1.000000 -0.007874 0.000000
v 4.532601 0.009936 60.263465
vt 0.878906 0.652344
vn -0.283465 0.000000 0.960630
v 0.027820 4.883982 60.263465
vt 0.878906 0.738281
vn 0.000000 -0.259843 0.968504
v 4.418342 0.040208 38.983445
vt 0.878906 0.652344
vn 0.708661 0.000000 -0.708661
v 0.027820 -4.865198 38.983445
vt 0.878906 0.738281
vn 0.000000 -0.669291 -0.748031
v 18.347993 1.419398 64.626624
vt 0.573578 0.107361
vn -0.086614 0.960630 0.275591
v 16.657955 0.079640 68.012276
vt 0.621094 0.011719
vn 0.023622 0.929134 0.377953
v 20.610319 0.079640 67.761487
vt 0.558594 0.027344
vn 0.078740 0.937008 0.338583
v 0.026826 -3.206103 -7.187386
vt 0.954224 0.585510
vn 0.000000 -0.944882 -0.338583
v 0.026826 0.025771 -9.376090
vt 0.912720 0.585114
vn 0.000000 0.000000 -1.007874
v 3.937461 0.025771 -7.187386
vt 0.955505 0.507080
vn 0.921260 0.000000 -0.393701
v 0.026826 3.257799 -7.187386
vt 0.954224 0.585510
vn 0.000000 0.944882 -0.338583
v -3.882816 0.025771 -7.187386
vt 0.951996 0.662872
vn -0.921260 0.000000 -0.393701
v 0.032787 0.031204 0.552876
vt 0.987244 0.586823
vn 0.000000 0.000000 1.000000
v -5.303600 -2.575656 50.126458
vt 0.269531 0.964844
vn -0.283465 -0.960630 0.000000
v -5.302607 0.025771 46.153732
vt 0.339844 0.957031
vn -0.472441 -0.007874 -0.881890
v -3.794389 0.025771 44.432407
vt 0.363281 0.988281
vn -0.598425 -0.007874 -0.803150
v -5.303600 2.782442 50.126458
vt 0.269531 0.964844
vn -0.291339 0.960630 0.000000
v -1.092911 3.460704 50.126458
vt 0.269531 0.988281
vn -0.157480 0.992126 0.000000
v -3.794389 0.025771 55.866107
vt 0.183594 0.988281
vn -0.614173 -0.007874 0.787402
v -1.092911 -3.272703 50.126458
vt 0.269531 0.988281
vn -0.157480 -0.992126 0.000000
v -5.302607 0.025771 54.007988
vt 0.214844 0.957031
vn -0.496063 -0.007874 0.874016
v 7.491410 0.092060 55.809109
vt 0.746094 0.230469
vn 0.078740 0.748031 0.669291
v 13.963432 2.496792 53.204323
vt 0.675781 0.292969
vn -0.007874 0.992126 0.165354
v 13.971380 2.496792 46.512816
vt 0.675781 0.425781
vn -0.007874 0.992126 -0.165354
v 7.481474 2.979291 47.213885
vt 0.746094 0.417969
vn 0.078740 0.937008 -0.338583
v 26.631267 0.079640 64.925861
vt 0.473511 0.085632
vn 0.133858 -0.984252 0.125984
v 13.963432 -2.232877 53.204323
vt 0.675781 0.292969
vn -0.007874 -0.992126 0.165354
v 31.093326 0.079640 58.399646
vt 0.370117 0.204041
vn 0.118110 -0.992126 0.047244
v 32.555840 0.079640 50.001063
vt 0.332031 0.371094
vn 0.125984 -0.992126 0.000000
v 26.631267 0.079640 64.925861
vt 0.473511 0.085632
vn 0.133858 0.984252 0.133858
v 12.951992 0.101530 56.299288
vt 0.675781 0.214844
vn -0.362205 0.779528 0.511811
v 12.972857 0.101530 43.423551
vt 0.675781 0.496094
vn -0.842520 0.000000 -0.543307
v 12.951992 0.101530 56.299288
vt 0.675781 0.214844
vn -0.842520 0.000000 0.543307
v 20.610319 0.079640 67.761487
vt 0.558594 0.027344
vn 0.078740 -0.944882 0.322835
v 16.657955 0.079640 68.012276
vt 0.621094 0.011719
vn 0.015748 -0.937008 0.362205
v 18.347993 -1.190412 64.626624
vt 0.573578 0.107361
vn -0.086614 -0.960630 0.267717
v -0.711386 1.526671 -7.902704
vt 0.636719 0.675781
vn -0.708661 0.598425 -0.377953
v -0.711386 0.031515 -10.279500
vt 0.730469 0.730469
vn -0.685039 0.000000 -0.732283
v -0.711386 -1.474820 -7.902704
vt 0.636719 0.730469
vn -0.708661 -0.598425 -0.377953
v 0.767025 0.031515 -10.279500
vt 0.730469 0.769531
vn 0.685039 0.000000 -0.732283
v 0.767025 -1.474820 -7.902704
vt 0.636719 0.769531
vn 0.708661 -0.598425 -0.377953
v 0.767025 1.526671 -7.902704
vt 0.636719 0.824219
vn 0.708661 0.598425 -0.377953
v -0.711386 1.526671 -7.902704
vt 0.636719 0.730469
vn -0.708661 0.598425 -0.377953
v 0.767025 1.526671 -7.902704
vt 0.636719 0.769531
vn 0.708661 0.598425 -0.377953
v -0.711386 0.031515 -10.279500
vt 0.691406 0.730469
vn -0.685039 0.000000 -0.732283
v 0.767025 0.031515 -10.279500
vt 0.691406 0.769531
vn 0.685039 0.000000 -0.732283
v 5.620545 -0.379727 63.278633
vt 0.589447 0.839355
vn 0.716535 -0.338583 0.614173
v -5.556957 -0.379727 63.278633
vt 0.402985 0.839355
vn -0.716535 -0.338583 0.614173
v 5.624519 -0.379572 61.930642
vt 0.589447 0.847137
vn 0.716535 -0.338583 -0.606299
v -5.303600 -2.575656 50.126458
vt 0.285156 0.957031
vn -0.283465 -0.960630 0.000000
v -11.101991 0.025771 53.740100
vt 0.214844 0.722656
vn -0.031496 -0.007874 1.000000
v -5.303600 2.782442 50.126458
vt 0.285156 0.957031
vn -0.291339 0.960630 0.000000
v -11.089075 2.692555 50.126458
vt 0.285156 0.722656
vn -0.023622 1.000000 0.000000
v -11.101991 0.025771 46.484317
vt 0.339844 0.722656
vn -0.039370 -0.007874 -1.000000
v -11.089075 -2.491980 50.126458
vt 0.285156 0.722656
vn -0.023622 -1.000000 0.000000
v 2.596161 0.025771 38.464768
vt 0.925781 0.687927
vn 1.000000 0.000000 0.000000
v 0.026826 2.365300 20.786991
vt 0.996094 0.993195
vn 0.000000 1.000000 0.000000
v 0.026826 2.365300 38.430569
vt 0.996094 0.687927
vn 0.000000 1.000000 0.000000
v -2.313991 0.025771 20.789841
vt 0.925781 0.993195
vn -1.000000 0.000000 0.000000
v -2.542509 0.025771 38.464768
vt 0.925781 0.687927
vn -1.000000 0.000000 0.000000
v 0.026826 -2.313604 20.786991
vt 0.996094 0.993195
vn 0.000000 -1.000000 0.000000
v 0.026826 -2.313604 38.430569
vt 0.996094 0.687927
vn 0.000000 -1.000000 0.000000
v 2.368637 0.025771 20.789841
vt 0.925781 0.993195
vn 1.000000 0.000000 0.000000
v -2.313991 0.025771 20.789841
vt 0.839233 0.967041
vn -1.000000 0.000000 0.000000
v 0.026826 2.365300 20.786991
vt 0.839233 0.914429
vn 0.000000 1.000000 0.000000
v 0.032787 2.298235 -4.702294
vt 0.599121 0.914062
vn 0.000000 1.000000 0.000000
v 2.304056 -0.100133 -4.702294
vt 0.599121 0.831238
vn 1.000000 -0.007874 0.000000
v 0.027820 -4.905872 60.263465
vt 0.928741 0.013245
vn 0.000000 -1.000000 0.000000
v 4.418342 0.040208 38.983445
vt 0.816681 0.469177
vn 0.708661 0.000000 -0.708661
v 4.532601 0.009936 60.263465
vt 0.817230 0.013245
vn 1.000000 0.000000 0.000000
v 0.027820 4.825300 38.983445
vt 0.926910 0.469177
vn 0.000000 0.677165 -0.740157
v 0.027820 4.883982 60.263465
vt 0.928741 0.013245
vn 0.000000 1.000000 0.000000
v -4.207708 0.034309 38.983445
vt 0.995026 0.469177
vn -0.708661 0.000000 -0.708661
v -4.475968 0.027323 60.263465
vt 0.994476 0.013245
vn -1.000000 0.000000 0.000000
v 0.027820 -4.865198 38.983445
vt 0.926910 0.469177
vn 0.000000 -0.669291 -0.748031
v 1.704942 -3.289314 46.222129
vt 0.800781 0.425781
vn 0.141732 -0.937008 -0.338583
v 3.749679 0.033222 42.867825
vt 0.800781 0.511719
vn 0.173228 -0.755906 -0.637795
v 7.481474 -2.738973 47.213885
vt 0.746094 0.417969
vn 0.086614 -0.944882 -0.330709
v 7.491410 0.092060 43.836783
vt 0.746094 0.488281
vn 0.070866 -0.771654 -0.629921
v 13.972374 -2.232877 46.512816
vt 0.675781 0.425781
vn -0.007874 -0.992126 -0.157480
v 12.972857 0.101530 43.423551
vt 0.675781 0.496094
vn -0.354331 -0.787402 -0.503937
v 18.607311 -1.190412 34.722882
vt 0.590149 0.628906
vn -0.055118 -0.976378 -0.236220
v 1.721832 -3.286209 53.856945
vt 0.800781 0.292969
vn 0.157480 -0.921260 0.354331
v 7.481474 -2.738973 52.691346
vt 0.746094 0.300781
vn 0.094488 -0.937008 0.346457
v 7.491410 0.092060 43.836783
vt 0.746094 0.488281
vn 0.062992 0.763780 -0.645669
v 12.972857 0.101530 43.423551
vt 0.675781 0.496094
vn -0.362205 0.779528 -0.503937
v 26.571654 0.079640 35.463849
vt 0.457031 0.644531
vn 0.157480 0.984252 -0.118110
v 31.093326 0.079640 58.399646
vt 0.370117 0.204041
vn 0.118110 0.992126 0.047244
v 32.555840 0.079640 50.001063
vt 0.332031 0.371094
vn 0.125984 0.992126 0.000000
v 30.703852 0.079640 41.519834
vt 0.371094 0.542969
vn 0.125984 0.992126 -0.055118
v 16.886473 0.079640 30.074735
vt 0.621094 0.707031
vn 0.102362 -0.952756 -0.299213
v 21.212414 0.079640 31.570919
vt 0.535156 0.691406
vn 0.133858 -0.952756 -0.267717
v 26.571654 0.079640 35.463849
vt 0.457031 0.644531
vn 0.149606 -0.984252 -0.110236
v 30.703852 0.079640 41.519834
vt 0.371094 0.542969
vn 0.118110 -0.992126 -0.047244
v 3.793396 0.038811 56.837915
vt 0.800781 0.207031
vn 0.196850 -0.724409 0.661417
v 7.491410 0.092060 55.809109
vt 0.746094 0.230469
vn 0.086614 -0.755906 0.653543
v 12.951992 0.101530 56.299288
vt 0.675781 0.214844
vn -0.354331 -0.787402 0.503937
v 1.721832 3.480730 53.856945
vt 0.800781 0.292969
vn 0.149606 0.921260 0.362205
v 1.704942 3.477625 46.222129
vt 0.800781 0.425781
vn 0.133858 0.929134 -0.346457
v 3.749679 0.033222 42.867825
vt 0.800781 0.511719
vn 0.165354 0.748031 -0.645669
v -5.560931 -0.379572 61.933492
vt 0.402985 0.847137
vn -0.716535 -0.338583 -0.606299
v -5.558944 0.720644 62.606062
vt 0.402985 0.878235
vn -0.692913 0.724409 0.000000
v 5.622532 0.720644 62.606062
vt 0.589447 0.878235
vn 0.692913 0.724409 0.000000
v -5.556957 -0.379727 63.278633
vt 0.402985 0.847137
vn -0.716535 -0.338583 0.614173
v 5.620545 -0.379727 63.278633
vt 0.589447 0.847137
vn 0.716535 -0.338583 0.614173
v -4.041785 0.757592 -8.603774
vt 0.832031 0.652344
vn -0.244094 0.944882 0.220472
v -2.840576 0.025771 -9.700976
vt 0.800781 0.675781
vn 0.755906 0.000000 -0.661417
v -3.508245 0.757592 -13.465661
vt 0.832031 0.769531
vn -0.393701 0.897638 -0.204724
v -2.540522 0.025771 -12.804490
vt 0.800781 0.738281
vn 0.905512 0.000000 0.440945
v 0.026826 0.757592 -16.737318
vt 0.785156 0.769531
vn 0.000000 0.929134 -0.370079
v 0.026826 0.025771 -15.152787
vt 0.785156 0.738281
vn 0.000000 0.000000 1.000000
v 3.572826 0.757592 -13.465661
vt 0.738281 0.769531
vn 0.401575 0.897638 -0.204724
v 2.605103 0.025771 -12.804490
vt 0.769531 0.738281
vn -0.897638 0.007874 0.440945
v 3.572826 -0.757747 -13.465661
vt 0.738281 0.769531
vn 0.385827 -0.897638 -0.204724
v 0.026826 -0.705740 -16.737318
vt 0.785156 0.769531
vn 0.000000 -0.929134 -0.370079
v -3.508245 -0.705740 -13.465661
vt 0.832031 0.769531
vn -0.401575 -0.897638 -0.204724
v -4.051720 -0.705740 -8.603774
vt 0.832031 0.652344
vn -0.244094 -0.944882 0.220472
v 2.905157 0.025771 -9.700976
vt 0.769531 0.675781
vn -0.763780 0.000000 -0.653543
v 4.105372 0.757592 -8.603774
vt 0.738281 0.652344
vn 0.244094 0.944882 0.220472
v 4.105372 -0.705740 -8.603774
vt 0.738281 0.652344
vn 0.236220 -0.944882 0.228346
v 3.572826 -0.757747 -13.465661
vt 0.738281 0.769531
vn 0.385827 -0.897638 -0.204724
f 1/1/1 2/2/2 3/3/3
f 4/4/4 5/5/5 6/6/6
f 7/7/7 8/8/8 9/9/9
f 10/10/10 11/11/11 12/12/12
f 13/13/13 14/14/14 15/15/15
f 16/16/16 17/17/17 18/18/18
f 18/18/18 17/17/17 19/19/19
f 20/20/20 21/21/21 22/22/22
f 22/22/22 21/21/21 23/23/23
f 24/24/24 25/25/25 26/26/26
f 26/26/26 25/25/25 27/27/27
f 28/28/28 29/29/29 30/30/30
f 31/31/31 32/32/32 33/33/33
f 32/32/32 34/34/34 33/33/33
f 33/33/33 34/34/34 35/35/35
f 33/33/33 35/35/35 31/31/31
f 29/29/29 36/36/36 30/30/30
f 30/30/30 36/36/36 37/37/37
f 30/30/30 37/37/37 38/38/38
f 2/2/2 1/1/1 39/39/39
f 39/39/39 1/1/1 40/40/40
f 39/39/39 40/40/40 41/41/41
f 42/42/42 43/43/43 44/44/44
f 45/45/45 46/46/46 47/47/47
f 48/48/48 49/49/49 50/50/50
f 51/51/51 52/52/52 53/53/53
f 54/54/54 55/55/55 56/56/56
f 57/57/57 58/58/58 59/59/59
f 60/60/60 61/61/61 62/62/62
f 5/5/5 4/4/4 63/63/63
f 62/62/62 64/64/64 60/60/60
f 60/60/60 64/64/64 65/65/65
f 60/60/60 65/65/65 61/61/61
f 47/47/47 66/66/66 45/45/45
f 45/45/45 66/66/66 67/67/67
f 45/45/45 67/67/67 46/46/46
f 68/68/68 69/69/69 70/70/70
f 71/71/71 72/72/72 73/73/73
f 74/74/74 75/75/75 76/76/76
f 77/77/77 78/78/78 79/79/79
f 79/79/79 78/78/78 80/80/80
f 79/79/79 80/80/80 81/81/81
f 81/81/81 80/80/80 82/82/82
f 79/79/79 83/83/83 77/77/77
f 77/77/77 83/83/83 82/82/82
f 77/77/77 82/82/82 84/84/84
f 84/84/84 82/82/82 80/80/80
f 85/85/85 86/86/86 13/13/13
f 13/13/13 86/86/86 87/87/87
f 13/13/13 87/87/87 88/88/88
f 89/89/89 90/90/90 91/91/91
f 91/91/91 90/90/90 92/92/92
f 70/70/70 93/93/93 68/68/68
f 68/68/68 93/93/93 86/86/86
f 68/68/68 86/86/86 94/94/94
f 94/94/94 86/86/86 85/85/85
f 8/8/8 7/7/7 95/95/95
f 11/11/11 10/10/10 96/96/96
f 97/97/97 98/98/98 99/99/99
f 100/100/100 101/101/101 102/102/102
f 102/102/102 101/101/101 103/103/103
f 102/102/102 103/103/103 104/104/104
f 104/104/104 103/103/103 105/105/105
f 106/106/106 107/107/107 108/108/108
f 108/108/108 107/107/107 109/109/109
f 110/110/110 111/111/111 112/112/112
f 17/17/17 20/20/20 19/19/19
f 19/19/19 20/20/20 22/22/22
f 19/19/19 22/22/22 18/18/18
f 18/18/18 22/22/22 23/23/23
f 18/18/18 23/23/23 16/16/16
f 16/16/16 23/23/23 21/21/21
f 113/113/113 84/84/84 114/114/114
f 114/114/114 84/84/84 115/115/115
f 114/114/114 115/115/115 116/116/116
f 116/116/116 115/115/115 78/78/78
f 116/116/116 78/78/78 117/117/117
f 117/117/117 78/78/78 113/113/113
f 117/117/117 113/113/113 118/118/118
f 118/118/118 113/113/113 114/114/114
f 57/57/57 54/54/54 58/58/58
f 58/58/58 54/54/54 56/56/56
f 58/58/58 56/56/56 59/59/59
f 59/59/59 56/56/56 55/55/55
f 59/59/59 55/55/55 57/57/57
f 57/57/57 55/55/55 54/54/54
f 119/119/119 120/120/120 121/121/121
f 121/121/121 120/120/120 122/122/122
f 121/121/121 122/122/122 123/123/123
f 123/123/123 122/122/122 124/124/124
f 123/123/123 124/124/124 125/125/125
f 125/125/125 124/124/124 126/126/126
f 125/125/125 126/126/126 119/119/119
f 119/119/119 126/126/126 120/120/120
f 4/4/4 127/127/127 63/63/63
f 63/63/63 127/127/127 128/128/128
f 63/63/63 128/128/128 129/129/129
f 129/129/129 128/128/128 6/6/6
f 129/129/129 6/6/6 130/130/130
f 130/130/130 6/6/6 5/5/5
f 131/131/131 132/132/132 133/133/133
f 133/133/133 132/132/132 134/134/134
f 133/133/133 134/134/134 135/135/135
f 135/135/135 134/134/134 136/136/136
f 135/135/135 136/136/136 137/137/137
f 137/137/137 136/136/136 138/138/138
f 137/137/137 138/138/138 131/131/131
f 131/131/131 138/138/138 132/132/132
f 71/71/71 75/75/75 72/72/72
f 72/72/72 75/75/75 74/74/74
f 72/72/72 74/74/74 73/73/73
f 73/73/73 74/74/74 76/76/76
f 73/73/73 76/76/76 71/71/71
f 71/71/71 76/76/76 75/75/75
f 139/139/139 140/140/140 141/141/141
f 141/141/141 140/140/140 142/142/142
f 141/141/141 142/142/142 143/143/143
f 143/143/143 142/142/142 144/144/144
f 143/143/143 144/144/144 145/145/145
f 146/146/146 139/139/139 147/147/147
f 147/147/147 139/139/139 141/141/141
f 147/147/147 141/141/141 90/90/90
f 90/90/90 141/141/141 143/143/143
f 90/90/90 143/143/143 92/92/92
f 148/148/148 88/88/88 149/149/149
f 149/149/149 88/88/88 87/87/87
f 149/149/149 87/87/87 50/50/50
f 50/50/50 87/87/87 150/150/150
f 50/50/50 150/150/150 48/48/48
f 93/93/93 151/151/151 86/86/86
f 86/86/86 151/151/151 152/152/152
f 86/86/86 152/152/152 87/87/87
f 87/87/87 152/152/152 153/153/153
f 87/87/87 153/153/153 150/150/150
f 154/154/154 155/155/155 145/145/145
f 145/145/145 155/155/155 156/156/156
f 145/145/145 156/156/156 143/143/143
f 143/143/143 156/156/156 157/157/157
f 143/143/143 157/157/157 92/92/92
f 158/158/158 146/146/146 159/159/159
f 159/159/159 146/146/146 147/147/147
f 159/159/159 147/147/147 160/160/160
f 160/160/160 147/147/147 90/90/90
f 160/160/160 90/90/90 99/99/99
f 99/99/99 90/90/90 89/89/89
f 99/99/99 89/89/89 97/97/97
f 14/14/14 13/13/13 161/161/161
f 161/161/161 13/13/13 88/88/88
f 161/161/161 88/88/88 162/162/162
f 162/162/162 88/88/88 148/148/148
f 162/162/162 148/148/148 163/163/163
f 111/111/111 164/164/164 112/112/112
f 112/112/112 164/164/164 165/165/165
f 112/112/112 165/165/165 166/166/166
f 166/166/166 165/165/165 167/167/167
f 166/166/166 167/167/167 168/168/168
f 169/169/169 170/170/170 171/171/171
f 171/171/171 170/170/170 172/172/172
f 171/171/171 172/172/172 173/173/173
f 173/173/173 172/172/172 174/174/174
f 173/173/173 174/174/174 175/175/175
f 175/175/175 174/174/174 176/176/176
f 177/177/177 176/176/176 178/178/178
f 178/178/178 176/176/176 174/174/174
f 178/178/178 174/174/174 179/179/179
f 179/179/179 174/174/174 172/172/172
f 179/179/179 172/172/172 180/180/180
f 180/180/180 172/172/172 170/170/170
f 180/180/180 170/170/170 181/181/181
f 181/181/181 170/170/170 169/169/169
f 181/181/181 169/169/169 182/182/182
f 182/182/182 169/169/169 183/183/183
f 182/182/182 183/183/183 184/184/184
f 184/184/184 183/183/183 181/181/181
f 184/184/184 181/181/181 176/176/176
f 176/176/176 181/181/181 182/182/182
f 176/176/176 182/182/182 175/175/175
f 175/175/175 182/182/182 184/184/184
f 175/175/175 184/184/184 173/173/173
f 173/173/173 184/184/184 178/178/178
f 173/173/173 178/178/178 171/171/171
f 171/171/171 178/178/178 179/179/179
f 171/171/171 179/179/179 169/169/169
f 169/169/169 179/179/179 180/180/180
f 169/169/169 180/180/180 183/183/183
f 183/183/183 180/180/180 181/181/181
g mesh01
