mtllib 0425-0.mtl
g mesh00
usemtl texture00
v 6.128303 -2.178228 2.314671
vt 0.060242 0.888367
vn 0.661417 -0.677165 -0.338583
v 4.088101 -2.844200 2.512434
vt 0.007812 0.992188
vn 0.141732 -0.661417 -0.740157
v 7.543507 3.837016 -0.550371
vt 0.007812 0.476562
vn 0.496063 -0.464567 -0.732283
v 0.000000 -2.634055 11.640256
vt 0.491180 0.828125
vn 0.000000 -0.448819 0.897638
v -1.456357 -2.007129 11.439548
vt 0.426758 0.780273
vn -0.417323 -0.165354 0.897638
v 0.000000 -3.538689 10.622407
vt 0.491180 0.863708
vn 0.000000 -0.464567 0.889764
v -2.517463 -3.026706 9.830092
vt 0.389191 0.844452
vn -0.433071 -0.377953 0.818898
v 7.308133 0.359309 2.271752
vt 0.079224 0.565826
vn 0.960630 -0.236220 0.173228
v -1.271018 -1.036249 10.924101
vt 0.421875 0.742188
vn -0.346457 -0.283465 0.897638
v 0.000000 -1.209981 11.267872
vt 0.491180 0.750000
vn 0.000000 -0.464567 0.889764
v 0.000000 -1.191116 11.687804
vt 0.491180 0.742188
vn 0.000000 -0.881890 0.480315
v -6.128303 -2.178228 2.314671
vt 0.060242 0.888367
vn -0.661417 -0.677165 -0.330709
v -4.170112 -2.844200 2.512434
vt 0.007812 0.992188
vn -0.149606 -0.669291 -0.732283
v 0.000000 -5.634438 5.211691
vt 0.491180 0.992188
vn 0.000000 -0.968504 -0.251969
v 3.553699 -3.975650 8.554309
vt 0.314606 0.857941
vn 0.614173 -0.629921 0.472441
v 3.553403 -4.487633 6.308224
vt 0.289062 0.906250
vn 0.535433 -0.850394 0.000000
v 5.972868 -2.371264 6.263202
vt 0.133911 0.834808
vn 0.811024 -0.559055 0.196850
v 6.978906 0.244804 6.723527
vt 0.123871 0.724304
vn 0.944882 -0.267717 0.204724
v 5.291912 -2.015026 8.584605
vt 0.285492 0.779114
vn 0.724409 -0.472441 0.503937
v 6.041259 0.271127 8.995279
vt 0.214264 0.649536
vn 0.763780 -0.244094 0.598425
v 4.025039 -1.585961 10.027434
vt 0.333740 0.758820
vn 0.417323 -0.370079 0.834646
v 4.164487 0.562873 10.647653
vt 0.313599 0.631683
vn 0.377953 -0.181102 0.913386
v 3.085321 -1.199451 10.183120
vt 0.362701 0.746643
vn 0.346457 -0.251969 0.905512
v 2.057078 1.455223 11.349082
vt 0.397552 0.618042
vn 0.527559 -0.023622 0.850394
v 0.000000 1.257362 13.431065
vt 0.491180 0.632812
vn 0.000000 -0.724409 0.692913
v -1.003077 1.715821 13.208055
vt 0.448639 0.600433
vn -0.645669 -0.204724 0.740157
v 0.000000 0.564190 11.761439
vt 0.491180 0.656250
vn 0.000000 -0.307087 0.952756
v -2.057078 1.455223 11.349082
vt 0.397552 0.618042
vn -0.527559 -0.023622 0.850394
v 0.000000 -5.890649 8.405776
vt 0.491180 0.976562
vn 0.000000 -1.000000 0.039370
v 0.000000 -5.682258 9.618443
vt 0.491180 0.960938
vn 0.000000 -0.881890 0.480315
v -1.531854 -5.429558 8.798778
vt 0.429688 0.937500
vn -0.417323 -0.889764 0.181102
v -6.978906 0.244804 6.723527
vt 0.123871 0.724304
vn -0.944882 -0.267717 0.204724
v -7.308133 0.359309 2.271752
vt 0.079224 0.565826
vn -0.960630 -0.236220 0.173228
v -7.543507 3.837016 -0.550371
vt 0.007812 0.476562
vn -0.496063 -0.464567 -0.732283
v -3.553699 -3.975650 8.554309
vt 0.314606 0.857941
vn -0.614173 -0.629921 0.472441
v -1.714824 -4.679352 9.882689
vt 0.429688 0.898438
vn -0.448819 -0.488189 0.748031
v 0.000000 -4.883355 10.412021
vt 0.491180 0.914062
vn 0.000000 -0.448819 0.897638
v -6.041259 0.271127 8.995279
vt 0.214264 0.649536
vn -0.763780 -0.244094 0.598425
v -5.972868 -2.371264 6.263202
vt 0.133911 0.834808
vn -0.811024 -0.559055 0.196850
v -3.553107 -4.487633 6.308224
vt 0.289062 0.906250
vn -0.535433 -0.850394 0.000000
v -3.085321 -1.199451 10.183120
vt 0.362701 0.746643
vn -0.346457 -0.251969 0.905512
v -1.279308 -0.361941 12.005487
vt 0.428375 0.717438
vn -0.354331 -0.291339 0.889764
v 0.000000 -0.326405 12.364827
vt 0.491180 0.714844
vn 0.000000 -0.031496 1.000000
v 1.271314 -1.036249 10.924101
vt 0.421875 0.742188
vn 0.346457 -0.283465 0.897638
v 1.279308 -0.361941 12.005487
vt 0.428375 0.717438
vn 0.354331 -0.291339 0.889764
v 1.003077 1.715821 13.208055
vt 0.448639 0.600433
vn 0.645669 -0.204724 0.740157
v 2.517463 -3.026706 9.830092
vt 0.389191 0.844452
vn 0.433071 -0.377953 0.818898
v 1.456357 -2.007129 11.439548
vt 0.426758 0.780273
vn 0.417323 -0.165354 0.897638
v 0.000000 -1.943076 11.721045
vt 0.491180 0.781250
vn 0.000000 0.314961 0.952756
v 1.532150 -5.429558 8.798778
vt 0.429688 0.937500
vn 0.417323 -0.889764 0.181102
v 1.714824 -4.679352 9.882689
vt 0.429688 0.898438
vn 0.448819 -0.488189 0.748031
v -5.291912 -2.015026 8.584605
vt 0.285492 0.779114
vn -0.724409 -0.472441 0.503937
v -4.025039 -1.585961 10.027434
vt 0.333740 0.758820
vn -0.417323 -0.370079 0.834646
v -4.164487 0.562873 10.647653
vt 0.313599 0.631683
vn -0.377953 -0.181102 0.913386
f 1/1/1 2/2/2 3/3/3
f 4/4/4 5/5/5 6/6/6
f 6/6/6 5/5/5 7/7/7
f 8/8/8 1/1/1 3/3/3
f 9/9/9 10/10/10 11/11/11
f 12/12/12 13/13/13 14/14/14
f 15/15/15 16/16/16 17/17/17
f 17/17/17 16/16/16 1/1/1
f 17/17/17 1/1/1 18/18/18
f 18/18/18 1/1/1 8/8/8
f 19/19/19 20/20/20 21/21/21
f 21/21/21 20/20/20 22/22/22
f 21/21/21 22/22/22 23/23/23
f 23/23/23 22/22/22 24/24/24
f 25/25/25 26/26/26 27/27/27
f 27/27/27 26/26/26 28/28/28
f 29/29/29 30/30/30 31/31/31
f 32/32/32 33/33/33 12/12/12
f 12/12/12 33/33/33 34/34/34
f 12/12/12 34/34/34 13/13/13
f 35/35/35 31/31/31 36/36/36
f 36/36/36 31/31/31 30/30/30
f 36/36/36 30/30/30 37/37/37
f 38/38/38 32/32/32 39/39/39
f 39/39/39 32/32/32 12/12/12
f 39/39/39 12/12/12 40/40/40
f 40/40/40 12/12/12 14/14/14
f 41/41/41 9/9/9 42/42/42
f 42/42/42 9/9/9 11/11/11
f 42/42/42 11/11/11 43/43/43
f 44/44/44 23/23/23 45/45/45
f 45/45/45 23/23/23 24/24/24
f 45/45/45 24/24/24 27/27/27
f 27/27/27 24/24/24 46/46/46
f 27/27/27 46/46/46 25/25/25
f 18/18/18 20/20/20 17/17/17
f 17/17/17 20/20/20 19/19/19
f 17/17/17 19/19/19 15/15/15
f 15/15/15 19/19/19 21/21/21
f 15/15/15 21/21/21 47/47/47
f 47/47/47 21/21/21 23/23/23
f 47/47/47 23/23/23 48/48/48
f 48/48/48 23/23/23 44/44/44
f 48/48/48 44/44/44 49/49/49
f 2/2/2 1/1/1 14/14/14
f 14/14/14 1/1/1 16/16/16
f 14/14/14 16/16/16 50/50/50
f 50/50/50 16/16/16 15/15/15
f 50/50/50 15/15/15 51/51/51
f 51/51/51 15/15/15 47/47/47
f 51/51/51 47/47/47 6/6/6
f 6/6/6 47/47/47 48/48/48
f 6/6/6 48/48/48 4/4/4
f 4/4/4 48/48/48 49/49/49
f 4/4/4 49/49/49 5/5/5
f 52/52/52 35/35/35 53/53/53
f 53/53/53 35/35/35 7/7/7
f 53/53/53 7/7/7 41/41/41
f 41/41/41 7/7/7 5/5/5
f 41/41/41 5/5/5 9/9/9
f 9/9/9 5/5/5 49/49/49
f 9/9/9 49/49/49 10/10/10
f 10/10/10 49/49/49 44/44/44
f 10/10/10 44/44/44 11/11/11
f 11/11/11 44/44/44 45/45/45
f 11/11/11 45/45/45 43/43/43
f 43/43/43 45/45/45 27/27/27
f 43/43/43 27/27/27 42/42/42
f 42/42/42 27/27/27 28/28/28
f 42/42/42 28/28/28 41/41/41
f 41/41/41 28/28/28 54/54/54
f 41/41/41 54/54/54 53/53/53
f 53/53/53 54/54/54 38/38/38
f 53/53/53 38/38/38 52/52/52
f 52/52/52 38/38/38 39/39/39
f 52/52/52 39/39/39 35/35/35
f 35/35/35 39/39/39 40/40/40
f 35/35/35 40/40/40 31/31/31
f 31/31/31 40/40/40 14/14/14
f 31/31/31 14/14/14 29/29/29
f 29/29/29 14/14/14 50/50/50
f 29/29/29 50/50/50 30/30/30
f 30/30/30 50/50/50 51/51/51
f 30/30/30 51/51/51 37/37/37
f 37/37/37 51/51/51 6/6/6
f 37/37/37 6/6/6 36/36/36
f 36/36/36 6/6/6 7/7/7
f 36/36/36 7/7/7 35/35/35
usemtl texture00
v -1.775517 4.415683 10.728442
vt 0.388885 0.402771
vn -0.574803 0.000000 0.818898
v -2.041386 3.281601 11.220325
vt 0.389832 0.500000
vn -0.685039 0.244094 0.685039
v -0.966365 4.734192 11.800571
vt 0.433594 0.455719
vn -0.661417 0.157480 0.740157
v -7.411460 3.369783 6.542595
vt 0.126404 0.504944
vn -0.976378 -0.015748 0.228346
v -7.042560 5.339182 7.188060
vt 0.108490 0.377594
vn -0.952756 0.023622 0.322835
v -7.743648 5.748943 2.346649
vt 0.051208 0.382812
vn -0.992126 0.007874 0.157480
v -0.821588 3.624238 12.388811
vt 0.460052 0.481750
vn -0.629921 0.283465 0.732283
v -2.976368 7.307265 11.771117
vt 0.326813 0.247375
vn -0.417323 -0.173228 0.897638
v -3.342011 10.741978 10.998999
vt 0.326813 0.052063
vn -0.401575 0.307087 0.866142
v -5.831940 10.219027 9.214502
vt 0.205719 0.111969
vn -0.748031 0.244094 0.614173
v -7.534624 10.143129 2.082825
vt 0.007812 0.164062
vn -1.000000 0.102362 0.039370
v -7.543507 3.837016 -0.550371
vt 0.007812 0.476562
vn -1.000000 0.039370 -0.094488
v 4.558553 2.644584 10.393927
vt 0.281250 0.502838
vn 0.472441 0.070866 0.881890
v 2.747211 3.956786 10.455360
vt 0.342010 0.441833
vn 0.267717 0.007874 0.968504
v 2.057078 1.455223 11.349082
vt 0.397552 0.618042
vn 0.527559 -0.023622 0.850394
v -2.057078 1.455223 11.349082
vt 0.397552 0.618042
vn -0.527559 -0.023622 0.850394
v -1.003077 1.715821 13.208055
vt 0.448639 0.600433
vn -0.645669 -0.204724 0.740157
v 9.492520 3.339073 -0.904661
vt 0.992188 0.578125
vn 0.897638 -0.354331 -0.259843
v 9.701247 5.572140 -0.870158
vt 0.992188 0.398438
vn 0.897638 -0.086614 0.440945
v 8.986540 6.722017 0.808725
vt 0.984375 0.367188
vn 0.858268 -0.086614 0.511811
v 7.743648 5.748943 2.346649
vt 0.882812 0.453125
vn -0.795276 0.535433 -0.299213
v 8.986540 6.722017 0.808725
vt 0.984375 0.367188
vn -0.685039 0.559055 -0.464567
v 7.543507 3.837016 -0.550371
vt 0.968750 0.539062
vn -0.653543 0.133858 -0.748031
v 9.701247 5.572140 -0.870158
vt 0.992188 0.398438
vn -0.385827 0.322835 -0.866142
v 7.042560 5.339182 7.188060
vt 0.108490 0.377594
vn 0.952756 0.031496 0.322835
v 6.243770 7.022099 9.521666
vt 0.150665 0.265625
vn 0.779528 -0.055118 0.629921
v 6.130080 4.965834 8.942682
vt 0.166656 0.375000
vn 0.755906 -0.023622 0.661417
v 5.059499 6.243377 10.086343
vt 0.221344 0.318207
vn 0.535433 -0.141732 0.834646
v 2.041386 3.281601 11.220325
vt 0.389832 0.500000
vn 0.685039 0.244094 0.685039
v 0.966365 4.734192 11.800571
vt 0.433594 0.455719
vn 0.661417 0.157480 0.740157
v 0.821588 3.624238 12.388811
vt 0.460052 0.481750
vn 0.629921 0.283465 0.732283
v 0.000000 5.280394 12.184315
vt 0.495880 0.396515
vn 0.000000 0.149606 0.992126
v 0.000000 3.847984 12.737631
vt 0.491180 0.484375
vn 0.000000 0.425197 0.905512
v 4.164487 0.562873 10.647653
vt 0.313599 0.631683
vn 0.377953 -0.181102 0.913386
v 6.041259 0.271127 8.995279
vt 0.214264 0.649536
vn 0.763780 -0.244094 0.598425
v 6.398317 2.379161 9.070597
vt 0.194580 0.552551
vn 0.826772 -0.055118 0.566929
v 6.978906 0.244804 6.723527
vt 0.123871 0.724304
vn 0.944882 -0.267717 0.204724
v -2.747211 3.956786 10.455360
vt 0.342010 0.441833
vn -0.267717 0.007874 0.968504
v -9.492520 3.339073 -0.904661
vt 0.992188 0.578125
vn -0.897638 -0.354331 -0.259843
v -9.701247 5.572140 -0.870158
vt 0.992188 0.398438
vn 0.385827 0.322835 -0.866142
v -7.543507 3.837016 -0.550371
vt 0.968750 0.539062
vn 0.645669 0.141732 -0.748031
v -8.986540 6.701397 0.808725
vt 0.984375 0.367188
vn 0.685039 0.566929 -0.464567
v -7.743648 5.748943 2.346649
vt 0.882812 0.453125
vn 0.787402 0.543307 -0.299213
v -6.395652 3.700136 8.942682
vt 0.172852 0.473633
vn -0.779528 0.078740 0.622047
v -6.398317 2.379161 9.070597
vt 0.194580 0.552551
vn -0.826772 -0.055118 0.566929
v -4.558553 2.644584 10.393927
vt 0.281250 0.502838
vn -0.472441 0.070866 0.881890
v -8.986540 6.701397 0.808725
vt 0.984375 0.367188
vn -0.858268 -0.086614 0.511811
v -9.701247 5.572140 -0.870158
vt 0.992188 0.398438
vn -0.897638 -0.086614 0.440945
v 1.775517 4.422703 10.728442
vt 0.388885 0.402771
vn 0.574803 0.000000 0.818898
v 1.529485 6.021825 11.601966
vt 0.420563 0.352844
vn 0.464567 -0.299213 0.834646
v 0.000000 6.744830 12.380395
vt 0.484375 0.312500
vn 0.000000 -0.133858 0.992126
v -1.529485 6.021825 11.601966
vt 0.420563 0.352844
vn -0.464567 -0.299213 0.834646
v -2.770009 6.358759 11.032660
vt 0.345825 0.324463
vn -0.275591 -0.314961 0.913386
v 7.411460 3.369783 6.542595
vt 0.126404 0.504944
vn 0.976378 -0.015748 0.228346
v 6.395652 3.700136 8.942682
vt 0.172852 0.473633
vn 0.779528 0.078740 0.622047
v 5.141214 3.950205 9.917192
vt 0.215271 0.444427
vn 0.519685 -0.023622 0.858268
v 3.785816 5.329969 11.005310
vt 0.295990 0.375854
vn 0.267717 -0.110236 0.960630
v 7.308133 0.359309 2.271752
vt 0.851562 0.656250
vn -0.937008 -0.188976 -0.307087
v 7.802566 0.346586 0.790211
vt 0.945312 0.648438
vn -0.228346 -0.685039 -0.700787
v 7.308133 0.359309 2.271752
vt 0.851562 0.656250
vn 0.960630 -0.236220 0.173228
v 7.743648 5.748943 2.346649
vt 0.882812 0.453125
vn 0.992126 0.007874 0.157480
v 0.000000 14.375429 10.289576
vt 0.500000 0.007812
vn 0.000000 0.433071 0.905512
v 3.335202 10.739784 10.974594
vt 0.326813 0.052063
vn 0.401575 0.307087 0.866142
v 3.853912 14.060431 9.007061
vt 0.242188 0.007812
vn 0.574803 0.417323 0.708661
v 5.831940 10.219027 9.214502
vt 0.205719 0.111969
vn 0.748031 0.244094 0.614173
v 6.389435 12.582833 6.224911
vt 0.007812 0.007812
vn 0.897638 0.299213 0.330709
v 7.181120 8.992376 6.620859
vt 0.049469 0.199646
vn 0.968504 0.110236 0.244094
v 7.534624 10.143129 2.082825
vt 0.007812 0.164062
vn 1.000000 0.102362 0.039370
v 7.743648 5.748943 2.346649
vt 0.051208 0.382812
vn 0.992126 0.007874 0.157480
v 7.543507 3.837016 -0.550371
vt 0.007812 0.476562
vn 1.000000 0.039370 -0.094488
v -5.141214 3.946256 9.917192
vt 0.215271 0.444427
vn -0.519685 -0.023622 0.858268
v -6.130080 5.046119 8.942682
vt 0.166656 0.375000
vn -0.755906 -0.031496 0.661417
v -3.785816 5.329969 11.005310
vt 0.295990 0.375854
vn -0.259843 -0.110236 0.960630
v -5.059499 6.243377 10.086343
vt 0.221344 0.318207
vn -0.543307 -0.141732 0.834646
v -6.243770 7.022099 9.521666
vt 0.150665 0.265625
vn -0.779528 -0.055118 0.629921
v -7.181120 8.992376 6.620859
vt 0.049469 0.199646
vn -0.968504 0.110236 0.244094
v -7.743648 5.748943 2.346649
vt 0.882812 0.453125
vn -0.992126 0.007874 0.157480
v -7.308133 0.359309 2.271752
vt 0.851562 0.656250
vn -0.960630 -0.236220 0.173228
v -7.802566 0.346586 0.790211
vt 0.945312 0.648438
vn 0.228346 -0.685039 -0.700787
v -7.308133 0.359309 2.271752
vt 0.851562 0.656250
vn 0.937008 -0.188976 -0.307087
v -7.308133 0.359309 2.271752
vt 0.079224 0.565826
vn -0.960630 -0.236220 0.173228
v -6.978906 0.244804 6.723527
vt 0.123871 0.724304
vn -0.944882 -0.267717 0.204724
v -6.041259 0.271127 8.995279
vt 0.214264 0.649536
vn -0.763780 -0.244094 0.598425
v -4.164487 0.562873 10.647653
vt 0.313599 0.631683
vn -0.377953 -0.181102 0.913386
v 2.976664 7.307265 11.771117
vt 0.326813 0.247375
vn 0.417323 -0.165354 0.897638
v 2.770009 6.358759 11.032660
vt 0.345825 0.324463
vn 0.275591 -0.314961 0.913386
v 0.000000 10.856483 11.800571
vt 0.500000 0.062500
vn 0.000000 0.244094 0.976378
v 1.003077 1.715821 13.208055
vt 0.448639 0.600433
vn 0.645669 -0.204724 0.740157
v 0.000000 2.007567 13.787459
vt 0.491180 0.585938
vn 0.000000 0.007874 1.000000
v -6.389435 12.582833 6.224911
vt 0.007812 0.007812
vn -0.897638 0.299213 0.330709
v -3.853616 14.060431 9.007061
vt 0.242188 0.007812
vn -0.574803 0.417323 0.700787
v 7.308133 0.359309 2.271752
vt 0.079224 0.565826
vn 0.960630 -0.236220 0.173228
v 0.000000 1.257362 13.431065
vt 0.491180 0.632812
vn 0.000000 -0.724409 0.692913
f 55/55/55 56/56/56 57/57/57
f 58/58/58 59/59/59 60/60/60
f 56/56/56 61/61/61 57/57/57
f 62/62/62 63/63/63 64/64/64
f 60/60/60 65/65/65 66/66/66
f 67/67/67 68/68/68 69/69/69
f 70/70/70 71/71/71 61/61/61
f 72/72/72 73/73/73 74/74/74
f 75/75/75 76/76/76 77/77/77
f 77/77/77 76/76/76 78/78/78
f 77/77/77 78/78/78 72/72/72
f 79/79/79 80/80/80 81/81/81
f 81/81/81 80/80/80 82/82/82
f 83/83/83 84/84/84 85/85/85
f 85/85/85 84/84/84 86/86/86
f 85/85/85 86/86/86 87/87/87
f 69/69/69 88/88/88 67/67/67
f 67/67/67 88/88/88 89/89/89
f 67/67/67 89/89/89 90/90/90
f 90/90/90 89/89/89 91/91/91
f 56/56/56 55/55/55 92/92/92
f 93/93/93 94/94/94 95/95/95
f 95/95/95 94/94/94 96/96/96
f 95/95/95 96/96/96 97/97/97
f 59/59/59 58/58/58 98/98/98
f 98/98/98 58/58/58 99/99/99
f 98/98/98 99/99/99 100/100/100
f 101/101/101 102/102/102 93/93/93
f 83/83/83 103/103/103 84/84/84
f 84/84/84 103/103/103 104/104/104
f 84/84/84 104/104/104 86/86/86
f 86/86/86 104/104/104 105/105/105
f 86/86/86 105/105/105 106/106/106
f 106/106/106 105/105/105 62/62/62
f 106/106/106 62/62/62 107/107/107
f 108/108/108 79/79/79 109/109/109
f 109/109/109 79/79/79 81/81/81
f 109/109/109 81/81/81 110/110/110
f 110/110/110 81/81/81 82/82/82
f 110/110/110 82/82/82 111/111/111
f 112/112/112 77/77/77 113/113/113
f 113/113/113 77/77/77 72/72/72
f 113/113/113 72/72/72 114/114/114
f 114/114/114 72/72/72 74/74/74
f 114/114/114 74/74/74 115/115/115
f 116/116/116 117/117/117 118/118/118
f 118/118/118 117/117/117 119/119/119
f 118/118/118 119/119/119 120/120/120
f 120/120/120 119/119/119 121/121/121
f 120/120/120 121/121/121 122/122/122
f 122/122/122 121/121/121 123/123/123
f 122/122/122 123/123/123 124/124/124
f 61/61/61 56/56/56 70/70/70
f 70/70/70 56/56/56 92/92/92
f 70/70/70 92/92/92 100/100/100
f 100/100/100 92/92/92 125/125/125
f 100/100/100 125/125/125 98/98/98
f 98/98/98 125/125/125 126/126/126
f 98/98/98 126/126/126 59/59/59
f 127/127/127 107/107/107 128/128/128
f 128/128/128 107/107/107 62/62/62
f 128/128/128 62/62/62 129/129/129
f 129/129/129 62/62/62 64/64/64
f 129/129/129 64/64/64 130/130/130
f 131/131/131 101/101/101 132/132/132
f 132/132/132 101/101/101 93/93/93
f 132/132/132 93/93/93 133/133/133
f 133/133/133 93/93/93 95/95/95
f 133/133/133 95/95/95 134/134/134
f 60/60/60 135/135/135 58/58/58
f 58/58/58 135/135/135 136/136/136
f 58/58/58 136/136/136 99/99/99
f 99/99/99 136/136/136 137/137/137
f 99/99/99 137/137/137 100/100/100
f 100/100/100 137/137/137 138/138/138
f 100/100/100 138/138/138 70/70/70
f 80/80/80 139/139/139 82/82/82
f 82/82/82 139/139/139 140/140/140
f 82/82/82 140/140/140 111/111/111
f 111/111/111 140/140/140 68/68/68
f 111/111/111 68/68/68 110/110/110
f 110/110/110 68/68/68 67/67/67
f 110/110/110 67/67/67 109/109/109
f 109/109/109 67/67/67 90/90/90
f 109/109/109 90/90/90 108/108/108
f 108/108/108 90/90/90 91/91/91
f 63/63/63 62/62/62 141/141/141
f 141/141/141 62/62/62 105/105/105
f 141/141/141 105/105/105 139/139/139
f 139/139/139 105/105/105 104/104/104
f 139/139/139 104/104/104 140/140/140
f 140/140/140 104/104/104 103/103/103
f 140/140/140 103/103/103 68/68/68
f 68/68/68 103/103/103 83/83/83
f 68/68/68 83/83/83 69/69/69
f 69/69/69 83/83/83 85/85/85
f 69/69/69 85/85/85 142/142/142
f 142/142/142 85/85/85 87/87/87
f 142/142/142 87/87/87 143/143/143
f 65/65/65 130/130/130 144/144/144
f 144/144/144 130/130/130 64/64/64
f 144/144/144 64/64/64 145/145/145
f 145/145/145 64/64/64 63/63/63
f 145/145/145 63/63/63 116/116/116
f 116/116/116 63/63/63 141/141/141
f 116/116/116 141/141/141 117/117/117
f 117/117/117 141/141/141 139/139/139
f 117/117/117 139/139/139 119/119/119
f 119/119/119 139/139/139 80/80/80
f 119/119/119 80/80/80 121/121/121
f 121/121/121 80/80/80 79/79/79
f 121/121/121 79/79/79 123/123/123
f 123/123/123 79/79/79 108/108/108
f 123/123/123 108/108/108 146/146/146
f 146/146/146 108/108/108 91/91/91
f 65/65/65 60/60/60 130/130/130
f 130/130/130 60/60/60 59/59/59
f 130/130/130 59/59/59 129/129/129
f 129/129/129 59/59/59 126/126/126
f 129/129/129 126/126/126 128/128/128
f 128/128/128 126/126/126 125/125/125
f 128/128/128 125/125/125 127/127/127
f 127/127/127 125/125/125 92/92/92
f 127/127/127 92/92/92 107/107/107
f 107/107/107 92/92/92 55/55/55
f 107/107/107 55/55/55 106/106/106
f 106/106/106 55/55/55 57/57/57
f 106/106/106 57/57/57 86/86/86
f 86/86/86 57/57/57 61/61/61
f 86/86/86 61/61/61 87/87/87
f 87/87/87 61/61/61 71/71/71
f 87/87/87 71/71/71 143/143/143
f 143/143/143 71/71/71 147/147/147
f 143/143/143 147/147/147 142/142/142
