mtllib 3738-0.mtl
g mesh00
usemtl texture00
v 17.288644 -1.974964 7.703374
vt 0.128906 0.761719
vn 0.606299 -0.779528 -0.141732
v 16.911266 -1.944222 17.371979
vt 0.128906 0.707031
vn 0.551181 -0.834646 0.062992
v 14.918237 -3.988979 12.496216
vt 0.191406 0.730469
vn -0.047244 -0.992126 -0.133858
v 3.918670 1.982442 38.798802
vt 0.346893 0.551086
vn 0.149606 0.992126 0.070866
v 9.641679 2.042264 36.572369
vt 0.214844 0.558594
vn 0.291339 0.960630 0.055118
v 5.524212 3.225414 31.435405
vt 0.300781 0.597656
vn 0.039370 0.984252 0.173228
v 5.461877 0.000000 14.366088
vt 0.500488 0.653503
vn 0.952756 0.000000 0.322835
v 1.341041 2.876452 14.324627
vt 0.570801 0.653503
vn 0.000000 0.976378 0.220472
v 1.170884 0.000000 19.076008
vt 0.578125 0.625000
vn -0.007874 0.000000 1.000000
v 8.880184 1.517989 -7.914823
vt 0.244781 0.875000
vn -0.039370 0.992126 0.118110
v 12.647228 2.582326 -0.717268
vt 0.199219 0.824219
vn 0.086614 0.984252 -0.157480
v 11.784649 0.000000 -8.739888
vt 0.199219 0.917969
vn 0.992126 0.000000 -0.165354
v 14.918237 3.988979 12.496216
vt 0.191406 0.730469
vn -0.047244 0.992126 -0.133858
v 10.022427 5.003464 24.233703
vt 0.233063 0.643219
vn 0.102362 0.992126 -0.086614
v 16.911266 1.944222 17.371979
vt 0.128906 0.707031
vn 0.551181 0.834646 0.062992
v -6.312663 0.000000 32.791165
vt 0.527344 0.589844
vn -0.944882 0.000000 -0.322835
v -3.689547 -5.025897 34.005960
vt 0.488281 0.574219
vn -0.314961 -0.944882 -0.094488
v -11.038316 0.000000 36.232393
vt 0.574219 0.566406
vn -0.669291 0.000000 -0.748031
v -1.005781 0.000000 -8.528439
vt 0.433594 0.839844
vn -0.700787 0.000000 0.716535
v -0.161734 0.000000 -15.551860
vt 0.433594 0.925781
vn -0.551181 0.000000 -0.842520
v 1.418538 -1.088432 -10.622198
vt 0.387390 0.887390
vn -0.102362 -1.000000 -0.047244
v 0.820461 2.921318 -5.949592
vt 0.562988 0.934753
vn 0.039370 0.968504 -0.259843
v 1.443809 1.944222 5.045751
vt 0.562988 0.805847
vn -0.023622 1.000000 -0.007874
v 5.018795 0.000000 -4.548225
vt 0.492676 0.919128
vn 0.968504 0.000000 -0.267717
v 3.910246 0.000000 5.352560
vt 0.516113 0.801941
vn 1.000000 0.000000 -0.023622
v 1.443809 -1.944222 5.045751
vt 0.562988 0.805847
vn -0.023622 -1.000000 -0.007874
v 0.820461 -2.921318 -5.949592
vt 0.562988 0.934753
vn 0.039370 -0.968504 -0.259843
v -2.759579 0.000000 -7.168533
vt 0.633301 0.966003
vn -0.921260 0.000000 -0.401575
v 1.539838 0.000000 -10.108087
vt 0.554749 0.975677
vn 0.220472 0.000000 -0.976378
v -7.855871 0.000000 80.201328
vt 0.542969 0.332031
vn -0.212598 0.000000 0.984252
v -4.146107 2.984464 78.658994
vt 0.488281 0.332031
vn -0.173228 0.968504 0.196850
v -9.252508 0.000000 54.375538
vt 0.558594 0.464844
vn -1.000000 0.000000 0.070866
v -3.689547 5.025897 34.005960
vt 0.488281 0.574219
vn -0.314961 0.944882 -0.094488
v -11.589221 0.000000 37.501086
vt 0.574219 0.558594
vn -0.889764 0.000000 -0.456693
v -5.477040 0.000000 25.361431
vt 0.503906 0.652344
vn -0.401575 -0.889764 -0.220472
v 1.568479 -3.541143 27.339100
vt 0.410156 0.613281
vn -0.228346 -0.976378 -0.047244
v -7.117962 0.000000 27.094483
vt 0.527344 0.628906
vn -0.976378 0.000000 -0.236220
v -5.477040 0.000000 25.361431
vt 0.503906 0.652344
vn -0.401575 0.889764 -0.220472
v 1.568479 3.541143 27.339100
vt 0.410156 0.613281
vn -0.228346 0.976378 -0.047244
v -5.357424 0.000000 17.944135
vt 0.488281 0.707031
vn -0.393701 0.913386 -0.133858
v 1.128766 3.099123 20.332264
vt 0.417969 0.683594
vn -0.047244 0.937008 -0.346457
v 1.155721 0.000000 12.695227
vt 0.408203 0.777344
vn 0.236220 0.000000 -0.976378
v 2.279432 0.000000 123.693466
vt 0.398407 0.071899
vn -0.433071 -0.905512 -0.007874
v 4.747554 -1.216385 123.519332
vt 0.334167 0.071869
vn -0.023622 -1.000000 0.062992
v -0.309989 0.000000 135.853851
vt 0.405457 0.009979
vn -0.165354 -0.992126 0.023622
v -0.082552 0.000000 110.579488
vt 0.449219 0.136719
vn -0.834646 0.000000 0.559055
v 2.279432 0.000000 123.693466
vt 0.398407 0.071899
vn -0.433071 0.905512 -0.007874
v 3.866443 1.897694 109.368839
vt 0.347656 0.152344
vn -0.031496 1.000000 0.086614
v 18.633055 0.000000 9.158640
vt 0.074219 0.761719
vn 0.889764 0.000000 0.464567
v 17.288644 1.974964 7.703374
vt 0.128906 0.761719
vn 0.606299 0.779528 -0.141732
v 15.209694 0.000000 -0.024876
vt 0.128906 0.824219
vn 1.000000 0.000000 -0.102362
v 1.686409 -0.755255 -15.361141
vt 0.396423 0.924347
vn 0.275591 -0.685039 -0.677165
v 1.686409 0.755255 -15.361141
vt 0.396423 0.924347
vn 0.275591 0.685039 -0.677165
v 3.890029 0.000000 -13.155439
vt 0.353210 0.907562
vn 0.496063 0.000000 -0.874016
v 1.418538 1.088432 -10.622198
vt 0.387390 0.887390
vn -0.102362 1.000000 -0.047244
v 7.042149 1.728197 -11.617252
vt 0.277344 0.902344
vn 0.031496 0.984252 -0.188976
v 15.371428 -1.194783 29.329208
vt 0.113281 0.597656
vn 0.236220 -0.976378 0.070866
v 10.677785 -1.966655 30.311823
vt 0.214844 0.597656
vn 0.409449 -0.874016 0.283465
v 15.064808 -1.974964 26.845719
vt 0.121094 0.628906
vn 0.401575 -0.897638 0.188976
v 7.822177 -4.529040 28.014907
vt 0.277344 0.613281
vn 0.157480 -0.952756 0.251969
v 10.022427 -5.003464 24.233703
vt 0.233063 0.643219
vn 0.102362 -0.992126 -0.086614
v 8.880184 1.517989 -7.914823
vt 0.105469 0.339844
vn -0.039370 0.992126 0.118110
v 13.270576 0.000000 -10.970467
vt 0.035156 0.339844
vn 0.992126 0.000000 -0.165354
v 10.571647 0.000000 -11.053388
vt 0.082031 0.363281
vn 0.314961 0.913386 -0.275591
v 11.784649 0.000000 -8.739888
vt 0.082031 0.316406
vn 0.992126 0.000000 -0.165354
v 8.880184 -1.517989 -7.914823
vt 0.105469 0.339844
vn -0.039370 -0.992126 0.118110
v 10.571647 0.000000 -11.053388
vt 0.082031 0.363281
vn 0.314961 -0.913386 -0.275591
v 15.371428 -1.194783 29.329208
vt 0.113281 0.597656
vn 0.149606 0.622047 0.771654
v 15.064808 1.974964 26.845719
vt 0.121094 0.628906
vn 0.409449 0.858268 0.322835
v 10.677785 1.966655 30.311823
vt 0.214844 0.597656
vn 0.519685 0.748031 0.417323
v 7.822177 4.529040 28.014907
vt 0.277344 0.613281
vn 0.157480 0.952756 0.251969
v 9.641679 2.042264 36.572369
vt 0.214844 0.558594
vn 0.283465 0.937008 0.212598
v 3.890029 0.000000 -13.155439
vt 0.353210 0.907562
vn -0.464567 0.889764 -0.039370
v 4.978361 0.000000 -24.121760
vt 0.332031 0.989990
vn 0.000000 0.992126 -0.133858
v 12.647228 2.582326 -0.717268
vt 0.097656 0.277344
vn 0.086614 0.984252 -0.157480
v 17.376250 0.000000 -2.479342
vt 0.011719 0.277344
vn 0.944882 0.000000 -0.338583
v 14.208968 0.000000 -2.927116
vt 0.074219 0.300781
vn 0.614173 0.000000 -0.787402
v 17.288644 1.974964 7.703374
vt 0.128906 0.214844
vn 0.606299 0.779528 -0.141732
v 22.425370 0.000000 6.679298
vt 0.011719 0.214844
vn 0.992126 0.000000 -0.133858
v 18.087204 0.000000 5.733997
vt 0.105469 0.246094
vn 0.637795 0.000000 -0.771654
v 18.087204 0.000000 5.733997
vt 0.105469 0.777344
vn 0.637795 0.000000 -0.771654
v 12.647228 -2.582326 -0.717268
vt 0.199219 0.824219
vn 0.086614 -0.984252 -0.157480
v 3.890029 0.000000 -13.155439
vt 0.353210 0.907562
vn -0.464567 -0.889764 -0.039370
v 4.978361 0.000000 -24.121760
vt 0.332031 0.989990
vn 0.000000 -0.992126 -0.133858
v 7.042149 -1.728197 -11.617252
vt 0.277344 0.902344
vn 0.031496 -0.984252 -0.188976
v 10.571647 0.000000 -11.053388
vt 0.207031 0.910156
vn 0.314961 -0.913386 -0.275591
v 8.880184 -1.517989 -7.914823
vt 0.244781 0.875000
vn -0.039370 -0.992126 0.118110
v 16.911266 1.944222 17.371979
vt 0.152344 0.128906
vn 0.551181 0.834646 0.062992
v 18.134376 0.000000 19.573535
vt 0.113281 0.089844
vn 0.755906 0.000000 0.661417
v 24.876644 0.000000 18.192898
vt 0.011719 0.128906
vn 0.992126 0.000000 0.133858
v 14.208968 0.000000 -2.927116
vt 0.152344 0.871094
vn 0.614173 0.000000 -0.787402
v 5.935285 0.000000 19.275019
vt 0.324219 0.699219
vn -0.267717 0.000000 -0.968504
v 1.128766 -3.099123 20.332264
vt 0.417969 0.683594
vn -0.047244 -0.937008 -0.346457
v -5.357424 0.000000 17.944135
vt 0.488281 0.707031
vn -0.393701 -0.913386 -0.133858
v 15.209694 0.000000 -0.024876
vt 0.069519 0.252319
vn 1.000000 0.000000 -0.102362
v 12.647228 -2.582326 -0.717268
vt 0.097656 0.277344
vn 0.086614 -0.984252 -0.157480
v 18.633055 0.000000 9.158640
vt 0.105469 0.175781
vn 0.889764 0.000000 0.464567
v 17.288644 -1.974964 7.703374
vt 0.128906 0.214844
vn 0.606299 -0.779528 -0.141732
v 16.911266 -1.944222 17.371979
vt 0.152344 0.128906
vn 0.551181 -0.834646 0.062992
v 18.678542 0.000000 15.448209
vt 0.113281 0.167969
vn 0.889764 0.000000 -0.464567
v 17.837865 0.000000 25.208027
vt 0.121094 0.074219
vn 0.984252 -0.055118 -0.165354
v 15.064808 1.974964 26.845719
vt 0.136719 0.042969
vn 0.409449 0.858268 0.322835
v 24.726704 0.000000 31.165911
vt 0.027344 0.042969
vn 0.086614 0.968504 0.244094
v 15.371428 -1.194783 29.329208
vt 0.121094 0.011719
vn 0.149606 0.622047 0.771654
v 24.726704 0.000000 31.165911
vt 0.027344 0.042969
vn 0.251969 -0.960630 -0.125984
v 15.371428 -1.194783 29.329208
vt 0.121094 0.011719
vn 0.236220 -0.976378 0.070866
v 15.064808 -1.974964 26.845719
vt 0.136719 0.042969
vn 0.401575 -0.897638 0.188976
v -4.125891 0.000000 104.596727
vt 0.494202 0.172180
vn 0.007874 0.000000 1.000000
v -5.581493 0.000000 106.085162
vt 0.514954 0.185333
vn -0.055118 0.000000 1.000000
v -3.148750 -2.743513 102.606620
vt 0.488281 0.191406
vn -0.228346 -0.881890 0.417323
v -6.787756 0.000000 79.712093
vt 0.535156 0.316406
vn -0.314961 0.000000 0.952756
v -4.146107 -2.984464 78.658994
vt 0.488281 0.332031
vn -0.173228 -0.968504 0.196850
v 8.856598 1.175673 111.338216
vt 0.237976 0.145752
vn 0.181102 0.984252 0.031496
v 4.747554 1.216385 123.519332
vt 0.334167 0.071869
vn -0.023622 1.000000 0.062992
v -0.309989 0.000000 135.853851
vt 0.405457 0.009979
vn -0.165354 0.992126 0.023622
v 5.980773 0.000000 130.505438
vt 0.275116 0.034058
vn 0.181102 0.976378 0.133858
v 10.428446 0.000000 121.836032
vt 0.200928 0.086884
vn 0.259843 0.968504 0.086614
v 12.470332 0.000000 111.400407
vt 0.172180 0.141785
vn 0.370079 0.929134 0.023622
v 15.371428 -1.194783 29.329208
vt 0.113281 0.597656
vn 0.535433 0.850394 0.039370
v 10.677785 1.966655 30.311823
vt 0.214844 0.597656
vn 0.566929 0.818898 0.078740
v 18.678542 0.000000 15.448209
vt 0.074219 0.714844
vn 0.889764 0.000000 -0.464567
v 5.524212 -3.225414 31.435405
vt 0.300781 0.597656
vn 0.039370 -0.984252 0.173228
v 9.641679 -2.042264 36.572369
vt 0.214844 0.558594
vn 0.141732 -0.992126 0.047244
v 3.918670 -1.982442 38.798802
vt 0.346893 0.551086
vn 0.149606 -0.992126 0.070866
v 8.856598 -1.175673 111.338216
vt 0.237976 0.145752
vn 0.181102 -0.984252 0.031496
v 3.866443 -1.897694 109.368839
vt 0.347656 0.152344
vn -0.031496 -1.000000 0.086614
v 10.677785 -1.966655 30.311823
vt 0.214844 0.597656
vn 0.165354 -0.992126 0.007874
v 15.371428 -1.194783 29.329208
vt 0.113281 0.597656
vn 0.165354 -0.992126 0.015748
v 12.470332 0.000000 111.400407
vt 0.172180 0.141785
vn 0.259843 -0.968504 0.031496
v 10.428446 0.000000 121.836032
vt 0.200928 0.086884
vn 0.259843 -0.968504 0.086614
v 5.980773 0.000000 130.505438
vt 0.275116 0.034058
vn 0.181102 -0.976378 0.133858
v 10.571647 0.000000 -11.053388
vt 0.207031 0.910156
vn 0.314961 0.913386 -0.275591
v 17.837865 0.000000 25.208027
vt 0.058594 0.636719
vn 0.984252 -0.055118 -0.165354
v 18.134376 0.000000 19.573535
vt 0.058594 0.691406
vn 0.755906 0.000000 0.661417
v -3.148750 2.743513 102.606620
vt 0.488281 0.191406
vn -0.228346 0.881890 0.417323
v -0.724432 0.000000 4.291169
vt 0.609863 0.817566
vn -1.000000 0.000000 0.000000
v -2.784850 0.000000 14.324627
vt 0.648926 0.653503
vn -0.960630 0.000000 0.275591
v 1.341041 -2.876452 14.324627
vt 0.570801 0.653503
vn 0.000000 -0.976378 0.220472
v 7.485232 0.000000 -5.912277
vt 0.316406 0.824219
vn -0.629921 0.000000 0.779528
v 10.831095 0.000000 -0.211449
vt 0.300781 0.800781
vn -0.968504 0.000000 0.275591
v 10.773814 0.000000 11.836993
vt 0.300781 0.746094
vn -0.992126 0.000000 -0.165354
v 1.418538 -1.088432 -10.622198
vt 0.387390 0.887390
vn -0.102362 -1.000000 -0.047244
v 9.641679 -2.042264 36.572369
vt 0.214844 0.558594
vn 0.283465 -0.937008 0.212598
f 1/1/1 2/2/2 3/3/3
f 4/4/4 5/5/5 6/6/6
f 7/7/7 8/8/8 9/9/9
f 10/10/10 11/11/11 12/12/12
f 13/13/13 14/14/14 15/15/15
f 16/16/16 17/17/17 18/18/18
f 19/19/19 20/20/20 21/21/21
f 22/22/22 23/23/23 24/24/24
f 24/24/24 23/23/23 25/25/25
f 24/24/24 25/25/25 26/26/26
f 27/27/27 28/28/28 29/29/29
f 30/30/30 31/31/31 32/32/32
f 32/32/32 31/31/31 33/33/33
f 32/32/32 33/33/33 34/34/34
f 35/35/35 36/36/36 37/37/37
f 38/38/38 37/37/37 39/39/39
f 39/39/39 37/37/37 33/33/33
f 40/40/40 41/41/41 42/42/42
f 43/43/43 44/44/44 45/45/45
f 46/46/46 47/47/47 48/48/48
f 2/2/2 1/1/1 49/49/49
f 11/11/11 50/50/50 51/51/51
f 52/52/52 53/53/53 54/54/54
f 54/54/54 53/53/53 55/55/55
f 54/54/54 55/55/55 56/56/56
f 57/57/57 58/58/58 59/59/59
f 59/59/59 58/58/58 60/60/60
f 59/59/59 60/60/60 61/61/61
f 61/61/61 60/60/60 36/36/36
f 62/62/62 63/63/63 64/64/64
f 62/62/62 65/65/65 63/63/63
f 63/63/63 65/65/65 66/66/66
f 63/63/63 66/66/66 67/67/67
f 68/68/68 69/69/69 70/70/70
f 70/70/70 69/69/69 71/71/71
f 70/70/70 71/71/71 72/72/72
f 72/72/72 71/71/71 6/6/6
f 73/73/73 56/56/56 74/74/74
f 75/75/75 76/76/76 77/77/77
f 78/78/78 79/79/79 80/80/80
f 50/50/50 81/81/81 51/51/51
f 51/51/51 81/81/81 1/1/1
f 51/51/51 1/1/1 82/82/82
f 82/82/82 1/1/1 3/3/3
f 83/83/83 84/84/84 85/85/85
f 85/85/85 84/84/84 86/86/86
f 85/85/85 86/86/86 87/87/87
f 88/88/88 89/89/89 90/90/90
f 11/11/11 91/91/91 12/12/12
f 12/12/12 91/91/91 82/82/82
f 12/12/12 82/82/82 87/87/87
f 41/41/41 92/92/92 42/42/42
f 42/42/42 92/92/92 93/93/93
f 42/42/42 93/93/93 94/94/94
f 75/75/75 95/95/95 76/76/76
f 76/76/76 95/95/95 96/96/96
f 76/76/76 96/96/96 77/77/77
f 78/78/78 97/97/97 79/79/79
f 79/79/79 97/97/97 98/98/98
f 79/79/79 98/98/98 80/80/80
f 89/89/89 99/99/99 90/90/90
f 90/90/90 99/99/99 100/100/100
f 90/90/90 100/100/100 88/88/88
f 101/101/101 102/102/102 103/103/103
f 103/103/103 102/102/102 104/104/104
f 105/105/105 106/106/106 101/101/101
f 101/101/101 106/106/106 107/107/107
f 108/108/108 109/109/109 110/110/110
f 110/110/110 109/109/109 111/111/111
f 110/110/110 111/111/111 112/112/112
f 5/5/5 4/4/4 113/113/113
f 113/113/113 4/4/4 48/48/48
f 113/113/113 48/48/48 114/114/114
f 114/114/114 48/48/48 47/47/47
f 114/114/114 47/47/47 115/115/115
f 115/115/115 116/116/116 114/114/114
f 114/114/114 116/116/116 117/117/117
f 114/114/114 117/117/117 113/113/113
f 113/113/113 117/117/117 118/118/118
f 113/113/113 118/118/118 5/5/5
f 5/5/5 118/118/118 119/119/119
f 5/5/5 119/119/119 120/120/120
f 11/11/11 13/13/13 50/50/50
f 50/50/50 13/13/13 15/15/15
f 50/50/50 15/15/15 49/49/49
f 49/49/49 15/15/15 121/121/121
f 49/49/49 121/121/121 2/2/2
f 122/122/122 123/123/123 124/124/124
f 124/124/124 123/123/123 125/125/125
f 124/124/124 125/125/125 126/126/126
f 126/126/126 125/125/125 44/44/44
f 126/126/126 44/44/44 46/46/46
f 46/46/46 44/44/44 43/43/43
f 127/127/127 128/128/128 123/123/123
f 123/123/123 128/128/128 129/129/129
f 123/123/123 129/129/129 125/125/125
f 125/125/125 129/129/129 130/130/130
f 125/125/125 130/130/130 44/44/44
f 44/44/44 130/130/130 131/131/131
f 44/44/44 131/131/131 45/45/45
f 54/54/54 21/21/21 52/52/52
f 52/52/52 21/21/21 20/20/20
f 52/52/52 20/20/20 53/53/53
f 53/53/53 20/20/20 19/19/19
f 53/53/53 19/19/19 55/55/55
f 55/55/55 19/19/19 10/10/10
f 55/55/55 10/10/10 56/56/56
f 56/56/56 10/10/10 132/132/132
f 56/56/56 132/132/132 74/74/74
f 69/69/69 133/133/133 134/134/134
f 134/134/134 133/133/133 59/59/59
f 134/134/134 59/59/59 2/2/2
f 2/2/2 59/59/59 61/61/61
f 2/2/2 61/61/61 3/3/3
f 134/134/134 15/15/15 69/69/69
f 69/69/69 15/15/15 14/14/14
f 69/69/69 14/14/14 71/71/71
f 71/71/71 14/14/14 39/39/39
f 71/71/71 39/39/39 6/6/6
f 6/6/6 39/39/39 33/33/33
f 6/6/6 33/33/33 4/4/4
f 4/4/4 33/33/33 31/31/31
f 4/4/4 31/31/31 48/48/48
f 48/48/48 31/31/31 135/135/135
f 48/48/48 135/135/135 46/46/46
f 136/136/136 28/28/28 26/26/26
f 26/26/26 28/28/28 27/27/27
f 26/26/26 27/27/27 24/24/24
f 24/24/24 27/27/27 29/29/29
f 24/24/24 29/29/29 22/22/22
f 22/22/22 29/29/29 28/28/28
f 22/22/22 28/28/28 23/23/23
f 23/23/23 28/28/28 136/136/136
f 23/23/23 136/136/136 137/137/137
f 137/137/137 136/136/136 26/26/26
f 137/137/137 26/26/26 138/138/138
f 138/138/138 26/26/26 25/25/25
f 138/138/138 25/25/25 7/7/7
f 7/7/7 25/25/25 23/23/23
f 7/7/7 23/23/23 8/8/8
f 8/8/8 23/23/23 137/137/137
f 8/8/8 137/137/137 9/9/9
f 9/9/9 137/137/137 138/138/138
f 9/9/9 138/138/138 7/7/7
f 139/139/139 87/87/87 140/140/140
f 140/140/140 87/87/87 82/82/82
f 140/140/140 82/82/82 141/141/141
f 141/141/141 82/82/82 3/3/3
f 141/141/141 3/3/3 92/92/92
f 92/92/92 3/3/3 61/61/61
f 92/92/92 61/61/61 93/93/93
f 93/93/93 61/61/61 36/36/36
f 93/93/93 36/36/36 94/94/94
f 94/94/94 36/36/36 35/35/35
f 54/54/54 85/85/85 142/142/142
f 142/142/142 85/85/85 87/87/87
f 142/142/142 87/87/87 19/19/19
f 19/19/19 87/87/87 139/139/139
f 19/19/19 139/139/139 10/10/10
f 10/10/10 139/139/139 140/140/140
f 10/10/10 140/140/140 11/11/11
f 11/11/11 140/140/140 141/141/141
f 11/11/11 141/141/141 13/13/13
f 13/13/13 141/141/141 92/92/92
f 13/13/13 92/92/92 14/14/14
f 14/14/14 92/92/92 41/41/41
f 14/14/14 41/41/41 39/39/39
f 39/39/39 41/41/41 40/40/40
f 39/39/39 40/40/40 38/38/38
f 58/58/58 143/143/143 60/60/60
f 60/60/60 143/143/143 122/122/122
f 60/60/60 122/122/122 36/36/36
f 36/36/36 122/122/122 17/17/17
f 36/36/36 17/17/17 37/37/37
f 37/37/37 17/17/17 16/16/16
f 37/37/37 16/16/16 33/33/33
f 33/33/33 16/16/16 18/18/18
f 33/33/33 18/18/18 34/34/34
f 34/34/34 18/18/18 17/17/17
f 34/34/34 17/17/17 32/32/32
f 32/32/32 17/17/17 112/112/112
f 32/32/32 112/112/112 30/30/30
f 30/30/30 112/112/112 111/111/111
f 30/30/30 111/111/111 31/31/31
f 31/31/31 111/111/111 109/109/109
f 31/31/31 109/109/109 135/135/135
f 135/135/135 109/109/109 108/108/108
f 135/135/135 108/108/108 46/46/46
f 46/46/46 108/108/108 110/110/110
f 46/46/46 110/110/110 126/126/126
f 126/126/126 110/110/110 112/112/112
f 126/126/126 112/112/112 124/124/124
f 124/124/124 112/112/112 17/17/17
f 124/124/124 17/17/17 122/122/122
g mesh01
