mtllib 3732-0.mtl
g mesh00
usemtl texture00
v -0.711509 -1.223806 29.179417
vt 0.367920 0.191406
vn -0.496063 -0.866142 0.015748
v -1.082366 1.452007 59.323804
vt 0.973083 0.232086
vn -0.944882 -0.322835 -0.102362
v -1.462173 2.637368 29.179417
vt 0.367920 0.232086
vn -0.968504 -0.267717 0.007874
v 8.297582 -2.284963 65.658358
vt 0.608154 0.964569
vn -0.267717 -0.960630 -0.118110
v 0.000559 0.009857 65.742404
vt 0.608154 0.797363
vn -0.496063 -0.866142 -0.031496
v 3.701301 -0.521461 61.879415
vt 0.656860 0.887299
vn -0.070866 -1.000000 -0.094488
v -0.237170 -0.402678 58.940929
vt 0.682556 0.797363
vn -0.496063 -0.866142 -0.055118
v -2.309607 2.948865 61.879415
vt 0.656860 0.886810
vn -0.826772 -0.559055 -0.094488
v -1.082366 1.452007 59.323804
vt 0.682556 0.861298
vn -0.944882 -0.322835 -0.102362
v -1.462173 2.637368 29.179417
vt 0.361420 0.195007
vn 0.496063 0.866142 0.023622
v -1.082366 1.452007 59.323804
vt 0.927002 0.195007
vn 0.496063 0.866142 -0.110236
v 3.007692 0.056188 29.179417
vt 0.361420 0.150055
vn 0.496063 0.866142 0.023622
v 1.791638 -0.207500 59.323804
vt 0.927002 0.150055
vn 0.496063 0.866142 -0.110236
v 1.791638 -0.207500 59.323804
vt 0.682556 0.861786
vn 0.188976 -0.976378 -0.102362
v -6.109916 6.033270 65.658358
vt 0.608154 0.964081
vn -0.700787 -0.708661 -0.118110
v 1.791638 -0.207500 59.323804
vt 0.506683 0.781067
vn 0.496063 0.866142 -0.110236
v -1.082366 1.452007 59.323804
vt 0.506683 0.733002
vn 0.496063 0.866142 -0.110236
v 3.701301 -0.521461 61.879415
vt 0.549805 0.821930
vn 0.488189 0.842520 -0.228346
v -2.309607 2.948865 61.879415
vt 0.549805 0.699249
vn 0.488189 0.842520 -0.228346
v 8.297582 -2.284963 65.658358
vt 0.607391 0.917572
vn 0.488189 0.850394 -0.196850
v -6.109916 6.033270 65.658358
vt 0.607391 0.605621
vn 0.488189 0.850394 -0.196850
v -0.237170 -0.402678 58.940929
vt 0.988342 0.191406
vn -0.496063 -0.866142 -0.055118
v 3.007692 0.056188 29.179417
vt 0.367920 0.146454
vn 0.244094 -0.968504 0.007874
v 1.791638 -0.207500 59.323804
vt 0.973083 0.146454
vn 0.188976 -0.976378 -0.102362
f 1/1/1 2/2/2 3/3/3
f 4/4/4 5/5/5 6/6/6
f 7/7/7 8/8/8 9/9/9
f 10/10/10 11/11/11 12/12/12
f 12/12/12 11/11/11 13/13/13
f 14/14/14 6/6/6 7/7/7
f 7/7/7 6/6/6 5/5/5
f 7/7/7 5/5/5 8/8/8
f 8/8/8 5/5/5 15/15/15
f 16/16/16 17/17/17 18/18/18
f 18/18/18 17/17/17 19/19/19
f 18/18/18 19/19/19 20/20/20
f 20/20/20 19/19/19 21/21/21
f 2/2/2 1/1/1 22/22/22
f 22/22/22 1/1/1 23/23/23
f 22/22/22 23/23/23 24/24/24
usemtl texture00
v 10.819188 1.111924 97.826067
vt 0.836609 0.343353
vn -0.614173 -0.763780 -0.204724
v 12.104603 -0.813735 101.231473
vt 0.898651 0.296692
vn -0.196850 -0.763780 0.622047
v 2.738079 4.751305 101.997223
vt 0.674377 0.296692
vn -0.488189 -0.842520 0.236220
v 11.683962 -3.200723 67.270790
vt 0.934601 0.887543
vn 0.669291 0.708661 -0.228346
v 12.326670 -0.101039 96.163830
vt 0.884338 0.386993
vn -0.850394 0.425197 -0.307087
v 15.550275 0.426336 98.601155
vt 0.934814 0.343994
vn 0.669291 0.732283 -0.118110
v 10.819188 1.111924 97.826067
vt 0.836609 0.343353
vn 0.283465 0.803150 -0.527559
v 13.688158 1.927137 100.668056
vt 0.898651 0.296692
vn 0.645669 0.700787 0.314961
v 4.321075 7.493162 101.433806
vt 0.674377 0.296692
vn 0.496063 0.866142 -0.110236
v 3.251014 5.638970 98.591816
vt 0.674377 0.343353
vn 0.401575 0.692913 -0.606299
v -4.453644 9.929438 97.826067
vt 0.836609 0.343353
vn 0.551181 0.653543 -0.527559
v -5.181933 12.822115 100.668056
vt 0.898651 0.296692
vn 0.283465 0.905512 0.314961
v -7.412671 13.684151 98.601155
vt 0.934814 0.343994
vn 0.299213 0.952756 -0.118110
v 15.550275 0.426336 98.601155
vt 0.934814 0.343994
vn 0.669291 0.732283 -0.118110
v 10.099848 -5.942581 67.831095
vt 0.992676 0.917267
vn -0.283465 -0.952756 0.094488
v 13.966161 -2.314536 99.164572
vt 0.992676 0.343994
vn -0.291339 -0.937008 0.212598
v -8.620894 8.522283 67.270790
vt 0.934601 0.887543
vn 0.275591 0.937008 -0.228346
v -10.203330 5.779440 67.831095
vt 0.992676 0.917267
vn -0.685039 -0.724409 0.094488
v -7.412671 13.684151 98.601155
vt 0.934814 0.343994
vn 0.299213 0.952756 -0.118110
v -8.995107 10.941801 99.164572
vt 0.992676 0.343994
vn -0.661417 -0.724409 0.212598
v -4.839044 4.132255 66.844336
vt 0.840088 0.365387
vn 0.496063 0.858268 -0.165354
v -3.073697 9.497680 99.948998
vt 0.840088 0.821136
vn 0.496063 0.858268 -0.165354
v -2.640750 2.863597 66.847449
vt 0.783478 0.365387
vn 0.496063 0.858268 -0.165354
v -0.873165 8.233459 99.977014
vt 0.783478 0.821136
vn 0.496063 0.858268 -0.165354
v -2.640750 2.863597 66.847449
vt 0.783478 0.365387
vn 0.173228 -0.976378 0.141732
v -0.873165 8.233459 99.977014
vt 0.783478 0.821136
vn 0.173228 -0.976378 0.141732
v -4.257867 2.600896 67.031104
vt 0.810120 0.365387
vn -0.496063 -0.858268 0.165354
v -2.491400 7.968293 100.148218
vt 0.810120 0.821136
vn -0.496063 -0.858268 0.165354
v -4.839044 4.132255 66.844336
vt 0.840088 0.365387
vn -0.937008 -0.338583 0.102362
v -3.073697 9.497680 99.948998
vt 0.840088 0.821136
vn -0.937008 -0.338583 0.102362
v 3.793596 -0.851193 66.847449
vt 0.783478 0.365387
vn 0.496063 0.858268 -0.165354
v 7.559783 3.364357 99.977014
vt 0.783478 0.821136
vn 0.496063 0.858268 -0.165354
v 5.991331 -2.120344 66.844336
vt 0.840088 0.365387
vn 0.496063 0.858268 -0.165354
v 9.755281 2.090771 99.948998
vt 0.840088 0.821136
vn 0.496063 0.858268 -0.165354
v 5.991331 -2.120344 66.844336
vt 0.840088 0.365387
vn 0.165354 -0.984252 0.102362
v 9.755281 2.090771 99.948998
vt 0.840088 0.821136
vn 0.165354 -0.984252 0.102362
v 4.374214 -2.383045 67.031104
vt 0.810120 0.365387
vn -0.496063 -0.858268 0.165354
v 8.139842 1.830041 100.148218
vt 0.810120 0.821136
vn -0.496063 -0.858268 0.165354
v 3.793596 -0.851193 66.847449
vt 0.783478 0.365387
vn -0.937008 -0.330709 0.141732
v 7.559783 3.364357 99.977014
vt 0.783478 0.821136
vn -0.937008 -0.330709 0.141732
v -0.523563 1.640777 66.847449
vt 0.783478 0.365387
vn 0.496063 0.858268 -0.165354
v 2.244162 6.435455 99.989465
vt 0.783478 0.821136
vn 0.496063 0.858268 -0.165354
v 1.675850 0.371134 66.847449
vt 0.840088 0.365387
vn 0.496063 0.858268 -0.165354
v 4.444134 5.165319 99.989465
vt 0.840088 0.821136
vn 0.496063 0.858268 -0.165354
v 1.675850 0.371134 66.847449
vt 0.840088 0.365387
vn 0.173228 -0.984252 0.125984
v 4.444134 5.165319 99.989465
vt 0.840088 0.821136
vn 0.173228 -0.984252 0.125984
v 0.057614 0.108432 67.031104
vt 0.810120 0.365387
vn -0.496063 -0.858268 0.165354
v 2.825899 4.903110 100.173120
vt 0.810120 0.821136
vn -0.496063 -0.858268 0.165354
v -0.523563 1.640777 66.847449
vt 0.783478 0.365387
vn -0.937008 -0.338583 0.125984
v 2.244162 6.435455 99.989465
vt 0.783478 0.821136
vn -0.937008 -0.338583 0.125984
v -0.292547 -0.498788 65.132294
vt 0.699341 0.934418
vn -0.496063 -0.866142 0.047244
v 8.337856 -5.344725 65.798434
vt 0.888062 0.934418
vn -0.251969 -0.913386 -0.314961
v 7.834430 -2.446133 69.297225
vt 0.843079 0.849243
vn -0.566929 -0.669291 0.480315
v 10.099848 -5.942581 67.831095
vt 0.934601 0.887543
vn -0.283465 -0.952756 0.094488
v 9.259126 -2.931121 70.934560
vt 0.884338 0.817657
vn -0.795276 0.519685 0.307087
v 13.966161 -2.314536 99.164572
vt 0.934814 0.343994
vn -0.291339 -0.937008 0.212598
v -10.203330 5.779440 67.831095
vt 0.934601 0.887543
vn -0.685039 -0.724409 0.094488
v -8.804924 4.552676 65.798434
vt 0.888062 0.934418
vn -0.661417 -0.677165 -0.314961
v -6.042792 5.565532 69.297225
vt 0.843079 0.849243
vn -0.291339 -0.826772 0.480315
v 0.836247 1.456442 68.631085
vt 0.699341 0.849243
vn -0.417323 -0.732283 0.543307
v 7.834430 -2.446133 69.297225
vt 0.843079 0.849243
vn 0.354331 0.929134 0.149606
v 1.289890 2.242576 64.565764
vt 0.699341 0.934418
vn 0.480315 0.826772 -0.299213
v 0.836247 1.456442 68.631085
vt 0.699341 0.849243
vn 0.488189 0.850394 0.212598
v -6.042792 5.565532 69.297225
vt 0.843079 0.849243
vn 0.622047 0.771654 0.149606
v 3.251014 5.638970 98.591816
vt 0.674377 0.343353
vn -0.480315 -0.834646 -0.283465
v -4.453644 9.929438 97.826067
vt 0.836609 0.343353
vn -0.354331 -0.913386 -0.204724
v 13.966161 -2.314536 99.164572
vt 0.993652 0.343994
vn -0.291339 -0.937008 0.212598
v 15.550275 0.426336 98.601155
vt 0.933838 0.343994
vn 0.669291 0.732283 -0.118110
v 12.104603 -0.813735 101.231473
vt 0.956299 0.242096
vn -0.196850 -0.763780 0.622047
v 13.688158 1.927137 100.668056
vt 0.898773 0.296692
vn 0.645669 0.700787 0.314961
v 2.738079 4.751305 101.997223
vt 0.674377 0.241516
vn -0.488189 -0.842520 0.236220
v -6.763810 10.079764 101.231473
vt 0.956299 0.242096
vn -0.559055 -0.551181 0.622047
v -5.181933 12.822115 100.668056
vt 0.898773 0.296692
vn 0.283465 0.905512 0.314961
v -8.995107 10.941801 99.164572
vt 0.993652 0.343994
vn -0.661417 -0.724409 0.212598
v -7.412671 13.684151 98.601155
vt 0.933838 0.343994
vn 0.299213 0.952756 -0.118110
v 10.099848 -5.942581 67.831095
vt 0.992645 0.917267
vn -0.283465 -0.952756 0.094488
v 9.923089 -2.604346 65.231904
vt 0.888885 0.934509
vn 0.582677 0.535433 -0.614173
v 8.337856 -5.344725 65.798434
vt 0.941528 0.993713
vn -0.251969 -0.913386 -0.314961
v 1.289890 2.242576 64.565764
vt 0.699341 0.934509
vn 0.480315 0.826772 -0.299213
v -0.292547 -0.498788 65.132294
vt 0.699341 0.993713
vn -0.496063 -0.866142 0.047244
v -7.224166 7.295520 65.231904
vt 0.888885 0.934509
vn 0.173228 0.771654 -0.614173
v -8.804924 4.552676 65.798434
vt 0.941528 0.993713
vn -0.661417 -0.677165 -0.314961
v -10.203330 5.779440 67.831095
vt 0.992645 0.917267
vn -0.685039 -0.724409 0.094488
v -6.763810 10.079764 101.231473
vt 0.898651 0.296692
vn -0.559055 -0.551181 0.622047
v -8.995107 10.941801 99.164572
vt 0.934814 0.343994
vn -0.661417 -0.724409 0.212598
v -6.258147 10.628826 96.163830
vt 0.884338 0.386993
vn 0.795276 -0.519685 -0.307087
v -7.174942 6.557195 70.934560
vt 0.884338 0.817657
vn 0.850394 -0.425197 0.307087
v 9.923089 -2.604346 65.231904
vt 0.888062 0.934418
vn 0.582677 0.535433 -0.614173
v -7.224166 7.295520 65.231904
vt 0.888062 0.934418
vn 0.173228 0.771654 -0.614173
f 25/25/25 26/26/26 27/27/27
f 28/28/28 29/29/29 30/30/30
f 30/30/30 29/29/29 31/31/31
f 30/30/30 31/31/31 32/32/32
f 32/32/32 31/31/31 33/33/33
f 31/31/31 34/34/34 33/33/33
f 33/33/33 34/34/34 35/35/35
f 33/33/33 35/35/35 36/36/36
f 36/36/36 35/35/35 37/37/37
f 28/28/28 38/38/38 39/39/39
f 39/39/39 38/38/38 40/40/40
f 41/41/41 42/42/42 43/43/43
f 43/43/43 42/42/42 44/44/44
f 45/45/45 46/46/46 47/47/47
f 47/47/47 46/46/46 48/48/48
f 49/49/49 50/50/50 51/51/51
f 51/51/51 50/50/50 52/52/52
f 51/51/51 52/52/52 53/53/53
f 53/53/53 52/52/52 54/54/54
f 55/55/55 56/56/56 57/57/57
f 57/57/57 56/56/56 58/58/58
f 59/59/59 60/60/60 61/61/61
f 61/61/61 60/60/60 62/62/62
f 61/61/61 62/62/62 63/63/63
f 63/63/63 62/62/62 64/64/64
f 65/65/65 66/66/66 67/67/67
f 67/67/67 66/66/66 68/68/68
f 69/69/69 70/70/70 71/71/71
f 71/71/71 70/70/70 72/72/72
f 71/71/71 72/72/72 73/73/73
f 73/73/73 72/72/72 74/74/74
f 75/75/75 76/76/76 77/77/77
f 77/77/77 76/76/76 78/78/78
f 77/77/77 78/78/78 79/79/79
f 79/79/79 78/78/78 80/80/80
f 81/81/81 82/82/82 83/83/83
f 83/83/83 82/82/82 75/75/75
f 83/83/83 75/75/75 84/84/84
f 84/84/84 75/75/75 77/77/77
f 85/85/85 86/86/86 87/87/87
f 87/87/87 86/86/86 88/88/88
f 25/25/25 27/27/27 89/89/89
f 89/89/89 27/27/27 90/90/90
f 91/91/91 92/92/92 93/93/93
f 93/93/93 92/92/92 94/94/94
f 93/93/93 94/94/94 95/95/95
f 95/95/95 94/94/94 33/33/33
f 95/95/95 33/33/33 96/96/96
f 96/96/96 33/33/33 97/97/97
f 96/96/96 97/97/97 98/98/98
f 98/98/98 97/97/97 99/99/99
f 28/28/28 100/100/100 101/101/101
f 101/101/101 100/100/100 102/102/102
f 101/101/101 102/102/102 103/103/103
f 103/103/103 102/102/102 104/104/104
f 103/103/103 104/104/104 105/105/105
f 105/105/105 104/104/104 106/106/106
f 105/105/105 106/106/106 41/41/41
f 41/41/41 106/106/106 107/107/107
f 27/27/27 108/108/108 90/90/90
f 90/90/90 108/108/108 109/109/109
f 90/90/90 109/109/109 110/110/110
f 110/110/110 109/109/109 81/81/81
f 110/110/110 81/81/81 111/111/111
f 111/111/111 81/81/81 83/83/83
f 26/26/26 25/25/25 80/80/80
f 80/80/80 25/25/25 29/29/29
f 80/80/80 29/29/29 79/79/79
f 79/79/79 29/29/29 28/28/28
f 79/79/79 28/28/28 85/85/85
f 85/85/85 28/28/28 112/112/112
f 85/85/85 112/112/112 86/86/86
f 86/86/86 113/113/113 88/88/88
f 88/88/88 113/113/113 41/41/41
f 88/88/88 41/41/41 111/111/111
f 111/111/111 41/41/41 37/37/37
f 111/111/111 37/37/37 110/110/110
f 110/110/110 37/37/37 35/35/35
usemtl texture00
v 0.409453 -2.176531 29.624548
vt 0.386536 0.485382
vn -0.039370 -0.763780 0.645669
v -0.583415 2.718693 30.552164
vt 0.485779 0.512878
vn -0.448819 0.425197 0.787402
v -2.089778 -0.733396 29.624548
vt 0.521332 0.489594
vn -0.637795 -0.417323 0.645669
v -0.785904 -1.358361 13.494002
vt 0.768066 0.067719
vn -0.496063 -0.866142 0.000000
v -2.290589 1.325831 -4.482437
vt 0.380920 0.130890
vn -0.866142 0.503937 0.031496
v -0.985037 -1.700908 -4.466873
vt 0.381226 0.067719
vn -0.496063 -0.866142 0.023622
v 0.251154 1.731466 29.412878
vt 0.344604 0.009979
vn 0.464567 0.370079 0.811024
v -2.881835 3.540806 26.343654
vt 0.341949 0.120697
vn -0.496063 0.866142 0.039370
v -2.699483 3.435331 30.315590
vt 0.260223 0.015656
vn -0.433071 0.362205 0.826772
v 4.188506 -0.541176 30.440103
vt 0.260223 0.015656
vn 0.511811 -0.173228 0.842520
v 4.504546 -0.723539 26.343654
vt 0.341949 0.120697
vn 1.000000 0.007874 0.070866
v 1.370997 1.084815 29.412878
vt 0.344604 0.009979
vn 0.055118 0.598425 0.803150
v 4.188506 -0.541176 30.440103
vt 0.259766 0.014221
vn 0.511811 -0.173228 0.842520
v 1.216613 -2.513657 28.466585
vt 0.295807 0.132690
vn 0.047244 -0.748031 0.669291
v 1.370997 1.084815 29.412878
vt 0.341949 0.120697
vn 0.055118 0.598425 0.803150
v 0.251154 1.731466 29.412878
vt 0.341949 0.120697
vn 0.464567 0.370079 0.811024
v -2.699483 3.435331 30.315590
vt 0.259766 0.014221
vn -0.433071 0.362205 0.826772
v -2.787862 -0.201585 28.466585
vt 0.295807 0.132690
vn -0.692913 -0.314961 0.653543
v 2.372815 -3.310634 26.374782
vt 0.539032 0.291382
vn 0.377953 -0.905512 0.196850
v 0.409453 -2.176531 29.624548
vt 0.574402 0.238342
vn -0.039370 -0.763780 0.645669
v -1.557265 -2.697499 26.374782
vt 0.596893 0.291382
vn -0.496063 -0.866142 0.086614
v -2.089778 -0.733396 29.624548
vt 0.619385 0.238342
vn -0.637795 -0.417323 0.645669
v -4.053699 0.399721 26.374782
vt 0.654724 0.291382
vn -0.976378 -0.125984 0.196850
v -4.053699 0.399721 26.374782
vt 0.580109 0.602478
vn -0.976378 -0.125984 0.196850
v -2.800168 4.741940 25.574791
vt 0.545013 0.613983
vn -0.527559 0.834646 -0.165354
v -2.938890 -0.775291 23.420731
vt 0.517548 0.702087
vn -0.771654 -0.307087 -0.559055
v -1.383303 3.180515 22.530470
vt 0.504425 0.682587
vn -0.228346 0.448819 -0.866142
v 0.797651 -2.932600 23.420731
vt 0.378601 0.702087
vn 0.118110 -0.818898 -0.559055
v -2.938890 -0.775291 23.420731
vt 0.630524 0.339600
vn -0.771654 -0.307087 -0.559055
v 0.797651 -2.932600 23.420731
vt 0.563263 0.339600
vn 0.118110 -0.818898 -0.559055
v -0.583415 2.718693 30.552164
vt 0.485779 0.512878
vn -0.448819 0.425197 0.787402
v 2.646344 0.853658 30.552164
vt 0.410370 0.512878
vn 0.598425 -0.173228 0.787402
v 5.506364 -0.053723 25.574791
vt 0.351105 0.613983
vn 0.992126 -0.039370 -0.165354
v -1.306111 -2.258348 -3.766492
vt 0.463989 0.368225
vn -0.448819 -0.779528 0.433071
v 2.640750 -1.546638 -3.782056
vt 0.510529 0.314880
vn 0.763780 -0.322835 0.559055
v -2.674312 1.521995 -3.788282
vt 0.412079 0.314880
vn -0.669291 0.496063 0.559055
v 2.570270 1.396805 -3.788282
vt 0.495514 0.263062
vn 0.795276 0.464567 0.393701
v -0.060971 2.958229 -3.794507
vt 0.432465 0.262329
vn 0.015748 0.921260 0.393701
v 0.015662 2.293835 -8.196011
vt 0.443359 0.379456
vn -0.149606 0.874016 -0.472441
v 1.960006 1.140510 -8.189785
vt 0.498505 0.380096
vn 0.834646 0.299213 -0.464567
v -1.914698 1.232678 -8.189785
vt 0.419250 0.424805
vn -0.519685 0.188976 -0.834646
v 2.012586 -1.034542 -8.186672
vt 0.522430 0.424805
vn 0.425197 -0.354331 -0.834646
v -0.903930 -1.560439 -8.174221
vt 0.470917 0.476379
vn -0.377953 -0.661417 -0.645669
v 2.012586 -1.034542 -8.186672
vt 0.560059 0.560852
vn 0.425197 -0.354331 -0.834646
v 2.640750 -1.546638 -3.782056
vt 0.647888 0.560852
vn 0.763780 -0.322835 0.559055
v -0.903930 -1.560439 -8.174221
vt 0.560059 0.513824
vn -0.377953 -0.661417 -0.645669
v 0.015662 2.293835 -8.196011
vt 0.560059 0.433685
vn -0.149606 0.874016 -0.472441
v -1.914698 1.232678 -8.189785
vt 0.560059 0.467682
vn -0.519685 0.188976 -0.834646
v -2.674312 1.521995 -3.788282
vt 0.647888 0.467682
vn -0.669291 0.496063 0.559055
v -1.306111 -2.258348 -3.766492
vt 0.647888 0.513824
vn -0.448819 -0.779528 0.433071
v -0.592365 1.797511 -7.763331
vt 0.720154 0.772919
vn -0.496063 0.874016 0.000000
v 1.853168 0.385427 -7.763331
vt 0.756653 0.772919
vn 1.000000 0.007874 0.000000
v -0.592365 1.797511 -16.242607
vt 0.720154 0.636017
vn -0.543307 0.818898 -0.188976
v 1.853168 0.385427 -16.242607
vt 0.756653 0.636017
vn 0.984252 -0.055118 -0.188976
v -2.526081 -1.551074 -19.825444
vt 0.720154 0.554260
vn -0.708661 0.543307 -0.448819
v -0.079989 -2.963651 -19.825444
vt 0.756653 0.554260
vn 0.826772 -0.338583 -0.448819
v -4.919593 -5.696144 -18.711060
vt 0.720154 0.485168
vn -0.913386 0.181102 -0.370079
v -5.927004 -7.441410 -14.536791
vt 0.720154 0.401245
vn -0.850394 0.000000 0.527559
v -3.413789 -5.912516 -14.013840
vt 0.666718 0.401245
vn 0.314961 0.543307 0.779528
v -2.835967 -4.911981 -16.472955
vt 0.666718 0.485168
vn -0.645669 0.685039 0.338583
v -1.657391 -2.870991 -16.858942
vt 0.666718 0.554260
vn -0.842520 0.354331 0.409449
v -0.641589 -1.111924 -14.981922
vt 0.666718 0.636017
vn -0.984252 0.086614 0.173228
v -0.641589 -1.111924 -7.763331
vt 0.666718 0.772919
vn -1.000000 0.015748 0.000000
v -0.060971 2.958229 -3.794507
vt 0.647888 0.433685
vn 0.015748 0.921260 0.393701
v 2.570270 1.396805 -3.788282
vt 0.647888 0.393463
vn 0.795276 0.464567 0.393701
v 1.960006 1.140510 -8.189785
vt 0.560059 0.393463
vn 0.834646 0.299213 -0.464567
v 2.640750 -1.546638 -3.782056
vt 0.647888 0.366150
vn 0.763780 -0.322835 0.559055
v 2.012586 -1.034542 -8.186672
vt 0.560059 0.366150
vn 0.425197 -0.354331 -0.834646
v 1.669697 -0.963569 13.494002
vt 0.768036 0.009979
vn 0.874016 -0.488189 0.000000
v 2.280521 -1.313016 -4.479324
vt 0.381012 0.009979
vn 0.874016 -0.496063 0.031496
v 0.776395 1.346039 13.494002
vt 0.768066 0.067719
vn 0.503937 0.866142 0.000000
v 0.961544 1.670843 -4.485549
vt 0.380890 0.067719
vn 0.503937 0.866142 0.023622
v -1.672494 0.966033 13.494002
vt 0.768066 0.130890
vn -0.858268 0.511811 0.000000
v 2.372815 -3.310634 26.374782
vt 0.324402 0.602478
vn 0.377953 -0.905512 0.196850
v 3.446232 0.391835 22.530470
vt 0.391693 0.682587
vn 0.503937 0.023622 -0.866142
v -2.473501 -7.108720 -18.711060
vt 0.756653 0.485168
vn 0.614173 -0.700787 -0.370079
v -3.480912 -8.853494 -14.536791
vt 0.756653 0.401245
vn 0.425197 -0.732283 0.527559
v -4.142079 -7.174273 -13.431746
vt 0.720154 0.364319
vn -0.039370 -0.078740 1.000000
v -3.480912 -8.853494 -14.536791
vt 0.720154 0.401245
vn 0.425197 -0.732283 0.527559
v -2.835967 -4.911981 -16.472955
vt 0.666718 0.485168
vn 0.921260 -0.212598 0.338583
v -2.473501 -7.108720 -18.711060
vt 0.720154 0.485168
vn 0.614173 -0.700787 -0.370079
v -1.657391 -2.870991 -16.858942
vt 0.666718 0.554260
vn 0.724409 -0.551181 0.409449
v -0.079989 -2.963651 -19.825444
vt 0.720154 0.554260
vn 0.826772 -0.338583 -0.448819
v -0.641589 -1.111924 -14.981922
vt 0.666718 0.636017
vn 0.574803 -0.803150 0.173228
v 1.853168 0.385427 -16.242607
vt 0.720154 0.636017
vn 0.984252 -0.055118 -0.188976
v -0.641589 -1.111924 -7.763331
vt 0.666718 0.772919
vn 0.511811 -0.858268 0.000000
v 1.853168 0.385427 -7.763331
vt 0.720154 0.772919
vn 1.000000 0.007874 0.000000
v -1.969515 1.137060 23.601274
vt 0.988617 0.130890
vn -0.858268 0.519685 -0.023622
v 0.769123 1.332238 23.016067
vt 0.988617 0.067719
vn 0.503937 0.866142 -0.007874
v 1.969515 -1.137060 23.601274
vt 0.988617 0.009979
vn 0.881890 -0.472441 -0.023622
v -0.966578 -1.674786 24.818380
vt 0.988617 0.067719
vn -0.496063 -0.866142 -0.023622
f 114/114/114 115/115/115 116/116/116
f 117/117/117 118/118/118 119/119/119
f 120/120/120 121/121/121 122/122/122
f 123/123/123 124/124/124 125/125/125
f 124/124/124 126/126/126 127/127/127
f 127/127/127 126/126/126 128/128/128
f 129/129/129 130/130/130 131/131/131
f 131/131/131 130/130/130 121/121/121
f 132/132/132 133/133/133 134/134/134
f 134/134/134 133/133/133 135/135/135
f 134/134/134 135/135/135 136/136/136
f 137/137/137 138/138/138 139/139/139
f 139/139/139 138/138/138 140/140/140
f 139/139/139 140/140/140 141/141/141
f 136/136/136 142/142/142 134/134/134
f 134/134/134 142/142/142 143/143/143
f 134/134/134 143/143/143 132/132/132
f 144/144/144 145/145/145 146/146/146
f 147/147/147 148/148/148 149/149/149
f 149/149/149 148/148/148 150/150/150
f 149/149/149 150/150/150 151/151/151
f 152/152/152 153/153/153 154/154/154
f 154/154/154 153/153/153 155/155/155
f 154/154/154 155/155/155 156/156/156
f 157/157/157 158/158/158 159/159/159
f 160/160/160 161/161/161 162/162/162
f 162/162/162 161/161/161 159/159/159
f 162/162/162 159/159/159 163/163/163
f 163/163/163 159/159/159 158/158/158
f 164/164/164 165/165/165 166/166/166
f 166/166/166 165/165/165 167/167/167
f 166/166/166 167/167/167 168/168/168
f 168/168/168 167/167/167 169/169/169
f 168/168/168 169/169/169 170/170/170
f 171/171/171 172/172/172 170/170/170
f 170/170/170 172/172/172 173/173/173
f 170/170/170 173/173/173 168/168/168
f 168/168/168 173/173/173 174/174/174
f 168/168/168 174/174/174 166/166/166
f 166/166/166 174/174/174 175/175/175
f 166/166/166 175/175/175 164/164/164
f 164/164/164 175/175/175 176/176/176
f 162/162/162 177/177/177 160/160/160
f 160/160/160 177/177/177 178/178/178
f 160/160/160 178/178/178 179/179/179
f 179/179/179 178/178/178 180/180/180
f 179/179/179 180/180/180 181/181/181
f 117/117/117 119/119/119 182/182/182
f 182/182/182 119/119/119 183/183/183
f 182/182/182 183/183/183 184/184/184
f 184/184/184 183/183/183 185/185/185
f 184/184/184 185/185/185 186/186/186
f 186/186/186 185/185/185 118/118/118
f 115/115/115 114/114/114 145/145/145
f 145/145/145 114/114/114 187/187/187
f 145/145/145 187/187/187 146/146/146
f 146/146/146 187/187/187 141/141/141
f 146/146/146 141/141/141 188/188/188
f 188/188/188 141/141/141 140/140/140
f 188/188/188 140/140/140 146/146/146
f 146/146/146 140/140/140 138/138/138
f 146/146/146 138/138/138 144/144/144
f 144/144/144 138/138/138 137/137/137
f 144/144/144 137/137/137 116/116/116
f 169/169/169 189/189/189 170/170/170
f 170/170/170 189/189/189 190/190/190
f 170/170/170 190/190/190 171/171/171
f 171/171/171 190/190/190 191/191/191
f 171/171/171 191/191/191 172/172/172
f 172/172/172 191/191/191 192/192/192
f 172/172/172 192/192/192 193/193/193
f 193/193/193 192/192/192 194/194/194
f 193/193/193 194/194/194 195/195/195
f 195/195/195 194/194/194 196/196/196
f 195/195/195 196/196/196 197/197/197
f 197/197/197 196/196/196 198/198/198
f 197/197/197 198/198/198 199/199/199
f 199/199/199 198/198/198 200/200/200
f 118/118/118 117/117/117 186/186/186
f 186/186/186 117/117/117 201/201/201
f 186/186/186 201/201/201 184/184/184
f 184/184/184 201/201/201 202/202/202
f 184/184/184 202/202/202 182/182/182
f 182/182/182 202/202/202 203/203/203
f 182/182/182 203/203/203 117/117/117
f 117/117/117 203/203/203 204/204/204
f 117/117/117 204/204/204 201/201/201
g mesh01
