mtllib 3604-0.mtl
g mesh00
usemtl texture00
v 42.012156 -14.399827 118.704317
vt 0.066315 0.612610
vn 0.362205 -0.732283 -0.582677
v 51.146775 -10.766911 119.847994
vt 0.012360 0.613556
vn 0.362205 -0.732283 -0.582677
v 46.428230 -18.263454 129.810169
vt 0.039215 0.589386
vn 0.377953 -0.818898 -0.433071
v 42.012156 14.399827 118.704317
vt 0.066315 0.612610
vn 0.362205 0.732283 -0.582677
v 51.146775 10.766911 119.847994
vt 0.012360 0.613556
vn 0.362205 0.732283 -0.582677
v 46.503326 9.307153 116.353104
vt 0.039001 0.641632
vn 0.338583 0.622047 -0.708661
v 46.503326 -9.307153 116.353104
vt 0.039001 0.641632
vn 0.338583 -0.622047 -0.708661
v 46.428230 18.263454 129.810169
vt 0.039215 0.589386
vn 0.377953 0.818898 -0.433071
f 1/1/1 2/2/2 3/3/3
f 4/4/4 5/5/5 6/6/6
f 2/2/2 1/1/1 7/7/7
f 5/5/5 4/4/4 8/8/8
g mesh01
