mtllib 0416-0.mtl
g mesh00
usemtl texture00
v -3.059255 -4.939073 5.259265
vt 0.257355 0.960144
vn -0.472441 -0.874016 -0.133858
v 0.000000 -5.545818 5.211726
vt 0.500153 0.987488
vn 0.000000 -0.968504 -0.244094
v -1.326082 -5.730079 8.897066
vt 0.464508 0.975677
vn -0.393701 -0.897638 0.196850
v -1.739687 -2.033452 10.872717
vt 0.428162 0.829956
vn -0.385827 -0.291339 0.881890
v -3.058367 -3.129805 8.915482
vt 0.314575 0.869629
vn -0.661417 -0.456693 0.598425
v -1.516749 -2.957828 10.146784
vt 0.438171 0.885559
vn -0.377953 -0.409449 0.826772
v 0.000000 -0.465478 11.908295
vt 0.500153 0.748291
vn 0.000000 0.039370 1.000000
v -1.334668 1.124870 11.477446
vt 0.415253 0.660095
vn -0.574803 -0.362205 0.740157
v -1.116763 -0.457582 11.640621
vt 0.434631 0.748169
vn -0.338583 -0.259843 0.905512
v 7.555914 5.748944 2.346968
vt 0.037567 0.433716
vn 0.984252 -0.031496 0.196850
v 6.978584 3.039429 7.005786
vt 0.113495 0.635681
vn 0.960630 -0.094488 0.275591
v 6.979472 0.048698 2.097282
vt 0.082275 0.652802
vn 0.944882 -0.307087 0.157480
v 0.000000 -3.028900 10.468421
vt 0.500153 0.885498
vn 0.000000 -0.464567 0.889764
v 1.149330 -5.166767 9.913800
vt 0.460236 0.954803
vn 0.417323 -0.511811 0.755906
v 1.516749 -2.957828 10.146784
vt 0.438171 0.885559
vn 0.377953 -0.409449 0.826772
v 0.000000 1.208226 14.033415
vt 0.500153 0.638672
vn 0.000000 -0.133858 0.992126
v 0.609601 1.122676 13.627835
vt 0.466125 0.652771
vn 0.716535 -0.393701 0.582677
v 0.000000 1.740389 13.800003
vt 0.500580 0.621429
vn 0.000000 0.291339 0.960630
v 0.000000 1.208226 14.033415
vt 0.500153 0.638672
vn 0.000000 -0.133858 0.992126
v -0.609601 1.122676 13.627835
vt 0.466125 0.652771
vn -0.716535 -0.393701 0.582677
v 1.326082 -5.730079 8.897066
vt 0.464508 0.975677
vn 0.425197 -0.881890 0.204724
v 0.000000 -5.730079 9.342476
vt 0.500153 0.965942
vn 0.000000 -0.944882 0.338583
v 0.000000 -0.660269 11.923285
vt 0.500153 0.758728
vn 0.000000 -0.370079 0.929134
v 0.000000 -1.446449 11.025612
vt 0.500153 0.796143
vn 0.000000 -0.401575 0.921260
v 1.116763 -0.457582 11.640621
vt 0.434631 0.748169
vn 0.338583 -0.259843 0.905512
v 1.211208 -1.358706 10.741663
vt 0.441742 0.791870
vn 0.299213 -0.031496 0.952756
v 3.416608 -1.031862 9.824718
vt 0.337311 0.787537
vn 0.574803 -0.244094 0.779528
v 0.000000 -5.730079 9.342476
vt 0.500153 0.987488
vn 0.000000 -0.944882 0.338583
v 0.000000 -5.545818 5.211726
vt 0.500153 0.965942
vn 0.000000 -0.968504 -0.244094
v -3.416608 -1.031862 9.824718
vt 0.337311 0.787537
vn -0.574803 -0.244094 0.779528
v -5.091456 -1.171374 7.950570
vt 0.241730 0.815582
vn -0.787402 -0.417323 0.456693
v 0.000000 0.696243 13.656958
vt 0.500153 0.679688
vn 0.000000 -0.921260 0.393701
v 0.000000 0.866466 12.753289
vt 0.500153 0.697815
vn 0.000000 -1.000000 0.023622
v 0.000000 0.750206 11.936133
vt 0.500153 0.721497
vn 0.000000 -0.669291 0.748031
v -4.170097 -2.844201 2.512284
vt 0.011780 0.987488
vn -0.157480 -0.716535 -0.677165
v -6.028211 -2.666959 2.726424
vt 0.094910 0.925171
vn -0.669291 -0.645669 -0.385827
v -7.543479 3.837017 -0.550338
vt 0.011780 0.437836
vn -0.551181 -0.472441 -0.685039
v -6.978584 3.039429 7.005786
vt 0.113495 0.635681
vn -0.960630 -0.094488 0.275591
v -6.225095 3.025829 8.757875
vt 0.168671 0.606476
vn -0.779528 -0.118110 0.614173
v -1.211208 -1.358706 10.741663
vt 0.441742 0.791870
vn -0.299213 -0.031496 0.952756
v 0.000000 -5.730079 9.342476
vt 0.500153 0.965942
vn 0.000000 -0.944882 0.338583
v 1.149330 -5.166767 9.913800
vt 0.538818 0.954803
vn 0.417323 -0.511811 0.755906
v -1.149330 -5.166767 9.913800
vt 0.460236 0.954803
vn -0.409449 -0.511811 0.763780
v 6.225095 3.025829 8.757875
vt 0.168671 0.606476
vn 0.779528 -0.118110 0.614173
v 5.091456 -1.171374 7.950570
vt 0.241730 0.815582
vn 0.787402 -0.425197 0.456693
v 6.277795 -2.028626 3.948731
vt 0.172394 0.858154
vn 0.850394 -0.480315 0.212598
v 6.028211 -2.666959 2.726424
vt 0.094910 0.925171
vn 0.669291 -0.645669 -0.385827
v 7.543479 3.837017 -0.550338
vt 0.011780 0.437836
vn 0.551181 -0.472441 -0.685039
v 0.000000 -2.059775 11.312131
vt 0.500153 0.835968
vn 0.000000 0.047244 1.000000
v 1.739687 -2.033452 10.872717
vt 0.428162 0.829956
vn 0.385827 -0.291339 0.881890
v 3.058367 -3.129805 8.915482
vt 0.314575 0.869629
vn 0.661417 -0.464567 0.582677
v 3.478782 -4.170003 6.258868
vt 0.284546 0.914734
vn 0.748031 -0.590551 0.307087
v 3.074355 -4.939073 5.259265
vt 0.257355 0.960144
vn 0.496063 -0.866142 -0.110236
v 4.170097 -2.844201 2.512284
vt 0.011780 0.987488
vn 0.149606 -0.716535 -0.677165
v -1.149330 -5.166767 9.913800
vt 0.460236 0.954803
vn -0.409449 -0.511811 0.763780
v -3.656126 -4.170003 6.258868
vt 0.284546 0.914734
vn -0.740157 -0.598425 0.299213
v -6.277795 -2.028626 3.948731
vt 0.172394 0.858154
vn -0.858268 -0.488189 0.188976
v -6.979472 0.048698 2.097282
vt 0.082275 0.652802
vn -0.944882 -0.307087 0.157480
v 1.334668 1.124870 11.477446
vt 0.415253 0.660095
vn 0.574803 -0.362205 0.740157
v -7.555914 5.748944 2.346968
vt 0.037567 0.433716
vn -0.984252 -0.031496 0.196850
f 1/1/1 2/2/2 3/3/3
f 4/4/4 5/5/5 6/6/6
f 7/7/7 8/8/8 9/9/9
f 10/10/10 11/11/11 12/12/12
f 13/13/13 14/14/14 15/15/15
f 16/16/16 17/17/17 18/18/18
f 19/19/19 18/18/18 20/20/20
f 21/21/21 14/14/14 22/22/22
f 23/23/23 24/24/24 25/25/25
f 25/25/25 24/24/24 26/26/26
f 25/25/25 26/26/26 27/27/27
f 21/21/21 28/28/28 29/29/29
f 29/29/29 28/28/28 3/3/3
f 30/30/30 31/31/31 5/5/5
f 32/32/32 20/20/20 33/33/33
f 33/33/33 20/20/20 8/8/8
f 33/33/33 8/8/8 34/34/34
f 2/2/2 1/1/1 35/35/35
f 35/35/35 1/1/1 36/36/36
f 35/35/35 36/36/36 37/37/37
f 38/38/38 31/31/31 39/39/39
f 5/5/5 4/4/4 30/30/30
f 30/30/30 4/4/4 40/40/40
f 30/30/30 40/40/40 9/9/9
f 41/41/41 42/42/42 43/43/43
f 43/43/43 42/42/42 13/13/13
f 44/44/44 45/45/45 11/11/11
f 11/11/11 45/45/45 46/46/46
f 11/11/11 46/46/46 12/12/12
f 12/12/12 46/46/46 47/47/47
f 12/12/12 47/47/47 48/48/48
f 49/49/49 13/13/13 50/50/50
f 50/50/50 13/13/13 15/15/15
f 50/50/50 15/15/15 51/51/51
f 51/51/51 15/15/15 14/14/14
f 51/51/51 14/14/14 52/52/52
f 52/52/52 14/14/14 21/21/21
f 52/52/52 21/21/21 53/53/53
f 53/53/53 21/21/21 2/2/2
f 53/53/53 2/2/2 54/54/54
f 22/22/22 55/55/55 3/3/3
f 3/3/3 55/55/55 56/56/56
f 3/3/3 56/56/56 1/1/1
f 1/1/1 56/56/56 57/57/57
f 1/1/1 57/57/57 36/36/36
f 36/36/36 57/57/57 58/58/58
f 36/36/36 58/58/58 37/37/37
f 8/8/8 7/7/7 34/34/34
f 34/34/34 7/7/7 59/59/59
f 34/34/34 59/59/59 33/33/33
f 33/33/33 59/59/59 17/17/17
f 33/33/33 17/17/17 32/32/32
f 32/32/32 17/17/17 16/16/16
f 32/32/32 16/16/16 20/20/20
f 24/24/24 49/49/49 26/26/26
f 26/26/26 49/49/49 50/50/50
f 26/26/26 50/50/50 27/27/27
f 27/27/27 50/50/50 51/51/51
f 27/27/27 51/51/51 45/45/45
f 45/45/45 51/51/51 52/52/52
f 45/45/45 52/52/52 46/46/46
f 46/46/46 52/52/52 53/53/53
f 46/46/46 53/53/53 47/47/47
f 47/47/47 53/53/53 54/54/54
f 47/47/47 54/54/54 48/48/48
f 60/60/60 58/58/58 38/38/38
f 38/38/38 58/58/58 57/57/57
f 38/38/38 57/57/57 31/31/31
f 31/31/31 57/57/57 56/56/56
f 31/31/31 56/56/56 5/5/5
f 5/5/5 56/56/56 55/55/55
f 5/5/5 55/55/55 6/6/6
f 6/6/6 55/55/55 13/13/13
f 6/6/6 13/13/13 4/4/4
f 4/4/4 13/13/13 49/49/49
f 4/4/4 49/49/49 40/40/40
f 40/40/40 49/49/49 24/24/24
f 40/40/40 24/24/24 9/9/9
f 9/9/9 24/24/24 23/23/23
f 9/9/9 23/23/23 7/7/7
f 7/7/7 23/23/23 25/25/25
f 7/7/7 25/25/25 59/59/59
usemtl texture00
v -0.978500 3.953276 12.741726
vt 0.451355 0.516357
vn -0.732283 0.141732 0.669291
v -0.609601 1.122676 13.627835
vt 0.466125 0.652771
vn -0.716535 -0.393701 0.582677
v 0.000000 1.740389 13.800003
vt 0.500580 0.621429
vn 0.000000 0.291339 0.960630
v 1.999929 3.306169 11.163518
vt 0.387390 0.537964
vn 0.527559 0.149606 0.834646
v 1.334668 1.124870 11.477446
vt 0.415253 0.660095
vn 0.574803 -0.362205 0.740157
v 1.116763 -0.457582 11.640621
vt 0.434631 0.748169
vn 0.338583 -0.259843 0.905512
v -0.743127 6.471949 12.083461
vt 0.485565 0.359283
vn -0.409449 -0.133858 0.905512
v 0.000000 4.089279 13.179855
vt 0.500916 0.506592
vn 0.000000 0.307087 0.952756
v 0.743127 6.471949 12.083461
vt 0.516022 0.359375
vn 0.409449 -0.133858 0.905512
v 7.555914 5.748944 2.346968
vt 0.935333 0.707153
vn -0.755906 0.551181 -0.362205
v 8.986507 6.701398 0.808591
vt 0.971344 0.676697
vn -0.661417 0.566929 -0.496063
v 7.543479 3.837017 -0.550338
vt 0.965820 0.737610
vn -0.590551 0.118110 -0.803150
v 8.986507 6.701398 0.808591
vt 0.976501 0.367188
vn 0.834646 -0.110236 0.543307
v 7.555914 5.748944 2.346968
vt 0.882812 0.453125
vn 0.984252 -0.031496 0.196850
v 6.979472 0.048698 2.097282
vt 0.855011 0.656158
vn 0.944882 -0.307087 0.157480
v -1.334668 1.124870 11.477446
vt 0.415253 0.660095
vn -0.574803 -0.362205 0.740157
v 7.802537 0.346586 0.790175
vt 0.957489 0.776398
vn -0.149606 -0.653543 -0.748031
v 6.979472 0.048698 2.097282
vt 0.924286 0.779175
vn 0.944882 -0.307087 0.157480
v 3.952488 5.157554 10.252569
vt 0.287842 0.429535
vn 0.291339 -0.078740 0.952756
v 5.196264 4.601700 9.534345
vt 0.219147 0.468323
vn 0.566929 -0.007874 0.826772
v 5.394628 5.792377 9.458540
vt 0.208557 0.384827
vn 0.566929 -0.220472 0.795276
v 5.889948 5.175103 8.655088
vt 0.162109 0.440613
vn 0.795276 -0.086614 0.606299
v 6.145453 7.282698 9.561327
vt 0.159546 0.313141
vn 0.818898 -0.086614 0.574803
v 9.701212 5.572141 -0.869834
vt 0.974121 0.687775
vn -0.385827 0.322835 -0.866142
v 9.492485 3.339073 -0.904525
vt 0.974121 0.751465
vn -0.212598 -0.165354 -0.968504
v 7.543479 3.837017 -0.550338
vt 0.011688 0.437836
vn 1.000000 0.000000 0.000000
v 7.534597 10.143131 2.082720
vt 0.011688 0.278992
vn 1.000000 0.062992 0.078740
v 7.555914 5.748944 2.346968
vt 0.037567 0.433716
vn 0.984252 -0.031496 0.196850
v 9.701212 5.572141 -0.869834
vt 0.987000 0.398438
vn 0.897638 -0.086614 0.440945
v 9.492485 3.339073 -0.904525
vt 0.986328 0.578125
vn 0.866142 -0.141732 0.488189
v 7.802537 0.346586 0.790175
vt 0.945312 0.648438
vn -0.149606 -0.653543 -0.748031
v -9.492485 3.339073 -0.904525
vt 0.986328 0.578125
vn -0.866142 -0.141732 0.488189
v -7.802537 0.346586 0.790175
vt 0.945312 0.648438
vn 0.149606 -0.653543 -0.748031
v -6.979472 0.048698 2.097282
vt 0.855011 0.656158
vn -0.944882 -0.307087 0.157480
v 0.978500 3.953276 12.741726
vt 0.451355 0.516357
vn 0.732283 0.141732 0.669291
v 0.743127 6.471949 12.083461
vt 0.485565 0.359283
vn 0.409449 -0.133858 0.905512
v -5.196856 4.601700 9.534345
vt 0.219147 0.468323
vn -0.566929 -0.007874 0.826772
v -3.953376 5.157554 10.252569
vt 0.287842 0.429535
vn -0.291339 -0.078740 0.952756
v -5.395516 5.792377 9.458540
vt 0.208557 0.384827
vn -0.566929 -0.220472 0.795276
v -0.743127 6.471949 12.083461
vt 0.516022 0.359375
vn -0.409449 -0.133858 0.905512
v 0.000000 7.148450 12.371264
vt 0.500000 0.307587
vn 0.000000 -0.118110 1.000000
v 1.704455 7.148450 12.217941
vt 0.426208 0.311951
vn 0.259843 -0.220472 0.944882
v 0.000000 8.941047 11.961402
vt 0.500153 0.223450
vn 0.000000 0.212598 0.984252
v -7.543479 3.837017 -0.550338
vt 0.965820 0.737610
vn 0.590551 0.118110 -0.803150
v -8.986507 6.701398 0.808591
vt 0.971344 0.676697
vn 0.661417 0.566929 -0.496063
v -7.555914 5.748944 2.346968
vt 0.935333 0.707153
vn 0.755906 0.551181 -0.362205
v -6.145453 7.282698 9.561327
vt 0.159546 0.313141
vn -0.818898 -0.086614 0.574803
v -7.114479 8.374664 6.580934
vt 0.078125 0.218750
vn -0.960630 0.070866 0.275591
v -6.592809 5.485275 7.527858
vt 0.072876 0.433167
vn -0.937008 -0.023622 0.354331
v -7.555914 5.748944 2.346968
vt 0.037567 0.433716
vn -0.984252 -0.031496 0.196850
v -6.978584 3.039429 7.005786
vt 0.113495 0.635681
vn -0.960630 -0.094488 0.275591
v -6.979472 0.048698 2.097282
vt 0.924286 0.779175
vn -0.944882 -0.307087 0.157480
v -7.802537 0.346586 0.790175
vt 0.957489 0.776398
vn 0.149606 -0.653543 -0.748031
v -5.890540 5.175103 8.655088
vt 0.162109 0.440613
vn -0.795276 -0.086614 0.606299
v -6.195488 4.037071 8.574572
vt 0.154755 0.488922
vn -0.795276 0.102362 0.598425
v -4.903158 3.087688 9.836710
vt 0.236786 0.578766
vn -0.590551 -0.023622 0.811024
v -6.225095 3.025829 8.757875
vt 0.168671 0.606476
vn -0.779528 -0.118110 0.614173
v -3.310912 10.741979 11.154096
vt 0.304443 0.118561
vn -0.401575 0.283465 0.874016
v -5.777738 10.219029 9.174591
vt 0.180725 0.132172
vn -0.771654 0.188976 0.606299
v -3.214394 8.884452 11.384938
vt 0.299286 0.198120
vn -0.440945 0.165354 0.881890
v -9.492485 3.339073 -0.904525
vt 0.974121 0.751465
vn 0.212598 -0.165354 -0.968504
v -9.701508 5.572141 -0.869834
vt 0.974121 0.687775
vn 0.385827 0.322835 -0.866142
v -9.701508 5.572141 -0.869834
vt 0.987000 0.398438
vn -0.897638 -0.086614 0.440945
v -8.986507 6.701398 0.808591
vt 0.976501 0.367188
vn -0.834646 -0.110236 0.543307
v -7.555914 5.748944 2.346968
vt 0.882812 0.453125
vn -0.984252 -0.031496 0.196850
v 4.203553 7.153276 11.269303
vt 0.281708 0.299469
vn 0.472441 -0.299213 0.834646
v 5.720597 8.709843 9.368173
vt 0.189117 0.195312
vn 0.748031 0.204724 0.637795
v 3.214394 8.884452 11.384938
vt 0.299286 0.198120
vn 0.440945 0.165354 0.881890
v 5.777738 10.219029 9.174591
vt 0.180725 0.132172
vn 0.771654 0.188976 0.606299
v 3.310912 10.741979 11.154096
vt 0.304443 0.118561
vn 0.401575 0.283465 0.874016
v 3.853602 14.060432 9.007134
vt 0.242188 0.011261
vn 0.590551 0.425197 0.692913
v 0.000000 14.375431 10.289829
vt 0.500153 0.011261
vn 0.000000 0.440945 0.897638
v 7.114479 8.374664 6.580934
vt 0.078125 0.218750
vn 0.960630 0.070866 0.275591
v 6.592809 5.485275 7.527858
vt 0.072876 0.433167
vn 0.937008 -0.023622 0.354331
v 6.195488 4.037071 8.574572
vt 0.154755 0.488922
vn 0.795276 0.102362 0.598425
v 4.903158 3.087688 9.836710
vt 0.236786 0.578766
vn 0.590551 -0.023622 0.811024
v 1.803637 5.088237 10.623886
vt 0.399536 0.444031
vn 0.637795 0.000000 0.771654
v 1.710376 6.412284 11.223477
vt 0.424194 0.368469
vn 0.401575 -0.590551 0.700787
v 1.704455 7.148450 12.217941
vt 0.426331 0.311707
vn 0.259843 -0.220472 0.944882
v 0.609601 1.122676 13.627835
vt 0.466125 0.652771
vn 0.716535 -0.393701 0.582677
v -1.704455 7.148450 12.217941
vt 0.426331 0.311707
vn -0.259843 -0.220472 0.944882
v 0.000000 10.856484 11.760539
vt 0.500153 0.117981
vn 0.000000 0.244094 0.968504
v 6.225095 3.025829 8.757875
vt 0.168671 0.606476
vn 0.779528 -0.118110 0.614173
v 6.978584 3.039429 7.005786
vt 0.113495 0.635681
vn 0.960630 -0.094488 0.275591
v 6.389412 12.582835 6.225034
vt 0.011688 0.011261
vn 0.905512 0.259843 0.338583
v -3.416608 -1.031862 9.824718
vt 0.337311 0.787537
vn -0.574803 -0.244094 0.779528
v -1.116763 -0.457582 11.640621
vt 0.434631 0.748169
vn -0.338583 -0.259843 0.905512
v -3.281305 3.169728 10.730100
vt 0.312775 0.554443
vn -0.425197 0.086614 0.905512
v -1.999929 3.306169 11.163518
vt 0.387390 0.537964
vn -0.527559 0.149606 0.834646
v -2.819145 4.689882 10.270128
vt 0.339386 0.461761
vn -0.283465 0.047244 0.960630
v -1.803933 5.088237 10.623886
vt 0.399536 0.444031
vn -0.637795 0.000000 0.771654
v -2.842535 5.864765 10.382337
vt 0.341614 0.387756
vn -0.275591 -0.283465 0.921260
v -1.710376 6.412284 11.223477
vt 0.424194 0.368469
vn -0.401575 -0.590551 0.700787
v -4.203553 7.153276 11.269303
vt 0.281708 0.299469
vn -0.472441 -0.299213 0.834646
v 5.091456 -1.171374 7.950570
vt 0.241730 0.815582
vn 0.787402 -0.425197 0.456693
v 3.416608 -1.031862 9.824718
vt 0.337311 0.787537
vn 0.574803 -0.244094 0.779528
v 3.281305 3.169728 10.730100
vt 0.312775 0.554443
vn 0.425197 0.086614 0.905512
v 2.818257 4.689882 10.270128
vt 0.339386 0.461761
vn 0.283465 0.047244 0.960630
v 2.841943 5.864765 10.382337
vt 0.341614 0.387756
vn 0.275591 -0.283465 0.921260
v -5.720597 8.709843 9.368173
vt 0.189117 0.195312
vn -0.748031 0.204724 0.637795
v -5.091456 -1.171374 7.950570
vt 0.241730 0.815582
vn -0.787402 -0.417323 0.456693
v -7.543479 3.837017 -0.550338
vt 0.011688 0.437836
vn -1.000000 0.000000 0.000000
v -7.534597 10.143131 2.082720
vt 0.011688 0.278992
vn -1.000000 0.062992 0.078740
v -6.389412 12.582835 6.225034
vt 0.011688 0.011261
vn -0.905512 0.259843 0.338583
v -3.853602 14.060432 9.007134
vt 0.242188 0.011261
vn -0.590551 0.425197 0.692913
f 61/61/61 62/62/62 63/63/63
f 64/64/64 65/65/65 66/66/66
f 67/67/67 68/68/68 69/69/69
f 70/70/70 71/71/71 72/72/72
f 73/73/73 74/74/74 75/75/75
f 62/62/62 61/61/61 76/76/76
f 72/72/72 77/77/77 78/78/78
f 79/79/79 80/80/80 81/81/81
f 81/81/81 80/80/80 82/82/82
f 81/81/81 82/82/82 83/83/83
f 71/71/71 84/84/84 72/72/72
f 72/72/72 84/84/84 85/85/85
f 72/72/72 85/85/85 77/77/77
f 86/86/86 87/87/87 88/88/88
f 89/89/89 73/73/73 90/90/90
f 90/90/90 73/73/73 75/75/75
f 90/90/90 75/75/75 91/91/91
f 92/92/92 93/93/93 94/94/94
f 95/95/95 96/96/96 68/68/68
f 97/97/97 98/98/98 99/99/99
f 100/100/100 96/96/96 101/101/101
f 101/101/101 96/96/96 102/102/102
f 101/101/101 102/102/102 103/103/103
f 104/104/104 105/105/105 106/106/106
f 107/107/107 108/108/108 109/109/109
f 109/109/109 108/108/108 110/110/110
f 109/109/109 110/110/110 111/111/111
f 112/112/112 113/113/113 104/104/104
f 99/99/99 114/114/114 97/97/97
f 97/97/97 114/114/114 115/115/115
f 97/97/97 115/115/115 116/116/116
f 116/116/116 115/115/115 117/117/117
f 118/118/118 119/119/119 120/120/120
f 113/113/113 121/121/121 104/104/104
f 104/104/104 121/121/121 122/122/122
f 104/104/104 122/122/122 105/105/105
f 123/123/123 92/92/92 124/124/124
f 124/124/124 92/92/92 94/94/94
f 124/124/124 94/94/94 125/125/125
f 126/126/126 127/127/127 128/128/128
f 128/128/128 127/127/127 129/129/129
f 128/128/128 129/129/129 130/130/130
f 130/130/130 129/129/129 131/131/131
f 130/130/130 131/131/131 132/132/132
f 133/133/133 83/83/83 134/134/134
f 134/134/134 83/83/83 82/82/82
f 134/134/134 82/82/82 135/135/135
f 135/135/135 82/82/82 80/80/80
f 135/135/135 80/80/80 136/136/136
f 65/65/65 64/64/64 95/95/95
f 95/95/95 64/64/64 137/137/137
f 95/95/95 137/137/137 96/96/96
f 96/96/96 137/137/137 138/138/138
f 96/96/96 138/138/138 139/139/139
f 67/67/67 61/61/61 68/68/68
f 68/68/68 61/61/61 63/63/63
f 68/68/68 63/63/63 95/95/95
f 95/95/95 63/63/63 140/140/140
f 95/95/95 140/140/140 65/65/65
f 67/67/67 101/101/101 141/141/141
f 141/141/141 101/101/101 103/103/103
f 141/141/141 103/103/103 120/120/120
f 120/120/120 103/103/103 142/142/142
f 120/120/120 142/142/142 118/118/118
f 136/136/136 143/143/143 135/135/135
f 135/135/135 143/143/143 144/144/144
f 135/135/135 144/144/144 134/134/134
f 134/134/134 144/144/144 88/88/88
f 134/134/134 88/88/88 133/133/133
f 133/133/133 88/88/88 87/87/87
f 133/133/133 87/87/87 145/145/145
f 146/146/146 147/147/147 148/148/148
f 148/148/148 147/147/147 149/149/149
f 148/148/148 149/149/149 150/150/150
f 150/150/150 149/149/149 151/151/151
f 150/150/150 151/151/151 152/152/152
f 152/152/152 151/151/151 153/153/153
f 152/152/152 153/153/153 154/154/154
f 99/99/99 107/107/107 114/114/114
f 114/114/114 107/107/107 109/109/109
f 114/114/114 109/109/109 115/115/115
f 115/115/115 109/109/109 111/111/111
f 115/115/115 111/111/111 117/117/117
f 155/155/155 143/143/143 156/156/156
f 156/156/156 143/143/143 136/136/136
f 156/156/156 136/136/136 157/157/157
f 157/157/157 136/136/136 80/80/80
f 157/157/157 80/80/80 158/158/158
f 158/158/158 80/80/80 79/79/79
f 158/158/158 79/79/79 159/159/159
f 159/159/159 79/79/79 81/81/81
f 159/159/159 81/81/81 126/126/126
f 126/126/126 81/81/81 83/83/83
f 126/126/126 83/83/83 127/127/127
f 127/127/127 83/83/83 133/133/133
f 127/127/127 133/133/133 129/129/129
f 129/129/129 133/133/133 145/145/145
f 129/129/129 145/145/145 131/131/131
f 147/147/147 76/76/76 149/149/149
f 149/149/149 76/76/76 61/61/61
f 149/149/149 61/61/61 151/151/151
f 151/151/151 61/61/61 67/67/67
f 151/151/151 67/67/67 153/153/153
f 153/153/153 67/67/67 141/141/141
f 153/153/153 141/141/141 154/154/154
f 154/154/154 141/141/141 120/120/120
f 154/154/154 120/120/120 160/160/160
f 160/160/160 120/120/120 119/119/119
f 119/119/119 108/108/108 160/160/160
f 160/160/160 108/108/108 107/107/107
f 160/160/160 107/107/107 154/154/154
f 154/154/154 107/107/107 99/99/99
f 154/154/154 99/99/99 152/152/152
f 152/152/152 99/99/99 98/98/98
f 152/152/152 98/98/98 150/150/150
f 150/150/150 98/98/98 97/97/97
f 150/150/150 97/97/97 148/148/148
f 148/148/148 97/97/97 116/116/116
f 148/148/148 116/116/116 146/146/146
f 146/146/146 116/116/116 117/117/117
f 146/146/146 117/117/117 161/161/161
f 162/162/162 110/110/110 163/163/163
f 163/163/163 110/110/110 108/108/108
f 163/163/163 108/108/108 164/164/164
f 164/164/164 108/108/108 119/119/119
f 164/164/164 119/119/119 165/165/165
f 165/165/165 119/119/119 118/118/118
f 165/165/165 118/118/118 132/132/132
f 132/132/132 118/118/118 142/142/142
f 132/132/132 142/142/142 130/130/130
f 130/130/130 142/142/142 103/103/103
f 130/130/130 103/103/103 128/128/128
f 128/128/128 103/103/103 139/139/139
f 128/128/128 139/139/139 126/126/126
f 126/126/126 139/139/139 138/138/138
f 126/126/126 138/138/138 159/159/159
f 159/159/159 138/138/138 137/137/137
f 159/159/159 137/137/137 158/158/158
f 158/158/158 137/137/137 64/64/64
f 158/158/158 64/64/64 157/157/157
f 157/157/157 64/64/64 66/66/66
f 157/157/157 66/66/66 156/156/156
