mtllib 0395-0.mtl
g mesh00
usemtl texture00
v 0.000000 -2.462078 11.761082
vt 0.499695 0.869354
vn 0.000000 -0.543307 0.842520
v -1.533630 -1.992651 11.680567
vt 0.566498 0.857452
vn -0.393701 -0.204724 0.897638
v -1.882102 -3.096462 10.781901
vt 0.637787 0.882812
vn -0.417323 -0.299213 0.858268
v -5.213454 2.611680 10.304681
vt 0.777924 0.581299
vn -0.653543 0.015748 0.763780
v -4.921828 0.608500 10.305939
vt 0.751068 0.694519
vn -0.590551 -0.188976 0.787402
v -3.467840 0.860323 10.914835
vt 0.668457 0.695892
vn -0.354331 -0.055118 0.937008
v -6.313642 -1.993967 3.445797
vt 0.942169 0.943268
vn -0.708661 -0.661417 -0.251969
v -7.543507 3.837016 -0.550187
vt 0.988068 0.593323
vn -0.582677 -0.543307 -0.606299
v -4.115636 -2.844200 2.512324
vt 0.987549 0.987976
vn -0.480315 -0.740157 -0.464567
v 5.938820 0.083795 8.273770
vt 0.841034 0.702057
vn 0.881890 -0.236220 0.409449
v 6.282851 2.771373 8.608830
vt 0.861481 0.575653
vn 0.905512 -0.007874 0.425197
v 5.213454 2.611680 10.304681
vt 0.777924 0.581299
vn 0.653543 0.015748 0.763780
v 2.219027 1.112585 11.435248
vt 0.600739 0.684204
vn 0.409449 0.086614 0.913386
v 2.034873 3.054784 11.450763
vt 0.598511 0.558044
vn 0.393701 0.220472 0.897638
v 2.076026 1.197258 11.459150
vt 0.595245 0.682739
vn 0.527559 0.007874 0.850394
v 7.743648 5.748943 2.346681
vt 0.975433 0.413086
vn 0.984252 -0.015748 0.188976
v 6.974761 3.236413 6.604758
vt 0.931854 0.560272
vn 0.976378 -0.078740 0.228346
v 7.172238 0.359309 2.271617
vt 0.967621 0.737885
vn 0.937008 -0.314961 0.165354
v 6.313642 -1.993967 3.445797
vt 0.942169 0.943268
vn 0.708661 -0.661417 -0.251969
v 7.543507 3.837016 -0.550187
vt 0.988068 0.593323
vn 0.582677 -0.543307 -0.606299
v 4.115636 -2.844200 2.512324
vt 0.987549 0.987976
vn 0.480315 -0.740157 -0.464567
v 7.543507 3.837016 -0.550187
vt 0.032990 0.621338
vn -0.637795 0.125984 -0.763780
v 7.802566 0.346586 0.790474
vt 0.018372 0.654877
vn -0.212598 -0.677165 -0.708661
v 7.172238 0.359309 2.271617
vt 0.032990 0.658783
vn 0.937008 -0.314961 0.165354
v 0.000000 0.654565 12.521783
vt 0.499695 0.703186
vn 0.000000 -0.149606 0.992126
v 1.003077 1.856649 13.239709
vt 0.536926 0.638824
vn 0.637795 -0.110236 0.771654
v 0.000000 1.135837 13.227548
vt 0.499695 0.661072
vn 0.000000 -0.700787 0.716535
v 0.000000 -5.634877 5.215452
vt 0.499176 0.987976
vn 0.000000 -0.984252 -0.181102
v 5.004431 -3.265368 5.024229
vt 0.824249 0.949524
vn 0.677165 -0.740157 0.000000
v 3.007159 -4.783328 8.026773
vt 0.728363 0.960358
vn 0.637795 -0.748031 0.188976
v 5.346389 -2.530956 6.893690
vt 0.841797 0.900421
vn 0.818898 -0.527559 0.236220
v 3.428759 -3.709349 8.912020
vt 0.726501 0.923889
vn 0.700787 -0.566929 0.433071
v 4.875345 -2.133040 8.685152
vt 0.769989 0.870819
vn 0.787402 -0.448819 0.425197
v 0.000000 -2.010200 12.065111
vt 0.499695 0.853882
vn 0.000000 -0.007874 1.000000
v 1.533630 -1.992651 11.680567
vt 0.566498 0.857452
vn 0.393701 -0.204724 0.897638
v 1.085976 -1.092843 11.589988
vt 0.550385 0.794891
vn 0.291339 -0.125984 0.952756
v -7.172238 0.359309 2.271617
vt 0.967621 0.737885
vn -0.937008 -0.314961 0.165354
v -6.974761 3.236413 6.604758
vt 0.931854 0.560272
vn -0.976378 -0.078740 0.228346
v -7.743648 5.748943 2.346681
vt 0.975433 0.413086
vn -0.984252 -0.015748 0.188976
v -1.449547 -0.240417 12.271850
vt 0.562195 0.752258
vn -0.417323 -0.196850 0.889764
v -2.219027 1.112585 11.435248
vt 0.600739 0.684204
vn -0.409449 0.086614 0.913386
v -5.938820 0.083795 8.273770
vt 0.841034 0.702057
vn -0.881890 -0.236220 0.409449
v -2.901463 -3.333369 9.940266
vt 0.676453 0.902191
vn -0.645669 -0.440945 0.622047
v -3.428759 -3.709349 8.912020
vt 0.726501 0.923889
vn -0.700787 -0.566929 0.433071
v -2.424202 -4.165176 9.836267
vt 0.677521 0.931152
vn -0.692913 -0.527559 0.496063
v -3.007159 -4.783328 8.026773
vt 0.728363 0.960358
vn -0.637795 -0.748031 0.188976
v -7.172238 0.359309 2.271617
vt 0.032990 0.658783
vn -0.937008 -0.314961 0.165354
v -7.802566 0.346586 0.790474
vt 0.018372 0.654877
vn 0.212598 -0.677165 -0.708661
v -7.543507 3.837016 -0.550187
vt 0.032990 0.621338
vn 0.637795 0.125984 -0.763780
v 6.545463 -0.155306 5.654512
vt 0.916534 0.699615
vn 0.937008 -0.275591 0.212598
v 6.393876 -1.293775 4.304206
vt 0.916626 0.891388
vn 0.905512 -0.393701 0.165354
v 0.000000 -5.668658 10.059780
vt 0.499695 0.977356
vn 0.000000 -0.960630 0.299213
v 1.822592 -5.293555 9.446272
vt 0.586487 0.977356
vn 0.472441 -0.803150 0.362205
v 0.000000 -5.062790 10.887577
vt 0.499695 0.952637
vn 0.000000 -0.685039 0.732283
v 1.471160 -4.423580 10.757998
vt 0.612823 0.934967
vn 0.503937 -0.425197 0.755906
v 0.000000 -4.245461 11.270024
vt 0.499695 0.929504
vn 0.000000 -0.181102 0.984252
v 1.882102 -3.096462 10.781901
vt 0.637787 0.882812
vn 0.417323 -0.299213 0.858268
v 0.000000 -3.357060 11.268766
vt 0.499695 0.898651
vn 0.000000 -0.244094 0.976378
v 4.921828 0.608500 10.305939
vt 0.751068 0.694519
vn 0.590551 -0.188976 0.787402
v 2.689182 -1.273156 10.846900
vt 0.652649 0.794891
vn 0.480315 -0.188976 0.858268
v 3.919343 -1.803564 10.171327
vt 0.711914 0.837952
vn 0.614173 -0.346457 0.708661
v 2.901463 -3.333369 9.940266
vt 0.676453 0.902191
vn 0.645669 -0.440945 0.622047
v 2.424202 -4.165176 9.836267
vt 0.677521 0.931152
vn 0.692913 -0.527559 0.496063
v 0.000000 -0.281656 12.689942
vt 0.499695 0.763550
vn 0.000000 -0.299213 0.960630
v 1.449547 -0.240417 12.271850
vt 0.562195 0.752258
vn 0.417323 -0.196850 0.889764
v 3.467840 0.860323 10.914835
vt 0.668457 0.695892
vn 0.354331 -0.055118 0.937008
v -6.393876 -1.293775 4.304206
vt 0.916626 0.891388
vn -0.905512 -0.393701 0.165354
v -6.545463 -0.155306 5.654512
vt 0.916534 0.699615
vn -0.937008 -0.275591 0.212598
v -6.282851 2.771373 8.608830
vt 0.861481 0.575653
vn -0.905512 -0.007874 0.425197
v 0.000000 1.897888 13.740832
vt 0.499695 0.627930
vn 0.000000 -0.007874 1.000000
v -1.003077 1.856649 13.239709
vt 0.536926 0.638824
vn -0.637795 -0.110236 0.771654
v -2.076026 1.197258 11.459150
vt 0.595245 0.682739
vn -0.527559 0.007874 0.850394
v -2.034873 3.054784 11.450763
vt 0.598511 0.558044
vn -0.393701 0.220472 0.897638
v -3.438529 2.655991 10.844384
vt 0.683167 0.579498
vn -0.354331 0.118110 0.929134
v -1.471160 -4.423580 10.757998
vt 0.612823 0.934967
vn -0.503937 -0.425197 0.755906
v -1.822592 -5.293555 9.446272
vt 0.586487 0.977356
vn -0.472441 -0.803150 0.362205
v 0.000000 -1.149438 11.797985
vt 0.499695 0.794891
vn 0.000000 -0.228346 0.976378
v -1.085976 -1.092843 11.589988
vt 0.550385 0.794891
vn -0.291339 -0.125984 0.952756
v -2.689182 -1.273156 10.846900
vt 0.652649 0.794891
vn -0.480315 -0.188976 0.858268
v -3.919343 -1.803564 10.171327
vt 0.711914 0.837952
vn -0.614173 -0.346457 0.708661
v -4.875345 -2.133040 8.685152
vt 0.769989 0.870819
vn -0.787402 -0.448819 0.425197
v -5.346389 -2.530956 6.893690
vt 0.841797 0.900421
vn -0.818898 -0.527559 0.236220
v -5.004431 -3.265368 5.024229
vt 0.824249 0.949524
vn -0.677165 -0.740157 0.000000
v 3.438529 2.655991 10.844384
vt 0.683167 0.579498
vn 0.354331 0.118110 0.929134
f 1/1/1 2/2/2 3/3/3
f 4/4/4 5/5/5 6/6/6
f 7/7/7 8/8/8 9/9/9
f 10/10/10 11/11/11 12/12/12
f 13/13/13 14/14/14 15/15/15
f 16/16/16 17/17/17 18/18/18
f 18/18/18 19/19/19 20/20/20
f 20/20/20 19/19/19 21/21/21
f 22/22/22 23/23/23 24/24/24
f 13/13/13 15/15/15 25/25/25
f 25/25/25 15/15/15 26/26/26
f 25/25/25 26/26/26 27/27/27
f 28/28/28 29/29/29 30/30/30
f 30/30/30 29/29/29 31/31/31
f 30/30/30 31/31/31 32/32/32
f 32/32/32 31/31/31 33/33/33
f 2/2/2 1/1/1 34/34/34
f 34/34/34 1/1/1 35/35/35
f 34/34/34 35/35/35 36/36/36
f 37/37/37 38/38/38 39/39/39
f 40/40/40 25/25/25 41/41/41
f 5/5/5 4/4/4 42/42/42
f 43/43/43 44/44/44 45/45/45
f 45/45/45 44/44/44 46/46/46
f 8/8/8 7/7/7 37/37/37
f 47/47/47 48/48/48 49/49/49
f 11/11/11 10/10/10 17/17/17
f 17/17/17 10/10/10 50/50/50
f 17/17/17 50/50/50 18/18/18
f 18/18/18 50/50/50 51/51/51
f 18/18/18 51/51/51 19/19/19
f 52/52/52 53/53/53 54/54/54
f 54/54/54 53/53/53 55/55/55
f 54/54/54 55/55/55 56/56/56
f 56/56/56 55/55/55 57/57/57
f 56/56/56 57/57/57 58/58/58
f 59/59/59 60/60/60 61/61/61
f 61/61/61 60/60/60 57/57/57
f 61/61/61 57/57/57 62/62/62
f 62/62/62 57/57/57 55/55/55
f 62/62/62 55/55/55 63/63/63
f 63/63/63 55/55/55 53/53/53
f 10/10/10 33/33/33 50/50/50
f 50/50/50 33/33/33 31/31/31
f 50/50/50 31/31/31 51/51/51
f 51/51/51 31/31/31 29/29/29
f 51/51/51 29/29/29 19/19/19
f 19/19/19 29/29/29 28/28/28
f 19/19/19 28/28/28 21/21/21
f 40/40/40 64/64/64 25/25/25
f 25/25/25 64/64/64 65/65/65
f 25/25/25 65/65/65 13/13/13
f 13/13/13 65/65/65 60/60/60
f 13/13/13 60/60/60 66/66/66
f 66/66/66 60/60/60 59/59/59
f 7/7/7 67/67/67 37/37/37
f 37/37/37 67/67/67 68/68/68
f 37/37/37 68/68/68 38/38/38
f 38/38/38 68/68/68 42/42/42
f 38/38/38 42/42/42 69/69/69
f 69/69/69 42/42/42 4/4/4
f 26/26/26 70/70/70 27/27/27
f 27/27/27 70/70/70 71/71/71
f 27/27/27 71/71/71 25/25/25
f 25/25/25 71/71/71 72/72/72
f 25/25/25 72/72/72 41/41/41
f 41/41/41 72/72/72 73/73/73
f 41/41/41 73/73/73 74/74/74
f 3/3/3 43/43/43 75/75/75
f 75/75/75 43/43/43 45/45/45
f 75/75/75 45/45/45 76/76/76
f 76/76/76 45/45/45 46/46/46
f 76/76/76 46/46/46 28/28/28
f 36/36/36 77/77/77 34/34/34
f 34/34/34 77/77/77 78/78/78
f 34/34/34 78/78/78 2/2/2
f 2/2/2 78/78/78 79/79/79
f 2/2/2 79/79/79 3/3/3
f 3/3/3 79/79/79 80/80/80
f 3/3/3 80/80/80 43/43/43
f 43/43/43 80/80/80 81/81/81
f 43/43/43 81/81/81 44/44/44
f 44/44/44 81/81/81 82/82/82
f 44/44/44 82/82/82 46/46/46
f 46/46/46 82/82/82 83/83/83
f 46/46/46 83/83/83 28/28/28
f 9/9/9 28/28/28 7/7/7
f 7/7/7 28/28/28 83/83/83
f 7/7/7 83/83/83 67/67/67
f 67/67/67 83/83/83 82/82/82
f 67/67/67 82/82/82 68/68/68
f 68/68/68 82/82/82 81/81/81
f 68/68/68 81/81/81 42/42/42
f 42/42/42 81/81/81 80/80/80
f 42/42/42 80/80/80 5/5/5
f 5/5/5 80/80/80 79/79/79
f 5/5/5 79/79/79 6/6/6
f 14/14/14 13/13/13 84/84/84
f 84/84/84 13/13/13 66/66/66
f 84/84/84 66/66/66 12/12/12
f 12/12/12 66/66/66 59/59/59
f 12/12/12 59/59/59 10/10/10
f 10/10/10 59/59/59 61/61/61
f 10/10/10 61/61/61 33/33/33
f 33/33/33 61/61/61 62/62/62
f 33/33/33 62/62/62 32/32/32
f 32/32/32 62/62/62 63/63/63
f 32/32/32 63/63/63 30/30/30
f 30/30/30 63/63/63 53/53/53
f 30/30/30 53/53/53 28/28/28
f 28/28/28 53/53/53 52/52/52
f 28/28/28 52/52/52 76/76/76
f 76/76/76 52/52/52 54/54/54
f 76/76/76 54/54/54 75/75/75
f 75/75/75 54/54/54 56/56/56
f 75/75/75 56/56/56 3/3/3
f 3/3/3 56/56/56 58/58/58
f 3/3/3 58/58/58 1/1/1
f 1/1/1 58/58/58 57/57/57
f 1/1/1 57/57/57 35/35/35
f 35/35/35 57/57/57 60/60/60
f 35/35/35 60/60/60 36/36/36
f 36/36/36 60/60/60 65/65/65
f 36/36/36 65/65/65 77/77/77
f 77/77/77 65/65/65 64/64/64
f 77/77/77 64/64/64 78/78/78
f 78/78/78 64/64/64 40/40/40
f 78/78/78 40/40/40 79/79/79
f 79/79/79 40/40/40 41/41/41
f 79/79/79 41/41/41 6/6/6
f 6/6/6 41/41/41 74/74/74
f 6/6/6 74/74/74 4/4/4
usemtl texture00
v 0.000000 3.888346 12.415268
vt 0.499695 0.529999
vn 0.000000 0.464567 0.889764
v 0.000000 1.897888 13.740832
vt 0.499695 0.627930
vn 0.000000 -0.007874 1.000000
v 1.003077 1.856649 13.239709
vt 0.536926 0.638824
vn 0.637795 -0.110236 0.771654
v -4.963869 4.484123 10.030426
vt 0.800232 0.464783
vn -0.543307 -0.031496 0.842520
v -5.741639 5.203618 9.182082
vt 0.859161 0.422577
vn -0.826772 -0.078740 0.566929
v -5.934971 4.464819 8.863376
vt 0.850983 0.475983
vn -0.842520 0.070866 0.535433
v 0.000000 14.375428 10.289584
vt 0.499695 0.012817
vn 0.000000 0.433071 0.905512
v 3.342011 10.741977 10.998704
vt 0.653961 0.129150
vn 0.393701 0.251969 0.889764
v 3.853616 14.060430 9.006793
vt 0.654266 0.012817
vn 0.574803 0.417323 0.700787
v 9.492520 3.339072 -0.904537
vt 0.012268 0.541260
vn 0.881890 -0.165354 0.440945
v 9.701247 5.572140 -0.870151
vt 0.012268 0.373413
vn 0.897638 -0.086614 0.440945
v 8.986540 6.722016 0.808926
vt 0.036835 0.373413
vn 0.858268 -0.102362 0.511811
v 7.743648 5.748943 2.346681
vt 0.032990 0.610321
vn -0.795276 0.535433 -0.299213
v 8.986540 6.722016 0.808926
vt 0.013153 0.586975
vn -0.685039 0.559055 -0.464567
v 7.543507 3.837016 -0.550187
vt 0.032990 0.621338
vn -0.637795 0.125984 -0.763780
v 9.701247 5.572140 -0.870151
vt 0.010742 0.602661
vn -0.385827 0.322835 -0.866142
v 9.492520 3.339072 -0.904537
vt 0.010742 0.626709
vn -0.212598 -0.165354 -0.968504
v 7.802566 0.346586 0.790474
vt 0.018372 0.654877
vn -0.212598 -0.677165 -0.708661
v 0.731583 5.533972 11.501505
vt 0.543396 0.412872
vn 0.448819 -0.039370 0.897638
v 0.691022 3.718124 12.113755
vt 0.534515 0.532776
vn 0.566929 0.299213 0.771654
v 6.647310 5.012776 7.274040
vt 0.916840 0.442261
vn 0.937008 0.000000 0.346457
v 5.741639 5.203618 9.182082
vt 0.859161 0.422577
vn 0.826772 -0.078740 0.566929
v 5.934971 4.464819 8.863376
vt 0.850983 0.475983
vn 0.842520 0.070866 0.535433
v 4.963869 4.484123 10.030426
vt 0.800232 0.464783
vn 0.543307 -0.031496 0.842520
v 7.802566 0.346586 0.790474
vt 0.053650 0.654327
vn -0.212598 -0.677165 -0.708661
v 7.172238 0.359309 2.271617
vt 0.129089 0.654327
vn 0.937008 -0.314961 0.165354
v 7.743648 5.748943 2.346681
vt 0.129089 0.479553
vn 0.984252 -0.015748 0.188976
v -3.342011 10.741977 10.998704
vt 0.653961 0.129150
vn -0.393701 0.251969 0.889764
v 0.000000 8.872605 12.200980
vt 0.499695 0.223236
vn 0.000000 0.070866 1.000000
v 0.000000 10.856482 11.800501
vt 0.499695 0.120239
vn 0.000000 0.299213 0.960630
v -6.974761 3.236413 6.604758
vt 0.931854 0.560272
vn -0.976378 -0.078740 0.228346
v -6.282851 2.771373 8.608830
vt 0.861481 0.575653
vn -0.905512 -0.007874 0.425197
v -6.647310 5.012776 7.274040
vt 0.916840 0.442261
vn -0.937008 0.000000 0.346457
v -7.172238 0.359309 2.271617
vt 0.129089 0.654327
vn -0.937008 -0.314961 0.165354
v -7.743648 5.748943 2.346681
vt 0.129089 0.479553
vn -0.984252 -0.015748 0.188976
v -8.986540 6.722016 0.808926
vt 0.036835 0.373413
vn -0.858268 -0.102362 0.511811
v -7.802566 0.346586 0.790474
vt 0.018372 0.654877
vn 0.212598 -0.677165 -0.708661
v -9.492520 3.339072 -0.904537
vt 0.010742 0.626709
vn 0.212598 -0.165354 -0.968504
v -7.543507 3.837016 -0.550187
vt 0.032990 0.621338
vn 0.637795 0.125984 -0.763780
v -9.701543 5.572140 -0.870151
vt 0.010742 0.602661
vn 0.385827 0.322835 -0.866142
v -8.986540 6.722016 0.808926
vt 0.013153 0.586975
vn 0.685039 0.559055 -0.464567
v -7.743648 5.748943 2.346681
vt 0.032990 0.610321
vn 0.795276 0.535433 -0.299213
v -2.543813 5.938468 10.755482
vt 0.645447 0.380768
vn -0.188976 -0.251969 0.952756
v -1.820224 4.801754 10.402389
vt 0.596497 0.445709
vn -0.204724 0.102362 0.976378
v -0.731583 5.533972 11.501505
vt 0.543396 0.412872
vn -0.448819 -0.039370 0.897638
v -2.613093 4.544227 10.712708
vt 0.647888 0.464783
vn -0.062992 0.055118 1.000000
v -3.689002 5.122894 10.790707
vt 0.715332 0.425232
vn -0.228346 -0.086614 0.976378
v -1.003077 1.856649 13.239709
vt 0.536926 0.638824
vn -0.637795 -0.110236 0.771654
v -0.691022 3.718124 12.113755
vt 0.534515 0.532776
vn -0.566929 0.299213 0.771654
v -2.076026 1.197258 11.459150
vt 0.595245 0.682739
vn -0.527559 0.007874 0.850394
v -2.034873 3.054784 11.450763
vt 0.598511 0.558044
vn -0.393701 0.220472 0.897638
v -3.438529 2.655991 10.844384
vt 0.683167 0.579498
vn -0.354331 0.118110 0.929134
v -5.213454 2.611680 10.304681
vt 0.777924 0.581299
vn -0.653543 0.015748 0.763780
v -7.802566 0.346586 0.790474
vt 0.053650 0.654327
vn 0.212598 -0.677165 -0.708661
v -9.492520 3.339072 -0.904537
vt 0.012268 0.541260
vn -0.881890 -0.165354 0.440945
v -9.701543 5.572140 -0.870151
vt 0.012268 0.373413
vn -0.897638 -0.086614 0.440945
v 2.543813 5.938468 10.755482
vt 0.645447 0.380768
vn 0.188976 -0.251969 0.952756
v 2.967486 7.176088 11.506537
vt 0.655121 0.311829
vn 0.330709 -0.228346 0.921260
v 5.130556 7.286645 10.466130
vt 0.784332 0.311035
vn 0.574803 -0.118110 0.811024
v 5.831940 10.219027 9.214371
vt 0.782959 0.150177
vn 0.795276 0.212598 0.574803
v 6.389435 12.582832 6.224827
vt 0.779938 0.012817
vn 0.897638 0.299213 0.330709
v 1.820224 4.801754 10.402389
vt 0.596497 0.445709
vn 0.204724 0.102362 0.976378
v 2.034873 3.054784 11.450763
vt 0.598511 0.558044
vn 0.393701 0.220472 0.897638
v 2.613093 4.544227 10.712708
vt 0.647888 0.464783
vn 0.062992 0.055118 1.000000
v 3.438529 2.655991 10.844384
vt 0.683167 0.579498
vn 0.354331 0.118110 0.929134
v 5.213454 2.611680 10.304681
vt 0.777924 0.581299
vn 0.653543 0.015748 0.763780
v 6.282851 2.771373 8.608830
vt 0.861481 0.575653
vn 0.905512 -0.007874 0.425197
v 6.974761 3.236413 6.604758
vt 0.931854 0.560272
vn 0.976378 -0.078740 0.228346
v 7.743648 5.748943 2.346681
vt 0.975433 0.413086
vn 0.984252 -0.015748 0.188976
v 7.534624 10.143129 2.082910
vt 0.988586 0.012421
vn 1.000000 0.102362 0.039370
v 7.181120 8.992375 6.620693
vt 0.929474 0.191406
vn 0.960630 0.062992 0.267717
v 6.027936 6.518452 9.143921
vt 0.878326 0.330627
vn 0.850394 -0.086614 0.519685
v 4.970383 5.874416 10.196069
vt 0.786865 0.380768
vn 0.559055 -0.062992 0.826772
v 3.689002 5.122894 10.790707
vt 0.715332 0.425232
vn 0.228346 -0.086614 0.976378
v 0.000000 6.889167 12.050853
vt 0.499695 0.326263
vn 0.000000 -0.212598 0.984252
v -2.967486 7.176088 11.506537
vt 0.655121 0.311829
vn -0.330709 -0.228346 0.921260
v -5.130556 7.286645 10.466130
vt 0.784332 0.311035
vn -0.574803 -0.118110 0.811024
v -5.831940 10.219027 9.214371
vt 0.782959 0.150177
vn -0.795276 0.212598 0.574803
v -6.027936 6.518452 9.143921
vt 0.878326 0.330627
vn -0.850394 -0.086614 0.519685
v -7.181120 8.992375 6.620693
vt 0.929474 0.191406
vn -0.960630 0.062992 0.267717
v -7.743648 5.748943 2.346681
vt 0.975433 0.413086
vn -0.984252 -0.015748 0.188976
v -4.970383 5.874416 10.196069
vt 0.786865 0.380768
vn -0.559055 -0.062992 0.826772
v 2.076026 1.197258 11.459150
vt 0.595245 0.682739
vn 0.527559 0.007874 0.850394
v 7.543507 3.837016 -0.550187
vt 0.987427 0.593994
vn 1.000000 0.039370 -0.094488
v 0.000000 5.602412 11.667987
vt 0.499695 0.408875
vn 0.000000 0.055118 1.000000
v -7.543507 3.837016 -0.550187
vt 0.987427 0.593994
vn -1.000000 0.039370 -0.094488
v -7.534624 10.143129 2.082910
vt 0.988586 0.012421
vn -1.000000 0.102362 0.039370
v -6.389435 12.582832 6.224827
vt 0.779938 0.012817
vn -0.897638 0.299213 0.330709
v -3.853616 14.060430 9.006793
vt 0.654266 0.012817
vn -0.574803 0.417323 0.700787
f 85/85/85 86/86/86 87/87/87
f 88/88/88 89/89/89 90/90/90
f 91/91/91 92/92/92 93/93/93
f 94/94/94 95/95/95 96/96/96
f 97/97/97 98/98/98 99/99/99
f 98/98/98 100/100/100 99/99/99
f 99/99/99 100/100/100 101/101/101
f 99/99/99 101/101/101 102/102/102
f 103/103/103 85/85/85 104/104/104
f 104/104/104 85/85/85 87/87/87
f 105/105/105 106/106/106 107/107/107
f 107/107/107 106/106/106 108/108/108
f 109/109/109 94/94/94 110/110/110
f 110/110/110 94/94/94 96/96/96
f 110/110/110 96/96/96 111/111/111
f 112/112/112 113/113/113 114/114/114
f 115/115/115 116/116/116 117/117/117
f 118/118/118 119/119/119 120/120/120
f 121/121/121 122/122/122 123/123/123
f 122/122/122 124/124/124 123/123/123
f 123/123/123 124/124/124 125/125/125
f 123/123/123 125/125/125 126/126/126
f 127/127/127 128/128/128 129/129/129
f 130/130/130 131/131/131 88/88/88
f 86/86/86 85/85/85 132/132/132
f 132/132/132 85/85/85 133/133/133
f 132/132/132 133/133/133 134/134/134
f 135/135/135 130/130/130 136/136/136
f 136/136/136 130/130/130 88/88/88
f 136/136/136 88/88/88 137/137/137
f 137/137/137 88/88/88 90/90/90
f 138/138/138 118/118/118 139/139/139
f 139/139/139 118/118/118 120/120/120
f 139/139/139 120/120/120 140/140/140
f 103/103/103 141/141/141 142/142/142
f 142/142/142 141/141/141 143/143/143
f 142/142/142 143/143/143 92/92/92
f 92/92/92 143/143/143 144/144/144
f 92/92/92 144/144/144 93/93/93
f 93/93/93 144/144/144 145/145/145
f 146/146/146 147/147/147 148/148/148
f 148/148/148 147/147/147 149/149/149
f 148/148/148 149/149/149 108/108/108
f 108/108/108 149/149/149 150/150/150
f 108/108/108 150/150/150 107/107/107
f 107/107/107 150/150/150 151/151/151
f 107/107/107 151/151/151 105/105/105
f 105/105/105 151/151/151 152/152/152
f 105/105/105 152/152/152 153/153/153
f 154/154/154 145/145/145 155/155/155
f 155/155/155 145/145/145 144/144/144
f 155/155/155 144/144/144 156/156/156
f 156/156/156 144/144/144 143/143/143
f 156/156/156 143/143/143 157/157/157
f 157/157/157 143/143/143 141/141/141
f 157/157/157 141/141/141 158/158/158
f 159/159/159 113/113/113 160/160/160
f 160/160/160 113/113/113 112/112/112
f 160/160/160 112/112/112 161/161/161
f 161/161/161 112/112/112 162/162/162
f 161/161/161 162/162/162 163/163/163
f 163/163/163 162/162/162 164/164/164
f 163/163/163 164/164/164 117/117/117
f 117/117/117 164/164/164 165/165/165
f 117/117/117 165/165/165 115/115/115
f 89/89/89 88/88/88 166/166/166
f 166/166/166 88/88/88 131/131/131
f 166/166/166 131/131/131 127/127/127
f 127/127/127 131/131/131 130/130/130
f 127/127/127 130/130/130 128/128/128
f 128/128/128 130/130/130 135/135/135
f 128/128/128 135/135/135 129/129/129
f 87/87/87 167/167/167 104/104/104
f 104/104/104 167/167/167 147/147/147
f 104/104/104 147/147/147 103/103/103
f 103/103/103 147/147/147 146/146/146
f 103/103/103 146/146/146 141/141/141
f 141/141/141 146/146/146 148/148/148
f 141/141/141 148/148/148 158/158/158
f 158/158/158 148/148/148 108/108/108
f 158/158/158 108/108/108 157/157/157
f 157/157/157 108/108/108 106/106/106
f 157/157/157 106/106/106 156/156/156
f 156/156/156 106/106/106 105/105/105
f 156/156/156 105/105/105 155/155/155
f 155/155/155 105/105/105 153/153/153
f 155/155/155 153/153/153 154/154/154
f 154/154/154 153/153/153 168/168/168
f 169/169/169 159/159/159 129/129/129
f 129/129/129 159/159/159 160/160/160
f 129/129/129 160/160/160 127/127/127
f 127/127/127 160/160/160 161/161/161
f 127/127/127 161/161/161 166/166/166
f 166/166/166 161/161/161 163/163/163
f 166/166/166 163/163/163 89/89/89
f 89/89/89 163/163/163 117/117/117
f 89/89/89 117/117/117 90/90/90
f 90/90/90 117/117/117 116/116/116
f 90/90/90 116/116/116 137/137/137
f 170/170/170 165/165/165 171/171/171
f 171/171/171 165/165/165 164/164/164
f 171/171/171 164/164/164 172/172/172
f 172/172/172 164/164/164 162/162/162
f 172/172/172 162/162/162 173/173/173
f 173/173/173 162/162/162 112/112/112
f 173/173/173 112/112/112 91/91/91
f 91/91/91 112/112/112 114/114/114
f 91/91/91 114/114/114 92/92/92
f 92/92/92 114/114/114 113/113/113
f 92/92/92 113/113/113 142/142/142
f 142/142/142 113/113/113 159/159/159
f 142/142/142 159/159/159 103/103/103
f 103/103/103 159/159/159 169/169/169
f 103/103/103 169/169/169 85/85/85
f 85/85/85 169/169/169 129/129/129
f 85/85/85 129/129/129 133/133/133
f 133/133/133 129/129/129 135/135/135
f 133/133/133 135/135/135 134/134/134
