mtllib 0472-0.mtl
g mesh00
usemtl texture00
v -0.015619 38.831610 -10.655220
vt 0.676270 0.082031
vn 0.000000 -0.275591 -0.960630
v -0.023887 30.208682 -8.136344
vt 0.009979 0.082031
vn 0.000000 -0.377953 -0.929134
v -7.196534 39.393799 -7.781371
vt 0.347656 0.273651
vn -0.685039 -0.354331 -0.637795
v -2.297323 40.618914 10.572796
vt 0.339844 0.009979
vn -0.062992 -0.748031 0.661417
v 1.810848 41.948018 11.300875
vt 0.668457 0.009979
vn 0.181102 -0.055118 0.984252
v -2.741996 42.539453 11.499242
vt 0.300781 0.167969
vn -0.354331 -0.007874 0.937008
v -8.944447 41.415077 -1.547922
vt 0.339844 0.273651
vn -1.000000 0.078740 0.031496
v -8.231960 37.028059 0.959964
vt 0.009979 0.273651
vn -0.944882 -0.322835 -0.070866
v -8.964201 38.298669 4.587718
vt 0.300781 0.167969
vn -0.976378 -0.070866 0.204724
v 9.078584 38.298669 4.587718
vt 0.300781 0.167969
vn 0.992126 -0.086614 0.118110
v 7.207100 34.361726 8.042930
vt 0.009979 0.009979
vn 0.944882 -0.212598 0.259843
v 7.809797 37.028059 0.959964
vt 0.009979 0.273651
vn 0.889764 -0.425197 -0.157480
v 8.898051 41.419951 -1.547922
vt 0.339844 0.273651
vn 1.000000 0.023622 -0.007874
v 6.511609 43.074020 7.081867
vt 0.668457 0.009979
vn 0.881890 0.267717 0.385827
v -7.172647 34.361726 6.562596
vt 0.009979 0.009979
vn -0.905512 -0.228346 0.362205
v -6.470725 43.077269 7.081867
vt 0.668457 0.009979
vn -0.866142 0.204724 0.464567
v -7.196534 39.393799 -7.781371
vt 0.074219 0.273651
vn -0.685039 -0.354331 -0.637795
v -5.370527 33.066744 -5.691100
vt 0.097656 0.009979
vn -0.834646 -0.275591 -0.480315
v -8.441894 41.116110 -1.767719
vt 0.676270 0.273651
vn -0.929134 -0.196850 -0.322835
v -7.268656 34.589201 -2.789776
vt 0.676270 0.009979
vn -0.850394 -0.070866 -0.519685
v -5.370527 33.066744 -5.691100
vt 0.009979 0.273651
vn -0.834646 -0.275591 -0.480315
v -7.196534 39.393799 -7.781371
vt 0.574219 0.152344
vn -0.685039 -0.354331 -0.637795
v 7.119819 39.372676 -7.780822
vt 0.347656 0.273651
vn 0.685039 -0.354331 -0.637795
v 7.119819 39.372676 -7.780822
vt 0.074219 0.273651
vn 0.685039 -0.354331 -0.637795
v 8.472212 41.133983 -1.768818
vt 0.676270 0.273651
vn 0.929134 -0.196850 -0.330709
v 5.322293 33.066744 -5.691100
vt 0.097656 0.009979
vn 0.826772 -0.275591 -0.488189
v 7.249362 34.589201 -2.789776
vt 0.676270 0.009979
vn 0.850394 -0.070866 -0.519685
v 7.119819 39.372676 -7.780822
vt 0.574219 0.152344
vn 0.685039 -0.354331 -0.637795
v 5.322293 33.066744 -5.691100
vt 0.009979 0.273651
vn 0.826772 -0.275591 -0.488189
v 5.575407 43.359988 8.285257
vt 0.668457 0.273651
vn 0.464567 0.425197 0.779528
v 0.031237 44.511987 10.952496
vt 0.339844 0.273651
vn 0.047244 0.488189 0.874016
v -2.741996 42.539453 11.499242
vt 0.300781 0.167969
vn -0.307087 -0.165354 0.937008
v -6.134464 43.494848 7.977540
vt 0.009979 0.273651
vn -0.614173 0.370079 0.692913
v -6.405494 39.291435 7.444532
vt 0.009979 0.009979
vn -0.448819 -0.448819 0.771654
f 1/1/1 2/2/2 3/3/3
f 4/4/4 5/5/5 6/6/6
f 7/7/7 8/8/8 9/9/9
f 10/10/10 11/11/11 12/12/12
f 12/12/12 13/13/13 10/10/10
f 10/10/10 13/13/13 14/14/14
f 10/10/10 14/14/14 11/11/11
f 8/8/8 15/15/15 9/9/9
f 9/9/9 15/15/15 16/16/16
f 9/9/9 16/16/16 7/7/7
f 17/17/17 18/18/18 19/19/19
f 19/19/19 18/18/18 20/20/20
f 2/2/2 21/21/21 22/22/22
f 2/2/2 1/1/1 23/23/23
f 24/24/24 25/25/25 26/26/26
f 26/26/26 25/25/25 27/27/27
f 28/28/28 29/29/29 2/2/2
f 30/30/30 31/31/31 5/5/5
f 5/5/5 31/31/31 32/32/32
f 31/31/31 33/33/33 32/32/32
f 32/32/32 33/33/33 34/34/34
f 32/32/32 34/34/34 4/4/4
usemtl texture00
v -4.618993 34.061134 -9.451281
vt 0.167969 0.574219
vn -0.700787 -0.251969 -0.669291
v -4.234958 31.784759 -9.552937
vt 0.089844 0.550781
vn -0.661417 0.102362 -0.740157
v -7.607213 31.830254 -3.691494
vt 0.113281 0.660156
vn -1.000000 0.023622 -0.031496
v 4.193614 31.784759 -9.552388
vt 0.089844 0.550781
vn 0.661417 0.102362 -0.740157
v 4.583622 34.061134 -9.451281
vt 0.167969 0.574219
vn 0.700787 -0.251969 -0.669291
v 7.556223 31.830254 -3.690395
vt 0.113281 0.660156
vn 1.000000 0.023622 -0.031496
v 4.685602 29.519758 6.385659
vt 0.152344 0.816406
vn 0.834646 -0.370079 0.409449
v -0.015619 29.505135 10.394211
vt 0.222656 0.957031
vn 0.000000 -0.952756 0.314961
v -0.015619 27.719456 8.425377
vt 0.144531 0.957031
vn 0.000000 -0.511811 0.858268
v -4.234958 31.784759 -9.552937
vt 0.089844 0.550781
vn -0.661417 0.102362 -0.740157
v -4.618993 34.061134 -9.451281
vt 0.167969 0.574219
vn -0.700787 -0.251969 -0.669291
v -0.017456 33.989642 -11.496494
vt 0.144531 0.464844
vn 0.000000 -0.275591 -0.960630
v -0.015619 27.719456 8.425377
vt 0.144531 0.987396
vn 0.000000 -0.511811 0.858268
v -0.015619 29.505135 10.394211
vt 0.222656 0.987396
vn 0.000000 -0.952756 0.314961
v -4.726946 29.519758 6.385109
vt 0.152344 0.816406
vn -0.834646 -0.370079 0.409449
v -7.720219 29.220791 -4.076689
vt 0.009979 0.621094
vn -0.960630 0.133858 -0.251969
v -7.607213 31.830254 -3.691494
vt 0.113281 0.660156
vn -1.000000 0.023622 -0.031496
v -6.151920 26.175875 3.718969
vt 0.009979 0.808594
vn -0.826772 0.181102 0.535433
v -4.999813 27.787698 4.265715
vt 0.097656 0.816406
vn -0.716535 -0.007874 0.700787
v -0.782771 24.429192 7.323644
vt 0.009979 0.987396
vn -0.535433 0.086614 0.842520
v -0.015619 26.599954 7.593445
vt 0.097656 0.987396
vn 0.000000 -0.259843 0.968504
v 4.583622 34.061134 -9.451281
vt 0.167969 0.574219
vn 0.700787 -0.251969 -0.669291
v 4.193614 31.784759 -9.552388
vt 0.089844 0.550781
vn 0.661417 0.102362 -0.740157
v -0.017456 33.989642 -11.496494
vt 0.144531 0.464844
vn 0.000000 -0.275591 -0.960630
v -0.015619 31.719767 -11.142621
vt 0.074219 0.464844
vn 0.000000 0.196850 -0.984252
v -4.234958 31.784759 -9.552937
vt 0.089844 0.550781
vn -0.661417 0.102362 -0.740157
v -4.275383 29.389772 -10.979971
vt 0.009979 0.464844
vn -0.622047 0.409449 -0.669291
v -7.720219 29.220791 -4.076689
vt 0.009979 0.621094
vn -0.960630 0.133858 -0.251969
v -0.015619 27.719456 8.425377
vt 0.144531 0.987396
vn 0.000000 -0.511811 0.858268
v -4.999813 27.787698 4.265715
vt 0.097656 0.816406
vn -0.716535 -0.007874 0.700787
v -4.726946 29.519758 6.385109
vt 0.152344 0.816406
vn -0.834646 -0.370079 0.409449
v -7.607213 31.830254 -3.691494
vt 0.113281 0.660156
vn -1.000000 0.023622 -0.031496
v -8.001355 34.452716 -3.505766
vt 0.191406 0.660156
vn -0.913386 -0.362205 -0.188976
v -6.224501 37.947708 -10.998104
vt 0.300781 0.582031
vn -0.622047 -0.440945 -0.653543
v -6.224501 37.947708 -10.998104
vt 0.300781 0.582031
vn -0.622047 -0.440945 -0.653543
v -0.022969 37.947708 -13.218056
vt 0.300781 0.464844
vn 0.000000 -0.401575 -0.921260
v -0.017456 33.989642 -11.496494
vt 0.144531 0.464844
vn 0.000000 -0.275591 -0.960630
v 6.167539 37.947708 -10.998104
vt 0.300781 0.582031
vn 0.622047 -0.440945 -0.653543
v 4.583622 34.061134 -9.451281
vt 0.167969 0.574219
vn 0.700787 -0.251969 -0.669291
v 7.966443 34.452716 -3.505766
vt 0.191406 0.660156
vn 0.913386 -0.362205 -0.188976
v 7.556223 31.830254 -3.690395
vt 0.113281 0.660156
vn 1.000000 0.023622 -0.031496
v 4.685602 29.519758 6.385659
vt 0.152344 0.816406
vn 0.834646 -0.370079 0.409449
v 4.963064 27.787698 4.265715
vt 0.097656 0.816406
vn 0.716535 -0.007874 0.700787
v -0.015619 27.719456 8.425377
vt 0.144531 0.957031
vn 0.000000 -0.511811 0.858268
v -0.015619 26.599954 7.593445
vt 0.097656 0.957031
vn 0.000000 -0.259843 0.968504
f 35/35/35 36/36/36 37/37/37
f 38/38/38 39/39/39 40/40/40
f 41/41/41 42/42/42 43/43/43
f 44/44/44 45/45/45 46/46/46
f 47/47/47 48/48/48 49/49/49
f 44/44/44 50/50/50 51/51/51
f 51/51/51 50/50/50 52/52/52
f 51/51/51 52/52/52 53/53/53
f 53/53/53 52/52/52 54/54/54
f 53/53/53 54/54/54 55/55/55
f 56/56/56 57/57/57 58/58/58
f 58/58/58 57/57/57 59/59/59
f 58/58/58 59/59/59 60/60/60
f 60/60/60 59/59/59 61/61/61
f 60/60/60 61/61/61 62/62/62
f 55/55/55 63/63/63 64/64/64
f 64/64/64 63/63/63 65/65/65
f 64/64/64 65/65/65 66/66/66
f 66/66/66 65/65/65 67/67/67
f 66/66/66 67/67/67 45/45/45
f 45/45/45 67/67/67 68/68/68
f 45/45/45 68/68/68 46/46/46
f 69/69/69 70/70/70 71/71/71
f 71/71/71 70/70/70 72/72/72
f 71/71/71 72/72/72 73/73/73
f 73/73/73 72/72/72 74/74/74
f 73/73/73 74/74/74 75/75/75
f 75/75/75 74/74/74 76/76/76
f 75/75/75 76/76/76 77/77/77
f 77/77/77 76/76/76 78/78/78
f 77/77/77 78/78/78 79/79/79
usemtl texture00
v -0.015619 26.599954 7.593445
vt 0.097656 0.957031
vn 0.000000 -0.259843 0.968504
v 0.751534 24.429192 7.323644
vt 0.009979 0.957031
vn 0.535433 0.086614 0.842520
v 4.963064 27.787698 4.265715
vt 0.097656 0.816406
vn 0.716535 -0.007874 0.700787
v 6.125277 26.175875 3.718969
vt 0.009979 0.808594
vn 0.826772 0.181102 0.535433
v 7.556223 31.830254 -3.690395
vt 0.113281 0.660156
vn 1.000000 0.023622 -0.031496
v 7.680254 29.220791 -4.076689
vt 0.009979 0.621094
vn 0.960630 0.141732 -0.251969
v 4.193614 31.784759 -9.552388
vt 0.089844 0.550781
vn 0.661417 0.102362 -0.740157
v 4.237255 29.389772 -10.979421
vt 0.009979 0.464844
vn 0.622047 0.409449 -0.669291
v -0.015619 31.719767 -11.142621
vt 0.074219 0.464844
vn 0.000000 0.196850 -0.984252
f 80/80/80 81/81/81 82/82/82
f 82/82/82 81/81/81 83/83/83
f 82/82/82 83/83/83 84/84/84
f 84/84/84 83/83/83 85/85/85
f 84/84/84 85/85/85 86/86/86
f 86/86/86 85/85/85 87/87/87
f 86/86/86 87/87/87 88/88/88
usemtl texture00
v 8.610483 49.126480 -3.293661
vt 0.652344 0.707031
vn 0.551181 0.779528 -0.307087
v 15.052268 43.532219 -0.421461
vt 0.652344 0.457031
vn 0.590551 -0.645669 0.488189
v 11.741109 40.514926 -11.627823
vt 0.457031 0.457031
vn 0.771654 -0.527559 -0.346457
v 6.665040 45.818343 7.530253
vt 0.855469 0.972656
vn 0.771654 0.157480 0.622047
v 6.665040 42.879041 8.262727
vt 0.855469 0.989990
vn 0.582677 -0.574803 0.574803
v 9.425870 40.591292 -2.738124
vt 0.675781 0.989990
vn 0.976378 -0.220472 0.047244
v -7.494667 51.254996 6.625238
vt 0.855469 0.714844
vn -0.677165 0.511811 0.535433
v -6.664121 48.660156 6.821407
vt 0.855469 0.824219
vn -0.669291 -0.149606 0.724409
v 0.000000 50.488080 9.771086
vt 0.989990 0.761719
vn -0.015748 0.023622 1.000000
v -6.664121 45.818343 7.530253
vt 0.855469 0.972656
vn -0.771654 0.157480 0.622047
v -6.664121 42.879041 8.262727
vt 0.855469 0.989990
vn -0.582677 -0.574803 0.574803
v 0.001378 44.313758 11.389892
vt 0.989990 0.989990
vn 0.000000 -0.244094 0.976378
v -7.370177 41.415077 -8.113265
vt 0.503906 0.972656
vn -0.732283 -0.543307 -0.409449
v -7.366043 39.029839 -7.518714
vt 0.503906 0.989990
vn -0.574803 -0.787402 -0.236220
v -9.424492 40.591292 -2.738124
vt 0.675781 0.989990
vn -0.976378 -0.220472 0.047244
v 0.000000 53.185284 9.736468
vt 0.989990 0.628906
vn 0.039370 0.881890 0.472441
v 7.323780 41.393954 -8.112716
vt 0.503906 0.972656
vn 0.582677 -0.755906 -0.314961
v 7.327455 39.008716 -7.517615
vt 0.503906 0.989990
vn 0.574803 -0.787402 -0.244094
v 0.000000 38.219053 -10.724456
vt 0.308594 0.989990
vn 0.000000 -0.685039 -0.732283
v 8.029377 34.200869 1.267681
vt 0.246094 0.738281
vn 0.921260 -0.385827 0.086614
v 9.353749 37.716983 -3.186510
vt 0.300781 0.660156
vn 0.960630 -0.283465 -0.062992
v 6.746349 34.475464 7.312104
vt 0.300781 0.792969
vn 0.826772 -0.551181 0.125984
v -9.928424 39.689516 -2.590310
vt 0.394531 0.441681
vn -1.000000 0.000000 0.000000
v -6.528147 42.695436 9.627119
vt 0.714844 0.441681
vn -0.732283 0.165354 0.661417
v -6.528147 46.338286 8.718807
vt 0.714844 0.285156
vn -0.732283 0.165354 0.661417
v 0.000000 43.537094 12.124565
vt 0.989990 0.441681
vn 0.000000 0.236220 0.976378
v 0.000000 47.181569 11.216253
vt 0.989990 0.285156
vn 0.000000 0.236220 0.976378
v 6.529065 46.338286 8.718807
vt 0.714844 0.285156
vn 0.732283 0.165354 0.661417
v 0.000000 37.786850 -11.237133
vt 0.009979 0.441681
vn 0.000000 -0.236220 -0.976378
v -7.757428 38.641506 -7.859949
vt 0.191406 0.441681
vn -0.755906 -0.157480 -0.645669
v -7.761103 40.752150 -8.386363
vt 0.191406 0.285156
vn -0.755906 -0.157480 -0.645669
v -9.928424 42.459837 -3.280474
vt 0.394531 0.285156
vn -1.000000 0.000000 0.000000
v 6.529065 42.695436 9.627119
vt 0.714844 0.441681
vn 0.732283 0.165354 0.661417
v 9.927505 39.689516 -2.590310
vt 0.394531 0.441681
vn 1.000000 0.000000 0.000000
v 9.927505 42.459837 -3.280474
vt 0.394531 0.285156
vn 1.000000 0.000000 0.000000
v 7.716544 40.729402 -8.385814
vt 0.191406 0.285156
vn 0.748031 -0.157480 -0.645669
v 7.720219 38.618759 -7.859399
vt 0.191406 0.441681
vn 0.748031 -0.157480 -0.645669
v 0.000000 39.553031 -11.677277
vt 0.009979 0.285156
vn 0.000000 -0.236220 -0.976378
v -3.487558 47.127949 11.304721
vt 0.906860 0.047882
vn 0.094488 0.795276 0.598425
v -5.420139 46.989840 10.552465
vt 0.788361 0.047882
vn -0.551181 0.629921 0.543307
v -2.565138 45.451134 12.114124
vt 0.943909 0.136749
vn 0.188976 0.228346 0.952756
v -6.429841 45.173289 10.609063
vt 0.751343 0.136749
vn -0.811024 0.157480 0.559055
v -3.574839 43.634583 12.171272
vt 0.906860 0.225616
vn -0.062992 -0.236220 0.968504
v -5.506961 43.496473 11.418466
vt 0.788361 0.225616
vn -0.606299 -0.472441 0.637795
v 3.488477 47.127949 11.304721
vt 0.906860 0.047882
vn -0.094488 0.795276 0.598425
v 2.565597 45.451134 12.114124
vt 0.943909 0.136749
vn -0.188976 0.228346 0.952756
v 5.420599 46.989840 10.552465
vt 0.788361 0.047882
vn 0.551181 0.629921 0.543307
v 3.575298 43.634583 12.171272
vt 0.906860 0.225616
vn 0.062992 -0.236220 0.968504
v 6.430300 45.173289 10.609063
vt 0.751343 0.136749
vn 0.811024 0.157480 0.559055
v 5.507420 43.496473 11.418466
vt 0.788361 0.225616
vn 0.606299 -0.472441 0.637795
v 8.415250 50.808170 6.736785
vt 0.824219 0.457031
vn 0.653543 0.472441 0.598425
v 6.347613 51.529591 2.270505
vt 0.824219 0.628906
vn 0.354331 0.929134 -0.086614
v 0.000000 53.185284 9.736468
vt 0.989990 0.457031
vn 0.039370 0.881890 0.472441
v 0.000000 46.617755 10.736545
vt 0.989990 0.972656
vn 0.000000 0.251969 0.968504
v -4.206936 52.887942 1.932018
vt 0.824219 0.628906
vn -0.196850 0.976378 -0.086614
v 0.840193 53.240528 3.724464
vt 0.989990 0.613281
vn 0.125984 0.992126 -0.062992
v 1.780070 52.121026 -2.212809
vt 0.675781 0.800781
vn 0.125984 0.921260 -0.385827
v -12.188079 45.842716 -0.997330
vt 0.675781 0.816406
vn -0.944882 -0.259843 0.188976
v -9.425411 42.924536 -3.396417
vt 0.675781 0.972656
vn -0.921260 -0.338583 0.204724
v 3.020376 44.469741 -13.893932
vt 0.308594 0.699219
vn 0.110236 0.740157 -0.661417
v -3.546817 45.139168 -12.414147
vt 0.402344 0.582031
vn -0.149606 0.740157 -0.653543
v -5.949796 51.461348 -2.048510
vt 0.652344 0.707031
vn -0.417323 0.842520 -0.338583
v 5.497773 30.683130 12.125114
vt 0.300781 0.985687
vn 0.338583 -0.763780 -0.559055
v -0.015619 29.505135 10.394211
vt 0.222656 0.985687
vn 0.000000 -0.952756 0.314961
v -8.001355 34.452716 -3.505766
vt 0.191406 0.660156
vn -0.913386 -0.362205 -0.188976
v -4.726946 29.519758 6.385109
vt 0.152344 0.816406
vn -0.834646 -0.370079 0.409449
v -8.053724 34.200869 1.267131
vt 0.246063 0.738281
vn -0.921260 -0.377953 0.086614
v -5.375121 30.683130 12.125114
vt 0.300781 0.985687
vn -0.346457 -0.763780 -0.551181
v -6.728893 34.475464 7.312104
vt 0.300781 0.792969
vn -0.834646 -0.543307 0.133858
v 8.147895 43.095142 -13.075737
vt 0.402344 0.582031
vn 0.425197 0.669291 -0.614173
v 3.520174 39.289810 -18.005789
vt 0.308594 0.457031
vn 0.118110 0.055118 -0.992126
v -8.318782 42.172244 -13.559291
vt 0.457031 0.457031
vn -0.755906 -0.236220 -0.606299
v 0.000000 40.371941 -11.261311
vt 0.308594 0.972656
vn -0.078740 -0.952756 -0.307087
v 11.741109 40.514926 -11.627823
vt 0.503906 0.816406
vn 0.771654 -0.527559 -0.346457
v 15.052268 43.532219 -0.421461
vt 0.675781 0.816406
vn 0.590551 -0.645669 0.488189
v 9.425870 40.591292 -2.738124
vt 0.703613 0.035309
vn 0.976378 -0.220472 0.047244
v 6.665040 42.879041 8.262727
vt 0.709686 0.029266
vn 0.582677 -0.574803 0.574803
v 7.327455 39.008716 -7.517615
vt 0.697571 0.029266
vn 0.574803 -0.787402 -0.244094
v 0.001378 44.313758 11.389892
vt 0.715729 0.023224
vn 0.000000 -0.244094 0.976378
v 0.000000 38.219053 -10.724456
vt 0.691528 0.023224
vn 0.000000 -0.685039 -0.732283
v -6.664121 42.879041 8.262727
vt 0.709686 0.017151
vn -0.582677 -0.574803 0.574803
v -7.366043 39.029839 -7.518714
vt 0.697571 0.017151
vn -0.574803 -0.787402 -0.236220
v -9.424492 40.591292 -2.738124
vt 0.703613 0.011108
vn -0.976378 -0.220472 0.047244
v 8.415250 50.808170 6.736785
vt 0.855469 0.714844
vn 0.653543 0.472441 0.598425
v 6.665040 48.660156 6.821407
vt 0.855469 0.824219
vn 0.511811 -0.291339 0.811024
v 9.424951 42.924536 -3.396417
vt 0.675781 0.972656
vn 0.795276 -0.519685 0.322835
v 6.167539 37.947708 -10.998104
vt 0.300781 0.582031
vn 0.622047 -0.440945 -0.653543
v 7.966443 34.452716 -3.505766
vt 0.191406 0.660156
vn 0.913386 -0.362205 -0.188976
v 4.685602 29.519758 6.385659
vt 0.152344 0.816406
vn 0.834646 -0.370079 0.409449
v -0.015619 29.505135 10.394211
vt 0.222656 0.957031
vn 0.000000 -0.952756 0.314961
v -6.224501 37.947708 -10.998104
vt 0.300781 0.582031
vn -0.622047 -0.440945 -0.653543
v -9.347777 37.716983 -3.186510
vt 0.300781 0.660156
vn -0.960630 -0.267717 -0.055118
v -0.015619 29.505135 10.394211
vt 0.222656 0.987396
vn 0.000000 -0.952756 0.314961
v -6.360935 44.784957 9.051799
vt 0.699493 0.136749
vn -1.000000 0.007874 -0.047244
v -5.204694 42.684062 10.066164
vt 0.758728 0.270081
vn -0.582677 -0.748031 0.322835
v -2.783340 42.857918 11.009094
vt 0.936493 0.270081
vn 0.299213 -0.685039 0.661417
v -1.518227 45.132669 10.937660
vt 0.988342 0.136749
vn 0.763780 0.133858 0.637795
v -2.674468 47.233563 9.923295
vt 0.936493 0.010834
vn 0.338583 0.905512 0.267717
v -5.095822 47.061332 8.980365
vt 0.758728 0.010834
vn -0.543307 0.842520 -0.070866
v 5.096282 47.061332 8.980365
vt 0.758728 0.010834
vn 0.543307 0.842520 -0.070866
v 6.361854 44.784957 9.051799
vt 0.699493 0.136749
vn 1.000000 0.007874 -0.047244
v 5.205612 42.684062 10.066164
vt 0.758728 0.270081
vn 0.582677 -0.748031 0.322835
v 2.783799 42.857918 11.009094
vt 0.936493 0.270081
vn -0.299213 -0.685039 0.661417
v 1.518686 45.132669 10.937660
vt 0.988342 0.136749
vn -0.763780 0.133858 0.637795
v 2.674928 47.233563 9.923295
vt 0.936493 0.010834
vn -0.338583 0.905512 0.267717
v -12.188079 45.842716 -0.997330
vt 0.652344 0.457031
vn -0.944882 -0.259843 0.188976
v -7.494667 51.254996 6.625238
vt 0.824219 0.457031
vn -0.677165 0.511811 0.535433
v -8.318782 42.172244 -13.559291
vt 0.503906 0.816406
vn -0.755906 -0.236220 -0.606299
v 3.520174 39.289810 -18.005789
vt 0.308594 0.816406
vn 0.118110 0.055118 -0.992126
f 89/89/89 90/90/90 91/91/91
f 92/92/92 93/93/93 94/94/94
f 95/95/95 96/96/96 97/97/97
f 98/98/98 99/99/99 100/100/100
f 101/101/101 102/102/102 103/103/103
f 97/97/97 104/104/104 95/95/95
f 105/105/105 106/106/106 107/107/107
f 108/108/108 109/109/109 110/110/110
f 111/111/111 112/112/112 113/113/113
f 113/113/113 112/112/112 114/114/114
f 113/113/113 114/114/114 115/115/115
f 115/115/115 114/114/114 116/116/116
f 117/117/117 118/118/118 119/119/119
f 119/119/119 118/118/118 111/111/111
f 119/119/119 111/111/111 120/120/120
f 120/120/120 111/111/111 113/113/113
f 114/114/114 121/121/121 116/116/116
f 116/116/116 121/121/121 122/122/122
f 116/116/116 122/122/122 123/123/123
f 123/123/123 122/122/122 124/124/124
f 122/122/122 125/125/125 124/124/124
f 124/124/124 125/125/125 117/117/117
f 124/124/124 117/117/117 126/126/126
f 126/126/126 117/117/117 119/119/119
f 127/127/127 128/128/128 129/129/129
f 129/129/129 128/128/128 130/130/130
f 129/129/129 130/130/130 131/131/131
f 131/131/131 130/130/130 132/132/132
f 133/133/133 134/134/134 135/135/135
f 135/135/135 134/134/134 136/136/136
f 135/135/135 136/136/136 137/137/137
f 137/137/137 136/136/136 138/138/138
f 90/90/90 89/89/89 139/139/139
f 139/139/139 89/89/89 140/140/140
f 139/139/139 140/140/140 141/141/141
f 93/93/93 92/92/92 100/100/100
f 100/100/100 92/92/92 142/142/142
f 100/100/100 142/142/142 98/98/98
f 143/143/143 144/144/144 145/145/145
f 96/96/96 95/95/95 146/146/146
f 99/99/99 98/98/98 103/103/103
f 103/103/103 98/98/98 147/147/147
f 103/103/103 147/147/147 101/101/101
f 148/148/148 149/149/149 145/145/145
f 145/145/145 149/149/149 150/150/150
f 145/145/145 150/150/150 143/143/143
f 110/110/110 151/151/151 152/152/152
f 153/153/153 154/154/154 155/155/155
f 152/152/152 156/156/156 157/157/157
f 145/145/145 158/158/158 148/148/148
f 148/148/148 158/158/158 159/159/159
f 148/148/148 159/159/159 149/149/149
f 149/149/149 159/159/159 160/160/160
f 149/149/149 160/160/160 150/150/150
f 102/102/102 101/101/101 107/107/107
f 107/107/107 101/101/101 161/161/161
f 107/107/107 161/161/161 105/105/105
f 105/105/105 161/161/161 162/162/162
f 105/105/105 162/162/162 163/163/163
f 164/164/164 165/165/165 166/166/166
f 166/166/166 165/165/165 167/167/167
f 166/166/166 167/167/167 168/168/168
f 168/168/168 167/167/167 169/169/169
f 168/168/168 169/169/169 170/170/170
f 170/170/170 169/169/169 171/171/171
f 104/104/104 97/97/97 172/172/172
f 172/172/172 97/97/97 173/173/173
f 172/172/172 173/173/173 163/163/163
f 163/163/163 173/173/173 174/174/174
f 163/163/163 174/174/174 105/105/105
f 175/175/175 109/109/109 176/176/176
f 176/176/176 109/109/109 108/108/108
f 176/176/176 108/108/108 177/177/177
f 177/177/177 108/108/108 110/110/110
f 177/177/177 110/110/110 178/178/178
f 179/179/179 153/153/153 180/180/180
f 180/180/180 153/153/153 155/155/155
f 180/180/180 155/155/155 157/157/157
f 157/157/157 155/155/155 154/154/154
f 157/157/157 154/154/154 181/181/181
f 128/128/128 182/182/182 130/130/130
f 130/130/130 182/182/182 183/183/183
f 130/130/130 183/183/183 132/132/132
f 132/132/132 183/183/183 184/184/184
f 132/132/132 184/184/184 131/131/131
f 131/131/131 184/184/184 185/185/185
f 131/131/131 185/185/185 129/129/129
f 129/129/129 185/185/185 186/186/186
f 129/129/129 186/186/186 127/127/127
f 127/127/127 186/186/186 187/187/187
f 127/127/127 187/187/187 128/128/128
f 128/128/128 187/187/187 182/182/182
f 188/188/188 137/137/137 189/189/189
f 189/189/189 137/137/137 138/138/138
f 189/189/189 138/138/138 190/190/190
f 190/190/190 138/138/138 136/136/136
f 190/190/190 136/136/136 191/191/191
f 191/191/191 136/136/136 134/134/134
f 191/191/191 134/134/134 192/192/192
f 192/192/192 134/134/134 133/133/133
f 192/192/192 133/133/133 193/193/193
f 193/193/193 133/133/133 135/135/135
f 193/193/193 135/135/135 188/188/188
f 188/188/188 135/135/135 137/137/137
f 160/160/160 194/194/194 150/150/150
f 150/150/150 194/194/194 195/195/195
f 150/150/150 195/195/195 143/143/143
f 143/143/143 195/195/195 141/141/141
f 143/143/143 141/141/141 144/144/144
f 144/144/144 141/141/141 140/140/140
f 144/144/144 140/140/140 145/145/145
f 145/145/145 140/140/140 89/89/89
f 145/145/145 89/89/89 158/158/158
f 158/158/158 89/89/89 91/91/91
f 158/158/158 91/91/91 159/159/159
f 106/106/106 105/105/105 94/94/94
f 94/94/94 105/105/105 174/174/174
f 94/94/94 174/174/174 92/92/92
f 92/92/92 174/174/174 173/173/173
f 92/92/92 173/173/173 142/142/142
f 142/142/142 173/173/173 97/97/97
f 142/142/142 97/97/97 98/98/98
f 98/98/98 97/97/97 96/96/96
f 98/98/98 96/96/96 147/147/147
f 147/147/147 96/96/96 146/146/146
f 147/147/147 146/146/146 101/101/101
f 101/101/101 146/146/146 196/196/196
f 101/101/101 196/196/196 161/161/161
f 161/161/161 196/196/196 197/197/197
f 161/161/161 197/197/197 162/162/162
