mtllib 2075-0.mtl
g mesh00
usemtl texture00
v -1.199780 -0.078720 11.477045
vt 0.420135 0.756073
vn -0.346457 -0.251969 0.905512
v -1.024637 -0.730322 10.506381
vt 0.429688 0.789062
vn -0.370079 -0.480315 0.795276
v 0.000000 -0.721667 11.117199
vt 0.492188 0.781250
vn 0.000000 -0.874016 0.488189
v 2.172765 -2.584151 9.251924
vt 0.382812 0.867188
vn 0.519685 -0.409449 0.755906
v 3.162793 -3.154973 7.939026
vt 0.281250 0.898438
vn 0.748031 -0.503937 0.440945
v 4.386695 -1.392639 8.007873
vt 0.231018 0.813599
vn 0.755906 -0.393701 0.519685
v 5.944625 0.867978 6.096567
vt 0.089264 0.677429
vn 0.929134 -0.291339 0.236220
v 5.613480 -1.646521 2.436866
vt 0.093750 0.828125
vn 0.874016 -0.472441 -0.133858
v 6.287045 0.848607 2.331594
vt 0.046875 0.664062
vn 0.984252 -0.204724 0.055118
v 4.278148 -2.994648 2.283161
vt 0.007812 0.992188
vn 0.637795 -0.653543 -0.409449
v 7.164594 4.379869 -0.334629
vt 0.007812 0.343750
vn 0.850394 -0.440945 -0.299213
v 1.733073 -4.761103 8.055506
vt 0.359375 0.953125
vn 0.472441 -0.858268 0.204724
v 0.000000 -4.960170 9.062194
vt 0.492188 0.976562
vn 0.000000 -0.866142 0.511811
v 0.000000 -5.239604 7.761305
vt 0.492188 0.984375
vn 0.000000 -1.000000 0.070866
v 0.000000 -4.141649 9.803901
vt 0.492188 0.953125
vn 0.000000 -0.401575 0.921260
v 1.717866 -4.010174 9.268735
vt 0.359375 0.914062
vn 0.488189 -0.440945 0.755906
v 1.024637 -0.730322 10.506381
vt 0.429688 0.789062
vn 0.362205 -0.480315 0.803150
v 0.000000 -1.320102 11.119200
vt 0.492188 0.835938
vn 0.000000 0.125984 0.992126
v 1.148653 -1.341121 10.759754
vt 0.421875 0.835938
vn 0.456693 -0.055118 0.889764
v 0.000000 -1.895869 10.907055
vt 0.492188 0.867188
vn 0.000000 -0.598425 0.803150
v 2.772917 -1.086415 9.416836
vt 0.347198 0.786438
vn 0.590551 -0.307087 0.748031
v 0.000000 0.775658 11.248488
vt 0.492188 0.695312
vn -0.007874 -0.362205 0.937008
v 0.000000 -0.157852 11.658769
vt 0.492188 0.757812
vn 0.000000 -0.173228 0.992126
v 1.199780 -0.078720 11.477045
vt 0.420135 0.756073
vn 0.346457 -0.251969 0.905512
v 0.000000 -5.096590 5.771945
vt 0.492188 0.992188
vn 0.000000 -1.000000 -0.110236
v 3.538773 -3.713842 6.058941
vt 0.140625 0.953125
vn 0.669291 -0.740157 0.094488
v 5.100113 -1.459819 5.722311
vt 0.165161 0.860474
vn 0.850394 -0.472441 0.236220
v -5.613480 -1.646521 2.436866
vt 0.093750 0.828125
vn -0.874016 -0.472441 -0.133858
v -5.944625 0.867978 6.096567
vt 0.089264 0.677429
vn -0.929134 -0.291339 0.236220
v -6.287045 0.848607 2.331594
vt 0.046875 0.664062
vn -0.984252 -0.204724 0.055118
v -2.772917 -1.086415 9.376809
vt 0.347198 0.786438
vn -0.590551 -0.307087 0.748031
v -2.172765 -2.584151 9.251924
vt 0.382812 0.867188
vn -0.519685 -0.401575 0.755906
v -1.148653 -1.341121 10.759754
vt 0.421875 0.835938
vn -0.456693 -0.055118 0.889764
v 0.000000 -0.812751 10.624462
vt 0.492188 0.796875
vn 0.000000 -0.385827 0.921260
v 0.000000 1.172141 12.675464
vt 0.492188 0.648438
vn -0.015748 -0.834646 0.551181
v -0.851068 1.557497 12.473726
vt 0.460938 0.632812
vn -0.692913 -0.338583 0.637795
v 5.075729 0.617806 8.185995
vt 0.196411 0.718750
vn 0.755906 -0.283465 0.590551
v 3.117172 1.020060 10.100904
vt 0.318573 0.664886
vn 0.566929 -0.157480 0.811024
v 1.666477 1.484548 10.564021
vt 0.394165 0.629944
vn 0.527559 -0.078740 0.850394
v 0.851068 1.517519 12.473726
vt 0.460938 0.632812
vn 0.692913 -0.346457 0.637795
v -5.100113 -1.459819 5.722311
vt 0.165161 0.860474
vn -0.858268 -0.464567 0.236220
v -4.386695 -1.392639 8.007873
vt 0.231018 0.813599
vn -0.755906 -0.385827 0.527559
v -5.075729 0.617806 8.185995
vt 0.196411 0.718750
vn -0.755906 -0.283465 0.590551
v -3.117172 1.020060 10.100904
vt 0.318573 0.664886
vn -0.566929 -0.165354 0.803150
v -1.666477 1.484548 10.564021
vt 0.394165 0.629944
vn -0.527559 -0.078740 0.850394
v 0.000000 -2.689249 9.926785
vt 0.492188 0.914062
vn 0.000000 -0.346457 0.944882
v -1.717866 -4.010174 9.268735
vt 0.359375 0.914062
vn -0.480315 -0.440945 0.755906
v -1.733073 -4.761103 8.055506
vt 0.359375 0.953125
vn -0.464567 -0.866142 0.204724
v 1.024637 -0.730322 10.506381
vt 0.429688 0.789062
vn 0.362205 -0.480315 0.803150
v -3.162793 -3.234929 7.939026
vt 0.281250 0.898438
vn -0.740157 -0.503937 0.440945
v -3.538773 -3.713842 6.058941
vt 0.140625 0.953125
vn -0.661417 -0.748031 0.086614
v -4.278148 -2.994648 2.283161
vt 0.007812 0.992188
vn -0.637795 -0.653543 -0.409449
v -7.164594 4.379869 -0.334629
vt 0.007812 0.343750
vn -0.850394 -0.440945 -0.299213
f 1/1/1 2/2/2 3/3/3
f 4/4/4 5/5/5 6/6/6
f 7/7/7 8/8/8 9/9/9
f 9/9/9 8/8/8 10/10/10
f 9/9/9 10/10/10 11/11/11
f 12/12/12 13/13/13 14/14/14
f 15/15/15 13/13/13 16/16/16
f 16/16/16 13/13/13 12/12/12
f 16/16/16 12/12/12 5/5/5
f 17/17/17 18/18/18 19/19/19
f 19/19/19 18/18/18 20/20/20
f 6/6/6 21/21/21 4/4/4
f 22/22/22 23/23/23 24/24/24
f 25/25/25 10/10/10 26/26/26
f 26/26/26 10/10/10 8/8/8
f 26/26/26 8/8/8 27/27/27
f 27/27/27 8/8/8 7/7/7
f 28/28/28 29/29/29 30/30/30
f 2/2/2 1/1/1 31/31/31
f 32/32/32 20/20/20 33/33/33
f 33/33/33 20/20/20 18/18/18
f 33/33/33 18/18/18 34/34/34
f 34/34/34 18/18/18 17/17/17
f 22/22/22 35/35/35 36/36/36
f 6/6/6 37/37/37 21/21/21
f 21/21/21 37/37/37 38/38/38
f 21/21/21 38/38/38 24/24/24
f 24/24/24 38/38/38 39/39/39
f 24/24/24 39/39/39 22/22/22
f 22/22/22 39/39/39 40/40/40
f 22/22/22 40/40/40 35/35/35
f 28/28/28 41/41/41 29/29/29
f 29/29/29 41/41/41 42/42/42
f 29/29/29 42/42/42 43/43/43
f 43/43/43 42/42/42 31/31/31
f 43/43/43 31/31/31 44/44/44
f 44/44/44 31/31/31 1/1/1
f 44/44/44 1/1/1 45/45/45
f 5/5/5 4/4/4 16/16/16
f 16/16/16 4/4/4 46/46/46
f 16/16/16 46/46/46 15/15/15
f 15/15/15 46/46/46 47/47/47
f 15/15/15 47/47/47 13/13/13
f 13/13/13 47/47/47 48/48/48
f 13/13/13 48/48/48 14/14/14
f 14/14/14 48/48/48 25/25/25
f 14/14/14 25/25/25 12/12/12
f 12/12/12 25/25/25 26/26/26
f 12/12/12 26/26/26 5/5/5
f 5/5/5 26/26/26 27/27/27
f 5/5/5 27/27/27 6/6/6
f 6/6/6 27/27/27 7/7/7
f 6/6/6 7/7/7 37/37/37
f 49/49/49 3/3/3 34/34/34
f 34/34/34 3/3/3 2/2/2
f 34/34/34 2/2/2 33/33/33
f 33/33/33 2/2/2 31/31/31
f 33/33/33 31/31/31 32/32/32
f 32/32/32 31/31/31 42/42/42
f 32/32/32 42/42/42 50/50/50
f 50/50/50 42/42/42 41/41/41
f 50/50/50 41/41/41 51/51/51
f 51/51/51 41/41/41 28/28/28
f 51/51/51 28/28/28 52/52/52
f 52/52/52 28/28/28 30/30/30
f 52/52/52 30/30/30 53/53/53
f 52/52/52 25/25/25 51/51/51
f 51/51/51 25/25/25 48/48/48
f 51/51/51 48/48/48 50/50/50
f 50/50/50 48/48/48 47/47/47
f 50/50/50 47/47/47 32/32/32
f 32/32/32 47/47/47 46/46/46
f 32/32/32 46/46/46 20/20/20
f 20/20/20 46/46/46 4/4/4
f 20/20/20 4/4/4 19/19/19
f 19/19/19 4/4/4 21/21/21
f 19/19/19 21/21/21 49/49/49
f 49/49/49 21/21/21 24/24/24
f 49/49/49 24/24/24 3/3/3
f 3/3/3 24/24/24 23/23/23
f 3/3/3 23/23/23 1/1/1
f 1/1/1 23/23/23 22/22/22
f 1/1/1 22/22/22 45/45/45
f 45/45/45 22/22/22 36/36/36
usemtl texture00
v 7.825836 6.798338 0.812956
vt 0.953125 0.328125
vn -0.803150 0.417323 -0.425197
v 7.164594 4.379869 -0.334629
vt 0.968750 0.476562
vn -0.755906 0.118110 -0.645669
v 6.756627 5.774569 2.331193
vt 0.882812 0.414062
vn -0.858268 0.393701 -0.338583
v 7.391912 9.099346 0.065645
vt 0.049469 0.231750
vn 0.992126 -0.007874 0.165354
v 6.756627 5.774569 2.331193
vt 0.040161 0.389496
vn 0.984252 -0.039370 0.173228
v 7.164594 4.379869 -0.334629
vt 0.007812 0.343750
vn 0.984252 -0.062992 0.181102
v -5.465343 2.362417 8.356512
vt 0.169617 0.622742
vn -0.818898 -0.188976 0.551181
v -5.944625 0.867978 6.096567
vt 0.089264 0.677429
vn -0.929134 -0.291339 0.236220
v -5.075729 0.617806 8.185995
vt 0.196411 0.718750
vn -0.755906 -0.283465 0.590551
v -6.466907 8.774575 5.897231
vt 0.100128 0.232239
vn -0.976378 0.047244 0.228346
v -5.223342 7.006471 9.759871
vt 0.190338 0.278381
vn -0.811024 -0.078740 0.582677
v -5.272896 9.883246 9.054189
vt 0.239563 0.160156
vn -0.771654 0.236220 0.598425
v 5.700789 4.174208 8.309279
vt 0.147308 0.525665
vn 0.834646 -0.062992 0.551181
v 3.641290 3.129008 10.364284
vt 0.308014 0.532349
vn 0.503937 0.015748 0.866142
v 5.465343 2.362417 8.356512
vt 0.169617 0.622742
vn 0.818898 -0.188976 0.551181
v 0.677498 3.645838 12.016213
vt 0.466125 0.493042
vn 0.692913 0.173228 0.700787
v 0.820916 5.042599 11.491855
vt 0.453125 0.414062
vn 0.637795 -0.118110 0.763780
v 0.000000 5.435785 11.948567
vt 0.492188 0.382812
vn 0.000000 -0.047244 1.000000
v 4.681396 4.189046 9.484483
vt 0.210938 0.486969
vn 0.598425 -0.102362 0.795276
v 4.626336 6.046585 9.854736
vt 0.217438 0.372375
vn 0.598425 -0.283465 0.755906
v 3.134739 5.279170 10.714523
vt 0.306641 0.415039
vn 0.267717 -0.244094 0.937008
v 7.825836 6.798338 0.812956
vt 0.953125 0.328125
vn 0.874016 -0.094488 0.480315
v 6.756627 5.774569 2.331193
vt 0.882812 0.414062
vn 0.984252 -0.039370 0.173228
v 6.287045 0.848607 2.331594
vt 0.855469 0.645813
vn 0.984252 -0.204724 0.055118
v 8.591167 6.158688 -0.860588
vt 0.992188 0.343750
vn -0.629921 0.291339 -0.724409
v 0.000000 3.749286 12.453312
vt 0.492188 0.468750
vn 0.000000 0.283465 0.960630
v 0.851068 1.517519 12.473726
vt 0.460938 0.632812
vn 0.692913 -0.346457 0.637795
v 1.666477 1.484548 10.564021
vt 0.394165 0.629944
vn 0.527559 -0.078740 0.850394
v 6.466907 8.774575 5.897231
vt 0.100128 0.232239
vn 0.976378 0.047244 0.228346
v 6.193706 11.646404 5.615838
vt 0.135590 0.079224
vn 0.921260 0.228346 0.307087
v 5.272896 9.883246 9.054189
vt 0.239563 0.160156
vn 0.771654 0.236220 0.598425
v 8.437000 3.764948 -1.082340
vt 0.992188 0.515625
vn -0.527559 -0.062992 -0.850394
v 7.187404 0.859323 0.735303
vt 0.903625 0.643219
vn -0.732283 -0.196850 -0.645669
v 6.287045 0.848607 2.331594
vt 0.855469 0.645813
vn -0.866142 -0.149606 -0.488189
v 8.591167 6.158688 -0.860588
vt 0.992188 0.343750
vn 0.889764 -0.094488 0.440945
v 8.437000 3.764948 -1.082340
vt 0.992188 0.515625
vn 0.881890 -0.086614 0.464567
v 7.187404 0.859323 0.735303
vt 0.903625 0.643219
vn 0.874016 -0.062992 0.488189
v 6.193706 11.646404 5.615838
vt 0.135986 0.078979
vn 0.921260 0.228346 0.307087
v 3.717849 13.219975 8.400942
vt 0.301331 0.050201
vn 0.543307 0.519685 0.661417
v -3.641290 3.129008 10.364284
vt 0.308014 0.532349
vn -0.503937 0.015748 0.866142
v -3.117172 1.020060 10.100904
vt 0.318573 0.664886
vn -0.566929 -0.165354 0.803150
v -1.666477 1.484548 10.564021
vt 0.394165 0.629944
vn -0.527559 -0.078740 0.850394
v 0.000000 10.361747 11.643158
vt 0.492188 0.125000
vn 0.000000 0.409449 0.913386
v -2.718382 10.421096 10.927469
vt 0.351562 0.148438
vn -0.362205 0.354331 0.866142
v 0.000000 6.363525 12.272788
vt 0.492188 0.335938
vn 0.000000 -0.125984 0.992126
v -2.558971 6.389078 11.596726
vt 0.360352 0.322266
vn -0.472441 -0.338583 0.818898
v -8.591167 6.158688 -0.860588
vt 0.992188 0.343750
vn 0.629921 0.291339 -0.724409
v -7.825836 6.798338 0.812956
vt 0.953125 0.328125
vn 0.803150 0.417323 -0.425197
v -7.164594 4.379869 -0.334629
vt 0.968750 0.476562
vn 0.755906 0.118110 -0.645669
v -6.756627 5.774569 2.331193
vt 0.882812 0.414062
vn 0.858268 0.393701 -0.338583
v -0.851068 1.557497 12.473726
vt 0.460938 0.632812
vn -0.692913 -0.338583 0.637795
v 0.000000 1.172141 12.675464
vt 0.492188 0.648438
vn -0.015748 -0.834646 0.551181
v 0.000000 1.716585 13.115765
vt 0.492188 0.617188
vn 0.000000 -0.220472 0.976378
v -8.437000 3.764948 -1.082340
vt 0.992188 0.515625
vn -0.881890 -0.086614 0.464567
v -7.187404 0.859323 0.735303
vt 0.903625 0.643219
vn -0.874016 -0.062992 0.488189
v -6.287045 0.848607 2.331594
vt 0.855469 0.645813
vn -0.984252 -0.204724 0.055118
v -2.178009 4.271062 10.144134
vt 0.348938 0.483063
vn -0.299213 0.007874 0.960630
v -1.842406 3.412152 10.973100
vt 0.407104 0.519073
vn -0.543307 0.204724 0.811024
v -1.486353 4.664661 10.535201
vt 0.402344 0.445862
vn -0.661417 -0.078740 0.748031
v -0.677498 3.645838 12.016213
vt 0.466125 0.493042
vn -0.700787 0.173228 0.700787
v -0.820916 5.042599 11.491855
vt 0.453125 0.414062
vn -0.637795 -0.118110 0.763780
v -6.287045 0.848607 2.331594
vt 0.855469 0.645813
vn 0.866142 -0.149606 -0.488189
v -7.187404 0.859323 0.735303
vt 0.903625 0.643219
vn 0.732283 -0.196850 -0.645669
v -8.437000 3.764948 -1.082340
vt 0.992188 0.515625
vn 0.527559 -0.062992 -0.850394
v -8.591167 6.158688 -0.860588
vt 0.992188 0.343750
vn -0.889764 -0.094488 0.440945
v -7.825836 6.798338 0.812956
vt 0.953125 0.328125
vn -0.874016 -0.094488 0.480315
v -6.756627 5.774569 2.331193
vt 0.882812 0.414062
vn -0.984252 -0.039370 0.173228
v 5.223342 7.006471 9.759871
vt 0.190338 0.278381
vn 0.811024 -0.086614 0.582677
v 5.601157 5.412293 8.397340
vt 0.170135 0.404510
vn 0.818898 -0.110236 0.559055
v 6.409488 5.549125 6.830669
vt 0.097656 0.407227
vn 0.952756 -0.007874 0.299213
v 6.565753 3.364755 6.163012
vt 0.069183 0.536804
vn 0.968504 -0.110236 0.220472
v 5.944625 0.867978 6.096567
vt 0.089264 0.677429
vn 0.929134 -0.291339 0.236220
v 2.178009 4.271062 10.144134
vt 0.348938 0.483063
vn 0.299213 0.007874 0.960630
v 2.299927 5.992182 10.881838
vt 0.346344 0.373688
vn 0.322835 -0.535433 0.779528
v 2.558971 6.369295 11.596726
vt 0.360352 0.322266
vn 0.472441 -0.338583 0.818898
v 6.287045 0.848607 2.331594
vt 0.046875 0.664062
vn 0.984252 -0.204724 0.055118
v -6.565753 3.364755 6.163012
vt 0.069183 0.536804
vn -0.968504 -0.110236 0.220472
v -5.700789 4.174208 8.309279
vt 0.147308 0.525665
vn -0.834646 -0.062992 0.551181
v -6.409488 5.549125 6.830669
vt 0.097656 0.407227
vn -0.952756 -0.007874 0.299213
v -5.601157 5.412293 8.397340
vt 0.170135 0.404510
vn -0.818898 -0.110236 0.559055
v -6.756627 5.774569 2.331193
vt 0.040161 0.389496
vn -0.984252 -0.039370 0.173228
v -6.287045 0.848607 2.331594
vt 0.046875 0.664062
vn -0.984252 -0.204724 0.055118
v -3.134739 5.279170 10.714523
vt 0.306641 0.415039
vn -0.267717 -0.244094 0.937008
v -2.299927 5.992182 10.881838
vt 0.346344 0.373688
vn -0.322835 -0.535433 0.779528
v -1.203188 5.706977 11.600729
vt 0.429688 0.375000
vn -0.440945 -0.511811 0.740157
v 2.718382 10.421096 10.927469
vt 0.351562 0.148438
vn 0.362205 0.354331 0.866142
v 0.000000 13.504767 9.104223
vt 0.492188 0.039062
vn 0.000000 0.629921 0.779528
v -4.626336 6.046585 9.854736
vt 0.217438 0.372375
vn -0.598425 -0.283465 0.755906
v -4.681396 4.189046 9.484483
vt 0.210938 0.486969
vn -0.598425 -0.102362 0.795276
v -7.164594 4.379869 -0.334629
vt 0.007812 0.343750
vn -0.984252 -0.062992 0.181102
v -7.391912 9.099346 0.065645
vt 0.049469 0.231750
vn -0.992126 -0.007874 0.165354
v -6.193706 11.646404 5.615838
vt 0.135590 0.079224
vn -0.921260 0.228346 0.307087
v -3.718111 13.219975 8.400942
vt 0.301331 0.050201
vn -0.543307 0.519685 0.661417
v 1.203188 5.706977 11.600329
vt 0.429688 0.375000
vn 0.433071 -0.511811 0.740157
v 1.486353 4.664661 10.535201
vt 0.402344 0.445862
vn 0.661417 -0.078740 0.748031
v 1.842406 3.412152 10.973100
vt 0.407104 0.519073
vn 0.543307 0.204724 0.811024
v 3.117172 1.020060 10.100904
vt 0.318573 0.664886
vn 0.566929 -0.157480 0.811024
v 5.075729 0.617806 8.185995
vt 0.196411 0.718750
vn 0.755906 -0.283465 0.590551
f 54/54/54 55/55/55 56/56/56
f 57/57/57 58/58/58 59/59/59
f 60/60/60 61/61/61 62/62/62
f 63/63/63 64/64/64 65/65/65
f 66/66/66 67/67/67 68/68/68
f 69/69/69 70/70/70 71/71/71
f 72/72/72 73/73/73 74/74/74
f 75/75/75 76/76/76 77/77/77
f 55/55/55 54/54/54 78/78/78
f 71/71/71 79/79/79 69/69/69
f 69/69/69 79/79/79 80/80/80
f 69/69/69 80/80/80 81/81/81
f 58/58/58 57/57/57 82/82/82
f 82/82/82 57/57/57 83/83/83
f 82/82/82 83/83/83 84/84/84
f 78/78/78 85/85/85 55/55/55
f 55/55/55 85/85/85 86/86/86
f 55/55/55 86/86/86 87/87/87
f 88/88/88 75/75/75 89/89/89
f 89/89/89 75/75/75 77/77/77
f 89/89/89 77/77/77 90/90/90
f 91/91/91 92/92/92 84/84/84
f 93/93/93 94/94/94 95/95/95
f 96/96/96 97/97/97 98/98/98
f 98/98/98 97/97/97 99/99/99
f 100/100/100 101/101/101 102/102/102
f 102/102/102 101/101/101 103/103/103
f 104/104/104 105/105/105 106/106/106
f 107/107/107 108/108/108 109/109/109
f 110/110/110 111/111/111 112/112/112
f 112/112/112 111/111/111 113/113/113
f 112/112/112 113/113/113 114/114/114
f 115/115/115 116/116/116 102/102/102
f 102/102/102 116/116/116 117/117/117
f 102/102/102 117/117/117 100/100/100
f 118/118/118 107/107/107 119/119/119
f 119/119/119 107/107/107 109/109/109
f 119/119/119 109/109/109 120/120/120
f 121/121/121 122/122/122 123/123/123
f 123/123/123 122/122/122 66/66/66
f 123/123/123 66/66/66 124/124/124
f 124/124/124 66/66/66 68/68/68
f 124/124/124 68/68/68 125/125/125
f 67/67/67 72/72/72 126/126/126
f 126/126/126 72/72/72 74/74/74
f 126/126/126 74/74/74 127/127/127
f 127/127/127 74/74/74 73/73/73
f 127/127/127 73/73/73 128/128/128
f 125/125/125 129/129/129 124/124/124
f 124/124/124 129/129/129 58/58/58
f 124/124/124 58/58/58 123/123/123
f 123/123/123 58/58/58 82/82/82
f 123/123/123 82/82/82 121/121/121
f 121/121/121 82/82/82 84/84/84
f 61/61/61 60/60/60 130/130/130
f 130/130/130 60/60/60 131/131/131
f 130/130/130 131/131/131 132/132/132
f 132/132/132 131/131/131 133/133/133
f 132/132/132 133/133/133 64/64/64
f 64/64/64 63/63/63 132/132/132
f 132/132/132 63/63/63 134/134/134
f 132/132/132 134/134/134 130/130/130
f 130/130/130 134/134/134 135/135/135
f 130/130/130 135/135/135 61/61/61
f 136/136/136 110/110/110 137/137/137
f 137/137/137 110/110/110 112/112/112
f 137/137/137 112/112/112 138/138/138
f 138/138/138 112/112/112 114/114/114
f 138/138/138 114/114/114 71/71/71
f 71/71/71 114/114/114 113/113/113
f 71/71/71 113/113/113 79/79/79
f 67/67/67 66/66/66 72/72/72
f 72/72/72 66/66/66 122/122/122
f 72/72/72 122/122/122 73/73/73
f 73/73/73 122/122/122 121/121/121
f 73/73/73 121/121/121 128/128/128
f 128/128/128 121/121/121 84/84/84
f 128/128/128 84/84/84 139/139/139
f 139/139/139 84/84/84 92/92/92
f 139/139/139 92/92/92 140/140/140
f 97/97/97 65/65/65 99/99/99
f 99/99/99 65/65/65 64/64/64
f 99/99/99 64/64/64 141/141/141
f 141/141/141 64/64/64 133/133/133
f 141/141/141 133/133/133 142/142/142
f 142/142/142 133/133/133 131/131/131
f 142/142/142 131/131/131 93/93/93
f 93/93/93 131/131/131 60/60/60
f 93/93/93 60/60/60 94/94/94
f 94/94/94 60/60/60 62/62/62
f 143/143/143 134/134/134 144/144/144
f 144/144/144 134/134/134 63/63/63
f 144/144/144 63/63/63 145/145/145
f 145/145/145 63/63/63 65/65/65
f 145/145/145 65/65/65 146/146/146
f 146/146/146 65/65/65 97/97/97
f 146/146/146 97/97/97 140/140/140
f 140/140/140 97/97/97 96/96/96
f 140/140/140 96/96/96 139/139/139
f 139/139/139 96/96/96 98/98/98
f 139/139/139 98/98/98 128/128/128
f 128/128/128 98/98/98 147/147/147
f 128/128/128 147/147/147 127/127/127
f 127/127/127 147/147/147 148/148/148
f 127/127/127 148/148/148 126/126/126
f 126/126/126 148/148/148 149/149/149
f 126/126/126 149/149/149 67/67/67
f 105/105/105 80/80/80 106/106/106
f 106/106/106 80/80/80 79/79/79
f 106/106/106 79/79/79 104/104/104
f 104/104/104 79/79/79 113/113/113
f 104/104/104 113/113/113 95/95/95
f 95/95/95 113/113/113 111/111/111
f 95/95/95 111/111/111 93/93/93
f 93/93/93 111/111/111 110/110/110
f 93/93/93 110/110/110 142/142/142
f 142/142/142 110/110/110 136/136/136
f 142/142/142 136/136/136 141/141/141
f 141/141/141 136/136/136 137/137/137
f 141/141/141 137/137/137 99/99/99
f 99/99/99 137/137/137 138/138/138
f 99/99/99 138/138/138 98/98/98
f 98/98/98 138/138/138 71/71/71
f 98/98/98 71/71/71 147/147/147
f 147/147/147 71/71/71 70/70/70
f 147/147/147 70/70/70 148/148/148
f 148/148/148 70/70/70 69/69/69
f 148/148/148 69/69/69 149/149/149
f 149/149/149 69/69/69 81/81/81
f 149/149/149 81/81/81 67/67/67
f 67/67/67 81/81/81 150/150/150
f 67/67/67 150/150/150 68/68/68
f 68/68/68 150/150/150 151/151/151
f 68/68/68 151/151/151 125/125/125
