mtllib 2385-0.mtl
g mesh00
usemtl texture00
v 4.831414 39.209457 -10.007169
vt 0.228394 0.178802
vn 0.472441 -0.314961 -0.826772
v 5.606195 34.383650 -7.246678
vt 0.122864 0.069244
vn 0.755906 -0.157480 -0.629921
v 0.000000 33.803909 -9.738110
vt 0.272797 0.069244
vn 0.000000 -0.181102 -0.984252
v 6.848768 33.977473 -2.646683
vt 0.008118 0.012177
vn 0.937008 -0.204724 -0.299213
v 6.736083 38.969687 -7.825002
vt 0.145355 0.178802
vn 0.858268 -0.291339 -0.433071
v 8.223516 40.145273 -5.310065
vt 0.008118 0.178802
vn 0.874016 -0.346457 -0.354331
v -6.736083 38.969687 -7.825002
vt 0.145355 0.178802
vn -0.858268 -0.291339 -0.433071
v -6.848768 33.977473 -2.646683
vt 0.008118 0.012177
vn -0.937008 -0.204724 -0.299213
v -8.223516 40.145273 -5.310065
vt 0.008118 0.178802
vn -0.874016 -0.346457 -0.354331
v 5.606195 34.383650 -7.246678
vt 0.122864 0.069244
vn 0.755906 -0.157480 -0.629921
v 4.831414 39.209457 -10.007169
vt 0.228394 0.178802
vn 0.472441 -0.314961 -0.826772
v 6.736083 38.969687 -7.825002
vt 0.145355 0.178802
vn 0.858268 -0.291339 -0.433071
v 2.198866 39.073468 1.611885
vt 0.122833 0.544464
vn 0.574803 -0.496063 0.653543
v 1.653109 38.584983 1.722601
vt 0.017792 0.570435
vn 0.574803 -0.496063 0.653543
v 2.510118 38.150177 0.640795
vt 0.166687 0.657196
vn 0.574803 -0.496063 0.653543
v 6.736083 38.969687 -7.825002
vt 0.145355 0.178802
vn 0.858268 -0.291339 -0.433071
v 6.848768 33.977473 -2.646683
vt 0.008118 0.012177
vn 0.937008 -0.204724 -0.299213
v 5.606195 34.383650 -7.246678
vt 0.122864 0.069244
vn 0.755906 -0.157480 -0.629921
v 5.596449 31.993113 -7.292449
vt 0.121613 0.012177
vn 0.779528 0.102362 -0.629921
v 0.000000 31.211178 -10.747548
vt 0.272858 0.012177
vn 0.000000 0.204724 -0.984252
v -5.606195 34.383650 -7.246678
vt 0.122864 0.069244
vn -0.755906 -0.157480 -0.629921
v -5.596449 31.993113 -7.292449
vt 0.121613 0.012177
vn -0.779528 0.102362 -0.629921
v -6.848768 33.977473 -2.646683
vt 0.008118 0.012177
vn -0.937008 -0.204724 -0.299213
v -6.848768 33.977473 -2.646683
vt 0.008118 0.012177
vn -0.937008 -0.204724 -0.299213
v -6.736083 38.969687 -7.825002
vt 0.145355 0.178802
vn -0.858268 -0.291339 -0.433071
v -5.606195 34.383650 -7.246678
vt 0.122864 0.069244
vn -0.755906 -0.157480 -0.629921
v -4.831414 39.209457 -10.007169
vt 0.228394 0.178802
vn -0.472441 -0.314961 -0.826772
v 0.000000 33.803909 -9.738110
vt 0.272797 0.069244
vn 0.000000 -0.181102 -0.984252
v 0.000000 39.272083 -11.322161
vt 0.273468 0.178802
vn 0.000000 -0.275591 -0.960630
v 4.831414 39.209457 -10.007169
vt 0.228394 0.178802
vn 0.472441 -0.314961 -0.826772
f 1/1/1 2/2/2 3/3/3
f 4/4/4 5/5/5 6/6/6
f 7/7/7 8/8/8 9/9/9
f 10/10/10 11/11/11 12/12/12
f 13/13/13 14/14/14 15/15/15
f 16/16/16 17/17/17 18/18/18
f 18/18/18 17/17/17 19/19/19
f 18/18/18 19/19/19 3/3/3
f 3/3/3 19/19/19 20/20/20
f 3/3/3 20/20/20 21/21/21
f 21/21/21 20/20/20 22/22/22
f 21/21/21 22/22/22 23/23/23
f 24/24/24 25/25/25 26/26/26
f 26/26/26 25/25/25 27/27/27
f 26/26/26 27/27/27 28/28/28
f 28/28/28 27/27/27 29/29/29
f 28/28/28 29/29/29 30/30/30
usemtl texture00
v 0.000000 47.844734 10.918262
vt 0.749512 0.092590
vn 0.000000 0.716535 0.700787
v 2.886545 49.354924 8.222097
vt 0.824005 0.010437
vn 0.228346 0.724409 0.653543
v 0.000000 49.639426 8.840625
vt 0.749512 0.010437
vn 0.000000 0.755906 0.653543
v -2.640467 46.320230 11.478030
vt 0.674988 0.135590
vn -0.141732 0.708661 0.700787
v 0.000000 45.319998 13.031773
vt 0.749512 0.192505
vn 0.000000 0.677165 0.740157
v -2.804316 47.440347 10.310867
vt 0.674988 0.092590
vn -0.212598 0.685039 0.700787
v -2.886545 49.354924 8.222097
vt 0.674988 0.010437
vn -0.228346 0.724409 0.653543
v 2.804316 47.440347 10.310867
vt 0.824005 0.092590
vn 0.212598 0.685039 0.700787
v 2.640467 46.320230 11.478030
vt 0.824005 0.135590
vn 0.141732 0.708661 0.700787
f 31/31/31 32/32/32 33/33/33
f 34/34/34 35/35/35 36/36/36
f 36/36/36 35/35/35 31/31/31
f 36/36/36 31/31/31 37/37/37
f 37/37/37 31/31/31 33/33/33
f 32/32/32 31/31/31 38/38/38
f 38/38/38 31/31/31 35/35/35
f 38/38/38 35/35/35 39/39/39
usemtl texture00
v 0.000000 47.338356 10.595390
vt 0.025421 0.388885
vn 0.000000 0.748031 0.669291
v 0.000000 49.451547 8.056331
vt 0.113159 0.291840
vn 0.000000 0.858268 0.519685
v -3.552905 49.295876 7.628310
vt 0.199158 0.361450
vn -0.354331 0.771654 0.527559
v 0.000000 40.272315 20.267317
vt 0.017792 0.629486
vn 0.000000 -0.314961 0.952756
v -3.372001 38.692342 11.246700
vt 0.152344 0.664825
vn -0.614173 -0.606299 0.503937
v -2.149529 37.625905 12.069343
vt 0.142395 0.692688
vn -0.732283 -0.401575 0.551181
v -8.997078 32.238250 0.650073
vt 0.371399 0.854858
vn -0.842520 -0.141732 0.527559
v -8.162605 34.823824 2.867497
vt 0.325714 0.776550
vn -0.818898 -0.267717 0.503937
v -12.320351 33.333317 -3.170576
vt 0.551208 0.835938
vn -0.921260 0.385827 0.102362
v 0.000000 51.455590 -10.025725
vt 0.736664 0.253571
vn 0.000000 0.921260 -0.385827
v 0.000000 48.560464 -14.020800
vt 0.910492 0.338226
vn 0.000000 0.811024 -0.582677
v -2.270131 48.848545 -13.441238
vt 0.875122 0.348206
vn -0.346457 0.614173 -0.716535
v 11.611962 49.748575 0.482452
vt 0.462921 0.457581
vn 0.811024 0.377953 0.448819
v 9.712775 42.152895 -1.652708
vt 0.501801 0.582184
vn 0.984252 -0.212598 0.015748
v 14.167764 52.301940 -4.844314
vt 0.622375 0.411682
vn 0.905512 -0.417323 0.070866
v 6.638017 48.247332 4.027856
vt 0.323242 0.440369
vn 0.440945 0.803150 0.393701
v 7.327523 48.934433 -0.022886
vt 0.427887 0.393524
vn 0.204724 0.952756 0.236220
v 3.946386 51.332127 0.743471
vt 0.398743 0.301941
vn 0.417323 0.889764 0.196850
v 5.796235 33.188381 7.272037
vt 0.239563 0.829010
vn 0.771654 -0.086614 0.629921
v 7.708823 28.094176 6.004054
vt 0.261505 0.933807
vn 0.763780 0.094488 0.637795
v 8.997078 32.238250 0.650073
vt 0.371399 0.854858
vn 0.842520 -0.141732 0.527559
v -7.708823 28.094176 6.004054
vt 0.261505 0.933807
vn -0.763780 0.094488 0.637795
v -5.796235 33.188381 7.272037
vt 0.239563 0.829010
vn -0.771654 -0.086614 0.629921
v 9.417360 38.715603 2.284844
vt 0.403046 0.680206
vn 0.968504 0.196850 0.165354
v 7.264177 42.460658 6.702373
vt 0.273285 0.585175
vn 0.874016 -0.047244 0.488189
v 7.744151 39.497538 6.394346
vt 0.275238 0.645050
vn 0.874016 0.204724 0.448819
v -8.398938 35.906365 -6.973907
vt 0.674408 0.741974
vn -0.818898 0.314961 -0.488189
v -7.487718 29.858449 -12.713849
vt 0.854431 0.914154
vn -0.417323 0.559055 -0.724409
v -13.240707 30.821106 -8.496723
vt 0.699890 0.882751
vn -0.606299 0.637795 -0.472441
v 3.552905 49.295876 7.628310
vt 0.199158 0.361450
vn 0.354331 0.771654 0.527559
v -4.301494 39.177249 11.625239
vt 0.161804 0.654907
vn -0.779528 -0.267717 0.566929
v -16.434240 54.685320 -13.420209
vt 0.770416 0.386566
vn -0.220472 -0.031496 -0.976378
v -14.167764 52.301940 -4.844314
vt 0.622375 0.411682
vn 0.362205 0.921260 0.157480
v -6.396812 49.553539 -10.635594
vt 0.744720 0.343811
vn -0.141732 0.716535 -0.685039
v -9.564154 36.693667 -2.679465
vt 0.526794 0.725861
vn -0.929134 0.354331 -0.125984
v -10.200059 36.582729 2.284225
vt 0.402283 0.741516
vn -0.960630 0.078740 0.283465
v -7.744151 39.497538 6.394346
vt 0.275238 0.645050
vn -0.874016 0.204724 0.448819
v -7.264177 42.460658 6.702373
vt 0.273285 0.585175
vn -0.874016 -0.047244 0.488189
v -9.145090 42.696849 2.966462
vt 0.377655 0.579834
vn -0.937008 -0.125984 0.322835
v -7.805061 45.795958 6.684435
vt 0.273010 0.541626
vn -0.858268 0.055118 0.519685
v -3.946386 51.332127 0.743471
vt 0.398743 0.301941
vn -0.417323 0.889764 0.196850
v 0.000000 52.280468 1.096651
vt 0.383209 0.205994
vn 0.000000 0.992126 0.173228
v -3.278199 52.416457 -5.484490
vt 0.584747 0.278473
vn -0.267717 0.960630 -0.078740
v -5.054347 43.498466 12.245623
vt 0.166687 0.578308
vn -0.803150 0.212598 0.559055
v -2.005780 43.446576 14.491500
vt 0.085266 0.522614
vn -0.346457 0.732283 0.590551
v -3.953695 41.916704 11.792242
vt 0.168640 0.598297
vn -0.874016 -0.283465 0.401575
v -3.920195 40.020020 11.663588
vt 0.168518 0.638123
vn -0.858268 0.181102 0.480315
v -6.638017 48.247332 4.027856
vt 0.323242 0.440369
vn -0.440945 0.803150 0.393701
v -3.887912 50.328316 4.199807
vt 0.295197 0.321625
vn -0.409449 0.866142 0.299213
v -7.327523 48.934433 -0.022886
vt 0.427887 0.393524
vn -0.204724 0.952756 0.236220
v 8.466548 38.087551 6.360327
vt 0.271393 0.679932
vn 0.818898 -0.157480 0.559055
v 6.736083 36.604201 6.588563
vt 0.244415 0.706055
vn 0.716535 -0.409449 0.566929
v 8.162605 34.823824 2.867497
vt 0.325714 0.776550
vn 0.818898 -0.267717 0.503937
v 10.200059 36.582729 2.284225
vt 0.402283 0.741516
vn 0.960630 0.078740 0.283465
v 3.089376 50.747018 -10.608997
vt 0.734711 0.298370
vn 0.228346 0.874016 -0.440945
v 2.270131 48.848545 -13.441238
vt 0.875122 0.348206
vn 0.346457 0.614173 -0.716535
v 0.000000 46.420432 -16.976128
vt 0.975464 0.394745
vn 0.000000 0.480315 -0.881890
v -6.269509 47.059221 -10.745074
vt 0.891785 0.383026
vn -0.527559 -0.031496 -0.850394
v 1.622044 37.058689 12.337784
vt 0.122833 0.729279
vn 0.748031 -0.385827 0.543307
v 2.149529 37.625905 12.069343
vt 0.142395 0.692688
vn 0.732283 -0.401575 0.551181
v 3.372001 38.692342 11.246700
vt 0.152344 0.664825
vn 0.614173 -0.606299 0.503937
v 4.301494 39.177249 11.625239
vt 0.161804 0.654907
vn 0.779528 -0.267717 0.566929
v 7.747196 49.843409 -6.304659
vt 0.609589 0.352631
vn 0.055118 1.000000 0.047244
v 6.396812 49.553539 -10.635594
vt 0.744720 0.343811
vn 0.141732 0.716535 -0.685039
v 3.278199 52.416457 -5.484490
vt 0.584747 0.278473
vn 0.267717 0.960630 -0.078740
v 12.320351 33.333317 -3.170576
vt 0.551208 0.835938
vn 0.921260 0.385827 0.102362
v 13.240707 30.821106 -8.496723
vt 0.699890 0.882751
vn 0.606299 0.637795 -0.472441
v 8.398938 35.906365 -6.973907
vt 0.674408 0.741974
vn 0.818898 0.314961 -0.488189
v 4.562800 35.439351 -10.897850
vt 0.829376 0.756439
vn 0.519685 0.236220 -0.826772
v 9.145090 42.696849 2.966462
vt 0.377655 0.579834
vn 0.937008 -0.125984 0.322835
v 2.909082 47.121847 9.906968
vt 0.108124 0.443298
vn 0.354331 0.692913 0.629921
v 5.153631 46.613679 8.768257
vt 0.187378 0.485748
vn 0.503937 0.653543 0.566929
v 11.611962 49.748575 0.482452
vt 0.462921 0.457581
vn 0.811024 0.377953 0.448819
v 14.167764 52.301940 -4.844314
vt 0.622375 0.411682
vn -0.362205 0.921260 0.157480
v 16.434240 54.685320 -13.420209
vt 0.770416 0.386566
vn 0.220472 -0.031496 -0.976378
v 6.269509 47.059221 -10.745074
vt 0.891785 0.383026
vn 0.527559 -0.031496 -0.850394
v 9.564154 36.693667 -2.679465
vt 0.526794 0.725861
vn 0.929134 0.354331 -0.125984
v 5.054347 43.498466 12.245623
vt 0.166687 0.578308
vn 0.803150 0.212598 0.559055
v 2.005780 43.446576 14.491500
vt 0.085266 0.522614
vn 0.346457 0.732283 0.590551
v 0.000000 43.625508 15.021578
vt 0.017792 0.508362
vn 0.000000 0.795276 0.614173
v 3.920195 40.020020 11.663588
vt 0.168518 0.638123
vn 0.858268 0.181102 0.480315
v 3.953695 41.916704 11.792242
vt 0.168640 0.598297
vn 0.874016 -0.283465 0.401575
v 9.793786 47.848313 3.841679
vt 0.357025 0.495728
vn 0.692913 0.448819 0.566929
v 7.805061 45.795958 6.684435
vt 0.273010 0.541626
vn 0.858268 0.055118 0.519685
v -19.959126 56.292133 -15.205900
vt 0.894379 0.019592
vn -0.330709 -0.929134 -0.181102
v -16.434240 54.685320 -13.420209
vt 0.874115 0.031342
vn -0.314961 -0.937008 -0.181102
v -17.244349 53.388060 -5.346559
vt 0.935577 0.103973
vn -0.299213 -0.929134 -0.228346
v -14.167764 52.301940 -4.844314
vt 0.915314 0.115692
vn -0.275591 -0.929134 -0.251969
v -13.963714 50.503670 0.130509
vt 0.971161 0.176941
vn -0.259843 -0.913386 -0.314961
v -11.611962 49.748575 0.482452
vt 0.950897 0.188690
vn -0.259843 -0.913386 -0.314961
v -18.252416 58.630779 -14.047396
vt 0.894379 0.019592
vn 0.874016 0.496063 -0.039370
v -15.996294 54.737210 -4.752771
vt 0.935577 0.103973
vn 0.834646 0.543307 -0.070866
v -16.434240 54.685320 -13.420209
vt 0.874115 0.031342
vn 0.874016 0.496063 -0.039370
v -13.029957 51.833137 1.296435
vt 0.971161 0.176941
vn 0.803150 0.590551 -0.102362
v -11.611962 49.748575 0.482452
vt 0.950897 0.188690
vn 0.803150 0.590551 -0.102362
v -14.167764 52.301940 -4.844314
vt 0.915314 0.115692
vn 0.834646 0.543307 -0.070866
v 19.958517 56.292133 -15.205900
vt 0.894379 0.019592
vn 0.330709 -0.929134 -0.181102
v 17.244349 53.388060 -5.346559
vt 0.935577 0.103973
vn 0.299213 -0.929134 -0.228346
v 16.434240 54.685320 -13.420209
vt 0.874115 0.031342
vn 0.314961 -0.937008 -0.181102
v 13.963714 50.503670 0.130509
vt 0.971161 0.176941
vn 0.259843 -0.913386 -0.314961
v 11.611962 49.748575 0.482452
vt 0.950897 0.188690
vn 0.259843 -0.913386 -0.314961
v 14.167764 52.301940 -4.844314
vt 0.915314 0.115692
vn 0.275591 -0.929134 -0.251969
v 16.434240 54.685320 -13.420209
vt 0.874115 0.031342
vn -0.874016 0.496063 -0.039370
v 14.167764 52.301940 -4.844314
vt 0.915314 0.115692
vn -0.834646 0.543307 -0.070866
v 18.252416 58.630779 -14.047396
vt 0.894379 0.019592
vn -0.874016 0.496063 -0.039370
v 11.611962 49.748575 0.482452
vt 0.950897 0.188690
vn -0.803150 0.590551 -0.102362
v 13.029957 51.833137 1.296435
vt 0.971161 0.176941
vn -0.803150 0.590551 -0.102362
v 15.996294 54.737210 -4.752771
vt 0.935577 0.103973
vn -0.834646 0.543307 -0.070866
v -9.793786 47.848313 3.841679
vt 0.357025 0.495728
vn -0.692913 0.448819 0.566929
v -11.611962 49.748575 0.482452
vt 0.462921 0.457581
vn -0.811024 0.377953 0.448819
v -7.327523 48.934433 -0.022886
vt 0.427887 0.393524
vn -0.204724 0.952756 0.236220
v -7.747196 49.843409 -6.304659
vt 0.609589 0.352631
vn -0.055118 1.000000 0.047244
v 0.000000 51.242661 4.551750
vt 0.244873 0.214020
vn 0.000000 0.944882 0.330709
v 3.887912 50.328316 4.199807
vt 0.295197 0.321625
vn 0.409449 0.866142 0.299213
v 4.454988 28.593397 8.520227
vt 0.176117 0.927734
vn 0.661417 0.086614 0.748031
v 3.587015 32.266880 8.581462
vt 0.166687 0.842041
vn 0.685039 -0.094488 0.724409
v 0.000000 31.332852 12.482520
vt 0.017792 0.851288
vn 0.000000 0.023622 1.000000
v 0.000000 35.049278 13.485154
vt 0.017792 0.755280
vn 0.000000 -0.456693 0.889764
v -3.587015 32.266880 8.581462
vt 0.166687 0.842041
vn -0.685039 -0.094488 0.724409
v -1.622044 37.058689 12.337784
vt 0.122833 0.729279
vn -0.748031 -0.385827 0.543307
v 7.487718 29.858449 -12.713849
vt 0.854431 0.914154
vn 0.417323 0.559055 -0.724409
v 0.000000 30.429244 -16.556766
vt 0.975464 0.899078
vn 0.000000 0.582677 -0.818898
v 0.000000 35.441140 -12.114495
vt 0.975464 0.770447
vn 0.000000 -0.007874 -1.000000
v -4.562800 35.437562 -10.897850
vt 0.829376 0.756439
vn -0.519685 0.236220 -0.826772
v -4.454988 28.593397 8.520227
vt 0.176117 0.927734
vn -0.661417 0.086614 0.748031
v 0.000000 26.609037 12.917345
vt 0.017029 0.958374
vn 0.000000 0.086614 1.000000
v 8.535986 41.659041 -6.697424
vt 0.658936 0.602509
vn 0.858268 -0.291339 -0.417323
v -2.909082 47.121847 9.906968
vt 0.108124 0.443298
vn -0.354331 0.692913 0.629921
v -5.153631 46.613679 8.768257
vt 0.187378 0.485748
vn -0.503937 0.653543 0.566929
v -8.466548 38.087551 6.360327
vt 0.271393 0.679932
vn -0.818898 -0.157480 0.559055
v -6.736083 36.604201 6.588563
vt 0.244415 0.706055
vn -0.716535 -0.409449 0.566929
v 5.721925 41.560628 -11.424836
vt 0.829651 0.605133
vn 0.653543 -0.133858 -0.748031
v 6.736083 36.604201 6.588563
vt 0.244415 0.706055
vn 0.716535 -0.409449 0.566929
v -5.721925 41.560628 -11.424836
vt 0.829651 0.605133
vn -0.653543 -0.133858 -0.748031
v 0.000000 41.370960 -15.949371
vt 0.975464 0.610291
vn 0.000000 -0.244094 -0.976378
v -3.089376 50.747018 -10.608997
vt 0.734711 0.298370
vn -0.228346 0.874016 -0.440945
v -6.396812 49.553539 -10.635594
vt 0.744720 0.343811
vn -0.141732 0.716535 -0.685039
v -9.417360 38.715603 2.284844
vt 0.403046 0.680206
vn -0.968504 0.196850 0.165354
v -9.712775 42.152895 -1.652708
vt 0.501801 0.582184
vn -0.984252 -0.212598 0.015748
v -8.535986 41.659041 -6.697424
vt 0.658936 0.602509
vn -0.858268 -0.291339 -0.417323
v 3.089376 50.747018 -10.608997
vt 0.734711 0.298370
vn 0.228346 0.874016 -0.440945
v 0.000000 52.824423 -4.955649
vt 0.566193 0.211456
vn 0.000000 1.000000 -0.086614
v -14.167764 52.301940 -4.844314
vt 0.622375 0.411682
vn -0.905512 -0.417323 0.070866
v 3.946386 51.332127 0.743471
vt 0.398743 0.301941
vn 0.417323 0.889764 0.196850
f 40/40/40 41/41/41 42/42/42
f 43/43/43 44/44/44 45/45/45
f 46/46/46 47/47/47 48/48/48
f 49/49/49 50/50/50 51/51/51
f 52/52/52 53/53/53 54/54/54
f 55/55/55 56/56/56 57/57/57
f 58/58/58 59/59/59 60/60/60
f 61/61/61 62/62/62 47/47/47
f 63/63/63 64/64/64 65/65/65
f 66/66/66 67/67/67 68/68/68
f 41/41/41 40/40/40 69/69/69
f 44/44/44 43/43/43 70/70/70
f 47/47/47 46/46/46 61/61/61
f 71/71/71 72/72/72 73/73/73
f 66/66/66 68/68/68 74/74/74
f 74/74/74 68/68/68 48/48/48
f 74/74/74 48/48/48 75/75/75
f 75/75/75 48/48/48 47/47/47
f 76/76/76 77/77/77 78/78/78
f 78/78/78 77/77/77 79/79/79
f 80/80/80 81/81/81 82/82/82
f 83/83/83 43/43/43 84/84/84
f 83/83/83 85/85/85 43/43/43
f 43/43/43 85/85/85 86/86/86
f 43/43/43 86/86/86 70/70/70
f 87/87/87 88/88/88 89/89/89
f 63/63/63 65/65/65 90/90/90
f 91/91/91 92/92/92 93/93/93
f 50/50/50 49/49/49 94/94/94
f 94/94/94 95/95/95 50/50/50
f 50/50/50 95/95/95 96/96/96
f 50/50/50 96/96/96 51/51/51
f 51/51/51 96/96/96 97/97/97
f 98/98/98 99/99/99 43/43/43
f 43/43/43 99/99/99 100/100/100
f 43/43/43 100/100/100 101/101/101
f 102/102/102 103/103/103 104/104/104
f 105/105/105 106/106/106 107/107/107
f 107/107/107 106/106/106 108/108/108
f 53/53/53 52/52/52 109/109/109
f 110/110/110 111/111/111 55/55/55
f 112/112/112 113/113/113 102/102/102
f 102/102/102 113/113/113 114/114/114
f 102/102/102 114/114/114 103/103/103
f 103/103/103 114/114/114 115/115/115
f 116/116/116 63/63/63 93/93/93
f 93/93/93 63/63/63 90/90/90
f 93/93/93 90/90/90 91/91/91
f 117/117/117 118/118/118 43/43/43
f 43/43/43 118/118/118 119/119/119
f 43/43/43 119/119/119 84/84/84
f 101/101/101 120/120/120 43/43/43
f 43/43/43 120/120/120 121/121/121
f 43/43/43 121/121/121 117/117/117
f 56/56/56 55/55/55 122/122/122
f 122/122/122 55/55/55 111/111/111
f 122/122/122 111/111/111 123/123/123
f 124/124/124 125/125/125 126/126/126
f 126/126/126 125/125/125 127/127/127
f 126/126/126 127/127/127 128/128/128
f 128/128/128 127/127/127 129/129/129
f 130/130/130 131/131/131 132/132/132
f 133/133/133 134/134/134 131/131/131
f 131/131/131 134/134/134 135/135/135
f 131/131/131 135/135/135 132/132/132
f 136/136/136 137/137/137 138/138/138
f 139/139/139 140/140/140 137/137/137
f 137/137/137 140/140/140 141/141/141
f 137/137/137 141/141/141 138/138/138
f 142/142/142 143/143/143 144/144/144
f 145/145/145 146/146/146 143/143/143
f 143/143/143 146/146/146 147/147/147
f 143/143/143 147/147/147 144/144/144
f 148/148/148 87/87/87 149/149/149
f 149/149/149 87/87/87 150/150/150
f 149/149/149 150/150/150 72/72/72
f 72/72/72 150/150/150 151/151/151
f 72/72/72 151/151/151 73/73/73
f 87/87/87 42/42/42 88/88/88
f 88/88/88 42/42/42 41/41/41
f 88/88/88 41/41/41 152/152/152
f 152/152/152 41/41/41 69/69/69
f 152/152/152 69/69/69 153/153/153
f 59/59/59 58/58/58 154/154/154
f 154/154/154 58/58/58 155/155/155
f 154/154/154 155/155/155 156/156/156
f 156/156/156 155/155/155 157/157/157
f 156/156/156 157/157/157 158/158/158
f 158/158/158 157/157/157 159/159/159
f 158/158/158 159/159/159 62/62/62
f 106/106/106 160/160/160 108/108/108
f 108/108/108 160/160/160 161/161/161
f 108/108/108 161/161/161 162/162/162
f 162/162/162 161/161/161 67/67/67
f 162/162/162 67/67/67 163/163/163
f 62/62/62 61/61/61 158/158/158
f 158/158/158 61/61/61 164/164/164
f 158/158/158 164/164/164 156/156/156
f 156/156/156 164/164/164 165/165/165
f 156/156/156 165/165/165 154/154/154
f 64/64/64 63/63/63 109/109/109
f 109/109/109 63/63/63 116/116/116
f 109/109/109 116/116/116 53/53/53
f 53/53/53 116/116/116 166/166/166
f 53/53/53 166/166/166 54/54/54
f 119/119/119 167/167/167 84/84/84
f 84/84/84 167/167/167 168/168/168
f 84/84/84 168/168/168 83/83/83
f 83/83/83 168/168/168 79/79/79
f 83/83/83 79/79/79 85/85/85
f 85/85/85 79/79/79 77/77/77
f 85/85/85 77/77/77 86/86/86
f 86/86/86 77/77/77 76/76/76
f 86/86/86 76/76/76 70/70/70
f 70/70/70 76/76/76 169/169/169
f 70/70/70 169/169/169 44/44/44
f 44/44/44 169/169/169 170/170/170
f 44/44/44 170/170/170 45/45/45
f 162/162/162 171/171/171 108/108/108
f 108/108/108 171/171/171 166/166/166
f 108/108/108 166/166/166 107/107/107
f 107/107/107 166/166/166 116/116/116
f 107/107/107 116/116/116 105/105/105
f 105/105/105 116/116/116 93/93/93
f 105/105/105 93/93/93 60/60/60
f 60/60/60 93/93/93 92/92/92
f 60/60/60 92/92/92 58/58/58
f 58/58/58 92/92/92 172/172/172
f 67/67/67 66/66/66 163/163/163
f 163/163/163 66/66/66 173/173/173
f 163/163/163 173/173/173 162/162/162
f 162/162/162 173/173/173 174/174/174
f 162/162/162 174/174/174 171/171/171
f 171/171/171 174/174/174 115/115/115
f 171/171/171 115/115/115 166/166/166
f 166/166/166 115/115/115 114/114/114
f 166/166/166 114/114/114 54/54/54
f 40/40/40 110/110/110 69/69/69
f 69/69/69 110/110/110 55/55/55
f 69/69/69 55/55/55 153/153/153
f 153/153/153 55/55/55 57/57/57
f 153/153/153 57/57/57 152/152/152
f 152/152/152 57/57/57 81/81/81
f 152/152/152 81/81/81 88/88/88
f 88/88/88 81/81/81 80/80/80
f 88/88/88 80/80/80 89/89/89
f 89/89/89 80/80/80 82/82/82
f 89/89/89 82/82/82 151/151/151
f 151/151/151 82/82/82 175/175/175
f 151/151/151 175/175/175 176/176/176
f 75/75/75 177/177/177 74/74/74
f 74/74/74 177/177/177 178/178/178
f 74/74/74 178/178/178 66/66/66
f 66/66/66 178/178/178 179/179/179
f 66/66/66 179/179/179 173/173/173
f 173/173/173 179/179/179 97/97/97
f 173/173/173 97/97/97 174/174/174
f 174/174/174 97/97/97 96/96/96
f 174/174/174 96/96/96 115/115/115
f 115/115/115 96/96/96 95/95/95
f 115/115/115 95/95/95 103/103/103
f 103/103/103 95/95/95 180/180/180
f 103/103/103 180/180/180 104/104/104
f 104/104/104 180/180/180 49/49/49
f 104/104/104 49/49/49 181/181/181
f 121/121/121 123/123/123 117/117/117
f 117/117/117 123/123/123 111/111/111
f 117/117/117 111/111/111 118/118/118
f 118/118/118 111/111/111 110/110/110
f 118/118/118 110/110/110 119/119/119
f 119/119/119 110/110/110 40/40/40
f 119/119/119 40/40/40 167/167/167
f 167/167/167 40/40/40 42/42/42
f 167/167/167 42/42/42 168/168/168
f 168/168/168 42/42/42 87/87/87
f 168/168/168 87/87/87 79/79/79
f 79/79/79 87/87/87 148/148/148
f 79/79/79 148/148/148 78/78/78
f 78/78/78 148/148/148 149/149/149
f 78/78/78 149/149/149 178/178/178
f 178/178/178 149/149/149 182/182/182
f 178/178/178 182/182/182 179/179/179
f 179/179/179 182/182/182 71/71/71
f 179/179/179 71/71/71 97/97/97
f 97/97/97 71/71/71 176/176/176
f 97/97/97 176/176/176 51/51/51
f 51/51/51 176/176/176 175/175/175
f 51/51/51 175/175/175 49/49/49
f 49/49/49 175/175/175 82/82/82
f 49/49/49 82/82/82 181/181/181
f 181/181/181 82/82/82 81/81/81
f 181/181/181 81/81/81 104/104/104
f 104/104/104 81/81/81 183/183/183
f 104/104/104 183/183/183 102/102/102
f 102/102/102 183/183/183 56/56/56
f 102/102/102 56/56/56 112/112/112
f 112/112/112 56/56/56 122/122/122
f 112/112/112 122/122/122 109/109/109
f 109/109/109 122/122/122 123/123/123
f 109/109/109 123/123/123 64/64/64
f 64/64/64 123/123/123 121/121/121
f 64/64/64 121/121/121 65/65/65
f 65/65/65 121/121/121 120/120/120
f 65/65/65 120/120/120 90/90/90
f 90/90/90 120/120/120 101/101/101
f 90/90/90 101/101/101 172/172/172
f 172/172/172 101/101/101 100/100/100
f 172/172/172 100/100/100 58/58/58
f 58/58/58 100/100/100 99/99/99
f 58/58/58 99/99/99 155/155/155
f 155/155/155 99/99/99 98/98/98
f 155/155/155 98/98/98 157/157/157
f 157/157/157 98/98/98 43/43/43
f 157/157/157 43/43/43 159/159/159
f 159/159/159 43/43/43 45/45/45
f 159/159/159 45/45/45 62/62/62
f 62/62/62 45/45/45 170/170/170
f 62/62/62 170/170/170 47/47/47
f 47/47/47 170/170/170 169/169/169
f 47/47/47 169/169/169 75/75/75
f 75/75/75 169/169/169 76/76/76
f 75/75/75 76/76/76 177/177/177
f 177/177/177 76/76/76 78/78/78
f 177/177/177 78/78/78 178/178/178
